<svg version="1.1" xmlns="http://www.w3.org/2000/svg" xmlns:xlink="http://www.w3.org/1999/xlink" width="800" height="300" style="width: 800px; height: 300px;"><defs/><g><g/><g transform="scale(1,1) translate(0.5,0.5)"><rect fill="#FFFFFF" stroke="none" x="0" y="0" width="800" height="300"/><rect fill="#ffffff" stroke="none" x="0" y="0" width="800" height="300"/><rect fill="#FFFFFF" stroke="none" x="78.65812500000001" y="5" width="716.341875" height="246.2625"/><rect fill="#ffffff" stroke="none" x="78.65812500000001" y="5" width="716.341875" height="246.2625"/><g><rect fill="none" stroke="#e5e5e5" x="78.65812500000001" y="5" width="716.341875" height="246.2625" stroke-miterlimit="10"/></g><g><g><path fill="none" stroke="#e5e5e5" paint-order="fill stroke markers" d=" M 111 251 L 111 5" stroke-miterlimit="10"/><path fill="none" stroke="#e5e5e5" paint-order="fill stroke markers" d=" M 241 251 L 241 5" stroke-miterlimit="10"/><path fill="none" stroke="#e5e5e5" paint-order="fill stroke markers" d=" M 372 251 L 372 5" stroke-miterlimit="10"/><path fill="none" stroke="#e5e5e5" paint-order="fill stroke markers" d=" M 502 251 L 502 5" stroke-miterlimit="10"/><path fill="none" stroke="#e5e5e5" paint-order="fill stroke markers" d=" M 632 251 L 632 5" stroke-miterlimit="10"/><path fill="none" stroke="#e5e5e5" paint-order="fill stroke markers" d=" M 762 251 L 762 5" stroke-miterlimit="10"/></g><g><path fill="none" stroke="#e5e5e5" paint-order="fill stroke markers" d=" M 79 240 L 795 240" stroke-miterlimit="10"/><path fill="none" stroke="#e5e5e5" paint-order="fill stroke markers" d=" M 79 195 L 795 195" stroke-miterlimit="10"/><path fill="none" stroke="#e5e5e5" paint-order="fill stroke markers" d=" M 79 151 L 795 151" stroke-miterlimit="10"/><path fill="none" stroke="#e5e5e5" paint-order="fill stroke markers" d=" M 79 106 L 795 106" stroke-miterlimit="10"/><path fill="none" stroke="#e5e5e5" paint-order="fill stroke markers" d=" M 79 62 L 795 62" stroke-miterlimit="10"/><path fill="none" stroke="#e5e5e5" paint-order="fill stroke markers" d=" M 79 17 L 795 17" stroke-miterlimit="10"/></g><g><path fill="none" stroke="none"/><path fill="none" stroke="rgb(225,109,0)" paint-order="fill stroke markers" d=" M 111.21911931818184 16.193750000000023 L 111.87099107630362 16.1937500000451 L 112.52286283442535 16.193750000092336 L 113.17473459254713 16.19375000014179 L 113.8266063506689 16.193750000193575 L 114.47847810879063 16.193750000247803 L 115.1303498669124 16.19375000030459 L 115.78222162503417 16.193750000364048 L 116.4340933831559 16.19375000042635 L 117.08596514127768 16.193750000491548 L 117.73783689939941 16.193750000559817 L 118.38970865752118 16.193750000631326 L 119.04158041564295 16.193750000706245 L 119.69345217376468 16.193750000784632 L 120.34532393188645 16.193750000866714 L 120.99719569000823 16.19375000095272 L 121.64906744812995 16.19375000104276 L 122.30093920625174 16.19375000113706 L 122.95281096437347 16.193750001235856 L 123.60468272249526 16.193750001339254 L 124.25655448061701 16.193750001447484 L 124.90842623873874 16.19375000156083 L 125.56029799686053 16.193750001679632 L 126.21216975498228 16.19375000180395 L 126.86404151310403 16.19375000193412 L 127.5159132712258 16.193750002070487 L 128.16778502934756 16.193750002213278 L 128.8196567874693 16.193750002362776 L 129.47152854559107 16.193750002519323 L 130.1234003037128 16.193750002683316 L 130.77527206183458 16.193750002854983 L 131.42714381995637 16.19375000303478 L 132.0790155780781 16.193750003223045 L 132.73088733619986 16.193750003420178 L 133.3827590943216 16.193750003626633 L 134.03463085244337 16.193750003842865 L 134.68650261056513 16.193750004069216 L 135.33837436868686 16.19375000430631 L 135.99024612680864 16.193750004554545 L 136.64211788493043 16.193750004814547 L 137.29398964305216 16.19375000508677 L 137.94586140117391 16.19375000537184 L 138.5977331592957 16.19375000567038 L 139.24960491741743 16.193750005982963 L 139.9014766755392 16.193750006310324 L 140.55334843366091 16.19375000665309 L 141.2052201917827 16.193750007012056 L 141.8570919499045 16.193750007387962 L 142.50896370802622 16.193750007781603 L 143.16083546614797 16.19375000819383 L 143.81270722426976 16.1937500086255 L 144.4645789823915 16.19375000907752 L 145.11645074051324 16.193750009550854 L 145.76832249863503 16.19375001004653 L 146.42019425675676 16.193750010565566 L 147.07206601487854 16.193750011109103 L 147.72393777300027 16.193750011678333 L 148.37580953112203 16.193750012274336 L 149.02768128924382 16.193750012898533 L 149.67955304736554 16.193750013552176 L 150.33142480548733 16.19375001423657 L 150.9832965636091 16.19375001495331 L 151.63516832173082 16.19375001570387 L 152.2870400798526 16.193750016489844 L 152.93891183797433 16.19375001731288 L 153.59078359609612 16.19375001817474 L 154.24265535421787 16.193750019077243 L 154.8945271123396 16.193750020022378 L 155.5463988704614 16.193750021012022 L 156.19827062858315 16.19375002204839 L 156.85014238670487 16.193750023133703 L 157.50201414482666 16.193750024270116 L 158.15388590294845 16.193750025460247 L 158.80575766107017 16.193750026706482 L 159.45762941919193 16.193750028011493 L 160.10950117731366 16.193750029378123 L 160.76137293543545 16.193750030809156 L 161.4132446935572 16.19375003230772 L 162.06511645167893 16.193750033876995 L 162.71698820980072 16.19375003552028 L 163.3688599679225 16.19375003724116 L 164.02073172604423 16.193750039043152 L 164.672603484166 16.193750040930183 L 165.32447524228778 16.19375004290623 L 165.9763470004095 16.19375004497556 L 166.62821875853126 16.19375004714243 L 167.280090516653 16.193750049411562 L 167.93196227477478 16.19375005178773 L 168.58383403289656 16.193750054275995 L 169.2357057910183 16.19375005688164 L 169.88757754914008 16.193750059610238 L 170.5394493072618 16.193750062467586 L 171.19132106538356 16.19375006545971 L 171.84319282350532 16.193750068592976 L 172.49506458162705 16.193750071874035 L 173.14693633974883 16.193750075309936 L 173.79880809787062 16.193750078907954 L 174.45067985599235 16.19375008267565 L 175.10255161411413 16.19375008662115 L 175.7544233722359 16.193750090752758 L 176.40629513035768 16.19375009507928 L 177.05816688847938 16.19375009960993 L 177.71003864660116 16.19375010435425 L 178.36191040472295 16.19375010932248 L 179.01378216284468 16.193750114525074 L 179.66565392096646 16.193750119973117 L 180.31752567908825 16.19375012567815 L 180.96939743720995 16.193750131652337 L 181.62126919533173 16.19375013790841 L 182.27314095345344 16.1937501444595 L 182.92501271157522 16.19375015131976 L 183.576884469697 16.193750158503633 L 184.22875622781874 16.19375016602646 L 184.88062798594052 16.193750173904164 L 185.5324997440623 16.193750182153508 L 186.184371502184 16.193750190792002 L 186.8362432603058 16.193750199838064 L 187.48811501842755 16.193750209310906 L 188.1399867765493 16.19375021923065 L 188.79185853467106 16.19375022961833 L 189.4437302927928 16.19375024049606 L 190.09560205091458 16.193750251887025 L 190.74747380903636 16.193750263815332 L 191.39934556715806 16.193750276306446 L 192.05121732527985 16.19375028938674 L 192.70308908340164 16.193750303084244 L 193.35496084152336 16.193750317427885 L 194.00683259964512 16.19375033244819 L 194.65870435776685 16.193750348177105 L 195.31057611588864 16.19375036464811 L 195.96244787401042 16.193750381896166 L 196.61431963213215 16.193750399957878 L 197.26619139025394 16.19375041887173 L 197.9180631483757 16.193750438677853 L 198.56993490649742 16.193750459418368 L 199.22180666461918 16.193750481137386 L 199.8736784227409 16.193750503881006 L 200.5255501808627 16.193750527697603 L 201.17742193898448 16.193750552637766 L 201.8292936971062 16.19375057875459 L 202.481165455228 16.193750606103436 L 203.13303721334975 16.193750634742628 L 203.78490897147148 16.193750664732818 L 204.43678072959324 16.193750696137954 L 205.08865248771502 16.1937507290246 L 205.74052424583675 16.19375076346273 L 206.39239600395854 16.193750799525617 L 207.04426776208027 16.19375083728977 L 207.69613952020202 16.193750876835566 L 208.3480112783238 16.193750918246963 L 208.99988303644554 16.193750961611954 L 209.65175479456732 16.193751007022854 L 210.30362655268908 16.193751054576126 L 210.9554983108108 16.19375110437278 L 211.6073700689326 16.19375115651866 L 212.25924182705435 16.193751211124606 L 212.91111358517608 16.1937512683067 L 213.56298534329784 16.193751328186465 L 214.21485710141962 16.193751390891123 L 214.86672885954138 16.193751456554082 L 215.5186006176631 16.193751525314724 L 216.17047237578493 16.193751597319306 L 216.82234413390665 16.19375167272085 L 217.4742158920284 16.193751751679542 L 218.12608765015017 16.193751834363354 L 218.77795940827195 16.193751920947875 L 219.4298311663937 16.193752011617164 L 220.08170292451544 16.19375210656392 L 220.7335746826372 16.193752205989995 L 221.38544644075898 16.193752310106674 L 222.03731819888074 16.193752419135194 L 222.68918995700247 16.19375253330736 L 223.34106171512423 16.19375265286584 L 223.992933473246 16.193752778064663 L 224.64480523136777 16.193752909169973 L 225.2966769894895 16.193753046460415 L 225.9485487476113 16.193753190227767 L 226.60042050573304 16.19375334077762 L 227.2522922638548 16.193753498429942 L 227.90416402197653 16.193753663519715 L 228.55603578009834 16.193753836398002 L 229.20790753822007 16.19375401743207 L 229.85977929634183 16.193754207006748 L 230.51165105446356 16.193754405524942 L 231.16352281258537 16.1937546134086 L 231.8153945707071 16.19375483109951 L 232.46726632882886 16.193755059060436 L 233.11913808695058 16.193755297775738 L 233.7710098450724 16.193755547752914 L 234.42288160319416 16.193755809523225 L 235.07475336131589 16.193756083642995 L 235.7266251194376 16.193756370694814 L 236.37849687755943 16.19375667128878 L 237.03036863568119 16.193756986063875 L 237.6822403938029 16.193757315689027 L 238.3341121519247 16.193757660864776 L 238.98598391004646 16.1937580223248 L 239.6378556681682 16.19375840083734 L 240.28972742628994 16.19375879720684 L 240.94159918441173 16.193759212275836 L 241.5934709425335 16.193759646926367 L 242.24534270065524 16.19376010208225 L 242.89721445877697 16.193760578710908 L 243.54908621689876 16.1937610778254 L 244.20095797502051 16.193761600486482 L 244.85282973314227 16.193762147804875 L 245.504701491264 16.19376272094405 L 246.1565732493858 16.19376332112205 L 246.80844500750754 16.19376394961438 L 247.4603167656293 16.19376460775692 L 248.11218852375103 16.193765296948413 L 248.76406028187282 16.19376601865372 L 249.41593203999457 16.19376677440664 L 250.06780379811633 16.19376756581346 L 250.7196755562381 16.193768394556173 L 251.37154731435984 16.193769262396188 L 252.0234190724816 16.193770171178016 L 252.67529083060336 16.193771122833027 L 253.32716258872512 16.193772119383937 L 253.97903434684687 16.19377316294873 L 254.63090610496863 16.193774255745325 L 255.2827778630904 16.193775400096342 L 255.93464962121215 16.193776598433942 L 256.58652137933393 16.193777853304937 L 257.23839313745566 16.193779167376363 L 257.8902648955774 16.19378054344122 L 258.5421366536992 16.193781984423936 L 259.19400841182096 16.19378349338723 L 259.8458801699427 16.193785073538095 L 260.4977519280644 16.19378672823484 L 261.1496236861862 16.193788460994426 L 261.80149544430793 16.19379027549934 L 262.4533672024297 16.19379217560612 L 263.10523896055145 16.193794165353097 L 263.7571107186733 16.19379624896908 L 264.408982476795 16.193798430882566 L 265.06085423491675 16.193800715730674 L 265.71272599303853 16.193803108369536 L 266.36459775116026 16.193805613884194 L 267.016469509282 16.193808237599626 L 267.6683412674038 16.19381098509217 L 268.32021302552556 16.193813862200955 L 268.97208478364735 16.193816875040795 L 269.6239565417691 16.193820030014763 L 270.2758282998908 16.19382333382822 L 270.9277000580126 16.193826793502637 L 271.5795718161343 16.193830416390824 L 272.2314435742561 16.19383421019245 L 272.88331533237783 16.19383818297041 L 273.5351870904996 16.193842343167887 L 274.1870588486214 16.193846699626476 L 274.83893060674313 16.193851261604607 L 275.49080236486486 16.193856038797833 L 276.14267412298665 16.19386104135873 L 276.7945458811084 16.193866279919064 L 277.44641763923016 16.193871765611846 L 278.0982893973519 16.193877510095547 L 278.7501611554737 16.193883525578485 L 279.40203291359546 16.193889824844632 L 280.0539046717172 16.19389642128141 L 280.7057764298389 16.193903328907425 L 281.3576481879607 16.19391056240272 L 282.00951994608243 16.19391813713969 L 282.6613917042042 16.19392606921599 L 283.313263462326 16.19393437548848 L 283.96513522044773 16.193943073609205 L 284.6170069785695 16.193952182062844 L 285.26887873669125 16.193961720205948 L 285.920750494813 16.19397170830814 L 286.57262225293476 16.19398216759521 L 287.22449401105655 16.193993120293896 L 287.8763657691783 16.19400458967948 L 288.52823752730006 16.19401660012511 L 289.1801092854218 16.194029177153368 L 289.8319810435436 16.194042347490836 L 290.4838528016653 16.194056139124484 L 291.13572455978704 16.194070581361416 L 291.7875963179088 16.194085704890938 L 292.4394680760306 16.194101541849818 L 293.09133983415234 16.194118125890554 L 293.7432115922741 16.1941354922526 L 294.39508335039585 16.19415367783762 L 295.04695510851764 16.19417272128743 L 295.69882686663937 16.194192663066303 L 296.3506986247611 16.194213545546745 L 297.0025703828829 16.194235413099705 L 297.65444214100467 16.19425831218831 L 298.3063138991264 16.19428229146689 L 298.9581856572482 16.19430740188426 L 299.6100574153699 16.194333696791603 L 300.2619291734917 16.194361232055826 L 300.9138009316134 16.194390066178357 L 301.56567268973515 16.19442026041895 L 302.217544447857 16.194451878925804 L 302.8694162059787 16.194484988871807 L 303.52128796410045 16.19451966059694 L 304.17315972222224 16.194555967757537 L 304.82503148034397 16.194593987482506 L 305.47690323846575 16.19463380053702 L 306.1287749965875 16.19467549149374 L 306.78064675470927 16.194719148912156 L 307.43251851283105 16.194764865526622 L 308.0843902709528 16.194812738442636 L 308.7362620290745 16.194862869342842 L 309.3881337871963 16.194915364702922 L 310.0400055453181 16.194970336016752 L 310.6918773034398 16.195027900032983 L 311.34374906156154 16.19508817900237 L 311.99562081968327 16.19515130093714 L 312.6474925778051 16.19521739988147 L 313.29936433592684 16.19528661619603 L 313.9512360940486 16.195359096854986 L 314.60310785217035 16.195434995757296 L 315.2549796102921 16.195514474052516 L 315.90685136841387 16.1955977004817 L 316.5587231265356 16.195684851734995 L 317.21059488465744 16.195776112824888 L 317.86246664277917 16.19587167747801 L 318.5143384009009 16.195971748544707 L 319.1662101590226 16.19607653842803 L 319.8180819171444 16.196186269532518 L 320.4699536752662 16.196301174734515 L 321.1218254333879 16.196421497874155 L 321.7736971915097 16.19654749427002 L 322.4255689496315 16.196679431258985 L 323.0774407077532 16.196817588759927 L 323.72931246587495 16.196962259864563 L 324.38118422399674 16.197113751456016 L 325.0330559821185 16.197272384855808 L 325.68492774024025 16.197438496501206 L 326.336799498362 16.19761243865412 L 326.9886712564837 16.19779458014318 L 327.64054301460556 16.197985307140414 L 328.2924147727273 16.198185023973622 L 328.94428653084907 16.19839415397746 L 329.5961582889708 16.19861314038286 L 330.2480300470926 16.198842447248865 L 330.8999018052143 16.199082560437432 L 331.55177356333604 16.199333988632873 L 332.2036453214579 16.19959726440942 L 332.8555170795796 16.199872945347636 L 333.50738883770134 16.200161615202887 L 334.15926059582307 16.200463885127476 L 334.8111323539448 16.20078039494939 L 335.46300411206664 16.201111814510284 L 336.11487587018837 16.201458845064565 L 336.7667476283101 16.201822220743622 L 337.41861938643194 16.202202710086794 L 338.07049114455367 16.202601117642814 L 338.7223629026754 16.203018285645214 L 339.37423466079713 16.203455095763502 L 340.02610641891886 16.203912470935336 L 340.6779781770407 16.204391377282093 L 341.32984993516243 16.204892826111404 L 341.98172169328416 16.20541787601178 L 342.633593451406 16.205967635041418 L 343.28546520952773 16.206543263016954 L 343.93733696764946 16.20714597390588 L 344.5892087257712 16.207777038326583 L 345.2410804838929 16.20843778616154 L 345.89295224201476 16.20912960928831 L 346.5448240001365 16.209853964432284 L 347.1966957582582 16.210612376148276 L 347.84856751638006 16.211406439934592 L 348.5004392745018 16.212237825485772 L 349.1523110326235 16.213108280090466 L 349.80418279074524 16.21401963217903 L 350.456054548867 16.214973795028527 L 351.1079263069888 16.215972770630003 L 351.75979806511054 16.21701865372586 L 352.4116698232323 16.21811363602359 L 353.0635415813541 16.219260010592677 L 353.71541333947584 16.22046017645215 L 354.3672850975976 16.221716643356274 L 355.0191568557193 16.223032036785753 L 355.67102861384114 16.224409103152198 L 356.3229003719629 16.22585071522434 L 356.9747721300846 16.227359877783613 L 357.62664388820633 16.228939733517507 L 358.2785156463282 16.230593569160135 L 358.9303874044499 16.23232482188712 L 359.58225916257163 16.234137085975078 L 360.23413092069336 16.236034119734143 L 360.8860026788152 16.23801985272212 L 361.53787443693693 16.240098393250435 L 362.18974619505866 16.242274036189883 L 362.8416179531804 16.24455127108689 L 363.49348971130223 16.246934790597606 L 364.14536146942396 16.24942949925122 L 364.7972332275457 16.252040522549805 L 365.4491049856674 16.25477321641432 L 366.10097674378926 16.257633176986303 L 366.752848501911 16.26062625079186 L 367.4047202600327 16.263758545278847 L 368.05659201815456 16.267036439732635 L 368.7084637762763 16.270466596579183 L 369.360335534398 16.27405597308183 L 370.01220729251975 16.27781183343876 L 370.6640790506416 16.281741761284707 L 371.3159508087633 16.28585367260405 L 371.96782256688516 16.29015582905646 L 372.6196943250068 16.294656851719196 L 373.2715660831286 16.299365735246454 L 373.92343784125035 16.304291862445268 L 374.5753095993721 16.309445019267343 L 375.2271813574939 16.31483541021106 L 375.87905311561565 16.32047367413014 L 376.5309248737374 16.326370900439315 L 377.1827966318592 16.332538645707416 L 377.83466838998083 16.338988950625208 L 378.4865401481027 16.345734357330628 L 379.1384119062244 16.352787927073734 L 379.79028366434613 16.360163258197304 L 380.442155422468 16.36787450440727 L 381.0940271805897 16.375936393301572 L 381.74589893871143 16.384364245123265 L 382.3977706968333 16.393173991696074 L 383.049642454955 16.402382195498944 L 383.70151421307673 16.412006068827452 L 384.35338597119846 16.422063492985956 L 385.0052577293202 16.43257303744673 L 385.65712948744203 16.443553978907687 L 386.30900124556376 16.455026320169452 L 386.9608730036855 16.467010808750103 L 387.61274476180733 16.47952895514328 L 388.26461651992906 16.492603050620517 L 388.9164882780508 16.506256184468327 L 389.5683600361725 16.520512260543057 L 390.22023179429425 16.53539601301594 L 390.8721035524161 16.550933021173535 L 391.5239753105378 16.56714972312693 L 392.17584706865955 16.584073428276326 L 392.8277188267814 16.60173232836553 L 393.4795905849031 16.620155506953438 L 394.13146234302485 16.63937294711951 L 394.7833341011466 16.659415537211203 L 395.4352058592684 16.680315074433736 L 396.08707761739015 16.702104266073775 L 396.7389493755119 16.724816728142912 L 397.3908211336336 16.74848698121832 L 398.04269289175545 16.773150443256554 L 398.6945646498772 16.798843419148454 L 399.3464364079989 16.825603086786202 L 399.99830816612064 16.853467479407527 L 400.6501799242425 16.88247546398867 L 401.3020516823642 16.912666715459977 L 401.95392344048594 16.944081686521656 L 402.60579519860767 16.976761572852922 L 403.2576669567295 17.010748273512547 L 403.90953871485124 17.046084346349573 L 404.56141047297297 17.082812958259524 L 405.2132822310947 17.120977830143715 L 405.86515398921654 17.160623176456056 L 406.51702574733827 17.201793639250297 L 407.16889750546 17.244534216676186 L 407.8207692635817 17.28889018590877 L 408.47264102170357 17.334907020536946 L 409.1245127798253 17.382630302482937 L 409.776384537947 17.432105628571662 L 410.42825629606887 17.483378511921103 L 411.0801280541906 17.536494278379507 L 411.7319998123123 17.59149795828978 L 412.38387157043405 17.648434173922965 L 413.0357433285558 17.70734702297824 L 413.6876150866776 17.76827995861015 L 414.33948684479935 17.83127566649904 L 414.9913586029211 17.89637593954251 L 415.6432303610429 17.96362155079703 L 416.29510211916465 18.03305212535423 L 416.9469738772864 18.104706011881717 L 417.5988456354081 18.178620154601276 L 418.25071739352984 18.254829966514194 L 418.9025891516517 18.33336920470947 L 419.5544609097734 18.414269848614765 L 420.20633266789514 18.497561982056595 L 420.858204426017 18.583273680002435 L 421.5100761841387 18.671430900845053 L 422.16194794226044 18.76205738507298 L 422.81381970038217 18.855174561138654 L 423.465691458504 18.950801459296656 L 424.11756321662574 19.048954634132883 L 424.76943497474747 19.14964809644283 L 425.4213067328693 19.252893255048093 L 426.07317849099104 19.358698869059538 L 426.72505024911277 19.46707101100901 L 427.3769220072345 19.578013041177314 L 428.0287937653562 19.691525593349866 L 428.68066552347807 19.807606572126815 L 429.3325372815998 19.92625116181216 L 429.9844090397215 20.047451846802062 L 430.63628079784326 20.171198443289768 L 431.2881525559651 20.29747814200283 L 431.9400243140868 20.426275561594082 L 432.59189607220856 20.5575728122177 L 433.2437678303303 20.691349568736427 L 433.8956395884521 20.82758315293495 L 434.54751134657386 20.966248624043374 L 435.1993831046956 21.107318876824195 L 435.8512548628174 21.250764746425773 L 436.50312662093916 21.39655511917323 L 437.1549983790609 21.544657048442218 L 437.8068701371826 21.695035874747816 L 438.45874189530434 21.847655349177558 L 439.1106136534262 22.002477759304384 L 439.7624854115479 22.15946405673219 L 440.41435716966964 22.31857398544986 L 441.0662289277915 22.4797662102049 L 441.7181006859131 22.642998444144098 L 442.36997244403494 22.808227575016417 L 443.0218442021567 22.97540978928197 L 443.6737159602784 23.1445006935258 L 444.32558771840024 23.315455432630927 L 444.97745947652186 23.488228804224775 L 445.6293312346438 23.662775368971154 L 446.28120299276554 23.83904955634165 L 446.9330747508873 24.017005765556064 L 447.584946509009 24.196598461442704 L 448.23681826713073 24.377782265020528 L 448.8886900252526 24.560512038661955 L 449.5405617833743 24.74474296574192 L 450.19243354149603 24.930430624727364 L 450.84430529961776 25.117531057702763 L 451.4961770577396 25.306000833368046 L 452.14804881586133 25.49579710457988 L 452.79992057398306 25.686877660538755 L 453.4517923321049 25.879200973752177 L 454.1036640902265 26.0727262419295 L 454.75553584834836 26.26741342498144 L 455.4074076064701 26.463223277317866 L 456.05927936459193 26.660117375648042 L 456.71115112271366 26.8580581425 L 457.3630228808354 27.057008865681667 L 458.0148946389571 27.256933713914407 L 458.66676639707885 27.457797748868074 L 459.3186381552007 27.659566933832025 L 459.9705099133224 27.862208139251265 L 460.62238167144426 28.06568914535677 L 461.2742534295659 28.269978642112335 L 461.9261251876877 28.475046226697657 L 462.57799694580945 28.68086239873685 L 463.2298687039312 28.887398553477908 L 463.881740462053 29.09462697311824 L 464.53361222017463 29.302520816462334 L 465.1854839782965 29.511054107091752 L 465.8373557364182 29.720201720213367 L 466.48922749454005 29.929939368347107 L 467.1410992526618 30.140243586002157 L 467.7929710107835 30.35109171348165 L 468.44484276890523 30.562461879947477 L 469.09671452702696 30.774332985865783 L 469.7485862851488 30.98668468494799 L 470.40045804327053 31.19949736568958 L 471.0523298013924 31.41275213260377 L 471.704201559514 31.626430787237666 L 472.35607331763583 31.840515809051226 L 473.00794507575756 32.05499033623204 L 473.6598168338793 32.26983814651243 L 474.31168859200113 32.48504363804773 L 474.96356035012275 32.70059181041006 L 475.6154321082446 32.916468245745705 L 476.2673038663663 33.13265909013694 L 476.91917562448816 33.349151035208024 L 477.5710473826099 33.5659313000059 L 478.2229191407316 33.78298761318615 L 478.87479089885335 34.00030819552711 L 479.5266626569751 34.21788174279396 L 480.1785344150969 34.43569740896993 L 480.83040617321865 34.653744789869336 L 481.4822779313405 34.87201390714313 L 482.1341496894621 35.09049519268768 L 482.78602144758395 35.30917947346143 L 483.4378932057057 35.52805795671611 L 484.0897649638274 35.74712221564329 L 484.74163672194925 35.96636417543897 L 485.393508480071 36.185776099784164 L 486.0453802381927 36.40535057774122 L 486.69725199631444 36.6250805110613 L 487.3491237544363 36.84495910189963 L 488.000995512558 37.06497984093397 L 488.65286727067974 37.285136495879215 L 489.30473902880146 37.50542310039248 L 489.9566107869232 37.725833943361295 L 490.60848254504504 37.946363558567555 L 491.26035430316676 38.167006714718354 L 491.9122260612886 38.387758405835996 L 492.56409781941034 38.60861384199842 L 493.21596957753206 38.829568440420985 L 493.8678413356538 39.05061781687061 L 494.5197130937755 39.27175777740291 L 495.17158485189736 39.49298431041342 L 495.8234566100191 39.71429357899393 L 496.4753283681408 39.93568191358355 L 497.12720012626255 40.15714580490692 L 497.7790718843844 40.378681897188756 L 498.4309436425061 40.60028698163745 L 499.08281540062785 40.821957990187514 L 499.7346871587496 41.04369198949223 L 500.3865589168713 41.26548617515908 L 501.03843067499315 41.48733786621773 L 501.6903024331149 41.70924449981402 L 502.3421741912367 41.93120362612024 L 502.99404594935845 42.15321290345537 L 503.6459177074802 42.37527009360622 L 504.2977894656019 42.59737305734308 L 504.94966122372364 42.819519750121515 L 505.6015329818455 43.04170821796458 L 506.2534047399672 43.263936593516576 L 506.90527649808894 43.486203092264304 L 507.55714825621067 43.70850600891646 L 508.2090200143325 43.930843713937634 L 508.86089177245424 44.15321465022839 L 509.51276353057597 44.375617329947886 L 510.1646352886978 44.59805033147117 L 510.8165070468194 44.8205122964774 L 511.46837880494127 45.043001927163004 L 512.120250563063 45.26551798357431 L 512.7721223211848 45.48805928105568 L 513.4239940793066 45.71062468780735 L 514.0758658374283 45.9332131225496 L 514.72773759555 46.155823552287615 L 515.3796093536718 46.37845499017391 L 516.0314811117936 46.60110649346345 L 516.6833528699153 46.82377716155801 L 517.3352246280372 47.046466134136125 L 517.9870963861588 47.26917258936422 L 518.6389681442806 47.49189574218687 L 519.2908399024024 47.71463484269114 L 519.9427116605241 47.9373891745434 L 520.5945834186459 48.16015805349451 L 521.2464551767677 48.3829408259507 L 521.8983269348894 48.605736867607646 L 522.5501986930111 48.82854558214461 L 523.202070451133 49.05136639997616 L 523.8539422092547 49.27419877705924 L 524.5058139673764 49.49704219375266 L 525.1576857254981 49.71989615372749 L 525.8095574836199 49.94276018292504 L 526.4614292417417 50.16563382856205 L 527.1133009998634 50.3885166581789 L 527.7651727579853 50.611408258730705 L 528.4170445161069 50.83430823571882 L 529.0689162742287 51.05721621236063 L 529.7207880323506 51.280131828796215 L 530.3726597904722 51.50305474133086 L 531.0245315485942 51.72598462171072 L 531.6764033067158 51.94892115643108 L 532.3282750648376 52.17186404607514 L 532.9801468229593 52.3948130046829 L 533.6320185810811 52.617767759147114 L 534.2838903392028 52.8407280486376 L 534.9357620973245 53.063693624050046 L 535.5876338554464 53.28666424748002 L 536.2395056135681 53.50963969172051 L 536.8913773716899 53.73261973978174 L 537.5432491298117 53.95560418443239 L 538.1951208879334 54.17859282776175 L 538.8469926460551 54.4015854807609 L 539.4988644041769 54.62458196292306 L 540.1507361622987 54.84758210186172 L 540.8026079204204 55.07058573294589 L 541.4544796785422 55.293592698951386 L 542.1063514366639 55.516602849728486 L 542.7582231947857 55.73961604188341 L 543.4100949529075 55.96263213847533 L 544.0619667110292 56.18565100872573 L 544.713838469151 56.408672527741714 L 545.3657102272726 56.631696576251386 L 546.0175819853945 56.85472304035093 L 546.6694537435162 57.07775181126348 L 547.3213255016381 57.30078278510828 L 547.9731972597598 57.52381586268078 L 548.6250690178815 57.746850949241974 L 549.2769407760032 57.96988795431787 L 549.928812534125 58.19292679150752 L 550.5806842922468 58.41596737829954 L 551.2325560503685 58.63900963589754 L 551.8844278084903 58.86205348905261 L 552.536299566612 59.085098865904 L 553.1881713247338 59.30814569782643 L 553.8400430828556 59.53119391928453 L 554.4919148409773 59.754243467693954 L 555.143786599099 59.9772942832883 L 555.7956583572209 60.20034630899261 L 556.4475301153426 60.423399490301875 L 557.0994018734643 60.64645377516564 L 557.7512736315862 60.86950911387737 L 558.4031453897079 61.092565458969005 L 559.0550171478296 61.31562276511016 L 559.7068889059514 61.53868098901194 L 560.3587606640731 61.76174008933489 L 561.0106324221949 61.98480002660145 L 561.6625041803167 62.207860763111995 L 562.3143759384385 62.43092226286478 L 562.9662476965601 62.653984491479434 L 563.618119454682 62.87704741612424 L 564.2699912128037 63.10011100544608 L 564.9218629709254 63.32317522950393 L 565.5737347290473 63.54624005970544 L 566.225606487169 63.76930546874607 L 566.8774782452907 63.99237143055103 L 567.5293500034124 64.21543792022007 L 568.1812217615343 64.4385049139745 L 568.833093519656 64.66157238910668 L 569.4849652777777 64.88464032393179 L 570.1368370358995 65.10770869774177 L 570.7887087940212 65.3307774907613 L 571.440580552143 65.55384668410593 L 572.0924523102648 65.77691625974171 L 572.7443240683865 65.99998620044715 L 573.3961958265083 66.22305648977641 L 574.0480675846301 66.44612711202458 L 574.6999393427518 66.66919805219402 L 575.3518111008735 66.89226929596279 L 576.0036828589954 67.11534082965409 L 576.6555546171171 67.3384126402072 L 577.3074263752388 67.56148471514976 L 577.9592981333606 67.78455704257121 L 578.6111698914824 68.00762961109749 L 579.2630416496041 68.23070240986706 L 579.9149134077259 68.45377542850753 L 580.5667851658476 68.67684865711382 L 581.2186569239694 68.89992208622701 L 581.8705286820912 69.12299570681435 L 582.5224004402129 69.34606951024992 L 583.1742721983347 69.56914348829648 L 583.8261439564563 69.79221763308774 L 584.4780157145782 70.01529193711193 L 585.1298874726999 70.23836639319546 L 585.7817592308216 70.46144099448816 L 586.4336309889435 70.68451573444827 L 587.0855027470652 70.90759060682879 L 587.737374505187 71.13066560566412 L 588.3892462633087 71.3537407252575 L 589.0411180214305 71.57681596016857 L 589.6929897795522 71.79989130520241 L 590.344861537674 72.02296675539782 L 590.9967332957958 72.24604230601719 L 591.6486050539175 72.46911795253641 L 592.3004768120393 72.69219369063515 L 592.9523485701611 72.91526951618764 L 593.6042203282828 73.13834542525404 L 594.2560920864046 73.36142141407203 L 594.9079638445263 73.58449747904868 L 595.559835602648 73.80757361675302 L 596.2117073607699 74.03064982390862 L 596.8635791188916 74.25372609738659 L 597.5154508770134 74.47680243419904 L 598.1673226351351 74.69987883149278 L 598.8191943932569 74.92295528654299 L 599.4710661513786 75.14603179674774 L 600.1229379095004 75.36910835962223 L 600.7748096676222 75.59218497279366 L 601.4266814257438 75.81526163399607 L 602.0785531838657 76.03833834106567 L 602.7304249419874 76.26141509193602 L 603.3822967001092 76.48449188463388 L 604.034168458231 76.70756871727494 L 604.6860402163527 76.9306455880596 L 605.3379119744745 77.1537224952695 L 605.9897837325962 77.37679943726371 L 606.641655490718 77.59987641247503 L 607.2935272488397 77.8229534194071 L 607.9453990069615 78.0460304566308 L 608.5972707650833 78.2691075227815 L 609.249142523205 78.49218461655596 L 609.9010142813268 78.71526173670969 L 610.5528860394485 78.93833888205432 L 611.2047577975703 79.16141605145495 L 611.856629555692 79.38449324382779 L 612.5085013138138 79.60757045813799 L 613.1603730719355 79.83064769339717 L 613.8122448300574 80.05372494866162 L 614.4641165881791 80.27680222303005 L 615.1159883463008 80.49987951564177 L 615.7678601044225 80.72295682567488 L 616.4197318625443 80.9460341523446 L 617.0716036206661 81.16911149490141 L 617.7234753787878 81.39218885262954 L 618.3753471369097 81.6152662248455 L 619.0272188950313 81.83834361089666 L 619.6790906531531 82.06142101015965 L 620.3309624112749 82.28449842203929 L 620.9828341693966 82.50757584596712 L 621.6347059275184 82.73065328140049 L 622.28657768564 82.95373072782098 L 622.938449443762 83.1768081847336 L 623.5903212018836 83.3998856516657 L 624.2421929600055 83.62296312816582 L 624.8940647181272 83.84604061380298 L 625.5459364762489 84.06911810816555 L 626.1978082343708 84.29219561086032 L 626.8496799924924 84.51527312151208 L 627.5015517506142 84.73835063976225 L 628.153423508736 84.96142816526853 L 628.8052952668578 85.18450569770403 L 629.4571670249795 85.40758323675658 L 630.1090387831013 85.63066078212805 L 630.760910541223 85.85373833353381 L 631.4127822993447 86.07681589070197 L 632.0646540574666 86.29989345337293 L 632.7165258155883 86.52297102129882 L 633.3683975737101 86.74604859424286 L 634.020269331832 86.96912617197896 L 634.6721410899537 87.19220375429126 L 635.3240128480754 87.41528134097359 L 635.975884606197 87.63835893182909 L 636.6277563643189 87.8614365266697 L 637.2796281224407 88.08451412531593 L 637.9314998805625 88.30759172759633 L 638.5833716386843 88.53066933334719 L 639.2352433968059 88.7537469424121 L 639.8871151549276 88.97682455464178 L 640.5389869130495 89.1999021698937 L 641.1908586711712 89.42297978803168 L 641.842730429293 89.64605740892569 L 642.4946021874147 89.8691350324516 L 643.1464739455364 90.09221265849075 L 643.7983457036582 90.31529028692998 L 644.4502174617801 90.53836791766116 L 645.1020892199018 90.76144555058104 L 645.7539609780234 90.984523185591 L 646.4058327361452 91.2076008225969 L 647.0577044942671 91.43067846150879 L 647.7095762523888 91.6537561022408 L 648.3614480105106 91.876833744711 L 649.0133197686322 92.09991138884098 L 649.665191526754 92.32298903455603 L 650.3170632848759 92.54606668178474 L 650.9689350429976 92.76914433045889 L 651.6208068011193 92.99222198051336 L 652.2726785592412 93.21529963188598 L 652.9245503173629 93.43837728451737 L 653.5764220754845 93.66145493835083 L 654.2282938336064 93.88453259333218 L 654.8801655917282 94.1076102494097 L 655.5320373498499 94.33068790653405 L 656.1839091079717 94.553765564658 L 656.8357808660933 94.77684322373662 L 657.4876526242152 94.99992088372679 L 658.139524382337 95.22299854458748 L 658.7913961404587 95.44607620627949 L 659.4432678985805 95.66915386876539 L 660.0951396567021 95.89223153200936 L 660.747011414824 96.11530919597729 L 661.3988831729457 96.33838686063655 L 662.0507549310676 96.56146452595596 L 662.7026266891893 96.78454219190581 L 663.3544984473109 97.00761985845773 L 664.0063702054329 97.23069752558456 L 664.6582419635545 97.45377519326038 L 665.3101137216763 97.67685286146047 L 665.961985479798 97.89993053016127 L 666.6138572379197 98.12300819934015 L 667.2657289960416 98.34608586897562 L 667.9176007541633 98.56916353904705 L 668.5694725122851 98.79224120953486 L 669.2213442704068 99.01531888042024 L 669.8732160285284 99.23839655168533 L 670.5250877866504 99.46147422331299 L 671.1769595447721 99.68455189528689 L 671.8288313028938 99.90762956759147 L 672.4807030610157 100.13070724021176 L 673.1325748191373 100.35378491313358 L 673.7844465772591 100.57686258634334 L 674.4363183353809 100.7999402598281 L 675.0881900935026 101.02301793357543 L 675.7400618516244 101.2460956075735 L 676.3919336097462 101.46917328181101 L 677.043805367868 101.69225095627718 L 677.6956771259896 101.91532863096177 L 678.3475488841115 102.13840630585486 L 678.9994206422332 102.36148398094704 L 679.6512924003549 102.58456165622943 L 680.3031641584768 102.8076393316934 L 680.9550359165984 103.03071700733082 L 681.6069076747202 103.2537946831338 L 682.258779432842 103.4768723590949 L 682.9106511909638 103.69995003520705 L 683.5625229490855 103.92302771146342 L 684.2143947072072 104.14610538785749 L 684.8662664653291 104.3691830643831 L 685.5181382234507 104.59226074103427 L 686.1700099815725 104.81533841780535 L 686.8218817396943 105.03841609469097 L 687.473753497816 105.26149377168596 L 688.1256252559378 105.4845714487854 L 688.7774970140596 105.70764912598457 L 689.4293687721813 105.93072680327899 L 690.081240530303 106.15380448066435 L 690.7331122884249 106.37688215813654 L 691.3849840465466 106.59995983569169 L 692.0368558046683 106.82303751332603 L 692.6887275627901 107.04611519103605 L 693.3405993209119 107.26919286881821 L 693.9924710790336 107.49227054666943 L 694.6443428371554 107.71534822458648 L 695.2962145952771 107.93842590256645 L 695.9480863533989 108.16150358060645 L 696.5999581115207 108.38458125870383 L 697.2518298696424 108.60765893685598 L 697.9037016277642 108.83073661506043 L 698.5555733858859 109.05381429331484 L 699.2074451440077 109.27689197161698 L 699.8593169021294 109.49996964996461 L 700.5111886602512 109.72304732835579 L 701.163060418373 109.94612500678849 L 701.8149321764946 110.16920268526087 L 702.4668039346166 110.3922803637711 L 703.1186756927382 110.61535804231752 L 703.77054745086 110.8384357208985 L 704.4224192089818 111.06151339951248 L 705.0742909671035 111.28459107815792 L 705.7261627252253 111.50766875683345 L 706.3780344833469 111.73074643553772 L 707.0299062414688 111.95382411426942 L 707.6817779995905 112.17690179302735 L 708.3336497577124 112.39997947181027 L 708.9855215158341 112.62305715061706 L 709.6373932739558 112.8461348294467 L 710.2892650320775 113.06921250829814 L 710.9411367901993 113.29229018717032 L 711.5930085483211 113.5153678660624 L 712.2448803064428 113.73844554497347 L 712.8967520645646 113.96152322390265 L 713.5486238226864 114.18460090284913 L 714.2004955808081 114.40767858181212 L 714.8523673389299 114.63075626079089 L 715.5042390970516 114.85383393978472 L 716.1561108551733 115.07691161879293 L 716.8079826132952 115.29998929781493 L 717.4598543714169 115.52306697685 L 718.1117261295386 115.74614465589764 L 718.7635978876605 115.96922233495724 L 719.4154696457821 116.1923000140282 L 720.0673414039039 116.41537769311017 L 720.7192131620257 116.63845537220251 L 721.3710849201474 116.86153305130478 L 722.0229566782692 117.08461073041659 L 722.674828436391 117.30768840953743 L 723.3267001945128 117.53076608866698 L 723.9785719526344 117.7538437678048 L 724.6304437107563 117.97692144695051 L 725.282315468878 118.19999912610376 L 725.9341872269997 118.4230768052642 L 726.5860589851216 118.64615448443158 L 727.2379307432432 118.86923216360546 L 727.889802501365 119.09230984278568 L 728.5416742594867 119.31538752197184 L 729.1935460176086 119.53846520116377 L 729.8454177757303 119.76154288036116 L 730.497289533852 119.98462055956372 L 731.1491612919739 120.20769823877131 L 731.8010330500955 120.43077591798365 L 732.4529048082173 120.65385359720051 L 733.1047765663391 120.87693127642171 L 733.7566483244608 121.1000089556471 L 734.4085200825826 121.32308663487643 L 735.0603918407044 121.54616431410952 L 735.7122635988261 121.76924199334624 L 736.3641353569478 121.99231967258638 L 737.0160071150696 122.21539735182984 L 737.6678788731914 122.43847503107642 L 738.3197506313131 122.66155271032602 L 738.9716223894349 122.88463038957849 L 739.6234941475567 123.10770806883366 L 740.2753659056783 123.33078574809147 L 740.9272376638002 123.55386342735179 L 741.5791094219219 123.77694110661449 L 742.2309811800436 124.0000187858794 L 742.8828529381655 124.22309646514657 L 743.5347246962872 124.44617414441578 L 744.186596454409 124.66925182368695 L 744.8384682125306 124.89232950296005 L 745.4903399706525 125.11540718223495 L 746.1422117287742 125.33848486151157 L 746.7940834868959 125.56156254078985 L 747.4459552450178 125.78464022006969 L 748.0978270031395 126.00771789935104 L 748.7496987612614 126.23079557863383 L 749.401570519383 126.45387325791796 L 750.0534422775048 126.67695093720343 L 750.7053140356265 126.90002861649018 L 751.3571857937483 127.12310629577806 L 752.0090575518701 127.3461839750671 L 752.6609293099918 127.56926165435726 L 753.3128010681136 127.79233933364841 L 753.9646728262353 128.01541701294056 L 754.616544584357 128.2384946922337 L 755.2684163424789 128.46157237152772 L 755.9202881006006 128.6846500508226 L 756.5721598587223 128.90772773011832 L 757.2240316168441 129.13080540941482 L 757.8759033749658 129.35388308871205 L 758.5277751330876 129.57696076801003 L 759.1796468912094 129.80003844730868 L 759.8315186493311 130.023116126608 L 760.4833904074529 130.24619380590795 L 761.1352621655747 130.46927148520848 L 761.7871339236964 130.69234916450958 L 762.4390056818181 130.91542684381125" stroke-opacity="0.9" stroke-miterlimit="10" stroke-width="2"/></g><g><path fill="none" stroke="none"/><path fill="none" stroke="rgb(102,180,211)" paint-order="fill stroke markers" d=" M 111.21911931818184 16.19442163319934 L 111.87099107630362 16.194421633239926 L 112.52286283442535 16.194421633282445 L 113.17473459254713 16.194421633326897 L 113.8266063506689 16.194421633373565 L 114.47847810879063 16.194421633422337 L 115.1303498669124 16.19442163347344 L 115.78222162503417 16.19442163352693 L 116.4340933831559 16.194421633582976 L 117.08596514127768 16.194421633641696 L 117.73783689939941 16.194421633703143 L 118.38970865752118 16.194421633767547 L 119.04158041564295 16.19442163383485 L 119.69345217376468 16.19442163390545 L 120.34532393188645 16.194421633979346 L 120.99719569000823 16.194421634056766 L 121.64906744812995 16.19442163413777 L 122.30093920625174 16.194421634222635 L 122.95281096437347 16.19442163431154 L 123.60468272249526 16.19442163440459 L 124.25655448061701 16.19442163450202 L 124.90842623873874 16.194421634604055 L 125.56029799686053 16.194421634710864 L 126.21216975498228 16.194421634822845 L 126.86404151310403 16.19442163494 L 127.5159132712258 16.194421635062668 L 128.16778502934756 16.19442163519119 L 128.8196567874693 16.19442163532574 L 129.47152854559107 16.194421635466654 L 130.1234003037128 16.19442163561422 L 130.77527206183458 16.19442163576872 L 131.42714381995637 16.194421635930553 L 132.0790155780781 16.194421636099946 L 132.73088733619986 16.194421636277355 L 133.3827590943216 16.194421636463176 L 134.03463085244337 16.19442163665775 L 134.68650261056513 16.19442163686142 L 135.33837436868686 16.19442163707481 L 135.99024612680864 16.194421637298262 L 136.64211788493043 16.194421637532173 L 137.29398964305216 16.194421637777225 L 137.94586140117391 16.19442163803376 L 138.5977331592957 16.194421638302458 L 139.24960491741743 16.194421638583776 L 139.9014766755392 16.19442163887834 L 140.55334843366091 16.194421639186885 L 141.2052201917827 16.194421639509926 L 141.8570919499045 16.1944216398482 L 142.50896370802622 16.194421640202506 L 143.16083546614797 16.194421640573466 L 143.81270722426976 16.194421640961934 L 144.4645789823915 16.194421641368763 L 145.11645074051324 16.194421641794747 L 145.76832249863503 16.194421642240798 L 146.42019425675676 16.194421642707994 L 147.07206601487854 16.19442164319713 L 147.72393777300027 16.194421643709404 L 148.37580953112203 16.19442164424578 L 149.02768128924382 16.194421644807562 L 149.67955304736554 16.194421645395778 L 150.33142480548733 16.194421646011733 L 150.9832965636091 16.194421646656792 L 151.63516832173082 16.194421647332263 L 152.2870400798526 16.194421648039565 L 152.93891183797433 16.194421648780292 L 153.59078359609612 16.19442164955592 L 154.24265535421787 16.194421650368156 L 154.8945271123396 16.194421651218704 L 155.5463988704614 16.194421652109384 L 156.19827062858315 16.19442165304207 L 156.85014238670487 16.19442165401881 L 157.50201414482666 16.194421655041594 L 158.15388590294845 16.194421656112638 L 158.80575766107017 16.194421657234216 L 159.45762941919193 16.194421658408658 L 160.10950117731366 16.19442165963852 L 160.76137293543545 16.194421660926423 L 161.4132446935572 16.19442166227509 L 162.06511645167893 16.194421663687365 L 162.71698820980072 16.194421665166317 L 163.3688599679225 16.194421666715016 L 164.02073172604423 16.19442166833676 L 164.672603484166 16.194421670034956 L 165.32447524228778 16.19442167181336 L 165.9763470004095 16.194421673675663 L 166.62821875853126 16.19442167562579 L 167.280090516653 16.194421677667947 L 167.93196227477478 16.194421679806396 L 168.58383403289656 16.1944216820458 L 169.2357057910183 16.19442168439076 L 169.88757754914008 16.194421686846397 L 170.5394493072618 16.19442168941788 L 171.19132106538356 16.194421692110666 L 171.84319282350532 16.194421694930497 L 172.49506458162705 16.1944216978834 L 173.14693633974883 16.194421700975568 L 173.79880809787062 16.194421704213596 L 174.45067985599235 16.19442170760442 L 175.10255161411413 16.1944217111552 L 175.7544233722359 16.1944217148735 L 176.40629513035768 16.194421718767217 L 177.05816688847938 16.194421722844652 L 177.71003864660116 16.19442172711439 L 178.36191040472295 16.194421731585578 L 179.01378216284468 16.194421736267714 L 179.66565392096646 16.194421741170743 L 180.31752567908825 16.194421746305068 L 180.96939743720995 16.194421751681602 L 181.62126919533173 16.19442175731183 L 182.27314095345344 16.19442176320763 L 182.92501271157522 16.19442176938162 L 183.576884469697 16.194421775846877 L 184.22875622781874 16.1944217826171 L 184.88062798594052 16.194421789706723 L 185.5324997440623 16.19442179713087 L 186.184371502184 16.194421804905176 L 186.8362432603058 16.194421813046347 L 187.48811501842755 16.194421821571495 L 188.1399867765493 16.194421830498925 L 188.79185853467106 16.19442183984745 L 189.4437302927928 16.19442184963708 L 190.09560205091458 16.19442185988845 L 190.74747380903636 16.194421870623557 L 191.39934556715806 16.194421881865026 L 192.05121732527985 16.1944218936369 L 192.70308908340164 16.194421905964134 L 193.35496084152336 16.194421918872877 L 194.00683259964512 16.194421932390583 L 194.65870435776685 16.19442194654613 L 195.31057611588864 16.194421961369358 L 195.96244787401042 16.194421976891988 L 196.61431963213215 16.194421993146875 L 197.26619139025394 16.194422010168694 L 197.9180631483757 16.194422027993483 L 198.56993490649742 16.194422046659156 L 199.22180666461918 16.194422066205505 L 199.8736784227409 16.194422086673967 L 200.5255501808627 16.19442210810803 L 201.17742193898448 16.194422130553278 L 201.8292936971062 16.194422154057463 L 202.481165455228 16.194422178670436 L 203.13303721334975 16.194422204444663 L 203.78490897147148 16.19442223143477 L 204.43678072959324 16.19442225969823 L 205.08865248771502 16.194422289295005 L 205.74052424583675 16.194422320288083 L 206.39239600395854 16.194422352743345 L 207.04426776208027 16.19442238672974 L 207.69613952020202 16.19442242231952 L 208.3480112783238 16.19442245958828 L 208.99988303644554 16.194422498615268 L 209.65175479456732 16.194422539483412 L 210.30362655268908 16.19442258227957 L 210.9554983108108 16.194422627094752 L 211.6073700689326 16.194422674024167 L 212.25924182705435 16.194422723167577 L 212.91111358517608 16.194422774629345 L 213.56298534329784 16.19442282851901 L 214.21485710141962 16.194422884950995 L 214.86672885954138 16.194422944045186 L 215.5186006176631 16.19442300592732 L 216.17047237578493 16.194423070728874 L 216.82234413390665 16.194423138587524 L 217.4742158920284 16.19442320964754 L 218.12608765015017 16.194423284059894 L 218.77795940827195 16.194423361982842 L 219.4298311663937 16.19442344358191 L 220.08170292451544 16.194423529030644 L 220.7335746826372 16.194423618510484 L 221.38544644075898 16.194423712211744 L 222.03731819888074 16.19442381033349 L 222.68918995700247 16.194423913084336 L 223.34106171512423 16.194424020682675 L 223.992933473246 16.194424133357074 L 224.64480523136777 16.194424251347186 L 225.2966769894895 16.194424374903633 L 225.9485487476113 16.194424504289145 L 226.60042050573304 16.19442463977856 L 227.2522922638548 16.194424781660018 L 227.90416402197653 16.19442493023496 L 228.55603578009834 16.194425085819205 L 229.20790753822007 16.194425248743357 L 229.85977929634183 16.19442541935382 L 230.51165105446356 16.19442559801314 L 231.16352281258537 16.194425785100975 L 231.8153945707071 16.19442598101506 L 232.46726632882886 16.194426186171768 L 233.11913808695058 16.194426401007092 L 233.7710098450724 16.194426625977655 L 234.42288160319416 16.194426861561624 L 235.07475336131589 16.194427108259617 L 235.7266251194376 16.19442736659613 L 236.37849687755943 16.1944276371201 L 237.03036863568119 16.194427920406554 L 237.6822403938029 16.19442821705752 L 238.3341121519247 16.194428527703565 L 238.98598391004646 16.194428853004865 L 239.6378556681682 16.194429193652866 L 240.28972742628994 16.194429550371524 L 240.94159918441173 16.194429923919074 L 241.5934709425335 16.194430315089335 L 242.24534270065524 16.19443072471381 L 242.89721445877697 16.19443115366306 L 243.54908621689876 16.194431602848738 L 244.20095797502051 16.194432073225585 L 244.85282973314227 16.194432565793306 L 245.504701491264 16.19443308159873 L 246.1565732493858 16.194433621738256 L 246.80844500750754 16.194434187359832 L 247.4603167656293 16.194434779665585 L 248.11218852375103 16.194435399914425 L 248.76406028187282 16.19443604942461 L 249.41593203999457 16.194436729576637 L 250.06780379811633 16.194437441816092 L 250.7196755562381 16.194438187656658 L 251.37154731435984 16.194438968683528 L 252.0234190724816 16.194439786556813 L 252.67529083060336 16.194440643014673 L 253.32716258872512 16.194441539877516 L 253.97903434684687 16.194442479051418 L 254.63090610496863 16.194443462532547 L 255.2827778630904 16.194444492411094 L 255.93464962121215 16.194445570875985 L 256.58652137933393 16.194446700219373 L 257.23839313745566 16.19444788284153 L 257.8902648955774 16.194449121256014 L 258.5421366536992 16.194450418094846 L 259.19400841182096 16.194451776114306 L 259.8458801699427 16.19445319820079 L 260.4977519280644 16.194454687376606 L 261.1496236861862 16.194456246806908 L 261.80149544430793 16.194457879806066 L 262.4533672024297 16.194459589844826 L 263.10523896055145 16.19446138055764 L 263.7571107186733 16.194463255750406 L 264.408982476795 16.194465219408585 L 265.06085423491675 16.19446727570579 L 265.71272599303853 16.194469429012372 L 266.36459775116026 16.19447168390485 L 267.016469509282 16.194474045175753 L 267.6683412674038 16.19447651784361 L 268.32021302552556 16.194479107163772 L 268.97208478364735 16.194481818639474 L 269.6239565417691 16.194484658033673 L 270.2758282998908 16.194487631381094 L 270.9277000580126 16.194490745001133 L 271.5795718161343 16.19449400551133 L 272.2314435742561 16.194497419841582 L 272.88331533237783 16.194500995248518 L 273.5351870904996 16.19450473933108 L 274.1870588486214 16.19450866004695 L 274.83893060674313 16.194512765728973 L 275.49080236486486 16.194517065103184 L 276.14267412298665 16.194521567307333 L 276.7945458811084 16.1945262819101 L 277.44641763923016 16.194531218931843 L 278.0982893973519 16.194536388865345 L 278.7501611554737 16.194541802698552 L 279.40203291359546 16.194547471937767 L 280.0539046717172 16.194553408632146 L 280.7057764298389 16.19455962539911 L 281.3576481879607 16.194566135451566 L 282.00951994608243 16.194572952625492 L 282.6613917042042 16.19458009140976 L 283.313263462326 16.194587566976736 L 283.96513522044773 16.194595395214435 L 284.6170069785695 16.194603592760473 L 285.26887873669125 16.19461217703747 L 285.920750494813 16.194621166289778 L 286.57262225293476 16.194630579622526 L 287.22449401105655 16.19464043704204 L 287.8763657691783 16.194650759498586 L 288.52823752730006 16.1946615689306 L 289.1801092854218 16.194672888311572 L 289.8319810435436 16.194684741698723 L 290.4838528016653 16.1946971542842 L 291.13572455978704 16.194710152448522 L 291.7875963179088 16.194723763816683 L 292.4394680760306 16.194738017316922 L 293.09133983415234 16.194752943242122 L 293.7432115922741 16.194768573314207 L 294.39508335039585 16.19478494075156 L 295.04695510851764 16.194802080339514 L 295.69882686663937 16.194820028504523 L 296.3506986247611 16.194838823391308 L 297.0025703828829 16.19485850494391 L 297.65444214100467 16.194879114990783 L 298.3063138991264 16.194900697333594 L 298.9581856572482 16.194923297840035 L 299.6100574153699 16.19494696454177 L 300.2619291734917 16.194971747736076 L 300.9138009316134 16.19499770009287 L 301.56567268973515 16.19502487676675 L 302.217544447857 16.19505333551382 L 302.8694162059787 16.195083136814844 L 303.52128796410045 16.1951143440034 L 304.17315972222224 16.195147023400636 L 304.82503148034397 16.195181244456137 L 305.47690323846575 16.195217079895485 L 306.1287749965875 16.195254605874595 L 306.78064675470927 16.195293902141827 L 307.43251851283105 16.1953350522071 L 308.0843902709528 16.195378143519463 L 308.7362620290745 16.195423267652927 L 309.3881337871963 16.195470520500805 L 310.0400055453181 16.195520002479498 L 310.6918773034398 16.195571818741882 L 311.34374906156154 16.195626079400597 L 311.99562081968327 16.195682899761835 L 312.6474925778051 16.19574240057051 L 313.29936433592684 16.195804708266508 L 313.9512360940486 16.19586995525316 L 314.60310785217035 16.195938280178723 L 315.2549796102921 16.196009828230615 L 315.90685136841387 16.19608475144389 L 316.5587231265356 16.196163209023894 L 317.21059488465744 16.196245367684526 L 317.86246664277917 16.19633140200216 L 318.5143384009009 16.196421494786307 L 319.1662101590226 16.19651583746787 L 319.8180819171444 16.19661463050545 L 320.4699536752662 16.19671808381105 L 321.1218254333879 16.196826417195496 L 321.7736971915097 16.196939860835244 L 322.4255689496315 16.197058655760884 L 323.0774407077532 16.197183054368793 L 323.72931246587495 16.19731332095671 L 324.38118422399674 16.197449732284724 L 325.0330559821185 16.197592578162585 L 325.68492774024025 16.197742162064685 L 326.336799498362 16.19789880177393 L 326.9886712564837 16.198062830055846 L 327.64054301460556 16.19823459536491 L 328.2924147727273 16.198414462583116 L 328.94428653084907 16.19860281379448 L 329.5961582889708 16.198800049095098 L 330.2480300470926 16.199006587441602 L 330.8999018052143 16.199222867539504 L 331.55177356333604 16.199449348773612 L 332.2036453214579 16.199686512181586 L 332.8555170795796 16.199934861473594 L 333.50738883770134 16.20019492410006 L 334.15926059582307 16.20046725236938 L 334.8111323539448 16.200752424617917 L 335.46300411206664 16.201051046435566 L 336.11487587018837 16.20136375194818 L 336.7667476283101 16.20169120516084 L 337.41861938643194 16.20203410136361 L 338.07049114455367 16.202393168603805 L 338.7223629026754 16.202769169226883 L 339.37423466079713 16.203162901489804 L 340.02610641891886 16.203575201250203 L 340.6779781770407 16.204006943734328 L 341.32984993516243 16.20445904538832 L 341.98172169328416 16.204932465815887 L 342.633593451406 16.205428209806996 L 343.28546520952773 16.205947329460912 L 343.93733696764946 16.2064909264098 L 344.5892087257712 16.20706015414487 L 345.2410804838929 16.207656220452634 L 345.89295224201476 16.208280389964216 L 346.5448240001365 16.20893398682375 L 347.1966957582582 16.20961839748219 L 347.84856751638006 16.210335073620513 L 348.5004392745018 16.21108553521009 L 349.1523110326235 16.211871373715212 L 349.80418279074524 16.212694255445115 L 350.456054548867 16.213555925062053 L 351.1079263069888 16.214458209252882 L 351.75979806511054 16.21540302057076 L 352.4116698232323 16.216392361456144 L 353.0635415813541 16.2174283284441 L 353.71541333947584 16.21851311656701 L 354.3672850975976 16.219649023961267 L 355.0191568557193 16.22083845668766 L 355.67102861384114 16.222083933774627 L 356.3229003719629 16.223388092494872 L 356.9747721300846 16.224753693885702 L 357.62664388820633 16.226183628523927 L 358.2785156463282 16.22768092256723 L 358.9303874044499 16.2292487440738 L 359.58225916257163 16.230890409611675 L 360.23413092069336 16.232609391172957 L 360.8860026788152 16.23440932340378 L 361.53787443693693 16.236294011166535 L 362.18974619505866 16.238267437446666 L 362.8416179531804 16.240333771621465 L 363.49348971130223 16.242497378104872 L 364.14536146942396 16.244762825385806 L 364.7972332275457 16.24713489547679 L 365.4491049856674 16.24961859379067 L 366.10097674378926 16.252219159463664 L 366.752848501911 16.25494207614412 L 367.4047202600327 16.257793083266506 L 368.05659201815456 16.26077818783193 L 368.7084637762763 16.26390367671513 L 369.360335534398 16.267176129521204 L 370.01220729251975 16.27060243201413 L 370.6640790506416 16.27418979014095 L 371.3159508087633 16.277945744675492 L 371.96782256688516 16.2818781865069 L 372.6196943250068 16.28599537259913 L 373.2715660831286 16.29030594264657 L 373.92343784125035 16.294818936454703 L 374.5753095993721 16.299543812072557 L 375.2271813574939 16.304490464705907 L 375.87905311561565 16.309669246440308 L 376.5309248737374 16.315090986804364 L 377.1827966318592 16.32076701420243 L 377.83466838998083 16.326709178248848 L 378.4865401481027 16.332929873034004 L 379.1384119062244 16.339442061354305 L 379.79028366434613 16.346259299937344 L 380.442155422468 16.353395765694756 L 381.0940271805897 16.36086628303309 L 381.74589893871143 16.368686352256304 L 382.3977706968333 16.376872179088707 L 383.049642454955 16.385440705350277 L 383.70151421307673 16.394409640813137 L 384.35338597119846 16.403797496267828 L 385.0052577293202 16.41362361782575 L 385.65712948744203 16.423908222483476 L 386.30900124556376 16.43467243497048 L 386.9608730036855 16.445938325901523 L 387.61274476180733 16.457728951249408 L 388.26461651992906 16.470068393151337 L 388.9164882780508 16.482981802057566 L 389.5683600361725 16.4964954402256 L 390.22023179429425 16.510636726556754 L 390.8721035524161 16.525434282767094 L 391.5239753105378 16.540917980874156 L 392.17584706865955 16.55711899197496 L 392.8277188267814 16.574069836278397 L 393.4795905849031 16.591804434346273 L 394.13146234302485 16.610358159482757 L 394.7833341011466 16.62976789119932 L 395.4352058592684 16.650072069666066 L 396.08707761739015 16.671310751043166 L 396.7389493755119 16.69352566356713 L 397.3908211336336 16.716760264245295 L 398.04269289175545 16.741059795988292 L 398.6945646498772 16.766471344986257 L 399.3464364079989 16.793043898104315 L 399.99830816612064 16.82082840004506 L 400.6501799242425 16.849877809991824 L 401.3020516823642 16.88024715741011 L 401.95392344048594 16.911993596649268 L 402.60579519860767 16.945176459943013 L 403.2576669567295 16.97985730836598 L 403.90953871485124 17.0160999802564 L 404.56141047297297 17.05397063656926 L 405.2132822310947 17.09353780257004 L 405.86515398921654 17.134872405231874 L 406.51702574733827 17.178047805641256 L 407.16889750546 17.22313982566635 L 407.8207692635817 17.270226768085138 L 408.47264102170357 17.319389429317994 L 409.1245127798253 17.370711103855683 L 409.776384537947 17.42427757942454 L 410.42825629606887 17.480177121883344 L 411.0801280541906 17.538500448807042 L 411.7319998123123 17.599340690675433 L 412.38387157043405 17.662793338562096 L 413.0357433285558 17.728956177201496 L 413.6876150866776 17.79792920231108 L 414.33948684479935 17.869814521055332 L 414.9913586029211 17.94471623457042 L 415.6432303610429 18.022740301514375 L 416.29510211916465 18.103994381678433 L 416.9469738772864 18.188587658789515 L 417.5988456354081 18.276630641753002 L 418.25071739352984 18.368234943732375 L 418.9025891516517 18.4635130386377 L 419.5544609097734 18.56257799480187 L 420.20633266789514 18.66554318585787 L 420.858204426017 18.772521979097235 L 421.5100761841387 18.883627401881142 L 422.16194794226044 18.99897178699615 L 422.81381970038217 19.1186663981876 L 423.465691458504 19.242821037463216 L 424.11756321662574 19.371543636131207 L 424.76943497474747 19.50493983191575 L 425.4213067328693 19.643112534866418 L 426.07317849099104 19.786161485146806 L 426.72505024911277 19.93418280612866 L 427.3769220072345 20.087268556536287 L 428.0287937653562 20.245506285660156 L 428.68066552347807 20.408978595883582 L 429.3325372815998 20.577762716932796 L 429.9844090397215 20.75193009635791 L 430.63628079784326 20.931546010774696 L 431.2881525559651 21.116669202337107 L 431.9400243140868 21.30735154476679 L 432.59189607220856 21.50363774303571 L 433.2437678303303 21.705565070480475 L 433.8956395884521 21.913163146732643 L 434.54751134657386 22.12645375937319 L 435.1993831046956 22.34545073168482 L 435.8512548628174 22.57015983827938 L 436.50312662093916 22.800578769744504 L 437.1549983790609 23.036697146789777 L 437.8068701371826 23.278496583700473 L 438.45874189530434 23.525950800236842 L 439.1106136534262 23.779025780468373 L 439.7624854115479 24.037679976419952 L 440.41435716966964 24.30186455384296 L 441.0662289277915 24.571523676922254 L 441.7181006859131 24.84659482830068 L 442.36997244403494 25.127009160449745 L 443.0218442021567 25.412691874149402 L 443.6737159602784 25.703562619657646 L 444.32558771840024 25.99953591605498 L 444.97745947652186 26.300521584238197 L 445.6293312346438 26.6064251891014 L 446.28120299276554 26.917148486582107 L 446.9330747508873 27.232589871450045 L 447.584946509009 27.55264482197066 L 448.23681826713073 27.877206337876203 L 448.8886900252526 28.206165368410552 L 449.5405617833743 28.539411227570042 L 450.19243354149603 28.876831994037843 L 450.84430529961776 29.21831489368418 L 451.4961770577396 29.563746662882863 L 452.14804881586133 29.913013891257663 L 452.79992057398306 30.266003342823808 L 453.4517923321049 30.62260225481799 L 454.1036640902265 30.982698613815558 L 454.75553584834836 31.34618140901017 L 455.4074076064701 31.712940862780954 L 456.05927936459193 32.082868638889636 L 456.71115112271366 32.4558580288396 L 457.3630228808354 32.831804117087074 L 458.0148946389571 33.210603925928694 L 458.66676639707885 33.592156540990345 L 459.3186381552007 33.976363218325616 L 459.9705099133224 34.363127474188275 L 460.62238167144426 34.75235515857918 L 461.2742534295659 35.14395451369063 L 461.9261251876877 35.537836218369364 L 462.57799694580945 35.93391341971454 L 463.2298687039312 36.332101752902076 L 463.881740462053 36.73231935029668 L 464.53361222017463 37.13448684087638 L 465.1854839782965 37.53852734094647 L 465.8373557364182 37.944366437075075 L 466.48922749454005 38.35193216212798 L 467.1410992526618 38.76115496522863 L 467.7929710107835 39.17196767641343 L 468.44484276890523 39.58430546669882 L 469.09671452702696 39.998105804222746 L 469.7485862851488 40.413308407069565 L 470.40045804327053 40.82985519333721 L 471.0523298013924 41.24769022895629 L 471.704201559514 41.6667596737239 L 472.35607331763583 42.087011725969944 L 473.00794507575756 42.50839656623344 L 473.6598168338793 42.93086630028574 L 474.31168859200113 43.35437490180203 L 474.96356035012275 43.77887815494779 L 475.6154321082446 44.2043335971164 L 476.2673038663663 44.63070046202452 L 476.91917562448816 45.05793962334573 L 477.5710473826099 45.486013539038964 L 478.2229191407316 45.91488619650568 L 478.87479089885335 46.34452305868987 L 479.5266626569751 46.77489101121779 L 480.1785344150969 47.20595831065634 L 480.83040617321865 47.63769453395574 L 481.4822779313405 48.070070529128856 L 482.1341496894621 48.50305836720702 L 482.78602144758395 48.936631295502025 L 483.4378932057057 49.370763692196164 L 484.0897649638274 49.80543102227128 L 484.74163672194925 50.24060979478347 L 485.393508480071 50.676277521481865 L 486.0453802381927 51.11241267676519 L 486.69725199631444 51.548994658965 L 487.3491237544363 51.98600375294106 L 488.000995512558 52.42342109396881 L 488.65286727067974 52.861228632899184 L 489.30473902880146 53.299409102564994 L 489.9566107869232 53.73794598540951 L 490.60848254504504 54.17682348230787 L 491.26035430316676 54.61602648255359 L 491.9122260612886 55.05554053497957 L 492.56409781941034 55.49535182018295 L 493.21596957753206 55.9354471238222 L 493.8678413356538 56.375813810955265 L 494.5197130937755 56.81643980138679 L 495.17158485189736 57.2573135459925 L 495.8234566100191 57.69842400398926 L 496.4753283681408 58.13976062111948 L 497.12720012626255 58.58131330871896 L 497.7790718843844 59.023072423636876 L 498.4309436425061 59.46502874897942 L 499.08281540062785 59.90717347564549 L 499.7346871587496 60.349498184627635 L 500.3865589168713 60.791994830048566 L 501.03843067499315 61.23465572290644 L 501.6903024331149 61.67747351550207 L 502.3421741912367 62.12044118652145 L 502.99404594935845 62.563552026749136 L 503.6459177074802 63.00679962538709 L 504.2977894656019 63.45017785695583 L 504.94966122372364 63.89368086875399 L 505.6015329818455 64.3373030688551 L 506.2534047399672 64.7810391146187 L 506.90527649808894 65.2248839016961 L 507.55714825621067 65.66883255350996 L 508.2090200143325 66.11288041118837 L 508.86089177245424 66.55702302393505 L 509.51276353057597 67.00125613981714 L 510.1646352886978 67.44557569695348 L 510.8165070468194 67.88997781508695 L 511.46837880494127 68.33445878752397 L 512.120250563063 68.77901507342659 L 512.7721223211848 69.22364329044154 L 513.4239940793066 69.66834020765262 L 514.0758658374283 70.11310273884203 L 514.72773759555 70.55792793604803 L 515.3796093536718 71.00281298340576 L 516.0314811117936 71.44775519125969 L 516.6833528699153 71.89275199053526 L 517.3352246280372 72.33780092735915 L 517.9870963861588 72.7828996579172 L 518.6389681442806 73.22804594353966 L 519.2908399024024 73.67323764600411 L 519.9427116605241 74.11847272304627 L 520.5945834186459 74.56374922406994 L 521.2464551767677 75.00906528604736 L 521.8983269348894 75.45441912960132 L 522.5501986930111 75.89980905526167 L 523.202070451133 76.34523343988809 L 523.8539422092547 76.79069073325186 L 524.5058139673764 77.23617945477028 L 525.1576857254981 77.68169819038584 L 525.8095574836199 78.12724558958516 L 526.4614292417417 78.57282036255023 L 527.1133009998634 79.0184212774372 L 527.7651727579853 79.46404715777638 L 528.4170445161069 79.90969687998825 L 529.0689162742287 80.35536937101077 L 529.7207880323506 80.80106360603205 L 530.3726597904722 81.24677860632534 L 531.0245315485942 81.69251343717991 L 531.6764033067158 82.1382672059249 L 532.3282750648376 82.58403906004165 L 532.9801468229593 83.02982818536043 L 533.6320185810811 83.47563380433792 L 534.2838903392028 83.92145517441173 L 534.9357620973245 84.36729158642876 L 535.5876338554464 84.81314236314418 L 536.2395056135681 85.25900685778711 L 536.8913773716899 85.70488445269126 L 537.5432491298117 86.15077455798652 L 538.1951208879334 86.59667661034956 L 538.8469926460551 87.04259007181005 L 539.4988644041769 87.48851442861098 L 540.1507361622987 87.93444919011966 L 540.8026079204204 88.38039388778799 L 541.4544796785422 88.82634807415894 L 542.1063514366639 89.27231132191827 L 542.7582231947857 89.7182832229881 L 543.4100949529075 90.16426338766189 L 544.0619667110292 90.61025144377774 L 544.713838469151 91.05624703592912 L 545.3657102272726 91.50224982471113 L 546.0175819853945 91.94825948600015 L 546.6694537435162 92.39427571026664 L 547.3213255016381 92.84029820191802 L 547.9731972597598 93.28632667867163 L 548.6250690178815 93.73236087095577 L 549.2769407760032 94.17840052133752 L 549.928812534125 94.62444538397634 L 550.5806842922468 95.07049522410242 L 551.2325560503685 95.51654981751818 L 551.8844278084903 95.96260895012261 L 552.536299566612 96.40867241745644 L 553.1881713247338 96.85474002426841 L 553.8400430828556 97.30081158410047 L 554.4919148409773 97.74688691889205 L 555.143786599099 98.19296585860187 L 555.7956583572209 98.63904824084705 L 556.4475301153426 99.08513391055814 L 557.0994018734643 99.53122271964992 L 557.7512736315862 99.9773145267068 L 558.4031453897079 100.42340919668266 L 559.0550171478296 100.86950660061382 L 559.7068889059514 101.3156066153455 L 560.3587606640731 101.76170912326981 L 561.0106324221949 102.20781401207623 L 561.6625041803167 102.65392117451296 L 562.3143759384385 103.1000305081592 L 562.9662476965601 103.54614191520747 L 563.618119454682 103.99225530225593 L 564.2699912128037 104.43837058010988 L 564.9218629709254 104.88448766359238 L 565.5737347290473 105.33060647136324 L 566.225606487169 105.7767269257462 L 566.8774782452907 106.2228489525641 L 567.5293500034124 106.6689724809809 L 568.1812217615343 107.11509744335163 L 568.833093519656 107.5612237750783 L 569.4849652777777 108.00735141447294 L 570.1368370358995 108.45348030262633 L 570.7887087940212 108.899610383283 L 571.440580552143 109.34574160272152 L 572.0924523102648 109.79187390964054 L 572.7443240683865 110.23800725504964 L 573.3961958265083 110.68414159216533 L 574.0480675846301 111.13027687631163 L 574.6999393427518 111.57641306482512 L 575.3518111008735 112.02255011696417 L 576.0036828589954 112.46868799382261 L 576.6555546171171 112.91482665824697 L 577.3074263752388 113.36096607475727 L 577.9592981333606 113.80710620947212 L 578.6111698914824 114.25324703003622 L 579.2630416496041 114.69938850555201 L 579.9149134077259 115.14553060651377 L 580.5667851658476 115.59167330474489 L 581.2186569239694 116.03781657333829 L 581.8705286820912 116.48396038659885 L 582.5224004402129 116.93010471998906 L 583.1742721983347 117.37624955007689 L 583.8261439564563 117.82239485448585 L 584.4780157145782 118.26854061184741 L 585.1298874726999 118.71468680175593 L 585.7817592308216 119.16083340472477 L 586.4336309889435 119.60698040214533 L 587.0855027470652 120.0531277762473 L 587.737374505187 120.49927551006081 L 588.3892462633087 120.94542358738067 L 589.0411180214305 121.3915719927316 L 589.6929897795522 121.83772071133555 L 590.344861537674 122.28386972908018 L 590.9967332957958 122.73001903248894 L 591.6486050539175 123.17616860869242 L 592.3004768120393 123.62231844540094 L 592.9523485701611 124.0684685308785 L 593.6042203282828 124.51461885391782 L 594.2560920864046 124.9607694038165 L 594.9079638445263 125.40692017035425 L 595.559835602648 125.85307114377136 L 596.2117073607699 126.29922231474762 L 596.8635791188916 126.74537367438282 L 597.5154508770134 127.1915252141776 L 598.1673226351351 127.63767692601562 L 598.8191943932569 128.08382880214612 L 599.4710661513786 128.52998083516758 L 600.1229379095004 128.97613301801184 L 600.7748096676222 129.42228534392922 L 601.4266814257438 129.8684378064741 L 602.0785531838657 130.31459039949127 L 602.7304249419874 130.76074311710278 L 603.3822967001092 131.20689595369552 L 604.034168458231 131.65304890390922 L 604.6860402163527 132.09920196262513 L 605.3379119744745 132.5453551249551 L 605.9897837325962 132.99150838623117 L 606.641655490718 133.4376617419957 L 607.2935272488397 133.88381518799187 L 607.9453990069615 134.3299687201546 L 608.5972707650833 134.776122334602 L 609.249142523205 135.2222760276271 L 609.9010142813268 135.66842979568975 L 610.5528860394485 136.1145836354095 L 611.2047577975703 136.56073754355808 L 611.856629555692 137.00689151705268 L 612.5085013138138 137.4530455529494 L 613.1603730719355 137.89919964843688 L 613.8122448300574 138.3453538008305 L 614.4641165881791 138.79150800756662 L 615.1159883463008 139.237662266197 L 615.7678601044225 139.68381657438368 L 616.4197318625443 140.12997092989417 L 617.0716036206661 140.57612533059645 L 617.7234753787878 141.02227977445452 L 618.3753471369097 141.4684342595242 L 619.0272188950313 141.9145887839488 L 619.6790906531531 142.3607433459554 L 620.3309624112749 142.80689794385083 L 620.9828341693966 143.25305257601823 L 621.6347059275184 143.69920724091367 L 622.28657768564 144.14536193706266 L 622.938449443762 144.59151666305718 L 623.5903212018836 145.03767141755264 L 624.2421929600055 145.48382619926508 L 624.8940647181272 145.92998100696832 L 625.5459364762489 146.37613583949138 L 626.1978082343708 146.82229069571616 L 626.8496799924924 147.26844557457486 L 627.5015517506142 147.71460047504777 L 628.153423508736 148.16075539616114 L 628.8052952668578 148.6069103369851 L 629.4571670249795 149.05306529663164 L 630.1090387831013 149.49922027425282 L 630.760910541223 149.94537526903878 L 631.4127822993447 150.3915302802163 L 632.0646540574666 150.8376853070469 L 632.7165258155883 151.2838403488254 L 633.3683975737101 151.7299954048783 L 634.020269331832 152.17615047456258 L 634.6721410899537 152.6223055572641 L 635.3240128480754 153.06846065239645 L 635.975884606197 153.51461575939956 L 636.6277563643189 153.96077087773867 L 637.2796281224407 154.40692600690306 L 637.9314998805625 154.85308114640506 L 638.5833716386843 155.29923629577894 L 639.2352433968059 155.74539145457993 L 639.8871151549276 156.19154662238333 L 640.5389869130495 156.63770179878358 L 641.1908586711712 157.0838569833934 L 641.842730429293 157.5300121758429 L 642.4946021874147 157.97616737577889 L 643.1464739455364 158.42232258286413 L 643.7983457036582 158.86847779677652 L 644.4502174617801 159.31463301720848 L 645.1020892199018 159.7607882438663 L 645.7539609780234 160.20694347646946 L 646.4058327361452 160.6530987147502 L 647.0577044942671 161.09925395845266 L 647.7095762523888 161.54540920733263 L 648.3614480105106 161.9915644611568 L 649.0133197686322 162.4377197197025 L 649.665191526754 162.88387498275694 L 650.3170632848759 163.33003025011706 L 650.9689350429976 163.77618552158887 L 651.6208068011193 164.22234079698708 L 652.2726785592412 164.66849607613486 L 652.9245503173629 165.11465135886328 L 653.5764220754845 165.560806645011 L 654.2282938336064 166.006961934424 L 654.8801655917282 166.45311722695516 L 655.5320373498499 166.899272522464 L 656.1839091079717 167.34542782081638 L 656.8357808660933 167.7915831218842 L 657.4876526242152 168.2377384255451 L 658.139524382337 168.6838937316823 L 658.7913961404587 169.1300490401842 L 659.4432678985805 169.57620435094427 L 660.0951396567021 170.0223596638608 L 660.747011414824 170.46851497883662 L 661.3988831729457 170.91467029577896 L 662.0507549310676 171.36082561459924 L 662.7026266891893 171.80698093521286 L 663.3544984473109 172.25313625753898 L 664.0063702054329 172.6992915815005 L 664.6582419635545 173.1454469070237 L 665.3101137216763 173.59160223403825 L 665.961985479798 174.037757562477 L 666.6138572379197 174.48391289227573 L 667.2657289960416 174.93006822337315 L 667.9176007541633 175.3762235557108 L 668.5694725122851 175.82237888923282 L 669.2213442704068 176.26853422388587 L 669.8732160285284 176.71468955961888 L 670.5250877866504 177.1608448963833 L 671.1769595447721 177.60700023413264 L 671.8288313028938 178.0531555728225 L 672.4807030610157 178.49931091241058 L 673.1325748191373 178.94546625285633 L 673.7844465772591 179.39162159412115 L 674.4363183353809 179.83777693616815 L 675.0881900935026 180.28393227896203 L 675.7400618516244 180.73008762246926 L 676.3919336097462 181.17624296665755 L 677.043805367868 181.62239831149634 L 677.6956771259896 182.0685536569563 L 678.3475488841115 182.5147090030094 L 678.9994206422332 182.960864349629 L 679.6512924003549 183.40701969678943 L 680.3031641584768 183.85317504446647 L 680.9550359165984 184.29933039263682 L 681.6069076747202 184.74548574127817 L 682.258779432842 185.19164109036942 L 682.9106511909638 185.6377964398902 L 683.5625229490855 186.08395178982127 L 684.2143947072072 186.530107140144 L 684.8662664653291 186.97626249084087 L 685.5181382234507 187.42241784189494 L 686.1700099815725 187.8685731932902 L 686.8218817396943 188.3147285450112 L 687.473753497816 188.76088389704333 L 688.1256252559378 189.20703924937249 L 688.7774970140596 189.6531946019854 L 689.4293687721813 190.0993499548692 L 690.081240530303 190.54550530801174 L 690.7331122884249 190.99166066140134 L 691.3849840465466 191.43781601502684 L 692.0368558046683 191.88397136887764 L 692.6887275627901 192.3301267229436 L 693.3405993209119 192.776282077215 L 693.9924710790336 193.2224374316826 L 694.6443428371554 193.66859278633757 L 695.2962145952771 194.11474814117148 L 695.9480863533989 194.56090349617622 L 696.5999581115207 195.00705885134414 L 697.2518298696424 195.45321420666784 L 697.9037016277642 195.89936956214038 L 698.5555733858859 196.34552491775497 L 699.2074451440077 196.79168027350525 L 699.8593169021294 197.23783562938513 L 700.5111886602512 197.68399098538873 L 701.163060418373 198.13014634151048 L 701.8149321764946 198.57630169774507 L 702.4668039346166 199.02245705408743 L 703.1186756927382 199.4686124105327 L 703.77054745086 199.91476776707623 L 704.4224192089818 200.36092312371355 L 705.0742909671035 200.80707848044054 L 705.7261627252253 201.25323383725308 L 706.3780344833469 201.69938919414733 L 707.0299062414688 202.14554455111963 L 707.6817779995905 202.59169990816642 L 708.3336497577124 203.03785526528443 L 708.9855215158341 203.48401062247035 L 709.6373932739558 203.93016597972118 L 710.2892650320775 204.37632133703397 L 710.9411367901993 204.82247669440596 L 711.5930085483211 205.26863205183446 L 712.2448803064428 205.71478740931695 L 712.8967520645646 206.16094276685095 L 713.5486238226864 206.60709812443417 L 714.2004955808081 207.05325348206438 L 714.8523673389299 207.4994088397395 L 715.5042390970516 207.94556419745746 L 716.1561108551733 208.39171955521633 L 716.8079826132952 208.83787491301428 L 717.4598543714169 209.28403027084957 L 718.1117261295386 209.7301856287205 L 718.7635978876605 210.17634098662546 L 719.4154696457821 210.62249634456293 L 720.0673414039039 211.06865170253144 L 720.7192131620257 211.51480706052962 L 721.3710849201474 211.96096241855605 L 722.0229566782692 212.40711777660954 L 722.674828436391 212.85327313468883 L 723.3267001945128 213.29942849279277 L 723.9785719526344 213.74558385092024 L 724.6304437107563 214.1917392090702 L 725.282315468878 214.63789456724163 L 725.9341872269997 215.0840499254336 L 726.5860589851216 215.53020528364505 L 727.2379307432432 215.97636064187523 L 727.889802501365 216.42251600012332 L 728.5416742594867 216.86867135838838 L 729.1935460176086 217.31482671666976 L 729.8454177757303 217.76098207496665 L 730.497289533852 218.2071374332784 L 731.1491612919739 218.65329279160434 L 731.8010330500955 219.0994481499438 L 732.4529048082173 219.54560350829624 L 733.1047765663391 219.99175886666097 L 733.7566483244608 220.4379142250375 L 734.4085200825826 220.8840695834253 L 735.0603918407044 221.33022494182381 L 735.7122635988261 221.77638030023263 L 736.3641353569478 222.22253565865125 L 737.0160071150696 222.6686910170792 L 737.6678788731914 223.11484637551612 L 738.3197506313131 223.56100173396158 L 738.9716223894349 224.00715709241518 L 739.6234941475567 224.45331245087655 L 740.2753659056783 224.89946780934542 L 740.9272376638002 225.34562316782132 L 741.5791094219219 225.791778526304 L 742.2309811800436 226.23793388479322 L 742.8828529381655 226.68408924328855 L 743.5347246962872 227.13024460178985 L 744.186596454409 227.57639996029673 L 744.8384682125306 228.02255531880905 L 745.4903399706525 228.46871067732647 L 746.1422117287742 228.91486603584877 L 746.7940834868959 229.36102139437583 L 747.4459552450178 229.80717675290737 L 748.0978270031395 230.25333211144311 L 748.7496987612614 230.699487469983 L 749.401570519383 231.14564282852677 L 750.0534422775048 231.59179818707426 L 750.7053140356265 232.03795354562527 L 751.3571857937483 232.48410890417975 L 752.0090575518701 232.9302642627374 L 752.6609293099918 233.37641962129823 L 753.3128010681136 233.82257497986194 L 753.9646728262353 234.2687303384285 L 754.616544584357 234.71488569699775 L 755.2684163424789 235.16104105556957 L 755.9202881006006 235.60719641414389 L 756.5721598587223 236.05335177272053 L 757.2240316168441 236.49950713129942 L 757.8759033749658 236.94566248988045 L 758.5277751330876 237.39181784846352 L 759.1796468912094 237.83797320704855 L 759.8315186493311 238.28412856563543 L 760.4833904074529 238.7302839242241 L 761.1352621655747 239.17643928281447 L 761.7871339236964 239.62259464140647 L 762.4390056818181 240.06875000000002" stroke-opacity="0.9" stroke-miterlimit="10" stroke-width="2" stroke-dasharray="6"/></g></g><g><g/><g><path fill="#ffffff" stroke="#e5e5e5" paint-order="fill stroke markers" d=" M 686.25 15 L 785 15 L 785 78 L 686.25 78 L 686.25 15 Z" fill-opacity="0.95" stroke-miterlimit="10" stroke-opacity="0.5"/><text fill="#444444" stroke="none" font-family="helvetica" font-size="10pt" font-style="normal" font-weight="normal" text-decoration="normal" x="721.25" y="35" text-anchor="start" dominant-baseline="central">Model</text><g><path fill="none" stroke="rgb(225,109,0)" paint-order="fill stroke markers" d=" M 696.25 35 L 716.25 35" stroke-opacity="0.9" stroke-miterlimit="10" stroke-width="2"/></g><text fill="#444444" stroke="none" font-family="helvetica" font-size="10pt" font-style="normal" font-weight="normal" text-decoration="normal" x="721.25" y="58" text-anchor="start" dominant-baseline="central">Original</text><g><path fill="none" stroke="rgb(102,180,211)" paint-order="fill stroke markers" d=" M 696.25 58 L 716.25 58" stroke-opacity="0.9" stroke-miterlimit="10" stroke-width="2" stroke-dasharray="6"/></g></g></g><g><g fill="#444444"><path fill="none" stroke="black" paint-order="fill stroke markers" d=" M 79 251 L 795 251" stroke-miterlimit="10"/><path fill="none" stroke="black" paint-order="fill stroke markers" d=" M 111 257 L 111 249" stroke-miterlimit="10"/><path fill="none" stroke="black" paint-order="fill stroke markers" d=" M 241 257 L 241 249" stroke-miterlimit="10"/><path fill="none" stroke="black" paint-order="fill stroke markers" d=" M 372 257 L 372 249" stroke-miterlimit="10"/><path fill="none" stroke="black" paint-order="fill stroke markers" d=" M 502 257 L 502 249" stroke-miterlimit="10"/><path fill="none" stroke="black" paint-order="fill stroke markers" d=" M 632 257 L 632 249" stroke-miterlimit="10"/><path fill="none" stroke="black" paint-order="fill stroke markers" d=" M 762 257 L 762 249" stroke-miterlimit="10"/><path fill="none" stroke="black" paint-order="fill stroke markers" d=" M 111 255 L 111 251" stroke-miterlimit="10"/><path fill="none" stroke="black" paint-order="fill stroke markers" d=" M 176 255 L 176 251" stroke-miterlimit="10"/><path fill="none" stroke="black" paint-order="fill stroke markers" d=" M 196 255 L 196 251" stroke-miterlimit="10"/><path fill="none" stroke="black" paint-order="fill stroke markers" d=" M 207 255 L 207 251" stroke-miterlimit="10"/><path fill="none" stroke="black" paint-order="fill stroke markers" d=" M 216 255 L 216 251" stroke-miterlimit="10"/><path fill="none" stroke="black" paint-order="fill stroke markers" d=" M 222 255 L 222 251" stroke-miterlimit="10"/><path fill="none" stroke="black" paint-order="fill stroke markers" d=" M 227 255 L 227 251" stroke-miterlimit="10"/><path fill="none" stroke="black" paint-order="fill stroke markers" d=" M 231 255 L 231 251" stroke-miterlimit="10"/><path fill="none" stroke="black" paint-order="fill stroke markers" d=" M 235 255 L 235 251" stroke-miterlimit="10"/><path fill="none" stroke="black" paint-order="fill stroke markers" d=" M 238 255 L 238 251" stroke-miterlimit="10"/><path fill="none" stroke="black" paint-order="fill stroke markers" d=" M 241 255 L 241 251" stroke-miterlimit="10"/><path fill="none" stroke="black" paint-order="fill stroke markers" d=" M 307 255 L 307 251" stroke-miterlimit="10"/><path fill="none" stroke="black" paint-order="fill stroke markers" d=" M 326 255 L 326 251" stroke-miterlimit="10"/><path fill="none" stroke="black" paint-order="fill stroke markers" d=" M 338 255 L 338 251" stroke-miterlimit="10"/><path fill="none" stroke="black" paint-order="fill stroke markers" d=" M 346 255 L 346 251" stroke-miterlimit="10"/><path fill="none" stroke="black" paint-order="fill stroke markers" d=" M 352 255 L 352 251" stroke-miterlimit="10"/><path fill="none" stroke="black" paint-order="fill stroke markers" d=" M 357 255 L 357 251" stroke-miterlimit="10"/><path fill="none" stroke="black" paint-order="fill stroke markers" d=" M 362 255 L 362 251" stroke-miterlimit="10"/><path fill="none" stroke="black" paint-order="fill stroke markers" d=" M 365 255 L 365 251" stroke-miterlimit="10"/><path fill="none" stroke="black" paint-order="fill stroke markers" d=" M 369 255 L 369 251" stroke-miterlimit="10"/><path fill="none" stroke="black" paint-order="fill stroke markers" d=" M 372 255 L 372 251" stroke-miterlimit="10"/><path fill="none" stroke="black" paint-order="fill stroke markers" d=" M 437 255 L 437 251" stroke-miterlimit="10"/><path fill="none" stroke="black" paint-order="fill stroke markers" d=" M 456 255 L 456 251" stroke-miterlimit="10"/><path fill="none" stroke="black" paint-order="fill stroke markers" d=" M 468 255 L 468 251" stroke-miterlimit="10"/><path fill="none" stroke="black" paint-order="fill stroke markers" d=" M 476 255 L 476 251" stroke-miterlimit="10"/><path fill="none" stroke="black" paint-order="fill stroke markers" d=" M 482 255 L 482 251" stroke-miterlimit="10"/><path fill="none" stroke="black" paint-order="fill stroke markers" d=" M 488 255 L 488 251" stroke-miterlimit="10"/><path fill="none" stroke="black" paint-order="fill stroke markers" d=" M 492 255 L 492 251" stroke-miterlimit="10"/><path fill="none" stroke="black" paint-order="fill stroke markers" d=" M 496 255 L 496 251" stroke-miterlimit="10"/><path fill="none" stroke="black" paint-order="fill stroke markers" d=" M 499 255 L 499 251" stroke-miterlimit="10"/><path fill="none" stroke="black" paint-order="fill stroke markers" d=" M 502 255 L 502 251" stroke-miterlimit="10"/><path fill="none" stroke="black" paint-order="fill stroke markers" d=" M 567 255 L 567 251" stroke-miterlimit="10"/><path fill="none" stroke="black" paint-order="fill stroke markers" d=" M 587 255 L 587 251" stroke-miterlimit="10"/><path fill="none" stroke="black" paint-order="fill stroke markers" d=" M 598 255 L 598 251" stroke-miterlimit="10"/><path fill="none" stroke="black" paint-order="fill stroke markers" d=" M 606 255 L 606 251" stroke-miterlimit="10"/><path fill="none" stroke="black" paint-order="fill stroke markers" d=" M 613 255 L 613 251" stroke-miterlimit="10"/><path fill="none" stroke="black" paint-order="fill stroke markers" d=" M 618 255 L 618 251" stroke-miterlimit="10"/><path fill="none" stroke="black" paint-order="fill stroke markers" d=" M 622 255 L 622 251" stroke-miterlimit="10"/><path fill="none" stroke="black" paint-order="fill stroke markers" d=" M 626 255 L 626 251" stroke-miterlimit="10"/><path fill="none" stroke="black" paint-order="fill stroke markers" d=" M 629 255 L 629 251" stroke-miterlimit="10"/><path fill="none" stroke="black" paint-order="fill stroke markers" d=" M 632 255 L 632 251" stroke-miterlimit="10"/><path fill="none" stroke="black" paint-order="fill stroke markers" d=" M 697 255 L 697 251" stroke-miterlimit="10"/><path fill="none" stroke="black" paint-order="fill stroke markers" d=" M 717 255 L 717 251" stroke-miterlimit="10"/><path fill="none" stroke="black" paint-order="fill stroke markers" d=" M 728 255 L 728 251" stroke-miterlimit="10"/><path fill="none" stroke="black" paint-order="fill stroke markers" d=" M 737 255 L 737 251" stroke-miterlimit="10"/><path fill="none" stroke="black" paint-order="fill stroke markers" d=" M 743 255 L 743 251" stroke-miterlimit="10"/><path fill="none" stroke="black" paint-order="fill stroke markers" d=" M 748 255 L 748 251" stroke-miterlimit="10"/><path fill="none" stroke="black" paint-order="fill stroke markers" d=" M 752 255 L 752 251" stroke-miterlimit="10"/><path fill="none" stroke="black" paint-order="fill stroke markers" d=" M 756 255 L 756 251" stroke-miterlimit="10"/><path fill="none" stroke="black" paint-order="fill stroke markers" d=" M 759 255 L 759 251" stroke-miterlimit="10"/><path fill="" stroke="black" paint-order="fill stroke markers" d=" M 762 255 L 762 251" stroke-miterlimit="10"/><g transform="translate(111,262) rotate(0,0,0)"><text fill="" stroke="none" font-family="helvetica" font-size="8pt" font-style="normal" font-weight="normal" text-decoration="normal" x="0" y="0" text-anchor="middle" dominant-baseline="hanging">10^-5</text><g transform="rotate(0,0,0) translate(-111,-262) translate(241,262) rotate(0,0,0)"><text fill="" stroke="none" font-family="helvetica" font-size="8pt" font-style="normal" font-weight="normal" text-decoration="normal" x="0" y="0" text-anchor="middle" dominant-baseline="hanging">10^-3</text><g transform="rotate(0,0,0) translate(-241,-262) translate(372,262) rotate(0,0,0)"><text fill="" stroke="none" font-family="helvetica" font-size="8pt" font-style="normal" font-weight="normal" text-decoration="normal" x="0" y="0" text-anchor="middle" dominant-baseline="hanging">10^-1</text><g transform="rotate(0,0,0) translate(-372,-262) translate(502,262) rotate(0,0,0)"><text fill="" stroke="none" font-family="helvetica" font-size="8pt" font-style="normal" font-weight="normal" text-decoration="normal" x="0" y="0" text-anchor="middle" dominant-baseline="hanging">10^1</text><g transform="rotate(0,0,0) translate(-502,-262) translate(632,262) rotate(0,0,0)"><text fill="" stroke="none" font-family="helvetica" font-size="8pt" font-style="normal" font-weight="normal" text-decoration="normal" x="0" y="0" text-anchor="middle" dominant-baseline="hanging">10^3</text><g transform="rotate(0,0,0) translate(-632,-262) translate(762,262) rotate(0,0,0)"><text fill="" stroke="none" font-family="helvetica" font-size="8pt" font-style="normal" font-weight="normal" text-decoration="normal" x="0" y="0" text-anchor="middle" dominant-baseline="hanging">10^5</text><g transform="rotate(0,0,0) translate(-762,-262) translate(775,282) rotate(0,0,0)"><text fill="" stroke="none" font-family="helvetica" font-size="10pt" font-style="italic" font-weight="normal" text-decoration="normal" x="0" y="0" text-anchor="middle" dominant-baseline="hanging">Frequency [rad/s]</text><g transform="rotate(0,0,0) translate(-775,-282)"/></g></g></g></g></g></g></g></g><g fill="#444444"><path fill="none" stroke="black" paint-order="fill stroke markers" d=" M 79 251 L 79 5" stroke-miterlimit="10"/><path fill="none" stroke="black" paint-order="fill stroke markers" d=" M 73 240 L 81 240" stroke-miterlimit="10"/><path fill="none" stroke="black" paint-order="fill stroke markers" d=" M 73 195 L 81 195" stroke-miterlimit="10"/><path fill="none" stroke="black" paint-order="fill stroke markers" d=" M 73 151 L 81 151" stroke-miterlimit="10"/><path fill="none" stroke="black" paint-order="fill stroke markers" d=" M 73 106 L 81 106" stroke-miterlimit="10"/><path fill="none" stroke="black" paint-order="fill stroke markers" d=" M 73 62 L 81 62" stroke-miterlimit="10"/><path fill="none" stroke="black" paint-order="fill stroke markers" d=" M 73 17 L 81 17" stroke-miterlimit="10"/><path fill="none" stroke="black" paint-order="fill stroke markers" d=" M 75 240 L 79 240" stroke-miterlimit="10"/><path fill="none" stroke="black" paint-order="fill stroke markers" d=" M 75 218 L 79 218" stroke-miterlimit="10"/><path fill="none" stroke="black" paint-order="fill stroke markers" d=" M 75 211 L 79 211" stroke-miterlimit="10"/><path fill="none" stroke="black" paint-order="fill stroke markers" d=" M 75 207 L 79 207" stroke-miterlimit="10"/><path fill="none" stroke="black" paint-order="fill stroke markers" d=" M 75 204 L 79 204" stroke-miterlimit="10"/><path fill="none" stroke="black" paint-order="fill stroke markers" d=" M 75 202 L 79 202" stroke-miterlimit="10"/><path fill="none" stroke="black" paint-order="fill stroke markers" d=" M 75 200 L 79 200" stroke-miterlimit="10"/><path fill="none" stroke="black" paint-order="fill stroke markers" d=" M 75 199 L 79 199" stroke-miterlimit="10"/><path fill="none" stroke="black" paint-order="fill stroke markers" d=" M 75 198 L 79 198" stroke-miterlimit="10"/><path fill="none" stroke="black" paint-order="fill stroke markers" d=" M 75 197 L 79 197" stroke-miterlimit="10"/><path fill="none" stroke="black" paint-order="fill stroke markers" d=" M 75 195 L 79 195" stroke-miterlimit="10"/><path fill="none" stroke="black" paint-order="fill stroke markers" d=" M 75 173 L 79 173" stroke-miterlimit="10"/><path fill="none" stroke="black" paint-order="fill stroke markers" d=" M 75 167 L 79 167" stroke-miterlimit="10"/><path fill="none" stroke="black" paint-order="fill stroke markers" d=" M 75 163 L 79 163" stroke-miterlimit="10"/><path fill="none" stroke="black" paint-order="fill stroke markers" d=" M 75 160 L 79 160" stroke-miterlimit="10"/><path fill="none" stroke="black" paint-order="fill stroke markers" d=" M 75 158 L 79 158" stroke-miterlimit="10"/><path fill="none" stroke="black" paint-order="fill stroke markers" d=" M 75 156 L 79 156" stroke-miterlimit="10"/><path fill="none" stroke="black" paint-order="fill stroke markers" d=" M 75 154 L 79 154" stroke-miterlimit="10"/><path fill="none" stroke="black" paint-order="fill stroke markers" d=" M 75 153 L 79 153" stroke-miterlimit="10"/><path fill="none" stroke="black" paint-order="fill stroke markers" d=" M 75 152 L 79 152" stroke-miterlimit="10"/><path fill="none" stroke="black" paint-order="fill stroke markers" d=" M 75 151 L 79 151" stroke-miterlimit="10"/><path fill="none" stroke="black" paint-order="fill stroke markers" d=" M 75 129 L 79 129" stroke-miterlimit="10"/><path fill="none" stroke="black" paint-order="fill stroke markers" d=" M 75 122 L 79 122" stroke-miterlimit="10"/><path fill="none" stroke="black" paint-order="fill stroke markers" d=" M 75 118 L 79 118" stroke-miterlimit="10"/><path fill="none" stroke="black" paint-order="fill stroke markers" d=" M 75 115 L 79 115" stroke-miterlimit="10"/><path fill="none" stroke="black" paint-order="fill stroke markers" d=" M 75 113 L 79 113" stroke-miterlimit="10"/><path fill="none" stroke="black" paint-order="fill stroke markers" d=" M 75 111 L 79 111" stroke-miterlimit="10"/><path fill="none" stroke="black" paint-order="fill stroke markers" d=" M 75 110 L 79 110" stroke-miterlimit="10"/><path fill="none" stroke="black" paint-order="fill stroke markers" d=" M 75 109 L 79 109" stroke-miterlimit="10"/><path fill="none" stroke="black" paint-order="fill stroke markers" d=" M 75 107 L 79 107" stroke-miterlimit="10"/><path fill="none" stroke="black" paint-order="fill stroke markers" d=" M 75 106 L 79 106" stroke-miterlimit="10"/><path fill="none" stroke="black" paint-order="fill stroke markers" d=" M 75 84 L 79 84" stroke-miterlimit="10"/><path fill="none" stroke="black" paint-order="fill stroke markers" d=" M 75 77 L 79 77" stroke-miterlimit="10"/><path fill="none" stroke="black" paint-order="fill stroke markers" d=" M 75 73 L 79 73" stroke-miterlimit="10"/><path fill="none" stroke="black" paint-order="fill stroke markers" d=" M 75 71 L 79 71" stroke-miterlimit="10"/><path fill="none" stroke="black" paint-order="fill stroke markers" d=" M 75 68 L 79 68" stroke-miterlimit="10"/><path fill="none" stroke="black" paint-order="fill stroke markers" d=" M 75 67 L 79 67" stroke-miterlimit="10"/><path fill="none" stroke="black" paint-order="fill stroke markers" d=" M 75 65 L 79 65" stroke-miterlimit="10"/><path fill="none" stroke="black" paint-order="fill stroke markers" d=" M 75 64 L 79 64" stroke-miterlimit="10"/><path fill="none" stroke="black" paint-order="fill stroke markers" d=" M 75 63 L 79 63" stroke-miterlimit="10"/><path fill="none" stroke="black" paint-order="fill stroke markers" d=" M 75 62 L 79 62" stroke-miterlimit="10"/><path fill="none" stroke="black" paint-order="fill stroke markers" d=" M 75 39 L 79 39" stroke-miterlimit="10"/><path fill="none" stroke="black" paint-order="fill stroke markers" d=" M 75 33 L 79 33" stroke-miterlimit="10"/><path fill="none" stroke="black" paint-order="fill stroke markers" d=" M 75 29 L 79 29" stroke-miterlimit="10"/><path fill="none" stroke="black" paint-order="fill stroke markers" d=" M 75 26 L 79 26" stroke-miterlimit="10"/><path fill="none" stroke="black" paint-order="fill stroke markers" d=" M 75 24 L 79 24" stroke-miterlimit="10"/><path fill="none" stroke="black" paint-order="fill stroke markers" d=" M 75 22 L 79 22" stroke-miterlimit="10"/><path fill="none" stroke="black" paint-order="fill stroke markers" d=" M 75 21 L 79 21" stroke-miterlimit="10"/><path fill="none" stroke="black" paint-order="fill stroke markers" d=" M 75 19 L 79 19" stroke-miterlimit="10"/><path fill="none" stroke="black" paint-order="fill stroke markers" d=" M 75 18 L 79 18" stroke-miterlimit="10"/><path fill="" stroke="black" paint-order="fill stroke markers" d=" M 75 17 L 79 17" stroke-miterlimit="10"/><g transform="translate(68,240) rotate(0,0,0)"><text fill="" stroke="none" font-family="helvetica" font-size="8pt" font-style="normal" font-weight="normal" text-decoration="normal" x="0" y="0" text-anchor="end" dominant-baseline="central">10^-10</text><g transform="rotate(0,0,0) translate(-68,-240) translate(68,195) rotate(0,0,0)"><text fill="" stroke="none" font-family="helvetica" font-size="8pt" font-style="normal" font-weight="normal" text-decoration="normal" x="0" y="0" text-anchor="end" dominant-baseline="central">10^-8</text><g transform="rotate(0,0,0) translate(-68,-195) translate(68,151) rotate(0,0,0)"><text fill="" stroke="none" font-family="helvetica" font-size="8pt" font-style="normal" font-weight="normal" text-decoration="normal" x="0" y="0" text-anchor="end" dominant-baseline="central">10^-6</text><g transform="rotate(0,0,0) translate(-68,-151) translate(68,106) rotate(0,0,0)"><text fill="" stroke="none" font-family="helvetica" font-size="8pt" font-style="normal" font-weight="normal" text-decoration="normal" x="0" y="0" text-anchor="end" dominant-baseline="central">10^-4</text><g transform="rotate(0,0,0) translate(-68,-106) translate(68,62) rotate(0,0,0)"><text fill="" stroke="none" font-family="helvetica" font-size="8pt" font-style="normal" font-weight="normal" text-decoration="normal" x="0" y="0" text-anchor="end" dominant-baseline="central">10^-2</text><g transform="rotate(0,0,0) translate(-68,-62) translate(68,17) rotate(0,0,0)"><text fill="" stroke="none" font-family="helvetica" font-size="8pt" font-style="normal" font-weight="normal" text-decoration="normal" x="0" y="0" text-anchor="end" dominant-baseline="central">10^0</text><g transform="rotate(0,0,0) translate(-68,-17) translate(18,12) rotate(-90,0,0)"><text fill="" stroke="none" font-family="helvetica" font-size="10pt" font-style="italic" font-weight="normal" text-decoration="normal" x="0" y="0" text-anchor="middle" dominant-baseline="alphabetic">Gain [dB]</text><g transform="rotate(90,0,0) translate(-18,-12)"/></g></g></g></g></g></g></g></g></g></g></g></svg>