<svg version="1.1" xmlns="http://www.w3.org/2000/svg" xmlns:xlink="http://www.w3.org/1999/xlink" width="800" height="300" style="width: 800px; height: 300px;"><defs/><g><g/><g transform="scale(1,1) translate(0.5,0.5)"><rect fill="#FFFFFF" stroke="none" x="0" y="0" width="800" height="300"/><rect fill="#ffffff" stroke="none" x="0" y="0" width="800" height="300"/><rect fill="#FFFFFF" stroke="none" x="57.001875000000005" y="5" width="712.998125" height="246.2625"/><rect fill="#ffffff" stroke="none" x="57.001875000000005" y="5" width="712.998125" height="246.2625"/><g><rect fill="none" stroke="#e5e5e5" x="57.001875000000005" y="5" width="712.998125" height="246.2625" stroke-miterlimit="10"/></g><g><g><path fill="none" stroke="#e5e5e5" paint-order="fill stroke markers" d=" M 130 251 L 130 5" stroke-miterlimit="10"/><path fill="none" stroke="#e5e5e5" paint-order="fill stroke markers" d=" M 223 251 L 223 5" stroke-miterlimit="10"/><path fill="none" stroke="#e5e5e5" paint-order="fill stroke markers" d=" M 315 251 L 315 5" stroke-miterlimit="10"/><path fill="none" stroke="#e5e5e5" paint-order="fill stroke markers" d=" M 408 251 L 408 5" stroke-miterlimit="10"/><path fill="none" stroke="#e5e5e5" paint-order="fill stroke markers" d=" M 501 251 L 501 5" stroke-miterlimit="10"/><path fill="none" stroke="#e5e5e5" paint-order="fill stroke markers" d=" M 593 251 L 593 5" stroke-miterlimit="10"/><path fill="none" stroke="#e5e5e5" paint-order="fill stroke markers" d=" M 686 251 L 686 5" stroke-miterlimit="10"/></g><g><path fill="none" stroke="#e5e5e5" paint-order="fill stroke markers" d=" M 57 204 L 770 204" stroke-miterlimit="10"/><path fill="none" stroke="#e5e5e5" paint-order="fill stroke markers" d=" M 57 154 L 770 154" stroke-miterlimit="10"/><path fill="none" stroke="#e5e5e5" paint-order="fill stroke markers" d=" M 57 104 L 770 104" stroke-miterlimit="10"/><path fill="none" stroke="#e5e5e5" paint-order="fill stroke markers" d=" M 57 54 L 770 54" stroke-miterlimit="10"/></g><g><path fill="none" stroke="none"/><path fill="none" stroke="rgb(225,109,0)" paint-order="fill stroke markers" d=" M 737.5909943181819 53.692248495582845 L 737.5909943109218 53.69237876413467 L 737.5909943033196 53.69251207010342 L 737.5909942953583 53.69264848431118 L 737.5909942870217 53.69278807923152 L 737.5909942782919 53.69293092902774 L 737.5909942691501 53.69307710959242 L 737.590994259577 53.693226698587694 L 737.5909942495525 53.69337977548648 L 737.5909942390547 53.693536421614766 L 737.5909942280618 53.69369672019474 L 737.5909942165504 53.693860756389114 L 737.5909942044959 53.69402861734628 L 737.5909941918726 53.69420039224656 L 737.590994178654 53.69437617234976 L 737.5909941648117 53.69455605104352 L 737.5909941503162 53.6947401238929 L 737.590994135137 53.69492848869126 L 737.5909941192417 53.69512124551221 L 737.5909941025964 53.69531849676267 L 737.5909940851661 53.695520347237306 L 737.590994066913 53.695726904174364 L 737.5909940477991 53.69593827731239 L 737.5909940277834 53.69615457894875 L 737.5909940068234 53.69637592399911 L 737.5909939848746 53.696602430058675 L 737.5909939618905 53.6968342174645 L 737.5909939378218 53.697071409359495 L 737.5909939126177 53.69731413175788 L 737.5909938862244 53.69756251361204 L 737.5909938585867 53.69781668688114 L 737.590993829644 53.69807678660115 L 737.5909937993367 53.6983429509566 L 737.5909937675992 53.69861532135408 L 737.5909937343649 53.698894042497216 L 737.5909936995624 53.69917926246367 L 737.5909936631178 53.6994711327838 L 737.5909936249543 53.69976980852104 L 737.59099358499 53.700075448354454 L 737.5909935431405 53.70038821466295 L 737.5909934993165 53.700708273611525 L 737.5909934534254 53.70103579523956 L 737.5909934053689 53.70137095355125 L 737.5909933550454 53.70171392660788 L 737.5909933023479 53.70206489662257 L 737.5909932471641 53.70242405005703 L 737.5909931893771 53.702791577720575 L 737.5909931288638 53.703167674871594 L 737.5909930654955 53.703552541321216 L 737.590992999138 53.703946381539424 L 737.5909929296499 53.70434940476383 L 737.5909928568833 53.704761825110694 L 737.590992780684 53.70518386168877 L 737.59099270089 53.70561573871561 L 737.5909926173313 53.706057685636836 L 737.5909925298308 53.706509937247915 L 737.5909924382022 53.70697273381893 L 737.590992342251 53.70744632122225 L 737.5909922417729 53.70793095106316 L 737.5909921365546 53.70842688081353 L 737.5909920263725 53.70893437394852 L 737.5909919109924 53.709453700086726 L 737.590991790169 53.70998513513325 L 737.5909916636454 53.71052896142638 L 737.5909915311531 53.71108546788756 L 737.5909913924099 53.71165495017493 L 737.5909912471216 53.71223771084033 L 737.5909910949788 53.712834059490035 L 737.5909909356583 53.71344431294938 L 737.5909907688217 53.714068795430876 L 737.5909905941144 53.71470783870663 L 737.590990411165 53.715361782284475 L 737.5909902195847 53.71603097358846 L 737.5909900189658 53.71671576814336 L 737.5909898088826 53.71741652976357 L 737.5909895888883 53.71813363074631 L 737.5909893585153 53.71886745206962 L 737.5909891172741 53.719618383594565 L 737.590988864652 53.72038682427245 L 737.590988600112 53.72117318235675 L 737.5909883230918 53.72197787562001 L 737.5909880330025 53.72280133157582 L 737.5909877292279 53.72364398770591 L 737.5909874111221 53.724506291692535 L 737.5909870780092 53.72538870165644 L 737.5909867291807 53.72629168640009 L 737.5909863638963 53.72721572565692 L 737.5909859813783 53.72816131034597 L 737.5909855808145 53.72912894283294 L 737.5909851613535 53.73011913719691 L 737.5909847221037 53.731132419503524 L 737.5909842621313 53.732169328084495 L 737.5909837804588 53.73323041382358 L 737.5909832760628 53.734316240449175 L 737.5909827478708 53.73542738483397 L 737.5909821947605 53.736564437301325 L 737.5909816155563 53.737728001938876 L 737.5909810090268 53.73891869691951 L 737.5909803738832 53.740137154829824 L 737.5909797087759 53.741384023006106 L 737.5909790122907 53.74265996387828 L 737.5909782829474 53.743965655321915 L 737.5909775191963 53.74530179101828 L 737.5909767194139 53.74666908082281 L 737.5909758819 53.748068251142456 L 737.590975004875 53.74950004532141 L 737.5909740864747 53.75096522403604 L 737.5909731247473 53.75246456569914 L 737.5909721176486 53.75399886687333 L 737.5909710630381 53.75556894269434 L 737.5909699586748 53.757175627304065 L 737.5909688022107 53.75881977429367 L 737.5909675911885 53.76050225715713 L 737.5909663230341 53.76222396975524 L 737.5909649950522 53.76398582679059 L 737.5909636044203 53.765788764293376 L 737.590962148183 53.76763374011884 L 737.5909606232449 53.76952173445602 L 737.5909590263652 53.77145375034863 L 737.5909573541501 53.773430814227794 L 737.5909556030444 53.77545397645744 L 737.5909537693276 53.77752431189239 L 737.5909518491019 53.77964292044928 L 737.5909498382862 53.78181092769094 L 737.5909477326063 53.78402948542441 L 737.5909455275873 53.78629977231287 L 737.5909432185424 53.788622994501736 L 737.5909408005643 53.79100038625958 L 737.5909382685136 53.79343321063371 L 737.5909356170089 53.79592276012127 L 737.5909328404146 53.79847035735594 L 737.5909299328293 53.80107735581052 L 737.5909268880737 53.803745140515986 L 737.5909236996761 53.80647512879736 L 737.5909203608601 53.80926877102675 L 737.5909168645292 53.812127551393644 L 737.5909132032527 53.81505298869371 L 737.590909369249 53.81804663713541 L 737.5909053543689 53.82111008716586 L 737.5909011500801 53.824244966315774 L 737.5908967474459 53.82745294006392 L 737.5908921371097 53.8307357127222 L 737.5908873092724 53.83409502834087 L 737.5908822536733 53.83753267163519 L 737.5908769595669 53.8410504689335 L 737.5908714157017 53.84465028914755 L 737.5908656102947 53.84833404476532 L 737.5908595310073 53.85210369286705 L 737.5908531649184 53.855961236164944 L 737.5908464984977 53.85990872406711 L 737.5908395175768 53.86394825376641 L 737.590832207318 53.86808197135443 L 737.5908245521848 53.87231207296176 L 737.5908165359074 53.876640805924524 L 737.590808141447 53.88107046997848 L 737.5907993509632 53.88560341848057 L 737.5907901457724 53.890242059659215 L 737.5907805063102 53.89498885789362 L 737.5907704120893 53.89984633502306 L 737.5907598416554 53.904817071686495 L 737.5907487725422 53.90990370869352 L 737.5907371812239 53.91510894842736 L 737.5907250430644 53.920435556280296 L 737.5907123322654 53.92588636212295 L 737.590699021812 53.93146426180746 L 737.5906850834144 53.93717221870591 L 737.5906704874476 53.94301326528449 L 737.5906552028903 53.94899050471457 L 737.5906391972569 53.955107112521034 L 737.5906224365294 53.9613663382693 L 737.5906048850848 53.96777150729142 L 737.59058650562 53.97432602245274 L 737.5905672590711 53.981033365959405 L 737.5905471045321 53.987897101208205 L 737.5905259991673 53.99492087467948 L 737.59050389812 54.00210841787418 L 737.5904807544168 54.009463549296015 L 737.5904565188687 54.01699017647982 L 737.5904311399663 54.02469229806729 L 737.5904045637697 54.03257400593097 L 737.5903767337948 54.04063948734782 L 737.590347590892 54.04889302722347 L 737.5903170731224 54.057339010368196 L 737.590285115624 54.06598192382614 L 737.5902516504752 54.074826359258594 L 737.5902166065503 54.08387701538294 L 737.5901799093679 54.0931387004685 L 737.5901414809327 54.1026163348904 L 737.5901012395705 54.112314953743066 L 737.5900590997533 54.12223970951453 L 737.5900149719182 54.1323958748232 L 737.589968762278 54.142788845218234 L 737.5899203726196 54.153424142045196 L 737.5898697000978 54.164307415378744 L 737.5898166370146 54.17544444702315 L 737.5897610705915 54.18684115358329 L 737.5897028827303 54.19850358960676 L 737.5896419497599 54.21043795079939 L 737.5895781421762 54.22265057731562 L 737.5895113243648 54.235147957125605 L 737.5894413543142 54.247936729460605 L 737.5893680833128 54.26102368833881 L 737.5892913556331 54.27441578617308 L 737.5892110082023 54.28812013746304 L 737.5891268702528 54.302144022572804 L 737.5890387629622 54.31649489159685 L 737.5889464990717 54.33118036831601 L 737.5888498824879 54.34620825424548 L 737.5887487078667 54.36158653277701 L 737.588642760177 54.37732337341777 L 737.5885318142437 54.393427136127656 L 737.5884156342681 54.40990637575777 L 737.5882939733285 54.42676984659215 L 737.5881665728537 54.44402650699513 L 737.5880331620747 54.46168552416705 L 737.5878934574489 54.47975627901059 L 737.5877471620574 54.49824837111015 L 737.5875939649741 54.517171623827494 L 737.5874335406049 54.53653608951555 L 737.5872655479957 54.55635205485379 L 737.5870896301076 54.576630046307656 L 737.5869054130594 54.59738083571486 L 737.5867125053308 54.61861544600177 L 737.5865104969325 54.64034515703261 L 737.5862989585337 54.66258151159474 L 737.5860774405503 54.685336321523096 L 737.5858454721897 54.70862167396683 L 737.5856025604485 54.732449937801874 L 737.5853481890683 54.75683377019237 L 737.5850818174345 54.78178612330444 L 737.5848028794317 54.80732025117621 L 737.5845107822372 54.83344971674711 L 737.5842049050632 54.86018839905071 L 737.5838845978365 54.887550500574264 L 737.5835491798186 54.91555055478932 L 737.583197938158 54.94420343385704 L 737.5828301263755 54.973524356512286 L 737.5824449627789 55.003528896130575 L 737.5820416288007 55.034232988982325 L 737.5816192672601 55.06565294267821 L 737.5811769805407 55.097805444810604 L 737.5807138286839 55.13070757179486 L 737.5802288273912 55.16437679791599 L 737.5797209459338 55.198831004584406 L 737.5791891049605 55.234088489806055 L 737.5786321742073 55.27016797787206 L 737.578048970094 55.30708862927216 L 737.5774382532102 55.34487005083761 L 737.576798725682 55.38353230611867 L 737.5761290284152 55.42309592600185 L 737.5754277382066 55.463581919572334 L 737.5746933647229 55.50501178522748 L 737.5739243473315 55.547407522046626 L 737.5731190517879 55.59079164142318 L 737.5722757667629 55.63518717896511 L 737.5713927002078 55.68061770666958 L 737.570467975547 55.727107345377846 L 737.5694996276927 55.774680777517176 L 737.5684855988709 55.823363260135665 L 737.5674237342503 55.87318063823682 L 737.5663117773659 55.92415935842038 L 737.5651473653263 55.97632648283664 L 737.563928023796 56.02970970346044 L 737.5626511617397 56.08433735669283 L 737.5613140659211 56.14023843829682 L 737.5599138951397 56.19744261867521 L 737.5584476741997 56.25598025849763 L 737.5569122875895 56.31588242468462 L 737.5553044728704 56.37718090675634 L 737.553620813746 56.439908233554206 L 737.5518577328123 56.50409769034323 L 737.5500114839615 56.569783336303345 L 737.5480781444292 56.63700002241819 L 737.5460536064684 56.705783409769765 L 737.5439335686299 56.77616998824777 L 737.5417135266325 56.84819709568231 L 737.5393887638038 56.92190293740879 L 737.5369543410698 56.9973266062745 L 737.5344050864744 57.07450810309575 L 737.5317355842055 57.15348835757504 L 737.5289401631032 57.23430924968801 L 737.5260128846292 57.317013631549315 L 737.5229475302674 57.40164534976779 L 737.5197375883354 57.48824926830045 L 737.5163762401717 57.576871291815394 L 737.5128563456749 57.66755838957394 L 737.5091704281645 57.76035861984215 L 737.5053106585256 57.85532115484207 L 737.5012688386116 57.95249630625332 L 737.4970363838652 58.05193555127548 L 737.4926043051232 58.15369155926203 L 737.4879631895647 58.25781821893651 L 737.4831031807662 58.36437066620172 L 737.4780139578183 58.473405312552984 L 737.4726847134609 58.58497987410601 L 737.4671041311947 58.699153401250726 L 737.4612603613127 58.81598630894166 L 737.455140995814 58.9355404076361 L 737.4487330421321 59.05787893489068 L 737.442022895638 59.18306658762742 L 737.4349963108489 59.31116955508014 L 737.4276383712879 59.442255552431476 L 737.4199334579325 59.576393855151935 L 737.4118652161833 59.71365533405054 L 737.4034165212827 59.85411249104777 L 737.3945694421197 59.997839495681205 L 737.3853052033355 60.1449122223529 L 737.3756041456572 60.295408288328645 L 737.3654456843758 60.44940709249818 L 737.3548082658829 60.60698985490495 L 737.3436693221754 60.76823965705421 L 737.3320052232343 60.93324148300687 L 737.3197912271803 61.102082261266986 L 737.307001428102 61.2748509074693 L 737.2936087014498 61.45163836787313 L 737.279584646885 61.63253766366779 L 737.2648995284637 61.817643936094214 L 737.2495222120363 62.007054492386175 L 737.2334200997313 62.20086885253406 L 737.2165590613927 62.39918879687224 L 737.1989033628292 62.60211841449072 L 737.1804155907316 62.8097641524696 L 737.1610565741034 63.02223486593425 L 737.140785302048 63.23964186892675 L 737.1195588377443 63.46209898608794 L 737.0973322284408 63.68972260514238 L 737.0740584112846 63.92263173017619 L 737.0496881147965 64.16094803569595 L 737.0241697557981 64.40479592145442 L 736.9974493315849 64.65430256802543 L 736.9694703071275 64.90959799310852 L 736.9401734970852 65.17081510854015 L 736.9094969423934 65.4380897779852 L 736.8773757811839 65.71156087527848 L 736.8437421137896 65.99137034338295 L 736.8085248615644 66.27766325392611 L 736.77164961925 66.57058786727208 L 736.7330385006005 66.87029569308203 L 736.6926099769748 67.17694155130988 L 736.6502787085794 67.490683633575 L 736.6059553680473 67.8116835648473 L 736.5595464560201 68.14010646537344 L 736.510954108383 68.4761210127659 L 736.4600758947947 68.81989950416926 L 736.4068046081404 69.17161791840917 L 736.3510280445175 69.53145597802177 L 736.2926287733542 69.89959721105097 L 736.231483897245 70.2762290124912 L 736.1674648010653 70.66154270524265 L 736.1004368899289 71.05573360043405 L 736.0302593155143 71.45900105695603 L 735.9567846902899 71.87154854003398 L 735.8798587891383 72.29358367865618 L 735.799320237875 72.7253183216568 L 735.7150001881271 73.16696859223754 L 735.6267219780384 73.618754940694 L 735.5343007782335 74.08090219509461 L 735.4375432224722 74.55363960963948 L 735.3362470224004 75.03720091040617 L 735.2302005657909 75.53182433816556 L 735.1191824976568 76.03775268792839 L 735.0029612835931 76.55523334485576 L 734.881294754706 77.08451831614076 L 734.7539296334601 77.62586425843836 L 734.6206010397699 78.17953250039056 L 734.4810319766505 78.74578905975989 L 734.3349327947284 79.32490465464983 L 734.1820006349119 79.91715470825415 L 734.0219188485064 80.52281934653618 L 733.854356394063 81.14218338819893 L 733.6789672102418 81.77553632626126 L 733.4953895639788 82.42317230050952 L 733.3032453732375 83.0853900600435 L 733.1021395036496 83.76249291508415 L 732.8916590383483 84.45478867715397 L 732.6713725203206 85.16258958668385 L 732.4408291666226 85.88621222703773 L 732.1995580538305 86.62597742388198 L 731.9470672741334 87.38221012875891 L 731.68284306151 88.15523928565142 L 731.4063488874845 88.94539767925176 L 731.1170245260057 89.75302176356854 L 730.8142850870654 90.57845146942472 L 730.4975200187414 91.42202998931282 L 730.1660920774407 92.28410353798597 L 729.8193362662133 93.16502108706973 L 729.4565587411248 94.06513407188453 L 729.0770356857952 94.98479606856807 L 728.6800121543586 95.92436243948677 L 728.2647008832586 96.88418994481725 L 727.8302810724682 97.86463631807297 L 727.3758971369284 98.86605980323941 L 726.9006574292143 99.88881865106927 L 726.4036329346872 100.93327057197504 L 725.8838559406581 101.99977214284138 L 725.3403186813889 103.08867816496456 L 724.7719719610802 104.20034097021235 L 724.1777237573604 105.33510967238334 L 723.5564378081735 106.49332936063504 L 722.906932185404 107.67534023174363 L 722.2279778590259 108.8814766578547 L 721.5182972560898 110.11206618629117 L 720.7765628193888 111.3674284678975 L 720.0013955712554 112.64787411032128 L 719.191363688567 113.95370345257285 L 718.3449810957309 115.28520525715183 L 717.4607060831579 116.64265531600148 L 716.53693995952 118.02631496654016 L 715.5720257469283 119.43642951403405 L 714.5642469290667 120.87322655661839 L 713.5118262632664 122.3369142093469 L 712.4129246685061 123.82767922376021 L 711.265640202384 125.34568499961466 L 710.0680071412223 126.89106948560945 L 708.8179951786149 128.46394296619772 L 707.5135087589506 130.0643857318713 L 706.1523865636823 131.69244563067758 L 704.7324011694133 133.34813549916106 L 703.251258898182 135.0314304714372 L 701.7065998816788 136.74226516569848 L 700.0959983624723 138.48053074813862 L 698.4169632566909 140.2460718750612 L 696.6669390039395 142.03868351482407 L 694.8433067315427 143.8581076522654 L 692.9433857614767 145.7040298793715 L 690.9644354895415 147.5760758771814 L 688.9036576674175 149.47380779529118 L 686.7581991192407 151.39672053681875 L 684.5251549251442 153.34423795833163 L 682.2015721048579 155.3157089960177 L 679.7844538348753 157.31040373130332 L 677.2707642328523 159.3275094111836 L 674.6574337427551 161.36612644073602 L 671.9413651537764 163.4252643676189 L 669.1194402851471 165.5038378808186 L 666.1885273676301 167.60066284847983 L 663.1454891506413 169.71445242232082 L 659.9871917615646 171.84381323888104 L 656.7105143408303 173.98724175064638 L 653.3123594726932 176.14312072291477 L 649.7896644273062 178.30971593507502 L 646.1394132246014 180.48517312772609 L 642.3586495246261 182.667515239721 L 638.4444903423024 184.85463998172872 L 634.3941405770593 187.0443177952036 L 630.2049083394214 189.2341902476861 L 625.8742210474285 191.421768917045 L 621.3996422557112 193.60443481855359 L 616.7788891692207 195.77943842948264 L 612.0098507820317 197.94390036611975 L 607.0906065694024 200.09481276770163 L 602.0194456484896 202.2290414405983 L 596.7948863098882 204.34332881413567 L 591.4156958086721 206.4342977566096 L 585.8809102900241 208.49845629627404 L 580.1898547110638 210.53220328730416 L 574.3421626073741 212.53183505491597 L 568.3377955402091 214.4935530469258 L 562.177062048775 216.41347251104713 L 555.8606359215512 218.28763220816177 L 549.389573591735 220.1120051616981 L 542.7653304548276 221.88251043216016 L 535.9897759014684 223.59502589386966 L 529.0652068561875 225.2454019782216 L 521.9943596130563 226.82947633436447 L 514.7804197625679 228.34308934437487 L 507.4270300106619 229.78210041590918 L 499.9382957008403 231.1424049612195 L 492.31878786389586 232.41995195756974 L 484.5735436369505 233.61076197076235 L 476.7080639142558 234.71094551097056 L 468.72830811642865 235.71672157866908 L 460.6406859922891 236.62443624845636 L 452.45204639793116 237.4305811302596 L 444.1696630307376 238.13181154107335 L 435.8012171312537 238.72496421624956 L 427.3547772026268 239.20707438763998 L 418.83877583508774 239.57539205675897 L 410.26198376099603 239.82739729468983 L 401.6334813036058 239.96081440677128 L 392.96262741915825 239.97362480915783 L 384.25902656643774 239.86407847607745 L 375.532493669808 239.63070383088618 L 366.7930174702665 239.27231597062726 L 358.05072258359127 238.78802313249264 L 349.3158306046415 238.17723133103078 L 340.59862061184845 237.43964711678615 L 331.90938943554465 236.57527842988426 L 323.2584120578014 235.5844335454713 L 314.655902509768 234.46771813140825 L 306.11197562517805 233.22603046179066 L 297.63660999586307 231.86055485224196 L 289.23961245709086 230.37275340411662 L 280.9305844077348 228.76435616435262 L 272.7188902431856 227.0373498253944 L 264.6136281481525 225.1939651050737 L 256.62360346271794 223.23666295936616 L 248.75730479893684 221.16811979135304 L 241.02288304763778 218.99121182742894 L 233.42813337664163 216.70899883675116 L 225.9804802830881 214.32470737216727 L 218.68696572464808 211.84171371046548 L 211.55424031773785 209.26352666690536 L 204.58855755602286 206.5937704538005 L 197.79577096999915 203.8361677456565 L 191.18133411868203 200.99452310428336 L 184.75030327774445 198.07270690667116 L 178.50734266506086 195.07463990654034 L 172.45673202466995 192.00427854763885 L 166.60237637372717 188.8656011333572 L 160.94781770405473 185.66259494334113 L 155.4962484203101 182.39924437376794 L 150.25052629042779 179.07952016405255 L 145.21319068062866 175.70736975918078 L 140.3864798466755 172.2867088438108 L 135.77234905489564 168.8214140718975 L 131.37248931047836 165.31531700400154 L 127.18834647635667 161.772199253733 L 123.22114057327505 158.19578883501765 L 119.47188506010053 154.5897576930897 L 115.94140590273186 150.95772039431856 L 112.63036024981425 147.30323394315175 L 109.53925454358814 143.62979868856445 L 106.6684619043402 139.94086027738774 L 104.01823863686671 136.23981260767943 L 101.5887397168895 132.5300017318067 L 99.38003312434518 128.81473065604666 L 97.39211289873624 125.09726498116552 L 95.6249107992052 121.38083932650704 L 94.07830645858715 117.6686644784944 L 92.7521359263622 113.9639352030062 L 91.64619850015953 110.26983865972048 L 90.76026174925909 106.5895633551072 L 90.09406463643072 102.92630856918265 L 89.64731864650815 99.28329418930329 L 89.41970683139175 95.66377088206454 L 89.41088068181821 92.07103053167612 L 89.62045473636229 88.50841686990742 L 90.04799883788962 84.97933621873668 L 90.6930279472432 81.48726826210122 L 91.55498942352523 78.03577675754369 L 92.6332476801528 74.62852009200213 L 93.92706612618551 71.26926157841507 L 95.43558630353064 67.96187938114235 L 97.15780413285056 64.71037594837935 L 99.09254318468254 61.51888681870807 L 101.23842489783426 58.39168865665687 L 103.59383567496978 55.33320635860059 L 106.15689079593588 52.348019055530216 L 108.92539510333165 49.44086482317027 L 111.89680043265838 46.616643892676336 L 115.06815978175119 43.8804201367858 L 118.43607824175575 41.23742058694444 L 121.99666074541437 38.69303271676165 L 125.74545672865148 36.25279920638479 L 129.67740184922877 33.92240988132352 L 133.78675696245196 31.70769049826697 L 138.06704461946225 29.614588029985327 L 142.51098342945795 27.64915208205184 L 147.11042071420195 25.817512056547173 L 151.8562639822799 24.1258496629286 L 156.7384118626481 22.580366364824954 L 161.74568526281723 21.18724534478389 L 166.8657596572038 19.952607568265137 L 172.08509956619218 18.882461534950664 L 177.38889645648945 17.982646321456173 L 182.76101147827637 17.258767546724187 L 188.18392465389687 16.716125931948 L 193.63869234525816 16.359638183232505 L 199.1049150509614 16.193750000000023 L 204.5607178168319 16.22234110827418 L 209.98274578138899 16.448622338485734 L 215.34617761613669 16.875024915561937 L 220.62475985324997 17.503082308096964 L 225.7908653125959 18.333305196659467 L 230.81557903656775 19.365050371978384 L 235.66881530342172 20.59638466479032 L 240.31946940393 22.02394534301294 L 244.7356079160085 23.64279879041601 L 248.88470117873374 25.44629970489592 L 252.73390152930546 27.425953523300734 L 256.25037059977 29.57128529121161 L 259.4016585477554 31.869718745681325 L 262.15613748774575 34.30646995936729 L 264.4834905652094 36.86446049513643 L 266.35525704261687 39.52425562633357 L 267.74543241119085 42.264033770022536 L 268.6311208734479 45.05959383365004 L 268.9932355305484 47.88440765855262 L 268.8172392319169 50.709725118461506 L 268.09391628769663 53.504739652197316 L 266.82016210459136 56.2368220238954 L 264.99977429621697 58.871829850455214 L 262.64422497544797 61.374499846251496 L 259.77338982093676 63.70892873502251 L 256.41620521918645 65.83914728934579 L 252.61122045388888 67.72978989865192 L 248.4070077295591 69.34685935906552 L 243.862389014457 70.65858315197963 L 239.0464355652914 71.63635327742043 L 234.0381939132144 72.25573670081803 L 228.92609147093174 72.49753766005139 L 223.8069762487831 72.34888651296987 L 218.7847489792741 71.8043225949794 L 213.9685528155978 70.86683089007792 L 209.47049626980953 69.54878447915439 L 205.4028997413557 67.87273710848794 L 201.87507532758218 65.87200333499482 L 198.9896739297833 63.590958202003264 L 196.83866306884812 61.08498506515352 L 195.49903307667796 58.41999993507471 L 195.0283677719703 55.67148454924478 L 195.4604571480483 52.922969409934524 L 196.8011721122637 50.263923304645004 L 199.02486226138166 47.78702833754471 L 202.07157354345378 45.584849997037765 L 205.84540905551515 43.74595063173189 L 210.21436794729445 42.35054169301975 L 215.01198857619616 41.46582422157098 L 220.0410864728901 41.14122628038831 L 225.079809253977 41.40380710433675 L 229.89012411104417 42.2541559697882 L 234.22870539852275 43.66316301306716 L 237.8599994575878 45.570071815938775 L 240.57101456893812 47.8822306956325 L 242.1871246662885 50.47693174258518 L 242.58790168121206 53.20565429877652 L 241.72172629784077 55.90090457772291 L 239.61770175967484 58.38566007749512 L 236.3932492645108 60.48518552421859 L 232.25574183986416 62.04069221085686 L 227.49668534749046 62.92397963671425 L 222.4773282065778 63.05185340500003 L 217.60521521507007 62.39879577157251 L 213.30211700528892 61.006129165935306 L 209.96495446440917 58.98582738130628 L 207.92273475287146 56.51727498230869 L 207.39398483248655 53.83573746779675 L 208.4504717984542 51.21215287689745 L 210.99378429483184 48.92511264561929 L 214.75116806841925 47.22749310974609 L 219.295403831159 46.311906669844035 L 224.09019951509651 46.280556955828814 L 228.5576855362997 47.12564879102686 L 232.15897481125597 48.72566440539546 L 234.47393056992019 50.86028572390762 L 235.26419578056442 53.242802102299606 L 234.5056703474778 55.56447955539943 L 232.3831068499624 57.54203967451147 L 229.24863340286046 58.95843055243648 L 225.55476342248315 59.68896929254797 L 221.77778692027368 59.70903655506808 L 218.34778328561177 59.084278894470316 L 215.59737108576877 57.94808165422489 L 213.7348195434687 56.472897405073496 L 212.84077527386077 54.84176451832778 L 212.88338436637505 53.22466408311644 L 213.74463014579274 51.76213848731919 L 215.25090386636765 50.55657867562073 L 217.20234551750448 49.67018400503622 L 219.3974857748649 49.12788656667024 L 221.65158059776388 48.92338329374701 L 223.80844762804952 49.026631136852075 L 225.746514906376 49.39154292607904 L 227.38024276564852 49.96303657623139 L 228.65819980914344 50.68295786512036 L 229.55898676172163 51.49468263604663 L 230.08600788231513 52.34640302005414 L 230.26185893355503 53.193224896538624 L 230.12287682672982 53.998267107531774 L 229.71420182165824 54.73297409081678 L 229.0855474491948 55.37684742036856 L 228.28775655875128 55.916779774875835 L 227.37013998074505 56.34614540053673 L 226.37854122624276 56.66376975559487 L 225.35404006363999 56.87287115593233 L 224.33219384796075 56.98004077180451 L 223.3427131400431 56.994305083284786 L 222.40947342905156 56.92629702946135 L 221.55077458635654 56.7875483179927 L 220.77977177328486 56.589905214512925 L 220.10501431550475 56.345063034142555 L 219.53104149130604 56.06420993083384 L 219.05899561311512 55.757767884977426 L 218.68722286147118 55.43521755034408 L 218.4118409180435 55.10499343644679 L 218.22725953978136 54.77443644399784 L 218.126645909876 54.449791779961544 L 218.10233103394103 54.13624155576832 L 218.14615678685402 53.837962769746895 L 218.24976562782942 53.55820278700989 L 218.40483665293408 53.29936578479797 L 218.60327269626438 53.063104882725725 L 218.83734375690366 52.85041579939397 L 219.0997922333637 52.66172885791096 L 219.38390538673886 52.496997001809774 L 219.68356020713057 52.355778185457524 L 219.9932454882339 52.237311079534294 L 220.30806547181152 52.14058349523094 L 220.623728944928 52.06439329426365 L 220.936527186348 52.00740182953484 L 221.24330368451652 51.96818016661177 L 221.54141810176145 51.94524848150084 L 221.82870654650034 51.937109126597306 L 222.10343984215294 51.94227391400679 L 222.3642811501408 51.95928619214621 L 222.61024401467387 51.98673829485884 L 222.84065164739394 52.02328492824421 L 223.05509805781406 52.06765303397782 L 223.25341145771037 52.118648633093045 L 223.4356202207542 52.175161114221225 L 223.6019215591795 52.23616538763491 L 223.75265298370934 52.300722283022935 L 223.88826653801632 52.36797752617167 L 224.0093057416076 52.43715958865141 L 224.11638513242306 52.50757666591906 L 224.21017227011498 52.57861300338669 L 224.29137204073513 52.649724757222714 L 224.3607130914672 52.72043554703825 L 224.4189362184477 52.79033183114964 L 224.46678453020206 52.85905821169433 L 224.5049952125922 52.926312756354776 L 224.53429272742673 52.99184240561709 L 224.55538328520814 53.05543851914089 L 224.56895044220622 53.11693260171583 L 224.5756516826171 53.17619223820472 L 224.5761158575627 53.233117257595865 L 224.5709413637709 53.28763613860269 L 224.56069495569776 53.33970266295336 L 224.54591109542002 53.38929281742787 L 224.52709175470102 53.4364019416559 L 224.50470659312373 53.48104211553442 L 224.4791934450352 53.523239777726076 L 224.45095905622367 53.56303356493703 L 224.42038001874604 53.60047236043903 L 224.3878038591484 53.63561353950723 L 224.35355024149302 53.668521399007346 L 224.31791225215196 53.69926575821725 L 224.28115773828563 53.72792071805094 L 224.24353067633112 53.75456356611204 L 224.20525255072147 53.779273815404 L 224.16652372648468 53.8021323650226 L 224.12752480237035 53.82322077172884 L 224.08841793376254 53.84262062191988 L 224.04934811689884 53.86041299416348 L 224.01044442786045 53.87667800312056 L 223.97182121146585 53.89149441633987 L 223.93357921661618 53.90493933605654 L 223.89580667583706 53.91708793875651 L 223.858580327765 53.928013265874 L 223.8219663821583 53.937786059568026 L 223.7860214276975 53.94647463806959 L 223.75079328339606 53.95414480560706 L 223.7163217948869 53.960859792397 L 223.6826395771987 53.96668022063645 L 223.64977270590416 53.97166409284682 L 223.6177413587189 53.97586679930254 L 223.5865604097692 53.97934114162848 L 223.55623997883575 53.98213736997266 L 223.5267859379287 53.984303231454334 L 223.4982003775637 53.9858840278543 L 223.47048203509456 53.98692268075757 L 223.4436266874222 53.98745980257681 L 223.4176275103458 53.987533772083225 L 223.39247540675342 53.98718081324958 L 223.36815930577217 53.98643507636888 L 223.34466643491015 53.98532872055594 L 223.32198256713227 53.983891996865566 L 223.30009224471644 53.98215333137546 L 223.27897898164017 53.980139407681435 L 223.25862544615035 53.977875248343224 L 223.2390136250736 53.975384294895804 L 223.22012497132866 53.97268848611259 L 223.2019405360115 53.96980833426568 L 223.18444108633338 53.96676299918283 L 223.16760721060623 53.96357035994609 L 223.1514194113877 53.96024708411775 L 223.13585818781883 53.95680869441409 L 223.12090410811263 53.95326963277631 L 223.1065378730812 53.94964332181479 L 223.09274037152173 53.94594222362335 L 223.07949272821855 53.94217789597957 L 223.06677634525988 53.93836104596147 L 223.0545729373113 53.93450158102425 L 223.04286456143737 53.93060865759119 L 223.03163364201313 53.9266907272208 L 223.0208629912231 53.92275558041911 L 223.01053582560297 53.91881038817135 L 223.0006357790404 53.914861741270755 L 222.99114691261545 53.91091568752475 L 222.98205372162704 53.9069777669211 L 222.9733411401225 53.90305304483692 L 222.96499454321685 53.89914614337326 L 222.9569997474641 53.8952612708986 L 222.9493430095172 53.89140224988279 L 222.94201102329205 53.88757254310164 L 222.93499091582996 53.88377527829107 L 222.9282702420349 53.880013271327584 L 222.9218369784436 53.876289048009625 L 222.91567951617222 53.87260486451183 L 222.90978665316794 53.86896272658245 L 222.90414758588093 53.86536440755046 L 222.89875190046038 53.86181146520772 L 222.89358956356725 53.85830525762765 L 222.88865091288633 53.8548469579799 L 222.88392664741104 53.85143756839818 L 222.87940781756672 53.84807793295454 L 222.8750858152299 53.84476874979276 L 222.87095236369507 53.841510582469084 L 222.86699950763318 53.83830387054758 L 222.86321960308234 53.83514893949413 L 222.85960530750398 53.83204600991138 L 222.8561495699352 53.828995206154275 L 222.8528456212624 53.82599656436395 L 222.84968696463844 53.823050039955916 L 222.8466673660625 53.820155514595854 L 222.84378084513773 53.81731280269523 L 222.84102166602008 53.814521657456595 L 222.83838432856942 53.81178177649704 L 222.83586355971082 53.80909280707644 L 222.8334543050133 53.806454350955704 L 222.831151720491 53.80386596890878 L 222.82895116462984 53.80132718491052 L 222.82684819064255 53.798837490021725 L 222.82483853895275 53.79639634599067 L 222.8229181299081 53.794003188590096 L 222.82108305672187 53.79165743070649 L 222.81932957864123 53.789358465198575 L 222.81765411433983 53.78710566753992 L 222.816053235532 53.78489839826037 L 222.81452366080507 53.78273600519938 L 222.8130622496661 53.780617825584244 L 222.81166599679892 53.77854318794502 L 222.81033202652674 53.77651141387696 L 222.80905758747616 53.77452181966129 L 222.80784004743734 53.7725737177536 L 222.80667688841558 53.77066641814929 L 222.80556570186891 53.76879922963448 L 222.8045041841268 53.76697146093028 L 222.80349013198474 53.76518242173805 L 222.80252143846903 53.76343142369237 L 222.8015960887673 53.76171778122844 L 222.8007121563187 53.76004081237008 L 222.79986779905923 53.75839983944351 L 222.7990612558168 53.75679418972297 L 222.7982908428509 53.75522319601251 L 222.79755495053212 53.75368619716883 L 222.79685204015658 53.752182538569656 L 222.7961806408903 53.75071157253123 L 222.79553934683906 53.74927265867922 L 222.79492681423906 53.74786516427602 L 222.794341758764 53.74648846450833 L 222.79378295294396 53.745141942737376 L 222.79324922369238 53.74382499071507 L 222.7927394499364 53.74253700876869 L 222.79225256034704 53.741277405956566 L 222.79178753116528 53.74004560019665 L 222.79134338411993 53.73884101837089 L 222.79091918443416 53.737663096406635 L 222.79051403891683 53.73651127933746 L 222.7901270941354 53.73538502134474 L 222.78975753466702 53.734283785781884 L 222.78940458142472 53.73320704518261 L 222.7890674900557 53.732154281254424 L 222.78874554940842 53.73112498485895 L 222.78843808006633 53.73011865598028 L 222.78814443294476 53.72913480368183 L 222.7878639879487 53.7281729460538 L 222.78759615268913 53.727232610151134 L 222.78734036125505 53.72631333192362 L 222.78709607303895 53.7254146561385 L 222.78686277161395 53.72453613629651 L 222.78663996365952 53.72367733454223 L 222.78642717793477 53.722837821569016 L 222.78622396429634 53.72201717651936 L 222.7860298927597 53.72121498688122 L 222.78584455260147 53.72043084838083 L 222.78566755150155 53.719664364872386 L 222.78549851472272 53.718915148224994 L 222.78533708432667 53.718182818207595 L 222.78518291842445 53.71746700237196 L 222.78503569046023 53.716767335933895 L 222.78489508852658 53.71608346165371 L 222.78476081471015 53.715415029715274 L 222.78463258446627 53.714761697604786 L 222.7845101260213 53.71412312998899 L 222.78439317980164 53.713498998592996 L 222.78428149788775 53.71288898207857 L 222.78417484349285 53.712292765922115 L 222.7840729904644 53.71171004229333 L 222.78397572280812 53.711140509934296 L 222.78388283423286 53.71058387403909 L 222.78379412771594 53.71003984613441 L 222.78370941508788 53.70950814396093 L 222.78362851663553 53.7089884913556 L 222.7835512607229 53.70848061813524 L 222.78347748342904 53.70798425998095 L 222.78340702820194 53.7074991583242 L 222.783339745528 53.70702506023383 L 222.78327549261613 53.70656171830467 L 222.7832141330962 53.70610889054731 L 222.7831555367307 53.70566634027969 L 222.7830995791395 53.7052338360198 L 222.78304614153674 53.704811151380085 L 222.7829951104798 53.70439806496347 L 222.7829463776291 53.703994360260765 L 222.78289983951908 53.703599825549816 L 222.782855397339 53.70321425379615 L 222.78281295672406 53.70283744255525 L 222.7827724275553 53.70246919387665 L 222.7827337237691 53.702109314209196 L 222.78269676317464 53.70175761430846 L 222.78266146727998 53.7014139091454 L 222.78262776112572 53.70107801781677 L 222.78259557312614 53.70074976345711 L 222.78256483491754 53.7004289731525 L 222.78253548121333 53.70011547785552 L 222.78250744966567 53.69980911230235 L 222.7824806807333 53.6995097149308 L 222.7824551175553 53.699217127800495 L 222.78243070583042 53.698931196514195 L 222.7824073937021 53.69865177014077 L 222.78238513164837 53.698378701139774 L 222.78236387237686 53.698111845287315 L 222.7823435707245 53.69785106160356 L 222.78232418356157 53.69759621228161 L 222.78230566970043 53.69734716261789 L 222.78228798980797 53.69710378094382 L 222.7822711063221 53.696865938558915 L 222.78225498337224 53.69663350966542 L 222.78223958670296 53.69640637130408 L 222.78222488360151 53.696184403291284 L 222.78221084282816 53.69596748815766 L 222.78219743455006 53.695755511087754 L 222.7821846302778 53.695548359861164 L 222.78217240280506 53.69534592479471 L 222.7821607261507 53.69514809868599 L 222.78214957550364 53.694954776758124 L 222.78213892717034 53.69476585660564 L 222.78212875852418 53.69458123814135 L 222.78211904795776 53.694400823544754 L 222.78210977483678 53.694224517211126 L 222.78210091945627 53.69405222570208 L 222.7820924629988 53.69388385769682 L 222.7820843874945 53.69371932394483 L 222.78207667578283 53.693558537219275 L 222.78206931147622 53.69340141227164 L 222.7820622789252 53.693247865787185 L 222.7820555631852 53.69309781634158 L 222.78204914998483 53.692951184358236 L 222.78204302569546 53.69280789206675 L 222.78203717730236 53.69266786346225 L 222.78203159237705 53.692531024265605 L 222.78202625905087 53.6923973018844 L 222.78202116598982 53.69226662537503 L 222.78201630237032 53.69213892540543 L 222.78201165785646 53.692014134218624 L 222.78200722257787 53.691892185597226 L 222.7820029871088 53.69177301482864 L 222.78199894244807 53.69165655867096 L 222.78199507999997 53.6915427553198 L 222.78199139155606 53.691431544375774 L 222.78198786927754 53.69132286681264 L 222.78198450567888 53.69121666494621 L 222.7819812936116 53.69111288240404 L 222.78197822624935 53.69101146409568 L 222.78197529707325 53.69091235618359 L 222.781972499858 53.690815506054804 L 222.7819698286589 53.69072086229315 L 222.7819672777989 53.69062837465208 L 222.7819648418568 53.690537994028205 L 222.7819625156555 53.690449672435335 L 222.7819602942512 53.69036336297913 L 222.78195817292283 53.69027901983233 L 222.78195614716194 53.69019659821052 L 222.7819542126632 53.69011605434852 L 222.78195236531525 53.69003734547712 L 222.78195060119188 53.68996042980058 L 222.78194891654385 53.68988526647453 L 222.78194730779074 53.68981181558422 L 222.78194577151345 53.689740038123546 L 222.7819443044469 53.68966989597433 L 222.78194290347315 53.68960135188624 L 222.7819415656147 53.68953436945682 L 222.78194028802807 53.68946891311259 L 222.78193906799808 53.68940494808987 L 222.78193790293173 53.68934244041654 L 222.78193679035283 53.689281356894014 L 222.78193572789687 53.6892216650796 L 222.78193471330567 53.68916333326942 L 222.781933744423 53.68910633048151 L 222.78193281918954 53.68905062643938 L 222.7819319356389 53.68899619155607 L 222.78193109189328 53.68894299691843 L 222.78193028615937 53.68889101427172 L 222.78192951672474 53.68884021600468 L 222.78192878195404 53.68879057513496 L 222.78192808028567 53.68874206529466 L 222.7819274102283 53.688694660716465 L 222.78192677035784 53.688648336219956" stroke-opacity="0.9" stroke-miterlimit="10" stroke-width="2"/></g><g><path fill="none" stroke="none"/><path fill="none" stroke="rgb(102,180,211)" paint-order="fill stroke markers" d=" M 737.5552705413586 53.69224600524558 L 737.5552705343428 53.69237621573129 L 737.5552705269961 53.69250946227996 L 737.5552705193029 53.692645815682226 L 737.5552705112464 53.69278534837929 L 737.5552705028101 53.692928134501386 L 737.5552704939757 53.69307424990728 L 737.5552704847246 53.693223772224485 L 737.5552704750371 53.69337678089053 L 737.5552704648921 53.69353335719509 L 737.5552704542692 53.69369358432331 L 737.5552704431448 53.693857547399915 L 737.5552704314955 53.69402533353443 L 737.5552704192967 53.6941970318675 L 737.5552704065224 53.69437273361817 L 737.5552703931457 53.69455253213249 L 737.5552703791377 53.694736522932914 L 737.5552703644687 53.694924803769254 L 737.5552703491078 53.69511747467047 L 737.5552703330222 53.695314637997825 L 737.5552703161782 53.69551639849931 L 737.555270298539 53.69572286336535 L 737.5552702800676 53.69593414228558 L 737.5552702607249 53.696150347507285 L 737.5552702404698 53.69637159389498 L 737.555270219259 53.696597998991365 L 737.5552701970478 53.696829683079926 L 737.5552701737884 53.697066769248636 L 737.5552701494316 53.697309383455575 L 737.5552701239262 53.69755765459564 L 737.5552700972173 53.697811714569156 L 737.5552700692483 53.698071698351924 L 737.5552700399599 53.69833774406692 L 737.5552700092899 53.6986099930576 L 737.5552699771727 53.69888858996319 L 737.5552699435405 53.69917368279533 L 737.5552699083214 53.69946542301676 L 737.5552698714409 53.69976396562191 L 737.5552698328206 53.70006946921902 L 737.5552697923781 53.70038209611465 L 737.555269750028 53.700702012399745 L 737.5552697056798 53.70102938803791 L 737.5552696592392 53.70136439695571 L 737.5552696106079 53.70170721713515 L 737.5552695596823 53.70205803070809 L 737.5552695063541 53.70241702405309 L 737.5552694505102 53.702784387894496 L 737.5552693920317 53.70316031740359 L 737.5552693307943 53.70354501230244 L 737.5552692666679 53.70393867696998 L 737.5552691995163 53.70434152055046 L 737.5552691291966 53.704753757064736 L 737.5552690555596 53.70517560552386 L 737.5552689784486 53.70560729004555 L 737.5552688976995 53.70604903997304 L 737.5552688131413 53.706501089997204 L 737.5552687245936 53.70696368028101 L 737.5552686318688 53.70743705658725 L 737.5552685347693 53.707921470409076 L 737.5552684330892 53.70841717910352 L 737.5552683266117 53.70892444602839 L 737.5552682151113 53.70944354068203 L 737.5552680983506 53.709974738846626 L 737.5552679760815 53.71051832273457 L 737.555267848044 53.711074581138604 L 737.5552677139663 53.711643809584984 L 737.555267573563 53.71222631049076 L 737.5552674265361 53.71282239332422 L 737.555267272573 53.71343237476944 L 737.5552671113464 53.71405657889443 L 737.5552669425133 53.714695337323434 L 737.5552667657155 53.71534898941297 L 737.5552665805769 53.716017882432226 L 737.5552663867043 53.71670237174749 L 737.555266183685 53.71740282101101 L 737.5552659710881 53.71811960235408 L 737.5552657484616 53.71885309658492 L 737.5552655153319 53.71960369339084 L 737.5552652712045 53.72037179154532 L 737.5552650155596 53.72115779911988 L 737.5552647478542 53.721962133700885 L 737.5552644675192 53.72278522261132 L 737.5552641739589 53.72362750313795 L 737.5552638665495 53.724489422763526 L 737.5552635446375 53.72537143940457 L 737.5552632075387 53.72627402165463 L 737.5552628545367 53.727197649033315 L 737.555262484881 53.72814281224086 L 737.5552620977862 53.729110013419074 L 737.5552616924294 53.730099766417936 L 737.5552612679494 53.731112597068574 L 737.5552608234439 53.73214904346284 L 737.5552603579677 53.73320965623887 L 737.5552598705319 53.73429499887396 L 737.5552593601005 53.73540564798361 L 737.5552588255885 53.73654219362808 L 737.55525826586 53.737705239625825 L 737.5552576797252 53.73889540387424 L 737.5552570659383 53.74011331867794 L 737.5552564231953 53.74135963108478 L 737.5552557501294 53.742635003229424 L 737.5552550453106 53.74394011268538 L 737.5552543072404 53.745275652824745 L 737.5552535343506 53.746642333186685 L 737.5552527249984 53.74804087985436 L 737.5552518774634 53.74947203584071 L 737.5552509899444 53.75093656148317 L 737.5552500605552 53.75243523484761 L 737.5552490873204 53.753968852141696 L 737.5552480681713 53.75553822813794 L 737.555247000942 53.75714419660653 L 737.5552458833643 53.758787610758276 L 737.5552447130626 53.760469343697906 L 737.5552434875501 53.76219028888798 L 737.5552422042217 53.76395136062345 L 737.5552408603501 53.7657534945175 L 737.5552394530787 53.76759764799857 L 737.5552379794167 53.76948480081896 L 737.555236436232 53.77141595557546 L 737.555234820245 53.773392138241945 L 737.5552331280207 53.77541439871436 L 737.5552313559629 53.777483811368626 L 737.5552295003047 53.77960147563135 L 737.5552275571026 53.781768516564 L 737.5552255222267 53.78398608546047 L 737.5552233913513 53.78625536045888 L 737.5552211599484 53.788577547167364 L 737.5552188232748 53.79095387930468 L 737.5552163763643 53.79338561935555 L 737.5552138140167 53.79587405924144 L 737.5552111307854 53.7984205210069 L 737.555208320968 53.80102635752192 L 737.5552053785921 53.80369295320068 L 737.5552022974045 53.806421724736964 L 737.5551990708564 53.80921412185691 L 737.5551956920897 53.81207162808923 L 737.5551921539238 53.81499576155318 L 737.5551884488384 53.817988075765214 L 737.555184568959 53.821050160464296 L 737.555180506039 53.82418364245652 L 737.5551762514438 53.82739018647925 L 737.55517179613 53.830671496085586 L 737.5551671306289 53.8340293145495 L 737.5551622450241 53.83746542579178 L 737.5551571289323 53.84098165532794 L 737.5551517714796 53.844579871237926 L 737.5551461612793 53.84826198515864 L 737.5551402864078 53.85202995329939 L 737.5551341343782 53.85588577748129 L 737.555127692116 53.85983150620066 L 737.5551209459281 53.86386923571732 L 737.5551138814767 53.86800111116821 L 737.5551064837473 53.87222932770706 L 737.5550987370161 53.876556131670526 L 737.5550906248193 53.88098382177165 L 737.555082129915 53.88551475032091 L 737.5550732342481 53.89015132447602 L 737.5550639189121 53.894896007520686 L 737.5550541641085 53.89975132017318 L 737.5550439491042 53.904719841925555 L 737.5550332521891 53.90980421241392 L 737.5550220506275 53.91500713282073 L 737.5550103206119 53.92033136730987 L 737.554998037212 53.92577974449492 L 737.5549851743208 53.93135515894198 L 737.5549717045994 53.93706057270737 L 737.5549575994196 53.94289901691104 L 737.554942828803 53.948873593346974 L 737.554927361356 53.954987476130896 L 737.5549111642044 53.961243913386454 L 737.5548942029234 53.96764622897069 L 737.5548764414634 53.974197824239866 L 737.5548578420751 53.98090217985623 L 737.5548383652274 53.98776285763708 L 737.5548179695245 53.99478350244689 L 737.5547966116185 54.001967844133475 L 737.5547742461147 54.009319699509376 L 737.554750825479 54.016842974379415 L 737.5547262999332 54.02454166561543 L 737.554700617351 54.03241986327944 L 737.554673723148 54.04048175279638 L 737.5546455601632 54.04873161717734 L 737.5546160685399 54.05717383929462 L 737.554585185597 54.06581290420996 L 737.5545528456976 54.07465340155696 L 737.5545189801062 54.08370002797892 L 737.5544835168462 54.092957589623694 L 737.554446380545 54.10243100469654 L 737.5544074922736 54.1121253060725 L 737.5543667693805 54.122045643969784 L 737.554324125314 54.13219728868529 L 737.5542794694393 54.14258563339385 L 737.5542327068467 54.15321619701305 L 737.5541837381479 54.16409462713429 L 737.5541324592659 54.175226703022645 L 737.5540787612151 54.1866183386862 L 737.5540225298662 54.19827558601733 L 737.5539636457074 54.21020463800676 L 737.5539019835883 54.222411832032805 L 737.5538374124535 54.23490365322718 L 737.5537697950663 54.24768673791911 L 737.5536989877146 54.26076787715985 L 737.5536248399071 54.274154020329206 L 737.5535471940525 54.28785227882602 L 737.5534658851252 54.30186992984491 L 737.5533807403142 54.31621442024061 L 737.553291578656 54.330893370482556 L 737.5531982106497 54.34591457870144 L 737.5531004378549 54.36128602483029 L 737.5529980524691 54.37701587484159 L 737.552890836887 54.39311248508338 L 737.5527785632369 54.40958440671619 L 737.5526609928977 54.42644039025339 L 737.552537875991 54.44368939020711 L 737.5524089508492 54.46134056984246 L 737.5522739434623 54.47940330604243 L 737.5521325668913 54.49788719428591 L 737.551984520662 54.51680205374171 L 737.5518294901258 54.53615793248113 L 737.5516671457883 54.555965112811805 L 737.5514971426128 54.576234116735634 L 737.5513191192842 54.5969757115339 L 737.5511326974431 54.618200915482106 L 737.5509374808798 54.63992100369788 L 737.5507330546945 54.66214751412494 L 737.5505189844132 54.68489225365619 L 737.5502948150661 54.70816730439921 L 737.5500600702201 54.73198503008757 L 737.5498142509657 54.75635808264104 L 737.5495568348588 54.7812994088784 L 737.5492872748075 54.80682225738633 L 737.5490049979119 54.83294018554781 L 737.5487094042453 54.85966706673406 L 737.5483998655795 54.887017097663346 L 737.5480757240505 54.91500480593095 L 737.54773629076 54.94364505771375 L 737.54738084431 54.97295306565417 L 737.5470086292737 55.00294439692658 L 737.5466188545852 55.03363498149153 L 737.5462106918624 55.065041120541196 L 737.5457832736447 55.09717949514075 L 737.5453356915507 55.130067175070536 L 737.5448669943469 55.16372162787289 L 737.5443761859274 55.19816072810909 L 737.5438622231966 55.23340276683052 L 737.5433240138532 55.26946646126967 L 737.5427604140687 55.30637096475547 L 737.5421702260574 55.34413587685816 L 737.5415521955306 55.38278125376917 L 737.5409050090327 55.42232761892137 L 737.5402272911499 55.46279597385467 L 737.539517601587 55.504207809333195 L 737.5387744321083 55.546585116719484 L 737.5379962033321 55.589950399611325 L 737.5371812613769 55.634326685747624 L 737.5363278743446 55.679737539189034 L 737.5354342286446 55.726207072779715 L 737.5344984251369 55.773759960896655 L 737.5335184751013 55.82242145249279 L 737.5324922960092 55.87221738444077 L 737.5314177071014 55.92317419518392 L 737.5302924247544 55.97531893870166 L 737.5291140576307 56.028679298795765 L 737.527880101597 56.08328360370538 L 737.5265879344065 56.139160841057674 L 737.5252348101285 56.196340673161416 L 737.523817853315 56.2548534526519 L 737.5223340528944 56.314730238493894 L 737.5207802557754 56.3760028123514 L 737.5191531601506 56.43870369533201 L 737.5174493084833 56.502866165113716 L 737.5156650801653 56.56852427346334 L 737.5137966838276 56.6357128641543 L 737.5118401492896 56.70446759129294 L 737.5097913191273 56.774824938062096 L 737.5076458398471 56.84682223589084 L 737.5053991526393 56.9204976840598 L 737.5030464837021 56.995890369750924 L 737.5005828341029 57.07304028855188 L 737.4980029691685 57.151988365424046 L 737.4953014073692 57.23277647614421 L 737.4924724086866 57.315447469229895 L 737.4895099624252 57.400045188358604 L 737.4864077744578 57.48661449529078 L 737.4831592538653 57.57520129330737 L 737.4797574989491 57.66585255117221 L 737.4761952825856 57.75861632763025 L 737.4724650368896 57.853541796452134 L 737.4685588371578 57.950679272036325 L 737.4644683850547 58.0500802355798 L 737.460184991008 58.15179736182856 L 737.4556995557771 58.25588454641934 L 737.4510025511509 58.362396933823845 L 737.4460839997414 58.471390945907274 L 737.4409334538238 58.582924311112606 L 737.4355399731844 58.697056094282345 L 737.4298921019238 58.81384672712974 L 737.4239778441708 58.9333580393712 L 737.4177846386565 59.05565329053164 L 737.4112993320894 59.180797202434945 L 737.4045081512832 59.30885599239144 L 737.3973966739727 59.43989740709401 L 737.3899497982597 59.57399075723515 L 737.3821517106242 59.7112069528564 L 737.373985852432 59.851618539442285 L 737.3654348848734 59.99529973477004 L 737.3564806522513 60.14232646652698 L 737.347104143553 60.29277641070641 L 737.3372854522129 60.44672903079393 L 737.3270037339926 60.60426561775404 L 737.3162371628864 60.76546933082878 L 737.3049628849558 60.930425239157586 L 737.2931569700067 61.099220364229325 L 737.2807943609987 61.27194372317501 L 737.2678488210872 61.448686372911055 L 737.2542928781877 61.62954145514098 L 737.2400977669452 61.81460424222362 L 737.225233367988 62.00397218391478 L 737.2096681443463 62.19774495498936 L 737.1933690748929 62.396024503748464 L 737.1763015846811 62.59891510141736 L 737.1584294720262 62.806523392436645 L 737.1397148321857 63.018958445649986 L 737.1201179774812 63.236331806389416 L 737.0995973536935 63.45875754945757 L 737.0781094525662 63.686352333005914 L 737.0556087202326 63.919235453304964 L 737.0320474613848 64.1575289004021 L 737.007375738983 64.4013574146592 L 736.9815412693074 64.65084854416162 L 736.9544893121358 64.90613270298621 L 736.9261625558258 65.1673432303154 L 736.8965009970689 65.43461645037937 L 736.8654418150747 65.70809173320777 L 736.8329192399333 65.98791155616709 L 736.7988644148884 66.27422156625795 L 736.7632052522515 66.56717064314148 L 736.7258662826641 66.86691096286123 L 736.6867684974125 67.17359806222115 L 736.6458291834822 67.4873909037768 L 736.602961751026 67.80845194139073 L 736.5580755529065 68.13694718629813 L 736.5110756959598 68.47304627362237 L 736.4618628436144 68.81692252927425 L 736.4103330094781 69.1687530371606 L 736.3563773414992 69.52871870662196 L 736.2998818962822 69.8970043400098 L 736.2407274031275 70.27379870030532 L 736.1787890173507 70.65929457867327 L 736.1139360624054 71.05368886183274 L 736.0460317603331 71.45718259911786 L 735.9749329500339 71.86998106908817 L 735.9004897928296 72.29229384553699 L 735.8225454647848 72.72433486273249 L 735.7409358352156 73.16632247971171 L 735.6554891308087 73.61847954343236 L 735.5660255847381 74.08103345057137 L 735.4723570701603 74.55421620774052 L 735.374286717436 75.0382644898715 L 735.2716085144091 75.53341969650205 L 735.1641068890501 76.03992800567283 L 735.0515562737485 76.55804042512247 L 734.9337206505179 77.08801284044225 L 734.8103530763506 77.63010605982606 L 734.681195187942 78.18458585502285 L 734.5459766849772 78.751722998068 L 734.4044147911525 79.33179329333825 L 734.2562136920842 79.9250776044397 L 734.1010639492324 80.53186187540214 L 733.9386418889521 81.15243714561248 L 733.7686089657593 81.78709955787957 L 733.5906110988864 82.4361503589765 L 733.4042779811832 83.09989589195982 L 733.2092223594018 83.77864757951352 L 733.0050392848964 84.47272189751232 L 732.7913053337558 85.18244033794102 L 732.5675777953763 85.90812936024514 L 732.3333938284848 86.65012033012371 L 732.0882695836137 87.40874944470613 L 731.8316992910403 88.1843576429811 L 731.5631543132027 88.97729050026913 L 731.282082160629 89.78789810544669 L 730.9879054704245 90.61653491954402 L 730.6800209463997 91.46355961424592 L 730.357798259944 92.32933488872743 L 730.0205789108072 93.2142272631535 L 729.6676750469878 94.11860684706375 L 729.2983682430058 95.04284708074749 L 728.9119082358995 95.98732444759582 L 728.5075116183823 96.95241815528846 L 728.0843604886986 97.93850978354226 L 727.641601056829 98.94598289600702 L 727.1783422068454 99.97522261374831 L 726.6936540153586 101.02661514760533 L 726.1865662261914 102.1005472865499 L 725.6560666816088 103.1974058390091 L 725.1010997106566 104.31757702393872 L 724.5205644754376 105.46144580825714 L 723.9133132764169 106.62939518706247 L 723.2781498181932 107.82180540286507 L 722.6138274375178 109.03905309987053 L 721.9190472957519 110.28151040914511 L 721.1924565383929 111.54954396029217 L 720.4326464247977 112.84351381505493 L 719.6381504317678 114.16377231805288 L 718.8074423352716 115.51066285964257 L 717.9389342752336 116.88451854568393 L 717.0309748090469 118.2856607687803 L 716.0818469602682 119.7143976753552 L 715.0897662698198 121.17102252272832 L 714.0528788579809 122.65581192016279 L 712.9692595064881 124.16902394767646 L 711.8369097711952 125.7108961462483 L 710.6537561369738 127.28164337290809 L 709.4176482278651 128.8814555140791 L 708.1263570869378 130.51049505045677 L 706.7775735418575 132.1688944666535 L 705.3689066738582 133.85675349883132 L 703.8978824095956 135.57413621358273 L 702.3619422573009 137.32106791142277 L 700.7584422107195 139.0975318484195 L 699.0846518465105 140.9034657697357 L 697.3377536431362 142.7387582491907 L 695.5148425517407 144.60324482938572 L 693.6129258521389 146.49670395748927 L 691.6289233297966 148.41885271246204 L 689.5596678125598 150.36934232033047 L 687.4019061089073 152.34775345511133 L 685.1523003926181 154.3535913241684 L 682.8074300819667 156.3862805381639 L 680.3637942648415 158.44515976737085 L 677.8178147245501 160.5294761879705 L 675.1658396244218 162.63837972408135 L 672.4041479126861 164.7709170936896 L 669.5289545123978 166.9260256693944 L 666.5364163643542 169.10252716796975 L 663.4226393939621 171.29912118621064 L 660.1836864757688 173.51437860438836 L 656.8155864717901 175.7467348829236 L 653.3143444217701 177.99448328260928 L 649.6759529649567 180.25576804390124 L 645.8964050737716 182.52857756645614 L 641.9717081797396 184.81073763624508 L 637.8978997710727 187.09990475420616 L 633.6710645392052 189.39355962751964 L 629.2873531481663 191.68900089217368 L 624.7430026957456 193.98333914351412 L 620.0343589287509 196.27349135989007 L 615.1579002660342 198.5561758132627 L 610.1102636721585 200.82790756965468 L 604.8882724113109 203.08499469147628 L 599.4889656951387 205.3235352629547 L 593.9096302193152 207.53941536893893 L 588.1478335616224 209.7283081660897 L 582.2014593889558 211.88567419364676 L 576.0687443917287 214.00676307835832 L 569.7483168315616 216.08661679445225 L 563.2392365517933 218.12007464439662 L 556.5410362602588 220.10178012927938 L 549.653763850029 222.02618987851798 L 542.5780254765991 223.88758480686676 L 535.315029059687 225.6800836618617 L 527.8666278248221 227.39765911645608 L 520.2353634449557 229.03415654918018 L 512.4245082861999 230.5833156372316 L 504.4381062055892 232.03879486603878 L 496.28101129367786 233.3941990316307 L 487.95892390233496 234.64310977928938 L 479.4784232499488 235.77911918321712 L 470.84699585430985 236.79586632724175 L 462.07305900976087 237.6870767959603 L 453.1659785020185 238.4466049294506 L 444.13607974366505 239.06847863322864 L 434.9946515180227 239.5469464692203 L 425.7539415412195 239.87652668413966 L 416.4271430938453 240.05205776009115 L 407.02837203650546 240.06875 L 397.57263360928675 239.92223758946824 L 388.0757785245365 239.6086305089348 L 378.5544479957454 239.1245656079188 L 369.02600750219074 238.46725609910303 L 359.5084692679874 237.63453868663964 L 350.0204036329752 236.62491751288138 L 340.5808397081094 235.4376040931938 L 331.2091559353602 234.0725524117939 L 321.9249614062577 232.5304883745224 L 312.7479690279398 230.8129328584438 L 303.69786185397675 228.92221766391543 L 294.79415411196834 226.86149376230819 L 286.05604865329633 224.63473134110947 L 277.5022927149646 222.24671127609707 L 269.1510340120323 219.7030078051492 L 261.01967926546354 217.00996233677176 L 253.12475730906516 214.17464849453418 L 245.48178890684486 211.2048286716648 L 238.10516534657074 208.1089025429664 L 231.00803775641853 204.89584814863133 L 224.20221892125053 201.57515632111546 L 217.69809915714535 198.15675936683468 L 211.50457754307524 194.65095503442473 L 205.62900951455563 191.0683268966711 L 200.07717150449207 187.41966234087684 L 194.85324298115583 183.71586940031543 L 189.95980589258284 179.96789366655253 L 185.3978611911959 176.18663649901535 L 181.16686179216288 172.38287569554916 L 177.2647610232158 168.5671897082018 L 173.68807536043929 164.74988638537582 L 170.43196002048788 160.9409370987899 L 167.49029579967583 157.14991697591705 L 164.85578541744428 153.38595181054097 L 162.52005753704069 149.65767207070428 L 160.47377659925874 145.9731742693792 L 158.70675661357274 142.33998981313266 L 157.20807710136256 138.76506130184882 L 155.9661994734216 135.25472612159172 L 154.96908224300796 131.81470705562873 L 154.20429362024362 128.45010953746282 L 153.65912019736106 125.16542508569552 L 153.32067061085533 121.96454039421593 L 153.1759732500204 118.8507515025197 L 153.21206726608767 115.82678243927458 L 153.41608631733783 112.89480771649497 L 153.77533465891992 110.0564780504142 L 154.2773553482657 107.31294869666272 L 154.90999048530637 104.66490980981081 L 155.66143353930136 102.11261826878763 L 156.52027392984598 99.6559304482249 L 157.47553412801972 97.29433545953853 L 158.51669962474247 95.02698843283198 L 159.63374217775134 92.85274345990914 L 160.8171367971073 90.7701858684429 L 162.05787296298843 88.77766354647298 L 163.34746059011508 86.87331708392554 L 164.67793126200357 85.05510854297214 L 166.04183525692966 83.32084871118616 L 167.43223487756995 81.66822273018798 L 168.84269457929975 80.09481402752726 L 170.26726836949925 78.59812651080182 L 171.70048492328226 77.17560501043462 L 173.13733083101656 75.82465398119854 L 174.57323236092054 74.5426544926392 L 176.00403608681984 73.32697955520354 L 177.42598869762614 72.17500784237643 L 178.83571627190963 71.08413587973374 L 180.23020326861794 70.05178877981524 L 181.60677145396133 69.07542960739923 L 182.9630589550622 68.15256746340282 L 184.29699960338235 67.28076437751423 L 185.60680270534482 66.45764110004671 L 186.89093335404624 65.68088188263152 L 188.1480933745379 64.94823833546039 L 189.3772029758248 64.25753244605232 L 190.57738316544055 63.60665884113254 L 191.747938967122 62.99358636933579 L 192.8883434686323 62.41635907822035 L 193.99822271504968 61.87309665462314 L 195.0773414527274 61.36199439280432 L 196.1255897205107 60.88132275020561 L 197.14297027753653 60.42942654605298 L 198.1295868509165 60.004723853528844 L 199.08563318168225 59.60570463186531 L 200.0113828434399 59.230929140507186 L 200.90717980512045 58.87902617348385 L 201.77342970691907 58.54869114833414 L 202.6105918168906 58.23868408035975 L 203.4191716346197 57.94782746964381 L 204.19971410782912 57.67500412516989 L 204.95279742765354 57.41915494750464 L 205.67902736852108 57.17927668886523 L 206.37903213909158 56.95441970696976 L 207.05345771144357 56.743685726859496 L 207.7029635966356 56.54622562287216 L 208.328219035851 56.36123723112948 L 208.92989957752934 56.18796320126367 L 209.50868401216684 56.025688894637796 L 210.06525163779833 55.8737403350012 L 210.60027983054036 55.73148221635188 L 211.11444189595184 55.59831597174062 L 211.60840517834532 55.47367790583871 L 212.08282940654118 55.35703739328673 L 212.5383652558913 55.247895144142234 L 212.97565310769684 55.14578153713407 L 213.39532198840186 55.05025502090578 L 213.79798867215453 54.96090058297983 L 214.18425693148723 54.87732828579115 L 214.55471692197307 54.799171868814625 L 214.90994468776898 54.72608741554288 L 215.25050177595105 54.65775208384838 L 215.5769349484895 54.59386289808387 L 215.88977598159738 54.53413560113455 L 216.18954154301832 54.47830356452377 L 216.47673313859997 54.426116754595085 L 216.75183712022795 54.37734075273593 L 217.01532474787535 54.33175582757451 L 217.26765229915674 54.28915605706521 L 217.5092612203622 54.24934849837794 L 217.74057831349458 54.21215240351981 L 217.96201595433658 54.17739847864294 L 218.1739723370421 54.14492818502586 L 218.37683174117691 54.114593079758066 L 218.57096481753118 54.086254194206106 L 218.75672888939062 54.059781448392584 L 218.93446826629037 54.03505309947687 L 219.10451456758219 54.01195522258652 L 219.26718705342802 53.99038122231161 L 219.422792961092 53.9702313732364 L 219.57162784463728 53.95141238794875 L 219.71397591635008 53.93383701103161 L 219.85011038840963 53.917423637605225 L 219.98029381349963 53.902095955052744 L 220.10477842322052 53.8877826066246 L 220.22380646330706 53.87441687567849 L 220.33761052479028 53.86193638937192 L 220.44641387036185 53.850282840682326 L 220.55043075530853 53.83940172768732 L 220.64986674248138 53.82924210909155 L 220.7449190108534 53.819756375039844 L 220.83577665729712 53.810900032307416 L 220.92262099128547 53.80263150300652 L 221.0056258222823 53.794911935996 L 221.08495773964475 53.78770503022474 L 221.16077638491095 53.78097686928325 L 221.23323471638994 53.77469576647826 L 221.30247926601135 53.76883211978446 L 221.36865038842532 53.763358276063826 L 221.43188250237588 53.75824840397951 L 221.49230432439515 53.75347837506348 L 221.550039094891 53.74902565242954 L 221.60520479671925 53.7448691866534 L 221.65791436634984 53.740989318369714 L 221.7082758977498 53.73736768716313 L 221.75639283911948 53.733987146355986 L 221.80236418262783 53.73083168331905 L 221.84628464730116 53.72788634495481 L 221.88824485522713 53.725137168023934 L 221.92833150124028 53.72257111400617 L 221.9666275162599 53.720176008205584 L 222.00321222445402 53.717940482828055 L 222.0381614944045 53.71585392377651 L 222.07154788445018 53.71390642092419 L 222.10344078238387 53.71208872164223 L 222.13390653967988 53.71039218737138 L 222.16300860042628 53.708808753040955 L 222.19080762513534 53.70733088915085 L 222.217361609603 53.7059515663438 L 222.2427259989859 53.70466422230598 L 222.26695379726132 53.70346273084522 L 222.29009567223295 53.70234137300409 L 222.3122000562409 53.701294810076064 L 222.33331324273215 53.700318058400086 L 222.35347947884287 53.69940646581745 L 222.3727410541407 53.69855568968248 L 222.3911383856711 53.697761676324916 L 222.40871009944777 53.69702064186933 L 222.42549310852348 53.696329054322064 L 222.44152268777307 53.69568361684307 L 222.456832545517 53.695081252124254 L 222.47145489210897 53.69451908780195 L 222.4854205056083 53.693994442835304 L 222.49875879465247 53.693504814787076 L 222.5114978586426 53.69304786794734 L 222.52366454534976 53.69262142224457 L 222.53528450604693 53.69222344289199 L 222.54638224826752 53.69185203072098 L 222.5569811862874 53.691505413155824 L 222.56710368942487 53.69118193578771 L 222.57677112824774 53.6908800545082 L 222.5860039187757 53.69059832816501 L 222.59482156476054 53.690335411706116 L 222.60324269812537 53.69009004977903 L 222.61128511763988 53.68986107075591 L 222.6189658259063 53.68964738115568 L 222.62630106472693 53.68944796043712 L 222.63330634892284 53.689261856138415 L 222.6399964986688 53.68908817933999 L 222.6463856704081 53.68892610042914 L 222.65248738640815 53.68877484514681 L 222.65831456301504 53.68863369089718 L 222.66387953766275 53.68850196330317 L 222.66919409469125 53.68837903299138 L 222.67426949002424 53.688264312590775 L 222.67911647475657 53.688157253931735 L 222.68374531769777 53.68805734543133 L 222.68816582691804 53.687964109652995 L 222.6923873703392 53.687877101028704 L 222.69641889541268 53.687795903733075 L 222.70026894792437 53.68772012969902 L 222.70394568996434 53.68764941676565 L 222.70745691709809 53.68758342694986 L 222.71081007477434 53.68752184483293 L 222.7140122740029 53.68746437605478 L 222.71707030633434 53.68741074590852 L 222.71999065817295 53.68736069802907 L 222.72277952445134 53.687313993168715 L 222.72544282169585 53.68727040805484 L 222.72798620050872 53.687229734323495 L 222.73041505749353 53.687191777524276 L 222.7327345466481 53.68715635619159 L 222.73494959024845 53.68712330097779 L 222.73706488924665 53.6870924538442 L 222.73908493320377 53.68706366730615 L 222.74101400977855 53.68703680372835 L 222.74285621379204 53.68701173466732 L 222.74461545588613 53.68698834025764 L 222.74629547079496 53.68696650863927 L 222.74789982524578 53.686946135422914 L 222.74943192550617 53.68692712319125 L 222.75089502459278 53.68690938103347 L 222.75229222915763 53.68689282411057 L 222.75362650606525 53.68687737325013 L 222.75490068867524 53.686862954567744 L 222.7561174828431 53.686849499113976 L 222.757279472652 53.686836942544744 L 222.75838912588705 53.686825224813816 L 222.75944879926448 53.68681428988569 L 222.76046074342582 53.686804085467855 L 222.76142710770813 53.686794562760696 L 222.7623499446997 53.686785676224275 L 222.7632312145919 53.686777383360635 L 222.76407278933482 53.68676964451055 L 222.76487645660683 53.68676242266403 L 222.76564392360567 53.68675568328328 L 222.76637682066917 53.68674939413768 L 222.76707670473334 53.686743525149524 L 222.76774506263504 53.68673804825039 L 222.76838331426634 53.68673293724686 L 222.76899281558693 53.68672816769521 L 222.76957486150124 53.686723716784655 L 222.77013068860617 53.686719563228195 L 222.77066147781542 53.6867156871609 L 222.7711683568655 53.68671207004482 L 222.77165240270944 53.6867086945804 L 222.77211464380258 53.686705544623834 L 222.77255606228564 53.6867026051097 L 222.77297759606967 53.686699861979065 L 222.77338014082704 53.68669730211212 L 222.77376455189318 53.6866949132656 L 222.77413164608225 53.68669268401413 L 222.77448220342174 53.68669060369558 L 222.77481696880855 53.686688662360154 L 222.77513665359078 53.68668685072274 L 222.7754419370782 53.68668516011846 L 222.775733467985 53.68668358246143 L 222.77601186580725 53.68668211020582 L 222.77627772213867 53.686680736310024 L 222.7765316019271 53.68667945420282 L 222.77677404467428 53.68667825775191 L 222.77700556558182 53.68667714123481 L 222.77722665664547 53.686676099311256 L 222.77743778770014 53.686675126997756 L 222.77763940741795 53.68667421964378 L 222.77783194426127 53.68667337290944 L 222.77801580739288 53.686672582744876 L 222.77819138754515 53.68667184537068 L 222.7783590578501 53.68667115726001 L 222.77851917463215 53.68667051512165 L 222.778672078165 53.68666991588418 L 222.77881809339456 53.68666935668148 L 222.7789575306294 53.686668834838855 L 222.7790906861999 53.68666834786032 L 222.77921784308793 53.686667893416626 L 222.77933927152804 53.68666746933414 L 222.77945522958157 53.68666707358446 L 222.77956596368506 53.6866667042747 L 222.77967170917378 53.686666359638394 L 222.77977269078184 53.68666603802717 L 222.7798691231196 53.6866657379027 L 222.77996121112974 53.68666545782946 L 222.78004915052276 53.686665196467885 L 222.78013312819277 53.68666495256781 L 222.78021332261463 53.68666472496267 L 222.78028990422328 53.686664512563794 L 222.7803630357758 53.686664314355255 L 222.78043287269725 53.686664129389015 L 222.78049956341113 53.686663956780336 L 222.78056324965448 53.68666379570362 L 222.78062406677938 53.68666364538845 L 222.78068214404036 53.6866635051158 L 222.7807376048691 53.68666337421479 L 222.7807905671369 53.68666325205925 L 222.7808411434049 53.686663138064944 L 222.78088944116354 53.68666303168658 L 222.78093556306078 53.686662932415345 L 222.7809796071204 53.68666283977643 L 222.78102166695015 53.686662753326715 L 222.78106183194086 53.686662672652716 L 222.78110018745627 53.68666259736855 L 222.78113681501452 53.68666252711412 L 222.7811717924613 53.6866624615534 L 222.78120519413542 53.686662400372796 L 222.78123709102667 53.686662343279664 L 222.78126755092677 53.68666229000095 L 222.78129663857337 53.68666224028178 L 222.7813244157877 53.68666219388433 L 222.78135094160592 53.68666215058673 L 222.78137627240457 53.68666211018183 L 222.7814004620204 53.686662072476395 L 222.7814235618648 53.686662037290034 L 222.78144562103313 53.68666200445452 L 222.78146668640878 53.68666197381273 L 222.78148680276323 53.686661945218106 L 222.78150601285083 53.68666191853393 L 222.78152435749985 53.686661893632504 L 222.7815418756993 53.686661870394744 L 222.78155860468158 53.68666184870952 L 222.78157458000183 53.68666182847306 L 222.78158983561337 53.68666180958863 L 222.7816044039399 53.68666179196586 L 222.78161831594437 53.68666177552046 L 222.78163160119493 53.68666176017379 L 222.78164428792752 53.68666174585243 L 222.7816564031061 53.68666173248789 L 222.78166797247988 53.68666172001625 L 222.78167902063802 53.68666170837781 L 222.78168957106192 53.68666169751697 L 222.7816996461751 53.6866616873817 L 222.78170926739094 53.68666167792361 L 222.78171845515806 53.68666166909739 L 222.78172722900388 53.686661660860864 L 222.78173560757608 53.68666165317464 L 222.7817436086822 53.68666164600191 L 222.78175124932764 53.6866616393084 L 222.78175854575156 53.68666163306207 L 222.7817655134616 53.686661627233065 L 222.78177216726678 53.68666162179352 L 222.7817785213089 53.68666161671737 L 222.78178458909264 53.686661611980355 L 222.7817903835144 53.68666160755984 L 222.78179591688942 53.68666160343463 L 222.78180120097826 53.68666159958505 L 222.78180624701156 53.68666159599266 L 222.78181106571407 53.68666159264029 L 222.78181566732732 53.68666158951186 L 222.7818200616315 53.686661586592464 L 222.78182425796612 53.6866615838681 L 222.78182826525003 53.68666158132578 L 222.78183209200017 53.68666157895328 L 222.78183574634988 53.68666157673931 L 222.78183923606602 53.686661574673224 L 222.78184256856554 53.68666157274521 L 222.78184575093127 53.686661570946 L 222.78184878992695 53.68666156926699 L 222.7818516920116 53.68666156770013 L 222.78185446335326 53.68666156623797 L 222.78185710984206 53.6866615648735 L 222.78185963710283 53.68666156360021 L 222.7818620505069 53.686661562411956 L 222.78186435518373 53.68666156130311 L 222.7818665560316 53.686661560268334 L 222.78186865772815 53.686661559302706 L 222.7818706647403 53.686661558401596 L 222.7818725813337 53.68666155756068 L 222.78187441158187 53.68666155677593 L 222.78187615937475 53.68666155604362 L 222.78187782842707 53.686661555360246 L 222.78187942228624 53.68666155472252 L 222.78188094433975 53.6866615541274 L 222.7818823978226 53.68666155357204 L 222.781883785824 53.686661553053796 L 222.78188511129395 53.68666155257017 L 222.7818863770496 53.686661552118835 L 222.78188758578113 53.68666155169768 L 222.7818887400576 53.68666155130464 L 222.78188984233228 53.686661550937885 L 222.7818908949479 53.6866615505956 L 222.7818919001417 53.68666155027623 L 222.78189286005008 53.68666154997817 L 222.78189377671322 53.686661549700005 L 222.78189465207936 53.68666154944046 L 222.781895488009 53.68666154919822 L 222.78189628627885 53.68666154897218 L 222.78189704858548 53.686661548761236 L 222.7818977765491 53.686661548564416 L 222.78189847171694 53.6866615483807 L 222.78189913556648 53.68666154820929 L 222.7818997695086 53.68666154804933 L 222.78190037489077 53.68666154790003 L 222.7819009529996 53.686661547760735 L 222.7819015050638 53.686661547630735 L 222.7819020322567 53.68666154750943 L 222.78190253569883 53.6866615473962 L 222.78190301646015 53.686661547290555 L 222.7819034755625 53.68666154719199 L 222.7819039139816 53.68666154709999 L 222.78190433264933 53.686661547014126 L 222.78190473245547 53.686661546934005 L 222.78190511424975 53.68666154685923 L 222.78190547884367 53.68666154678948 L 222.7819058270121 53.686661546724366 L 222.78190615949507 53.6866615466636 L 222.78190647699918 53.6866615466069 L 222.78190678019928 53.68666154655398 L 222.7819070697398 53.68666154650461 L 222.78190734623607 53.68666154645854 L 222.78190761027582 53.686661546415536 L 222.78190786242018 53.686661546375404 L 222.78190810320507 53.68666154633797 L 222.78190833314227 53.686661546303014 L 222.78190855272047 53.686661546270415 L 222.78190876240635 53.686661546239975 L 222.7819089626456 53.68666154621158 L 222.78190915386375 53.68666154618509 L 222.78190933646727 53.68666154616034 L 222.78190951084423 53.68666154613726 L 222.78190967736526 53.686661546115744 L 222.78190983638427 53.68666154609565 L 222.78190998823928 53.68666154607689 L 222.78191013325298 53.68666154605938 L 222.7819102717336 53.68666154604304 L 222.78191040397547 53.68666154602781 L 222.78191053025967 53.686661546013596 L 222.78191065085457 53.68666154600032 L 222.7819107660165 53.68666154598793 L 222.7819108759902 53.686661545976364 L 222.78191098100947 53.68666154596559 L 222.78191108129744 53.68666154595553 L 222.78191117706731 53.68666154594612 L 222.7819112685226 53.68666154593737 L 222.78191135585772 53.686661545929184 L 222.78191143925824 53.68666154592154 L 222.78191151890144 53.68666154591443 L 222.78191159495663 53.68666154590778 L 222.7819116675854 53.686661545901586 L 222.78191173694213 53.68666154589579 L 222.78191180317427 53.68666154589039 L 222.78191186642255 53.68666154588533 L 222.7819119268214 53.68666154588064 L 222.7819119844992 53.686661545876234 L 222.78191203957851 53.68666154587214 L 222.78191209217644 53.68666154586833 L 222.78191214240476 53.68666154586475 L 222.7819121903702 53.686661545861426 L 222.78191223617475 53.68666154585833 L 222.78191227991573 53.68666154585543 L 222.78191232168612 53.68666154585273 L 222.78191236157468 53.6866615458502 L 222.78191239966623 53.68666154584784 L 222.7819124360417 53.68666154584565 L 222.78191247077837 53.68666154584358 L 222.78191250395014 53.68666154584167 L 222.78191253562744 53.68666154583988 L 222.78191256587766 53.686661545838206 L 222.78191259476503 53.68666154583667 L 222.78191262235103 53.68666154583522 L 222.7819126486942 53.68666154583386 L 222.7819126738506 53.68666154583258 L 222.78191269787365 53.68666154583141 L 222.78191272081443 53.686661545830304 L 222.78191274272172 53.68666154582928 L 222.78191276364203 53.686661545828315 L 222.78191278361984 53.686661545827434 L 222.78191280269763 53.68666154582658 L 222.78191282091595 53.686661545825814 L 222.7819128383135 53.686661545825075 L 222.78191285492727 53.68666154582442 L 222.78191287079255 53.68666154582377 L 222.7819128859431 53.68666154582317 L 222.78191290041107 53.68666154582263 L 222.78191291422726 53.68666154582212 L 222.78191292742102 53.686661545821636 L 222.78191294002036 53.68666154582118 L 222.78191295205207 53.68666154582078 L 222.78191296354177 53.686661545820385 L 222.7819129745138 53.686661545820016 L 222.78191298499155 53.686661545819675 L 222.78191299499727 53.68666154581936 L 222.78191300455222 53.68666154581905 L 222.78191301367667 53.686661545818794 L 222.78191302239009 53.68666154581854 L 222.78191303071094 53.68666154581828 L 222.78191303865694 53.686661545818055 L 222.78191304624494 53.686661545817856 L 222.78191305349108 53.68666154581766 L 222.7819130604108 53.686661545817486 L 222.78191306701876 53.686661545817316 L 222.78191307332904 53.686661545817145 L 222.781913079355 53.686661545817 L 222.78191308510952 53.68666154581686 L 222.78191309060477 53.68666154581672 L 222.78191309585245 53.686661545816605 L 222.7819131008637 53.68666154581649 L 222.7819131056492 53.686661545816406 L 222.78191311021914 53.68666154581629 L 222.78191311458315 53.68666154581621 L 222.78191311875057 53.68666154581612 L 222.78191312273026 53.68666154581604 L 222.78191312653064 53.68666154581595 L 222.7819131301598 53.686661545815895 L 222.78191313362547 53.68666154581584 L 222.781913136935 53.68666154581578 L 222.78191314009544 53.686661545815724 L 222.7819131431135 53.68666154581567 L 222.7819131459956 53.68666154581561 L 222.78191314874783 53.686661545815554 L 222.7819131513761 53.686661545815525 L 222.78191315388594 53.6866615458155 L 222.7819131562827 53.68666154581544 L 222.7819131585715 53.68666154581541 L 222.7819131607572 53.68666154581538" stroke-opacity="0.9" stroke-miterlimit="10" stroke-width="2" stroke-dasharray="6"/></g></g><g><g/><g><path fill="#ffffff" stroke="#e5e5e5" paint-order="fill stroke markers" d=" M 661.25 15 L 760 15 L 760 78 L 661.25 78 L 661.25 15 Z" fill-opacity="0.95" stroke-miterlimit="10" stroke-opacity="0.5"/><text fill="#444444" stroke="none" font-family="helvetica" font-size="10pt" font-style="normal" font-weight="normal" text-decoration="normal" x="696.25" y="35" text-anchor="start" dominant-baseline="central">Model</text><g><path fill="none" stroke="rgb(225,109,0)" paint-order="fill stroke markers" d=" M 671.25 35 L 691.25 35" stroke-opacity="0.9" stroke-miterlimit="10" stroke-width="2"/></g><text fill="#444444" stroke="none" font-family="helvetica" font-size="10pt" font-style="normal" font-weight="normal" text-decoration="normal" x="696.25" y="58" text-anchor="start" dominant-baseline="central">Original</text><g><path fill="none" stroke="rgb(102,180,211)" paint-order="fill stroke markers" d=" M 671.25 58 L 691.25 58" stroke-opacity="0.9" stroke-miterlimit="10" stroke-width="2" stroke-dasharray="6"/></g></g></g><g><g fill="#444444"><path fill="none" stroke="black" paint-order="fill stroke markers" d=" M 57 251 L 770 251" stroke-miterlimit="10"/><path fill="none" stroke="black" paint-order="fill stroke markers" d=" M 130 257 L 130 249" stroke-miterlimit="10"/><path fill="none" stroke="black" paint-order="fill stroke markers" d=" M 223 257 L 223 249" stroke-miterlimit="10"/><path fill="none" stroke="black" paint-order="fill stroke markers" d=" M 315 257 L 315 249" stroke-miterlimit="10"/><path fill="none" stroke="black" paint-order="fill stroke markers" d=" M 408 257 L 408 249" stroke-miterlimit="10"/><path fill="none" stroke="black" paint-order="fill stroke markers" d=" M 501 257 L 501 249" stroke-miterlimit="10"/><path fill="none" stroke="black" paint-order="fill stroke markers" d=" M 593 257 L 593 249" stroke-miterlimit="10"/><path fill="none" stroke="black" paint-order="fill stroke markers" d=" M 686 257 L 686 249" stroke-miterlimit="10"/><path fill="none" stroke="black" paint-order="fill stroke markers" d=" M 112 255 L 112 251" stroke-miterlimit="10"/><path fill="none" stroke="black" paint-order="fill stroke markers" d=" M 93 255 L 93 251" stroke-miterlimit="10"/><path fill="none" stroke="black" paint-order="fill stroke markers" d=" M 75 255 L 75 251" stroke-miterlimit="10"/><path fill="none" stroke="black" paint-order="fill stroke markers" d=" M 130 255 L 130 251" stroke-miterlimit="10"/><path fill="none" stroke="black" paint-order="fill stroke markers" d=" M 149 255 L 149 251" stroke-miterlimit="10"/><path fill="none" stroke="black" paint-order="fill stroke markers" d=" M 167 255 L 167 251" stroke-miterlimit="10"/><path fill="none" stroke="black" paint-order="fill stroke markers" d=" M 186 255 L 186 251" stroke-miterlimit="10"/><path fill="none" stroke="black" paint-order="fill stroke markers" d=" M 204 255 L 204 251" stroke-miterlimit="10"/><path fill="none" stroke="black" paint-order="fill stroke markers" d=" M 223 255 L 223 251" stroke-miterlimit="10"/><path fill="none" stroke="black" paint-order="fill stroke markers" d=" M 241 255 L 241 251" stroke-miterlimit="10"/><path fill="none" stroke="black" paint-order="fill stroke markers" d=" M 260 255 L 260 251" stroke-miterlimit="10"/><path fill="none" stroke="black" paint-order="fill stroke markers" d=" M 278 255 L 278 251" stroke-miterlimit="10"/><path fill="none" stroke="black" paint-order="fill stroke markers" d=" M 297 255 L 297 251" stroke-miterlimit="10"/><path fill="none" stroke="black" paint-order="fill stroke markers" d=" M 315 255 L 315 251" stroke-miterlimit="10"/><path fill="none" stroke="black" paint-order="fill stroke markers" d=" M 334 255 L 334 251" stroke-miterlimit="10"/><path fill="none" stroke="black" paint-order="fill stroke markers" d=" M 353 255 L 353 251" stroke-miterlimit="10"/><path fill="none" stroke="black" paint-order="fill stroke markers" d=" M 371 255 L 371 251" stroke-miterlimit="10"/><path fill="none" stroke="black" paint-order="fill stroke markers" d=" M 390 255 L 390 251" stroke-miterlimit="10"/><path fill="none" stroke="black" paint-order="fill stroke markers" d=" M 408 255 L 408 251" stroke-miterlimit="10"/><path fill="none" stroke="black" paint-order="fill stroke markers" d=" M 427 255 L 427 251" stroke-miterlimit="10"/><path fill="none" stroke="black" paint-order="fill stroke markers" d=" M 445 255 L 445 251" stroke-miterlimit="10"/><path fill="none" stroke="black" paint-order="fill stroke markers" d=" M 464 255 L 464 251" stroke-miterlimit="10"/><path fill="none" stroke="black" paint-order="fill stroke markers" d=" M 482 255 L 482 251" stroke-miterlimit="10"/><path fill="none" stroke="black" paint-order="fill stroke markers" d=" M 501 255 L 501 251" stroke-miterlimit="10"/><path fill="none" stroke="black" paint-order="fill stroke markers" d=" M 519 255 L 519 251" stroke-miterlimit="10"/><path fill="none" stroke="black" paint-order="fill stroke markers" d=" M 538 255 L 538 251" stroke-miterlimit="10"/><path fill="none" stroke="black" paint-order="fill stroke markers" d=" M 556 255 L 556 251" stroke-miterlimit="10"/><path fill="none" stroke="black" paint-order="fill stroke markers" d=" M 575 255 L 575 251" stroke-miterlimit="10"/><path fill="none" stroke="black" paint-order="fill stroke markers" d=" M 593 255 L 593 251" stroke-miterlimit="10"/><path fill="none" stroke="black" paint-order="fill stroke markers" d=" M 612 255 L 612 251" stroke-miterlimit="10"/><path fill="none" stroke="black" paint-order="fill stroke markers" d=" M 630 255 L 630 251" stroke-miterlimit="10"/><path fill="none" stroke="black" paint-order="fill stroke markers" d=" M 649 255 L 649 251" stroke-miterlimit="10"/><path fill="none" stroke="black" paint-order="fill stroke markers" d=" M 668 255 L 668 251" stroke-miterlimit="10"/><path fill="none" stroke="black" paint-order="fill stroke markers" d=" M 686 255 L 686 251" stroke-miterlimit="10"/><path fill="none" stroke="black" paint-order="fill stroke markers" d=" M 705 255 L 705 251" stroke-miterlimit="10"/><path fill="none" stroke="black" paint-order="fill stroke markers" d=" M 723 255 L 723 251" stroke-miterlimit="10"/><path fill="none" stroke="black" paint-order="fill stroke markers" d=" M 742 255 L 742 251" stroke-miterlimit="10"/><path fill="" stroke="black" paint-order="fill stroke markers" d=" M 760 255 L 760 251" stroke-miterlimit="10"/><g transform="translate(130,262) rotate(0,0,0)"><text fill="" stroke="none" font-family="helvetica" font-size="8pt" font-style="normal" font-weight="normal" text-decoration="normal" x="0" y="0" text-anchor="middle" dominant-baseline="hanging">-0.2</text><g transform="rotate(0,0,0) translate(-130,-262) translate(223,262) rotate(0,0,0)"><text fill="" stroke="none" font-family="helvetica" font-size="8pt" font-style="normal" font-weight="normal" text-decoration="normal" x="0" y="0" text-anchor="middle" dominant-baseline="hanging">0</text><g transform="rotate(0,0,0) translate(-223,-262) translate(315,262) rotate(0,0,0)"><text fill="" stroke="none" font-family="helvetica" font-size="8pt" font-style="normal" font-weight="normal" text-decoration="normal" x="0" y="0" text-anchor="middle" dominant-baseline="hanging">0.2</text><g transform="rotate(0,0,0) translate(-315,-262) translate(408,262) rotate(0,0,0)"><text fill="" stroke="none" font-family="helvetica" font-size="8pt" font-style="normal" font-weight="normal" text-decoration="normal" x="0" y="0" text-anchor="middle" dominant-baseline="hanging">0.4</text><g transform="rotate(0,0,0) translate(-408,-262) translate(501,262) rotate(0,0,0)"><text fill="" stroke="none" font-family="helvetica" font-size="8pt" font-style="normal" font-weight="normal" text-decoration="normal" x="0" y="0" text-anchor="middle" dominant-baseline="hanging">0.6</text><g transform="rotate(0,0,0) translate(-501,-262) translate(593,262) rotate(0,0,0)"><text fill="" stroke="none" font-family="helvetica" font-size="8pt" font-style="normal" font-weight="normal" text-decoration="normal" x="0" y="0" text-anchor="middle" dominant-baseline="hanging">0.8</text><g transform="rotate(0,0,0) translate(-593,-262) translate(686,262) rotate(0,0,0)"><text fill="" stroke="none" font-family="helvetica" font-size="8pt" font-style="normal" font-weight="normal" text-decoration="normal" x="0" y="0" text-anchor="middle" dominant-baseline="hanging">1</text><g transform="rotate(0,0,0) translate(-686,-262) translate(414,282) rotate(0,0,0)"><text fill="" stroke="none" font-family="helvetica" font-size="10pt" font-style="italic" font-weight="normal" text-decoration="normal" x="0" y="0" text-anchor="middle" dominant-baseline="hanging">Re</text><g transform="rotate(0,0,0) translate(-414,-282)"/></g></g></g></g></g></g></g></g></g><g fill="#444444"><path fill="none" stroke="black" paint-order="fill stroke markers" d=" M 57 251 L 57 5" stroke-miterlimit="10"/><path fill="none" stroke="black" paint-order="fill stroke markers" d=" M 51 204 L 59 204" stroke-miterlimit="10"/><path fill="none" stroke="black" paint-order="fill stroke markers" d=" M 51 154 L 59 154" stroke-miterlimit="10"/><path fill="none" stroke="black" paint-order="fill stroke markers" d=" M 51 104 L 59 104" stroke-miterlimit="10"/><path fill="none" stroke="black" paint-order="fill stroke markers" d=" M 51 54 L 59 54" stroke-miterlimit="10"/><path fill="none" stroke="black" paint-order="fill stroke markers" d=" M 53 215 L 57 215" stroke-miterlimit="10"/><path fill="none" stroke="black" paint-order="fill stroke markers" d=" M 53 225 L 57 225" stroke-miterlimit="10"/><path fill="none" stroke="black" paint-order="fill stroke markers" d=" M 53 235 L 57 235" stroke-miterlimit="10"/><path fill="none" stroke="black" paint-order="fill stroke markers" d=" M 53 245 L 57 245" stroke-miterlimit="10"/><path fill="none" stroke="black" paint-order="fill stroke markers" d=" M 53 204 L 57 204" stroke-miterlimit="10"/><path fill="none" stroke="black" paint-order="fill stroke markers" d=" M 53 194 L 57 194" stroke-miterlimit="10"/><path fill="none" stroke="black" paint-order="fill stroke markers" d=" M 53 184 L 57 184" stroke-miterlimit="10"/><path fill="none" stroke="black" paint-order="fill stroke markers" d=" M 53 174 L 57 174" stroke-miterlimit="10"/><path fill="none" stroke="black" paint-order="fill stroke markers" d=" M 53 164 L 57 164" stroke-miterlimit="10"/><path fill="none" stroke="black" paint-order="fill stroke markers" d=" M 53 154 L 57 154" stroke-miterlimit="10"/><path fill="none" stroke="black" paint-order="fill stroke markers" d=" M 53 144 L 57 144" stroke-miterlimit="10"/><path fill="none" stroke="black" paint-order="fill stroke markers" d=" M 53 134 L 57 134" stroke-miterlimit="10"/><path fill="none" stroke="black" paint-order="fill stroke markers" d=" M 53 124 L 57 124" stroke-miterlimit="10"/><path fill="none" stroke="black" paint-order="fill stroke markers" d=" M 53 114 L 57 114" stroke-miterlimit="10"/><path fill="none" stroke="black" paint-order="fill stroke markers" d=" M 53 104 L 57 104" stroke-miterlimit="10"/><path fill="none" stroke="black" paint-order="fill stroke markers" d=" M 53 94 L 57 94" stroke-miterlimit="10"/><path fill="none" stroke="black" paint-order="fill stroke markers" d=" M 53 84 L 57 84" stroke-miterlimit="10"/><path fill="none" stroke="black" paint-order="fill stroke markers" d=" M 53 74 L 57 74" stroke-miterlimit="10"/><path fill="none" stroke="black" paint-order="fill stroke markers" d=" M 53 64 L 57 64" stroke-miterlimit="10"/><path fill="none" stroke="black" paint-order="fill stroke markers" d=" M 53 54 L 57 54" stroke-miterlimit="10"/><path fill="none" stroke="black" paint-order="fill stroke markers" d=" M 53 44 L 57 44" stroke-miterlimit="10"/><path fill="none" stroke="black" paint-order="fill stroke markers" d=" M 53 34 L 57 34" stroke-miterlimit="10"/><path fill="none" stroke="black" paint-order="fill stroke markers" d=" M 53 24 L 57 24" stroke-miterlimit="10"/><path fill="" stroke="black" paint-order="fill stroke markers" d=" M 53 13 L 57 13" stroke-miterlimit="10"/><g transform="translate(46,204) rotate(0,0,0)"><text fill="" stroke="none" font-family="helvetica" font-size="8pt" font-style="normal" font-weight="normal" text-decoration="normal" x="0" y="0" text-anchor="end" dominant-baseline="central">-0.6</text><g transform="rotate(0,0,0) translate(-46,-204) translate(46,154) rotate(0,0,0)"><text fill="" stroke="none" font-family="helvetica" font-size="8pt" font-style="normal" font-weight="normal" text-decoration="normal" x="0" y="0" text-anchor="end" dominant-baseline="central">-0.4</text><g transform="rotate(0,0,0) translate(-46,-154) translate(46,104) rotate(0,0,0)"><text fill="" stroke="none" font-family="helvetica" font-size="8pt" font-style="normal" font-weight="normal" text-decoration="normal" x="0" y="0" text-anchor="end" dominant-baseline="central">-0.2</text><g transform="rotate(0,0,0) translate(-46,-104) translate(46,54) rotate(0,0,0)"><text fill="" stroke="none" font-family="helvetica" font-size="8pt" font-style="normal" font-weight="normal" text-decoration="normal" x="0" y="0" text-anchor="end" dominant-baseline="central">0</text><g transform="rotate(0,0,0) translate(-46,-54) translate(18,128) rotate(-90,0,0)"><text fill="" stroke="none" font-family="helvetica" font-size="10pt" font-style="italic" font-weight="normal" text-decoration="normal" x="0" y="0" text-anchor="middle" dominant-baseline="alphabetic">Im</text><g transform="rotate(90,0,0) translate(-18,-128)"/></g></g></g></g></g></g></g></g></g></svg>