<svg version="1.1" xmlns="http://www.w3.org/2000/svg" xmlns:xlink="http://www.w3.org/1999/xlink" width="800" height="300" style="width: 800px; height: 300px;"><defs/><g><g/><g transform="scale(1,1) translate(0.5,0.5)"><rect fill="#FFFFFF" stroke="none" x="0" y="0" width="800" height="300"/><rect fill="#ffffff" stroke="none" x="0" y="0" width="800" height="300"/><rect fill="#FFFFFF" stroke="none" x="60.85187500000001" y="5" width="734.1481249999999" height="246.2625"/><rect fill="#ffffff" stroke="none" x="60.85187500000001" y="5" width="734.1481249999999" height="246.2625"/><g><rect fill="none" stroke="#e5e5e5" x="60.85187500000001" y="5" width="734.1481249999999" height="246.2625" stroke-miterlimit="10"/></g><g><g><path fill="none" stroke="#e5e5e5" paint-order="fill stroke markers" d=" M 94 251 L 94 5" stroke-miterlimit="10"/><path fill="none" stroke="#e5e5e5" paint-order="fill stroke markers" d=" M 228 251 L 228 5" stroke-miterlimit="10"/><path fill="none" stroke="#e5e5e5" paint-order="fill stroke markers" d=" M 361 251 L 361 5" stroke-miterlimit="10"/><path fill="none" stroke="#e5e5e5" paint-order="fill stroke markers" d=" M 495 251 L 495 5" stroke-miterlimit="10"/><path fill="none" stroke="#e5e5e5" paint-order="fill stroke markers" d=" M 628 251 L 628 5" stroke-miterlimit="10"/><path fill="none" stroke="#e5e5e5" paint-order="fill stroke markers" d=" M 762 251 L 762 5" stroke-miterlimit="10"/></g><g><path fill="none" stroke="#e5e5e5" paint-order="fill stroke markers" d=" M 61 244 L 795 244" stroke-miterlimit="10"/><path fill="none" stroke="#e5e5e5" paint-order="fill stroke markers" d=" M 61 210 L 795 210" stroke-miterlimit="10"/><path fill="none" stroke="#e5e5e5" paint-order="fill stroke markers" d=" M 61 176 L 795 176" stroke-miterlimit="10"/><path fill="none" stroke="#e5e5e5" paint-order="fill stroke markers" d=" M 61 142 L 795 142" stroke-miterlimit="10"/><path fill="none" stroke="#e5e5e5" paint-order="fill stroke markers" d=" M 61 108 L 795 108" stroke-miterlimit="10"/><path fill="none" stroke="#e5e5e5" paint-order="fill stroke markers" d=" M 61 73 L 795 73" stroke-miterlimit="10"/><path fill="none" stroke="#e5e5e5" paint-order="fill stroke markers" d=" M 61 39 L 795 39" stroke-miterlimit="10"/></g><g><path fill="none" stroke="none"/><path fill="none" stroke="rgb(225,109,0)" paint-order="fill stroke markers" d=" M 94.22224431818184 5.000784173027114 L 94.89031978000732 5.000802457258885 L 95.55839524183276 5.0008211678164685 L 96.22647070365824 5.000840314640129 L 96.89454616548372 5.0008599079022815 L 97.56262162730914 5.000879958012263 L 98.23069708913462 5.000900475622132 L 98.8987725509601 5.000921471632523 L 99.56684801278553 5.000942957198049 L 100.23492347461101 5.000964943733379 L 100.90299893643643 5.000987442919552 L 101.57107439826191 5.001010466709715 L 102.2391498600874 5.001034027335891 L 102.90722532191282 5.001058137315283 L 103.5753007837383 5.001082809456875 L 104.24337624556378 5.001108056868361 L 104.91145170738922 5.001133892963139 L 105.5795271692147 5.00116033146719 L 106.24760263104012 5.00118738642675 L 106.91567809286562 5.001215072215359 L 107.58375355469109 5.001243403541878 L 108.25182901651651 5.0012723954579315 L 108.919904478342 5.001302063366268 L 109.58797994016747 5.001332423028771 L 110.25605540199291 5.001363490574647 L 110.92413086381839 5.001395282509407 L 111.59220632564387 5.001427815723332 L 112.2602817874693 5.001461107500518 L 112.92835724929478 5.001495175527964 L 113.5964327111202 5.0015300379052405 L 114.26450817294568 5.001565713153923 L 114.93258363477116 5.001602220227312 L 115.60065909659659 5.001639578520724 L 116.26873455842207 5.00167780788172 L 116.93681002024755 5.001716928620567 L 117.60488548207299 5.0017569615212665 L 118.27296094389845 5.001797927852181 L 118.9410364057239 5.001839849377745 L 119.60911186754937 5.001882748369837 L 120.27718732937484 5.001926647619655 L 120.94526279120029 5.0019715704497685 L 121.61333825302576 5.00201754072657 L 122.28141371485125 5.002064582872947 L 122.94948917667668 5.00211272188119 L 123.61756463850216 5.002161983326346 L 124.28564010032758 5.002212393379921 L 124.95371556215306 5.002263978823407 L 125.62179102397855 5.0023167670629505 L 126.28986648580397 5.002370786143615 L 126.95794194762945 5.002426064764336 L 127.62601740945493 5.002482632293436 L 128.29409287128038 5.0025405187836895 L 128.96216833310584 5.002599754988864 L 129.63024379493135 5.002660372379637 L 130.29831925675677 5.002722403160533 L 130.96639471858225 5.0027858802870355 L 131.63447018040767 5.0028508374828675 L 132.30254564223316 5.002917309258237 L 132.97062110405864 5.002985330928027 L 133.63869656588406 5.003054938630328 L 134.30677202770954 5.003126169346103 L 134.97484748953502 5.003199060918405 L 135.64292295136045 5.003273652072778 L 136.31099841318593 5.003349982437612 L 136.97907387501135 5.0034280925654 L 137.64714933683683 5.003508023954112 L 138.3152247986623 5.003589819069248 L 138.98330026048774 5.003673521366579 L 139.65137572231322 5.0037591753151105 L 140.3194511841387 5.003846826420613 L 140.98752664596412 5.003936521249955 L 141.6556021077896 5.004028307455826 L 142.32367756961509 5.0041222338019224 L 142.9917530314405 5.004218350188978 L 143.659828493266 5.004316707681312 L 144.32790395509141 5.0044173585338285 L 144.9959794169169 5.004520356219757 L 145.66405487874238 5.004625755459301 L 146.33213034056783 5.004733612248458 L 147.0002058023933 5.004843983888861 L 147.66828126421876 5.004956929018192 L 148.33635672604422 5.005072507641501 L 149.0044321878697 5.005190781162753 L 149.67250764969515 5.005311812417858 L 150.3405831115206 5.005435665707637 L 151.00865857334608 5.005562406832269 L 151.67673403517153 5.0056921031262505 L 152.344809496997 5.005824823493981 L 153.01288495882247 5.005960638446538 L 153.68096042064792 5.006099620139025 L 154.34903588247337 5.00624184240894 L 155.01711134429883 5.006387380815511 L 155.6851868061243 5.006536312679657 L 156.3532622679498 5.006688717125257 L 157.0213377297752 5.006844675120931 L 157.6894131916007 5.00700426952335 L 158.35748865342617 5.007167585121124 L 159.0255641152516 5.007334708679707 L 159.69363957707708 5.007505728987724 L 160.36171503890256 5.007680736904035 L 161.02979050072804 5.007859825406058 L 161.69786596255346 5.008043089639045 L 162.36594142437895 5.008230626966736 L 163.03401688620443 5.00842253702308 L 163.70209234802985 5.008618921765162 L 164.37016780985533 5.008819885527316 L 165.0382432716808 5.009025535076546 L 165.70631873350624 5.009235979669484 L 166.37439419533172 5.009451331110029 L 167.04246965715714 5.009671703809147 L 167.71054511898262 5.009897214845296 L 168.3786205808081 5.010127984026951 L 169.04669604263353 5.010364133956102 L 169.71477150445904 5.010605790093223 L 170.3828469662845 5.010853080824404 L 171.0509224281099 5.011106137528884 L 171.71899788993542 5.011365094649591 L 172.38707335176088 5.011630089763855 L 173.05514881358633 5.011901263657137 L 173.7232242754118 5.012178760397262 L 174.3912997372372 5.012462727411503 L 175.0593751990627 5.012753315564339 L 175.7274506608882 5.013050679238177 L 176.3955261227136 5.013354976414803 L 177.06360158453913 5.013666368759857 L 177.73167704636458 5.013985021708265 L 178.39975250819003 5.014311104552405 L 179.06782797001551 5.014644790532088 L 179.7359034318409 5.0149862569262496 L 180.40397889366642 5.015335685147534 L 181.0720543554919 5.015693260838418 L 181.74012981731732 5.01605917396995 L 182.4082052791428 5.016433618942699 L 183.0762807409683 5.01681679468993 L 183.7443562027937 5.017208904783274 L 184.4124316646192 5.017610157541128 L 185.08050712644462 5.0180207661390455 L 185.7485825882701 5.0184409487230255 L 186.41665805009558 5.018870928525644 L 187.084733511921 5.0193109339844 L 187.75280897374648 5.01976119886308 L 188.42088443557196 5.02022196237624 L 189.0889598973974 5.020693469315972 L 189.75703535922287 5.021175970182014 L 190.42511082104835 5.021669721314993 L 191.09318628287377 5.022174985032507 L 191.76126174469925 5.022692029768393 L 192.4293372065247 5.023221130215518 L 193.09741266835016 5.0237625674716355 L 193.76548813017564 5.024316629188661 L 194.4335635920011 5.024883609725691 L 195.10163905382657 5.025463810305041 L 195.76971451565203 5.026057539172655 L 196.43778997747748 5.026665111761588 L 197.10586543930296 5.027286850859809 L 197.7739409011284 5.02792308678147 L 198.44201636295386 5.028574157542607 L 199.11009182477932 5.029240409040426 L 199.7781672866048 5.029922195237475 L 200.44624274843025 5.030619878349228 L 201.1143182102557 5.031333829036953 L 201.7823936720812 5.032064426604393 L 202.45046913390667 5.032812059199216 L 203.11854459573212 5.033577124019416 L 203.78662005755757 5.034360027524258 L 204.45469551938305 5.035161185650111 L 205.1227709812085 5.035981024031685 L 205.79084644303396 5.036819978227754 L 206.4589219048594 5.03767849395291 L 207.1269973666849 5.038557027314312 L 207.79507282851034 5.039456045053726 L 208.4631482903358 5.040376024795762 L 209.13122375216125 5.04131745530151 L 209.79929921398673 5.04228083672831 L 210.46737467581218 5.043266680895272 L 211.13545013763763 5.044275511555327 L 211.80352559946314 5.045307864673475 L 212.47160106128857 5.046364288711345 L 213.13967652311405 5.047445344918856 L 213.8077519849395 5.048551607632248 L 214.47582744676498 5.0496836645790495 L 215.14390290859043 5.050842117190541 L 215.8119783704159 5.052027580921219 L 216.48005383224134 5.053240685575702 L 217.14812929406682 5.05448207564325 L 217.8162047558923 5.055752410640309 L 218.48428021771772 5.057052365460777 L 219.15235567954318 5.058382630734627 L 219.8204311413687 5.059743913194609 L 220.48850660319414 5.06113693605198 L 221.15658206501956 5.062562439380486 L 221.82465752684502 5.064021180509542 L 222.49273298867053 5.065513934426804 L 223.16080845049598 5.067041494189482 L 223.82888391232143 5.068604671345895 L 224.4969593741469 5.070204296366569 L 225.16503483597236 5.0718412190854 L 225.83311029779782 5.073516309151046 L 226.50118575962327 5.0752304564890665 L 227.16926122144875 5.076984571774403 L 227.8373366832742 5.078779586915573 L 228.50541214509965 5.080616455549205 L 229.17348760692514 5.082496153547083 L 229.8415630687506 5.084419679534392 L 230.50963853057604 5.086388055420116 L 231.17771399240152 5.0884023269398995 L 231.84578945422697 5.0904635642117455 L 232.51386491605246 5.09257286230428 L 233.1819403778779 5.0947313418185445 L 233.85001583970336 5.096940149483203 L 234.5180913015288 5.099200458763846 L 235.1861667633543 5.101513470485941 L 235.85424222517975 5.103880413473291 L 236.5223176870052 5.106302545200208 L 237.19039314883068 5.108781152459869 L 237.85846861065613 5.111317552047524 L 238.52654407248158 5.11391309146012 L 239.19461953430704 5.1165691496121894 L 239.86269499613252 5.119287137567881 L 240.53077045795797 5.122068499290833 L 241.19884591978342 5.124914712410941 L 241.86692138160888 5.12782728900936 L 242.53499684343436 5.13080777642142 L 243.2030723052598 5.133857758058639 L 243.87114776708526 5.136978854249719 L 244.5392232289107 5.1401727231010454 L 245.2072986907362 5.143441061377473 L 245.87537415256168 5.146785605403238 L 246.5434496143871 5.150208131984471 L 247.21152507621258 5.153710459352567 L 247.87960053803806 5.15729444812996 L 248.5476759998635 5.160962002318286 L 249.21575146168897 5.164715070309285 L 249.8838269235144 5.1685556459198665 L 250.55190238533993 5.172485769450702 L 251.21997784716535 5.176507528769605 L 251.88805330899078 5.180623060420601 L 252.55612877081631 5.184834550758012 L 253.22420423264174 5.189144237107769 L 253.89227969446716 5.193554408955151 L 254.56035515629264 5.198067409160615 L 255.22843061811813 5.202685635203693 L 255.8965060799436 5.207411540455951 L 256.56458154176903 5.212247635483379 L 257.23265700359445 5.217196489379546 L 257.90073246542 5.222260731129438 L 258.5688079272454 5.227443051004968 L 259.2368833890709 5.232746201993336 L 259.9049588508964 5.238173001258247 L 260.5730343127218 5.243726331635401 L 261.2411097745473 5.249409143162836 L 261.90918523637276 5.2552244546463385 L 262.5772606981982 5.261175355262139 L 263.24533616002367 5.267265006196112 L 263.91341162184915 5.2734966423213905 L 264.5814870836746 5.279873573915324 L 265.2495625455001 5.286399188415714 L 265.91763800732554 5.293076952218428 L 266.58571346915096 5.299910412516567 L 267.2537889309764 5.3069031991825 L 267.9218643928019 5.314059026693371 L 268.58993985462735 5.321381696101753 L 269.25801531645277 5.328875097051878 L 269.9260907782783 5.336543209842432 L 270.59416624010373 5.344390107538118 L 271.26224170192916 5.352419958129019 L 271.9303171637547 5.360637026741244 L 272.5983926255801 5.3690456778983275 L 273.26646808740554 5.377650377834982 L 273.9345435492311 5.386455696865028 L 274.6026190110565 5.39546631180383 L 275.270694472882 5.404687008447127 L 275.93876993470747 5.414122684107326 L 276.6068453965329 5.423778350208465 L 277.27492085835837 5.433659134941422 L 277.94299632018385 5.4437702859806905 L 278.6110717820093 5.454117173263967 L 279.27914724383476 5.464705291836083 L 279.9472227056602 5.4755402647589335 L 280.61529816748566 5.486627846088595 L 281.28337362931114 5.4979739239211085 L 281.95144909113657 5.509584523509261 L 282.61952455296205 5.5214658104507635 L 283.28760001478753 5.533624093950607 L 283.95567547661295 5.546065830158227 L 284.62375093843843 5.558797625582201 L 285.29182640026386 5.571826240583334 L 285.95990186208934 5.585158592948574 L 286.6279773239148 5.598801761547122 L 287.29605278574024 5.612762990070735 L 287.9641282475657 5.627049690860304 L 288.6322037093912 5.64166944882038 L 289.30027917121663 5.65663002542334 L 289.9683546330421 5.671939362806427 L 290.6364300948676 5.687605587961798 L 291.304505556693 5.703637017023652 L 291.97258101851855 5.720042159652735 L 292.640656480344 5.736829723522192 L 293.3087319421694 5.754008618905402 L 293.97680740399494 5.7715879633689156 L 294.64488286582036 5.7895770865728196 L 295.3129583276458 5.807985535180194 L 295.9810337894713 5.826823077879169 L 296.64910925129675 5.846099710518558 L 297.3171847131222 5.8658256613609865 L 297.9852601749477 5.8860113964550465 L 298.65333563677314 5.906667625129387 L 299.32141109859856 5.9278053056114 L 299.989486560424 5.949435650773125 L 300.6575620222495 5.971570134006583 L 301.32563748407495 5.9942204952325255 L 301.9937129459005 6.017398747043444 L 302.6617884077259 6.041117180985964 L 303.32986386955133 6.065388373983183 L 303.9979393313768 6.090225194901791 L 304.6660147932023 6.115640811265337 L 305.3340902550277 6.141648696118239 L 306.0021657168532 6.168262635041685 L 306.6702411786787 6.1954967333263085 L 307.3383166405041 6.223365423303392 L 308.0063921023296 6.2518834718384255 L 308.67446756415507 6.281065987989848 L 309.3425430259805 6.310928430836384 L 310.010618487806 6.341486617476107 L 310.67869394963145 6.372756731200184 L 311.34676941145693 6.404755329845216 L 312.01484487328236 6.437499354326462 L 312.68292033510784 6.4710061373565395 L 313.3509957969333 6.505293412351421 L 314.01907125875874 6.540379322528452 L 314.6871467205842 6.576282430198262 L 315.35522218240965 6.613021726255283 L 316.02329764423513 6.65061663986927 L 316.6913731060606 6.689087048381111 L 317.3594485678861 6.72845328740641 L 318.0275240297115 6.768736161150514 L 318.695599491537 6.80995695293683 L 319.3636749533624 6.852137435953011 L 320.0317504151879 6.895299884217366 L 320.6998258770134 6.939467083768022 L 321.3679013388388 6.984662344079084 L 322.0359768006643 7.030909509705339 L 322.7040522624897 7.07823297215873 L 323.3721277243152 7.126657682019186 L 324.0402031861407 7.176209161282486 L 324.70827864796615 7.226913515946762 L 325.3763541097916 7.2787974488407485 L 326.04442957161706 7.331888272694755 L 326.7125050334425 7.386213923456808 L 327.38058049526796 7.44180297385509 L 328.04865595709344 7.498684647208165 L 328.71673141891887 7.556888831483434 L 329.38480688074435 7.616446093605532 L 330.05288234256983 7.677387694013362 L 330.7209578043953 7.739745601467462 L 331.38903326622074 7.803552508106009 L 332.0571087280462 7.868841844748829 L 332.7251841898717 7.935647796448279 L 333.3932596516971 8.004005318284953 L 334.0613351135226 8.073950151405484 L 334.7294105753481 8.145518839299768 L 335.39748603717356 8.218748744313416 L 336.065561498999 8.293678064391031 L 336.73363696082447 8.370345850045396 L 337.4017124226499 8.448792021546012 L 338.0697878844754 8.529057386320005 L 338.73786334630086 8.611183656557557 L 339.4059388081263 8.695213467012934 L 340.07401426995176 8.781190392990652 L 340.74208973177724 8.869158968505133 L 341.41016519360267 8.95916470460196 L 342.07824065542815 9.051254107825798 L 342.7463161172536 9.145474698819896 L 343.41439157907905 9.241875031039683 L 344.08246704090453 9.340504709561571 L 344.75054250272996 9.441414409966285 L 345.41861796455544 9.544655897274197 L 346.0866934263809 9.650282044907158 L 346.75476888820634 9.758346853650778 L 347.4228443500318 9.86890547058681 L 348.09091981185725 9.982014207964369 L 348.75899527368273 10.09773056197514 L 349.4270707355082 10.216113231394786 L 350.0951461973337 10.337222136050798 L 350.7632216591591 10.461118435072194 L 351.4312971209846 10.587864544874833 L 352.09937258281 10.717524156830791 L 352.7674480446355 10.85016225456826 L 353.435523506461 10.985845130842222 L 354.1035989682864 11.124640403914839 L 354.7716744301119 11.266617033376292 L 355.43974989193737 11.411845335336523 L 356.1078253537628 11.560396996908992 L 356.7759008155883 11.712345089905966 L 357.4439762774138 11.867764083657505 L 358.1120517392392 12.026729856861095 L 358.78012720106466 12.189319708363598 L 359.44820266289014 12.355612366770004 L 360.1162781247156 12.525687998768262 L 360.7843535865411 12.699628216052247 L 361.4524290483666 12.877516080718294 L 362.120504510192 13.059436109003286 L 362.7885799720175 13.245474273226534 L 363.4566554338429 13.435718001788416 L 364.1247308956684 13.630256177072567 L 364.7928063574939 13.82917913109037 L 365.46088181931935 14.032578638699192 L 366.1289572811448 14.240547908217422 L 366.79703274297026 14.453181569251512 L 367.4651082047957 14.670575657544475 L 368.13318366662116 14.892827596644793 L 368.80125912844665 15.120036176189956 L 369.4693345902721 15.352301526589997 L 370.13741005209755 15.589725089891147 L 370.80548551392303 15.832409586592462 L 371.4735609757485 16.08045897818272 L 372.14163643757394 16.333978425161092 L 372.8097118993994 16.59307424029953 L 373.4777873612249 16.85785383690262 L 374.1458628230504 17.12842567181923 L 374.8139382848758 17.404899182957934 L 375.4820137467013 17.687384721061676 L 376.15008920852677 17.9759934754984 L 376.8181646703522 18.2708373938288 L 377.48624013217767 18.572029094921334 L 378.1543155940031 18.879681775391816 L 378.8223910558286 19.193909109158824 L 379.49046651765406 19.514825139921015 L 380.1585419794795 19.84254416638055 L 380.82661744130496 20.177180620060426 L 381.49469290313044 20.51884893558747 L 382.16276836495587 20.867663413346293 L 382.83084382678135 21.223738074440917 L 383.4989192886068 21.58718650794367 L 384.16699475043225 21.958121710453554 L 384.83507021225773 22.336655918037707 L 385.50314567408316 22.722900430684433 L 386.17122113590864 23.11696542945856 L 386.8392965977341 23.518959786616335 L 387.50737205955954 23.92899086901116 L 388.175447521385 24.347164335199977 L 388.8435229832105 24.773583926745175 L 389.51159844503593 25.20835125429926 L 390.1796739068614 25.651565579153214 L 390.8477493686869 26.103323591033643 L 391.5158248305123 26.563719183037392 L 392.1839002923378 27.032843224704663 L 392.8519757541632 27.510783334342364 L 393.5200512159887 27.99762365182687 L 394.1881266778142 28.4934446132296 L 394.8562021396396 28.99832272872783 L 395.5242776014651 29.512330365374225 L 396.19235306329057 30.035535536412794 L 396.860428525116 30.5680016989333 L 397.5285039869415 31.10978756175632 L 398.19657944876695 31.660946905530125 L 398.8646549105924 32.22152841710084 L 399.53273037241786 32.79157554028126 L 400.20080583424334 33.37112634519417 L 400.8688812960688 33.960213418396904 L 401.53695675789425 34.55886377600541 L 402.2050322197197 35.167098802024384 L 402.8731076815452 35.784934214054545 L 403.54118314337063 36.41238005848487 L 404.2092586051961 37.049440737189855 L 404.8773340670216 37.6961150676301 L 405.545409528847 38.35239637810861 L 406.2134849906725 39.018272639755196 L 406.881560452498 39.6937266366034 L 407.5496359143234 40.37873617488776 L 408.2177113761489 41.07327433242398 L 408.8857868379743 41.77730974864488 L 409.5538622997998 42.49080695555199 L 410.22193776162527 43.213726749510045 L 410.8900132234507 43.94602660346419 L 411.5580886852762 44.687661118799326 L 412.22616414710166 45.43858251569637 L 412.8942396089271 46.19874116047265 L 413.56231507075256 46.96808612803244 L 414.23039053257804 47.74656579720033 L 414.89846599440347 48.534128476375685 L 415.56654145622895 49.33072305663188 L 416.2346169180544 50.13629968909717 L 416.90269237987985 50.95081048320128 L 417.57076784170533 51.77421022215327 L 418.23884330353076 52.6064570918428 L 418.90691876535624 53.44751341922412 L 419.5749942271817 54.297346416160394 L 420.24306968900714 55.1559289246693 L 420.9111451508326 56.023240159526864 L 421.57922061265805 56.899266444249264 L 422.24729607448353 57.78400193658484 L 422.915371536309 58.67744933980583 L 423.58344699813443 59.57962059629054 L 424.2515224599599 60.490537560125944 L 424.9195979217854 61.410232645735675 L 425.5876733836108 62.33874944984325 L 426.2557488454363 63.276143344408865 L 426.9238243072618 64.22248203852604 L 427.59189976908726 65.17784610762578 L 428.2599752309127 66.14232948870327 L 428.9280506927381 67.11603994065209 L 429.5961261545636 68.09909946915698 L 430.26420161638913 69.09164471595193 L 430.93227707821455 70.09382731259416 L 431.60035254004003 71.10581419923 L 432.2684280018655 72.12778790913126 L 432.9365034636909 73.15994682006209 L 433.6045789255164 74.202505373788 L 434.27265438734184 75.2556942652638 L 434.9407298491673 76.3197606032328 L 435.6088053109928 77.39496804413494 L 436.2768807728182 78.48159690135674 L 436.94495623464377 79.57994423196283 L 437.6130316964692 80.69032390312651 L 438.2811071582946 81.81306664052812 L 438.9491826201201 82.94852006101499 L 439.6172580819456 84.0970486918198 L 440.28533354377106 85.25903397861552 L 440.95340900559654 86.43487428464493 L 441.6214844674219 87.62498488311101 L 442.2895599292474 88.82979794494184 L 442.95763539107287 90.04976252396443 L 443.62571085289835 91.28534454142863 L 444.29378631472383 92.53702677172379 L 444.9618617765493 93.80530883102455 L 445.6299372383747 95.09070717049315 L 446.29801270020016 96.39375507555351 L 446.96608816202564 97.71500267263991 L 447.6341636238511 99.05501694471076 L 448.3022390856766 100.41438175670811 L 448.97031454750197 101.79369789203508 L 449.63839000932745 103.19358310102066 L 450.30646547115293 104.61467216224139 L 450.9745409329784 106.05761695747421 L 451.6426163948039 107.52308656096699 L 452.3106918566294 109.01176734362866 L 452.97876731845474 110.52436309266386 L 453.6468427802802 112.06159514710566 L 454.3149182421057 113.62420254963382 L 454.9829937039312 115.21294221500767 L 455.65106916575667 116.82858911538807 L 456.3191446275821 118.47193648277567 L 456.9872200894076 120.14379602875056 L 457.655295551233 121.84499818166123 L 458.3233710130585 123.57639234137847 L 458.99144647488396 125.3388471517033 L 459.65952193670944 127.13325079049525 L 460.32759739853486 128.96051127756795 L 460.99567286036034 130.82155680038565 L 461.6637483221858 132.717336057582 L 462.33182378401125 134.6488186203154 L 462.99989924583673 136.6169953114702 L 463.66797470766215 138.62287860271073 L 464.33605016948763 140.66750302939656 L 465.0041256313131 142.75192562336815 L 465.6722010931386 144.87722636361923 L 466.3402765549641 147.04450864487646 L 467.00835201678944 149.25489976411637 L 467.6764274786149 151.5095514250587 L 468.3445029404404 153.80964026068534 L 469.0125784022659 156.15636837384727 L 469.68065386409137 158.55096389603244 L 470.34872932591685 160.99468156438394 L 471.0168047877422 163.4888033170686 L 471.6848802495677 166.0346389071144 L 472.3529557113932 168.63352653484725 L 473.02103117321866 171.28683349907593 L 473.68910663504414 173.9959568671884 L 474.3571820968695 176.76232416433973 L 475.025257558695 179.5873940819278 L 475.69333302052047 182.47265720557067 L 476.36140848234595 185.41963676281574 L 477.02948394417143 188.42988939082704 L 477.6975594059969 191.50500592431592 L 478.3656348678223 194.64661220399572 L 479.03371032964776 197.8563699058587 L 479.70178579147324 201.13597739159155 L 480.3698612532987 204.4871705804614 L 481.0379367151242 207.91172384302257 L 481.70601217694957 211.41145091701173 L 482.37408763877505 214.98820584581486 L 483.04216310060053 218.6438839399086 L 483.710238562426 222.38042276169423 L 484.3783140242515 226.1998031341608 L 485.046389486077 230.10405017383036 L 485.7144649479024 234.09523434845715 L 486.3825404097278 238.1754725599673 L 487.0506158715533 242.3469292531461 L 487.7186913333788 246.611817550595 L 488.38676679520427 250.97240041449913" stroke-opacity="0.9" stroke-miterlimit="10" stroke-width="2"/></g><g><path fill="none" stroke="none"/><path fill="none" stroke="rgb(102,180,211)" paint-order="fill stroke markers" d=" M 94.22224431818184 5.000783877883464 L 94.89031978000732 5.0008021552335435 L 95.55839524183276 5.0008208587488525 L 96.22647070365824 5.000839998366189 L 96.89454616548372 5.000859584253874 L 97.56262162730914 5.0008796268174365 L 98.23069708913462 5.000900136705013 L 98.8987725509601 5.000921124813033 L 99.56684801278553 5.0009426022919 L 100.23492347461101 5.000964580552079 L 100.90299893643643 5.00098707127006 L 101.57107439826191 5.001010086394615 L 102.2391498600874 5.00103363815316 L 102.90722532191282 5.001057739058126 L 103.5753007837383 5.00108240191372 L 104.24337624556378 5.001107639822749 L 104.91145170738922 5.001133466193437 L 105.5795271692147 5.001159894746706 L 106.24760263104012 5.00118693952345 L 106.91567809286562 5.001214614891808 L 107.58375355469109 5.001242935555069 L 108.25182901651651 5.00127191655929 L 108.919904478342 5.001301573301362 L 109.58797994016747 5.001331921537201 L 110.25605540199291 5.001362977390045 L 110.92413086381839 5.001394757359094 L 111.59220632564387 5.001427278328322 L 112.2602817874693 5.0014605575752284 L 112.92835724929478 5.001494612780334 L 113.5964327111202 5.001529462036331 L 114.26450817294568 5.001565123857688 L 114.93258363477116 5.001601617190715 L 115.60065909659659 5.001638961423396 L 116.26873455842207 5.001677176395788 L 116.93681002024755 5.001716282410598 L 117.60488548207299 5.001756300243812 L 118.27296094389845 5.001797251156006 L 118.9410364057239 5.001839156903372 L 119.60911186754937 5.0018820397493755 L 120.27718732937484 5.001925922476573 L 120.94526279120029 5.001970828398839 L 121.61333825302576 5.002016781373584 L 122.28141371485125 5.00206380581443 L 122.94948917667668 5.002111926704345 L 123.61756463850216 5.002161169608769 L 124.28564010032758 5.002211560689204 L 124.95371556215306 5.002263126717253 L 125.62179102397855 5.0023158950886 L 126.28986648580397 5.002369893837795 L 126.95794194762945 5.002425151653085 L 127.62601740945493 5.00248169789154 L 128.29409287128038 5.002539562594791 L 128.96216833310584 5.0025987765049535 L 129.63024379493135 5.002659371080881 L 130.29831925675677 5.002721378514934 L 130.96639471858225 5.002784831750205 L 131.63447018040767 5.002849764497796 L 132.30254564223316 5.002916211254899 L 132.97062110405864 5.002984207323038 L 133.63869656588406 5.003053788826776 L 134.30677202770954 5.003124992733092 L 134.97484748953502 5.003197856870884 L 135.64292295136045 5.003272419951088 L 136.31099841318593 5.003348721587145 L 136.97907387501135 5.003426802316255 L 137.64714933683683 5.003506703620815 L 138.3152247986623 5.003588467950408 L 138.98330026048774 5.003672138744378 L 139.65137572231322 5.00375776045496 L 140.3194511841387 5.003845378570816 L 140.98752664596412 5.003935039641419 L 141.6556021077896 5.004026791301328 L 142.32367756961509 5.004120682295991 L 142.9917530314405 5.00421676250744 L 143.659828493266 5.004315082980611 L 144.32790395509141 5.00441569595074 L 144.9959794169169 5.004518654871106 L 145.66405487874238 5.0046240144412195 L 146.33213034056783 5.00473183063599 L 147.0002058023933 5.00484216073545 L 147.66828126421876 5.0049550633553395 L 148.33635672604422 5.005070598477971 L 149.0044321878697 5.005188827484346 L 149.67250764969515 5.005309813186557 L 150.3405831115206 5.005433619861378 L 151.00865857334608 5.005560313284207 L 151.67673403517153 5.005689960764187 L 152.344809496997 5.005822631179683 L 153.01288495882247 5.005958395015341 L 153.68096042064792 5.006097324399093 L 154.34903588247337 5.00623949314064 L 155.01711134429883 5.0063849767707325 L 155.6851868061243 5.006533852581299 L 156.3532622679498 5.006686199666319 L 157.0213377297752 5.006842098964057 L 157.6894131916007 5.0070016332999785 L 158.35748865342617 5.007164887430633 L 159.0255641152516 5.007331948089018 L 159.69363957707708 5.007502904030218 L 160.36171503890256 5.007677846079048 L 161.02979050072804 5.007856867177736 L 161.69786596255346 5.008040062435896 L 162.36594142437895 5.0082275291805445 L 163.03401688620443 5.008419367008173 L 163.70209234802985 5.00861567783744 L 164.37016780985533 5.008816565963514 L 165.0382432716808 5.00902213811321 L 165.70631873350624 5.0092325035019485 L 166.37439419533172 5.009447773891679 L 167.04246965715714 5.009668063650167 L 167.71054511898262 5.0098934898119865 L 168.3786205808081 5.010124172140479 L 169.04669604263353 5.01036023319142 L 169.71477150445904 5.010601798378161 L 170.3828469662845 5.010848996038419 L 171.0509224281099 5.011101957502149 L 171.71899788993542 5.01136081716146 L 172.38707335176088 5.011625712542127 L 173.05514881358633 5.011896784376518 L 173.7232242754118 5.0121741766784 L 174.3912997372372 5.012458036819339 L 175.0593751990627 5.0127485156073135 L 175.7274506608882 5.013045767366464 L 176.3955261227136 5.01334995001929 L 177.06360158453913 5.013661225170438 L 177.73167704636458 5.013979758192761 L 178.39975250819003 5.014305718314915 L 179.06782797001551 5.014639278711456 L 179.7359034318409 5.014980616594755 L 180.40397889366642 5.015329913309188 L 181.0720543554919 5.015687354427371 L 181.74012981731732 5.016053129848899 L 182.4082052791428 5.016427433901242 L 183.0762807409683 5.016810465442859 L 183.7443562027937 5.017202427968812 L 184.4124316646192 5.017603529719111 L 185.08050712644462 5.018013983789217 L 185.7485825882701 5.018434008243048 L 186.41665805009558 5.018863826229278 L 187.084733511921 5.019303666099404 L 187.75280897374648 5.0197537615295005 L 188.42088443557196 5.020214351644086 L 189.0889598973974 5.0206856811431635 L 189.75703535922287 5.021168000432397 L 190.42511082104835 5.0216615657560055 L 191.09318628287377 5.022166639332966 L 191.76126174469925 5.0226834894962735 L 192.4293372065247 5.0232123908355675 L 193.09741266835016 5.0237536243428735 L 193.76548813017564 5.024307477562104 L 194.4335635920011 5.024874244741568 L 195.10163905382657 5.025454226990632 L 195.76971451565203 5.026047732439338 L 196.43778997747748 5.026655076402221 L 197.10586543930296 5.027276581545948 L 197.7739409011284 5.02791257806075 L 198.44201636295386 5.028563403835506 L 199.11009182477932 5.029229404637761 L 199.7781672866048 5.029910934296936 L 200.44624274843025 5.0306083548926495 L 201.1143182102557 5.031322036947017 L 201.7823936720812 5.032052359621332 L 202.45046913390667 5.032799710917573 L 203.11854459573212 5.033564487884803 L 203.78662005755757 5.034347096829663 L 204.45469551938305 5.035147953532544 L 205.1227709812085 5.035967483468426 L 205.79084644303396 5.036806122032829 L 206.4589219048594 5.037664314773224 L 207.1269973666849 5.038542517625558 L 207.79507282851034 5.039441197156862 L 208.4631482903358 5.040360830812688 L 209.13122375216125 5.041301907171032 L 209.79929921398673 5.042264926201767 L 210.46737467581218 5.043250399532326 L 211.13545013763763 5.0442588507195865 L 211.80352559946314 5.045290815527835 L 212.47160106128857 5.046346842213552 L 213.13967652311405 5.047427491816563 L 213.8077519849395 5.048533338458242 L 214.47582744676498 5.049664969646415 L 215.14390290859043 5.050822986587605 L 215.8119783704159 5.052008004506149 L 216.48005383224134 5.05322065297139 L 217.14812929406682 5.054461576231972 L 217.8162047558923 5.055731433558151 L 218.48428021771772 5.05703089959195 L 219.15235567954318 5.058360664705674 L 219.8204311413687 5.059721435368658 L 220.48850660319414 5.061113934522496 L 221.15658206501956 5.062538901965354 L 221.82465752684502 5.06399709474465 L 222.49273298867053 5.065489287559558 L 223.16080845049598 5.067016273172328 L 223.82888391232143 5.068578862829668 L 224.4969593741469 5.0701778866935 L 225.16503483597236 5.07181419428224 L 225.83311029779782 5.073488654921789 L 226.50118575962327 5.0752021582077305 L 227.16926122144875 5.07695561447764 L 227.8373366832742 5.078749955294882 L 228.50541214509965 5.080586133943314 L 229.17348760692514 5.08246512593405 L 229.8415630687506 5.0843879295232455 L 230.50963853057604 5.086355566242901 L 231.17771399240152 5.088369081443091 L 231.84578945422697 5.090429544847666 L 232.51386491605246 5.092538051122403 L 233.1819403778779 5.0946957204564 L 233.85001583970336 5.0969036991573375 L 234.5180913015288 5.0991631602605025 L 235.1861667633543 5.101475304151734 L 235.85424222517975 5.103841359205205 L 236.5223176870052 5.106262582436045 L 237.19039314883068 5.1087402601680765 L 237.85846861065613 5.111275708717017 L 238.52654407248158 5.11387027508988 L 239.19461953430704 5.1165253377006366 L 239.86269499613252 5.1192423071021835 L 240.53077045795797 5.122022626735827 L 241.19884591978342 5.124867773698043 L 241.86692138160888 5.127779259525141 L 242.53499684343436 5.13075863099624 L 243.2030723052598 5.133807470954821 L 243.87114776708526 5.13692739914967 L 244.5392232289107 5.140120073095204 L 245.2072986907362 5.143387188951976 L 245.87537415256168 5.1467304824276425 L 246.5434496143871 5.150151729699019 L 247.21152507621258 5.153652748355512 L 247.87960053803806 5.1572353983645485 L 248.5476759998635 5.16090158305974 L 249.21575146168897 5.164653250151673 L 249.8838269235144 5.168492392762516 L 250.55190238533993 5.172421050484729 L 251.21997784716535 5.176441310464611 L 251.88805330899078 5.180555308510463 L 252.55612877081631 5.184765230227356 L 253.22420423264174 5.189073312178039 L 253.89227969446716 5.193481843070515 L 254.56035515629264 5.19799316497398 L 255.22843061811813 5.202609674562609 L 255.8965060799436 5.207333824388513 L 256.56458154176903 5.212168124184188 L 257.23265700359445 5.2171151421956665 L 257.90073246542 5.222177506546245 L 258.5688079272454 5.2273579066325055 L 259.2368833890709 5.2326590945522184 L 259.9049588508964 5.238083886566244 L 260.5730343127218 5.243635164593968 L 261.2411097745473 5.249315877743754 L 261.90918523637276 5.255129043878981 L 262.5772606981982 5.261077751220569 L 263.24533616002367 5.267165159987087 L 263.91341162184915 5.273394504072542 L 264.5814870836746 5.279769092763615 L 265.2495625455001 5.286292312496926 L 265.91763800732554 5.292967628656925 L 266.58571346915096 5.299798587415864 L 267.2537889309764 5.306788817616621 L 267.9218643928019 5.313942032699231 L 268.58993985462735 5.32126203267228 L 269.25801531645277 5.328752706130331 L 269.9260907782783 5.336418032318193 L 270.59416624010373 5.344262083243166 L 271.26224170192916 5.352289025836626 L 271.9303171637547 5.360503124165746 L 272.5983926255801 5.368908741696771 L 273.26646808740554 5.377510343610879 L 273.9345435492311 5.386312499173982 L 274.6026190110565 5.395319884161722 L 275.270694472882 5.404537283340517 L 275.93876993470747 5.413969593006755 L 276.6068453965329 5.423621823584767 L 277.27492085835837 5.433499102285339 L 277.94299632018385 5.443606675825663 L 278.6110717820093 5.453949913213137 L 279.27914724383476 5.464534308593272 L 279.9472227056602 5.475365484164001 L 280.61529816748566 5.486449193157853 L 281.28337362931114 5.497791322893022 L 281.95144909113657 5.509397897895724 L 282.61952455296205 5.521275083094508 L 283.28760001478753 5.5334291870892685 L 283.95567547661295 5.545866665496021 L 284.62375093843843 5.558594124368597 L 285.29182640026386 5.5716183237010455 L 285.95990186208934 5.584946181009741 L 286.6279773239148 5.598584774999949 L 287.29605278574024 5.612541349316189 L 287.9641282475657 5.6268233163805235 L 288.6322037093912 5.641438261318967 L 289.30027917121663 5.656393945979346 L 289.9683546330421 5.671698313041929 L 290.6364300948676 5.687359490225333 L 291.304505556693 5.703385794589678 L 291.97258101851855 5.719785736939286 L 292.640656480344 5.7365680263270065 L 293.3087319421694 5.7537415746630245 L 293.97680740399494 5.771315501429797 L 294.64488286582036 5.789299138505896 L 295.3129583276458 5.807702035101443 L 295.9810337894713 5.826533962806877 L 296.64910925129675 5.845804920758894 L 297.3171847131222 5.865525140924603 L 297.9852601749477 5.885705093507909 L 298.65333563677314 5.906355492480429 L 299.32141109859856 5.9274873012390685 L 299.989486560424 5.949111738394151 L 300.6575620222495 5.971240283690463 L 301.32563748407495 5.993884684063971 L 301.9937129459005 6.0170569598378165 L 302.6617884077259 6.040769411060069 L 303.32986386955133 6.065034623986719 L 303.9979393313768 6.089865477713033 L 304.6660147932023 6.115275150956677 L 305.3340902550277 6.141277128995284 L 306.0021657168532 6.167885210763018 L 306.6702411786787 6.195113516108393 L 307.3383166405041 6.222976493217345 L 308.0063921023296 6.251488926205639 L 308.67446756415507 6.280665942883047 L 309.3425430259805 6.3105230226942695 L 310.010618487806 6.341076004839408 L 310.67869394963145 6.372341096578225 L 311.34676941145693 6.404334881722434 L 312.01484487328236 6.437074329318762 L 312.68292033510784 6.470576802528399 L 313.3509957969333 6.504860067705465 L 314.01907125875874 6.539942303679766 L 314.6871467205842 6.575842111246914 L 315.35522218240965 6.612578522871104 L 316.02329764423513 6.650171012604176 L 316.6913731060606 6.688639506225456 L 317.3594485678861 6.728004391607044 L 318.0275240297115 6.7682865293085115 L 318.695599491537 6.809507263405976 L 319.3636749533624 6.851688432559627 L 320.0317504151879 6.894852381325052 L 320.6998258770134 6.939021971711782 L 321.3679013388388 6.9842205949950085 L 322.0359768006643 7.030472183784241 L 322.7040522624897 7.077801224353777 L 323.3721277243152 7.126232769240005 L 324.0402031861407 7.175792450110237 L 324.70827864796615 7.2265064909069565 L 325.3763541097916 7.278401721273724 L 326.04442957161706 7.3315055902659765 L 326.7125050334425 7.385846180352303 L 327.38058049526796 7.441452221710392 L 328.04865595709344 7.498353106822776 L 328.71673141891887 7.556578905375943 L 329.38480688074435 7.616160379468909 L 330.05288234256983 7.677128999133686 L 330.7209578043953 7.739516958173795 L 331.38903326622074 7.803357190323595 L 332.0571087280462 7.868683385733505 L 332.7251841898717 7.935530007784337 L 333.3932596516971 8.0039323102352 L 334.0613351135226 8.073926354707226 L 334.7294105753481 8.145549028508412 L 335.39748603717356 8.218838062800728 L 336.065561498999 8.29383205111327 L 336.73363696082447 8.370570468204278 L 337.4017124226499 8.4490936892729 L 338.0697878844754 8.52944300952413 L 338.73786334630086 8.611660664086685 L 339.4059388081263 8.69578984828604 L 340.07401426995176 8.781874738272109 L 340.74208973177724 8.869960512001683 L 341.41016519360267 8.960093370575521 L 342.07824065542815 9.052320559927239 L 342.7463161172536 9.146690392863434 L 343.41439157907905 9.243252271450501 L 344.08246704090453 9.342056709746146 L 344.75054250272996 9.443155356869 L 345.41861796455544 9.546601020401681 L 346.0866934263809 9.652447690120198 L 346.75476888820634 9.760750562041324 L 347.4228443500318 9.871566062778697 L 348.09091981185725 9.984951874196724 L 348.75899527368273 10.100966958350114 L 349.4270707355082 10.219671582694389 L 350.0951461973337 10.341127345552138 L 350.7632216591591 10.465397201816813 L 351.4312971209846 10.59254548887401 L 352.09937258281 10.7226379527184 L 352.7674480446355 10.85574177424104 L 353.435523506461 10.991925595660177 L 354.1035989682864 11.131259547064587 L 354.7716744301119 11.273815273037144 L 355.43974989193737 11.419665959320639 L 356.1078253537628 11.568886359486385 L 356.7759008155883 11.72155282156126 L 357.4439762774138 11.877743314564384 L 358.1120517392392 12.037537454900871 L 358.78012720106466 12.201016532555002 L 359.44820266289014 12.368263537019516 L 360.1162781247156 12.539363182892941 L 360.7843535865411 12.7144019350701 L 361.4524290483666 12.893468033444776 L 362.120504510192 13.076651517036908 L 362.7885799720175 13.264044247448794 L 363.4566554338429 13.455739931547043 L 364.1247308956684 13.651834143258327 L 364.7928063574939 13.852424344358042 L 365.46088181931935 14.057609904121023 L 366.1289572811448 14.267492117692939 L 366.79703274297026 14.48217422303037 L 367.4651082047957 14.701761416243869 L 368.13318366662116 14.926360865168135 L 368.80125912844665 15.156081720967222 L 369.4693345902721 15.391035127569694 L 370.13741005209755 15.631334228712149 L 370.80548551392303 15.877094172353793 L 371.4735609757485 16.128432112206553 L 372.14163643757394 16.38546720610634 L 372.8097118993994 16.648320610931705 L 373.4777873612249 16.917115473754336 L 374.1458628230504 17.191976918884734 L 374.8139382848758 17.473032030450554 L 375.4820137467013 17.76040983012257 L 376.15008920852677 18.054241249575284 L 376.8181646703522 18.354659097241722 L 377.48624013217767 18.66179801889342 L 378.1543155940031 18.975794451545312 L 378.8223910558286 19.29678657015438 L 379.49046651765406 19.624914226546082 L 380.1585419794795 19.960318879970316 L 380.82661744130496 20.303143518650245 L 381.49469290313044 20.653532571653386 L 382.16276836495587 21.011631810374126 L 382.83084382678135 21.37758823887964 L 383.4989192886068 21.751549972332043 L 384.16699475043225 22.133666102659504 L 384.83507021225773 22.524086550610946 L 385.50314567408316 22.92296190328915 L 386.17122113590864 23.330443236219594 L 386.8392965977341 23.746681918977174 L 387.50737205955954 24.17182940335738 L 388.175447521385 24.60603699304852 L 388.8435229832105 25.049455593734763 L 389.51159844503593 25.502235442536858 L 390.1796739068614 25.964525815681952 L 390.8477493686869 26.436474713285293 L 391.5158248305123 26.918228520126092 L 392.1839002923378 27.409931641311857 L 392.8519757541632 27.91172611174693 L 393.5200512159887 28.423751178358998 L 394.1881266778142 28.94614285409068 L 394.8562021396396 29.4790334427355 L 395.5242776014651 30.022551033789796 L 396.19235306329057 30.57681896661063 L 396.860428525116 31.141955263310933 L 397.5285039869415 31.71807202999696 L 398.19657944876695 32.30527482615537 L 398.8646549105924 32.90366200223707 L 399.53273037241786 33.513324005759046 L 400.20080583424334 34.134342656561614 L 400.8688812960688 34.76679039221415 L 401.53695675789425 35.41072948496111 L 402.2050322197197 36.0662112320457 L 402.8731076815452 36.73327512173506 L 403.54118314337063 37.41194797790388 L 404.2092586051961 38.10224308660696 L 404.8773340670216 38.80415930868543 L 405.545409528847 39.51768018310031 L 406.2134849906725 40.242773026363864 L 406.881560452498 40.979388034138594 L 407.5496359143234 41.72745739178441 L 408.2177113761489 42.48689440134473 L 408.8857868379743 43.2575926331578 L 409.5538622997998 44.03942511094735 L 410.22193776162527 44.83224353986495 L 410.8900132234507 45.63587758750833 L 411.5580886852762 46.45013422840441 L 412.22616414710166 47.2747971627993 L 412.8942396089271 48.10962632081845 L 413.56231507075256 48.954357463127394 L 414.23039053257804 49.80870188911268 L 414.89846599440347 50.67234626329676 L 415.56654145622895 51.54495257018149 L 416.2346169180544 52.426158206970285 L 416.90269237987985 53.31557622263813 L 417.57076784170533 54.21279571060248 L 418.23884330353076 55.11738236079668 L 418.90691876535624 56.028879175273204 L 419.5749942271817 56.946807349586265 L 420.24306968900714 57.8706673201462 L 420.9111451508326 58.799939975537455 L 421.57922061265805 59.73408802748693 L 422.24729607448353 60.67255753481123 L 422.915371536309 61.614779571307 L 423.58344699813443 62.560172026239655 L 424.2515224599599 63.50814152388688 L 424.9195979217854 64.4580854465637 L 425.5876733836108 65.40939404374953 L 426.2557488454363 66.36145260840695 L 426.9238243072618 67.31364370036891 L 427.59189976908726 68.26534939581302 L 428.2599752309127 69.21595354136136 L 428.9280506927381 70.16484399126131 L 429.5961261545636 71.11141480641112 L 430.26420161638913 72.0550683946953 L 430.93227707821455 72.99521757315676 L 431.60035254004003 73.93128753393435 L 432.2684280018655 74.86271769758702 L 432.9365034636909 75.78896343936671 L 433.6045789255164 76.70949767613521 L 434.27265438734184 77.62381230388962 L 434.9407298491673 78.53141947820768 L 435.6088053109928 79.43185273229258 L 436.2768807728182 80.32466792963058 L 436.94495623464377 81.2094440505258 L 437.6130316964692 82.0857838138991 L 438.2811071582946 82.95331413769725 L 438.9491826201201 83.81168644302221 L 439.6172580819456 84.66057680863955 L 440.28533354377106 85.49968598384231 L 440.95340900559654 86.32873926872941 L 441.6214844674219 87.1474862718012 L 442.2895599292474 87.95570055539164 L 442.95763539107287 88.75317917984944 L 443.62571085289835 89.53974215757452 L 444.29378631472383 90.31523182802181 L 444.9618617765493 91.07951216462703 L 445.6299372383747 91.83246802430955 L 446.29801270020016 92.57400434978791 L 446.96608816202564 93.30404533442623 L 447.6341636238511 94.02253355873796 L 448.3022390856766 94.72942910702389 L 448.97031454750197 95.42470867193657 L 449.63839000932745 96.1083646540566 L 450.30646547115293 96.78040426285452 L 450.9745409329784 97.440848624707 L 451.6426163948039 98.0897319029479 L 452.3106918566294 98.72710043427315 L 452.97876731845474 99.35301188518872 L 453.6468427802802 99.9675344315998 L 454.3149182421057 100.57074596408819 L 454.9829937039312 101.16273332091825 L 455.65106916575667 101.74359155034904 L 456.3191446275821 102.31342320341142 L 456.9872200894076 102.87233765793479 L 457.655295551233 103.42045047427519 L 458.3233710130585 103.9578827829047 L 458.99144647488396 104.48476070376853 L 459.65952193670944 105.00121479709662 L 460.32759739853486 105.50737954517251 L 460.99567286036034 106.00339286440669 L 461.6637483221858 106.48939564693299 L 462.33182378401125 106.96553133084541 L 462.99989924583673 107.43194549810966 L 463.66797470766215 107.88878549912516 L 464.33605016948763 108.33620010286683 L 465.0041256313131 108.77433917150876 L 465.6722010931386 109.20335335841628 L 466.3402765549641 109.62339382838707 L 467.00835201678944 110.03461199902841 L 467.6764274786149 110.43715930217053 L 468.3445029404404 110.83118696423404 L 469.0125784022659 111.21684580449738 L 469.68065386409137 111.59428605023669 L 470.34872932591685 111.96365716774483 L 471.0168047877422 112.32510770827216 L 471.6848802495677 112.67878516796665 L 472.3529557113932 113.02483586093174 L 473.02103117321866 113.36340480455772 L 473.68910663504414 113.69463561632236 L 474.3571820968695 114.01867042129658 L 475.025257558695 114.33564976962725 L 475.69333302052047 114.64571256331098 L 476.36140848234595 114.94899599160635 L 477.02948394417143 115.24563547447082 L 477.6975594059969 115.5357646134423 L 478.3656348678223 115.81951514942006 L 479.03371032964776 116.09701692683052 L 479.70178579147324 116.36839786369677 L 480.3698612532987 116.63378392715859 L 481.0379367151242 116.8932991140191 L 481.70601217694957 117.14706543591996 L 482.37408763877505 117.39520290877448 L 483.04216310060053 117.63782954611037 L 483.710238562426 117.8750613559975 L 484.3783140242515 118.10701234125824 L 485.046389486077 118.33379450267725 L 485.7144649479024 118.55551784494793 L 486.3825404097278 118.77229038511001 L 487.0506158715533 118.98421816325029 L 487.7186913333788 119.19140525525404 L 488.38676679520427 119.3939537874108 L 489.0548422570297 119.59196395269024 L 489.7229177188552 119.78553402851912 L 490.39099318068065 119.97476039590134 L 491.0590686425061 120.15973755973528 L 491.72714410433156 120.3405581701931 L 492.395219566157 120.51731304503681 L 493.06329502798246 120.6900911927556 L 493.73137048980794 120.85897983641735 L 494.3994459516334 121.02406443813595 L 495.0675214134589 121.18542872406263 L 495.73559687528433 121.34315470981858 L 496.40367233710975 121.49732272629029 L 497.07174779893523 121.64801144571805 L 497.7398232607607 121.79529790801058 L 498.4078987225862 121.9392575472275 L 499.0759741844117 122.0799642181737 L 499.74404964623704 122.21749022305568 L 500.4121251080625 122.35190633815395 L 501.080200569888 122.48328184046909 L 501.7482760317135 122.61168453430412 L 502.41635149353897 122.7371807777472 L 503.08442695536445 122.8598355090241 L 503.7525024171898 122.97971227269139 L 504.4205778790153 123.09687324564436 L 505.0886533408408 123.21137926291686 L 505.75672880266626 123.32328984325142 L 506.42480426449174 123.43266321442192 L 507.0928797263171 123.53955633829074 L 507.7609551881426 123.644024935587 L 508.42903064996807 123.74612351039164 L 509.09710611179355 123.84590537431859 L 509.76518157361903 123.94342267038144 L 510.4332570354445 124.03872639653741 L 511.1013324972699 124.13186642890082 L 511.76940795909536 124.22289154462004 L 512.4374834209209 124.31184944441281 L 513.1055588827463 124.39878677475537 L 513.7736343445717 124.48374914972231 L 514.4417098063973 124.5667811724748 L 515.1097852682227 124.64792645639497 L 515.7778607300481 124.72722764586615 L 516.4459361918737 124.80472643669765 L 517.1140116536991 124.88046359619517 L 517.7820871155245 124.95447898287654 L 518.45016257735 125.02681156583523 L 519.1182380391755 125.09749944375164 L 519.7863135010009 125.16657986355585 L 520.4543889628264 125.23408923874283 L 521.1224644246519 125.30006316734332 L 521.7905398864773 125.36453644955401 L 522.4586153483028 125.42754310502846 L 523.1266908101284 125.48911638983452 L 523.7947662719537 125.54928881307984 L 524.4628417337792 125.60809215321069 L 525.1309171956046 125.66555747398743 L 525.7989926574301 125.72171514014087 L 526.4670681192556 125.77659483271415 L 527.1351435810811 125.83022556409378 L 527.8032190429064 125.88263569273516 L 528.471294504732 125.93385293758641 L 529.1393699665575 125.98390439221546 L 529.8074454283828 126.03281653864488 L 530.4755208902084 126.08061526089932 L 531.1435963520339 126.12732585827001 L 531.8116718138592 126.17297305830104 L 532.4797472756848 126.21758102950264 L 533.1478227375103 126.26117339379533 L 533.8158981993357 126.30377323869067 L 534.4839736611611 126.34540312921189 L 535.1520491229866 126.38608511956119 L 535.820124584812 126.42584076453596 L 536.4882000466375 126.4646911307006 L 537.1562755084631 126.5026568073171 L 537.8243509702885 126.5397579170398 L 538.4924264321139 126.57601412637854 L 539.1605018939393 126.61144465593455 L 539.8285773557648 126.64606829041367 L 540.4966528175903 126.6799033884214 L 541.1647282794158 126.71296789204354 L 541.8328037412413 126.7452793362175 L 542.5008792030667 126.77685485789797 L 543.1689546648921 126.8077112050209 L 543.8370301267175 126.83786474527054 L 544.5051055885431 126.86733147465293 L 545.1731810503686 126.89612702588033 L 545.8412565121939 126.92426667657014 L 546.5093319740195 126.9517653572621 L 547.1774074358449 126.97863765925814 L 547.8454828976703 127.00489784228773 L 548.5135583594958 127.0305598420033 L 549.1816338213213 127.0556372773083 L 549.8497092831468 127.0801434575227 L 550.5177847449722 127.1040913893882 L 551.1858602067977 127.12749378391723 L 551.8539356686231 127.15036306308889 L 552.5220111304486 127.17271136639522 L 553.1900865922742 127.19455055724097 L 553.8581620540995 127.21589222919982 L 554.526237515925 127.23674771213055 L 555.1943129777504 127.25712807815586 L 555.8623884395759 127.27704414750713 L 556.5304639014014 127.29650649423766 L 557.1985393632268 127.31552545180764 L 557.8666148250522 127.3341111185434 L 558.5346902868778 127.35227336297385 L 559.2027657487032 127.3700218290466 L 559.8708412105286 127.38736594122679 L 560.5389166723542 127.40431490948083 L 561.2069921341796 127.4208777341477 L 561.875067596005 127.4370632107003 L 562.5431430578305 127.45287993439962 L 563.2112185196561 127.46833630484332 L 563.8792939814814 127.48344053041194 L 564.5473694433069 127.4982006326145 L 565.2154449051324 127.51262445033566 L 565.8835203669578 127.52671964398706 L 566.5515958287833 127.54049369956459 L 567.2196712906086 127.55395393261404 L 567.8877467524343 127.56710749210657 L 568.5558222142597 127.57996136422685 L 569.2238976760851 127.59252237607507 L 569.8919731379106 127.60479719928526 L 570.5600485997361 127.61679235356144 L 571.2281240615616 127.62851421013386 L 571.8961995233869 127.63996899513643 L 572.5642749852125 127.65116279290817 L 573.232350447038 127.66210154921919 L 573.9004259088633 127.67279107442369 L 574.5685013706889 127.68323704654156 L 575.2365768325142 127.69344501426986 L 575.9046522943397 127.70342039992579 L 576.5727277561652 127.71316850232341 L 577.2408032179908 127.72269449958407 L 577.9088786798161 127.73200345188417 L 578.5769541416416 127.74110030413956 L 579.245029603467 127.74998988862933 L 579.9131050652925 127.75867692756009 L 580.581180527118 127.76716603557168 L 581.2492559889436 127.77546172218618 L 581.9173314507689 127.78356839420121 L 582.5854069125944 127.79149035802871 L 583.2534823744197 127.79923182198064 L 583.9215578362453 127.80679689850263 L 584.5896332980708 127.81418960635699 L 585.2577087598961 127.82141387275595 L 585.9257842217216 127.82847353544634 L 586.5938596835472 127.83537234474704 L 587.2619351453725 127.84211396553994 L 587.930010607198 127.84870197921543 L 588.5980860690236 127.85513988557432 L 589.2661615308491 127.86143110468532 L 589.9342369926744 127.86757897870166 L 590.6023124545 127.87358677363511 L 591.2703879163253 127.87945768109046 L 591.9384633781508 127.88519481996002 L 592.6065388399763 127.89080123808009 L 593.2746143018016 127.89627991384899 L 593.9426897636272 127.90163375780907 L 594.6107652254527 127.90686561419216 L 595.278840687278 127.91197826242995 L 595.9469161491036 127.91697441863013 L 596.6149916109291 127.92185673701877 L 597.2830670727544 127.92662781134999 L 597.95114253458 127.93129017628337 L 598.6192179964055 127.93584630873036 L 599.2872934582308 127.94029862916932 L 599.9553689200563 127.94464950293161 L 600.6234443818819 127.94890124145738 L 601.2915198437072 127.95305610352364 L 601.9595953055327 127.95711629644364 L 602.6276707673583 127.96108397723947 L 603.2957462291836 127.96496125378775 L 603.9638216910091 127.96875018593911 L 604.6318971528347 127.97245278661237 L 605.29997261466 127.97607102286372 L 605.9680480764855 127.97960681693166 L 606.636123538311 127.98306204725779 L 607.3041990001364 127.98643854948483 L 607.9722744619619 127.98973811743167 L 608.6403499237874 127.99296250404598 L 609.3084253856127 127.99611342233561 L 609.9765008474383 127.99919254627855 L 610.6445763092638 128.0022015117119 L 611.3126517710891 128.005141917201 L 611.9807272329147 128.00801532488867 L 612.6488026947402 128.01082326132473 L 613.3168781565655 128.01356721827733 L 613.984953618391 128.01624865352503 L 614.6530290802164 128.01886899163145 L 615.3211045420419 128.02142962470185 L 615.9891800038674 128.02393191312282 L 616.657255465693 128.0263771862847 L 617.3253309275183 128.0287667432881 L 617.9934063893438 128.03110185363374 L 618.6614818511694 128.03338375789707 L 619.3295573129947 128.03561366838716 L 619.9976327748202 128.03779276979066 L 620.6657082366457 128.03992221980144 L 621.333783698471 128.04200314973528 L 622.0018591602966 128.044036665131 L 622.6699346221219 128.04602384633785 L 623.3380100839474 128.04796574908926 L 624.006085545773 128.04986340506392 L 624.6741610075985 128.0517178224336 L 625.3422364694238 128.05352998639887 L 626.0103119312494 128.05530085971264 L 626.6783873930749 128.0570313831912 L 627.3464628549002 128.0587224762146 L 628.0145383167257 128.06037503721444 L 628.6826137785513 128.06198994415172 L 629.3506892403766 128.0635680549829 L 630.0187647022024 128.06511020811598 L 630.6868401640277 128.06661722285554 L 631.3549156258532 128.0680898998384 L 632.0229910876785 128.06952902145872 L 632.6910665495041 128.07093535228353 L 633.3591420113296 128.07230963945943 L 634.0272174731551 128.07365261310886 L 634.6952929349804 128.07496498671856 L 635.3633683968058 128.07624745751815 L 636.0314438586313 128.07750070685097 L 636.6995193204568 128.07872540053563 L 637.3675947822824 128.0799221892201 L 638.0356702441079 128.08109170872717 L 638.7037457059332 128.08223458039222 L 639.3718211677585 128.08335141139355 L 640.0398966295841 128.08444279507455 L 640.7079720914096 128.08550931125933 L 641.3760475532351 128.08655152656064 L 642.0441230150604 128.08756999468062 L 642.712198476886 128.08856525670535 L 643.3802739387115 128.08953784139214 L 644.0483494005368 128.0904882654504 L 644.7164248623624 128.0914170338162 L 645.3845003241877 128.0923246399206 L 646.0525757860132 128.09321156595155 L 646.7206512478388 128.09407828311038 L 647.3887267096643 128.09492525186198 L 648.0568021714896 128.09575292217937 L 648.7248776333151 128.0965617337829 L 649.3929530951407 128.0973521163737 L 650.061028556966 128.09812448986207 L 650.7291040187915 128.09887926459066 L 651.3971794806171 128.09961684155218 L 652.0652549424424 128.10033761260274 L 652.7333304042679 128.10104196066985 L 653.4014058660932 128.10173025995596 L 654.0694813279188 128.10240287613718 L 654.7375567897443 128.10306016655767 L 655.4056322515698 128.10370248041926 L 656.0737077133952 128.1043301589673 L 656.7417831752205 128.10494353567162 L 657.4098586370462 128.1055429364039 L 658.0779340988715 128.10612867961086 L 658.7460095606971 128.10670107648312 L 659.4140850225226 128.1072604311209 L 660.0821604843479 128.10780704069535 L 660.7502359461735 128.10834119560644 L 661.418311407999 128.10886317963735 L 662.0863868698243 128.10937327010532 L 662.7544623316498 128.10987173800856 L 663.4225377934752 128.11035884817068 L 664.0906132553009 128.11083485938116 L 664.7586887171262 128.11130002453297 L 665.4267641789518 128.11175459075673 L 666.0948396407771 128.11219879955217 L 666.7629151026024 128.11263288691643 L 667.4309905644282 128.11305708346924 L 668.0990660262535 128.11347161457576 L 668.767141488079 128.11387670046605 L 669.4352169499045 128.1142725563522 L 670.1032924117299 128.11465939254253 L 670.7713678735554 128.11503741455357 L 671.4394433353807 128.11540682321908 L 672.1075187972062 128.11576781479658 L 672.7755942590318 128.1161205810721 L 673.4436697208573 128.11646530946146 L 674.1117451826826 128.1168021831104 L 674.7798206445082 128.1171313809915 L 675.4478961063337 128.11745307799947 L 676.115971568159 128.1177674450439 L 676.7840470299845 128.11807464914025 L 677.4521224918101 128.11837485349847 L 678.1201979536354 128.11866821760964 L 678.7882734154609 128.11895489733087 L 679.4563488772865 128.11923504496795 L 680.1244243391118 128.1195088093565 L 680.7924998009373 128.1197763359406 L 681.4605752627626 128.1200377668506 L 682.1286507245882 128.1202932409783 L 682.7967261864137 128.12054289405074 L 683.4648016482392 128.12078685870236 L 684.1328771100646 128.1210252645456 L 684.8009525718901 128.12125823823962 L 685.4690280337156 128.12148590355753 L 686.1371034955409 128.12170838145227 L 686.8051789573665 128.12192579012086 L 687.473254419192 128.12213824506716 L 688.1413298810173 128.12234585916323 L 688.8094053428429 128.12254874270928 L 689.4774808046682 128.1227470034923 L 690.1455562664937 128.1229407468434 L 690.8136317283193 128.12313007569358 L 691.4817071901448 128.12331509062864 L 692.1497826519701 128.12349588994232 L 692.8178581137956 128.12367256968898 L 693.4859335756212 128.12384522373412 L 694.1540090374465 128.12401394380453 L 694.822084499272 128.12417881953706 L 695.4901599610976 128.1243399385261 L 696.1582354229229 128.1244973863702 L 696.8263108847484 128.12465124671746 L 697.4943863465737 128.12480160131014 L 698.1624618083993 128.12494853002792 L 698.8305372702248 128.12509211093038 L 699.4986127320501 128.12523242029846 L 700.1666881938756 128.1253695326751 L 700.8347636557012 128.12550352090472 L 701.5028391175265 128.12563445617195 L 702.170914579352 128.12576240803946 L 702.8389900411776 128.12588744448487 L 703.5070655030031 128.12600963193705 L 704.1751409648284 128.12612903531112 L 704.843216426654 128.12624571804312 L 705.5112918884793 128.12635974212375 L 706.1793673503048 128.12647116813116 L 706.8474428121303 128.12658005526325 L 707.5155182739556 128.12668646136905 L 708.1835937357812 128.12679044297946 L 708.8516691976067 128.1268920553374 L 709.519744659432 128.12699135242698 L 710.1878201212576 128.1270883870023 L 710.8558955830831 128.1271832106154 L 711.5239710449086 128.12727587364378 L 712.192046506734 128.12736642531698 L 712.8601219685595 128.12745491374287 L 713.5281974303848 128.12754138593317 L 714.1962728922103 128.1276258878284 L 714.8643483540359 128.12770846432238 L 715.5324238158612 128.1277891592859 L 716.2004992776867 128.12786801559022 L 716.8685747395123 128.1279450751298 L 717.5366502013376 128.12802037884438 L 718.2047256631631 128.12809396674103 L 718.8728011249887 128.12816587791514 L 719.540876586814 128.12823615057135 L 720.2089520486395 128.12830482204384 L 720.8770275104648 128.12837192881597 L 721.5451029722906 128.12843750654002 L 722.2131784341159 128.12850159005575 L 722.8812538959414 128.1285642134091 L 723.5493293577667 128.12862540987044 L 724.2174048195923 128.12868521195182 L 724.8854802814178 128.12874365142466 L 725.5535557432431 128.12880075933646 L 726.2216312050687 128.12885656602714 L 726.8897066668942 128.12891110114543 L 727.5577821287195 128.1289643936646 L 728.225857590545 128.1290164718975 L 728.8939330523704 128.12906736351215 L 729.5620085141961 128.1291170955459 L 730.2300839760214 128.12916569442018 L 730.898159437847 128.12921318595443 L 731.5662348996723 128.12925959537964 L 732.2343103614978 128.12930494735207 L 732.9023858233234 128.12934926596603 L 733.5704612851487 128.12939257476694 L 734.2385367469742 128.1294348967637 L 734.9066122087997 128.12947625444096 L 735.574687670625 128.12951666977102 L 736.2427631324506 128.1295561642255 L 736.9108385942761 128.12959475878694 L 737.5789140561014 128.12963247395953 L 738.246989517927 128.12966932978054 L 738.9150649797523 128.12970534583047 L 739.5831404415778 128.1297405412438 L 740.2512159034034 128.1297749347189 L 740.9192913652289 128.12980854452837 L 741.5873668270542 128.12984138852806 L 742.2554422888797 128.12987348416726 L 742.9235177507053 128.12990484849766 L 743.5915932125306 128.12993549818225 L 744.2596686743561 128.12996544950454 L 744.9277441361817 128.12999471837682 L 745.595819598007 128.13002332034898 L 746.2638950598325 128.13005127061655 L 746.9319705216578 128.1300785840288 L 747.6000459834834 128.13010527509664 L 748.2681214453089 128.13013135800045 L 748.9361969071344 128.1301568465974 L 749.6042723689598 128.13018175442892 L 750.2723478307853 128.13020609472795 L 750.9404232926108 128.1302298804259 L 751.6084987544361 128.13025312415954 L 752.2765742162617 128.1302758382776 L 752.9446496780872 128.13029803484767 L 753.6127251399125 128.13031972566216 L 754.2808006017381 128.13034092224484 L 754.9488760635634 128.13036163585696 L 755.6169515253889 128.13038187750317 L 756.2850269872145 128.1304016579373 L 756.9531024490398 128.1304209876683 L 757.6211779108653 128.13043987696545 L 758.2892533726908 128.13045833586432 L 758.9573288345161 128.1304763741715 L 759.6254042963417 128.13049400147048 L 760.2934797581672 128.13051122712602 L 760.9615552199928 128.1305280602898 L 761.6296306818181 128.1305445099049" stroke-opacity="0.9" stroke-miterlimit="10" stroke-width="2" stroke-dasharray="6"/></g></g><g><g/><g><path fill="#ffffff" stroke="#e5e5e5" paint-order="fill stroke markers" d=" M 686.25 15 L 785 15 L 785 78 L 686.25 78 L 686.25 15 Z" fill-opacity="0.95" stroke-miterlimit="10" stroke-opacity="0.5"/><text fill="#444444" stroke="none" font-family="helvetica" font-size="10pt" font-style="normal" font-weight="normal" text-decoration="normal" x="721.25" y="35" text-anchor="start" dominant-baseline="central">Model</text><g><path fill="none" stroke="rgb(225,109,0)" paint-order="fill stroke markers" d=" M 696.25 35 L 716.25 35" stroke-opacity="0.9" stroke-miterlimit="10" stroke-width="2"/></g><text fill="#444444" stroke="none" font-family="helvetica" font-size="10pt" font-style="normal" font-weight="normal" text-decoration="normal" x="721.25" y="58" text-anchor="start" dominant-baseline="central">Original</text><g><path fill="none" stroke="rgb(102,180,211)" paint-order="fill stroke markers" d=" M 696.25 58 L 716.25 58" stroke-opacity="0.9" stroke-miterlimit="10" stroke-width="2" stroke-dasharray="6"/></g></g></g><g><g fill="#444444"><path fill="none" stroke="black" paint-order="fill stroke markers" d=" M 61 251 L 795 251" stroke-miterlimit="10"/><path fill="none" stroke="black" paint-order="fill stroke markers" d=" M 94 257 L 94 249" stroke-miterlimit="10"/><path fill="none" stroke="black" paint-order="fill stroke markers" d=" M 228 257 L 228 249" stroke-miterlimit="10"/><path fill="none" stroke="black" paint-order="fill stroke markers" d=" M 361 257 L 361 249" stroke-miterlimit="10"/><path fill="none" stroke="black" paint-order="fill stroke markers" d=" M 495 257 L 495 249" stroke-miterlimit="10"/><path fill="none" stroke="black" paint-order="fill stroke markers" d=" M 628 257 L 628 249" stroke-miterlimit="10"/><path fill="none" stroke="black" paint-order="fill stroke markers" d=" M 762 257 L 762 249" stroke-miterlimit="10"/><path fill="none" stroke="black" paint-order="fill stroke markers" d=" M 94 255 L 94 251" stroke-miterlimit="10"/><path fill="none" stroke="black" paint-order="fill stroke markers" d=" M 161 255 L 161 251" stroke-miterlimit="10"/><path fill="none" stroke="black" paint-order="fill stroke markers" d=" M 181 255 L 181 251" stroke-miterlimit="10"/><path fill="none" stroke="black" paint-order="fill stroke markers" d=" M 193 255 L 193 251" stroke-miterlimit="10"/><path fill="none" stroke="black" paint-order="fill stroke markers" d=" M 201 255 L 201 251" stroke-miterlimit="10"/><path fill="none" stroke="black" paint-order="fill stroke markers" d=" M 208 255 L 208 251" stroke-miterlimit="10"/><path fill="none" stroke="black" paint-order="fill stroke markers" d=" M 213 255 L 213 251" stroke-miterlimit="10"/><path fill="none" stroke="black" paint-order="fill stroke markers" d=" M 217 255 L 217 251" stroke-miterlimit="10"/><path fill="none" stroke="black" paint-order="fill stroke markers" d=" M 221 255 L 221 251" stroke-miterlimit="10"/><path fill="none" stroke="black" paint-order="fill stroke markers" d=" M 225 255 L 225 251" stroke-miterlimit="10"/><path fill="none" stroke="black" paint-order="fill stroke markers" d=" M 228 255 L 228 251" stroke-miterlimit="10"/><path fill="none" stroke="black" paint-order="fill stroke markers" d=" M 294 255 L 294 251" stroke-miterlimit="10"/><path fill="none" stroke="black" paint-order="fill stroke markers" d=" M 315 255 L 315 251" stroke-miterlimit="10"/><path fill="none" stroke="black" paint-order="fill stroke markers" d=" M 326 255 L 326 251" stroke-miterlimit="10"/><path fill="none" stroke="black" paint-order="fill stroke markers" d=" M 335 255 L 335 251" stroke-miterlimit="10"/><path fill="none" stroke="black" paint-order="fill stroke markers" d=" M 341 255 L 341 251" stroke-miterlimit="10"/><path fill="none" stroke="black" paint-order="fill stroke markers" d=" M 346 255 L 346 251" stroke-miterlimit="10"/><path fill="none" stroke="black" paint-order="fill stroke markers" d=" M 351 255 L 351 251" stroke-miterlimit="10"/><path fill="none" stroke="black" paint-order="fill stroke markers" d=" M 355 255 L 355 251" stroke-miterlimit="10"/><path fill="none" stroke="black" paint-order="fill stroke markers" d=" M 358 255 L 358 251" stroke-miterlimit="10"/><path fill="none" stroke="black" paint-order="fill stroke markers" d=" M 361 255 L 361 251" stroke-miterlimit="10"/><path fill="none" stroke="black" paint-order="fill stroke markers" d=" M 428 255 L 428 251" stroke-miterlimit="10"/><path fill="none" stroke="black" paint-order="fill stroke markers" d=" M 448 255 L 448 251" stroke-miterlimit="10"/><path fill="none" stroke="black" paint-order="fill stroke markers" d=" M 460 255 L 460 251" stroke-miterlimit="10"/><path fill="none" stroke="black" paint-order="fill stroke markers" d=" M 468 255 L 468 251" stroke-miterlimit="10"/><path fill="none" stroke="black" paint-order="fill stroke markers" d=" M 475 255 L 475 251" stroke-miterlimit="10"/><path fill="none" stroke="black" paint-order="fill stroke markers" d=" M 480 255 L 480 251" stroke-miterlimit="10"/><path fill="none" stroke="black" paint-order="fill stroke markers" d=" M 484 255 L 484 251" stroke-miterlimit="10"/><path fill="none" stroke="black" paint-order="fill stroke markers" d=" M 488 255 L 488 251" stroke-miterlimit="10"/><path fill="none" stroke="black" paint-order="fill stroke markers" d=" M 492 255 L 492 251" stroke-miterlimit="10"/><path fill="none" stroke="black" paint-order="fill stroke markers" d=" M 495 255 L 495 251" stroke-miterlimit="10"/><path fill="none" stroke="black" paint-order="fill stroke markers" d=" M 561 255 L 561 251" stroke-miterlimit="10"/><path fill="none" stroke="black" paint-order="fill stroke markers" d=" M 581 255 L 581 251" stroke-miterlimit="10"/><path fill="none" stroke="black" paint-order="fill stroke markers" d=" M 593 255 L 593 251" stroke-miterlimit="10"/><path fill="none" stroke="black" paint-order="fill stroke markers" d=" M 602 255 L 602 251" stroke-miterlimit="10"/><path fill="none" stroke="black" paint-order="fill stroke markers" d=" M 608 255 L 608 251" stroke-miterlimit="10"/><path fill="none" stroke="black" paint-order="fill stroke markers" d=" M 613 255 L 613 251" stroke-miterlimit="10"/><path fill="none" stroke="black" paint-order="fill stroke markers" d=" M 618 255 L 618 251" stroke-miterlimit="10"/><path fill="none" stroke="black" paint-order="fill stroke markers" d=" M 622 255 L 622 251" stroke-miterlimit="10"/><path fill="none" stroke="black" paint-order="fill stroke markers" d=" M 625 255 L 625 251" stroke-miterlimit="10"/><path fill="none" stroke="black" paint-order="fill stroke markers" d=" M 628 255 L 628 251" stroke-miterlimit="10"/><path fill="none" stroke="black" paint-order="fill stroke markers" d=" M 695 255 L 695 251" stroke-miterlimit="10"/><path fill="none" stroke="black" paint-order="fill stroke markers" d=" M 715 255 L 715 251" stroke-miterlimit="10"/><path fill="none" stroke="black" paint-order="fill stroke markers" d=" M 727 255 L 727 251" stroke-miterlimit="10"/><path fill="none" stroke="black" paint-order="fill stroke markers" d=" M 735 255 L 735 251" stroke-miterlimit="10"/><path fill="none" stroke="black" paint-order="fill stroke markers" d=" M 742 255 L 742 251" stroke-miterlimit="10"/><path fill="none" stroke="black" paint-order="fill stroke markers" d=" M 747 255 L 747 251" stroke-miterlimit="10"/><path fill="none" stroke="black" paint-order="fill stroke markers" d=" M 751 255 L 751 251" stroke-miterlimit="10"/><path fill="none" stroke="black" paint-order="fill stroke markers" d=" M 755 255 L 755 251" stroke-miterlimit="10"/><path fill="none" stroke="black" paint-order="fill stroke markers" d=" M 759 255 L 759 251" stroke-miterlimit="10"/><path fill="" stroke="black" paint-order="fill stroke markers" d=" M 762 255 L 762 251" stroke-miterlimit="10"/><g transform="translate(94,262) rotate(0,0,0)"><text fill="" stroke="none" font-family="helvetica" font-size="8pt" font-style="normal" font-weight="normal" text-decoration="normal" x="0" y="0" text-anchor="middle" dominant-baseline="hanging">10^-5</text><g transform="rotate(0,0,0) translate(-94,-262) translate(228,262) rotate(0,0,0)"><text fill="" stroke="none" font-family="helvetica" font-size="8pt" font-style="normal" font-weight="normal" text-decoration="normal" x="0" y="0" text-anchor="middle" dominant-baseline="hanging">10^-3</text><g transform="rotate(0,0,0) translate(-228,-262) translate(361,262) rotate(0,0,0)"><text fill="" stroke="none" font-family="helvetica" font-size="8pt" font-style="normal" font-weight="normal" text-decoration="normal" x="0" y="0" text-anchor="middle" dominant-baseline="hanging">10^-1</text><g transform="rotate(0,0,0) translate(-361,-262) translate(495,262) rotate(0,0,0)"><text fill="" stroke="none" font-family="helvetica" font-size="8pt" font-style="normal" font-weight="normal" text-decoration="normal" x="0" y="0" text-anchor="middle" dominant-baseline="hanging">10^1</text><g transform="rotate(0,0,0) translate(-495,-262) translate(628,262) rotate(0,0,0)"><text fill="" stroke="none" font-family="helvetica" font-size="8pt" font-style="normal" font-weight="normal" text-decoration="normal" x="0" y="0" text-anchor="middle" dominant-baseline="hanging">10^3</text><g transform="rotate(0,0,0) translate(-628,-262) translate(762,262) rotate(0,0,0)"><text fill="" stroke="none" font-family="helvetica" font-size="8pt" font-style="normal" font-weight="normal" text-decoration="normal" x="0" y="0" text-anchor="middle" dominant-baseline="hanging">10^5</text><g transform="rotate(0,0,0) translate(-762,-262) translate(775,282) rotate(0,0,0)"><text fill="" stroke="none" font-family="helvetica" font-size="10pt" font-style="italic" font-weight="normal" text-decoration="normal" x="0" y="0" text-anchor="middle" dominant-baseline="hanging">Frequency [rad/s]</text><g transform="rotate(0,0,0) translate(-775,-282)"/></g></g></g></g></g></g></g></g><g fill="#444444"><path fill="none" stroke="black" paint-order="fill stroke markers" d=" M 61 251 L 61 5" stroke-miterlimit="10"/><path fill="none" stroke="black" paint-order="fill stroke markers" d=" M 55 244 L 63 244" stroke-miterlimit="10"/><path fill="none" stroke="black" paint-order="fill stroke markers" d=" M 55 210 L 63 210" stroke-miterlimit="10"/><path fill="none" stroke="black" paint-order="fill stroke markers" d=" M 55 176 L 63 176" stroke-miterlimit="10"/><path fill="none" stroke="black" paint-order="fill stroke markers" d=" M 55 142 L 63 142" stroke-miterlimit="10"/><path fill="none" stroke="black" paint-order="fill stroke markers" d=" M 55 108 L 63 108" stroke-miterlimit="10"/><path fill="none" stroke="black" paint-order="fill stroke markers" d=" M 55 73 L 63 73" stroke-miterlimit="10"/><path fill="none" stroke="black" paint-order="fill stroke markers" d=" M 55 39 L 63 39" stroke-miterlimit="10"/><path fill="none" stroke="black" paint-order="fill stroke markers" d=" M 55 5 L 63 5" stroke-miterlimit="10"/><path fill="none" stroke="black" paint-order="fill stroke markers" d=" M 57 251 L 61 251" stroke-miterlimit="10"/><path fill="none" stroke="black" paint-order="fill stroke markers" d=" M 57 244 L 61 244" stroke-miterlimit="10"/><path fill="none" stroke="black" paint-order="fill stroke markers" d=" M 57 238 L 61 238" stroke-miterlimit="10"/><path fill="none" stroke="black" paint-order="fill stroke markers" d=" M 57 231 L 61 231" stroke-miterlimit="10"/><path fill="none" stroke="black" paint-order="fill stroke markers" d=" M 57 224 L 61 224" stroke-miterlimit="10"/><path fill="none" stroke="black" paint-order="fill stroke markers" d=" M 57 217 L 61 217" stroke-miterlimit="10"/><path fill="none" stroke="black" paint-order="fill stroke markers" d=" M 57 210 L 61 210" stroke-miterlimit="10"/><path fill="none" stroke="black" paint-order="fill stroke markers" d=" M 57 203 L 61 203" stroke-miterlimit="10"/><path fill="none" stroke="black" paint-order="fill stroke markers" d=" M 57 197 L 61 197" stroke-miterlimit="10"/><path fill="none" stroke="black" paint-order="fill stroke markers" d=" M 57 190 L 61 190" stroke-miterlimit="10"/><path fill="none" stroke="black" paint-order="fill stroke markers" d=" M 57 183 L 61 183" stroke-miterlimit="10"/><path fill="none" stroke="black" paint-order="fill stroke markers" d=" M 57 176 L 61 176" stroke-miterlimit="10"/><path fill="none" stroke="black" paint-order="fill stroke markers" d=" M 57 169 L 61 169" stroke-miterlimit="10"/><path fill="none" stroke="black" paint-order="fill stroke markers" d=" M 57 162 L 61 162" stroke-miterlimit="10"/><path fill="none" stroke="black" paint-order="fill stroke markers" d=" M 57 155 L 61 155" stroke-miterlimit="10"/><path fill="none" stroke="black" paint-order="fill stroke markers" d=" M 57 149 L 61 149" stroke-miterlimit="10"/><path fill="none" stroke="black" paint-order="fill stroke markers" d=" M 57 142 L 61 142" stroke-miterlimit="10"/><path fill="none" stroke="black" paint-order="fill stroke markers" d=" M 57 135 L 61 135" stroke-miterlimit="10"/><path fill="none" stroke="black" paint-order="fill stroke markers" d=" M 57 128 L 61 128" stroke-miterlimit="10"/><path fill="none" stroke="black" paint-order="fill stroke markers" d=" M 57 121 L 61 121" stroke-miterlimit="10"/><path fill="none" stroke="black" paint-order="fill stroke markers" d=" M 57 114 L 61 114" stroke-miterlimit="10"/><path fill="none" stroke="black" paint-order="fill stroke markers" d=" M 57 108 L 61 108" stroke-miterlimit="10"/><path fill="none" stroke="black" paint-order="fill stroke markers" d=" M 57 101 L 61 101" stroke-miterlimit="10"/><path fill="none" stroke="black" paint-order="fill stroke markers" d=" M 57 94 L 61 94" stroke-miterlimit="10"/><path fill="none" stroke="black" paint-order="fill stroke markers" d=" M 57 87 L 61 87" stroke-miterlimit="10"/><path fill="none" stroke="black" paint-order="fill stroke markers" d=" M 57 80 L 61 80" stroke-miterlimit="10"/><path fill="none" stroke="black" paint-order="fill stroke markers" d=" M 57 73 L 61 73" stroke-miterlimit="10"/><path fill="none" stroke="black" paint-order="fill stroke markers" d=" M 57 67 L 61 67" stroke-miterlimit="10"/><path fill="none" stroke="black" paint-order="fill stroke markers" d=" M 57 60 L 61 60" stroke-miterlimit="10"/><path fill="none" stroke="black" paint-order="fill stroke markers" d=" M 57 53 L 61 53" stroke-miterlimit="10"/><path fill="none" stroke="black" paint-order="fill stroke markers" d=" M 57 46 L 61 46" stroke-miterlimit="10"/><path fill="none" stroke="black" paint-order="fill stroke markers" d=" M 57 39 L 61 39" stroke-miterlimit="10"/><path fill="none" stroke="black" paint-order="fill stroke markers" d=" M 57 32 L 61 32" stroke-miterlimit="10"/><path fill="none" stroke="black" paint-order="fill stroke markers" d=" M 57 26 L 61 26" stroke-miterlimit="10"/><path fill="none" stroke="black" paint-order="fill stroke markers" d=" M 57 19 L 61 19" stroke-miterlimit="10"/><path fill="none" stroke="black" paint-order="fill stroke markers" d=" M 57 12 L 61 12" stroke-miterlimit="10"/><path fill="" stroke="black" paint-order="fill stroke markers" d=" M 57 5 L 61 5" stroke-miterlimit="10"/><g transform="translate(50,244) rotate(0,0,0)"><text fill="" stroke="none" font-family="helvetica" font-size="8pt" font-style="normal" font-weight="normal" text-decoration="normal" x="0" y="0" text-anchor="end" dominant-baseline="central">-350</text><g transform="rotate(0,0,0) translate(-50,-244) translate(50,210) rotate(0,0,0)"><text fill="" stroke="none" font-family="helvetica" font-size="8pt" font-style="normal" font-weight="normal" text-decoration="normal" x="0" y="0" text-anchor="end" dominant-baseline="central">-300</text><g transform="rotate(0,0,0) translate(-50,-210) translate(50,176) rotate(0,0,0)"><text fill="" stroke="none" font-family="helvetica" font-size="8pt" font-style="normal" font-weight="normal" text-decoration="normal" x="0" y="0" text-anchor="end" dominant-baseline="central">-250</text><g transform="rotate(0,0,0) translate(-50,-176) translate(50,142) rotate(0,0,0)"><text fill="" stroke="none" font-family="helvetica" font-size="8pt" font-style="normal" font-weight="normal" text-decoration="normal" x="0" y="0" text-anchor="end" dominant-baseline="central">-200</text><g transform="rotate(0,0,0) translate(-50,-142) translate(50,108) rotate(0,0,0)"><text fill="" stroke="none" font-family="helvetica" font-size="8pt" font-style="normal" font-weight="normal" text-decoration="normal" x="0" y="0" text-anchor="end" dominant-baseline="central">-150</text><g transform="rotate(0,0,0) translate(-50,-108) translate(50,73) rotate(0,0,0)"><text fill="" stroke="none" font-family="helvetica" font-size="8pt" font-style="normal" font-weight="normal" text-decoration="normal" x="0" y="0" text-anchor="end" dominant-baseline="central">-100</text><g transform="rotate(0,0,0) translate(-50,-73) translate(50,39) rotate(0,0,0)"><text fill="" stroke="none" font-family="helvetica" font-size="8pt" font-style="normal" font-weight="normal" text-decoration="normal" x="0" y="0" text-anchor="end" dominant-baseline="central">-50</text><g transform="rotate(0,0,0) translate(-50,-39) translate(50,5) rotate(0,0,0)"><text fill="" stroke="none" font-family="helvetica" font-size="8pt" font-style="normal" font-weight="normal" text-decoration="normal" x="0" y="0" text-anchor="end" dominant-baseline="central">0</text><g transform="rotate(0,0,0) translate(-50,-5) translate(18,128) rotate(-90,0,0)"><text fill="" stroke="none" font-family="helvetica" font-size="10pt" font-style="italic" font-weight="normal" text-decoration="normal" x="0" y="0" text-anchor="middle" dominant-baseline="alphabetic">Phase [rad]</text><g transform="rotate(90,0,0) translate(-18,-128)"/></g></g></g></g></g></g></g></g></g></g></g></g></g></svg>