<?xml version="1.0" encoding="utf-8" standalone="no"?>
<!DOCTYPE svg PUBLIC "-//W3C//DTD SVG 1.1//EN"
  "http://www.w3.org/Graphics/SVG/1.1/DTD/svg11.dtd">
<!-- Created with matplotlib (http://matplotlib.org/) -->
<svg height="283pt" version="1.1" viewBox="0 0 566 283" width="566pt" xmlns="http://www.w3.org/2000/svg" xmlns:xlink="http://www.w3.org/1999/xlink">
 <defs>
  <style type="text/css">
*{stroke-linecap:butt;stroke-linejoin:round;}
  </style>
 </defs>
 <g id="figure_1">
  <g id="patch_1">
   <path d="M 0 283.464567 
L 566.929134 283.464567 
L 566.929134 0 
L 0 0 
z
" style="fill:#ffffff;"/>
  </g>
  <g id="axes_1">
   <g id="patch_2">
    <path d="M 70.866142 248.031496 
L 510.23622 248.031496 
L 510.23622 34.015748 
L 70.866142 34.015748 
z
" style="fill:#ffffff;"/>
   </g>
   <g id="matplotlib.axis_1">
    <g id="xtick_1">
     <g id="line2d_1">
      <path clip-path="url(#pa2c61c1185)" d="M 106.565198 248.031496 
L 106.565198 34.015748 
" style="fill:none;stroke:#cccccc;stroke-linecap:round;stroke-width:0.8;"/>
     </g>
     <g id="line2d_2"/>
     <g id="text_1">
      <text style="fill:#262626;font-family:Arial;font-size:10px;font-style:normal;font-weight:400;text-anchor:middle;" transform="rotate(-0, 106.565198, 258.689309)" x="106.565198" y="258.689309">−0.50</text>
     </g>
    </g>
    <g id="xtick_2">
     <g id="line2d_3">
      <path clip-path="url(#pa2c61c1185)" d="M 161.865726 248.031496 
L 161.865726 34.015748 
" style="fill:none;stroke:#cccccc;stroke-linecap:round;stroke-width:0.8;"/>
     </g>
     <g id="line2d_4"/>
     <g id="text_2">
      <text style="fill:#262626;font-family:Arial;font-size:10px;font-style:normal;font-weight:400;text-anchor:middle;" transform="rotate(-0, 161.865726, 258.689309)" x="161.865726" y="258.689309">−0.25</text>
     </g>
    </g>
    <g id="xtick_3">
     <g id="line2d_5">
      <path clip-path="url(#pa2c61c1185)" d="M 217.166253 248.031496 
L 217.166253 34.015748 
" style="fill:none;stroke:#cccccc;stroke-linecap:round;stroke-width:0.8;"/>
     </g>
     <g id="line2d_6"/>
     <g id="text_3">
      <text style="fill:#262626;font-family:Arial;font-size:10px;font-style:normal;font-weight:400;text-anchor:middle;" transform="rotate(-0, 217.166253, 258.689309)" x="217.166253" y="258.689309">0.00</text>
     </g>
    </g>
    <g id="xtick_4">
     <g id="line2d_7">
      <path clip-path="url(#pa2c61c1185)" d="M 272.466781 248.031496 
L 272.466781 34.015748 
" style="fill:none;stroke:#cccccc;stroke-linecap:round;stroke-width:0.8;"/>
     </g>
     <g id="line2d_8"/>
     <g id="text_4">
      <text style="fill:#262626;font-family:Arial;font-size:10px;font-style:normal;font-weight:400;text-anchor:middle;" transform="rotate(-0, 272.466781, 258.689309)" x="272.466781" y="258.689309">0.25</text>
     </g>
    </g>
    <g id="xtick_5">
     <g id="line2d_9">
      <path clip-path="url(#pa2c61c1185)" d="M 327.767308 248.031496 
L 327.767308 34.015748 
" style="fill:none;stroke:#cccccc;stroke-linecap:round;stroke-width:0.8;"/>
     </g>
     <g id="line2d_10"/>
     <g id="text_5">
      <text style="fill:#262626;font-family:Arial;font-size:10px;font-style:normal;font-weight:400;text-anchor:middle;" transform="rotate(-0, 327.767308, 258.689309)" x="327.767308" y="258.689309">0.50</text>
     </g>
    </g>
    <g id="xtick_6">
     <g id="line2d_11">
      <path clip-path="url(#pa2c61c1185)" d="M 383.067836 248.031496 
L 383.067836 34.015748 
" style="fill:none;stroke:#cccccc;stroke-linecap:round;stroke-width:0.8;"/>
     </g>
     <g id="line2d_12"/>
     <g id="text_6">
      <text style="fill:#262626;font-family:Arial;font-size:10px;font-style:normal;font-weight:400;text-anchor:middle;" transform="rotate(-0, 383.067836, 258.689309)" x="383.067836" y="258.689309">0.75</text>
     </g>
    </g>
    <g id="xtick_7">
     <g id="line2d_13">
      <path clip-path="url(#pa2c61c1185)" d="M 438.368363 248.031496 
L 438.368363 34.015748 
" style="fill:none;stroke:#cccccc;stroke-linecap:round;stroke-width:0.8;"/>
     </g>
     <g id="line2d_14"/>
     <g id="text_7">
      <text style="fill:#262626;font-family:Arial;font-size:10px;font-style:normal;font-weight:400;text-anchor:middle;" transform="rotate(-0, 438.368363, 258.689309)" x="438.368363" y="258.689309">1.00</text>
     </g>
    </g>
    <g id="xtick_8">
     <g id="line2d_15">
      <path clip-path="url(#pa2c61c1185)" d="M 493.668891 248.031496 
L 493.668891 34.015748 
" style="fill:none;stroke:#cccccc;stroke-linecap:round;stroke-width:0.8;"/>
     </g>
     <g id="line2d_16"/>
     <g id="text_8">
      <text style="fill:#262626;font-family:Arial;font-size:10px;font-style:normal;font-weight:400;text-anchor:middle;" transform="rotate(-0, 493.668891, 258.689309)" x="493.668891" y="258.689309">1.25</text>
     </g>
    </g>
    <g id="text_9">
     <text style="fill:#262626;font-family:Arial;font-size:10px;font-style:normal;font-weight:400;text-anchor:middle;" transform="rotate(-0, 290.551181, 271.834621)" x="290.551181" y="271.834621">Re</text>
    </g>
   </g>
   <g id="matplotlib.axis_2">
    <g id="ytick_1">
     <g id="line2d_17">
      <path clip-path="url(#pa2c61c1185)" d="M 70.866142 241.037676 
L 510.23622 241.037676 
" style="fill:none;stroke:#cccccc;stroke-linecap:round;stroke-width:0.8;"/>
     </g>
     <g id="line2d_18"/>
     <g id="text_10">
      <text style="fill:#262626;font-family:Arial;font-size:10px;font-style:normal;font-weight:400;text-anchor:end;" transform="rotate(-0, 67.366142, 244.616582)" x="67.366142" y="244.616582">−1.0</text>
     </g>
    </g>
    <g id="ytick_2">
     <g id="line2d_19">
      <path clip-path="url(#pa2c61c1185)" d="M 70.866142 211.84974 
L 510.23622 211.84974 
" style="fill:none;stroke:#cccccc;stroke-linecap:round;stroke-width:0.8;"/>
     </g>
     <g id="line2d_20"/>
     <g id="text_11">
      <text style="fill:#262626;font-family:Arial;font-size:10px;font-style:normal;font-weight:400;text-anchor:end;" transform="rotate(-0, 67.366142, 215.428646)" x="67.366142" y="215.428646">−0.8</text>
     </g>
    </g>
    <g id="ytick_3">
     <g id="line2d_21">
      <path clip-path="url(#pa2c61c1185)" d="M 70.866142 182.661803 
L 510.23622 182.661803 
" style="fill:none;stroke:#cccccc;stroke-linecap:round;stroke-width:0.8;"/>
     </g>
     <g id="line2d_22"/>
     <g id="text_12">
      <text style="fill:#262626;font-family:Arial;font-size:10px;font-style:normal;font-weight:400;text-anchor:end;" transform="rotate(-0, 67.366142, 186.24071)" x="67.366142" y="186.24071">−0.6</text>
     </g>
    </g>
    <g id="ytick_4">
     <g id="line2d_23">
      <path clip-path="url(#pa2c61c1185)" d="M 70.866142 153.473867 
L 510.23622 153.473867 
" style="fill:none;stroke:#cccccc;stroke-linecap:round;stroke-width:0.8;"/>
     </g>
     <g id="line2d_24"/>
     <g id="text_13">
      <text style="fill:#262626;font-family:Arial;font-size:10px;font-style:normal;font-weight:400;text-anchor:end;" transform="rotate(-0, 67.366142, 157.052773)" x="67.366142" y="157.052773">−0.4</text>
     </g>
    </g>
    <g id="ytick_5">
     <g id="line2d_25">
      <path clip-path="url(#pa2c61c1185)" d="M 70.866142 124.285931 
L 510.23622 124.285931 
" style="fill:none;stroke:#cccccc;stroke-linecap:round;stroke-width:0.8;"/>
     </g>
     <g id="line2d_26"/>
     <g id="text_14">
      <text style="fill:#262626;font-family:Arial;font-size:10px;font-style:normal;font-weight:400;text-anchor:end;" transform="rotate(-0, 67.366142, 127.864837)" x="67.366142" y="127.864837">−0.2</text>
     </g>
    </g>
    <g id="ytick_6">
     <g id="line2d_27">
      <path clip-path="url(#pa2c61c1185)" d="M 70.866142 95.097995 
L 510.23622 95.097995 
" style="fill:none;stroke:#cccccc;stroke-linecap:round;stroke-width:0.8;"/>
     </g>
     <g id="line2d_28"/>
     <g id="text_15">
      <text style="fill:#262626;font-family:Arial;font-size:10px;font-style:normal;font-weight:400;text-anchor:end;" transform="rotate(-0, 67.366142, 98.676901)" x="67.366142" y="98.676901">0.0</text>
     </g>
    </g>
    <g id="ytick_7">
     <g id="line2d_29">
      <path clip-path="url(#pa2c61c1185)" d="M 70.866142 65.910058 
L 510.23622 65.910058 
" style="fill:none;stroke:#cccccc;stroke-linecap:round;stroke-width:0.8;"/>
     </g>
     <g id="line2d_30"/>
     <g id="text_16">
      <text style="fill:#262626;font-family:Arial;font-size:10px;font-style:normal;font-weight:400;text-anchor:end;" transform="rotate(-0, 67.366142, 69.488965)" x="67.366142" y="69.488965">0.2</text>
     </g>
    </g>
    <g id="ytick_8">
     <g id="line2d_31">
      <path clip-path="url(#pa2c61c1185)" d="M 70.866142 36.722122 
L 510.23622 36.722122 
" style="fill:none;stroke:#cccccc;stroke-linecap:round;stroke-width:0.8;"/>
     </g>
     <g id="line2d_32"/>
     <g id="text_17">
      <text style="fill:#262626;font-family:Arial;font-size:10px;font-style:normal;font-weight:400;text-anchor:end;" transform="rotate(-0, 67.366142, 40.301028)" x="67.366142" y="40.301028">0.4</text>
     </g>
    </g>
    <g id="text_18">
     <text style="fill:#262626;font-family:Arial;font-size:10px;font-style:normal;font-weight:400;text-anchor:middle;" transform="rotate(-90, 41.638017, 141.023622)" x="41.638017" y="141.023622">Im</text>
    </g>
   </g>
   <g id="line2d_33">
    <path clip-path="url(#pa2c61c1185)" d="M 490.255278 95.105201 
L 490.147608 99.67382 
L 489.826203 104.229148 
L 489.272142 108.910886 
L 488.547282 113.288837 
L 487.550193 117.964102 
L 486.349296 122.536079 
L 484.871137 127.256046 
L 483.169855 131.914247 
L 481.352364 136.277782 
L 479.074882 141.119873 
L 476.846719 145.362751 
L 474.183128 149.95226 
L 471.002826 154.90244 
L 468.222049 158.85776 
L 465.052182 163.023249 
L 461.442734 167.39802 
L 457.337911 171.977805 
L 452.676474 176.754094 
L 447.39175 181.713115 
L 443.487037 185.110971 
L 439.250982 188.573366 
L 434.660289 192.090719 
L 429.691005 195.651504 
L 424.318725 199.242032 
L 418.518861 202.84622 
L 412.266974 206.445348 
L 405.539195 210.017825 
L 398.312726 213.538955 
L 390.566453 216.980717 
L 382.281655 220.31158 
L 373.442849 223.496347 
L 364.038747 226.496065 
L 354.063344 229.268017 
L 343.517139 231.765806 
L 338.032243 232.896436 
L 332.408457 233.93958 
L 326.64828 234.888528 
L 320.754881 235.736413 
L 314.732149 236.476233 
L 308.584737 237.100876 
L 302.318114 237.603154 
L 295.938606 237.975836 
L 289.45344 238.211685 
L 282.870786 238.303508 
L 276.199795 238.244196 
L 269.450632 238.026787 
L 262.634502 237.644516 
L 255.763672 237.090883 
L 248.851485 236.359716 
L 241.912365 235.445247 
L 234.96181 234.342186 
L 228.016379 233.045799 
L 221.093659 231.55199 
L 214.212225 229.857387 
L 207.391582 227.959426 
L 200.652094 225.856438 
L 194.014888 223.54773 
L 187.501752 221.033671 
L 181.13501 218.315768 
L 174.937372 215.39674 
L 168.93178 212.280583 
L 163.141223 208.972625 
L 157.588544 205.479572 
L 152.296227 201.809543 
L 147.286174 197.972083 
L 142.579468 193.978166 
L 138.196129 189.840179 
L 134.154865 185.571881 
L 130.472823 181.188347 
L 127.165343 176.705891 
L 124.245721 172.141957 
L 121.724981 167.515 
L 119.611671 162.844338 
L 117.91168 158.149988 
L 116.628085 153.452475 
L 115.761025 148.772638 
L 115.307625 144.13141 
L 115.261949 139.549593 
L 115.615006 135.047631 
L 116.354797 130.645369 
L 117.466416 126.361831 
L 118.932189 122.214991 
L 120.731867 118.221566 
L 122.842857 114.39682 
L 125.240497 110.754392 
L 127.898358 107.306148 
L 130.788582 104.062066 
L 133.882235 101.030142 
L 137.149675 98.216343 
L 140.56093 95.624578 
L 144.086068 93.256719 
L 147.695562 91.112642 
L 151.36063 89.190306 
L 155.05356 87.485862 
L 158.748 85.993783 
L 162.419209 84.707016 
L 166.044275 83.617158 
L 169.602288 82.714635 
L 173.074469 81.988901 
L 176.444261 81.428627 
L 179.697367 81.021903 
L 182.821759 80.756428 
L 188.647396 80.599139 
L 193.868233 80.857145 
L 198.462377 81.434873 
L 202.434297 82.24445 
L 205.809461 83.208217 
L 208.628836 84.260116 
L 210.943671 85.346116 
L 212.810884 86.423859 
L 214.289226 87.461731 
L 215.902731 88.897561 
L 216.948945 90.153147 
L 217.58096 91.215256 
L 217.989512 92.342743 
L 218.094148 93.352222 
L 217.958186 94.120193 
L 217.622208 94.746367 
L 217.191478 95.091353 
L 217.166253 95.097995 
L 217.166253 95.097995 
" style="fill:none;stroke:#1f77b4;stroke-linecap:round;stroke-width:1.5;"/>
   </g>
   <g id="line2d_34">
    <path clip-path="url(#pa2c61c1185)" d="M 490.264853 95.105203 
L 490.154308 99.674372 
L 489.824386 104.229457 
L 489.255886 108.909288 
L 488.512595 113.283191 
L 487.491001 117.95091 
L 486.26189 122.511501 
L 484.750945 127.214723 
L 483.014566 131.850607 
L 481.16268 136.187303 
L 478.846588 140.992086 
L 476.585446 145.195105 
L 473.888599 149.733273 
L 470.677299 154.617719 
L 467.877102 158.512249 
L 464.693739 162.605306 
L 461.079994 166.894252 
L 456.984406 171.373012 
L 452.351379 176.031308 
L 447.121475 180.853799 
L 443.272403 184.149748 
L 439.110975 187.501313 
L 434.617607 190.89895 
L 429.772557 194.331452 
L 424.556155 197.785804 
L 418.949078 201.247052 
L 412.932665 204.698179 
L 406.489289 208.12 
L 399.60278 211.491072 
L 392.258892 214.787644 
L 384.445827 217.983629 
L 376.154794 221.050635 
L 367.380612 223.958042 
L 358.122333 226.67314 
L 348.383877 229.161338 
L 338.174671 231.386445 
L 327.510249 233.311034 
L 316.412817 234.896877 
L 304.911738 236.105475 
L 299.021064 236.556345 
L 293.043928 236.898646 
L 286.986169 237.127764 
L 280.854124 237.239191 
L 274.654627 237.228547 
L 268.395008 237.091607 
L 262.08309 236.824321 
L 255.727174 236.422841 
L 249.336035 235.883546 
L 242.918904 235.203062 
L 236.485454 234.37829 
L 230.045774 233.406425 
L 223.610355 232.284982 
L 217.190059 231.011813 
L 210.79609 229.585132 
L 204.43997 228.003529 
L 198.133499 226.265991 
L 191.888726 224.371914 
L 185.71791 222.321121 
L 179.633485 220.113874 
L 173.648018 217.750881 
L 167.774172 215.233311 
L 162.024664 212.562794 
L 156.412226 209.741434 
L 150.94956 206.771805 
L 145.649305 203.656959 
L 140.523989 200.400423 
L 135.585993 197.006199 
L 130.847512 193.478761 
L 126.320517 189.82305 
L 122.016715 186.044472 
L 117.947516 182.14889 
L 114.123997 178.142618 
L 110.556866 174.032414 
L 107.256431 169.82547 
L 104.232567 165.529407 
L 101.494683 161.152267 
L 99.051691 156.702499 
L 96.911976 152.188958 
L 95.083362 147.620891 
L 93.573084 143.00793 
L 92.387753 138.360085 
L 91.533325 133.687733 
L 91.015064 129.001612 
L 90.837509 124.312811 
L 91.004434 119.632761 
L 91.518807 114.973225 
L 92.38275 110.346288 
L 93.59749 105.764347 
L 95.163312 101.240095 
L 97.079505 96.786508 
L 99.344308 92.41683 
L 101.954848 88.144549 
L 104.90708 83.983378 
L 108.195716 79.947225 
L 111.814158 76.050166 
L 115.754422 72.306403 
L 120.007063 68.730227 
L 124.561099 65.335967 
L 129.403924 62.137932 
L 134.521235 59.150352 
L 139.896946 56.387299 
L 145.513113 53.862611 
L 151.349859 51.589792 
L 157.385303 49.581912 
L 163.595496 47.851493 
L 169.954372 46.410375 
L 176.433707 45.269581 
L 183.003092 44.439158 
L 189.629929 43.928014 
L 196.279445 43.743737 
L 202.91474 43.892399 
L 209.496858 44.378357 
L 215.984897 45.204035 
L 222.33616 46.369699 
L 228.50635 47.873229 
L 234.44982 49.709883 
L 240.119868 51.872061 
L 245.46911 54.349076 
L 250.449899 57.126931 
L 255.014829 60.18811 
L 259.117305 63.511395 
L 262.712185 67.071709 
L 265.756508 70.839998 
L 268.210287 74.783166 
L 270.037378 78.864064 
L 271.20642 83.041553 
L 271.691823 87.27065 
L 271.474809 91.502771 
L 270.544479 95.686079 
L 268.898888 99.765964 
L 266.546097 103.685639 
L 263.50518 107.386897 
L 259.80714 110.811005 
L 255.495694 113.89976 
L 250.627874 116.596702 
L 245.274399 118.848467 
L 239.519751 120.606291 
L 233.461897 121.827625 
L 227.211597 122.477839 
L 220.891233 122.531976 
L 214.633103 121.976511 
L 208.577144 120.811031 
L 202.868034 119.049791 
L 197.651668 116.723024 
L 193.071018 113.877937 
L 189.261419 110.579259 
L 186.345362 106.909246 
L 184.426914 102.967018 
L 183.585946 98.867124 
L 183.872404 94.737239 
L 185.30089 90.714924 
L 187.845911 86.943418 
L 191.438166 83.566465 
L 195.962301 80.722266 
L 201.256558 78.536691 
L 207.114748 77.115995 
L 213.290915 76.539362 
L 219.506986 76.851704 
L 225.463555 78.057223 
L 230.853744 80.114339 
L 235.379866 82.932614 
L 238.772294 86.372333 
L 240.809613 90.24734 
L 241.338784 94.331621 
L 240.293704 98.369929 
L 237.71027 102.092433 
L 233.73587 105.233035 
L 228.631204 107.550484 
L 222.762555 108.850948 
L 216.583132 109.01012 
L 210.602915 107.99249 
L 205.347667 105.865043 
L 201.309269 102.802529 
L 198.891373 99.081727 
L 198.356183 95.062884 
L 199.779825 91.157871 
L 203.024648 87.78661 
L 207.736395 85.325795 
L 213.37196 84.056563 
L 219.258994 84.119809 
L 224.68232 85.488533 
L 228.985037 87.964972 
L 231.666468 91.206166 
L 232.457052 94.77536 
L 231.353704 98.210157 
L 228.607801 101.093599 
L 224.669525 103.113498 
L 220.102757 104.098696 
L 215.490603 104.027417 
L 211.351234 103.009979 
L 208.078057 101.253546 
L 205.910134 99.01888 
L 204.93106 96.578348 
L 205.089473 94.181741 
L 206.232262 92.033127 
L 208.142115 90.279032 
L 210.572954 89.006316 
L 213.279335 88.247121 
L 216.03803 87.988161 
L 218.661741 88.181966 
L 221.005862 88.758261 
L 222.969765 89.634306 
L 224.494137 90.723509 
L 225.555834 91.942079 
L 226.16142 93.213736 
L 226.340305 94.472677 
L 226.138139 95.665099 
L 225.610845 96.749572 
L 224.819539 97.696584 
L 223.826402 98.487508 
L 222.691511 99.113234 
L 221.47054 99.572629 
L 220.213238 99.870964 
L 218.962547 100.01841 
L 217.754245 100.028651 
L 216.616989 99.917673 
L 214.636843 99.40144 
L 213.126176 98.60863 
L 212.111639 97.666654 
L 211.565695 96.681073 
L 211.427566 95.731887 
L 211.620083 94.874147 
L 212.062041 94.14103 
L 212.676439 93.547996 
L 213.395346 93.097146 
L 214.549236 92.66989 
L 215.672625 92.498087 
L 216.978295 92.565461 
L 217.984566 92.849616 
L 218.682545 93.241731 
L 219.179269 93.768559 
L 219.359278 94.254801 
L 219.305084 94.729788 
L 219.04706 95.120148 
L 218.575459 95.42511 
L 217.975527 95.546831 
L 217.433664 95.438037 
L 217.181446 95.187107 
L 217.166255 95.098887 
L 217.166255 95.098887 
" style="fill:none;stroke:#e16d00;stroke-linecap:round;stroke-width:1.5;"/>
   </g>
   <g id="patch_3">
    <path d="M 70.866142 248.031496 
L 70.866142 34.015748 
" style="fill:none;stroke:#cccccc;stroke-linecap:square;stroke-linejoin:miter;"/>
   </g>
   <g id="patch_4">
    <path d="M 510.23622 248.031496 
L 510.23622 34.015748 
" style="fill:none;stroke:#cccccc;stroke-linecap:square;stroke-linejoin:miter;"/>
   </g>
   <g id="patch_5">
    <path d="M 70.866142 248.031496 
L 510.23622 248.031496 
" style="fill:none;stroke:#cccccc;stroke-linecap:square;stroke-linejoin:miter;"/>
   </g>
   <g id="patch_6">
    <path d="M 70.866142 34.015748 
L 510.23622 34.015748 
" style="fill:none;stroke:#cccccc;stroke-linecap:square;stroke-linejoin:miter;"/>
   </g>
   <g id="legend_1">
    <g id="line2d_35">
     <path d="M 438.77997 46.801686 
L 458.77997 46.801686 
" style="fill:none;stroke:#1f77b4;stroke-linecap:round;stroke-width:1.5;"/>
    </g>
    <g id="line2d_36"/>
    <g id="text_19">
     <text style="fill:#262626;font-family:Arial;font-size:10px;font-style:normal;font-weight:400;text-anchor:start;" transform="rotate(-0, 466.77997, 50.301686)" x="466.77997" y="50.301686">Original</text>
    </g>
    <g id="line2d_37">
     <path d="M 438.77997 61.064186 
L 458.77997 61.064186 
" style="fill:none;stroke:#e16d00;stroke-linecap:round;stroke-width:1.5;"/>
    </g>
    <g id="line2d_38"/>
    <g id="text_20">
     <text style="fill:#262626;font-family:Arial;font-size:10px;font-style:normal;font-weight:400;text-anchor:start;" transform="rotate(-0, 466.77997, 64.564186)" x="466.77997" y="64.564186">Model</text>
    </g>
   </g>
  </g>
 </g>
 <defs>
  <clipPath id="pa2c61c1185">
   <rect height="214.015748" width="439.370079" x="70.866142" y="34.015748"/>
  </clipPath>
 </defs>
</svg>
