<?xml version="1.0" encoding="utf-8" standalone="no"?>
<!DOCTYPE svg PUBLIC "-//W3C//DTD SVG 1.1//EN"
  "http://www.w3.org/Graphics/SVG/1.1/DTD/svg11.dtd">
<!-- Created with matplotlib (http://matplotlib.org/) -->
<svg height="425pt" version="1.1" viewBox="0 0 538 425" width="538pt" xmlns="http://www.w3.org/2000/svg" xmlns:xlink="http://www.w3.org/1999/xlink">
 <defs>
  <style type="text/css">
*{stroke-linecap:butt;stroke-linejoin:round;}
  </style>
 </defs>
 <g id="figure_1">
  <g id="patch_1">
   <path d="M 0 425.19685 
L 538.582677 425.19685 
L 538.582677 0 
L 0 0 
z
" style="fill:#ffffff;"/>
  </g>
  <g id="axes_1">
   <g id="patch_2">
    <path d="M 67.322835 196.94345 
L 484.724409 196.94345 
L 484.724409 51.023622 
L 67.322835 51.023622 
z
" style="fill:#ffffff;"/>
   </g>
   <g id="matplotlib.axis_1">
    <g id="xtick_1">
     <g id="line2d_1">
      <path clip-path="url(#p8e6b367570)" d="M 85.661092 196.94345 
L 85.661092 51.023622 
" style="fill:none;stroke:#cccccc;stroke-linecap:round;stroke-width:0.8;"/>
     </g>
     <g id="line2d_2"/>
    </g>
    <g id="xtick_2">
     <g id="line2d_3">
      <path clip-path="url(#p8e6b367570)" d="M 149.115269 196.94345 
L 149.115269 51.023622 
" style="fill:none;stroke:#cccccc;stroke-linecap:round;stroke-width:0.8;"/>
     </g>
     <g id="line2d_4"/>
    </g>
    <g id="xtick_3">
     <g id="line2d_5">
      <path clip-path="url(#p8e6b367570)" d="M 212.569445 196.94345 
L 212.569445 51.023622 
" style="fill:none;stroke:#cccccc;stroke-linecap:round;stroke-width:0.8;"/>
     </g>
     <g id="line2d_6"/>
    </g>
    <g id="xtick_4">
     <g id="line2d_7">
      <path clip-path="url(#p8e6b367570)" d="M 276.023622 196.94345 
L 276.023622 51.023622 
" style="fill:none;stroke:#cccccc;stroke-linecap:round;stroke-width:0.8;"/>
     </g>
     <g id="line2d_8"/>
    </g>
    <g id="xtick_5">
     <g id="line2d_9">
      <path clip-path="url(#p8e6b367570)" d="M 339.477799 196.94345 
L 339.477799 51.023622 
" style="fill:none;stroke:#cccccc;stroke-linecap:round;stroke-width:0.8;"/>
     </g>
     <g id="line2d_10"/>
    </g>
    <g id="xtick_6">
     <g id="line2d_11">
      <path clip-path="url(#p8e6b367570)" d="M 402.931976 196.94345 
L 402.931976 51.023622 
" style="fill:none;stroke:#cccccc;stroke-linecap:round;stroke-width:0.8;"/>
     </g>
     <g id="line2d_12"/>
    </g>
    <g id="xtick_7">
     <g id="line2d_13">
      <path clip-path="url(#p8e6b367570)" d="M 466.386152 196.94345 
L 466.386152 51.023622 
" style="fill:none;stroke:#cccccc;stroke-linecap:round;stroke-width:0.8;"/>
     </g>
     <g id="line2d_14"/>
    </g>
   </g>
   <g id="matplotlib.axis_2">
    <g id="ytick_1">
     <g id="line2d_15">
      <path clip-path="url(#p8e6b367570)" d="M 67.322835 190.310731 
L 484.724409 190.310731 
" style="fill:none;stroke:#cccccc;stroke-linecap:round;stroke-width:0.8;"/>
     </g>
     <g id="line2d_16"/>
     <g id="text_1">
      <text style="fill:#262626;font-family:Arial;font-size:10px;font-style:normal;font-weight:400;text-anchor:end;" transform="rotate(-0, 63.822835, 193.889637)" x="63.822835" y="193.889637">0.0</text>
     </g>
    </g>
    <g id="ytick_2">
     <g id="line2d_17">
      <path clip-path="url(#p8e6b367570)" d="M 67.322835 167.104989 
L 484.724409 167.104989 
" style="fill:none;stroke:#cccccc;stroke-linecap:round;stroke-width:0.8;"/>
     </g>
     <g id="line2d_18"/>
     <g id="text_2">
      <text style="fill:#262626;font-family:Arial;font-size:10px;font-style:normal;font-weight:400;text-anchor:end;" transform="rotate(-0, 63.822835, 170.683895)" x="63.822835" y="170.683895">0.5</text>
     </g>
    </g>
    <g id="ytick_3">
     <g id="line2d_19">
      <path clip-path="url(#p8e6b367570)" d="M 67.322835 143.899248 
L 484.724409 143.899248 
" style="fill:none;stroke:#cccccc;stroke-linecap:round;stroke-width:0.8;"/>
     </g>
     <g id="line2d_20"/>
     <g id="text_3">
      <text style="fill:#262626;font-family:Arial;font-size:10px;font-style:normal;font-weight:400;text-anchor:end;" transform="rotate(-0, 63.822835, 147.478154)" x="63.822835" y="147.478154">1.0</text>
     </g>
    </g>
    <g id="ytick_4">
     <g id="line2d_21">
      <path clip-path="url(#p8e6b367570)" d="M 67.322835 120.693506 
L 484.724409 120.693506 
" style="fill:none;stroke:#cccccc;stroke-linecap:round;stroke-width:0.8;"/>
     </g>
     <g id="line2d_22"/>
     <g id="text_4">
      <text style="fill:#262626;font-family:Arial;font-size:10px;font-style:normal;font-weight:400;text-anchor:end;" transform="rotate(-0, 63.822835, 124.272412)" x="63.822835" y="124.272412">1.5</text>
     </g>
    </g>
    <g id="ytick_5">
     <g id="line2d_23">
      <path clip-path="url(#p8e6b367570)" d="M 67.322835 97.487765 
L 484.724409 97.487765 
" style="fill:none;stroke:#cccccc;stroke-linecap:round;stroke-width:0.8;"/>
     </g>
     <g id="line2d_24"/>
     <g id="text_5">
      <text style="fill:#262626;font-family:Arial;font-size:10px;font-style:normal;font-weight:400;text-anchor:end;" transform="rotate(-0, 63.822835, 101.066671)" x="63.822835" y="101.066671">2.0</text>
     </g>
    </g>
    <g id="ytick_6">
     <g id="line2d_25">
      <path clip-path="url(#p8e6b367570)" d="M 67.322835 74.282023 
L 484.724409 74.282023 
" style="fill:none;stroke:#cccccc;stroke-linecap:round;stroke-width:0.8;"/>
     </g>
     <g id="line2d_26"/>
     <g id="text_6">
      <text style="fill:#262626;font-family:Arial;font-size:10px;font-style:normal;font-weight:400;text-anchor:end;" transform="rotate(-0, 63.822835, 77.860929)" x="63.822835" y="77.860929">2.5</text>
     </g>
    </g>
    <g id="ytick_7">
     <g id="line2d_27">
      <path clip-path="url(#p8e6b367570)" d="M 67.322835 51.076282 
L 484.724409 51.076282 
" style="fill:none;stroke:#cccccc;stroke-linecap:round;stroke-width:0.8;"/>
     </g>
     <g id="line2d_28"/>
     <g id="text_7">
      <text style="fill:#262626;font-family:Arial;font-size:10px;font-style:normal;font-weight:400;text-anchor:end;" transform="rotate(-0, 63.822835, 54.655188)" x="63.822835" y="54.655188">3.0</text>
     </g>
    </g>
    <g id="text_8">
     <text style="fill:#262626;font-family:Arial;font-size:10px;font-style:normal;font-weight:400;text-anchor:middle;" transform="rotate(-90, 43.935335, 123.983536)" x="43.935335" y="123.983536">Temperature [K]</text>
    </g>
   </g>
   <g id="line2d_29">
    <path clip-path="url(#p8e6b367570)" d="M 86.295634 190.310731 
L 88.199259 189.988605 
L 90.102884 189.210366 
L 92.006509 187.997579 
L 93.910135 186.373068 
L 95.81376 184.357976 
L 97.717385 181.971459 
L 99.621011 179.238259 
L 101.524636 176.180589 
L 103.428261 172.834417 
L 107.235512 165.430084 
L 111.042762 157.362359 
L 124.36814 128.287093 
L 128.17539 120.550717 
L 131.982641 113.312048 
L 135.789891 106.719186 
L 139.597142 100.821187 
L 143.404393 95.575288 
L 147.211643 90.909874 
L 151.018894 86.761288 
L 154.826144 83.079446 
L 158.633395 79.822572 
L 162.440646 76.952506 
L 166.247896 74.432693 
L 170.055147 72.227878 
L 173.862397 70.304452 
L 177.669648 68.630867 
L 181.476899 67.177932 
L 185.284149 65.919008 
L 189.0914 64.829898 
L 194.802276 63.467802 
L 200.513152 62.376216 
L 206.224028 61.502605 
L 213.838529 60.603413 
L 221.45303 59.935063 
L 230.971157 59.333172 
L 242.392908 58.844533 
L 257.621911 58.437095 
L 278.561789 58.120721 
L 310.923419 57.873966 
L 366.128553 57.698746 
L 451.791692 57.664838 
L 465.117069 57.673258 
L 465.117069 57.673258 
" style="fill:none;stroke:#be1e3c;stroke-linecap:round;stroke-width:1.5;"/>
   </g>
   <g id="line2d_30">
    <path clip-path="url(#p8e6b367570)" d="M 86.930175 190.310731 
L 88.833801 189.669179 
L 90.737426 188.536352 
L 92.641051 187.060222 
L 94.544676 185.279773 
L 96.448302 183.218152 
L 98.351927 180.886934 
L 100.255552 178.300902 
L 102.159178 175.464235 
L 105.966428 169.098195 
L 115.484555 151.849151 
L 119.291805 145.7407 
L 123.099056 140.326739 
L 126.906307 135.563298 
L 130.713557 131.396297 
L 134.520808 127.772232 
L 138.328058 124.639407 
L 142.135309 121.946919 
L 145.94256 119.644737 
L 149.74981 117.684732 
L 153.557061 116.021828 
L 157.364311 114.614829 
L 161.171562 113.426833 
L 164.978813 112.425293 
L 170.689689 111.211629 
L 176.400565 110.274885 
L 182.11144 109.552003 
L 189.725942 108.837456 
L 199.244068 108.227524 
L 210.66582 107.76426 
L 225.894822 107.409854 
L 246.834701 107.164808 
L 284.907207 106.981352 
L 361.052219 106.878548 
L 465.751611 106.909202 
L 465.751611 106.909202 
" style="fill:none;stroke:#be1e3c;stroke-dasharray:5.55,2.4;stroke-dashoffset:0;stroke-width:1.5;"/>
   </g>
   <g id="patch_3">
    <path d="M 67.322835 196.94345 
L 67.322835 51.023622 
" style="fill:none;stroke:#cccccc;stroke-linecap:square;stroke-linejoin:miter;"/>
   </g>
   <g id="patch_4">
    <path d="M 484.724409 196.94345 
L 484.724409 51.023622 
" style="fill:none;stroke:#cccccc;stroke-linecap:square;stroke-linejoin:miter;"/>
   </g>
   <g id="patch_5">
    <path d="M 67.322835 196.94345 
L 484.724409 196.94345 
" style="fill:none;stroke:#cccccc;stroke-linecap:square;stroke-linejoin:miter;"/>
   </g>
   <g id="patch_6">
    <path d="M 67.322835 51.023622 
L 484.724409 51.023622 
" style="fill:none;stroke:#cccccc;stroke-linecap:square;stroke-linejoin:miter;"/>
   </g>
   <g id="text_9">
    <text style="fill:#262626;font-family:Arial;font-size:12px;font-style:normal;font-weight:400;text-anchor:start;" transform="rotate(-0, 67.322835, 45.023622)" x="67.322835" y="45.023622">T_{amb}=272 K, Q_C = -65000 W</text>
   </g>
   <g id="legend_1">
    <g id="line2d_31">
     <path d="M 422.721284 168.310638 
L 442.721284 168.310638 
" style="fill:none;stroke:#be1e3c;stroke-linecap:round;stroke-width:1.5;"/>
    </g>
    <g id="line2d_32"/>
    <g id="text_10">
     <text style="fill:#262626;font-family:Arial;font-size:10px;font-style:normal;font-weight:400;text-anchor:start;" transform="rotate(-0, 450.721284, 171.810638)" x="450.721284" y="171.810638">Fan</text>
    </g>
    <g id="line2d_33">
     <path d="M 422.721284 182.45595 
L 442.721284 182.45595 
" style="fill:none;stroke:#be1e3c;stroke-dasharray:5.55,2.4;stroke-dashoffset:0;stroke-width:1.5;"/>
    </g>
    <g id="line2d_34"/>
    <g id="text_11">
     <text style="fill:#262626;font-family:Arial;font-size:10px;font-style:normal;font-weight:400;text-anchor:start;" transform="rotate(-0, 450.721284, 185.95595)" x="450.721284" y="185.95595">Valve</text>
    </g>
   </g>
  </g>
  <g id="axes_2">
   <g id="patch_7">
    <path d="M 67.322835 372.047244 
L 484.724409 372.047244 
L 484.724409 226.127416 
L 67.322835 226.127416 
z
" style="fill:#ffffff;"/>
   </g>
   <g id="matplotlib.axis_3">
    <g id="xtick_8">
     <g id="line2d_35">
      <path clip-path="url(#p20c6029cbc)" d="M 85.661092 372.047244 
L 85.661092 226.127416 
" style="fill:none;stroke:#cccccc;stroke-linecap:round;stroke-width:0.8;"/>
     </g>
     <g id="line2d_36"/>
     <g id="text_12">
      <text style="fill:#262626;font-family:Arial;font-size:10px;font-style:normal;font-weight:400;text-anchor:middle;" transform="rotate(-0, 85.661092, 382.705057)" x="85.661092" y="382.705057">0</text>
     </g>
    </g>
    <g id="xtick_9">
     <g id="line2d_37">
      <path clip-path="url(#p20c6029cbc)" d="M 149.115269 372.047244 
L 149.115269 226.127416 
" style="fill:none;stroke:#cccccc;stroke-linecap:round;stroke-width:0.8;"/>
     </g>
     <g id="line2d_38"/>
     <g id="text_13">
      <text style="fill:#262626;font-family:Arial;font-size:10px;font-style:normal;font-weight:400;text-anchor:middle;" transform="rotate(-0, 149.115269, 382.705057)" x="149.115269" y="382.705057">100</text>
     </g>
    </g>
    <g id="xtick_10">
     <g id="line2d_39">
      <path clip-path="url(#p20c6029cbc)" d="M 212.569445 372.047244 
L 212.569445 226.127416 
" style="fill:none;stroke:#cccccc;stroke-linecap:round;stroke-width:0.8;"/>
     </g>
     <g id="line2d_40"/>
     <g id="text_14">
      <text style="fill:#262626;font-family:Arial;font-size:10px;font-style:normal;font-weight:400;text-anchor:middle;" transform="rotate(-0, 212.569445, 382.705057)" x="212.569445" y="382.705057">200</text>
     </g>
    </g>
    <g id="xtick_11">
     <g id="line2d_41">
      <path clip-path="url(#p20c6029cbc)" d="M 276.023622 372.047244 
L 276.023622 226.127416 
" style="fill:none;stroke:#cccccc;stroke-linecap:round;stroke-width:0.8;"/>
     </g>
     <g id="line2d_42"/>
     <g id="text_15">
      <text style="fill:#262626;font-family:Arial;font-size:10px;font-style:normal;font-weight:400;text-anchor:middle;" transform="rotate(-0, 276.023622, 382.705057)" x="276.023622" y="382.705057">300</text>
     </g>
    </g>
    <g id="xtick_12">
     <g id="line2d_43">
      <path clip-path="url(#p20c6029cbc)" d="M 339.477799 372.047244 
L 339.477799 226.127416 
" style="fill:none;stroke:#cccccc;stroke-linecap:round;stroke-width:0.8;"/>
     </g>
     <g id="line2d_44"/>
     <g id="text_16">
      <text style="fill:#262626;font-family:Arial;font-size:10px;font-style:normal;font-weight:400;text-anchor:middle;" transform="rotate(-0, 339.477799, 382.705057)" x="339.477799" y="382.705057">400</text>
     </g>
    </g>
    <g id="xtick_13">
     <g id="line2d_45">
      <path clip-path="url(#p20c6029cbc)" d="M 402.931976 372.047244 
L 402.931976 226.127416 
" style="fill:none;stroke:#cccccc;stroke-linecap:round;stroke-width:0.8;"/>
     </g>
     <g id="line2d_46"/>
     <g id="text_17">
      <text style="fill:#262626;font-family:Arial;font-size:10px;font-style:normal;font-weight:400;text-anchor:middle;" transform="rotate(-0, 402.931976, 382.705057)" x="402.931976" y="382.705057">500</text>
     </g>
    </g>
    <g id="xtick_14">
     <g id="line2d_47">
      <path clip-path="url(#p20c6029cbc)" d="M 466.386152 372.047244 
L 466.386152 226.127416 
" style="fill:none;stroke:#cccccc;stroke-linecap:round;stroke-width:0.8;"/>
     </g>
     <g id="line2d_48"/>
     <g id="text_18">
      <text style="fill:#262626;font-family:Arial;font-size:10px;font-style:normal;font-weight:400;text-anchor:middle;" transform="rotate(-0, 466.386152, 382.705057)" x="466.386152" y="382.705057">600</text>
     </g>
    </g>
    <g id="text_19">
     <text style="fill:#262626;font-family:Arial;font-size:10px;font-style:normal;font-weight:400;text-anchor:middle;" transform="rotate(-0, 276.023622, 395.850369)" x="276.023622" y="395.850369">Time [s]</text>
    </g>
   </g>
   <g id="matplotlib.axis_4">
    <g id="ytick_8">
     <g id="line2d_49">
      <path clip-path="url(#p20c6029cbc)" d="M 67.322835 367.177842 
L 484.724409 367.177842 
" style="fill:none;stroke:#cccccc;stroke-linecap:round;stroke-width:0.8;"/>
     </g>
     <g id="line2d_50"/>
     <g id="text_20">
      <text style="fill:#262626;font-family:Arial;font-size:10px;font-style:normal;font-weight:400;text-anchor:end;" transform="rotate(-0, 63.822835, 370.756748)" x="63.822835" y="370.756748">−1.0</text>
     </g>
    </g>
    <g id="ytick_9">
     <g id="line2d_51">
      <path clip-path="url(#p20c6029cbc)" d="M 67.322835 338.849785 
L 484.724409 338.849785 
" style="fill:none;stroke:#cccccc;stroke-linecap:round;stroke-width:0.8;"/>
     </g>
     <g id="line2d_52"/>
     <g id="text_21">
      <text style="fill:#262626;font-family:Arial;font-size:10px;font-style:normal;font-weight:400;text-anchor:end;" transform="rotate(-0, 63.822835, 342.428691)" x="63.822835" y="342.428691">−0.5</text>
     </g>
    </g>
    <g id="ytick_10">
     <g id="line2d_53">
      <path clip-path="url(#p20c6029cbc)" d="M 67.322835 310.521728 
L 484.724409 310.521728 
" style="fill:none;stroke:#cccccc;stroke-linecap:round;stroke-width:0.8;"/>
     </g>
     <g id="line2d_54"/>
     <g id="text_22">
      <text style="fill:#262626;font-family:Arial;font-size:10px;font-style:normal;font-weight:400;text-anchor:end;" transform="rotate(-0, 63.822835, 314.100634)" x="63.822835" y="314.100634">0.0</text>
     </g>
    </g>
    <g id="ytick_11">
     <g id="line2d_55">
      <path clip-path="url(#p20c6029cbc)" d="M 67.322835 282.193671 
L 484.724409 282.193671 
" style="fill:none;stroke:#cccccc;stroke-linecap:round;stroke-width:0.8;"/>
     </g>
     <g id="line2d_56"/>
     <g id="text_23">
      <text style="fill:#262626;font-family:Arial;font-size:10px;font-style:normal;font-weight:400;text-anchor:end;" transform="rotate(-0, 63.822835, 285.772577)" x="63.822835" y="285.772577">0.5</text>
     </g>
    </g>
    <g id="ytick_12">
     <g id="line2d_57">
      <path clip-path="url(#p20c6029cbc)" d="M 67.322835 253.865614 
L 484.724409 253.865614 
" style="fill:none;stroke:#cccccc;stroke-linecap:round;stroke-width:0.8;"/>
     </g>
     <g id="line2d_58"/>
     <g id="text_24">
      <text style="fill:#262626;font-family:Arial;font-size:10px;font-style:normal;font-weight:400;text-anchor:end;" transform="rotate(-0, 63.822835, 257.44452)" x="63.822835" y="257.44452">1.0</text>
     </g>
    </g>
    <g id="text_25">
     <text style="fill:#262626;font-family:Arial;font-size:10px;font-style:normal;font-weight:400;text-anchor:middle;" transform="rotate(-90, 38.09471, 299.08733)" x="38.09471" y="299.08733">Pressure [bar]</text>
    </g>
   </g>
   <g id="line2d_59">
    <path clip-path="url(#p20c6029cbc)" d="M 86.295634 310.521728 
L 88.199259 309.122816 
L 90.102884 306.156421 
L 92.006509 302.201708 
L 93.910135 297.641272 
L 101.524636 278.228696 
L 103.428261 273.757209 
L 105.331887 269.576207 
L 107.235512 265.705369 
L 109.139137 262.159223 
L 111.042762 258.935914 
L 112.946388 256.030343 
L 114.850013 253.429556 
L 116.753638 251.1147 
L 118.657264 249.071681 
L 120.560889 247.278833 
L 124.36814 243.459303 
L 126.271765 241.827699 
L 128.17539 240.385706 
L 130.079015 239.104986 
L 131.982641 237.9702 
L 133.886266 236.973354 
L 135.789891 236.108089 
L 139.597142 234.741879 
L 143.404393 233.799781 
L 147.211643 233.203443 
L 151.018894 232.878779 
L 154.826144 232.760135 
L 160.53702 232.849607 
L 168.151522 233.253848 
L 194.802276 234.952873 
L 206.224028 235.391312 
L 219.549405 235.668424 
L 236.682032 235.763558 
L 259.525536 235.632601 
L 297.598042 235.14962 
L 413.719186 233.571692 
L 465.117069 233.097759 
L 465.117069 233.097759 
" style="fill:none;stroke:#00709b;stroke-linecap:round;stroke-width:1.5;"/>
   </g>
   <g id="line2d_60">
    <path clip-path="url(#p20c6029cbc)" d="M 86.930175 310.521728 
L 88.833801 311.15075 
L 90.737426 312.019909 
L 92.641051 313.452116 
L 94.544676 315.373107 
L 96.448302 317.691754 
L 98.351927 320.348454 
L 102.159178 326.075424 
L 105.966428 330.25415 
L 109.773679 334.530285 
L 113.58093 338.473142 
L 117.38818 342.059505 
L 121.195431 345.295472 
L 125.002681 348.188286 
L 128.809932 350.750712 
L 132.617183 353.000458 
L 136.424433 354.959776 
L 140.231684 356.654096 
L 144.038934 358.110243 
L 147.846185 359.354912 
L 151.653436 360.413602 
L 157.364311 361.704133 
L 163.075187 362.699786 
L 168.786063 363.460287 
L 176.400565 364.192503 
L 184.015066 364.685641 
L 193.533192 365.06881 
L 204.954944 365.307153 
L 222.087572 365.413796 
L 248.738326 365.322762 
L 313.461586 364.805445 
L 406.739226 364.128994 
L 465.751611 363.852867 
L 465.751611 363.852867 
" style="fill:none;stroke:#00709b;stroke-dasharray:5.55,2.4;stroke-dashoffset:0;stroke-width:1.5;"/>
   </g>
   <g id="patch_8">
    <path d="M 67.322835 372.047244 
L 67.322835 226.127416 
" style="fill:none;stroke:#cccccc;stroke-linecap:square;stroke-linejoin:miter;"/>
   </g>
   <g id="patch_9">
    <path d="M 484.724409 372.047244 
L 484.724409 226.127416 
" style="fill:none;stroke:#cccccc;stroke-linecap:square;stroke-linejoin:miter;"/>
   </g>
   <g id="patch_10">
    <path d="M 67.322835 372.047244 
L 484.724409 372.047244 
" style="fill:none;stroke:#cccccc;stroke-linecap:square;stroke-linejoin:miter;"/>
   </g>
   <g id="patch_11">
    <path d="M 67.322835 226.127416 
L 484.724409 226.127416 
" style="fill:none;stroke:#cccccc;stroke-linecap:square;stroke-linejoin:miter;"/>
   </g>
  </g>
 </g>
 <defs>
  <clipPath id="p8e6b367570">
   <rect height="145.919828" width="417.401575" x="67.322835" y="51.023622"/>
  </clipPath>
  <clipPath id="p20c6029cbc">
   <rect height="145.919828" width="417.401575" x="67.322835" y="226.127416"/>
  </clipPath>
 </defs>
</svg>
