<?xml version="1.0" encoding="utf-8" standalone="no"?>
<!DOCTYPE svg PUBLIC "-//W3C//DTD SVG 1.1//EN"
  "http://www.w3.org/Graphics/SVG/1.1/DTD/svg11.dtd">
<!-- Created with matplotlib (http://matplotlib.org/) -->
<svg height="425pt" version="1.1" viewBox="0 0 538 425" width="538pt" xmlns="http://www.w3.org/2000/svg" xmlns:xlink="http://www.w3.org/1999/xlink">
 <defs>
  <style type="text/css">
*{stroke-linecap:butt;stroke-linejoin:round;}
  </style>
 </defs>
 <g id="figure_1">
  <g id="patch_1">
   <path d="M 0 425.19685 
L 538.582677 425.19685 
L 538.582677 0 
L 0 0 
z
" style="fill:#ffffff;"/>
  </g>
  <g id="axes_1">
   <g id="patch_2">
    <path d="M 67.322835 196.94345 
L 484.724409 196.94345 
L 484.724409 51.023622 
L 67.322835 51.023622 
z
" style="fill:#ffffff;"/>
   </g>
   <g id="matplotlib.axis_1">
    <g id="xtick_1">
     <g id="line2d_1">
      <path clip-path="url(#p6dd79eba01)" d="M 85.661092 196.94345 
L 85.661092 51.023622 
" style="fill:none;stroke:#cccccc;stroke-linecap:round;stroke-width:0.8;"/>
     </g>
     <g id="line2d_2"/>
    </g>
    <g id="xtick_2">
     <g id="line2d_3">
      <path clip-path="url(#p6dd79eba01)" d="M 149.115269 196.94345 
L 149.115269 51.023622 
" style="fill:none;stroke:#cccccc;stroke-linecap:round;stroke-width:0.8;"/>
     </g>
     <g id="line2d_4"/>
    </g>
    <g id="xtick_3">
     <g id="line2d_5">
      <path clip-path="url(#p6dd79eba01)" d="M 212.569445 196.94345 
L 212.569445 51.023622 
" style="fill:none;stroke:#cccccc;stroke-linecap:round;stroke-width:0.8;"/>
     </g>
     <g id="line2d_6"/>
    </g>
    <g id="xtick_4">
     <g id="line2d_7">
      <path clip-path="url(#p6dd79eba01)" d="M 276.023622 196.94345 
L 276.023622 51.023622 
" style="fill:none;stroke:#cccccc;stroke-linecap:round;stroke-width:0.8;"/>
     </g>
     <g id="line2d_8"/>
    </g>
    <g id="xtick_5">
     <g id="line2d_9">
      <path clip-path="url(#p6dd79eba01)" d="M 339.477799 196.94345 
L 339.477799 51.023622 
" style="fill:none;stroke:#cccccc;stroke-linecap:round;stroke-width:0.8;"/>
     </g>
     <g id="line2d_10"/>
    </g>
    <g id="xtick_6">
     <g id="line2d_11">
      <path clip-path="url(#p6dd79eba01)" d="M 402.931976 196.94345 
L 402.931976 51.023622 
" style="fill:none;stroke:#cccccc;stroke-linecap:round;stroke-width:0.8;"/>
     </g>
     <g id="line2d_12"/>
    </g>
    <g id="xtick_7">
     <g id="line2d_13">
      <path clip-path="url(#p6dd79eba01)" d="M 466.386152 196.94345 
L 466.386152 51.023622 
" style="fill:none;stroke:#cccccc;stroke-linecap:round;stroke-width:0.8;"/>
     </g>
     <g id="line2d_14"/>
    </g>
   </g>
   <g id="matplotlib.axis_2">
    <g id="ytick_1">
     <g id="line2d_15">
      <path clip-path="url(#p6dd79eba01)" d="M 67.322835 190.310731 
L 484.724409 190.310731 
" style="fill:none;stroke:#cccccc;stroke-linecap:round;stroke-width:0.8;"/>
     </g>
     <g id="line2d_16"/>
     <g id="text_1">
      <text style="fill:#262626;font-family:Arial;font-size:10px;font-style:normal;font-weight:400;text-anchor:end;" transform="rotate(-0, 63.822835, 193.889637)" x="63.822835" y="193.889637">0.0</text>
     </g>
    </g>
    <g id="ytick_2">
     <g id="line2d_17">
      <path clip-path="url(#p6dd79eba01)" d="M 67.322835 159.7465 
L 484.724409 159.7465 
" style="fill:none;stroke:#cccccc;stroke-linecap:round;stroke-width:0.8;"/>
     </g>
     <g id="line2d_18"/>
     <g id="text_2">
      <text style="fill:#262626;font-family:Arial;font-size:10px;font-style:normal;font-weight:400;text-anchor:end;" transform="rotate(-0, 63.822835, 163.325407)" x="63.822835" y="163.325407">0.5</text>
     </g>
    </g>
    <g id="ytick_3">
     <g id="line2d_19">
      <path clip-path="url(#p6dd79eba01)" d="M 67.322835 129.18227 
L 484.724409 129.18227 
" style="fill:none;stroke:#cccccc;stroke-linecap:round;stroke-width:0.8;"/>
     </g>
     <g id="line2d_20"/>
     <g id="text_3">
      <text style="fill:#262626;font-family:Arial;font-size:10px;font-style:normal;font-weight:400;text-anchor:end;" transform="rotate(-0, 63.822835, 132.761176)" x="63.822835" y="132.761176">1.0</text>
     </g>
    </g>
    <g id="ytick_4">
     <g id="line2d_21">
      <path clip-path="url(#p6dd79eba01)" d="M 67.322835 98.61804 
L 484.724409 98.61804 
" style="fill:none;stroke:#cccccc;stroke-linecap:round;stroke-width:0.8;"/>
     </g>
     <g id="line2d_22"/>
     <g id="text_4">
      <text style="fill:#262626;font-family:Arial;font-size:10px;font-style:normal;font-weight:400;text-anchor:end;" transform="rotate(-0, 63.822835, 102.196946)" x="63.822835" y="102.196946">1.5</text>
     </g>
    </g>
    <g id="ytick_5">
     <g id="line2d_23">
      <path clip-path="url(#p6dd79eba01)" d="M 67.322835 68.05381 
L 484.724409 68.05381 
" style="fill:none;stroke:#cccccc;stroke-linecap:round;stroke-width:0.8;"/>
     </g>
     <g id="line2d_24"/>
     <g id="text_5">
      <text style="fill:#262626;font-family:Arial;font-size:10px;font-style:normal;font-weight:400;text-anchor:end;" transform="rotate(-0, 63.822835, 71.632716)" x="63.822835" y="71.632716">2.0</text>
     </g>
    </g>
    <g id="text_6">
     <text style="fill:#262626;font-family:Arial;font-size:10px;font-style:normal;font-weight:400;text-anchor:middle;" transform="rotate(-90, 43.935335, 123.983536)" x="43.935335" y="123.983536">Temperature [K]</text>
    </g>
   </g>
   <g id="line2d_25">
    <path clip-path="url(#p6dd79eba01)" d="M 86.295634 190.310731 
L 88.199259 189.933481 
L 90.102884 189.062744 
L 92.006509 187.765976 
L 93.910135 186.089587 
L 95.81376 184.090442 
L 97.717385 181.806417 
L 99.621011 179.297643 
L 103.428261 173.767697 
L 112.946388 159.276138 
L 116.753638 153.982058 
L 120.560889 149.19024 
L 124.36814 144.934562 
L 128.17539 141.208912 
L 131.982641 137.986571 
L 135.789891 135.22657 
L 139.597142 132.880191 
L 143.404393 130.89632 
L 147.211643 129.225168 
L 151.018894 127.820529 
L 154.826144 126.640931 
L 158.633395 125.650024 
L 164.344271 124.45034 
L 170.055147 123.519657 
L 175.766023 122.791851 
L 183.380524 122.052595 
L 192.89865 121.38605 
L 204.320402 120.827857 
L 219.549405 120.322715 
L 242.392908 119.823503 
L 278.561789 119.291072 
L 333.766923 118.717117 
L 394.682933 118.305744 
L 457.502568 118.105804 
L 465.117069 118.096326 
L 465.117069 118.096326 
" style="fill:none;stroke:#be1e3c;stroke-linecap:round;stroke-width:1.5;"/>
   </g>
   <g id="line2d_26">
    <path clip-path="url(#p6dd79eba01)" d="M 86.930175 190.310731 
L 88.833801 189.204499 
L 90.737426 187.192473 
L 92.641051 184.518788 
L 94.544676 181.21309 
L 96.448302 177.310785 
L 98.351927 172.868217 
L 100.255552 167.947585 
L 104.062803 157.04567 
L 113.58093 128.625245 
L 117.38818 118.553029 
L 119.291805 114.003702 
L 121.195431 109.823932 
L 123.099056 106.011934 
L 125.002681 102.546273 
L 126.906307 99.394911 
L 128.809932 96.52361 
L 130.713557 93.900815 
L 132.617183 91.499581 
L 134.520808 89.297585 
L 136.424433 87.276239 
L 140.231684 83.713698 
L 144.038934 80.703904 
L 147.846185 78.156843 
L 151.653436 75.996547 
L 155.460686 74.159441 
L 159.267937 72.592662 
L 163.075187 71.25235 
L 166.882438 70.102086 
L 172.593314 68.668709 
L 178.30419 67.513377 
L 185.918691 66.287798 
L 193.533192 65.306903 
L 201.147693 64.561915 
L 212.569445 63.688933 
L 227.798448 62.780446 
L 246.834701 61.885142 
L 273.485455 60.877427 
L 305.847085 59.886322 
L 342.015966 59.009847 
L 378.184847 58.357032 
L 414.353727 57.920198 
L 452.426233 57.685743 
L 465.751611 57.656342 
L 465.751611 57.656342 
" style="fill:none;stroke:#be1e3c;stroke-dasharray:5.55,2.4;stroke-dashoffset:0;stroke-width:1.5;"/>
   </g>
   <g id="patch_3">
    <path d="M 67.322835 196.94345 
L 67.322835 51.023622 
" style="fill:none;stroke:#cccccc;stroke-linecap:square;stroke-linejoin:miter;"/>
   </g>
   <g id="patch_4">
    <path d="M 484.724409 196.94345 
L 484.724409 51.023622 
" style="fill:none;stroke:#cccccc;stroke-linecap:square;stroke-linejoin:miter;"/>
   </g>
   <g id="patch_5">
    <path d="M 67.322835 196.94345 
L 484.724409 196.94345 
" style="fill:none;stroke:#cccccc;stroke-linecap:square;stroke-linejoin:miter;"/>
   </g>
   <g id="patch_6">
    <path d="M 67.322835 51.023622 
L 484.724409 51.023622 
" style="fill:none;stroke:#cccccc;stroke-linecap:square;stroke-linejoin:miter;"/>
   </g>
   <g id="text_7">
    <text style="fill:#262626;font-family:Arial;font-size:12px;font-style:normal;font-weight:400;text-anchor:start;" transform="rotate(-0, 67.322835, 45.023622)" x="67.322835" y="45.023622">T_{amb}=290 K, Q_C = -50000 W</text>
   </g>
   <g id="legend_1">
    <g id="line2d_27">
     <path d="M 422.721284 168.310638 
L 442.721284 168.310638 
" style="fill:none;stroke:#be1e3c;stroke-linecap:round;stroke-width:1.5;"/>
    </g>
    <g id="line2d_28"/>
    <g id="text_8">
     <text style="fill:#262626;font-family:Arial;font-size:10px;font-style:normal;font-weight:400;text-anchor:start;" transform="rotate(-0, 450.721284, 171.810638)" x="450.721284" y="171.810638">Fan</text>
    </g>
    <g id="line2d_29">
     <path d="M 422.721284 182.45595 
L 442.721284 182.45595 
" style="fill:none;stroke:#be1e3c;stroke-dasharray:5.55,2.4;stroke-dashoffset:0;stroke-width:1.5;"/>
    </g>
    <g id="line2d_30"/>
    <g id="text_9">
     <text style="fill:#262626;font-family:Arial;font-size:10px;font-style:normal;font-weight:400;text-anchor:start;" transform="rotate(-0, 450.721284, 185.95595)" x="450.721284" y="185.95595">Valve</text>
    </g>
   </g>
  </g>
  <g id="axes_2">
   <g id="patch_7">
    <path d="M 67.322835 372.047244 
L 484.724409 372.047244 
L 484.724409 226.127416 
L 67.322835 226.127416 
z
" style="fill:#ffffff;"/>
   </g>
   <g id="matplotlib.axis_3">
    <g id="xtick_8">
     <g id="line2d_31">
      <path clip-path="url(#p0234847f94)" d="M 85.661092 372.047244 
L 85.661092 226.127416 
" style="fill:none;stroke:#cccccc;stroke-linecap:round;stroke-width:0.8;"/>
     </g>
     <g id="line2d_32"/>
     <g id="text_10">
      <text style="fill:#262626;font-family:Arial;font-size:10px;font-style:normal;font-weight:400;text-anchor:middle;" transform="rotate(-0, 85.661092, 382.705057)" x="85.661092" y="382.705057">0</text>
     </g>
    </g>
    <g id="xtick_9">
     <g id="line2d_33">
      <path clip-path="url(#p0234847f94)" d="M 149.115269 372.047244 
L 149.115269 226.127416 
" style="fill:none;stroke:#cccccc;stroke-linecap:round;stroke-width:0.8;"/>
     </g>
     <g id="line2d_34"/>
     <g id="text_11">
      <text style="fill:#262626;font-family:Arial;font-size:10px;font-style:normal;font-weight:400;text-anchor:middle;" transform="rotate(-0, 149.115269, 382.705057)" x="149.115269" y="382.705057">100</text>
     </g>
    </g>
    <g id="xtick_10">
     <g id="line2d_35">
      <path clip-path="url(#p0234847f94)" d="M 212.569445 372.047244 
L 212.569445 226.127416 
" style="fill:none;stroke:#cccccc;stroke-linecap:round;stroke-width:0.8;"/>
     </g>
     <g id="line2d_36"/>
     <g id="text_12">
      <text style="fill:#262626;font-family:Arial;font-size:10px;font-style:normal;font-weight:400;text-anchor:middle;" transform="rotate(-0, 212.569445, 382.705057)" x="212.569445" y="382.705057">200</text>
     </g>
    </g>
    <g id="xtick_11">
     <g id="line2d_37">
      <path clip-path="url(#p0234847f94)" d="M 276.023622 372.047244 
L 276.023622 226.127416 
" style="fill:none;stroke:#cccccc;stroke-linecap:round;stroke-width:0.8;"/>
     </g>
     <g id="line2d_38"/>
     <g id="text_13">
      <text style="fill:#262626;font-family:Arial;font-size:10px;font-style:normal;font-weight:400;text-anchor:middle;" transform="rotate(-0, 276.023622, 382.705057)" x="276.023622" y="382.705057">300</text>
     </g>
    </g>
    <g id="xtick_12">
     <g id="line2d_39">
      <path clip-path="url(#p0234847f94)" d="M 339.477799 372.047244 
L 339.477799 226.127416 
" style="fill:none;stroke:#cccccc;stroke-linecap:round;stroke-width:0.8;"/>
     </g>
     <g id="line2d_40"/>
     <g id="text_14">
      <text style="fill:#262626;font-family:Arial;font-size:10px;font-style:normal;font-weight:400;text-anchor:middle;" transform="rotate(-0, 339.477799, 382.705057)" x="339.477799" y="382.705057">400</text>
     </g>
    </g>
    <g id="xtick_13">
     <g id="line2d_41">
      <path clip-path="url(#p0234847f94)" d="M 402.931976 372.047244 
L 402.931976 226.127416 
" style="fill:none;stroke:#cccccc;stroke-linecap:round;stroke-width:0.8;"/>
     </g>
     <g id="line2d_42"/>
     <g id="text_15">
      <text style="fill:#262626;font-family:Arial;font-size:10px;font-style:normal;font-weight:400;text-anchor:middle;" transform="rotate(-0, 402.931976, 382.705057)" x="402.931976" y="382.705057">500</text>
     </g>
    </g>
    <g id="xtick_14">
     <g id="line2d_43">
      <path clip-path="url(#p0234847f94)" d="M 466.386152 372.047244 
L 466.386152 226.127416 
" style="fill:none;stroke:#cccccc;stroke-linecap:round;stroke-width:0.8;"/>
     </g>
     <g id="line2d_44"/>
     <g id="text_16">
      <text style="fill:#262626;font-family:Arial;font-size:10px;font-style:normal;font-weight:400;text-anchor:middle;" transform="rotate(-0, 466.386152, 382.705057)" x="466.386152" y="382.705057">600</text>
     </g>
    </g>
    <g id="text_17">
     <text style="fill:#262626;font-family:Arial;font-size:10px;font-style:normal;font-weight:400;text-anchor:middle;" transform="rotate(-0, 276.023622, 395.850369)" x="276.023622" y="395.850369">Time [s]</text>
    </g>
   </g>
   <g id="matplotlib.axis_4">
    <g id="ytick_6">
     <g id="line2d_45">
      <path clip-path="url(#p0234847f94)" d="M 67.322835 350.830637 
L 484.724409 350.830637 
" style="fill:none;stroke:#cccccc;stroke-linecap:round;stroke-width:0.8;"/>
     </g>
     <g id="line2d_46"/>
     <g id="text_18">
      <text style="fill:#262626;font-family:Arial;font-size:10px;font-style:normal;font-weight:400;text-anchor:end;" transform="rotate(-0, 63.822835, 354.409543)" x="63.822835" y="354.409543">−1.0</text>
     </g>
    </g>
    <g id="ytick_7">
     <g id="line2d_47">
      <path clip-path="url(#p0234847f94)" d="M 67.322835 328.02182 
L 484.724409 328.02182 
" style="fill:none;stroke:#cccccc;stroke-linecap:round;stroke-width:0.8;"/>
     </g>
     <g id="line2d_48"/>
     <g id="text_19">
      <text style="fill:#262626;font-family:Arial;font-size:10px;font-style:normal;font-weight:400;text-anchor:end;" transform="rotate(-0, 63.822835, 331.600726)" x="63.822835" y="331.600726">−0.5</text>
     </g>
    </g>
    <g id="ytick_8">
     <g id="line2d_49">
      <path clip-path="url(#p0234847f94)" d="M 67.322835 305.213002 
L 484.724409 305.213002 
" style="fill:none;stroke:#cccccc;stroke-linecap:round;stroke-width:0.8;"/>
     </g>
     <g id="line2d_50"/>
     <g id="text_20">
      <text style="fill:#262626;font-family:Arial;font-size:10px;font-style:normal;font-weight:400;text-anchor:end;" transform="rotate(-0, 63.822835, 308.791909)" x="63.822835" y="308.791909">0.0</text>
     </g>
    </g>
    <g id="ytick_9">
     <g id="line2d_51">
      <path clip-path="url(#p0234847f94)" d="M 67.322835 282.404185 
L 484.724409 282.404185 
" style="fill:none;stroke:#cccccc;stroke-linecap:round;stroke-width:0.8;"/>
     </g>
     <g id="line2d_52"/>
     <g id="text_21">
      <text style="fill:#262626;font-family:Arial;font-size:10px;font-style:normal;font-weight:400;text-anchor:end;" transform="rotate(-0, 63.822835, 285.983092)" x="63.822835" y="285.983092">0.5</text>
     </g>
    </g>
    <g id="ytick_10">
     <g id="line2d_53">
      <path clip-path="url(#p0234847f94)" d="M 67.322835 259.595368 
L 484.724409 259.595368 
" style="fill:none;stroke:#cccccc;stroke-linecap:round;stroke-width:0.8;"/>
     </g>
     <g id="line2d_54"/>
     <g id="text_22">
      <text style="fill:#262626;font-family:Arial;font-size:10px;font-style:normal;font-weight:400;text-anchor:end;" transform="rotate(-0, 63.822835, 263.174275)" x="63.822835" y="263.174275">1.0</text>
     </g>
    </g>
    <g id="ytick_11">
     <g id="line2d_55">
      <path clip-path="url(#p0234847f94)" d="M 67.322835 236.786551 
L 484.724409 236.786551 
" style="fill:none;stroke:#cccccc;stroke-linecap:round;stroke-width:0.8;"/>
     </g>
     <g id="line2d_56"/>
     <g id="text_23">
      <text style="fill:#262626;font-family:Arial;font-size:10px;font-style:normal;font-weight:400;text-anchor:end;" transform="rotate(-0, 63.822835, 240.365457)" x="63.822835" y="240.365457">1.5</text>
     </g>
    </g>
    <g id="text_24">
     <text style="fill:#262626;font-family:Arial;font-size:10px;font-style:normal;font-weight:400;text-anchor:middle;" transform="rotate(-90, 38.09471, 299.08733)" x="38.09471" y="299.08733">Pressure [bar]</text>
    </g>
   </g>
   <g id="line2d_57">
    <path clip-path="url(#p0234847f94)" d="M 86.295634 305.213002 
L 88.199259 304.320129 
L 90.102884 302.403913 
L 92.006509 299.786209 
L 93.910135 296.642293 
L 97.717385 289.569747 
L 103.428261 278.778141 
L 107.235512 272.046739 
L 111.042762 265.898813 
L 114.850013 260.415532 
L 118.657264 255.613469 
L 122.464514 251.465334 
L 126.271765 247.921772 
L 130.079015 244.927435 
L 133.886266 242.422204 
L 137.693517 240.346029 
L 141.500767 238.641558 
L 145.308018 237.255632 
L 149.115269 236.140069 
L 152.922519 235.251967 
L 156.72977 234.553693 
L 162.440646 233.792214 
L 168.151522 233.294908 
L 175.766023 232.923497 
L 185.284149 232.764427 
L 196.705901 232.827211 
L 215.742154 233.197386 
L 297.598042 235.022125 
L 337.574174 235.608073 
L 377.550305 235.969331 
L 419.430062 236.118219 
L 463.213444 236.040093 
L 465.117069 236.031607 
L 465.117069 236.031607 
" style="fill:none;stroke:#00709b;stroke-linecap:round;stroke-width:1.5;"/>
   </g>
   <g id="line2d_58">
    <path clip-path="url(#p0234847f94)" d="M 86.930175 305.213002 
L 88.833801 305.625953 
L 90.737426 305.852514 
L 92.641051 306.625673 
L 94.544676 307.792177 
L 96.448302 309.309595 
L 98.351927 311.154357 
L 100.255552 313.264953 
L 104.062803 317.981588 
L 109.773679 325.380034 
L 111.677304 327.46535 
L 115.484555 331.196083 
L 119.291805 334.626486 
L 123.099056 337.680185 
L 126.906307 340.402845 
L 130.713557 342.824335 
L 134.520808 344.971855 
L 138.328058 346.869909 
L 142.135309 348.543073 
L 145.94256 350.015616 
L 149.74981 351.310751 
L 155.460686 352.967618 
L 161.171562 354.338566 
L 166.882438 355.478868 
L 174.496939 356.718937 
L 182.11144 357.716765 
L 191.629567 358.613839 
L 204.954944 359.606255 
L 222.087572 360.637185 
L 243.02745 361.670142 
L 269.678204 362.749252 
L 298.232584 363.679253 
L 328.690589 364.441776 
L 359.148594 364.979581 
L 389.606598 365.300882 
L 421.968229 365.414525 
L 454.329859 365.305421 
L 465.751611 365.21637 
L 465.751611 365.21637 
" style="fill:none;stroke:#00709b;stroke-dasharray:5.55,2.4;stroke-dashoffset:0;stroke-width:1.5;"/>
   </g>
   <g id="patch_8">
    <path d="M 67.322835 372.047244 
L 67.322835 226.127416 
" style="fill:none;stroke:#cccccc;stroke-linecap:square;stroke-linejoin:miter;"/>
   </g>
   <g id="patch_9">
    <path d="M 484.724409 372.047244 
L 484.724409 226.127416 
" style="fill:none;stroke:#cccccc;stroke-linecap:square;stroke-linejoin:miter;"/>
   </g>
   <g id="patch_10">
    <path d="M 67.322835 372.047244 
L 484.724409 372.047244 
" style="fill:none;stroke:#cccccc;stroke-linecap:square;stroke-linejoin:miter;"/>
   </g>
   <g id="patch_11">
    <path d="M 67.322835 226.127416 
L 484.724409 226.127416 
" style="fill:none;stroke:#cccccc;stroke-linecap:square;stroke-linejoin:miter;"/>
   </g>
  </g>
 </g>
 <defs>
  <clipPath id="p6dd79eba01">
   <rect height="145.919828" width="417.401575" x="67.322835" y="51.023622"/>
  </clipPath>
  <clipPath id="p0234847f94">
   <rect height="145.919828" width="417.401575" x="67.322835" y="226.127416"/>
  </clipPath>
 </defs>
</svg>
