<svg version="1.1" xmlns="http://www.w3.org/2000/svg" xmlns:xlink="http://www.w3.org/1999/xlink" width="800" height="400" style="width: 800px; height: 400px;"><defs/><g><g/><g transform="scale(1,1) translate(0.5,0.5)"><rect fill="#FFFFFF" stroke="none" x="0" y="0" width="800" height="400"/><rect fill="#ffffff" stroke="none" x="0" y="0" width="800" height="400"/><rect fill="#FFFFFF" stroke="none" x="28.730000000000004" y="5" width="766.27" height="366.27"/><rect fill="#ffffff" stroke="none" x="28.730000000000004" y="5" width="766.27" height="366.27"/><g><rect fill="none" stroke="#e5e5e5" x="28.730000000000004" y="5" width="766.27" height="366.27" stroke-miterlimit="10"/></g><g><g><path fill="none" stroke="#e5e5e5" paint-order="fill stroke markers" d=" M 88 371 L 88 5" stroke-miterlimit="10"/><path fill="none" stroke="#e5e5e5" paint-order="fill stroke markers" d=" M 206 371 L 206 5" stroke-miterlimit="10"/><path fill="none" stroke="#e5e5e5" paint-order="fill stroke markers" d=" M 323 371 L 323 5" stroke-miterlimit="10"/><path fill="none" stroke="#e5e5e5" paint-order="fill stroke markers" d=" M 441 371 L 441 5" stroke-miterlimit="10"/><path fill="none" stroke="#e5e5e5" paint-order="fill stroke markers" d=" M 559 371 L 559 5" stroke-miterlimit="10"/><path fill="none" stroke="#e5e5e5" paint-order="fill stroke markers" d=" M 677 371 L 677 5" stroke-miterlimit="10"/></g><g><path fill="none" stroke="#e5e5e5" paint-order="fill stroke markers" d=" M 29 310 L 795 310" stroke-miterlimit="10"/><path fill="none" stroke="#e5e5e5" paint-order="fill stroke markers" d=" M 29 249 L 795 249" stroke-miterlimit="10"/><path fill="none" stroke="#e5e5e5" paint-order="fill stroke markers" d=" M 29 188 L 795 188" stroke-miterlimit="10"/><path fill="none" stroke="#e5e5e5" paint-order="fill stroke markers" d=" M 29 127 L 795 127" stroke-miterlimit="10"/><path fill="none" stroke="#e5e5e5" paint-order="fill stroke markers" d=" M 29 66 L 795 66" stroke-miterlimit="10"/></g><g fill="rgb(190,30,60)" fill-opacity="0.45"><path fill="none" stroke="none"/><path fill="" stroke="none" d=""/><g transform="translate(205.56153846153848,188.135) rotate(0,0,0)"><path fill="" stroke="none" d=" M -117.8876923076923 0 C -117.8876923076923 67.36730856 -65.0485424123077 122.08999999999997 0 122.08999999999997 C 65.0485424123077 122.08999999999997 117.8876923076923 67.36730856 117.8876923076923 0 C 117.8876923076923 -67.36730856 65.0485424123077 -122.08999999999997 0 -122.08999999999997 C -65.0485424123077 -122.08999999999997 -117.8876923076923 -67.36730856 -117.8876923076923 0"/><g transform="rotate(0,0,0) translate(-205.56153846153848,-188.135)" fill=""/></g></g><g fill="white"><path fill="none" stroke="none"/><path fill="" stroke="none" d=""/><g transform="translate(205.56153846153848,188.135) rotate(0,0,0)"><path fill="" stroke="none" d=" M -92.30958939023918 0 C -92.30958939023918 52.750617725794356 -50.93495447210374 95.60012201476366 0 95.60012201476366 C 50.93495447210374 95.60012201476366 92.30958939023918 52.750617725794356 92.30958939023918 0 C 92.30958939023918 -52.750617725794356 50.93495447210374 -95.60012201476366 0 -95.60012201476366 C -50.93495447210374 -95.60012201476366 -92.30958939023918 -52.750617725794356 -92.30958939023918 0"/><g transform="rotate(0,0,0) translate(-205.56153846153848,-188.135)" fill=""/></g></g><g fill="rgb(225,109,0)" fill-opacity="0.315"><path fill="none" stroke="none"/><path fill="" stroke="none" d=""/><g transform="translate(205.56153846153848,188.135) rotate(0,0,0)"><path fill="" stroke="none" d=" M -92.30958939023918 0 C -92.30958939023918 52.750617725794356 -50.93495447210374 95.60012201476366 0 95.60012201476366 C 50.93495447210374 95.60012201476366 92.30958939023918 52.750617725794356 92.30958939023918 0 C 92.30958939023918 -52.750617725794356 50.93495447210374 -95.60012201476366 0 -95.60012201476366 C -50.93495447210374 -95.60012201476366 -92.30958939023918 -52.750617725794356 -92.30958939023918 0"/><g transform="rotate(0,0,0) translate(-205.56153846153848,-188.135)" fill=""/></g></g><g><path fill="none" stroke="none"/><path fill="none" stroke="#1f77b4" paint-order="fill stroke markers" d=" M 205.56153846153848 188.135 L 291.2390785173643 223.71695457747975" stroke-miterlimit="10" stroke-dasharray="6"/></g><g><path fill="none" stroke="none"/><path fill="none" stroke="rgb(102,180,211)" paint-order="fill stroke markers" d=" M 559.224615042741 188.14696481999425 L 559.2246150266125 188.14724379865658 L 559.2246150097232 188.1475292821467 L 559.2246149920369 188.147821422135 L 559.2246149735163 188.14812037382816 L 559.224614954122 188.1484262960519 L 559.2246149338126 188.14873935133508 L 559.2246149125451 188.14905970599628 L 559.2246148902743 188.149387530232 L 559.224614866953 188.14972299820712 L 559.2246148425313 188.15006628814757 L 559.2246148169575 188.15041758243476 L 559.2246147901772 188.15077706770268 L 559.2246147621336 188.15114493493695 L 559.2246147327668 188.15152137957637 L 559.2246147020146 188.15190660161664 L 559.2246146698117 188.15230080571675 L 559.2246146360895 188.15270420130759 L 559.2246146007765 188.15311700270325 L 559.2246145637974 188.15353942921493 L 559.2246145250738 188.1539717052674 L 559.2246144845234 188.1544140605182 L 559.2246144420599 188.1548667299798 L 559.2246143975931 188.1553299541443 L 559.2246143510285 188.15580397911117 L 559.2246143022674 188.15628905671826 L 559.2246142512056 188.15678544467525 L 559.2246141977348 188.1572934067008 L 559.2246141417415 188.1578132126626 L 559.2246140831068 188.15834513872068 L 559.2246140217057 188.15888946747424 L 559.224613957408 188.15944648811166 L 559.2246138900769 188.16001649656425 L 559.2246138195693 188.16059979566342 L 559.2246137457354 188.16119669530153 L 559.2246136684183 188.1618075125966 L 559.2246135874535 188.1624325720608 L 559.2246135026692 188.16307220577272 L 559.224613413885 188.16372675355393 L 559.2246133209121 188.16439656314952 L 559.2246132235532 188.16508199041272 L 559.2246131216011 188.1657833994941 L 559.2246130148394 188.16650116303495 L 559.2246129030409 188.1672356623653 L 559.224612785968 188.16798728770647 L 559.224612663372 188.16875643837835 L 559.2246125349925 188.16954352301175 L 559.2246124005565 188.1703489597652 L 559.2246122597779 188.17117317654728 L 559.224612112358 188.17201661124406 L 559.2246119579834 188.17287971195145 L 559.2246117963258 188.1737629372135 L 559.2246116270417 188.17466675626594 L 559.2246114497714 188.17559164928542 L 559.2246112641379 188.17653810764472 L 559.2246110697469 188.1775066341737 L 559.224610866185 188.17849774342656 L 559.2246106530199 188.17951196195503 L 559.2246104297983 188.18054982858834 L 559.2246101960458 188.18161189471925 L 559.2246099512656 188.18269872459723 L 559.2246096949375 188.183810895628 L 559.2246094265165 188.18494899868048 L 559.2246091454324 188.18611363840057 L 559.2246088510876 188.1873054335325 L 559.2246085428565 188.1885250172474 L 559.2246082200841 188.18977303747985 L 559.2246078820842 188.1910501572721 L 559.2246075281387 188.19235705512605 L 559.2246071574951 188.19369442536419 L 559.2246067693658 188.19506297849802 L 559.2246063629257 188.19646344160589 L 559.224605937311 188.19789655871898 L 559.2246054916172 188.1993630912168 L 559.2246050248971 188.20086381823162 L 559.2246045361585 188.20239953706232 L 559.2246040243627 188.20397106359815 L 559.2246034884222 188.205579232752 L 559.2246029271976 188.2072248989041 L 559.2246023394963 188.20890893635584 L 559.2246017240691 188.2106322397944 L 559.224601079608 188.21239572476787 L 559.2246004047431 188.21420032817187 L 559.2245996980404 188.21604700874713 L 559.2245989579976 188.2179367475889 L 559.2245981830421 188.21987054866824 L 559.2245973715266 188.22184943936534 L 559.2245965217263 188.22387447101528 L 559.2245956318352 188.22594671946675 L 559.2245946999618 188.2280672856534 L 559.2245937241257 188.23023729617896 L 559.2245927022527 188.23245790391556 L 559.2245916321709 188.2347302886164 L 559.224590511606 188.23705565754238 L 559.2245893381767 188.2394352461036 L 559.2245881093884 188.2418703185156 L 559.2245868226299 188.24436216847104 L 559.2245854751664 188.24691211982702 L 559.2245840641336 188.2495215273084 L 559.2245825865328 188.25219177722744 L 559.2245810392236 188.25492428822054 L 559.2245794189173 188.25772051200158 L 559.2245777221699 188.26058193413346 L 559.2245759453756 188.26351007481725 L 559.2245740847576 188.26650648969968 L 559.2245721363616 188.26957277069988 L 559.2245700960465 188.27271054685485 L 559.2245679594758 188.27592148518514 L 559.2245657221085 188.27920729158026 L 559.2245633791892 188.28256971170515 L 559.2245609257386 188.28601053192756 L 559.2245583565419 188.28953158026698 L 559.2245556661387 188.29313472736595 L 559.2245528488108 188.29682188748373 L 559.2245498985703 188.30059501951345 L 559.2245468091469 188.30445612802262 L 559.2245435739743 188.30840726431822 L 559.2245401861766 188.31245052753638 L 559.2245366385532 188.3165880657577 L 559.2245329235643 188.3208220771484 L 559.224529033314 188.32515481112796 L 559.224524959534 188.32958856956446 L 559.224520693566 188.33412570799723 L 559.2245162263432 188.33876863688835 L 559.2245115483711 188.3435198229032 L 559.224506649707 188.34838179022097 L 559.2245015199395 188.35335712187558 L 559.2244961481659 188.35844846112792 L 559.2244905229691 188.3636585128702 L 559.2244846323932 188.36899004506282 L 559.2244784639189 188.374445890205 L 559.2244720044354 188.38002894683947 L 559.2244652402139 188.38574218109233 L 559.224458156878 188.39158862824883 L 559.2244507393726 188.39757139436585 L 559.2244429719331 188.40369365792205 L 559.2244348380502 188.40995867150642 L 559.2244263204366 188.41636976354616 L 559.2244174009891 188.4229303400749 L 559.2244080607502 188.42964388654227 L 559.2243982798684 188.4365139696653 L 559.2243880375556 188.44354423932342 L 559.2243773120431 188.45073843049732 L 559.2243660805348 188.45810036525313 L 559.2243543191594 188.46563395477287 L 559.2243420029197 188.4733432014322 L 559.2243291056387 188.4812322009266 L 559.2243155999049 188.48930514444717 L 559.2243014570132 188.4975663209071 L 559.2242866469047 188.5060201192201 L 559.2242711381022 188.51467103063175 L 559.2242548976433 188.5235236511056 L 559.2242378910108 188.5325826837644 L 559.2242200820593 188.54185294138873 L 559.2242014329378 188.55133934897336 L 559.2241819040095 188.56104694634374 L 559.224161453768 188.57098089083294 L 559.2241400387488 188.5811464600215 L 559.2241176134363 188.59154905454076 L 559.2240941301686 188.60219420094168 L 559.2240695390342 188.6130875546306 L 559.2240437877675 188.62423490287333 L 559.2240168216373 188.63564216786918 L 559.2239885833299 188.64731540989698 L 559.223959012828 188.6592608305339 L 559.2239280472829 188.67148477594978 L 559.2238956208807 188.68399374027797 L 559.2238616647027 188.69679436906483 L 559.2238261065788 188.70989346279956 L 559.2237888709343 188.72329798052633 L 559.2237498786288 188.73701504354054 L 559.2237090467886 188.75105193917136 L 559.2236662886302 188.76541612465232 L 559.2236215132755 188.78011523108188 L 559.2235746255595 188.79515706747685 L 559.2235255258279 188.81054962491953 L 559.223474109724 188.82630108080215 L 559.2234202679688 188.84241980316983 L 559.2233638861273 188.85891435516473 L 559.2233048443661 188.8757934995739 L 559.2232430171982 188.893066203483 L 559.2231782732167 188.91074164303842 L 559.223110474815 188.92882920832045 L 559.223039477895 188.9473385083297 L 559.2229651315602 188.96627937608991 L 559.222887277795 188.98566187386973 L 559.2228057511296 189.00549629852566 L 559.2227203782876 189.02579318696988 L 559.2226309778177 189.0465633217652 L 559.2225373597086 189.06781773685043 L 559.2224393249843 189.08956772339886 L 559.2223366652821 189.11182483581334 L 559.2222291624091 189.134600897861 L 559.2221165878789 189.15790800895041 L 559.2219987024253 189.18175855055551 L 559.2218752554943 189.20616519278843 L 559.2217459847116 189.23114090112563 L 559.2216106153246 189.25669894329067 L 559.2214688596188 189.28285289629693 L 559.2213204163057 189.3096166536543 L 559.2211649698831 189.3370044327436 L 559.2210021899639 189.3650307823626 L 559.2208317305742 189.39371059044743 L 559.2206532294183 189.42305909197378 L 559.2204663071076 189.45309187704177 L 559.2202705663552 189.48382489914877 L 559.2200655911312 189.5152744836548 L 559.219850945778 189.54745733644452 L 559.2196261740851 189.5803905527908 L 559.2193907983185 189.614091626424 L 559.219144318206 189.64857845881235 L 559.2188862098733 189.68386936865784 L 559.2186159247312 189.71998310161254 L 559.2183328883092 189.756938840221 L 559.2180364990335 189.79475621409318 L 559.2177261269501 189.83345531031372 L 559.2174011123843 189.87305668409306 L 559.2170607645396 189.91358136966542 L 559.2167043600283 189.95505089143998 L 559.2163311413348 189.9974872754106 L 559.2159403152045 190.0409130608302 L 559.2155310509592 190.08535131215592 L 559.2151024787291 190.1308256312712 L 559.2146536876061 190.17736016999092 L 559.2141837237058 190.2249796428567 L 559.2136915881409 190.27370934022815 L 559.2131762348974 190.32357514167748 L 559.2126365686114 190.374603529694 L 559.2120714422404 190.42682160370617 L 559.2114796546248 190.48025709442726 L 559.2108599479357 190.5349383785335 L 559.2102110049995 190.590894493681 L 559.209531446499 190.64815515386965 L 559.2088198280412 190.70675076516218 L 559.2080746370859 190.76671244176563 L 559.2072942897319 190.82807202248418 L 559.206477127348 190.89086208755114 L 559.2056214130484 190.95511597584905 L 559.2047253279999 191.02086780252654 L 559.2037869675548 191.08815247702046 L 559.2028043372025 191.15700572149288 L 559.2017753483283 191.22746408969215 L 559.2006978137741 191.29956498624702 L 559.1995694431878 191.37334668640406 L 559.1983878381537 191.44884835621778 L 559.1971504870943 191.52611007320385 L 559.1958547599289 191.60517284746524 L 559.1944979024835 191.68607864330215 L 559.1930770306333 191.76887040131592 L 559.1915891241713 191.85359206101808 L 559.1900310203866 191.9402885839555 L 559.1883994073389 192.02900597736266 L 559.1866908168172 192.11979131835287 L 559.184901616964 192.2126927786597 L 559.1830280045532 192.30775964994055 L 559.1810659969024 192.4050423696549 L 559.1790114234034 192.50459254752863 L 559.1768599166531 192.6064629926176 L 559.1746069031663 192.71070774098288 L 559.172247593648 192.81738208399048 L 559.1697769728089 192.92654259724878 L 559.1671897886986 193.03824717019677 L 559.1644805415343 193.15255503635666 L 559.1616434720042 193.26952680426456 L 559.1586725490166 193.3892244890929 L 559.1555614568713 193.51171154497888 L 559.1523035818249 193.63705289807277 L 559.1488919980213 193.76531498032082 L 559.1453194527583 193.89656576399702 L 559.1415783510572 194.0308747969985 L 559.1376607395052 194.16831323891932 L 559.1335582893316 194.3089538979178 L 559.129262278688 194.4528712683921 L 559.1247635740876 194.60014156947932 L 559.120052610971 194.75084278439383 L 559.1151193733504 194.90505470061922 L 559.1099533724939 195.06285895097025 L 559.1045436246014 195.22433905553936 L 559.0988786274261 195.38958046454374 L 559.0929463357895 195.55867060208786 L 559.0867341359401 195.73169891085712 L 559.0802288186992 195.90875689775788 L 559.0734165513368 196.08993818051854 L 559.0662828481179 196.27533853526734 L 559.0588125394555 196.46505594510108 L 559.0509897396041 196.65919064965954 L 559.0427978128259 196.85784519572005 L 559.0342193379554 197.06112448882556 L 559.025236071287 197.26913584596062 L 559.0158289077074 197.4819890492873 L 559.0059778399876 197.69979640095454 L 558.9956619161474 197.92267277899205 L 558.9848591948019 198.1507356943008 L 558.9735466983939 198.38410534874996 L 558.9617003642105 198.62290469439 L 558.9492949930797 198.86725949379107 L 558.936304195636 199.11729838151368 L 558.9227003360413 199.37315292671818 L 558.9084544730363 199.63495769691838 L 558.8935362981982 199.90285032288233 L 558.8779140712722 200.17697156468282 L 558.861554552434 200.45746537889698 L 558.8444229313411 200.7444789869539 L 558.8264827528163 201.0381629446254 L 558.807695839005 201.33867121265433 L 558.7880222078373 201.6461612285106 L 558.7674199876194 201.9607939792636 L 558.7458453275666 202.2827340755553 L 558.7232523040876 202.61214982665615 L 558.6995928226153 202.9492133165807 L 558.6748165147701 203.2941004812373 L 558.6488706306347 203.64699118658027 L 558.621699925905 204.00806930772907 L 558.5932465436697 204.3775228090133 L 558.5634498905672 204.7555438248964 L 558.5322465070427 205.14232874172478 L 558.499569931428 205.53807828024208 L 558.4653505575453 205.94299757880117 L 558.4295154855242 206.3572962771972 L 558.3919883655057 206.7811886010378 L 558.3526892338926 207.2148934465552 L 558.311534341786 207.65863446575568 L 558.2684359752326 208.11264015178955 L 558.2233022668895 208.57714392441318 L 558.1760369986919 209.05238421540025 L 558.1265393950906 209.5386045537452 L 558.0747039064063 210.03605365048577 L 558.0204199818199 210.5449854829544 L 557.963571831505 211.06565937824854 L 557.9040381773736 211.59834009569056 L 557.8416919918884 212.14329790802455 L 557.7764002243637 212.7008086810737 L 557.7080235141543 213.2711539515559 L 557.6364158900956 213.85462100272474 L 557.5614244555338 214.4515029374747 L 557.4828890582519 215.06209874851254 L 557.4006419445593 215.68671338516242 L 557.314507396786 216.3256578163302 L 557.2243013533792 216.97924908910986 L 557.1298310107666 217.64781038246755 L 557.0308944061073 218.33167105538587 L 556.9272799800173 219.03116668879628 L 556.8187661183042 219.74663912056494 L 556.7051206717117 220.47843647273123 L 556.5861004526205 221.2269131701257 L 556.4614507076107 221.9924299494141 L 556.3309045647394 222.77535385752952 L 556.1941824543367 223.57605823835902 L 556.0509915020732 224.39492270645002 L 555.9010248929999 225.23233310639006 L 555.7439612052037 226.08868145639124 L 555.579463711673 226.96436587447945 L 555.4071796489084 227.85979048554293 L 555.2267394507593 228.77536530733812 L 555.0377559459139 229.71150611337936 L 554.839823517413 230.6686342704508 L 554.6325172225061 231.64717654827706 L 554.4153918711187 232.64756489866477 L 554.1879810611485 233.67023620118732 L 553.9497961687655 234.71563197221894 L 553.7003252918507 235.78419803383912 L 553.4390321446772 236.87638413881297 L 553.1653549019067 237.99264354751426 L 552.8787049899672 239.13343255228497 L 552.5784658238654 240.2992099443221 L 552.2639914875059 241.49043641774313 L 551.9346053556128 242.70757390500353 L 551.5895986554021 243.95108483732125 L 551.228228966226 245.22143132319968 L 550.8497186555126 246.51907423752942 L 550.4532532494679 247.8444722130881 L 550.0379797371778 249.19808052553972 L 549.6030048069825 250.58034986226136 L 549.1473930142693 251.9917249644879 L 548.670164880182 253.43264313136564 L 548.1702949211606 254.90353257353348 L 547.6467096097318 256.4048106028123 L 547.0982852675772 257.9368816434645 L 546.5238458926233 259.50013504929905 L 545.9221609227475 261.0949427096224 L 545.2919429396927 262.7216564256961 L 544.6318453179541 264.3806050379334 L 543.9404598247645 266.0720912825729 L 543.21631417889 267.79638835500083 L 542.4578695777839 269.55373615526366 L 541.6635182047628 271.3443371896368 L 540.8315807303082 273.1683521003969 L 539.9603038243861 275.02589479421346 L 539.0478576998788 276.91702713785213 L 538.0923337108569 278.84175318819564 L 537.0917420335583 280.8000129219855 L 536.0440094626292 282.7916754292139 L 534.9469773604669 284.81653153281155 L 533.7983998034496 286.87428579626254 L 532.5959419755118 288.9645478801158 L 531.3371788669568 291.08682320816513 L 530.0195943446695 293.2405029044654 L 528.6405806690382 295.42485296348383 L 527.1974385429621 297.63900261774165 L 525.6873777893293 299.88193187046977 L 524.1075187653237 302.15245816533604 L 522.4548946348363 304.44922217145086 L 520.7264546340695 306.77067266994555 L 518.919068480061 309.1150505387652 L 517.0295320871726 311.4803718453137 L 515.0545747723836 313.8644100726473 L 512.9908681462456 316.26467752446024 L 510.8350369021953 318.6784059776313 L 508.58367173213344 321.10252667907093 L 506.23334461012837 323.53364981650793 L 503.7806266980456 325.9680436311569 L 501.22210913590425 328.4016133843 L 498.554426984703 330.8298804400598 L 495.77428658902085 333.2479617832089 L 492.87849661935314 335.6505503537903 L 489.864003038138 338.0318966493815 L 486.7279282068187 340.38579212046307 L 483.4676143119424 342.70555496360254 L 480.08067123395347 344.9840189995504 L 476.56502891068783 347.2135264068111 L 472.9189941563421 349.3859251630098 L 469.14131178380177 351.49257212285477 L 465.2312297419603 353.52434272825457 L 461.1885678189526 355.47164839783477 L 457.0137892768286 357.3244626734471 L 452.7080745740742 359.0723572032142 L 448.2733961020198 360.70454860643486 L 443.7125926139154 362.209957187178 L 439.029441767829 363.5772783324927 L 434.22872894554035 364.79506724029994 L 429.31631026088337 365.8518373649014 L 424.29916744678314 366.73617264040263 L 419.1854521272227 367.43685314294845 L 413.9845168571649 367.94299338423104 L 408.7069302697963 368.24419189886135 L 403.3644737260638 368.3306902102105 L 397.97011703456553 368.1935386527491 L 392.5379711153075 367.82476591959403 L 387.0832159283003 367.2175486236679 L 381.6220025797433 366.3663766460972 L 376.1713292478615 365.26720963571904 L 370.74889141999773 363.9176197586961 L 365.3729078738046 362.31691571437767 L 360.06192482882363 360.4662431634646 L 354.83460169126266 358.36865707803906 L 349.7094827582091 356.0291621276072 L 344.70476007828194 353.45471805260297 L 339.838033325427 350.654208021215 L 335.12607297904276 347.6383691742644 L 330.5845932759699 344.4196858783108 L 326.2280412828366 341.0122475597661 L 322.06940802445615 337.43157430652457 L 318.12006690948806 333.69441462196664 L 314.38964375252726 329.81852072847613 L 310.885921553977 325.82240758507055 L 307.61478193084264 321.7251022644462 L 304.5801837663728 317.5458905069412 L 301.7841783396249 313.3040671324171 L 299.22695897865844 309.01869656637666 L 296.90694221460353 304.70838906243114 L 294.8208765458221 300.39109733199285 L 292.96397428275685 296.08393728506917 L 291.330061548394 291.80303550773533 L 289.91174135342146 287.56340501478996 L 288.70056473150413 283.37884977636605 L 287.68720517954273 279.2618975712953 L 286.861632063523 275.22375990251624 L 286.2132791817429 271.2743170430359 L 285.7312052824289 267.4221257751306 L 285.40424397296164 263.67444704010904 L 285.2211410986034 260.03729052173367 L 285.1706782811964 256.51547312739433 L 285.2417818708535 253.11268838711243 L 285.42361706097404 249.83158393897463 L 285.70566734000465 246.6738444878397 L 286.07779979873584 243.64027789035737 L 286.5303170805607 240.73090231382173 L 287.0539969584433 237.9450327222439 L 287.64012065319014 235.2813652464222 L 288.28049108129403 232.73805828498234 L 288.96744224614156 230.31280945256347 L 289.69384097280476 228.00292773439944 L 290.4530821426348 225.80540042060375 L 291.2390785173643 223.71695457747975 L 292.04624616039047 221.7341129675537 L 292.8694863713175 219.853244456233 L 293.70416495361223 218.07060904321827 L 294.54608953828966 216.3823977336834 L 295.3914855919292 214.78476752063347 L 296.23697164723217 213.2738717886469 L 297.0795342103007 211.84588647321098 L 297.91650272180726 210.4970323216859 L 298.7455248797231 209.22359360397596 L 299.56454256943107 208.02193361536254 L 300.3717685927212 206.88850730251582 L 301.1656643400375 205.81987132801967 L 301.9449185099429 204.8126918701452 L 302.70842694555677 203.86375043417019 L 303.4552736291125 202.9699479301475 L 304.1847128521763 202.12830725035803 L 304.89615255988 201.3359745582834 L 305.58913885218954 200.59021948019017 L 306.2633416132227 199.88843437062292 L 306.9185412304714 199.2281328044487 L 307.5546163590328 198.6069474307033 L 308.17153268121615 198.02262730742027 L 308.76933260883277 197.473034821898 L 309.34812587378013 196.95614228745492 L 309.9080809519467 196.47002829560427 L 310.44941726576167 196.01287389168024 L 310.9723981117008 195.5829586321998 L 311.47732426058093 195.1786565735687 L 311.96452818038676 194.79843223405467 L 312.43436883357026 194.44083656417112 L 312.8872270031479 194.1045029546621 L 313.3235011044233 193.78814330607207 L 313.7436034417138 193.49054417935065 L 314.1479568720247 193.21056304301044 L 314.5369918401413 192.94712462896132 L 314.91114375207934 192.69921740622738 L 315.2708506562218 192.4658901792572 L 315.61655120376025 192.24624881541504 L 315.9486828622408 192.03945310444516 L 316.2676803580814 191.84471375119102 L 316.5739743258774 191.66128950159325 L 316.8679901441393 191.48848440094642 L 317.15014693882 191.325645182544 L 317.420856737581 191.17215878414856 L 317.68052375923094 191.02744998917584 L 317.9295438241418 190.89097918905236 L 318.16830387272 190.76224026287923 L 318.3971815801806 190.64075857029704 L 318.6165450569532 190.5260890532822 L 318.826752625041 190.4178144425034 L 319.0281526615648 190.31554356381784 L 319.2210835015591 190.2189097404801 L 319.40587339285446 190.1275692866683 L 319.5828404965732 190.04120008799035 L 319.75229292741164 189.95950026471664 L 319.91452882845573 189.8821869135882 L 320.0698364758145 189.80899492416538 L 320.2184944088327 189.7396758658103 L 320.3607715820859 189.67399694153286 L 320.49692753575874 189.6117400050709 L 320.6272125813694 189.5527006377214 L 320.7518680001296 189.49668728158596 L 320.87112625152963 189.44352042604123 L 320.98521119000276 189.39303184439143 L 321.09433828777054 189.34506387780414 L 321.1987148621873 189.29946876377264 L 321.29854030610136 189.2561080064857 L 321.3940063199304 189.21485178662084 L 321.48529714430646 189.17557840820643 L 321.5725897922954 189.13817378032425 L 321.6560542803213 189.1025309315447 L 321.73585385704666 189.06854955510278 L 321.81214522956265 189.03613558293466 L 321.88507878633834 189.00520078680017 L 321.9547988164608 188.97566240481865 L 322.02144372477494 188.94744279184184 L 322.08514624259664 188.92046909217913 L 322.14603363373476 188.89467293327868 L 322.2042278956085 188.86999013904926 L 322.25984595529513 188.84636046158772 L 322.3129998603833 188.82372733015026 L 322.36379696454554 188.80203761627607 L 322.41234010777436 188.78124141403856 L 322.45872779125517 188.76129183446236 L 322.5030543468745 188.74214481320234 L 322.54541010138314 188.7237589306381 L 322.5858815352527 188.70609524358883 L 322.6245514362798 188.68911712790356 L 322.66149904800653 188.67279013122817 L 322.6968002130381 188.6570818352943 L 322.7305275113464 188.64196172711678 L 322.7627503936589 188.62740107852488 L 322.7935353100383 188.61337283348863 L 322.82294583376245 188.5998515027364 L 322.85104278062136 188.5868130651915 L 322.8778843237486 188.5742348757856 L 322.903526104108 188.56209557923583 L 322.9280213367592 188.5503750293978 L 322.95142091302426 188.53905421383234 L 322.9737734986804 188.52811518324725 L 322.99512562830114 188.5175409854966 L 323.0155217958703 188.50731560384068 L 323.03500454178936 188.49742389918967 L 323.0536145363994 188.48785155607084 L 323.0713906601361 188.47858503207692 L 323.0883700804347 188.46961151056863 L 323.1045883254993 188.46091885641866 L 323.1200793550491 188.4524955745995 L 323.1348756281504 188.44433077142878 L 323.1490081682429 188.43641411829915 L 323.16250662546383 188.42873581773043 L 323.17539933637096 188.4212865715925 L 323.1877133811653 188.41405755135733 L 323.19947463850735 188.40704037024764 L 323.2107078380217 188.40022705715865 L 323.2214366105789 188.39361003223704 L 323.2316835364437 188.3871820840094 L 323.24147019137257 188.38093634795882 L 323.2508171907435 188.37486628645547 L 323.2597442317969 188.368965669953 L 323.26827013406375 188.36322855936825 L 323.2764128780549 188.35764928956732 L 323.28418964228206 188.3522224538861 L 323.2916168386805 188.3469428896182 L 323.2987101464973 188.34180566440682 L 323.3054845447103 188.336806063483 L 323.3119543430388 188.3319395776942 L 323.3181332116042 188.32720189227283 L 323.3240342092975 188.3225888762966 L 323.3296698109085 188.31809657279587 L 323.3350519330685 188.3137211894663 L 323.3401919590572 188.30945908994775 L 323.3451007625218 188.30530678563304 L 323.34978873015444 188.30126092797224 L 323.3542657833735 188.29731830124092 L 323.3585413990501 188.29347581574248 L 323.36262462932217 188.28973050141656 L 323.3665241205337 188.2860795018279 L 323.3702481313393 188.28252006851125 L 323.3738045500073 188.27904955564924 L 323.3772009109592 188.2756654150628 L 323.3804444105752 188.2723651914934 L 323.3835419223013 188.2691465181594 L 323.38650001108533 188.26600711256856 L 323.38932494717335 188.26294477257105 L 323.3920227192928 188.2599573726373 L 323.3945990472508 188.25704286034707 L 323.39705939397123 188.2541992530762 L 323.39940897699756 188.25142463486873 L 323.40165277948284 188.24871715348303 L 323.4037955606906 188.2460750176007 L 323.4058418660277 188.2434964941888 L 323.40779603663003 188.24097990600532 L 323.40966221852085 188.23852362923938 L 323.41144437135983 188.23612609127795 L 323.41314627680225 188.2337857685912 L 323.4147715464844 188.23150118472924 L 323.41632362965237 188.22927090842376 L 323.41780582044987 188.22709355178785 L 323.41922126488015 188.2249677686084 L 323.4205729674565 188.22289225272527 L 323.42186379755543 188.2208657364926 L 323.42309649548525 188.21888698931636 L 323.4242736782828 188.21695481626483 L 323.4253978452513 188.21506805674687 L 323.4264713832494 188.2132255832543 L 323.4274965717434 188.21142630016485 L 323.42847558763344 188.2096691426017 L 323.42941050986303 188.20795307534695 L 323.43030332382165 188.20627709180542 L 323.4311559255506 188.20464021301606 L 323.43197012575956 188.20304148670868 L 323.4327476536631 188.20147998640275 L 323.43349016064536 188.19995481054656 L 323.4341992237597 188.19846508169402 L 323.4348763490717 188.19700994571755 L 323.435522974852 188.19558857105446 L 323.43614047462546 188.1942001479856 L 323.4367301600837 188.19284388794424 L 323.4372932838669 188.19151902285338 L 323.4378310422201 188.19022480449064 L 323.4383445775308 188.18896050387852 L 323.43883498075223 188.18772541069922 L 323.4393032937175 188.18651883273247 L 323.4397505113501 188.18534009531552 L 323.44017758377515 188.18418854082384 L 323.4405854183351 188.18306352817143 L 323.44097488151544 188.18196443233046 L 323.4413468007836 188.18089064386814 L 323.44170196634514 188.17984156850122 L 323.4420411328208 188.17881662666622 L 323.4423650208487 188.1778152531054 L 323.4426743186136 188.17683689646728 L 323.4429696833083 188.1758810189211 L 323.4432517425285 188.1749470957849 L 323.44352109560555 188.17403461516605 L 323.44377831487867 188.17314307761424 L 323.44402394691053 188.1722719957858 L 323.4442585136475 188.17142089411945 L 323.44448251352827 188.17058930852247 L 323.44469642254217 188.1697767860671 L 323.44490069524005 188.16898288469673 L 323.44509576569953 188.1682071729414 L 323.44528204844727 188.16744922964216 L 323.4454599393388 188.1667086436841 L 323.44562981639973 188.16598501373767 L 323.44579204062865 188.16527794800763 L 323.4459469567637 188.16458706398987 L 323.44609489401495 188.16391198823536 L 323.44623616676387 188.16325235612115 L 323.4463710752309 188.16260781162813 L 323.4464999061133 188.1619780071251 L 323.4466229331942 188.16136260315938 L 323.44674041792433 188.16076126825308 L 323.4468526099773 188.16017367870558 L 323.4469597477801 188.15959951840102 L 323.4470620590196 188.15903847862174 L 323.4471597611262 188.15849025786656 L 323.4472530617362 188.15795456167425 L 323.4473421591324 188.1574311024516 L 323.4474272426657 188.1569195993065 L 323.44750849315733 188.15641977788525 L 323.44758608328306 188.15593137021443 L 323.44766017794007 188.1554541145468 L 323.4477309345975 188.1549877552115 L 323.4477985036306 188.15453204246796 L 323.44786302864094 188.1540867323639 L 323.4479246467607 188.1536515865969 L 323.44798348894483 188.15322637237946 L 323.4480396802489 188.15281086230777 L 323.4480933400949 188.1524048342336 L 323.448144582525 188.15200807113973 L 323.448193516444 188.15162036101836 L 323.44824024585074 188.15124149675262 L 323.44828487005884 188.15087127600106 L 323.44832748390803 188.15050950108528 L 323.4483681779656 188.15015597887995 L 323.4484070387189 188.14981052070587 L 323.448444148759 188.1494729422257 L 323.44847958695635 188.14914306334202 L 323.44851342862825 188.14882070809819 L 323.44854574569905 188.14850570458145 L 323.4485766068529 188.1481978848285 L 323.4486060776798 188.1478970847333 L 323.4486342208149 188.14760314395724 L 323.44866109607153 188.1473159058413 L 323.44868676056865 188.14703521732065 L 323.4487112688518 188.14676092884082 L 323.4487346730094 188.14649289427652 L 323.4487570227832 188.14623097085178 L 323.44877836567406 188.1459750190625 L 323.4487987470429 188.1457249026006 L 323.4488182102072 188.14548048827996 L 323.4488367965329 188.14524164596438 L 323.4488545455224 188.14500824849682 L 323.4488714948985 188.14478017163088 L 323.4488876806846 188.14455729396335 L 323.4489031372812 188.1443394968687 L 323.448917897539 188.14412666443502 L 323.4489319928288 188.14391868340152 L 323.44894545310814 188.1437154430974 L 323.44895830698493 188.14351683538217 L 323.4489705817782 188.14332275458756 L 323.4489823035764 188.14313309746044 L 323.4489934972925 188.14294776310754 L 323.4490041867173 188.14276665294096 L 323.4490143945696 188.1425896706254 L 323.44902414254483 188.14241672202624 L 323.449033451361 188.1422477151592 L 323.4490423408028 188.14208256014078 L 323.44905082976345 188.1419211691403 L 323.4490589362852 188.14176345633257 L 323.4490666775974 188.1416093378521 L 323.4490740701531 188.14145873174806 L 323.4490811296642 188.14131155794047 L 323.4490878711349 188.14116773817722 L 323.4490943088932 188.14102719599234 L 323.44910045662186 188.14088985666504 L 323.4491063273869 188.14075564717973 L 323.4491119336661 188.14062449618703 L 323.4491172873747 188.14049633396561 L 323.44912239989145 188.1403710923849 L 323.4491272820823 188.1402487048688 L 323.44913194432377 188.14012910636004 L 323.4491363965248 188.1400122332855 L 323.4491406481481 188.13989802352214 L 323.4491447082299 188.13978641636413 L 323.4491485853993 188.13967735249017 L 323.44915228789694 188.13957077393198 L 323.44915582359187 188.1394666240433 L 323.44915919999886 188.13936484746992 L 323.449162424294 188.13926539011976 L 323.44916550333016 188.13916819913442 L 323.44916844365144 188.1390732228608 L 323.44917125150715 188.13898041082362 L 323.449173932865 188.1388897136985 L 323.4491764934239 188.13880108328573 L 323.4491789386261 188.1387144724846 L 323.44918127366844 188.13862983526818 L 323.4491835035139 188.138547126659 L 323.4491856329017 188.13846630270498 L 323.4491876663575 188.13838732045602 L 323.44918960820326 188.13831013794118 L 323.44919146256615 188.1382347141463 L 323.4491932333874 188.13816100899226 L 323.4491949244306 188.13808898331342 L 323.44919653928997 188.13801859883708 L 323.4491980813976 188.1379498181629 L 323.4491995540311 188.137882604743 L 323.44920096032035 188.13781692286267 L 323.4492023032543 188.13775273762118 L 323.4492035856872 188.13769001491335 L 323.44920481034467 188.13762872141132 L 323.44920597982957 188.1375688245469 L 323.4492070966275 188.13751029249414 L 323.4492081631121 188.13745309415248 L 323.4492091815501 188.13739719913022 L 323.4492101541059 188.1373425777283 L 323.4492110828468 188.13728920092456 L 323.44921196974656 188.13723704035817 L 323.4492128166902 188.13718606831483 L 323.44921362547785 188.13713625771172 L 323.4492143978284 188.1370875820833 L 323.44921513538355 188.13704001556715 L 323.44921583971075 188.13699353289024 L 323.449216512307 188.13694810935553 L 323.4492171546018 188.13690372082877 L 323.44921776796036 188.13686034372571 L 323.4492183536862 188.13681795499963 L 323.44921891302425 188.13677653212892 L 323.44921944716333 188.13673605310524 L 323.4492199572387 188.1366964964218 L 323.44922044433446 188.13665784106186 L 323.4492209094858 188.13662006648772 L 323.4492213536815 188.1365831526296 L 323.44922177786543 188.1365470798751 L 323.44922218293937 188.13651182905875 L 323.44922256976406 188.13647738145178 L 323.4492229391618 188.13644371875222 L 323.44922329191763 188.1364108230752 L 323.44922362878134 188.13637867694337 L 323.4492239504688 188.1363472632776 L 323.44922425766384 188.13631656538797 L 323.44922455101926 188.13628656696494 L 323.4492248311586 188.13625725207052 L 323.4492250986773 188.13622860512993 L 323.44922535414383 188.13620061092334 L 323.4492255981013 188.13617325457764 L 323.4492258310681 188.13614652155874 L 323.4492260535394 188.1361203976636 L 323.44922626598805 188.13609486901296 L 323.4492264688656 188.13606992204373 L 323.4492266626032 188.1360455435019 L 323.4492268476127 188.13602172043545 L 323.4492270242872 188.1359984401875 L 323.4492271930023 188.13597569038964 L 323.4492273541165 188.13595345895519 L 323.4492275079723 188.13593173407293 L 323.4492276548967 188.13591050420078 L 323.4492277952019 188.13588975805962 L 323.4492279291862 188.1358694846274 L 323.44922805713423 188.13584967313312 L 323.4492281793181 188.13583031305134 L 323.4492282959974 188.13581139409638 L 323.4492284074201 188.1357929062169 L 323.4492285138231 188.1357748395906 L 323.4492286154324 188.13575718461908 L 323.4492287124641 188.13573993192253 L 323.4492288051244 188.13572307233494 L 323.4492288936102 188.13570659689915 L 323.4492289781096 188.13569049686205 L 323.4492290588022 188.13567476367 L 323.44922913585947 188.1356593889643 L 323.4492292094452 188.1356443645767 L 323.4492292797158 188.13562968252498 L 323.4492293468206 188.13561533500888 L 323.4492294109022 188.1356013144059 L 323.4492294720968 188.13558761326718 L 323.4492295305346 188.13557422431353 L 323.44922958633964 188.13556114043178 L 323.4492296396306 188.13554835467068 L 323.44922969052067 188.1355358602374 L 323.4492297391181 188.13552365049404 L 323.44922978552614 188.1355117189537 L 323.4492298298435 188.13550005927746 L 323.4492298721642 188.13548866527083 L 323.44922991257835 188.13547753088037 L 323.4492299511718 188.13546665019066 L 323.4492299880265 188.135456017421 L 323.4492300232209 188.1354456269225 L 323.4492300568297 188.13543547317485 L 323.44923008892437 188.13542555078365 L 323.4492301195732 188.13541585447734 L 323.4492301488412 188.13540637910447 L 323.44923017679065 188.13539711963102 L 323.4492302034809 188.13538807113767 L 323.44923022896876 188.1353792288171 L 323.4492302533083 188.13537058797164 L 323.44923027655136 188.13536214401057 L 323.4492302987473 188.13535389244785 L 323.44923031994324 188.1353458288996 L 323.4492303401843 188.13533794908184 L 323.4492303595135 188.13533024880823 L 323.4492303779718 188.13532272398777 L 323.4492303955986 188.13531537062272 L 323.44923041243123 188.13530818480638 L 323.4492304285056 188.13530116272113 L 323.44923044385575 188.1352943006363 L 323.44923045851436 188.1352875949062 L 323.44923047251257 188.13528104196826 L 323.44923048588015 188.13527463834106 L 323.44923049864553 188.13526838062248 L 323.4492305108358 188.135262265488 L 323.44923052247685 188.13525628968873 L 323.44923053359344 188.1352504500499 L 323.44923054420923 188.13524474346906 L 323.4492305543468 188.13523916691443 L 323.44923056402763 188.13523371742332 L 323.4492305732723 188.13522839210054 L 323.44923058210054 188.1352231881169 L 323.44923059053104 188.13521810270763 L 323.4492305985817 188.13521313317096 L 323.4492306062697 188.13520827686673 L 323.4492306136113 188.1352035312149 L 323.4492306206222 188.13519889369417 L 323.4492306273172 188.1351943618408 L 323.4492306337106 188.1351899332471 L 323.449230639816 188.13518560556028 L 323.4492306456463 188.1351813764811 L 323.449230651214 188.1351772437628 L 323.4492306565308 188.13517320520975 L 323.4492306616081 188.13516925867637 L 323.4492306664567 188.13516540206598 L 323.4492306710868 188.13516163332963 L 323.4492306755083 188.13515795046507 L 323.44923067973065 188.13515435151572 L 323.4492306837628 188.13515083456954 L 323.44923068761324 188.13514739775803 L 323.4492306912902 188.13514403925535 L 323.44923069480154 188.13514075727716 L 323.4492306981547 188.13513755007983 L 323.4492307013568 188.1351344159595 L 323.44923070441456 188.13513135325104 L 323.44923070733466 188.13512836032731 L 323.4492307101232 188.1351254355983 L 323.44923071278606 188.13512257751012 L 323.44923071532895 188.13511978454434 L 323.4492307177573 188.13511705521714 L 323.4492307200763 188.13511438807848 L 323.44923072229074 188.1351117817114 L 323.4492307244055 188.13510923473117 L 323.4492307264249 188.13510674578467 L 323.44923072835337 188.1351043135496 L 323.449230730195 188.13510193673372 L 323.4492307319536 188.1350996140743 L 323.449230733633 188.1350973443374 L 323.4492307352367 188.13509512631714 L 323.4492307367682 188.13509295883514 L 323.44923073823065 188.13509084073988 L 323.4492307396273 188.13508877090607 L 323.44923074096096 188.13508674823404 L 323.44923074223453 188.13508477164922 L 323.44923074345076 188.1350828401015 L 323.4492307446122 188.13508095256466 L 323.4492307457213 188.1350791080359 L 323.4492307467804 188.13507730553533 L 323.44923074779183 188.13507554410526 L 323.4492307487577 188.13507382280991 L 323.44923074968005 188.13507214073482 L 323.44923075056084 188.1350704969863 L 323.44923075140196 188.1350688906911 L 323.44923075220515 188.1350673209958 L 323.4492307529722 188.1350657870665 L 323.4492307537047 188.13506428808824 L 323.44923075440414 188.13506282326466 L 323.4492307550721 188.13506139181754 L 323.44923075570995 188.13505999298636 L 323.4492307563191 188.13505862602798 L 323.44923075690076 188.13505729021617 L 323.4492307574563 188.13505598484122 L 323.44923075798675 188.13505470920964 L 323.4492307584933 188.1350534626437 L 323.449230758977 188.13505224448116 L 323.449230759439 188.13505105407484 L 323.4492307598801 188.13504989079226 L 323.44923076030136 188.13504875401543 L 323.44923076070364 188.1350476431404 L 323.4492307610878 188.13504655757703 L 323.44923076145466 188.13504549674852 L 323.449230761805 188.1350444600913 L 323.4492307621395 188.13504344705464 L 323.449230762459 188.13504245710035 L 323.4492307627641 188.13504148970245 L 323.4492307630554 188.135040544347 L 323.4492307633336 188.13503962053176 L 323.4492307635993 188.13503871776592 L 323.449230763853 188.1350378355699 L 323.44923076409526 188.13503697347497 L 323.44923076432667 188.13503613102316 L 323.44923076454756 188.13503530776683 L 323.44923076475857 188.13503450326866 L 323.44923076496 188.13503371710124 L 323.44923076515244 188.13503294884686 L 323.4492307653362 188.1350321980974 L 323.44923076551163 188.135031464454 L 323.4492307656792 188.13503074752688 L 323.4492307658392 188.13503004693516 L 323.449230765992 188.13502936230662 L 323.44923076613793 188.13502869327758 L 323.44923076627725 188.13502803949254 L 323.4492307664103 188.1350274006042 L 323.44923076653737 188.13502677627315 L 323.44923076665873 188.13502616616765 L 323.4492307667746 188.13502556996357 L 323.44923076688525 188.13502498734422 L 323.4492307669909 188.135024418" stroke-opacity="0.9" stroke-miterlimit="10" stroke-width="2"/></g><g><path fill="none" stroke="none"/><path fill="white" stroke="#1f77b4" paint-order="fill stroke markers" d=" M 293.59683236351816 223.71695457747975 A 2.357753846153855 2.357753846153855 0 1 1 293.59683118464136 223.71459682402656" stroke-miterlimit="10"/></g><g stroke="black" stroke-miterlimit="10"><path fill="none" stroke="none"/><path fill="none" stroke="" d=""/><g transform="translate(205.56153846153848,188.135)"><path fill="none" stroke="" paint-order="fill stroke markers" d=" M 0 2 L 0 -2 M -2 0 L 2 0"/><g transform="translate(-205.56153846153848,-188.135)"/></g></g></g><g><g/><g fill="#444444" fill-opacity="0.315" stroke="rgb(102,180,211)" stroke-opacity="0.9" stroke-miterlimit="10" stroke-width="2"><path fill="#ffffff" stroke="#e5e5e5" paint-order="fill stroke markers" d=" M 645.046875 15 L 785 15 L 785 101 L 645.046875 101 L 645.046875 15 Z" fill-opacity="0.95" stroke-miterlimit="10" stroke-opacity="0.5"/><text fill="#444444" stroke="none" font-family="helvetica" font-size="10pt" font-style="normal" font-weight="normal" text-decoration="normal" x="680.046875" y="35" text-anchor="start" dominant-baseline="central">Nyquist Circle</text><path fill="" stroke="" d=""/><g transform="translate(665.046875,35) rotate(0,0,0)"><path fill="" stroke="" d=" M -7.724641972819549 0 C -7.724641972819549 4.414272 -4.262333846330262 8 0 8 C 4.262333846330262 8 7.724641972819549 4.414272 7.724641972819549 0 C 7.724641972819549 -4.414272 4.262333846330262 -8 0 -8 C -4.262333846330262 -8 -7.724641972819549 -4.414272 -7.724641972819549 0"/><g transform="rotate(0,0,0) translate(-665.046875,-35)" fill=""><text fill="" stroke="none" font-family="helvetica" font-size="10pt" font-style="normal" font-weight="normal" text-decoration="normal" x="680.046875" y="58" text-anchor="start" dominant-baseline="central">sM</text><path fill="" stroke="" d=""/><g transform="translate(665.046875,58) rotate(0,0,0)"><path fill="" stroke="" d=" M -7.724641972819549 0 C -7.724641972819549 4.414272 -4.262333846330262 8 0 8 C 4.262333846330262 8 7.724641972819549 4.414272 7.724641972819549 0 C 7.724641972819549 -4.414272 4.262333846330262 -8 0 -8 C -4.262333846330262 -8 -7.724641972819549 -4.414272 -7.724641972819549 0"/><g transform="rotate(0,0,0) translate(-665.046875,-58)" fill=""><text fill="" stroke="none" font-family="helvetica" font-size="10pt" font-style="normal" font-weight="normal" text-decoration="normal" x="680.046875" y="81" text-anchor="start" dominant-baseline="central">Open Loop</text><g><path fill="none" stroke="" paint-order="fill stroke markers" d=" M 655.046875 81 L 675.046875 81"/></g></g></g></g></g></g><g fill="#444444"><path fill="" stroke="none" d=""/><g transform="translate(205.56153846153848,175.926)"><path fill="none" stroke="none"/><text fill="" stroke="none" font-family="helvetica" font-size="10pt" font-style="normal" font-weight="normal" text-decoration="normal" x="0" y="0" text-anchor="start" dominant-baseline="text-after-edge">(-1,0)</text></g></g></g><g><g fill="#444444"><path fill="none" stroke="black" paint-order="fill stroke markers" d=" M 29 371 L 795 371" stroke-miterlimit="10"/><path fill="none" stroke="black" paint-order="fill stroke markers" d=" M 88 377 L 88 369" stroke-miterlimit="10"/><path fill="none" stroke="black" paint-order="fill stroke markers" d=" M 206 377 L 206 369" stroke-miterlimit="10"/><path fill="none" stroke="black" paint-order="fill stroke markers" d=" M 323 377 L 323 369" stroke-miterlimit="10"/><path fill="none" stroke="black" paint-order="fill stroke markers" d=" M 441 377 L 441 369" stroke-miterlimit="10"/><path fill="none" stroke="black" paint-order="fill stroke markers" d=" M 559 377 L 559 369" stroke-miterlimit="10"/><path fill="none" stroke="black" paint-order="fill stroke markers" d=" M 677 377 L 677 369" stroke-miterlimit="10"/><path fill="none" stroke="black" paint-order="fill stroke markers" d=" M 795 377 L 795 369" stroke-miterlimit="10"/><path fill="none" stroke="black" paint-order="fill stroke markers" d=" M 64 375 L 64 371" stroke-miterlimit="10"/><path fill="none" stroke="black" paint-order="fill stroke markers" d=" M 41 375 L 41 371" stroke-miterlimit="10"/><path fill="none" stroke="black" paint-order="fill stroke markers" d=" M 88 375 L 88 371" stroke-miterlimit="10"/><path fill="none" stroke="black" paint-order="fill stroke markers" d=" M 111 375 L 111 371" stroke-miterlimit="10"/><path fill="none" stroke="black" paint-order="fill stroke markers" d=" M 135 375 L 135 371" stroke-miterlimit="10"/><path fill="none" stroke="black" paint-order="fill stroke markers" d=" M 158 375 L 158 371" stroke-miterlimit="10"/><path fill="none" stroke="black" paint-order="fill stroke markers" d=" M 182 375 L 182 371" stroke-miterlimit="10"/><path fill="none" stroke="black" paint-order="fill stroke markers" d=" M 206 375 L 206 371" stroke-miterlimit="10"/><path fill="none" stroke="black" paint-order="fill stroke markers" d=" M 229 375 L 229 371" stroke-miterlimit="10"/><path fill="none" stroke="black" paint-order="fill stroke markers" d=" M 253 375 L 253 371" stroke-miterlimit="10"/><path fill="none" stroke="black" paint-order="fill stroke markers" d=" M 276 375 L 276 371" stroke-miterlimit="10"/><path fill="none" stroke="black" paint-order="fill stroke markers" d=" M 300 375 L 300 371" stroke-miterlimit="10"/><path fill="none" stroke="black" paint-order="fill stroke markers" d=" M 323 375 L 323 371" stroke-miterlimit="10"/><path fill="none" stroke="black" paint-order="fill stroke markers" d=" M 347 375 L 347 371" stroke-miterlimit="10"/><path fill="none" stroke="black" paint-order="fill stroke markers" d=" M 371 375 L 371 371" stroke-miterlimit="10"/><path fill="none" stroke="black" paint-order="fill stroke markers" d=" M 394 375 L 394 371" stroke-miterlimit="10"/><path fill="none" stroke="black" paint-order="fill stroke markers" d=" M 418 375 L 418 371" stroke-miterlimit="10"/><path fill="none" stroke="black" paint-order="fill stroke markers" d=" M 441 375 L 441 371" stroke-miterlimit="10"/><path fill="none" stroke="black" paint-order="fill stroke markers" d=" M 465 375 L 465 371" stroke-miterlimit="10"/><path fill="none" stroke="black" paint-order="fill stroke markers" d=" M 488 375 L 488 371" stroke-miterlimit="10"/><path fill="none" stroke="black" paint-order="fill stroke markers" d=" M 512 375 L 512 371" stroke-miterlimit="10"/><path fill="none" stroke="black" paint-order="fill stroke markers" d=" M 536 375 L 536 371" stroke-miterlimit="10"/><path fill="none" stroke="black" paint-order="fill stroke markers" d=" M 559 375 L 559 371" stroke-miterlimit="10"/><path fill="none" stroke="black" paint-order="fill stroke markers" d=" M 583 375 L 583 371" stroke-miterlimit="10"/><path fill="none" stroke="black" paint-order="fill stroke markers" d=" M 606 375 L 606 371" stroke-miterlimit="10"/><path fill="none" stroke="black" paint-order="fill stroke markers" d=" M 630 375 L 630 371" stroke-miterlimit="10"/><path fill="none" stroke="black" paint-order="fill stroke markers" d=" M 654 375 L 654 371" stroke-miterlimit="10"/><path fill="none" stroke="black" paint-order="fill stroke markers" d=" M 677 375 L 677 371" stroke-miterlimit="10"/><path fill="none" stroke="black" paint-order="fill stroke markers" d=" M 701 375 L 701 371" stroke-miterlimit="10"/><path fill="none" stroke="black" paint-order="fill stroke markers" d=" M 724 375 L 724 371" stroke-miterlimit="10"/><path fill="none" stroke="black" paint-order="fill stroke markers" d=" M 748 375 L 748 371" stroke-miterlimit="10"/><path fill="none" stroke="black" paint-order="fill stroke markers" d=" M 771 375 L 771 371" stroke-miterlimit="10"/><path fill="" stroke="black" paint-order="fill stroke markers" d=" M 795 375 L 795 371" stroke-miterlimit="10"/><g transform="translate(88,382) rotate(0,0,0)"><text fill="" stroke="none" font-family="helvetica" font-size="0pt" font-style="normal" font-weight="normal" text-decoration="normal" x="0" y="0" text-anchor="middle" dominant-baseline="hanging">-2</text><g transform="rotate(0,0,0) translate(-88,-382) translate(206,382) rotate(0,0,0)"><text fill="" stroke="none" font-family="helvetica" font-size="0pt" font-style="normal" font-weight="normal" text-decoration="normal" x="0" y="0" text-anchor="middle" dominant-baseline="hanging">-1</text><g transform="rotate(0,0,0) translate(-206,-382) translate(323,382) rotate(0,0,0)"><text fill="" stroke="none" font-family="helvetica" font-size="0pt" font-style="normal" font-weight="normal" text-decoration="normal" x="0" y="0" text-anchor="middle" dominant-baseline="hanging">0</text><g transform="rotate(0,0,0) translate(-323,-382) translate(441,382) rotate(0,0,0)"><text fill="" stroke="none" font-family="helvetica" font-size="0pt" font-style="normal" font-weight="normal" text-decoration="normal" x="0" y="0" text-anchor="middle" dominant-baseline="hanging">1</text><g transform="rotate(0,0,0) translate(-441,-382) translate(559,382) rotate(0,0,0)"><text fill="" stroke="none" font-family="helvetica" font-size="0pt" font-style="normal" font-weight="normal" text-decoration="normal" x="0" y="0" text-anchor="middle" dominant-baseline="hanging">2</text><g transform="rotate(0,0,0) translate(-559,-382) translate(677,382) rotate(0,0,0)"><text fill="" stroke="none" font-family="helvetica" font-size="0pt" font-style="normal" font-weight="normal" text-decoration="normal" x="0" y="0" text-anchor="middle" dominant-baseline="hanging">3</text><g transform="rotate(0,0,0) translate(-677,-382) translate(795,382) rotate(0,0,0)"><text fill="" stroke="none" font-family="helvetica" font-size="0pt" font-style="normal" font-weight="normal" text-decoration="normal" x="0" y="0" text-anchor="middle" dominant-baseline="hanging">4</text><g transform="rotate(0,0,0) translate(-795,-382) translate(412,382) rotate(0,0,0)"><text fill="" stroke="none" font-family="helvetica" font-size="10pt" font-style="italic" font-weight="normal" text-decoration="normal" x="0" y="0" text-anchor="middle" dominant-baseline="hanging">Re</text><g transform="rotate(0,0,0) translate(-412,-382)"/></g></g></g></g></g></g></g></g></g><g fill="#444444"><path fill="none" stroke="black" paint-order="fill stroke markers" d=" M 29 371 L 29 5" stroke-miterlimit="10"/><path fill="none" stroke="black" paint-order="fill stroke markers" d=" M 23 371 L 31 371" stroke-miterlimit="10"/><path fill="none" stroke="black" paint-order="fill stroke markers" d=" M 23 310 L 31 310" stroke-miterlimit="10"/><path fill="none" stroke="black" paint-order="fill stroke markers" d=" M 23 249 L 31 249" stroke-miterlimit="10"/><path fill="none" stroke="black" paint-order="fill stroke markers" d=" M 23 188 L 31 188" stroke-miterlimit="10"/><path fill="none" stroke="black" paint-order="fill stroke markers" d=" M 23 127 L 31 127" stroke-miterlimit="10"/><path fill="none" stroke="black" paint-order="fill stroke markers" d=" M 23 66 L 31 66" stroke-miterlimit="10"/><path fill="none" stroke="black" paint-order="fill stroke markers" d=" M 23 5 L 31 5" stroke-miterlimit="10"/><path fill="none" stroke="black" paint-order="fill stroke markers" d=" M 25 371 L 29 371" stroke-miterlimit="10"/><path fill="none" stroke="black" paint-order="fill stroke markers" d=" M 25 359 L 29 359" stroke-miterlimit="10"/><path fill="none" stroke="black" paint-order="fill stroke markers" d=" M 25 347 L 29 347" stroke-miterlimit="10"/><path fill="none" stroke="black" paint-order="fill stroke markers" d=" M 25 335 L 29 335" stroke-miterlimit="10"/><path fill="none" stroke="black" paint-order="fill stroke markers" d=" M 25 322 L 29 322" stroke-miterlimit="10"/><path fill="none" stroke="black" paint-order="fill stroke markers" d=" M 25 310 L 29 310" stroke-miterlimit="10"/><path fill="none" stroke="black" paint-order="fill stroke markers" d=" M 25 298 L 29 298" stroke-miterlimit="10"/><path fill="none" stroke="black" paint-order="fill stroke markers" d=" M 25 286 L 29 286" stroke-miterlimit="10"/><path fill="none" stroke="black" paint-order="fill stroke markers" d=" M 25 274 L 29 274" stroke-miterlimit="10"/><path fill="none" stroke="black" paint-order="fill stroke markers" d=" M 25 261 L 29 261" stroke-miterlimit="10"/><path fill="none" stroke="black" paint-order="fill stroke markers" d=" M 25 249 L 29 249" stroke-miterlimit="10"/><path fill="none" stroke="black" paint-order="fill stroke markers" d=" M 25 237 L 29 237" stroke-miterlimit="10"/><path fill="none" stroke="black" paint-order="fill stroke markers" d=" M 25 225 L 29 225" stroke-miterlimit="10"/><path fill="none" stroke="black" paint-order="fill stroke markers" d=" M 25 213 L 29 213" stroke-miterlimit="10"/><path fill="none" stroke="black" paint-order="fill stroke markers" d=" M 25 200 L 29 200" stroke-miterlimit="10"/><path fill="none" stroke="black" paint-order="fill stroke markers" d=" M 25 188 L 29 188" stroke-miterlimit="10"/><path fill="none" stroke="black" paint-order="fill stroke markers" d=" M 25 176 L 29 176" stroke-miterlimit="10"/><path fill="none" stroke="black" paint-order="fill stroke markers" d=" M 25 164 L 29 164" stroke-miterlimit="10"/><path fill="none" stroke="black" paint-order="fill stroke markers" d=" M 25 152 L 29 152" stroke-miterlimit="10"/><path fill="none" stroke="black" paint-order="fill stroke markers" d=" M 25 139 L 29 139" stroke-miterlimit="10"/><path fill="none" stroke="black" paint-order="fill stroke markers" d=" M 25 127 L 29 127" stroke-miterlimit="10"/><path fill="none" stroke="black" paint-order="fill stroke markers" d=" M 25 115 L 29 115" stroke-miterlimit="10"/><path fill="none" stroke="black" paint-order="fill stroke markers" d=" M 25 103 L 29 103" stroke-miterlimit="10"/><path fill="none" stroke="black" paint-order="fill stroke markers" d=" M 25 90 L 29 90" stroke-miterlimit="10"/><path fill="none" stroke="black" paint-order="fill stroke markers" d=" M 25 78 L 29 78" stroke-miterlimit="10"/><path fill="none" stroke="black" paint-order="fill stroke markers" d=" M 25 66 L 29 66" stroke-miterlimit="10"/><path fill="none" stroke="black" paint-order="fill stroke markers" d=" M 25 54 L 29 54" stroke-miterlimit="10"/><path fill="none" stroke="black" paint-order="fill stroke markers" d=" M 25 42 L 29 42" stroke-miterlimit="10"/><path fill="none" stroke="black" paint-order="fill stroke markers" d=" M 25 29 L 29 29" stroke-miterlimit="10"/><path fill="none" stroke="black" paint-order="fill stroke markers" d=" M 25 17 L 29 17" stroke-miterlimit="10"/><path fill="" stroke="black" paint-order="fill stroke markers" d=" M 25 5 L 29 5" stroke-miterlimit="10"/><g transform="translate(18,371) rotate(0,0,0)"><text fill="" stroke="none" font-family="helvetica" font-size="0pt" font-style="normal" font-weight="normal" text-decoration="normal" x="0" y="0" text-anchor="end" dominant-baseline="central">-1.5</text><g transform="rotate(0,0,0) translate(-18,-371) translate(18,310) rotate(0,0,0)"><text fill="" stroke="none" font-family="helvetica" font-size="0pt" font-style="normal" font-weight="normal" text-decoration="normal" x="0" y="0" text-anchor="end" dominant-baseline="central">-1</text><g transform="rotate(0,0,0) translate(-18,-310) translate(18,249) rotate(0,0,0)"><text fill="" stroke="none" font-family="helvetica" font-size="0pt" font-style="normal" font-weight="normal" text-decoration="normal" x="0" y="0" text-anchor="end" dominant-baseline="central">-0.5</text><g transform="rotate(0,0,0) translate(-18,-249) translate(18,188) rotate(0,0,0)"><text fill="" stroke="none" font-family="helvetica" font-size="0pt" font-style="normal" font-weight="normal" text-decoration="normal" x="0" y="0" text-anchor="end" dominant-baseline="central">0</text><g transform="rotate(0,0,0) translate(-18,-188) translate(18,127) rotate(0,0,0)"><text fill="" stroke="none" font-family="helvetica" font-size="0pt" font-style="normal" font-weight="normal" text-decoration="normal" x="0" y="0" text-anchor="end" dominant-baseline="central">0.5</text><g transform="rotate(0,0,0) translate(-18,-127) translate(18,66) rotate(0,0,0)"><text fill="" stroke="none" font-family="helvetica" font-size="0pt" font-style="normal" font-weight="normal" text-decoration="normal" x="0" y="0" text-anchor="end" dominant-baseline="central">1</text><g transform="rotate(0,0,0) translate(-18,-66) translate(18,5) rotate(0,0,0)"><text fill="" stroke="none" font-family="helvetica" font-size="0pt" font-style="normal" font-weight="normal" text-decoration="normal" x="0" y="0" text-anchor="end" dominant-baseline="central">1.5</text><g transform="rotate(0,0,0) translate(-18,-5) translate(18,188) rotate(-90,0,0)"><text fill="" stroke="none" font-family="helvetica" font-size="10pt" font-style="italic" font-weight="normal" text-decoration="normal" x="0" y="0" text-anchor="middle" dominant-baseline="alphabetic">Im</text><g transform="rotate(90,0,0) translate(-18,-188)"/></g></g></g></g></g></g></g></g></g></g></g></g></svg>