<?xml version="1.0" encoding="utf-8" standalone="no"?>
<!DOCTYPE svg PUBLIC "-//W3C//DTD SVG 1.1//EN"
  "http://www.w3.org/Graphics/SVG/1.1/DTD/svg11.dtd">
<!-- Created with matplotlib (http://matplotlib.org/) -->
<svg height="212pt" version="1.1" viewBox="0 0 538 212" width="538pt" xmlns="http://www.w3.org/2000/svg" xmlns:xlink="http://www.w3.org/1999/xlink">
 <defs>
  <style type="text/css">
*{stroke-linecap:butt;stroke-linejoin:round;}
  </style>
 </defs>
 <g id="figure_1">
  <g id="patch_1">
   <path d="M 0 212.598425 
L 538.582677 212.598425 
L 538.582677 0 
L 0 0 
z
" style="fill:#ffffff;"/>
  </g>
  <g id="axes_1">
   <g id="patch_2">
    <path d="M 67.322835 186.023622 
L 190.088004 186.023622 
L 190.088004 25.511811 
L 67.322835 25.511811 
z
" style="fill:#ffffff;"/>
   </g>
   <g id="matplotlib.axis_1">
    <g id="xtick_1">
     <g id="line2d_1">
      <path clip-path="url(#p0e4036001e)" d="M 100.804244 186.023622 
L 100.804244 25.511811 
" style="fill:none;stroke:#cccccc;stroke-linecap:round;stroke-width:0.8;"/>
     </g>
     <g id="line2d_2"/>
     <g id="text_1">
      <!-- $\mathdefault{10^{-2}}$ -->
      <g style="fill:#262626;" transform="translate(90.904244 199.836122)">
       <text>
        <tspan style="font-family:Arial;font-size:10px;font-style:regular;font-weight:regular;" x="0 5.561523" y="-0.999375">10</tspan>
        <tspan style="font-family:Arial;font-size:7px;font-style:regular;font-weight:regular;" x="11.297281 15.385172" y="-7.96875">−2</tspan>
       </text>
      </g>
     </g>
    </g>
    <g id="xtick_2">
     <g id="line2d_3">
      <path clip-path="url(#p0e4036001e)" d="M 156.606594 186.023622 
L 156.606594 25.511811 
" style="fill:none;stroke:#cccccc;stroke-linecap:round;stroke-width:0.8;"/>
     </g>
     <g id="line2d_4"/>
     <g id="text_2">
      <!-- $\mathdefault{10^{0}}$ -->
      <g style="fill:#262626;" transform="translate(148.756594 199.836122)">
       <text>
        <tspan style="font-family:Arial;font-size:10px;font-style:regular;font-weight:regular;" x="0 5.561523" y="-0.999375">10</tspan>
        <tspan style="font-family:Arial;font-size:7px;font-style:regular;font-weight:regular;" x="11.297281" y="-7.96875">0</tspan>
       </text>
      </g>
     </g>
    </g>
    <g id="text_3">
     <!-- $\omega$ -->
     <g style="fill:#262626;" transform="translate(124.505419 212.981435)">
      <text>
       <tspan style="font-family:DejaVu Sans;font-size:10px;font-style:oblique;font-weight:oblique;" x="0" y="-0.53125">ω</tspan>
      </text>
     </g>
    </g>
   </g>
   <g id="matplotlib.axis_2">
    <g id="ytick_1">
     <g id="line2d_5">
      <path clip-path="url(#p0e4036001e)" d="M 67.322835 169.118554 
L 190.088004 169.118554 
" style="fill:none;stroke:#cccccc;stroke-linecap:round;stroke-width:0.8;"/>
     </g>
     <g id="line2d_6"/>
     <g id="text_4">
      <!-- $\mathdefault{10^{-3}}$ -->
      <g style="fill:#262626;" transform="translate(44.022835 174.274804)">
       <text>
        <tspan style="font-family:Arial;font-size:10px;font-style:regular;font-weight:regular;" x="0 5.561523" y="-0.999375">10</tspan>
        <tspan style="font-family:Arial;font-size:7px;font-style:regular;font-weight:regular;" x="11.297281 15.385172" y="-7.96875">−3</tspan>
       </text>
      </g>
     </g>
    </g>
    <g id="ytick_2">
     <g id="line2d_7">
      <path clip-path="url(#p0e4036001e)" d="M 67.322835 125.309828 
L 190.088004 125.309828 
" style="fill:none;stroke:#cccccc;stroke-linecap:round;stroke-width:0.8;"/>
     </g>
     <g id="line2d_8"/>
     <g id="text_5">
      <!-- $\mathdefault{10^{-2}}$ -->
      <g style="fill:#262626;" transform="translate(44.022835 130.466078)">
       <text>
        <tspan style="font-family:Arial;font-size:10px;font-style:regular;font-weight:regular;" x="0 5.561523" y="-0.999375">10</tspan>
        <tspan style="font-family:Arial;font-size:7px;font-style:regular;font-weight:regular;" x="11.297281 15.385172" y="-7.96875">−2</tspan>
       </text>
      </g>
     </g>
    </g>
    <g id="ytick_3">
     <g id="line2d_9">
      <path clip-path="url(#p0e4036001e)" d="M 67.322835 81.501102 
L 190.088004 81.501102 
" style="fill:none;stroke:#cccccc;stroke-linecap:round;stroke-width:0.8;"/>
     </g>
     <g id="line2d_10"/>
     <g id="text_6">
      <!-- $\mathdefault{10^{-1}}$ -->
      <g style="fill:#262626;" transform="translate(44.022835 86.657352)">
       <text>
        <tspan style="font-family:Arial;font-size:10px;font-style:regular;font-weight:regular;" x="0 5.561523" y="-0.999375">10</tspan>
        <tspan style="font-family:Arial;font-size:7px;font-style:regular;font-weight:regular;" x="11.297281 15.385172" y="-7.96875">−1</tspan>
       </text>
      </g>
     </g>
    </g>
    <g id="ytick_4">
     <g id="line2d_11">
      <path clip-path="url(#p0e4036001e)" d="M 67.322835 37.692375 
L 190.088004 37.692375 
" style="fill:none;stroke:#cccccc;stroke-linecap:round;stroke-width:0.8;"/>
     </g>
     <g id="line2d_12"/>
     <g id="text_7">
      <!-- $\mathdefault{10^{0}}$ -->
      <g style="fill:#262626;" transform="translate(48.122835 42.848625)">
       <text>
        <tspan style="font-family:Arial;font-size:10px;font-style:regular;font-weight:regular;" x="0 5.561523" y="-0.999375">10</tspan>
        <tspan style="font-family:Arial;font-size:7px;font-style:regular;font-weight:regular;" x="11.297281" y="-7.96875">0</tspan>
       </text>
      </g>
     </g>
    </g>
    <g id="ytick_5">
     <g id="line2d_13"/>
    </g>
    <g id="ytick_6">
     <g id="line2d_14"/>
    </g>
    <g id="ytick_7">
     <g id="line2d_15"/>
    </g>
    <g id="ytick_8">
     <g id="line2d_16"/>
    </g>
    <g id="ytick_9">
     <g id="line2d_17"/>
    </g>
    <g id="ytick_10">
     <g id="line2d_18"/>
    </g>
    <g id="ytick_11">
     <g id="line2d_19"/>
    </g>
    <g id="ytick_12">
     <g id="line2d_20"/>
    </g>
    <g id="ytick_13">
     <g id="line2d_21"/>
    </g>
    <g id="ytick_14">
     <g id="line2d_22"/>
    </g>
    <g id="ytick_15">
     <g id="line2d_23"/>
    </g>
    <g id="ytick_16">
     <g id="line2d_24"/>
    </g>
    <g id="ytick_17">
     <g id="line2d_25"/>
    </g>
    <g id="ytick_18">
     <g id="line2d_26"/>
    </g>
    <g id="ytick_19">
     <g id="line2d_27"/>
    </g>
    <g id="ytick_20">
     <g id="line2d_28"/>
    </g>
    <g id="ytick_21">
     <g id="line2d_29"/>
    </g>
    <g id="ytick_22">
     <g id="line2d_30"/>
    </g>
    <g id="ytick_23">
     <g id="line2d_31"/>
    </g>
    <g id="ytick_24">
     <g id="line2d_32"/>
    </g>
    <g id="ytick_25">
     <g id="line2d_33"/>
    </g>
    <g id="ytick_26">
     <g id="line2d_34"/>
    </g>
    <g id="ytick_27">
     <g id="line2d_35"/>
    </g>
    <g id="ytick_28">
     <g id="line2d_36"/>
    </g>
    <g id="ytick_29">
     <g id="line2d_37"/>
    </g>
    <g id="ytick_30">
     <g id="line2d_38"/>
    </g>
    <g id="ytick_31">
     <g id="line2d_39"/>
    </g>
    <g id="ytick_32">
     <g id="line2d_40"/>
    </g>
    <g id="ytick_33">
     <g id="line2d_41"/>
    </g>
    <g id="text_8">
     <text style="fill:#262626;font-family:Arial;font-size:10px;font-style:normal;font-weight:400;text-anchor:middle;" transform="rotate(-90, 38.035335, 105.767717)" x="38.035335" y="105.767717">Gain</text>
    </g>
   </g>
   <g id="patch_3">
    <path clip-path="url(#p0e4036001e)" d="M 72.90307 186.023622 
L 72.90307 25.511811 
L 91.185748 25.511811 
L 91.185748 186.023622 
z
" style="fill:#008000;opacity:0.2;stroke:#008000;stroke-linejoin:miter;"/>
   </g>
   <g id="patch_4">
    <path clip-path="url(#p0e4036001e)" d="M 91.185748 186.023622 
L 91.185748 25.511811 
L 184.507769 25.511811 
L 184.507769 186.023622 
z
" style="fill:#ff0000;opacity:0.2;stroke:#ff0000;stroke-linejoin:miter;"/>
   </g>
   <g id="line2d_42">
    <path clip-path="url(#p0e4036001e)" d="M 72.90307 36.018241 
L 78.874518 35.191165 
L 86.966668 34.054856 
L 89.355247 33.972087 
L 91.230394 34.123661 
L 92.848824 34.473603 
L 94.344476 35.022623 
L 95.806644 35.797642 
L 97.313458 36.853933 
L 98.954211 38.286262 
L 100.896327 40.293723 
L 103.820663 43.681127 
L 107.961611 48.425225 
L 110.405999 50.874465 
L 112.694124 52.855897 
L 115.082703 54.627851 
L 117.928908 56.450045 
L 125.574594 61.193895 
L 127.974335 63.050203 
L 130.273622 65.113361 
L 132.628717 67.531457 
L 135.18472 70.484173 
L 138.109055 74.215919 
L 141.669601 79.138963 
L 146.379791 86.056702 
L 153.567852 97.049789 
L 168.658317 120.623396 
L 184.507769 145.499087 
L 184.507769 145.499087 
" style="fill:none;stroke:#6d8300;stroke-linecap:round;"/>
   </g>
   <g id="line2d_43">
    <path clip-path="url(#p0e4036001e)" d="M 72.90307 39.770014 
L 76.273869 40.511658 
L 79.142396 41.365443 
L 81.653753 42.340442 
L 83.908393 43.451481 
L 85.973287 44.715791 
L 87.904241 46.15977 
L 89.734741 47.807115 
L 91.520595 49.717385 
L 93.284126 51.934743 
L 95.06998 54.545439 
L 96.911641 57.640818 
L 98.87608 61.391035 
L 101.063751 66.067605 
L 103.809501 72.504197 
L 108.274136 83.010598 
L 109.814435 86.019319 
L 111.053371 87.976438 
L 112.158368 89.322443 
L 113.207557 90.258331 
L 114.267908 90.908691 
L 115.428713 91.356613 
L 116.868557 91.662411 
L 119.737085 91.979637 
L 122.159149 92.365723 
L 124.078942 92.898827 
L 125.89828 93.636874 
L 127.706457 94.613941 
L 129.559281 95.872809 
L 131.501396 97.466458 
L 133.599775 99.483446 
L 135.932546 102.044944 
L 138.611327 105.330101 
L 141.825864 109.640061 
L 145.95565 115.5709 
L 151.860129 124.473193 
L 162.307374 140.688314 
L 184.507769 175.50573 
L 184.507769 175.50573 
" style="fill:none;stroke:#6d8300;stroke-linecap:round;"/>
   </g>
   <g id="line2d_44">
    <path clip-path="url(#p0e4036001e)" d="M 72.90307 63.551781 
L 80.794311 51.551523 
L 85.180814 45.257779 
L 88.227927 41.253401 
L 90.57186 38.522144 
L 92.513976 36.586107 
L 94.210537 35.198327 
L 95.761998 34.209682 
L 97.246489 33.524432 
L 98.73098 33.083823 
L 100.304763 32.851916 
L 102.090617 32.819768 
L 104.401066 33.015689 
L 109.457264 33.744078 
L 114.167453 34.292935 
L 119.301783 34.650324 
L 131.534881 35.412695 
L 150.2417 37.036284 
L 158.434304 37.355383 
L 169.897253 37.561368 
L 184.507769 37.653172 
L 184.507769 37.653172 
" style="fill:none;stroke:#be1e3c;stroke-linecap:round;"/>
   </g>
   <g id="line2d_45">
    <path clip-path="url(#p0e4036001e)" d="M 72.90307 77.163327 
L 80.827796 65.119718 
L 85.448692 58.476604 
L 88.786007 54.0483 
L 91.464787 50.848915 
L 93.752912 48.451443 
L 95.806644 46.612228 
L 97.737599 45.174535 
L 99.635068 44.035959 
L 101.577184 43.130316 
L 103.653239 42.410169 
L 105.997172 41.837829 
L 108.821054 41.386145 
L 112.549023 41.029448 
L 118.654411 40.700478 
L 128.231052 40.160985 
L 135.854415 39.459169 
L 145.375248 38.626986 
L 152.898157 38.213401 
L 162.20692 37.937544 
L 176.06961 37.770872 
L 184.507769 37.73153 
L 184.507769 37.73153 
" style="fill:none;stroke:#be1e3c;stroke-linecap:round;"/>
   </g>
   <g id="line2d_46">
    <path clip-path="url(#p0e4036001e)" d="M 101.454407 32.807802 
" style="fill:none;stroke:#ffffff;stroke-linecap:round;stroke-width:1.5;"/>
    <defs>
     <path d="M 0 3 
C 0.795609 3 1.55874 2.683901 2.12132 2.12132 
C 2.683901 1.55874 3 0.795609 3 0 
C 3 -0.795609 2.683901 -1.55874 2.12132 -2.12132 
C 1.55874 -2.683901 0.795609 -3 0 -3 
C -0.795609 -3 -1.55874 -2.683901 -2.12132 -2.12132 
C -2.683901 -1.55874 -3 -0.795609 -3 0 
C -3 0.795609 -2.683901 1.55874 -2.12132 2.12132 
C -1.55874 2.683901 -0.795609 3 0 3 
z
" id="m7cff44195d" style="stroke:#ffffff;"/>
    </defs>
    <g clip-path="url(#p0e4036001e)">
     <use style="fill:#ffffff;stroke:#ffffff;" x="101.454407" xlink:href="#m7cff44195d" y="32.807802"/>
    </g>
   </g>
   <g id="patch_5">
    <path d="M 67.322835 186.023622 
L 67.322835 25.511811 
" style="fill:none;stroke:#cccccc;stroke-linecap:square;stroke-linejoin:miter;"/>
   </g>
   <g id="patch_6">
    <path d="M 190.088004 186.023622 
L 190.088004 25.511811 
" style="fill:none;stroke:#cccccc;stroke-linecap:square;stroke-linejoin:miter;"/>
   </g>
   <g id="patch_7">
    <path d="M 67.322835 186.023622 
L 190.088004 186.023622 
" style="fill:none;stroke:#cccccc;stroke-linecap:square;stroke-linejoin:miter;"/>
   </g>
   <g id="patch_8">
    <path d="M 67.322835 25.511811 
L 190.088004 25.511811 
" style="fill:none;stroke:#cccccc;stroke-linecap:square;stroke-linejoin:miter;"/>
   </g>
   <g id="text_9">
    <text style="fill:#262626;font-family:Arial;font-size:12px;font-style:normal;font-weight:400;text-anchor:middle;" transform="rotate(-0, 128.705419, 19.511811)" x="128.705419" y="19.511811">RGA</text>
   </g>
  </g>
  <g id="axes_2">
   <g id="patch_9">
    <path d="M 214.641038 186.023622 
L 337.406207 186.023622 
L 337.406207 25.511811 
L 214.641038 25.511811 
z
" style="fill:#ffffff;"/>
   </g>
   <g id="matplotlib.axis_3">
    <g id="xtick_3">
     <g id="line2d_47">
      <path clip-path="url(#p36291628e2)" d="M 248.122447 186.023622 
L 248.122447 25.511811 
" style="fill:none;stroke:#cccccc;stroke-linecap:round;stroke-width:0.8;"/>
     </g>
     <g id="line2d_48"/>
     <g id="text_10">
      <!-- $\mathdefault{10^{-2}}$ -->
      <g style="fill:#262626;" transform="translate(238.222447 199.836122)">
       <text>
        <tspan style="font-family:Arial;font-size:10px;font-style:regular;font-weight:regular;" x="0 5.561523" y="-0.999375">10</tspan>
        <tspan style="font-family:Arial;font-size:7px;font-style:regular;font-weight:regular;" x="11.297281 15.385172" y="-7.96875">−2</tspan>
       </text>
      </g>
     </g>
    </g>
    <g id="xtick_4">
     <g id="line2d_49">
      <path clip-path="url(#p36291628e2)" d="M 303.924797 186.023622 
L 303.924797 25.511811 
" style="fill:none;stroke:#cccccc;stroke-linecap:round;stroke-width:0.8;"/>
     </g>
     <g id="line2d_50"/>
     <g id="text_11">
      <!-- $\mathdefault{10^{0}}$ -->
      <g style="fill:#262626;" transform="translate(296.074797 199.836122)">
       <text>
        <tspan style="font-family:Arial;font-size:10px;font-style:regular;font-weight:regular;" x="0 5.561523" y="-0.999375">10</tspan>
        <tspan style="font-family:Arial;font-size:7px;font-style:regular;font-weight:regular;" x="11.297281" y="-7.96875">0</tspan>
       </text>
      </g>
     </g>
    </g>
    <g id="text_12">
     <!-- $\omega$ -->
     <g style="fill:#262626;" transform="translate(271.823622 212.981435)">
      <text>
       <tspan style="font-family:DejaVu Sans;font-size:10px;font-style:oblique;font-weight:oblique;" x="0" y="-0.53125">ω</tspan>
      </text>
     </g>
    </g>
   </g>
   <g id="matplotlib.axis_4">
    <g id="ytick_34">
     <g id="line2d_51">
      <path clip-path="url(#p36291628e2)" d="M 214.641038 169.118554 
L 337.406207 169.118554 
" style="fill:none;stroke:#cccccc;stroke-linecap:round;stroke-width:0.8;"/>
     </g>
     <g id="line2d_52"/>
    </g>
    <g id="ytick_35">
     <g id="line2d_53">
      <path clip-path="url(#p36291628e2)" d="M 214.641038 125.309828 
L 337.406207 125.309828 
" style="fill:none;stroke:#cccccc;stroke-linecap:round;stroke-width:0.8;"/>
     </g>
     <g id="line2d_54"/>
    </g>
    <g id="ytick_36">
     <g id="line2d_55">
      <path clip-path="url(#p36291628e2)" d="M 214.641038 81.501102 
L 337.406207 81.501102 
" style="fill:none;stroke:#cccccc;stroke-linecap:round;stroke-width:0.8;"/>
     </g>
     <g id="line2d_56"/>
    </g>
    <g id="ytick_37">
     <g id="line2d_57">
      <path clip-path="url(#p36291628e2)" d="M 214.641038 37.692375 
L 337.406207 37.692375 
" style="fill:none;stroke:#cccccc;stroke-linecap:round;stroke-width:0.8;"/>
     </g>
     <g id="line2d_58"/>
    </g>
    <g id="ytick_38">
     <g id="line2d_59"/>
    </g>
    <g id="ytick_39">
     <g id="line2d_60"/>
    </g>
    <g id="ytick_40">
     <g id="line2d_61"/>
    </g>
    <g id="ytick_41">
     <g id="line2d_62"/>
    </g>
    <g id="ytick_42">
     <g id="line2d_63"/>
    </g>
    <g id="ytick_43">
     <g id="line2d_64"/>
    </g>
    <g id="ytick_44">
     <g id="line2d_65"/>
    </g>
    <g id="ytick_45">
     <g id="line2d_66"/>
    </g>
    <g id="ytick_46">
     <g id="line2d_67"/>
    </g>
    <g id="ytick_47">
     <g id="line2d_68"/>
    </g>
    <g id="ytick_48">
     <g id="line2d_69"/>
    </g>
    <g id="ytick_49">
     <g id="line2d_70"/>
    </g>
    <g id="ytick_50">
     <g id="line2d_71"/>
    </g>
    <g id="ytick_51">
     <g id="line2d_72"/>
    </g>
    <g id="ytick_52">
     <g id="line2d_73"/>
    </g>
    <g id="ytick_53">
     <g id="line2d_74"/>
    </g>
    <g id="ytick_54">
     <g id="line2d_75"/>
    </g>
    <g id="ytick_55">
     <g id="line2d_76"/>
    </g>
    <g id="ytick_56">
     <g id="line2d_77"/>
    </g>
    <g id="ytick_57">
     <g id="line2d_78"/>
    </g>
    <g id="ytick_58">
     <g id="line2d_79"/>
    </g>
    <g id="ytick_59">
     <g id="line2d_80"/>
    </g>
    <g id="ytick_60">
     <g id="line2d_81"/>
    </g>
    <g id="ytick_61">
     <g id="line2d_82"/>
    </g>
    <g id="ytick_62">
     <g id="line2d_83"/>
    </g>
    <g id="ytick_63">
     <g id="line2d_84"/>
    </g>
    <g id="ytick_64">
     <g id="line2d_85"/>
    </g>
    <g id="ytick_65">
     <g id="line2d_86"/>
    </g>
    <g id="ytick_66">
     <g id="line2d_87"/>
    </g>
   </g>
   <g id="patch_10">
    <path clip-path="url(#p36291628e2)" d="M 220.221272 186.023622 
L 220.221272 25.511811 
L 242.856969 25.511811 
L 242.856969 186.023622 
z
" style="fill:#008000;opacity:0.2;stroke:#008000;stroke-linejoin:miter;"/>
   </g>
   <g id="patch_11">
    <path clip-path="url(#p36291628e2)" d="M 242.856969 186.023622 
L 242.856969 25.511811 
L 331.825972 25.511811 
L 331.825972 186.023622 
z
" style="fill:#ff0000;opacity:0.2;stroke:#ff0000;stroke-linejoin:miter;"/>
   </g>
   <g id="line2d_88">
    <path clip-path="url(#p36291628e2)" d="M 220.221272 37.736192 
L 226.784285 37.96097 
L 230.992203 38.317055 
L 234.150932 38.799393 
L 236.706935 39.408228 
L 238.894606 40.153818 
L 240.847884 41.051771 
L 242.678384 42.138104 
L 244.464237 43.458572 
L 246.305899 45.102872 
L 248.337308 47.226693 
L 250.904473 50.257378 
L 257.601424 58.317274 
L 260.001165 60.760878 
L 262.322775 62.810357 
L 264.834132 64.725525 
L 268.182608 66.973883 
L 273.272291 70.39904 
L 275.861779 72.436845 
L 278.26152 74.610415 
L 280.694746 77.120322 
L 283.306557 80.142831 
L 286.275539 83.931789 
L 289.858408 88.881959 
L 294.579759 95.810084 
L 301.723174 106.728472 
L 316.523437 129.843236 
L 331.825972 153.859428 
L 331.825972 153.859428 
" style="fill:none;stroke:#6d8300;stroke-linecap:round;"/>
   </g>
   <g id="line2d_89">
    <path clip-path="url(#p36291628e2)" d="M 220.221272 38.056037 
L 224.819846 38.399909 
L 228.023221 38.852918 
L 230.489932 39.41972 
L 232.510179 40.106717 
L 234.262548 40.935274 
L 235.836331 41.924967 
L 237.309661 43.116768 
L 238.727182 44.553663 
L 240.133542 46.301106 
L 241.573387 48.45274 
L 243.091362 51.133222 
L 244.743277 54.520042 
L 246.5961 58.847253 
L 248.817256 64.630969 
L 252.199217 74.15301 
L 255.24633 82.505166 
L 256.887083 86.375344 
L 258.192988 88.913328 
L 259.33147 90.664431 
L 260.402982 91.919769 
L 261.463333 92.828022 
L 262.590653 93.501673 
L 263.90772 94.020985 
L 265.749382 94.48485 
L 270.225178 95.540743 
L 272.234264 96.29207 
L 274.131733 97.23999 
L 276.018041 98.432756 
L 277.960157 99.927277 
L 280.025051 101.803711 
L 282.279691 104.163053 
L 284.813371 107.147112 
L 287.793515 111.014238 
L 291.510323 116.221399 
L 296.55536 123.700624 
L 304.569378 136.02539 
L 323.488267 165.639431 
L 331.825972 178.727631 
L 331.825972 178.727631 
" style="fill:none;stroke:#6d8300;stroke-linecap:round;"/>
   </g>
   <g id="line2d_90">
    <path clip-path="url(#p36291628e2)" d="M 220.221272 68.924676 
L 231.829322 50.437792 
L 234.954566 45.907203 
L 237.253853 42.946921 
L 239.162484 40.839083 
L 240.859045 39.288253 
L 242.44399 38.134347 
L 244.006612 37.269447 
L 245.613881 36.635015 
L 247.343927 36.195029 
L 249.286043 35.935458 
L 251.629976 35.855626 
L 254.933805 35.986799 
L 265.983775 36.563942 
L 274.221026 36.631603 
L 282.469438 36.785736 
L 308.319671 37.534785 
L 326.825581 37.657469 
L 331.825972 37.669234 
L 331.825972 37.669234 
" style="fill:none;stroke:#be1e3c;stroke-linecap:round;"/>
   </g>
   <g id="line2d_91">
    <path clip-path="url(#p36291628e2)" d="M 220.221272 70.991762 
L 226.181559 62.330588 
L 230.702002 56.13581 
L 234.262548 51.616113 
L 237.153399 48.290717 
L 239.55314 45.855611 
L 241.618033 44.065734 
L 243.470856 42.746053 
L 245.212064 41.774907 
L 246.930948 41.069619 
L 248.739125 40.569757 
L 250.804018 40.235593 
L 253.482799 40.041869 
L 258.103696 39.968574 
L 269.053212 39.812048 
L 275.683194 39.474861 
L 298.263082 38.072459 
L 308.866589 37.849224 
L 326.580026 37.728317 
L 331.825972 37.715653 
L 331.825972 37.715653 
" style="fill:none;stroke:#be1e3c;stroke-linecap:round;"/>
   </g>
   <g id="line2d_92">
    <path clip-path="url(#p36291628e2)" d="M 251.417906 35.855002 
" style="fill:none;stroke:#ffffff;stroke-linecap:round;stroke-width:1.5;"/>
    <g clip-path="url(#p36291628e2)">
     <use style="fill:#ffffff;stroke:#ffffff;" x="251.417906" xlink:href="#m7cff44195d" y="35.855002"/>
    </g>
   </g>
   <g id="patch_12">
    <path d="M 214.641038 186.023622 
L 214.641038 25.511811 
" style="fill:none;stroke:#cccccc;stroke-linecap:square;stroke-linejoin:miter;"/>
   </g>
   <g id="patch_13">
    <path d="M 337.406207 186.023622 
L 337.406207 25.511811 
" style="fill:none;stroke:#cccccc;stroke-linecap:square;stroke-linejoin:miter;"/>
   </g>
   <g id="patch_14">
    <path d="M 214.641038 186.023622 
L 337.406207 186.023622 
" style="fill:none;stroke:#cccccc;stroke-linecap:square;stroke-linejoin:miter;"/>
   </g>
   <g id="patch_15">
    <path d="M 214.641038 25.511811 
L 337.406207 25.511811 
" style="fill:none;stroke:#cccccc;stroke-linecap:square;stroke-linejoin:miter;"/>
   </g>
   <g id="text_13">
    <text style="fill:#262626;font-family:Arial;font-size:12px;font-style:normal;font-weight:400;text-anchor:middle;" transform="rotate(-0, 276.023622, 19.511811)" x="276.023622" y="19.511811">Astroem</text>
   </g>
  </g>
  <g id="axes_3">
   <g id="patch_16">
    <path d="M 361.95924 186.023622 
L 484.724409 186.023622 
L 484.724409 25.511811 
L 361.95924 25.511811 
z
" style="fill:#ffffff;"/>
   </g>
   <g id="matplotlib.axis_5">
    <g id="xtick_5">
     <g id="line2d_93">
      <path clip-path="url(#pefe7836e41)" d="M 395.44065 186.023622 
L 395.44065 25.511811 
" style="fill:none;stroke:#cccccc;stroke-linecap:round;stroke-width:0.8;"/>
     </g>
     <g id="line2d_94"/>
     <g id="text_14">
      <!-- $\mathdefault{10^{-2}}$ -->
      <g style="fill:#262626;" transform="translate(385.54065 199.836122)">
       <text>
        <tspan style="font-family:Arial;font-size:10px;font-style:regular;font-weight:regular;" x="0 5.561523" y="-0.999375">10</tspan>
        <tspan style="font-family:Arial;font-size:7px;font-style:regular;font-weight:regular;" x="11.297281 15.385172" y="-7.96875">−2</tspan>
       </text>
      </g>
     </g>
    </g>
    <g id="xtick_6">
     <g id="line2d_95">
      <path clip-path="url(#pefe7836e41)" d="M 451.243 186.023622 
L 451.243 25.511811 
" style="fill:none;stroke:#cccccc;stroke-linecap:round;stroke-width:0.8;"/>
     </g>
     <g id="line2d_96"/>
     <g id="text_15">
      <!-- $\mathdefault{10^{0}}$ -->
      <g style="fill:#262626;" transform="translate(443.393 199.836122)">
       <text>
        <tspan style="font-family:Arial;font-size:10px;font-style:regular;font-weight:regular;" x="0 5.561523" y="-0.999375">10</tspan>
        <tspan style="font-family:Arial;font-size:7px;font-style:regular;font-weight:regular;" x="11.297281" y="-7.96875">0</tspan>
       </text>
      </g>
     </g>
    </g>
    <g id="text_16">
     <!-- $\omega$ -->
     <g style="fill:#262626;" transform="translate(419.141825 212.981435)">
      <text>
       <tspan style="font-family:DejaVu Sans;font-size:10px;font-style:oblique;font-weight:oblique;" x="0" y="-0.53125">ω</tspan>
      </text>
     </g>
    </g>
   </g>
   <g id="matplotlib.axis_6">
    <g id="ytick_67">
     <g id="line2d_97">
      <path clip-path="url(#pefe7836e41)" d="M 361.95924 169.118554 
L 484.724409 169.118554 
" style="fill:none;stroke:#cccccc;stroke-linecap:round;stroke-width:0.8;"/>
     </g>
     <g id="line2d_98"/>
    </g>
    <g id="ytick_68">
     <g id="line2d_99">
      <path clip-path="url(#pefe7836e41)" d="M 361.95924 125.309828 
L 484.724409 125.309828 
" style="fill:none;stroke:#cccccc;stroke-linecap:round;stroke-width:0.8;"/>
     </g>
     <g id="line2d_100"/>
    </g>
    <g id="ytick_69">
     <g id="line2d_101">
      <path clip-path="url(#pefe7836e41)" d="M 361.95924 81.501102 
L 484.724409 81.501102 
" style="fill:none;stroke:#cccccc;stroke-linecap:round;stroke-width:0.8;"/>
     </g>
     <g id="line2d_102"/>
    </g>
    <g id="ytick_70">
     <g id="line2d_103">
      <path clip-path="url(#pefe7836e41)" d="M 361.95924 37.692375 
L 484.724409 37.692375 
" style="fill:none;stroke:#cccccc;stroke-linecap:round;stroke-width:0.8;"/>
     </g>
     <g id="line2d_104"/>
    </g>
    <g id="ytick_71">
     <g id="line2d_105"/>
    </g>
    <g id="ytick_72">
     <g id="line2d_106"/>
    </g>
    <g id="ytick_73">
     <g id="line2d_107"/>
    </g>
    <g id="ytick_74">
     <g id="line2d_108"/>
    </g>
    <g id="ytick_75">
     <g id="line2d_109"/>
    </g>
    <g id="ytick_76">
     <g id="line2d_110"/>
    </g>
    <g id="ytick_77">
     <g id="line2d_111"/>
    </g>
    <g id="ytick_78">
     <g id="line2d_112"/>
    </g>
    <g id="ytick_79">
     <g id="line2d_113"/>
    </g>
    <g id="ytick_80">
     <g id="line2d_114"/>
    </g>
    <g id="ytick_81">
     <g id="line2d_115"/>
    </g>
    <g id="ytick_82">
     <g id="line2d_116"/>
    </g>
    <g id="ytick_83">
     <g id="line2d_117"/>
    </g>
    <g id="ytick_84">
     <g id="line2d_118"/>
    </g>
    <g id="ytick_85">
     <g id="line2d_119"/>
    </g>
    <g id="ytick_86">
     <g id="line2d_120"/>
    </g>
    <g id="ytick_87">
     <g id="line2d_121"/>
    </g>
    <g id="ytick_88">
     <g id="line2d_122"/>
    </g>
    <g id="ytick_89">
     <g id="line2d_123"/>
    </g>
    <g id="ytick_90">
     <g id="line2d_124"/>
    </g>
    <g id="ytick_91">
     <g id="line2d_125"/>
    </g>
    <g id="ytick_92">
     <g id="line2d_126"/>
    </g>
    <g id="ytick_93">
     <g id="line2d_127"/>
    </g>
    <g id="ytick_94">
     <g id="line2d_128"/>
    </g>
    <g id="ytick_95">
     <g id="line2d_129"/>
    </g>
    <g id="ytick_96">
     <g id="line2d_130"/>
    </g>
    <g id="ytick_97">
     <g id="line2d_131"/>
    </g>
    <g id="ytick_98">
     <g id="line2d_132"/>
    </g>
    <g id="ytick_99">
     <g id="line2d_133"/>
    </g>
   </g>
   <g id="patch_17">
    <path clip-path="url(#pefe7836e41)" d="M 367.539475 186.023622 
L 367.539475 25.511811 
L 393.601779 25.511811 
L 393.601779 186.023622 
z
" style="fill:#008000;opacity:0.2;stroke:#008000;stroke-linejoin:miter;"/>
   </g>
   <g id="patch_18">
    <path clip-path="url(#pefe7836e41)" d="M 393.601779 186.023622 
L 393.601779 25.511811 
L 479.144174 25.511811 
L 479.144174 186.023622 
z
" style="fill:#ff0000;opacity:0.2;stroke:#ff0000;stroke-linejoin:miter;"/>
   </g>
   <g id="line2d_134">
    <path clip-path="url(#pefe7836e41)" d="M 367.539475 37.748535 
L 374.135973 37.978526 
L 378.433183 38.340934 
L 381.71469 38.833117 
L 384.426955 39.45888 
L 386.793211 40.228856 
L 388.958559 41.165209 
L 391.045776 42.312035 
L 393.155315 43.729072 
L 395.476925 45.565341 
L 398.591008 48.340292 
L 403.982054 53.155326 
L 406.683158 55.236971 
L 409.317292 56.984372 
L 412.33092 58.705665 
L 420.501201 63.215217 
L 422.878619 64.893563 
L 425.122098 66.751956 
L 427.3879 68.922263 
L 429.798802 71.546688 
L 432.499906 74.827422 
L 435.680958 79.056427 
L 439.699129 84.789177 
L 445.33573 93.249944 
L 454.968179 108.166209 
L 479.144174 146.072899 
L 479.144174 146.072899 
" style="fill:none;stroke:#6d8300;stroke-linecap:round;"/>
   </g>
   <g id="line2d_135">
    <path clip-path="url(#pefe7836e41)" d="M 367.539475 38.031216 
L 372.283149 38.367315 
L 375.575817 38.813016 
L 378.120659 39.374717 
L 380.207876 40.057256 
L 382.016052 40.878641 
L 383.645644 41.861411 
L 385.174781 43.045421 
L 386.648111 44.472034 
L 388.110278 46.203356 
L 389.605931 48.327075 
L 391.179715 50.958219 
L 392.898599 54.281184 
L 394.851876 58.563626 
L 397.273941 64.446514 
L 403.334682 79.439063 
L 404.763365 82.220449 
L 405.957655 84.081451 
L 407.040328 85.370703 
L 408.078356 86.268767 
L 409.138707 86.894651 
L 410.310673 87.325927 
L 411.795164 87.623072 
L 418.3805 88.661224 
L 420.233323 89.333676 
L 422.0415 90.22803 
L 423.883162 91.390969 
L 425.802955 92.872845 
L 427.845525 94.737503 
L 430.089004 97.095784 
L 432.633845 100.105785 
L 435.636312 104.016799 
L 439.386605 109.286667 
L 444.509773 116.897463 
L 452.735862 129.563349 
L 472.804394 160.988869 
L 479.144174 170.941116 
L 479.144174 170.941116 
" style="fill:none;stroke:#6d8300;stroke-linecap:round;"/>
   </g>
   <g id="line2d_136">
    <path clip-path="url(#pefe7836e41)" d="M 367.539475 71.321365 
L 379.359595 52.518289 
L 382.618778 47.778774 
L 385.018519 44.662978 
L 387.005281 42.433113 
L 388.768812 40.776771 
L 390.420727 39.522753 
L 392.039157 38.568619 
L 393.702233 37.844576 
L 395.499248 37.306409 
L 397.55298 36.928421 
L 400.097822 36.696168 
L 403.81463 36.60255 
L 418.704186 36.409082 
L 426.059671 36.304796 
L 431.573495 36.472757 
L 454.365453 37.43026 
L 468.138851 37.60643 
L 479.144174 37.65754 
L 479.144174 37.65754 
" style="fill:none;stroke:#be1e3c;stroke-linecap:round;"/>
   </g>
   <g id="line2d_137">
    <path clip-path="url(#pefe7836e41)" d="M 367.539475 73.376312 
L 373.388146 64.891063 
L 377.830458 58.819966 
L 381.391004 54.315196 
L 384.337662 50.931586 
L 386.849019 48.373507 
L 389.059013 46.429698 
L 391.068099 44.951626 
L 392.965568 43.82747 
L 394.840715 42.973915 
L 396.793992 42.33132 
L 398.95934 41.8577 
L 401.604636 41.517271 
L 405.354929 41.278944 
L 421.963369 40.458151 
L 428.749613 39.717584 
L 437.656559 38.78207 
L 444.297703 38.329859 
L 452.311722 38.019256 
L 463.718863 37.818469 
L 479.144174 37.727432 
L 479.144174 37.727432 
" style="fill:none;stroke:#be1e3c;stroke-linecap:round;"/>
   </g>
   <g id="line2d_138">
    <path clip-path="url(#pefe7836e41)" d="M 424.776089 36.298206 
" style="fill:none;stroke:#ffffff;stroke-linecap:round;stroke-width:1.5;"/>
    <g clip-path="url(#pefe7836e41)">
     <use style="fill:#ffffff;stroke:#ffffff;" x="424.776089" xlink:href="#m7cff44195d" y="36.298206"/>
    </g>
   </g>
   <g id="patch_19">
    <path d="M 361.95924 186.023622 
L 361.95924 25.511811 
" style="fill:none;stroke:#cccccc;stroke-linecap:square;stroke-linejoin:miter;"/>
   </g>
   <g id="patch_20">
    <path d="M 484.724409 186.023622 
L 484.724409 25.511811 
" style="fill:none;stroke:#cccccc;stroke-linecap:square;stroke-linejoin:miter;"/>
   </g>
   <g id="patch_21">
    <path d="M 361.95924 186.023622 
L 484.724409 186.023622 
" style="fill:none;stroke:#cccccc;stroke-linecap:square;stroke-linejoin:miter;"/>
   </g>
   <g id="patch_22">
    <path d="M 361.95924 25.511811 
L 484.724409 25.511811 
" style="fill:none;stroke:#cccccc;stroke-linecap:square;stroke-linejoin:miter;"/>
   </g>
   <g id="text_17">
    <text style="fill:#262626;font-family:Arial;font-size:12px;font-style:normal;font-weight:400;text-anchor:middle;" transform="rotate(-0, 423.341825, 19.511811)" x="423.341825" y="19.511811">R2D2</text>
   </g>
  </g>
 </g>
 <defs>
  <clipPath id="p0e4036001e">
   <rect height="160.511811" width="122.765169" x="67.322835" y="25.511811"/>
  </clipPath>
  <clipPath id="p36291628e2">
   <rect height="160.511811" width="122.765169" x="214.641038" y="25.511811"/>
  </clipPath>
  <clipPath id="pefe7836e41">
   <rect height="160.511811" width="122.765169" x="361.95924" y="25.511811"/>
  </clipPath>
 </defs>
</svg>
