<?xml version="1.0" encoding="utf-8" standalone="no"?>
<!DOCTYPE svg PUBLIC "-//W3C//DTD SVG 1.1//EN"
  "http://www.w3.org/Graphics/SVG/1.1/DTD/svg11.dtd">
<!-- Created with matplotlib (http://matplotlib.org/) -->
<svg height="318pt" version="1.1" viewBox="0 0 538 318" width="538pt" xmlns="http://www.w3.org/2000/svg" xmlns:xlink="http://www.w3.org/1999/xlink">
 <defs>
  <style type="text/css">
*{stroke-linecap:butt;stroke-linejoin:round;}
  </style>
 </defs>
 <g id="figure_1">
  <g id="patch_1">
   <path d="M 0 318.897638 
L 538.582677 318.897638 
L 538.582677 0 
L 0 0 
z
" style="fill:#ffffff;"/>
  </g>
  <g id="axes_1">
   <g id="patch_2">
    <path d="M 67.322835 279.035433 
L 484.724409 279.035433 
L 484.724409 38.267717 
L 67.322835 38.267717 
z
" style="fill:#ffffff;"/>
   </g>
   <g id="matplotlib.axis_1">
    <g id="xtick_1">
     <g id="line2d_1">
      <path clip-path="url(#pf2e4fd324d)" d="M 86.295634 279.035433 
L 86.295634 38.267717 
" style="fill:none;stroke:#cccccc;stroke-linecap:round;stroke-width:0.8;"/>
     </g>
     <g id="line2d_2"/>
     <g id="text_1">
      <text style="fill:#262626;font-family:Arial;font-size:10px;font-style:normal;font-weight:400;text-anchor:middle;" transform="rotate(-0, 86.295634, 289.693246)" x="86.295634" y="289.693246">273</text>
     </g>
    </g>
    <g id="xtick_2">
     <g id="line2d_3">
      <path clip-path="url(#pf2e4fd324d)" d="M 133.727631 279.035433 
L 133.727631 38.267717 
" style="fill:none;stroke:#cccccc;stroke-linecap:round;stroke-width:0.8;"/>
     </g>
     <g id="line2d_4"/>
     <g id="text_2">
      <text style="fill:#262626;font-family:Arial;font-size:10px;font-style:normal;font-weight:400;text-anchor:middle;" transform="rotate(-0, 133.727631, 289.693246)" x="133.727631" y="289.693246">278</text>
     </g>
    </g>
    <g id="xtick_3">
     <g id="line2d_5">
      <path clip-path="url(#pf2e4fd324d)" d="M 181.159628 279.035433 
L 181.159628 38.267717 
" style="fill:none;stroke:#cccccc;stroke-linecap:round;stroke-width:0.8;"/>
     </g>
     <g id="line2d_6"/>
     <g id="text_3">
      <text style="fill:#262626;font-family:Arial;font-size:10px;font-style:normal;font-weight:400;text-anchor:middle;" transform="rotate(-0, 181.159628, 289.693246)" x="181.159628" y="289.693246">283</text>
     </g>
    </g>
    <g id="xtick_4">
     <g id="line2d_7">
      <path clip-path="url(#pf2e4fd324d)" d="M 228.591625 279.035433 
L 228.591625 38.267717 
" style="fill:none;stroke:#cccccc;stroke-linecap:round;stroke-width:0.8;"/>
     </g>
     <g id="line2d_8"/>
     <g id="text_4">
      <text style="fill:#262626;font-family:Arial;font-size:10px;font-style:normal;font-weight:400;text-anchor:middle;" transform="rotate(-0, 228.591625, 289.693246)" x="228.591625" y="289.693246">288</text>
     </g>
    </g>
    <g id="xtick_5">
     <g id="line2d_9">
      <path clip-path="url(#pf2e4fd324d)" d="M 276.023622 279.035433 
L 276.023622 38.267717 
" style="fill:none;stroke:#cccccc;stroke-linecap:round;stroke-width:0.8;"/>
     </g>
     <g id="line2d_10"/>
     <g id="text_5">
      <text style="fill:#262626;font-family:Arial;font-size:10px;font-style:normal;font-weight:400;text-anchor:middle;" transform="rotate(-0, 276.023622, 289.693246)" x="276.023622" y="289.693246">293</text>
     </g>
    </g>
    <g id="xtick_6">
     <g id="line2d_11">
      <path clip-path="url(#pf2e4fd324d)" d="M 323.455619 279.035433 
L 323.455619 38.267717 
" style="fill:none;stroke:#cccccc;stroke-linecap:round;stroke-width:0.8;"/>
     </g>
     <g id="line2d_12"/>
     <g id="text_6">
      <text style="fill:#262626;font-family:Arial;font-size:10px;font-style:normal;font-weight:400;text-anchor:middle;" transform="rotate(-0, 323.455619, 289.693246)" x="323.455619" y="289.693246">298</text>
     </g>
    </g>
    <g id="xtick_7">
     <g id="line2d_13">
      <path clip-path="url(#pf2e4fd324d)" d="M 370.887616 279.035433 
L 370.887616 38.267717 
" style="fill:none;stroke:#cccccc;stroke-linecap:round;stroke-width:0.8;"/>
     </g>
     <g id="line2d_14"/>
     <g id="text_7">
      <text style="fill:#262626;font-family:Arial;font-size:10px;font-style:normal;font-weight:400;text-anchor:middle;" transform="rotate(-0, 370.887616, 289.693246)" x="370.887616" y="289.693246">303</text>
     </g>
    </g>
    <g id="xtick_8">
     <g id="line2d_15">
      <path clip-path="url(#pf2e4fd324d)" d="M 418.319613 279.035433 
L 418.319613 38.267717 
" style="fill:none;stroke:#cccccc;stroke-linecap:round;stroke-width:0.8;"/>
     </g>
     <g id="line2d_16"/>
     <g id="text_8">
      <text style="fill:#262626;font-family:Arial;font-size:10px;font-style:normal;font-weight:400;text-anchor:middle;" transform="rotate(-0, 418.319613, 289.693246)" x="418.319613" y="289.693246">308</text>
     </g>
    </g>
    <g id="xtick_9">
     <g id="line2d_17">
      <path clip-path="url(#pf2e4fd324d)" d="M 465.751611 279.035433 
L 465.751611 38.267717 
" style="fill:none;stroke:#cccccc;stroke-linecap:round;stroke-width:0.8;"/>
     </g>
     <g id="line2d_18"/>
     <g id="text_9">
      <text style="fill:#262626;font-family:Arial;font-size:10px;font-style:normal;font-weight:400;text-anchor:middle;" transform="rotate(-0, 465.751611, 289.693246)" x="465.751611" y="289.693246">313</text>
     </g>
    </g>
    <g id="text_10">
     <text style="fill:#262626;font-family:Arial;font-size:10px;font-style:normal;font-weight:400;text-anchor:middle;" transform="rotate(-0, 276.023622, 302.960433)" x="276.023622" y="302.960433">T_{amb} [K]</text>
    </g>
   </g>
   <g id="matplotlib.axis_2">
    <g id="ytick_1">
     <g id="line2d_19">
      <path clip-path="url(#pf2e4fd324d)" d="M 67.322835 247.578894 
L 484.724409 247.578894 
" style="fill:none;stroke:#cccccc;stroke-linecap:round;stroke-width:0.8;"/>
     </g>
     <g id="line2d_20"/>
     <g id="text_11">
      <text style="fill:#262626;font-family:Arial;font-size:10px;font-style:normal;font-weight:400;text-anchor:end;" transform="rotate(-0, 63.822835, 251.1578)" x="63.822835" y="251.1578">0.2</text>
     </g>
    </g>
    <g id="ytick_2">
     <g id="line2d_21">
      <path clip-path="url(#pf2e4fd324d)" d="M 67.322835 206.30647 
L 484.724409 206.30647 
" style="fill:none;stroke:#cccccc;stroke-linecap:round;stroke-width:0.8;"/>
     </g>
     <g id="line2d_22"/>
     <g id="text_12">
      <text style="fill:#262626;font-family:Arial;font-size:10px;font-style:normal;font-weight:400;text-anchor:end;" transform="rotate(-0, 63.822835, 209.885377)" x="63.822835" y="209.885377">0.3</text>
     </g>
    </g>
    <g id="ytick_3">
     <g id="line2d_23">
      <path clip-path="url(#pf2e4fd324d)" d="M 67.322835 165.034047 
L 484.724409 165.034047 
" style="fill:none;stroke:#cccccc;stroke-linecap:round;stroke-width:0.8;"/>
     </g>
     <g id="line2d_24"/>
     <g id="text_13">
      <text style="fill:#262626;font-family:Arial;font-size:10px;font-style:normal;font-weight:400;text-anchor:end;" transform="rotate(-0, 63.822835, 168.612953)" x="63.822835" y="168.612953">0.4</text>
     </g>
    </g>
    <g id="ytick_4">
     <g id="line2d_25">
      <path clip-path="url(#pf2e4fd324d)" d="M 67.322835 123.761623 
L 484.724409 123.761623 
" style="fill:none;stroke:#cccccc;stroke-linecap:round;stroke-width:0.8;"/>
     </g>
     <g id="line2d_26"/>
     <g id="text_14">
      <text style="fill:#262626;font-family:Arial;font-size:10px;font-style:normal;font-weight:400;text-anchor:end;" transform="rotate(-0, 63.822835, 127.340529)" x="63.822835" y="127.340529">0.5</text>
     </g>
    </g>
    <g id="ytick_5">
     <g id="line2d_27">
      <path clip-path="url(#pf2e4fd324d)" d="M 67.322835 82.489199 
L 484.724409 82.489199 
" style="fill:none;stroke:#cccccc;stroke-linecap:round;stroke-width:0.8;"/>
     </g>
     <g id="line2d_28"/>
     <g id="text_15">
      <text style="fill:#262626;font-family:Arial;font-size:10px;font-style:normal;font-weight:400;text-anchor:end;" transform="rotate(-0, 63.822835, 86.068106)" x="63.822835" y="86.068106">0.6</text>
     </g>
    </g>
    <g id="ytick_6">
     <g id="line2d_29">
      <path clip-path="url(#pf2e4fd324d)" d="M 67.322835 41.216776 
L 484.724409 41.216776 
" style="fill:none;stroke:#cccccc;stroke-linecap:round;stroke-width:0.8;"/>
     </g>
     <g id="line2d_30"/>
     <g id="text_16">
      <text style="fill:#262626;font-family:Arial;font-size:10px;font-style:normal;font-weight:400;text-anchor:end;" transform="rotate(-0, 63.822835, 44.795682)" x="63.822835" y="44.795682">0.7</text>
     </g>
    </g>
    <g id="text_17">
     <text style="fill:#262626;font-family:Arial;font-size:10px;font-style:normal;font-weight:400;text-anchor:middle;" transform="rotate(-90, 43.818147, 158.651575)" x="43.818147" y="158.651575">\det(\ma{E})</text>
    </g>
   </g>
   <g id="line2d_31">
    <path clip-path="url(#pf2e4fd324d)" d="M 86.295634 163.380748 
L 133.727631 107.626093 
L 181.159628 97.439114 
L 228.591625 84.016075 
L 276.023622 68.464567 
L 323.455619 61.771834 
L 370.887616 62.678227 
L 418.319613 81.403501 
L 465.751611 109.530613 
" style="fill:none;opacity:0.1;stroke:#808080;stroke-linecap:round;stroke-width:1.5;"/>
   </g>
   <g id="line2d_32">
    <path clip-path="url(#pf2e4fd324d)" d="M 86.295634 262.758601 
L 133.727631 210.17633 
L 181.159628 198.94139 
L 228.591625 183.369618 
L 276.023622 164.236892 
L 323.455619 155.642236 
L 370.887616 156.818913 
L 418.319613 180.237323 
L 465.751611 212.220978 
" style="fill:none;opacity:0.1;stroke:#808080;stroke-dasharray:5.55,2.4;stroke-dashoffset:0;stroke-width:1.5;"/>
   </g>
   <g id="line2d_33">
    <path clip-path="url(#pf2e4fd324d)" d="M 86.295634 163.311699 
L 133.727631 107.405515 
L 181.159628 97.108923 
L 228.591625 83.82538 
L 276.023622 68.370688 
L 323.455619 61.801183 
L 370.887616 62.787014 
L 418.319613 81.563326 
L 465.751611 109.753886 
" style="fill:none;opacity:0.1;stroke:#808080;stroke-linecap:round;stroke-width:1.5;"/>
   </g>
   <g id="line2d_34">
    <path clip-path="url(#pf2e4fd324d)" d="M 86.295634 262.702798 
L 133.727631 209.938387 
L 181.159628 198.568817 
L 228.591625 183.142107 
L 276.023622 164.117835 
L 323.455619 155.680398 
L 370.887616 156.959872 
L 418.319613 180.429892 
L 465.751611 212.459526 
" style="fill:none;opacity:0.1;stroke:#808080;stroke-dasharray:5.55,2.4;stroke-dashoffset:0;stroke-width:1.5;"/>
   </g>
   <g id="line2d_35">
    <path clip-path="url(#pf2e4fd324d)" d="M 86.295634 163.356025 
L 133.727631 107.993078 
L 181.159628 97.9827 
L 228.591625 84.658564 
L 276.023622 69.455628 
L 323.455619 62.753819 
L 370.887616 63.266639 
L 418.319613 81.726593 
L 465.751611 109.782982 
" style="fill:none;opacity:0.1;stroke:#808080;stroke-linecap:round;stroke-width:1.5;"/>
   </g>
   <g id="line2d_36">
    <path clip-path="url(#pf2e4fd324d)" d="M 86.295634 262.738624 
L 133.727631 210.571684 
L 181.159628 199.553597 
L 228.591625 184.134851 
L 276.023622 165.491138 
L 323.455619 156.916866 
L 370.887616 157.580656 
L 418.319613 180.626479 
L 465.751611 212.490596 
" style="fill:none;opacity:0.1;stroke:#808080;stroke-dasharray:5.55,2.4;stroke-dashoffset:0;stroke-width:1.5;"/>
   </g>
   <g id="line2d_37">
    <path clip-path="url(#pf2e4fd324d)" d="M 86.295634 169.864353 
L 133.727631 112.122983 
L 181.159628 99.168674 
L 228.591625 86.328239 
L 276.023622 70.054691 
L 323.455619 62.868809 
L 370.887616 63.341422 
L 418.319613 81.792187 
L 465.751611 109.831206 
" style="fill:none;opacity:0.1;stroke:#808080;stroke-linecap:round;stroke-width:1.5;"/>
   </g>
   <g id="line2d_38">
    <path clip-path="url(#pf2e4fd324d)" d="M 86.295634 267.895577 
L 133.727631 214.975838 
L 181.159628 200.884316 
L 228.591625 186.114154 
L 276.023622 166.246981 
L 323.455619 157.065818 
L 370.887616 157.677348 
L 418.319613 180.705424 
L 465.751611 212.54208 
" style="fill:none;opacity:0.1;stroke:#808080;stroke-dasharray:5.55,2.4;stroke-dashoffset:0;stroke-width:1.5;"/>
   </g>
   <g id="line2d_39">
    <path clip-path="url(#pf2e4fd324d)" d="M 86.295634 169.637676 
L 133.727631 112.113514 
L 181.159628 99.161264 
L 228.591625 86.41976 
L 276.023622 70.301678 
L 323.455619 63.300469 
L 370.887616 63.786227 
L 418.319613 82.040664 
L 465.751611 110.008059 
" style="fill:none;opacity:0.1;stroke:#808080;stroke-linecap:round;stroke-width:1.5;"/>
   </g>
   <g id="line2d_40">
    <path clip-path="url(#pf2e4fd324d)" d="M 86.295634 267.719417 
L 133.727631 214.965834 
L 181.159628 200.876023 
L 228.591625 186.222257 
L 276.023622 166.558099 
L 323.455619 157.6244 
L 370.887616 158.251907 
L 418.319613 181.004286 
L 465.751611 212.730796 
" style="fill:none;opacity:0.1;stroke:#808080;stroke-dasharray:5.55,2.4;stroke-dashoffset:0;stroke-width:1.5;"/>
   </g>
   <g id="line2d_41">
    <path clip-path="url(#pf2e4fd324d)" d="M 86.295634 170.116304 
L 133.727631 114.177122 
L 181.159628 101.090306 
L 228.591625 88.086936 
L 276.023622 71.387884 
L 323.455619 63.736144 
L 370.887616 63.823066 
L 418.319613 82.044505 
L 465.751611 110.00489 
" style="fill:none;opacity:0.1;stroke:#808080;stroke-linecap:round;stroke-width:1.5;"/>
   </g>
   <g id="line2d_42">
    <path clip-path="url(#pf2e4fd324d)" d="M 86.295634 268.091087 
L 133.727631 217.135605 
L 181.159628 203.026009 
L 228.591625 188.184379 
L 276.023622 167.922838 
L 323.455619 158.187262 
L 370.887616 158.29945 
L 418.319613 181.008904 
L 465.751611 212.727416 
" style="fill:none;opacity:0.1;stroke:#808080;stroke-dasharray:5.55,2.4;stroke-dashoffset:0;stroke-width:1.5;"/>
   </g>
   <g id="line2d_43">
    <path clip-path="url(#pf2e4fd324d)" d="M 86.295634 165.631539 
L 133.727631 109.270272 
L 181.159628 97.840001 
L 228.591625 84.924094 
L 276.023622 69.019299 
L 323.455619 62.078776 
L 370.887616 62.826131 
L 418.319613 81.462476 
L 465.751611 109.562564 
" style="fill:none;opacity:0.1;stroke:#808080;stroke-linecap:round;stroke-width:1.5;"/>
   </g>
   <g id="line2d_44">
    <path clip-path="url(#pf2e4fd324d)" d="M 86.295634 264.564993 
L 133.727631 211.942518 
L 181.159628 199.393022 
L 228.591625 184.450525 
L 276.023622 164.939524 
L 323.455619 156.041153 
L 370.887616 157.010543 
L 418.319613 180.308394 
L 465.751611 212.255129 
" style="fill:none;opacity:0.1;stroke:#808080;stroke-dasharray:5.55,2.4;stroke-dashoffset:0;stroke-width:1.5;"/>
   </g>
   <g id="line2d_45">
    <path clip-path="url(#pf2e4fd324d)" d="M 86.295634 165.499992 
L 133.727631 109.062667 
L 181.159628 97.587208 
L 228.591625 84.777059 
L 276.023622 69.003599 
L 323.455619 62.191608 
L 370.887616 63.025417 
L 418.319613 81.705582 
L 465.751611 109.804475 
" style="fill:none;opacity:0.1;stroke:#808080;stroke-linecap:round;stroke-width:1.5;"/>
   </g>
   <g id="line2d_46">
    <path clip-path="url(#pf2e4fd324d)" d="M 86.295634 264.460094 
L 133.727631 211.72023 
L 181.159628 199.108321 
L 228.591625 184.275765 
L 276.023622 164.919659 
L 323.455619 156.18768 
L 370.887616 157.268579 
L 418.319613 180.601188 
L 465.751611 212.513544 
" style="fill:none;opacity:0.1;stroke:#808080;stroke-dasharray:5.55,2.4;stroke-dashoffset:0;stroke-width:1.5;"/>
   </g>
   <g id="line2d_47">
    <path clip-path="url(#pf2e4fd324d)" d="M 86.295634 165.609389 
L 133.727631 110.058221 
L 181.159628 98.803416 
L 228.591625 86.118151 
L 276.023622 70.350909 
L 323.455619 63.101614 
L 370.887616 63.412323 
L 418.319613 81.780459 
L 465.751611 109.80175 
" style="fill:none;stroke:#be1e3c;stroke-linecap:round;stroke-width:1.5;"/>
   </g>
   <g id="line2d_48">
    <path clip-path="url(#pf2e4fd324d)" d="M 86.295634 264.547336 
L 133.727631 212.784296 
L 181.159628 200.475206 
L 228.591625 185.86585 
L 276.023622 166.620078 
L 323.455619 157.367188 
L 370.887616 157.768997 
L 418.319613 180.691311 
L 465.751611 212.510634 
" style="fill:none;stroke:#be1e3c;stroke-dasharray:5.55,2.4;stroke-dashoffset:0;stroke-width:1.5;"/>
   </g>
   <g id="line2d_49">
    <path clip-path="url(#pf2e4fd324d)" d="M 86.295634 163.377493 
L 133.727631 107.627323 
L 181.159628 97.438565 
L 228.591625 84.01667 
L 276.023622 68.465508 
L 323.455619 61.770342 
L 370.887616 62.677576 
L 418.319613 81.402831 
L 465.751611 109.528921 
" style="fill:none;opacity:0.1;stroke:#808080;stroke-linecap:round;stroke-width:1.5;"/>
   </g>
   <g id="line2d_50">
    <path clip-path="url(#pf2e4fd324d)" d="M 86.295634 262.755972 
L 133.727631 210.177656 
L 181.159628 198.940771 
L 228.591625 183.370328 
L 276.023622 164.238084 
L 323.455619 155.640296 
L 370.887616 156.818069 
L 418.319613 180.236515 
L 465.751611 212.219168 
" style="fill:none;opacity:0.1;stroke:#808080;stroke-dasharray:5.55,2.4;stroke-dashoffset:0;stroke-width:1.5;"/>
   </g>
   <g id="line2d_51">
    <path clip-path="url(#pf2e4fd324d)" d="M 86.295634 163.308726 
L 133.727631 107.405112 
L 181.159628 97.108358 
L 228.591625 83.824906 
L 276.023622 68.370616 
L 323.455619 61.800253 
L 370.887616 62.784861 
L 418.319613 81.561237 
L 465.751611 109.751838 
" style="fill:none;opacity:0.1;stroke:#808080;stroke-linecap:round;stroke-width:1.5;"/>
   </g>
   <g id="line2d_52">
    <path clip-path="url(#pf2e4fd324d)" d="M 86.295634 262.700394 
L 133.727631 209.937953 
L 181.159628 198.56818 
L 228.591625 183.141541 
L 276.023622 164.117744 
L 323.455619 155.67919 
L 370.887616 156.957082 
L 418.319613 180.427376 
L 465.751611 212.45734 
" style="fill:none;opacity:0.1;stroke:#808080;stroke-dasharray:5.55,2.4;stroke-dashoffset:0;stroke-width:1.5;"/>
   </g>
   <g id="line2d_53">
    <path clip-path="url(#pf2e4fd324d)" d="M 86.295634 163.350252 
L 133.727631 107.991891 
L 181.159628 97.982021 
L 228.591625 84.66312 
L 276.023622 69.45538 
L 323.455619 62.753271 
L 370.887616 63.263104 
L 418.319613 81.72586 
L 465.751611 109.782613 
" style="fill:none;opacity:0.1;stroke:#808080;stroke-linecap:round;stroke-width:1.5;"/>
   </g>
   <g id="line2d_54">
    <path clip-path="url(#pf2e4fd324d)" d="M 86.295634 262.733958 
L 133.727631 210.570407 
L 181.159628 199.552834 
L 228.591625 184.14027 
L 276.023622 165.490825 
L 323.455619 156.916156 
L 370.887616 157.576085 
L 418.319613 180.625597 
L 465.751611 212.490202 
" style="fill:none;opacity:0.1;stroke:#808080;stroke-dasharray:5.55,2.4;stroke-dashoffset:0;stroke-width:1.5;"/>
   </g>
   <g id="line2d_55">
    <path clip-path="url(#pf2e4fd324d)" d="M 86.295634 169.864005 
L 133.727631 112.122308 
L 181.159628 99.16772 
L 228.591625 86.326611 
L 276.023622 70.051575 
L 323.455619 62.867791 
L 370.887616 63.339664 
L 418.319613 81.790647 
L 465.751611 109.829971 
" style="fill:none;opacity:0.1;stroke:#808080;stroke-linecap:round;stroke-width:1.5;"/>
   </g>
   <g id="line2d_56">
    <path clip-path="url(#pf2e4fd324d)" d="M 86.295634 267.895307 
L 133.727631 214.975125 
L 181.159628 200.883248 
L 228.591625 186.112231 
L 276.023622 166.243053 
L 323.455619 157.0645 
L 370.887616 157.675075 
L 418.319613 180.703571 
L 465.751611 212.540763 
" style="fill:none;opacity:0.1;stroke:#808080;stroke-dasharray:5.55,2.4;stroke-dashoffset:0;stroke-width:1.5;"/>
   </g>
   <g id="line2d_57">
    <path clip-path="url(#pf2e4fd324d)" d="M 86.295634 169.637312 
L 133.727631 112.113548 
L 181.159628 99.160464 
L 228.591625 86.420466 
L 276.023622 70.302352 
L 323.455619 63.298574 
L 370.887616 63.784078 
L 418.319613 82.042047 
L 465.751611 110.003577 
" style="fill:none;opacity:0.1;stroke:#808080;stroke-linecap:round;stroke-width:1.5;"/>
   </g>
   <g id="line2d_58">
    <path clip-path="url(#pf2e4fd324d)" d="M 86.295634 267.719134 
L 133.727631 214.96587 
L 181.159628 200.875128 
L 228.591625 186.223091 
L 276.023622 166.558948 
L 323.455619 157.621951 
L 370.887616 158.249134 
L 418.319613 181.005949 
L 465.751611 212.726015 
" style="fill:none;opacity:0.1;stroke:#808080;stroke-dasharray:5.55,2.4;stroke-dashoffset:0;stroke-width:1.5;"/>
   </g>
   <g id="line2d_59">
    <path clip-path="url(#pf2e4fd324d)" d="M 86.295634 170.116767 
L 133.727631 114.176623 
L 181.159628 101.089421 
L 228.591625 88.086473 
L 276.023622 71.385352 
L 323.455619 63.73426 
L 370.887616 63.820535 
L 418.319613 82.038535 
L 465.751611 110.007622 
" style="fill:none;opacity:0.1;stroke:#808080;stroke-linecap:round;stroke-width:1.5;"/>
   </g>
   <g id="line2d_60">
    <path clip-path="url(#pf2e4fd324d)" d="M 86.295634 268.091446 
L 133.727631 217.135082 
L 181.159628 203.025027 
L 228.591625 188.183836 
L 276.023622 167.919663 
L 323.455619 158.18483 
L 370.887616 158.296183 
L 418.319613 181.001727 
L 465.751611 212.73033 
" style="fill:none;opacity:0.1;stroke:#808080;stroke-dasharray:5.55,2.4;stroke-dashoffset:0;stroke-width:1.5;"/>
   </g>
   <g id="line2d_61">
    <path clip-path="url(#pf2e4fd324d)" d="M 86.295634 165.630263 
L 133.727631 109.27044 
L 181.159628 97.838611 
L 228.591625 84.922921 
L 276.023622 69.019426 
L 323.455619 62.078006 
L 370.887616 62.825743 
L 418.319613 81.461786 
L 465.751611 109.559943 
" style="fill:none;opacity:0.1;stroke:#808080;stroke-linecap:round;stroke-width:1.5;"/>
   </g>
   <g id="line2d_62">
    <path clip-path="url(#pf2e4fd324d)" d="M 86.295634 264.563976 
L 133.727631 211.942698 
L 181.159628 199.391458 
L 228.591625 184.449131 
L 276.023622 164.939686 
L 323.455619 156.040152 
L 370.887616 157.010041 
L 418.319613 180.307562 
L 465.751611 212.252327 
" style="fill:none;opacity:0.1;stroke:#808080;stroke-dasharray:5.55,2.4;stroke-dashoffset:0;stroke-width:1.5;"/>
   </g>
   <g id="line2d_63">
    <path clip-path="url(#pf2e4fd324d)" d="M 86.295634 165.500261 
L 133.727631 109.063946 
L 181.159628 97.585282 
L 228.591625 84.776408 
L 276.023622 69.003306 
L 323.455619 62.187391 
L 370.887616 63.022861 
L 418.319613 81.702131 
L 465.751611 109.803033 
" style="fill:none;opacity:0.1;stroke:#808080;stroke-linecap:round;stroke-width:1.5;"/>
   </g>
   <g id="line2d_64">
    <path clip-path="url(#pf2e4fd324d)" d="M 86.295634 264.460308 
L 133.727631 211.721601 
L 181.159628 199.10615 
L 228.591625 184.274991 
L 276.023622 164.919288 
L 323.455619 156.182205 
L 370.887616 157.265271 
L 418.319613 180.597033 
L 465.751611 212.512004 
" style="fill:none;opacity:0.1;stroke:#808080;stroke-dasharray:5.55,2.4;stroke-dashoffset:0;stroke-width:1.5;"/>
   </g>
   <g id="line2d_65">
    <path clip-path="url(#pf2e4fd324d)" d="M 86.295634 165.615928 
L 133.727631 110.054068 
L 181.159628 98.802275 
L 228.591625 86.117153 
L 276.023622 70.350449 
L 323.455619 63.099318 
L 370.887616 63.40974 
L 418.319613 81.77936 
L 465.751611 109.800219 
" style="fill:none;opacity:0.1;stroke:#808080;stroke-linecap:round;stroke-width:1.5;"/>
   </g>
   <g id="line2d_66">
    <path clip-path="url(#pf2e4fd324d)" d="M 86.295634 264.552548 
L 133.727631 212.779867 
L 181.159628 200.473927 
L 228.591625 185.86467 
L 276.023622 166.6195 
L 323.455619 157.364217 
L 370.887616 157.765658 
L 418.319613 180.689988 
L 465.751611 212.509 
" style="fill:none;opacity:0.1;stroke:#808080;stroke-dasharray:5.55,2.4;stroke-dashoffset:0;stroke-width:1.5;"/>
   </g>
   <g id="line2d_67">
    <path clip-path="url(#pf2e4fd324d)" d="M 86.295634 163.381321 
L 133.727631 107.62475 
L 181.159628 97.438213 
L 228.591625 84.017043 
L 276.023622 68.46359 
L 323.455619 61.769159 
L 370.887616 62.674486 
L 418.319613 81.400125 
L 465.751611 109.528348 
" style="fill:none;opacity:0.1;stroke:#808080;stroke-linecap:round;stroke-width:1.5;"/>
   </g>
   <g id="line2d_68">
    <path clip-path="url(#pf2e4fd324d)" d="M 86.295634 262.759065 
L 133.727631 210.174883 
L 181.159628 198.940374 
L 228.591625 183.370773 
L 276.023622 164.235653 
L 323.455619 155.638757 
L 370.887616 156.814065 
L 418.319613 180.233253 
L 465.751611 212.218556 
" style="fill:none;opacity:0.1;stroke:#808080;stroke-dasharray:5.55,2.4;stroke-dashoffset:0;stroke-width:1.5;"/>
   </g>
   <g id="line2d_69">
    <path clip-path="url(#pf2e4fd324d)" d="M 86.295634 163.305628 
L 133.727631 107.405941 
L 181.159628 97.108723 
L 228.591625 83.824671 
L 276.023622 68.370954 
L 323.455619 61.799027 
L 370.887616 62.784172 
L 418.319613 81.556275 
L 465.751611 109.7512 
" style="fill:none;opacity:0.1;stroke:#808080;stroke-linecap:round;stroke-width:1.5;"/>
   </g>
   <g id="line2d_70">
    <path clip-path="url(#pf2e4fd324d)" d="M 86.295634 262.69789 
L 133.727631 209.938848 
L 181.159628 198.568592 
L 228.591625 183.141261 
L 276.023622 164.118173 
L 323.455619 155.677596 
L 370.887616 156.95619 
L 418.319613 180.421398 
L 465.751611 212.456659 
" style="fill:none;opacity:0.1;stroke:#808080;stroke-dasharray:5.55,2.4;stroke-dashoffset:0;stroke-width:1.5;"/>
   </g>
   <g id="line2d_71">
    <path clip-path="url(#pf2e4fd324d)" d="M 86.295634 163.355284 
L 133.727631 107.989727 
L 181.159628 97.981642 
L 228.591625 84.662167 
L 276.023622 69.453502 
L 323.455619 62.751583 
L 370.887616 63.264375 
L 418.319613 81.724408 
L 465.751611 109.780149 
" style="fill:none;opacity:0.1;stroke:#808080;stroke-linecap:round;stroke-width:1.5;"/>
   </g>
   <g id="line2d_72">
    <path clip-path="url(#pf2e4fd324d)" d="M 86.295634 262.738025 
L 133.727631 210.568077 
L 181.159628 199.552408 
L 228.591625 184.139137 
L 276.023622 165.488453 
L 323.455619 156.913969 
L 370.887616 157.577729 
L 418.319613 180.62385 
L 465.751611 212.487571 
" style="fill:none;opacity:0.1;stroke:#808080;stroke-dasharray:5.55,2.4;stroke-dashoffset:0;stroke-width:1.5;"/>
   </g>
   <g id="line2d_73">
    <path clip-path="url(#pf2e4fd324d)" d="M 86.295634 161.134231 
L 133.727631 107.07735 
L 181.159628 96.833068 
L 228.591625 80.503881 
L 276.023622 63.645158 
L 323.455619 52.830837 
L 370.887616 50.962593 
L 418.319613 68.350738 
L 465.751611 96.383919 
" style="fill:none;opacity:0.1;stroke:#808080;stroke-linecap:round;stroke-width:1.5;"/>
   </g>
   <g id="line2d_74">
    <path clip-path="url(#pf2e4fd324d)" d="M 86.295634 260.931162 
L 133.727631 209.583952 
L 181.159628 198.257149 
L 228.591625 179.151084 
L 276.023622 158.069791 
L 323.455619 143.821732 
L 370.887616 141.302878 
L 418.319613 164.092529 
L 465.751611 197.748902 
" style="fill:none;opacity:0.1;stroke:#808080;stroke-dasharray:5.55,2.4;stroke-dashoffset:0;stroke-width:1.5;"/>
   </g>
   <g id="line2d_75">
    <path clip-path="url(#pf2e4fd324d)" d="M 86.295634 161.9983 
L 133.727631 107.144637 
L 181.159628 97.007502 
L 228.591625 80.504132 
L 276.023622 63.643657 
L 323.455619 52.831575 
L 370.887616 51.329096 
L 418.319613 68.348484 
L 465.751611 96.384959 
" style="fill:none;opacity:0.1;stroke:#808080;stroke-linecap:round;stroke-width:1.5;"/>
   </g>
   <g id="line2d_76">
    <path clip-path="url(#pf2e4fd324d)" d="M 86.295634 261.636937 
L 133.727631 209.656668 
L 181.159628 198.454272 
L 228.591625 179.151388 
L 276.023622 158.067852 
L 323.455619 143.822723 
L 370.887616 141.798348 
L 418.319613 164.08967 
L 465.751611 197.750079 
" style="fill:none;opacity:0.1;stroke:#808080;stroke-dasharray:5.55,2.4;stroke-dashoffset:0;stroke-width:1.5;"/>
   </g>
   <g id="line2d_77">
    <path clip-path="url(#pf2e4fd324d)" d="M 86.295634 161.987373 
L 133.727631 107.145498 
L 181.159628 97.007757 
L 228.591625 80.505902 
L 276.023622 63.643723 
L 323.455619 52.83016 
L 370.887616 50.983581 
L 418.319613 68.343105 
L 465.751611 96.383714 
" style="fill:none;opacity:0.1;stroke:#808080;stroke-linecap:round;stroke-width:1.5;"/>
   </g>
   <g id="line2d_78">
    <path clip-path="url(#pf2e4fd324d)" d="M 86.295634 261.628034 
L 133.727631 209.657598 
L 181.159628 198.454561 
L 228.591625 179.153529 
L 276.023622 158.067938 
L 323.455619 143.820821 
L 370.887616 141.331269 
L 418.319613 164.082847 
L 465.751611 197.748669 
" style="fill:none;opacity:0.1;stroke:#808080;stroke-dasharray:5.55,2.4;stroke-dashoffset:0;stroke-width:1.5;"/>
   </g>
   <g id="line2d_79">
    <path clip-path="url(#pf2e4fd324d)" d="M 86.295634 158.846363 
L 133.727631 104.472553 
L 181.159628 95.45542 
L 228.591625 77.415917 
L 276.023622 61.129664 
L 323.455619 51.068466 
L 370.887616 49.230169 
L 418.319613 67.928657 
L 465.751611 96.143524 
" style="fill:none;opacity:0.1;stroke:#808080;stroke-linecap:round;stroke-width:1.5;"/>
   </g>
   <g id="line2d_80">
    <path clip-path="url(#pf2e4fd324d)" d="M 86.295634 259.044949 
L 133.727631 206.752118 
L 181.159628 196.695131 
L 228.591625 175.392716 
L 276.023622 154.806163 
L 323.455619 141.446073 
L 370.887616 138.952029 
L 418.319613 163.556683 
L 465.751611 197.476474 
" style="fill:none;opacity:0.1;stroke:#808080;stroke-dasharray:5.55,2.4;stroke-dashoffset:0;stroke-width:1.5;"/>
   </g>
   <g id="line2d_81">
    <path clip-path="url(#pf2e4fd324d)" d="M 86.295634 158.88912 
L 133.727631 104.798263 
L 181.159628 96.179301 
L 228.591625 77.68327 
L 276.023622 61.272203 
L 323.455619 51.097793 
L 370.887616 49.211704 
L 418.319613 67.92839 
L 465.751611 96.143541 
" style="fill:none;opacity:0.1;stroke:#808080;stroke-linecap:round;stroke-width:1.5;"/>
   </g>
   <g id="line2d_82">
    <path clip-path="url(#pf2e4fd324d)" d="M 86.295634 259.080432 
L 133.727631 207.108016 
L 181.159628 197.517036 
L 228.591625 175.719939 
L 276.023622 154.991915 
L 323.455619 141.485729 
L 370.887616 138.926894 
L 418.319613 163.556344 
L 465.751611 197.476494 
" style="fill:none;opacity:0.1;stroke:#808080;stroke-dasharray:5.55,2.4;stroke-dashoffset:0;stroke-width:1.5;"/>
   </g>
   <g id="line2d_83">
    <path clip-path="url(#pf2e4fd324d)" d="M 86.295634 158.890644 
L 133.727631 104.791555 
L 181.159628 96.178825 
L 228.591625 77.681678 
L 276.023622 61.271373 
L 323.455619 51.101064 
L 370.887616 50.027787 
L 418.319613 67.92609 
L 465.751611 96.1432 
" style="fill:none;opacity:0.1;stroke:#808080;stroke-linecap:round;stroke-width:1.5;"/>
   </g>
   <g id="line2d_84">
    <path clip-path="url(#pf2e4fd324d)" d="M 86.295634 259.081697 
L 133.727631 207.100692 
L 181.159628 197.516496 
L 228.591625 175.717992 
L 276.023622 154.990833 
L 323.455619 141.490151 
L 370.887616 140.03618 
L 418.319613 163.553421 
L 465.751611 197.476107 
" style="fill:none;opacity:0.1;stroke:#808080;stroke-dasharray:5.55,2.4;stroke-dashoffset:0;stroke-width:1.5;"/>
   </g>
   <g id="line2d_85">
    <path clip-path="url(#pf2e4fd324d)" d="M 86.295634 158.704845 
L 133.727631 104.397459 
L 181.159628 95.316019 
L 228.591625 77.077499 
L 276.023622 60.951311 
L 323.455619 50.976662 
L 370.887616 49.586328 
L 418.319613 68.040706 
L 465.751611 96.192819 
" style="fill:none;opacity:0.1;stroke:#808080;stroke-linecap:round;stroke-width:1.5;"/>
   </g>
   <g id="line2d_86">
    <path clip-path="url(#pf2e4fd324d)" d="M 86.295634 258.927443 
L 133.727631 206.669992 
L 181.159628 196.536563 
L 228.591625 174.978017 
L 276.023622 154.573601 
L 323.455619 141.321909 
L 370.887616 139.436515 
L 418.319613 163.699017 
L 465.751611 197.53236 
" style="fill:none;opacity:0.1;stroke:#808080;stroke-dasharray:5.55,2.4;stroke-dashoffset:0;stroke-width:1.5;"/>
   </g>
   <g id="line2d_87">
    <path clip-path="url(#pf2e4fd324d)" d="M 86.295634 158.667528 
L 133.727631 104.744128 
L 181.159628 96.311643 
L 228.591625 77.340596 
L 276.023622 61.106554 
L 323.455619 51.061073 
L 370.887616 49.61105 
L 418.319613 68.041398 
L 465.751611 96.192412 
" style="fill:none;opacity:0.1;stroke:#808080;stroke-linecap:round;stroke-width:1.5;"/>
   </g>
   <g id="line2d_88">
    <path clip-path="url(#pf2e4fd324d)" d="M 86.295634 258.896441 
L 133.727631 207.0489 
L 181.159628 197.667025 
L 228.591625 175.300465 
L 276.023622 154.776038 
L 323.455619 141.436075 
L 370.887616 139.470121 
L 418.319613 163.699895 
L 465.751611 197.531899 
" style="fill:none;opacity:0.1;stroke:#808080;stroke-dasharray:5.55,2.4;stroke-dashoffset:0;stroke-width:1.5;"/>
   </g>
   <g id="line2d_89">
    <path clip-path="url(#pf2e4fd324d)" d="M 86.295634 158.642921 
L 133.727631 104.744931 
L 181.159628 96.312325 
L 228.591625 77.34628 
L 276.023622 61.108173 
L 323.455619 51.063144 
L 370.887616 50.549732 
L 418.319613 68.041123 
L 465.751611 96.192631 
" style="fill:none;opacity:0.1;stroke:#808080;stroke-linecap:round;stroke-width:1.5;"/>
   </g>
   <g id="line2d_90">
    <path clip-path="url(#pf2e4fd324d)" d="M 86.295634 258.875995 
L 133.727631 207.049777 
L 181.159628 197.667798 
L 228.591625 175.307428 
L 276.023622 154.778149 
L 323.455619 141.438876 
L 370.887616 140.743957 
L 418.319613 163.699547 
L 465.751611 197.532147 
" style="fill:none;opacity:0.1;stroke:#808080;stroke-dasharray:5.55,2.4;stroke-dashoffset:0;stroke-width:1.5;"/>
   </g>
   <g id="line2d_91">
    <path clip-path="url(#pf2e4fd324d)" d="M 86.295634 161.13582 
L 133.727631 107.077366 
L 181.159628 96.832204 
L 228.591625 80.504779 
L 276.023622 63.64325 
L 323.455619 52.830933 
L 370.887616 51.002355 
L 418.319613 68.349637 
L 465.751611 96.38357 
" style="fill:none;opacity:0.1;stroke:#808080;stroke-linecap:round;stroke-width:1.5;"/>
   </g>
   <g id="line2d_92">
    <path clip-path="url(#pf2e4fd324d)" d="M 86.295634 260.932463 
L 133.727631 209.583969 
L 181.159628 198.256173 
L 228.591625 179.152171 
L 276.023622 158.067327 
L 323.455619 143.82186 
L 370.887616 141.356664 
L 418.319613 164.091133 
L 465.751611 197.748506 
" style="fill:none;opacity:0.1;stroke:#808080;stroke-dasharray:5.55,2.4;stroke-dashoffset:0;stroke-width:1.5;"/>
   </g>
   <g id="line2d_93">
    <path clip-path="url(#pf2e4fd324d)" d="M 86.295634 161.989604 
L 133.727631 107.143468 
L 181.159628 97.007854 
L 228.591625 80.504744 
L 276.023622 63.643033 
L 323.455619 52.832729 
L 370.887616 51.002441 
L 418.319613 68.348926 
L 465.751611 96.383448 
" style="fill:none;opacity:0.1;stroke:#808080;stroke-linecap:round;stroke-width:1.5;"/>
   </g>
   <g id="line2d_94">
    <path clip-path="url(#pf2e4fd324d)" d="M 86.295634 261.629852 
L 133.727631 209.655405 
L 181.159628 198.454671 
L 228.591625 179.152128 
L 276.023622 158.067047 
L 323.455619 143.824274 
L 370.887616 141.356779 
L 418.319613 164.090231 
L 465.751611 197.748369 
" style="fill:none;opacity:0.1;stroke:#808080;stroke-dasharray:5.55,2.4;stroke-dashoffset:0;stroke-width:1.5;"/>
   </g>
   <g id="line2d_95">
    <path clip-path="url(#pf2e4fd324d)" d="M 86.295634 162.002721 
L 133.727631 107.144518 
L 181.159628 97.007628 
L 228.591625 80.504883 
L 276.023622 63.644624 
L 323.455619 52.83231 
L 370.887616 50.999106 
L 418.319613 68.349625 
L 465.751611 96.38357 
" style="fill:none;opacity:0.1;stroke:#808080;stroke-linecap:round;stroke-width:1.5;"/>
   </g>
   <g id="line2d_96">
    <path clip-path="url(#pf2e4fd324d)" d="M 86.295634 261.640539 
L 133.727631 209.656539 
L 181.159628 198.454415 
L 228.591625 179.152296 
L 276.023622 158.069101 
L 323.455619 143.823711 
L 370.887616 141.352269 
L 418.319613 164.091117 
L 465.751611 197.748507 
" style="fill:none;opacity:0.1;stroke:#808080;stroke-dasharray:5.55,2.4;stroke-dashoffset:0;stroke-width:1.5;"/>
   </g>
   <g id="line2d_97">
    <path clip-path="url(#pf2e4fd324d)" d="M 86.295634 158.845495 
L 133.727631 104.473196 
L 181.159628 95.456143 
L 228.591625 77.420578 
L 276.023622 61.127193 
L 323.455619 51.069357 
L 370.887616 49.923398 
L 418.319613 67.928162 
L 465.751611 96.14423 
" style="fill:none;opacity:0.1;stroke:#808080;stroke-linecap:round;stroke-width:1.5;"/>
   </g>
   <g id="line2d_98">
    <path clip-path="url(#pf2e4fd324d)" d="M 86.295634 259.044229 
L 133.727631 206.752821 
L 181.159628 196.695954 
L 228.591625 175.398423 
L 276.023622 154.802943 
L 323.455619 141.447278 
L 370.887616 139.894467 
L 418.319613 163.556053 
L 465.751611 197.477275 
" style="fill:none;opacity:0.1;stroke:#808080;stroke-dasharray:5.55,2.4;stroke-dashoffset:0;stroke-width:1.5;"/>
   </g>
   <g id="line2d_99">
    <path clip-path="url(#pf2e4fd324d)" d="M 86.295634 158.893775 
L 133.727631 104.791757 
L 181.159628 96.176688 
L 228.591625 77.681655 
L 276.023622 61.273221 
L 323.455619 51.097823 
L 370.887616 49.943762 
L 418.319613 67.928277 
L 465.751611 96.143137 
" style="fill:none;opacity:0.1;stroke:#808080;stroke-linecap:round;stroke-width:1.5;"/>
   </g>
   <g id="line2d_100">
    <path clip-path="url(#pf2e4fd324d)" d="M 86.295634 259.084295 
L 133.727631 207.100912 
L 181.159628 197.514074 
L 228.591625 175.717963 
L 276.023622 154.99324 
L 323.455619 141.485769 
L 370.887616 139.922116 
L 418.319613 163.5562 
L 465.751611 197.476036 
" style="fill:none;opacity:0.1;stroke:#808080;stroke-dasharray:5.55,2.4;stroke-dashoffset:0;stroke-width:1.5;"/>
   </g>
   <g id="line2d_101">
    <path clip-path="url(#pf2e4fd324d)" d="M 86.295634 158.890193 
L 133.727631 104.794832 
L 181.159628 96.178691 
L 228.591625 77.680646 
L 276.023622 61.271506 
L 323.455619 51.100316 
L 370.887616 49.94671 
L 418.319613 67.919174 
L 465.751611 96.144245 
" style="fill:none;opacity:0.1;stroke:#808080;stroke-linecap:round;stroke-width:1.5;"/>
   </g>
   <g id="line2d_102">
    <path clip-path="url(#pf2e4fd324d)" d="M 86.295634 259.081322 
L 133.727631 207.10427 
L 181.159628 197.516344 
L 228.591625 175.716729 
L 276.023622 154.991006 
L 323.455619 141.48914 
L 370.887616 139.926118 
L 418.319613 163.544633 
L 465.751611 197.477292 
" style="fill:none;opacity:0.1;stroke:#808080;stroke-dasharray:5.55,2.4;stroke-dashoffset:0;stroke-width:1.5;"/>
   </g>
   <g id="line2d_103">
    <path clip-path="url(#pf2e4fd324d)" d="M 86.295634 158.698837 
L 133.727631 104.396628 
L 181.159628 95.315085 
L 228.591625 77.083293 
L 276.023622 60.953985 
L 323.455619 50.976316 
L 370.887616 49.775488 
L 418.319613 68.041208 
L 465.751611 96.193 
" style="fill:none;opacity:0.1;stroke:#808080;stroke-linecap:round;stroke-width:1.5;"/>
   </g>
   <g id="line2d_104">
    <path clip-path="url(#pf2e4fd324d)" d="M 86.295634 258.922452 
L 133.727631 206.669083 
L 181.159628 196.535499 
L 228.591625 174.985121 
L 276.023622 154.57709 
L 323.455619 141.321442 
L 370.887616 139.69358 
L 418.319613 163.699654 
L 465.751611 197.532566 
" style="fill:none;opacity:0.1;stroke:#808080;stroke-dasharray:5.55,2.4;stroke-dashoffset:0;stroke-width:1.5;"/>
   </g>
   <g id="line2d_105">
    <path clip-path="url(#pf2e4fd324d)" d="M 86.295634 158.672259 
L 133.727631 104.749852 
L 181.159628 96.31192 
L 228.591625 77.339347 
L 276.023622 61.110328 
L 323.455619 51.062729 
L 370.887616 49.797294 
L 418.319613 68.04133 
L 465.751611 96.191442 
" style="fill:none;opacity:0.1;stroke:#808080;stroke-linecap:round;stroke-width:1.5;"/>
   </g>
   <g id="line2d_106">
    <path clip-path="url(#pf2e4fd324d)" d="M 86.295634 258.900372 
L 133.727631 207.055151 
L 181.159628 197.667339 
L 228.591625 175.298935 
L 276.023622 154.780957 
L 323.455619 141.438315 
L 370.887616 139.723202 
L 418.319613 163.699809 
L 465.751611 197.5308 
" style="fill:none;opacity:0.1;stroke:#808080;stroke-dasharray:5.55,2.4;stroke-dashoffset:0;stroke-width:1.5;"/>
   </g>
   <g id="patch_3">
    <path d="M 67.322835 279.035433 
L 67.322835 38.267717 
" style="fill:none;stroke:#cccccc;stroke-linecap:square;stroke-linejoin:miter;"/>
   </g>
   <g id="patch_4">
    <path d="M 484.724409 279.035433 
L 484.724409 38.267717 
" style="fill:none;stroke:#cccccc;stroke-linecap:square;stroke-linejoin:miter;"/>
   </g>
   <g id="patch_5">
    <path d="M 67.322835 279.035433 
L 484.724409 279.035433 
" style="fill:none;stroke:#cccccc;stroke-linecap:square;stroke-linejoin:miter;"/>
   </g>
   <g id="patch_6">
    <path d="M 67.322835 38.267717 
L 484.724409 38.267717 
" style="fill:none;stroke:#cccccc;stroke-linecap:square;stroke-linejoin:miter;"/>
   </g>
  </g>
 </g>
 <defs>
  <clipPath id="pf2e4fd324d">
   <rect height="240.767717" width="417.401575" x="67.322835" y="38.267717"/>
  </clipPath>
 </defs>
</svg>
