<?xml version="1.0" encoding="utf-8" standalone="no"?>
<!DOCTYPE svg PUBLIC "-//W3C//DTD SVG 1.1//EN"
  "http://www.w3.org/Graphics/SVG/1.1/DTD/svg11.dtd">
<!-- Created with matplotlib (http://matplotlib.org/) -->
<svg height="212pt" version="1.1" viewBox="0 0 538 212" width="538pt" xmlns="http://www.w3.org/2000/svg" xmlns:xlink="http://www.w3.org/1999/xlink">
 <defs>
  <style type="text/css">
*{stroke-linecap:butt;stroke-linejoin:round;}
  </style>
 </defs>
 <g id="figure_1">
  <g id="patch_1">
   <path d="M 0 212.598425 
L 538.582677 212.598425 
L 538.582677 0 
L 0 0 
z
" style="fill:#ffffff;"/>
  </g>
  <g id="axes_1">
   <g id="patch_2">
    <path d="M 67.322835 186.023622 
L 484.724409 186.023622 
L 484.724409 25.511811 
L 67.322835 25.511811 
z
" style="fill:#ffffff;"/>
   </g>
   <g id="matplotlib.axis_1">
    <g id="xtick_1">
     <g id="line2d_1">
      <path clip-path="url(#p1d03e4839e)" d="M 86.295634 186.023622 
L 86.295634 25.511811 
" style="fill:none;stroke:#cccccc;stroke-linecap:round;stroke-width:0.8;"/>
     </g>
     <g id="line2d_2"/>
     <g id="text_1">
      <text style="fill:#262626;font-family:Arial;font-size:10px;font-style:normal;font-weight:400;text-anchor:middle;" transform="rotate(-0, 86.295634, 196.681435)" x="86.295634" y="196.681435">273</text>
     </g>
    </g>
    <g id="xtick_2">
     <g id="line2d_3">
      <path clip-path="url(#p1d03e4839e)" d="M 133.727631 186.023622 
L 133.727631 25.511811 
" style="fill:none;stroke:#cccccc;stroke-linecap:round;stroke-width:0.8;"/>
     </g>
     <g id="line2d_4"/>
     <g id="text_2">
      <text style="fill:#262626;font-family:Arial;font-size:10px;font-style:normal;font-weight:400;text-anchor:middle;" transform="rotate(-0, 133.727631, 196.681435)" x="133.727631" y="196.681435">278</text>
     </g>
    </g>
    <g id="xtick_3">
     <g id="line2d_5">
      <path clip-path="url(#p1d03e4839e)" d="M 181.159628 186.023622 
L 181.159628 25.511811 
" style="fill:none;stroke:#cccccc;stroke-linecap:round;stroke-width:0.8;"/>
     </g>
     <g id="line2d_6"/>
     <g id="text_3">
      <text style="fill:#262626;font-family:Arial;font-size:10px;font-style:normal;font-weight:400;text-anchor:middle;" transform="rotate(-0, 181.159628, 196.681435)" x="181.159628" y="196.681435">283</text>
     </g>
    </g>
    <g id="xtick_4">
     <g id="line2d_7">
      <path clip-path="url(#p1d03e4839e)" d="M 228.591625 186.023622 
L 228.591625 25.511811 
" style="fill:none;stroke:#cccccc;stroke-linecap:round;stroke-width:0.8;"/>
     </g>
     <g id="line2d_8"/>
     <g id="text_4">
      <text style="fill:#262626;font-family:Arial;font-size:10px;font-style:normal;font-weight:400;text-anchor:middle;" transform="rotate(-0, 228.591625, 196.681435)" x="228.591625" y="196.681435">288</text>
     </g>
    </g>
    <g id="xtick_5">
     <g id="line2d_9">
      <path clip-path="url(#p1d03e4839e)" d="M 276.023622 186.023622 
L 276.023622 25.511811 
" style="fill:none;stroke:#cccccc;stroke-linecap:round;stroke-width:0.8;"/>
     </g>
     <g id="line2d_10"/>
     <g id="text_5">
      <text style="fill:#262626;font-family:Arial;font-size:10px;font-style:normal;font-weight:400;text-anchor:middle;" transform="rotate(-0, 276.023622, 196.681435)" x="276.023622" y="196.681435">293</text>
     </g>
    </g>
    <g id="xtick_6">
     <g id="line2d_11">
      <path clip-path="url(#p1d03e4839e)" d="M 323.455619 186.023622 
L 323.455619 25.511811 
" style="fill:none;stroke:#cccccc;stroke-linecap:round;stroke-width:0.8;"/>
     </g>
     <g id="line2d_12"/>
     <g id="text_6">
      <text style="fill:#262626;font-family:Arial;font-size:10px;font-style:normal;font-weight:400;text-anchor:middle;" transform="rotate(-0, 323.455619, 196.681435)" x="323.455619" y="196.681435">298</text>
     </g>
    </g>
    <g id="xtick_7">
     <g id="line2d_13">
      <path clip-path="url(#p1d03e4839e)" d="M 370.887616 186.023622 
L 370.887616 25.511811 
" style="fill:none;stroke:#cccccc;stroke-linecap:round;stroke-width:0.8;"/>
     </g>
     <g id="line2d_14"/>
     <g id="text_7">
      <text style="fill:#262626;font-family:Arial;font-size:10px;font-style:normal;font-weight:400;text-anchor:middle;" transform="rotate(-0, 370.887616, 196.681435)" x="370.887616" y="196.681435">303</text>
     </g>
    </g>
    <g id="xtick_8">
     <g id="line2d_15">
      <path clip-path="url(#p1d03e4839e)" d="M 418.319613 186.023622 
L 418.319613 25.511811 
" style="fill:none;stroke:#cccccc;stroke-linecap:round;stroke-width:0.8;"/>
     </g>
     <g id="line2d_16"/>
     <g id="text_8">
      <text style="fill:#262626;font-family:Arial;font-size:10px;font-style:normal;font-weight:400;text-anchor:middle;" transform="rotate(-0, 418.319613, 196.681435)" x="418.319613" y="196.681435">308</text>
     </g>
    </g>
    <g id="xtick_9">
     <g id="line2d_17">
      <path clip-path="url(#p1d03e4839e)" d="M 465.751611 186.023622 
L 465.751611 25.511811 
" style="fill:none;stroke:#cccccc;stroke-linecap:round;stroke-width:0.8;"/>
     </g>
     <g id="line2d_18"/>
     <g id="text_9">
      <text style="fill:#262626;font-family:Arial;font-size:10px;font-style:normal;font-weight:400;text-anchor:middle;" transform="rotate(-0, 465.751611, 196.681435)" x="465.751611" y="196.681435">313</text>
     </g>
    </g>
    <g id="text_10">
     <text style="fill:#262626;font-family:Arial;font-size:10px;font-style:normal;font-weight:400;text-anchor:middle;" transform="rotate(-0, 276.023622, 209.948622)" x="276.023622" y="209.948622">T_{amb} [K]</text>
    </g>
   </g>
   <g id="matplotlib.axis_2">
    <g id="ytick_1">
     <g id="line2d_19">
      <path clip-path="url(#p1d03e4839e)" d="M 67.322835 172.593316 
L 484.724409 172.593316 
" style="fill:none;stroke:#cccccc;stroke-linecap:round;stroke-width:0.8;"/>
     </g>
     <g id="line2d_20"/>
     <g id="text_11">
      <text style="fill:#262626;font-family:Arial;font-size:10px;font-style:normal;font-weight:400;text-anchor:end;" transform="rotate(-0, 63.822835, 176.172222)" x="63.822835" y="176.172222">0.40</text>
     </g>
    </g>
    <g id="ytick_2">
     <g id="line2d_21">
      <path clip-path="url(#p1d03e4839e)" d="M 67.322835 147.687556 
L 484.724409 147.687556 
" style="fill:none;stroke:#cccccc;stroke-linecap:round;stroke-width:0.8;"/>
     </g>
     <g id="line2d_22"/>
     <g id="text_12">
      <text style="fill:#262626;font-family:Arial;font-size:10px;font-style:normal;font-weight:400;text-anchor:end;" transform="rotate(-0, 63.822835, 151.266462)" x="63.822835" y="151.266462">0.45</text>
     </g>
    </g>
    <g id="ytick_3">
     <g id="line2d_23">
      <path clip-path="url(#p1d03e4839e)" d="M 67.322835 122.781796 
L 484.724409 122.781796 
" style="fill:none;stroke:#cccccc;stroke-linecap:round;stroke-width:0.8;"/>
     </g>
     <g id="line2d_24"/>
     <g id="text_13">
      <text style="fill:#262626;font-family:Arial;font-size:10px;font-style:normal;font-weight:400;text-anchor:end;" transform="rotate(-0, 63.822835, 126.360702)" x="63.822835" y="126.360702">0.50</text>
     </g>
    </g>
    <g id="ytick_4">
     <g id="line2d_25">
      <path clip-path="url(#p1d03e4839e)" d="M 67.322835 97.876036 
L 484.724409 97.876036 
" style="fill:none;stroke:#cccccc;stroke-linecap:round;stroke-width:0.8;"/>
     </g>
     <g id="line2d_26"/>
     <g id="text_14">
      <text style="fill:#262626;font-family:Arial;font-size:10px;font-style:normal;font-weight:400;text-anchor:end;" transform="rotate(-0, 63.822835, 101.454942)" x="63.822835" y="101.454942">0.55</text>
     </g>
    </g>
    <g id="ytick_5">
     <g id="line2d_27">
      <path clip-path="url(#p1d03e4839e)" d="M 67.322835 72.970276 
L 484.724409 72.970276 
" style="fill:none;stroke:#cccccc;stroke-linecap:round;stroke-width:0.8;"/>
     </g>
     <g id="line2d_28"/>
     <g id="text_15">
      <text style="fill:#262626;font-family:Arial;font-size:10px;font-style:normal;font-weight:400;text-anchor:end;" transform="rotate(-0, 63.822835, 76.549183)" x="63.822835" y="76.549183">0.60</text>
     </g>
    </g>
    <g id="ytick_6">
     <g id="line2d_29">
      <path clip-path="url(#p1d03e4839e)" d="M 67.322835 48.064516 
L 484.724409 48.064516 
" style="fill:none;stroke:#cccccc;stroke-linecap:round;stroke-width:0.8;"/>
     </g>
     <g id="line2d_30"/>
     <g id="text_16">
      <text style="fill:#262626;font-family:Arial;font-size:10px;font-style:normal;font-weight:400;text-anchor:end;" transform="rotate(-0, 63.822835, 51.643423)" x="63.822835" y="51.643423">0.65</text>
     </g>
    </g>
    <g id="text_17">
     <text style="fill:#262626;font-family:Arial;font-size:10px;font-style:normal;font-weight:400;text-anchor:middle;" transform="rotate(-90, 38.374397, 105.767717)" x="38.374397" y="105.767717">\Delta_D</text>
    </g>
   </g>
   <g id="line2d_31">
    <path clip-path="url(#p1d03e4839e)" d="M 86.295634 170.597956 
L 133.727631 103.30789 
L 181.159628 91.013267 
L 228.591625 74.813056 
L 276.023622 56.044005 
L 323.455619 47.966573 
L 370.887616 49.060495 
L 418.319613 71.659952 
L 465.751611 105.606449 
" style="fill:none;opacity:0.1;stroke:#808080;stroke-linecap:round;stroke-width:1.5;"/>
   </g>
   <g id="line2d_32">
    <path clip-path="url(#p1d03e4839e)" d="M 86.295634 170.514622 
L 133.727631 103.041676 
L 181.159628 90.614761 
L 228.591625 74.582907 
L 276.023622 55.930702 
L 323.455619 48.001993 
L 370.887616 49.191789 
L 418.319613 71.852844 
L 465.751611 105.875915 
" style="fill:none;opacity:0.1;stroke:#808080;stroke-linecap:round;stroke-width:1.5;"/>
   </g>
   <g id="line2d_33">
    <path clip-path="url(#p1d03e4839e)" d="M 86.295634 170.568119 
L 133.727631 103.750803 
L 181.159628 91.669319 
L 228.591625 75.588474 
L 276.023622 57.240112 
L 323.455619 49.151727 
L 370.887616 49.770647 
L 418.319613 72.04989 
L 465.751611 105.911032 
" style="fill:none;opacity:0.1;stroke:#808080;stroke-linecap:round;stroke-width:1.5;"/>
   </g>
   <g id="line2d_34">
    <path clip-path="url(#p1d03e4839e)" d="M 86.295634 178.422993 
L 133.727631 108.735169 
L 181.159628 93.100666 
L 228.591625 77.603598 
L 276.023622 57.963119 
L 323.455619 49.290507 
L 370.887616 49.860901 
L 418.319613 72.129055 
L 465.751611 105.969232 
" style="fill:none;opacity:0.1;stroke:#808080;stroke-linecap:round;stroke-width:1.5;"/>
   </g>
   <g id="line2d_35">
    <path clip-path="url(#p1d03e4839e)" d="M 86.295634 178.149417 
L 133.727631 108.723741 
L 181.159628 93.091724 
L 228.591625 77.714054 
L 276.023622 58.261206 
L 323.455619 49.811475 
L 370.887616 50.397735 
L 418.319613 72.42894 
L 465.751611 106.182676 
" style="fill:none;opacity:0.1;stroke:#808080;stroke-linecap:round;stroke-width:1.5;"/>
   </g>
   <g id="line2d_36">
    <path clip-path="url(#p1d03e4839e)" d="M 86.295634 178.727071 
L 133.727631 111.214301 
L 181.159628 95.419876 
L 228.591625 79.726162 
L 276.023622 59.572144 
L 323.455619 50.33729 
L 370.887616 50.442196 
L 418.319613 72.433577 
L 465.751611 106.178851 
" style="fill:none;opacity:0.1;stroke:#808080;stroke-linecap:round;stroke-width:1.5;"/>
   </g>
   <g id="line2d_37">
    <path clip-path="url(#p1d03e4839e)" d="M 86.295634 173.314427 
L 133.727631 105.292243 
L 181.159628 91.497096 
L 228.591625 75.90894 
L 276.023622 56.713508 
L 323.455619 48.33702 
L 370.887616 49.238999 
L 418.319613 71.731128 
L 465.751611 105.64501 
" style="fill:none;opacity:0.1;stroke:#808080;stroke-linecap:round;stroke-width:1.5;"/>
   </g>
   <g id="line2d_38">
    <path clip-path="url(#p1d03e4839e)" d="M 86.295634 173.155664 
L 133.727631 105.041686 
L 181.159628 91.192001 
L 228.591625 75.731485 
L 276.023622 56.69456 
L 323.455619 48.473196 
L 370.887616 49.479517 
L 418.319613 72.024532 
L 465.751611 105.936972 
" style="fill:none;opacity:0.1;stroke:#808080;stroke-linecap:round;stroke-width:1.5;"/>
   </g>
   <g id="line2d_39">
    <path clip-path="url(#p1d03e4839e)" d="M 86.295634 173.287695 
L 133.727631 106.243216 
L 181.159628 92.659838 
L 228.591625 77.350044 
L 276.023622 58.320623 
L 323.455619 49.571478 
L 370.887616 49.946472 
L 418.319613 72.1149 
L 465.751611 105.933682 
" style="fill:none;stroke:#be1e3c;stroke-linecap:round;stroke-width:1.5;"/>
   </g>
   <g id="line2d_40">
    <path clip-path="url(#p1d03e4839e)" d="M 86.295634 170.594029 
L 133.727631 103.309375 
L 181.159628 91.012605 
L 228.591625 74.813774 
L 276.023622 56.04514 
L 323.455619 47.964772 
L 370.887616 49.059709 
L 418.319613 71.659143 
L 465.751611 105.604406 
" style="fill:none;opacity:0.1;stroke:#808080;stroke-linecap:round;stroke-width:1.5;"/>
   </g>
   <g id="line2d_41">
    <path clip-path="url(#p1d03e4839e)" d="M 86.295634 170.511033 
L 133.727631 103.04119 
L 181.159628 90.614079 
L 228.591625 74.582335 
L 276.023622 55.930616 
L 323.455619 48.000872 
L 370.887616 49.18919 
L 418.319613 71.850323 
L 465.751611 105.873444 
" style="fill:none;opacity:0.1;stroke:#808080;stroke-linecap:round;stroke-width:1.5;"/>
   </g>
   <g id="line2d_42">
    <path clip-path="url(#p1d03e4839e)" d="M 86.295634 170.561151 
L 133.727631 103.749371 
L 181.159628 91.6685 
L 228.591625 75.593972 
L 276.023622 57.239813 
L 323.455619 49.151065 
L 370.887616 49.76638 
L 418.319613 72.049005 
L 465.751611 105.910587 
" style="fill:none;opacity:0.1;stroke:#808080;stroke-linecap:round;stroke-width:1.5;"/>
   </g>
   <g id="line2d_43">
    <path clip-path="url(#p1d03e4839e)" d="M 86.295634 178.422573 
L 133.727631 108.734354 
L 181.159628 93.099515 
L 228.591625 77.601633 
L 276.023622 57.959358 
L 323.455619 49.289278 
L 370.887616 49.85878 
L 418.319613 72.127196 
L 465.751611 105.967743 
" style="fill:none;opacity:0.1;stroke:#808080;stroke-linecap:round;stroke-width:1.5;"/>
   </g>
   <g id="line2d_44">
    <path clip-path="url(#p1d03e4839e)" d="M 86.295634 178.148979 
L 133.727631 108.723782 
L 181.159628 93.090758 
L 228.591625 77.714906 
L 276.023622 58.26202 
L 323.455619 49.809189 
L 370.887616 50.395142 
L 418.319613 72.43061 
L 465.751611 106.177266 
" style="fill:none;opacity:0.1;stroke:#808080;stroke-linecap:round;stroke-width:1.5;"/>
   </g>
   <g id="line2d_45">
    <path clip-path="url(#p1d03e4839e)" d="M 86.295634 178.727631 
L 133.727631 111.213698 
L 181.159628 95.418808 
L 228.591625 79.725603 
L 276.023622 59.569088 
L 323.455619 50.335016 
L 370.887616 50.439141 
L 418.319613 72.426371 
L 465.751611 106.182148 
" style="fill:none;opacity:0.1;stroke:#808080;stroke-linecap:round;stroke-width:1.5;"/>
   </g>
   <g id="line2d_46">
    <path clip-path="url(#p1d03e4839e)" d="M 86.295634 173.312887 
L 133.727631 105.292446 
L 181.159628 91.495419 
L 228.591625 75.907525 
L 276.023622 56.713662 
L 323.455619 48.33609 
L 370.887616 49.238531 
L 418.319613 71.730295 
L 465.751611 105.641846 
" style="fill:none;opacity:0.1;stroke:#808080;stroke-linecap:round;stroke-width:1.5;"/>
   </g>
   <g id="line2d_47">
    <path clip-path="url(#p1d03e4839e)" d="M 86.295634 173.155988 
L 133.727631 105.04323 
L 181.159628 91.189676 
L 228.591625 75.730699 
L 276.023622 56.694206 
L 323.455619 48.468107 
L 370.887616 49.476432 
L 418.319613 72.020366 
L 465.751611 105.935231 
" style="fill:none;opacity:0.1;stroke:#808080;stroke-linecap:round;stroke-width:1.5;"/>
   </g>
   <g id="line2d_48">
    <path clip-path="url(#p1d03e4839e)" d="M 86.295634 173.295587 
L 133.727631 106.238204 
L 181.159628 92.658461 
L 228.591625 77.348838 
L 276.023622 58.320068 
L 323.455619 49.568707 
L 370.887616 49.943355 
L 418.319613 72.113573 
L 465.751611 105.931835 
" style="fill:none;opacity:0.1;stroke:#808080;stroke-linecap:round;stroke-width:1.5;"/>
   </g>
   <g id="line2d_49">
    <path clip-path="url(#p1d03e4839e)" d="M 86.295634 170.598648 
L 133.727631 103.30627 
L 181.159628 91.01218 
L 228.591625 74.814225 
L 276.023622 56.042826 
L 323.455619 47.963344 
L 370.887616 49.05598 
L 418.319613 71.655877 
L 465.751611 105.603715 
" style="fill:none;opacity:0.1;stroke:#808080;stroke-linecap:round;stroke-width:1.5;"/>
   </g>
   <g id="line2d_50">
    <path clip-path="url(#p1d03e4839e)" d="M 86.295634 170.507294 
L 133.727631 103.04219 
L 181.159628 90.61452 
L 228.591625 74.582051 
L 276.023622 55.931024 
L 323.455619 47.999392 
L 370.887616 49.188359 
L 418.319613 71.844334 
L 465.751611 105.872674 
" style="fill:none;opacity:0.1;stroke:#808080;stroke-linecap:round;stroke-width:1.5;"/>
   </g>
   <g id="line2d_51">
    <path clip-path="url(#p1d03e4839e)" d="M 86.295634 170.567224 
L 133.727631 103.746759 
L 181.159628 91.668043 
L 228.591625 75.592822 
L 276.023622 57.237547 
L 323.455619 49.149028 
L 370.887616 49.767915 
L 418.319613 72.047253 
L 465.751611 105.907612 
" style="fill:none;opacity:0.1;stroke:#808080;stroke-linecap:round;stroke-width:1.5;"/>
   </g>
   <g id="line2d_52">
    <path clip-path="url(#p1d03e4839e)" d="M 86.295634 167.886644 
L 133.727631 102.645615 
L 181.159628 90.281832 
L 228.591625 70.574204 
L 276.023622 50.227479 
L 323.455619 37.17572 
L 370.887616 34.920944 
L 418.319613 55.906625 
L 465.751611 89.739757 
" style="fill:none;opacity:0.1;stroke:#808080;stroke-linecap:round;stroke-width:1.5;"/>
   </g>
   <g id="line2d_53">
    <path clip-path="url(#p1d03e4839e)" d="M 86.295634 168.929486 
L 133.727631 102.726824 
L 181.159628 90.492356 
L 228.591625 70.574507 
L 276.023622 50.225668 
L 323.455619 37.17661 
L 370.887616 35.363275 
L 418.319613 55.903904 
L 465.751611 89.741011 
" style="fill:none;opacity:0.1;stroke:#808080;stroke-linecap:round;stroke-width:1.5;"/>
   </g>
   <g id="line2d_54">
    <path clip-path="url(#p1d03e4839e)" d="M 86.295634 168.916298 
L 133.727631 102.727862 
L 181.159628 90.492665 
L 228.591625 70.576643 
L 276.023622 50.225748 
L 323.455619 37.174902 
L 370.887616 34.946274 
L 418.319613 55.897413 
L 465.751611 89.739509 
" style="fill:none;opacity:0.1;stroke:#808080;stroke-linecap:round;stroke-width:1.5;"/>
   </g>
   <g id="line2d_55">
    <path clip-path="url(#p1d03e4839e)" d="M 86.295634 165.125426 
L 133.727631 99.501896 
L 181.159628 88.619155 
L 228.591625 66.847353 
L 276.023622 47.19154 
L 323.455619 35.048721 
L 370.887616 32.830088 
L 418.319613 55.397218 
L 465.751611 89.449625 
" style="fill:none;opacity:0.1;stroke:#808080;stroke-linecap:round;stroke-width:1.5;"/>
   </g>
   <g id="line2d_56">
    <path clip-path="url(#p1d03e4839e)" d="M 86.295634 165.177029 
L 133.727631 99.894994 
L 181.159628 89.492804 
L 228.591625 67.17002 
L 276.023622 47.36357 
L 323.455619 35.084116 
L 370.887616 32.807802 
L 418.319613 55.396895 
L 465.751611 89.449646 
" style="fill:none;opacity:0.1;stroke:#808080;stroke-linecap:round;stroke-width:1.5;"/>
   </g>
   <g id="line2d_57">
    <path clip-path="url(#p1d03e4839e)" d="M 86.295634 165.178868 
L 133.727631 99.886898 
L 181.159628 89.492229 
L 228.591625 67.168099 
L 276.023622 47.362569 
L 323.455619 35.088064 
L 370.887616 33.79273 
L 418.319613 55.394119 
L 465.751611 89.449234 
" style="fill:none;opacity:0.1;stroke:#808080;stroke-linecap:round;stroke-width:1.5;"/>
   </g>
   <g id="line2d_58">
    <path clip-path="url(#p1d03e4839e)" d="M 86.295634 164.954628 
L 133.727631 99.411266 
L 181.159628 88.450913 
L 228.591625 66.438917 
L 276.023622 46.976286 
L 323.455619 34.937923 
L 370.887616 33.259935 
L 418.319613 55.532449 
L 465.751611 89.509118 
" style="fill:none;opacity:0.1;stroke:#808080;stroke-linecap:round;stroke-width:1.5;"/>
   </g>
   <g id="line2d_59">
    <path clip-path="url(#p1d03e4839e)" d="M 86.295634 164.909591 
L 133.727631 99.829659 
L 181.159628 89.652527 
L 228.591625 66.756448 
L 276.023622 47.163649 
L 323.455619 35.039798 
L 370.887616 33.289772 
L 418.319613 55.533283 
L 465.751611 89.508628 
" style="fill:none;opacity:0.1;stroke:#808080;stroke-linecap:round;stroke-width:1.5;"/>
   </g>
   <g id="line2d_60">
    <path clip-path="url(#p1d03e4839e)" d="M 86.295634 164.879892 
L 133.727631 99.830629 
L 181.159628 89.653351 
L 228.591625 66.763308 
L 276.023622 47.165603 
L 323.455619 35.042298 
L 370.887616 34.422663 
L 418.319613 55.532952 
L 465.751611 89.508892 
" style="fill:none;opacity:0.1;stroke:#808080;stroke-linecap:round;stroke-width:1.5;"/>
   </g>
   <g id="line2d_61">
    <path clip-path="url(#p1d03e4839e)" d="M 86.295634 167.888563 
L 133.727631 102.645634 
L 181.159628 90.28079 
L 228.591625 70.575288 
L 276.023622 50.225177 
L 323.455619 37.175835 
L 370.887616 34.968933 
L 418.319613 55.905297 
L 465.751611 89.739335 
" style="fill:none;opacity:0.1;stroke:#808080;stroke-linecap:round;stroke-width:1.5;"/>
   </g>
   <g id="line2d_62">
    <path clip-path="url(#p1d03e4839e)" d="M 86.295634 168.91899 
L 133.727631 102.725413 
L 181.159628 90.492782 
L 228.591625 70.575245 
L 276.023622 50.224915 
L 323.455619 37.178004 
L 370.887616 34.969036 
L 418.319613 55.904438 
L 465.751611 89.739189 
" style="fill:none;opacity:0.1;stroke:#808080;stroke-linecap:round;stroke-width:1.5;"/>
   </g>
   <g id="line2d_63">
    <path clip-path="url(#p1d03e4839e)" d="M 86.295634 168.934821 
L 133.727631 102.726679 
L 181.159628 90.492508 
L 228.591625 70.575413 
L 276.023622 50.226835 
L 323.455619 37.177498 
L 370.887616 34.965012 
L 418.319613 55.905282 
L 465.751611 89.739336 
" style="fill:none;opacity:0.1;stroke:#808080;stroke-linecap:round;stroke-width:1.5;"/>
   </g>
   <g id="line2d_64">
    <path clip-path="url(#p1d03e4839e)" d="M 86.295634 165.124378 
L 133.727631 99.502672 
L 181.159628 88.620028 
L 228.591625 66.852978 
L 276.023622 47.188558 
L 323.455619 35.049797 
L 370.887616 33.666744 
L 418.319613 55.396619 
L 465.751611 89.450478 
" style="fill:none;opacity:0.1;stroke:#808080;stroke-linecap:round;stroke-width:1.5;"/>
   </g>
   <g id="line2d_65">
    <path clip-path="url(#p1d03e4839e)" d="M 86.295634 165.182648 
L 133.727631 99.887142 
L 181.159628 89.489651 
L 228.591625 67.168071 
L 276.023622 47.364799 
L 323.455619 35.084152 
L 370.887616 33.691321 
L 418.319613 55.396759 
L 465.751611 89.449158 
" style="fill:none;opacity:0.1;stroke:#808080;stroke-linecap:round;stroke-width:1.5;"/>
   </g>
   <g id="line2d_66">
    <path clip-path="url(#p1d03e4839e)" d="M 86.295634 165.178324 
L 133.727631 99.890853 
L 181.159628 89.492068 
L 228.591625 67.166853 
L 276.023622 47.362728 
L 323.455619 35.087161 
L 370.887616 33.694879 
L 418.319613 55.385772 
L 465.751611 89.450496 
" style="fill:none;opacity:0.1;stroke:#808080;stroke-linecap:round;stroke-width:1.5;"/>
   </g>
   <g id="line2d_67">
    <path clip-path="url(#p1d03e4839e)" d="M 86.295634 164.947377 
L 133.727631 99.410263 
L 181.159628 88.449785 
L 228.591625 66.44591 
L 276.023622 46.979514 
L 323.455619 34.937506 
L 370.887616 33.488232 
L 418.319613 55.533054 
L 465.751611 89.509338 
" style="fill:none;opacity:0.1;stroke:#808080;stroke-linecap:round;stroke-width:1.5;"/>
   </g>
   <g id="line2d_68">
    <path clip-path="url(#p1d03e4839e)" d="M 86.295634 164.915301 
L 133.727631 99.836567 
L 181.159628 89.652862 
L 228.591625 66.75494 
L 276.023622 47.168203 
L 323.455619 35.041798 
L 370.887616 33.514549 
L 418.319613 55.533201 
L 465.751611 89.507457 
" style="fill:none;opacity:0.1;stroke:#808080;stroke-linecap:round;stroke-width:1.5;"/>
   </g>
   <g id="patch_3">
    <path d="M 67.322835 186.023622 
L 67.322835 25.511811 
" style="fill:none;stroke:#cccccc;stroke-linecap:square;stroke-linejoin:miter;"/>
   </g>
   <g id="patch_4">
    <path d="M 484.724409 186.023622 
L 484.724409 25.511811 
" style="fill:none;stroke:#cccccc;stroke-linecap:square;stroke-linejoin:miter;"/>
   </g>
   <g id="patch_5">
    <path d="M 67.322835 186.023622 
L 484.724409 186.023622 
" style="fill:none;stroke:#cccccc;stroke-linecap:square;stroke-linejoin:miter;"/>
   </g>
   <g id="patch_6">
    <path d="M 67.322835 25.511811 
L 484.724409 25.511811 
" style="fill:none;stroke:#cccccc;stroke-linecap:square;stroke-linejoin:miter;"/>
   </g>
  </g>
 </g>
 <defs>
  <clipPath id="p1d03e4839e">
   <rect height="160.511811" width="417.401575" x="67.322835" y="25.511811"/>
  </clipPath>
 </defs>
</svg>
