<?xml version="1.0" encoding="utf-8" standalone="no"?>
<!DOCTYPE svg PUBLIC "-//W3C//DTD SVG 1.1//EN"
  "http://www.w3.org/Graphics/SVG/1.1/DTD/svg11.dtd">
<!-- Created with matplotlib (http://matplotlib.org/) -->
<svg height="425pt" version="1.1" viewBox="0 0 538 425" width="538pt" xmlns="http://www.w3.org/2000/svg" xmlns:xlink="http://www.w3.org/1999/xlink">
 <defs>
  <style type="text/css">
*{stroke-linecap:butt;stroke-linejoin:round;}
  </style>
 </defs>
 <g id="figure_1">
  <g id="patch_1">
   <path d="M 0 425.19685 
L 538.582677 425.19685 
L 538.582677 0 
L 0 0 
z
" style="fill:#ffffff;"/>
  </g>
  <g id="axes_1">
   <g id="patch_2">
    <path d="M 67.322835 196.94345 
L 484.724409 196.94345 
L 484.724409 51.023622 
L 67.322835 51.023622 
z
" style="fill:#ffffff;"/>
   </g>
   <g id="matplotlib.axis_1">
    <g id="xtick_1">
     <g id="line2d_1">
      <path clip-path="url(#p71d9563d35)" d="M 86.295634 196.94345 
L 86.295634 51.023622 
" style="fill:none;stroke:#cccccc;stroke-linecap:round;stroke-width:0.8;"/>
     </g>
     <g id="line2d_2"/>
    </g>
    <g id="xtick_2">
     <g id="line2d_3">
      <path clip-path="url(#p71d9563d35)" d="M 133.727631 196.94345 
L 133.727631 51.023622 
" style="fill:none;stroke:#cccccc;stroke-linecap:round;stroke-width:0.8;"/>
     </g>
     <g id="line2d_4"/>
    </g>
    <g id="xtick_3">
     <g id="line2d_5">
      <path clip-path="url(#p71d9563d35)" d="M 181.159628 196.94345 
L 181.159628 51.023622 
" style="fill:none;stroke:#cccccc;stroke-linecap:round;stroke-width:0.8;"/>
     </g>
     <g id="line2d_6"/>
    </g>
    <g id="xtick_4">
     <g id="line2d_7">
      <path clip-path="url(#p71d9563d35)" d="M 228.591625 196.94345 
L 228.591625 51.023622 
" style="fill:none;stroke:#cccccc;stroke-linecap:round;stroke-width:0.8;"/>
     </g>
     <g id="line2d_8"/>
    </g>
    <g id="xtick_5">
     <g id="line2d_9">
      <path clip-path="url(#p71d9563d35)" d="M 276.023622 196.94345 
L 276.023622 51.023622 
" style="fill:none;stroke:#cccccc;stroke-linecap:round;stroke-width:0.8;"/>
     </g>
     <g id="line2d_10"/>
    </g>
    <g id="xtick_6">
     <g id="line2d_11">
      <path clip-path="url(#p71d9563d35)" d="M 323.455619 196.94345 
L 323.455619 51.023622 
" style="fill:none;stroke:#cccccc;stroke-linecap:round;stroke-width:0.8;"/>
     </g>
     <g id="line2d_12"/>
    </g>
    <g id="xtick_7">
     <g id="line2d_13">
      <path clip-path="url(#p71d9563d35)" d="M 370.887616 196.94345 
L 370.887616 51.023622 
" style="fill:none;stroke:#cccccc;stroke-linecap:round;stroke-width:0.8;"/>
     </g>
     <g id="line2d_14"/>
    </g>
    <g id="xtick_8">
     <g id="line2d_15">
      <path clip-path="url(#p71d9563d35)" d="M 418.319613 196.94345 
L 418.319613 51.023622 
" style="fill:none;stroke:#cccccc;stroke-linecap:round;stroke-width:0.8;"/>
     </g>
     <g id="line2d_16"/>
    </g>
    <g id="xtick_9">
     <g id="line2d_17">
      <path clip-path="url(#p71d9563d35)" d="M 465.751611 196.94345 
L 465.751611 51.023622 
" style="fill:none;stroke:#cccccc;stroke-linecap:round;stroke-width:0.8;"/>
     </g>
     <g id="line2d_18"/>
    </g>
   </g>
   <g id="matplotlib.axis_2">
    <g id="ytick_1">
     <g id="line2d_19">
      <path clip-path="url(#p71d9563d35)" d="M 67.322835 167.133619 
L 484.724409 167.133619 
" style="fill:none;stroke:#cccccc;stroke-linecap:round;stroke-width:0.8;"/>
     </g>
     <g id="line2d_20"/>
     <g id="text_1">
      <text style="fill:#262626;font-family:Arial;font-size:10px;font-style:normal;font-weight:400;text-anchor:end;" transform="rotate(-0, 63.822835, 170.712525)" x="63.822835" y="170.712525">0.0</text>
     </g>
    </g>
    <g id="ytick_2">
     <g id="line2d_21">
      <path clip-path="url(#p71d9563d35)" d="M 67.322835 133.743074 
L 484.724409 133.743074 
" style="fill:none;stroke:#cccccc;stroke-linecap:round;stroke-width:0.8;"/>
     </g>
     <g id="line2d_22"/>
     <g id="text_2">
      <text style="fill:#262626;font-family:Arial;font-size:10px;font-style:normal;font-weight:400;text-anchor:end;" transform="rotate(-0, 63.822835, 137.32198)" x="63.822835" y="137.32198">0.5</text>
     </g>
    </g>
    <g id="ytick_3">
     <g id="line2d_23">
      <path clip-path="url(#p71d9563d35)" d="M 67.322835 100.35253 
L 484.724409 100.35253 
" style="fill:none;stroke:#cccccc;stroke-linecap:round;stroke-width:0.8;"/>
     </g>
     <g id="line2d_24"/>
     <g id="text_3">
      <text style="fill:#262626;font-family:Arial;font-size:10px;font-style:normal;font-weight:400;text-anchor:end;" transform="rotate(-0, 63.822835, 103.931436)" x="63.822835" y="103.931436">1.0</text>
     </g>
    </g>
    <g id="ytick_4">
     <g id="line2d_25">
      <path clip-path="url(#p71d9563d35)" d="M 67.322835 66.961985 
L 484.724409 66.961985 
" style="fill:none;stroke:#cccccc;stroke-linecap:round;stroke-width:0.8;"/>
     </g>
     <g id="line2d_26"/>
     <g id="text_4">
      <text style="fill:#262626;font-family:Arial;font-size:10px;font-style:normal;font-weight:400;text-anchor:end;" transform="rotate(-0, 63.822835, 70.540892)" x="63.822835" y="70.540892">1.5</text>
     </g>
    </g>
    <g id="text_5">
     <!-- $y_1$ -->
     <g style="fill:#262626;" transform="translate(43.822835 129.333536)rotate(-90)">
      <text>
       <tspan style="font-family:DejaVu Sans;font-size:10px;font-style:oblique;font-weight:oblique;" x="0" y="-0.53125">y</tspan>
       <tspan style="font-family:DejaVu Sans;font-size:7px;font-style:book;font-weight:book;" x="5.917969" y="1.109375">1</tspan>
      </text>
     </g>
    </g>
   </g>
   <g id="line2d_27">
    <path clip-path="url(#p71d9563d35)" d="M 86.295634 167.133619 
L 86.428443 167.243179 
L 86.656117 167.814596 
L 88.022158 171.980136 
L 88.268805 172.035237 
L 88.496478 171.837033 
L 88.800043 171.216721 
L 89.217445 169.762081 
L 89.786628 166.858048 
L 90.621432 161.290099 
L 92.784331 144.685071 
L 94.302155 134.190029 
L 95.573332 126.88876 
L 96.768618 121.278767 
L 97.925959 116.88966 
L 99.064327 113.421857 
L 100.183722 110.695333 
L 101.32209 108.491746 
L 102.479431 106.723637 
L 103.674717 105.293251 
L 104.926922 104.133548 
L 106.273991 103.186003 
L 107.772842 102.407533 
L 109.480394 101.777473 
L 111.510483 101.273509 
L 114.033865 100.885276 
L 117.373078 100.609932 
L 122.419843 100.440995 
L 132.456453 100.364249 
L 221.30607 100.352442 
L 276.232323 100.242747 
L 276.535888 99.789338 
L 277.086099 98.47369 
L 278.547004 94.866026 
L 279.248998 93.753927 
L 279.856127 93.173932 
L 280.425311 92.917429 
L 281.013468 92.898423 
L 281.658543 93.110363 
L 282.455401 93.625034 
L 283.53685 94.612565 
L 285.889477 97.159931 
L 287.93854 99.208644 
L 289.532255 100.494425 
L 291.050079 101.439724 
L 292.567903 102.125956 
L 294.180591 102.608129 
L 295.945061 102.898405 
L 297.97515 103.000338 
L 300.517505 102.894368 
L 304.331038 102.48863 
L 315.031696 101.263055 
L 321.178883 100.844401 
L 328.673139 100.56906 
L 339.563525 100.413072 
L 362.84315 100.355935 
L 465.751611 100.352524 
L 465.751611 100.352524 
" style="fill:none;stroke:#000000;stroke-dasharray:3.7,1.6;stroke-dashoffset:0;"/>
   </g>
   <g id="line2d_28">
    <path clip-path="url(#p71d9563d35)" d="M 86.295634 167.133619 
L 86.485361 166.878586 
L 86.864817 165.235369 
L 87.623729 159.835563 
L 89.521009 145.655283 
L 90.659377 138.967207 
L 91.797745 133.581286 
L 92.936113 129.181672 
L 94.264209 124.949574 
L 95.592305 121.426065 
L 97.110129 118.044329 
L 98.627953 115.205883 
L 100.145777 112.813125 
L 101.663601 110.795927 
L 103.371152 108.905637 
L 105.078704 107.351692 
L 106.786256 106.07682 
L 108.683536 104.929002 
L 110.770544 103.929086 
L 113.04728 103.084757 
L 115.703472 102.348155 
L 118.73912 101.74648 
L 122.343951 101.262523 
L 126.897423 100.883923 
L 133.158447 100.606463 
L 142.644846 100.435348 
L 161.807373 100.361316 
L 276.023622 100.352551 
L 276.023622 100.352551 
L 276.21335 99.863121 
L 276.592806 97.014185 
L 277.920902 84.798701 
L 278.490086 81.443125 
L 279.05927 79.299894 
L 279.628454 78.12036 
L 280.00791 77.751462 
L 280.387366 77.643539 
L 280.766822 77.742936 
L 281.336006 78.184507 
L 282.094918 79.142858 
L 283.423014 81.326464 
L 286.648389 86.785472 
L 288.355941 89.192657 
L 290.063493 91.203926 
L 291.771045 92.862263 
L 293.478597 94.225961 
L 295.375877 95.45432 
L 297.462885 96.524066 
L 299.739621 97.427348 
L 302.206084 98.16693 
L 305.052004 98.790976 
L 308.467108 99.310043 
L 312.641124 99.716278 
L 318.143236 100.020668 
L 326.111811 100.22298 
L 340.34141 100.328334 
L 388.532319 100.352331 
L 465.751611 100.352523 
L 465.751611 100.352523 
" style="fill:none;stroke:#00709b;stroke-linecap:round;"/>
   </g>
   <g id="line2d_29">
    <path clip-path="url(#p71d9563d35)" d="M 86.295634 167.133619 
L 86.485361 167.462334 
L 86.864817 169.5196 
L 87.623729 174.661046 
L 88.003185 175.914643 
L 88.192913 175.993357 
L 88.382641 175.679585 
L 88.762097 173.899021 
L 89.141553 170.751687 
L 89.900465 161.722598 
L 91.418289 142.828925 
L 92.177201 136.350074 
L 92.936113 132.012251 
L 93.695025 129.037811 
L 96.920401 118.680891 
L 98.248497 114.868165 
L 99.386865 112.352435 
L 100.525233 110.408012 
L 101.853329 108.579112 
L 103.371152 106.840868 
L 104.888976 105.431503 
L 106.4068 104.335799 
L 108.114352 103.395569 
L 110.011632 102.607442 
L 112.288368 101.924597 
L 114.94456 101.38284 
L 118.169936 100.971844 
L 122.533679 100.660543 
L 128.604975 100.470705 
L 139.609198 100.372911 
L 176.036972 100.35268 
L 276.023622 100.352523 
L 276.023622 100.352523 
L 276.21335 99.311696 
L 276.592806 92.618335 
L 277.731174 66.757143 
L 278.11063 63.243893 
L 278.300358 62.88831 
L 278.490086 63.434086 
L 278.869542 66.934152 
L 279.438726 76.576336 
L 280.95655 105.722847 
L 281.525734 111.899636 
L 281.90519 114.093626 
L 282.284646 114.948572 
L 282.474374 114.960273 
L 282.664102 114.747441 
L 283.043558 113.810777 
L 283.992198 110.195223 
L 284.75111 107.70268 
L 285.320293 106.553593 
L 285.889477 105.991889 
L 286.458661 105.831047 
L 288.166213 105.752349 
L 288.925125 105.375971 
L 290.063493 104.479115 
L 291.581317 103.329532 
L 292.719685 102.766507 
L 294.237509 102.293221 
L 297.842341 101.453027 
L 300.498533 101.066448 
L 304.672548 100.722558 
L 310.364388 100.502566 
L 320.230243 100.383692 
L 349.82781 100.352687 
L 465.751611 100.35253 
L 465.751611 100.35253 
" style="fill:none;stroke:#be1e3c;stroke-linecap:round;"/>
   </g>
   <g id="line2d_30">
    <path clip-path="url(#p71d9563d35)" d="M 86.295634 167.133619 
L 86.485361 167.906446 
L 86.864817 172.791424 
L 87.813457 188.071243 
L 88.192913 190.310731 
L 88.382641 190.044476 
L 88.572369 188.783035 
L 88.951825 183.257593 
L 89.331281 173.983359 
L 89.900465 154.500428 
L 91.797745 81.544781 
L 92.366929 68.998568 
L 92.746385 64.61411 
L 92.936113 63.627136 
L 93.125841 63.414578 
L 93.315569 63.938095 
L 93.695025 66.984292 
L 94.264209 75.534719 
L 96.540945 117.127442 
L 96.920401 120.149468 
L 97.299857 121.429491 
L 97.489585 121.434432 
L 97.679313 121.041069 
L 98.058769 119.173783 
L 98.627953 114.230186 
L 100.714961 92.150131 
L 101.094417 90.021336 
L 101.473873 88.86018 
L 101.663601 88.643072 
L 101.853329 88.658345 
L 102.043057 88.89504 
L 102.422513 89.964865 
L 102.991696 92.745954 
L 105.078704 104.976633 
L 105.45816 106.13488 
L 105.837616 106.755296 
L 106.027344 106.864334 
L 106.217072 106.844729 
L 106.596528 106.448341 
L 106.975984 105.642584 
L 107.734896 103.21255 
L 109.062992 98.659732 
L 109.632176 97.396504 
L 110.011632 96.914387 
L 110.391088 96.731951 
L 110.770544 96.833403 
L 111.15 97.18363 
L 111.719184 98.06314 
L 113.806192 101.818265 
L 114.375376 102.271041 
L 114.754832 102.365246 
L 115.324016 102.21784 
L 115.8932 101.793113 
L 117.221296 100.346755 
L 117.980208 99.654558 
L 118.549392 99.34091 
L 119.118576 99.233806 
L 119.687759 99.321346 
L 120.446671 99.66613 
L 122.533679 100.811896 
L 123.292591 100.959855 
L 124.241231 100.877048 
L 125.569327 100.466783 
L 127.087151 100.067731 
L 128.225519 100.030416 
L 129.743343 100.256902 
L 131.640623 100.522299 
L 133.158447 100.494343 
L 137.142734 100.261293 
L 143.024302 100.3598 
L 147.00859 100.346994 
L 154.028525 100.347743 
L 223.279241 100.355441 
L 274.126342 100.348562 
L 276.023622 100.357158 
L 276.023622 100.357158 
L 276.21335 99.315506 
L 276.592806 92.543054 
L 277.920902 60.948639 
L 278.300358 57.740109 
L 278.490086 57.656342 
L 278.679814 58.592833 
L 279.05927 63.370506 
L 279.628454 76.610843 
L 281.90519 140.996922 
L 282.284646 145.097247 
L 282.474374 146.025677 
L 282.664102 146.212661 
L 282.85383 145.680324 
L 283.233286 142.611977 
L 283.612742 137.233873 
L 284.371654 121.831562 
L 285.699749 93.261526 
L 286.268933 85.080965 
L 286.648389 81.766175 
L 287.027845 80.24369 
L 287.217573 80.13389 
L 287.407301 80.432092 
L 287.786757 82.135189 
L 288.355941 86.887134 
L 290.632677 109.791073 
L 291.012133 111.417459 
L 291.391589 112.077855 
L 291.581317 112.056817 
L 291.771045 111.815926 
L 292.150501 110.739261 
L 292.719685 107.950425 
L 294.806693 95.705088 
L 295.186149 94.546234 
L 295.565605 93.926036 
L 295.755333 93.817379 
L 295.945061 93.8377 
L 296.324517 94.236054 
L 296.703973 95.044513 
L 297.462885 97.481483 
L 298.790981 102.046992 
L 299.360165 103.313831 
L 299.739621 103.797284 
L 300.119077 103.980181 
L 300.498533 103.878332 
L 300.877989 103.526968 
L 301.447173 102.644567 
L 303.53418 98.878065 
L 304.103364 98.424739 
L 304.48282 98.331433 
L 305.052004 98.48116 
L 305.621188 98.908695 
L 306.949284 100.360202 
L 307.708196 101.053908 
L 308.27738 101.367795 
L 308.846564 101.474419 
L 309.415748 101.386411 
L 310.17466 101.041567 
L 312.261668 99.887137 
L 313.02058 99.735541 
L 313.779492 99.781265 
L 314.91786 100.102885 
L 316.625412 100.613934 
L 317.76378 100.694381 
L 319.091875 100.524329 
L 321.368611 100.175797 
L 322.886435 100.204932 
L 326.870723 100.446273 
L 332.752291 100.344231 
L 336.736578 100.363333 
L 343.18733 100.361166 
L 401.433822 100.353037 
L 451.142555 100.35169 
L 465.751611 100.352053 
L 465.751611 100.352053 
" style="fill:none;stroke:#e16d00;stroke-linecap:round;"/>
   </g>
   <g id="patch_3">
    <path d="M 67.322835 196.94345 
L 67.322835 51.023622 
" style="fill:none;stroke:#cccccc;stroke-linecap:square;stroke-linejoin:miter;"/>
   </g>
   <g id="patch_4">
    <path d="M 484.724409 196.94345 
L 484.724409 51.023622 
" style="fill:none;stroke:#cccccc;stroke-linecap:square;stroke-linejoin:miter;"/>
   </g>
   <g id="patch_5">
    <path d="M 67.322835 196.94345 
L 484.724409 196.94345 
" style="fill:none;stroke:#cccccc;stroke-linecap:square;stroke-linejoin:miter;"/>
   </g>
   <g id="patch_6">
    <path d="M 67.322835 51.023622 
L 484.724409 51.023622 
" style="fill:none;stroke:#cccccc;stroke-linecap:square;stroke-linejoin:miter;"/>
   </g>
  </g>
  <g id="axes_2">
   <g id="patch_7">
    <path d="M 67.322835 372.047244 
L 484.724409 372.047244 
L 484.724409 226.127416 
L 67.322835 226.127416 
z
" style="fill:#ffffff;"/>
   </g>
   <g id="matplotlib.axis_3">
    <g id="xtick_10">
     <g id="line2d_31">
      <path clip-path="url(#pc469e824f9)" d="M 86.295634 372.047244 
L 86.295634 226.127416 
" style="fill:none;stroke:#cccccc;stroke-linecap:round;stroke-width:0.8;"/>
     </g>
     <g id="line2d_32"/>
     <g id="text_6">
      <text style="fill:#262626;font-family:Arial;font-size:10px;font-style:normal;font-weight:400;text-anchor:middle;" transform="rotate(-0, 86.295634, 382.705057)" x="86.295634" y="382.705057">0</text>
     </g>
    </g>
    <g id="xtick_11">
     <g id="line2d_33">
      <path clip-path="url(#pc469e824f9)" d="M 133.727631 372.047244 
L 133.727631 226.127416 
" style="fill:none;stroke:#cccccc;stroke-linecap:round;stroke-width:0.8;"/>
     </g>
     <g id="line2d_34"/>
     <g id="text_7">
      <text style="fill:#262626;font-family:Arial;font-size:10px;font-style:normal;font-weight:400;text-anchor:middle;" transform="rotate(-0, 133.727631, 382.705057)" x="133.727631" y="382.705057">25</text>
     </g>
    </g>
    <g id="xtick_12">
     <g id="line2d_35">
      <path clip-path="url(#pc469e824f9)" d="M 181.159628 372.047244 
L 181.159628 226.127416 
" style="fill:none;stroke:#cccccc;stroke-linecap:round;stroke-width:0.8;"/>
     </g>
     <g id="line2d_36"/>
     <g id="text_8">
      <text style="fill:#262626;font-family:Arial;font-size:10px;font-style:normal;font-weight:400;text-anchor:middle;" transform="rotate(-0, 181.159628, 382.705057)" x="181.159628" y="382.705057">50</text>
     </g>
    </g>
    <g id="xtick_13">
     <g id="line2d_37">
      <path clip-path="url(#pc469e824f9)" d="M 228.591625 372.047244 
L 228.591625 226.127416 
" style="fill:none;stroke:#cccccc;stroke-linecap:round;stroke-width:0.8;"/>
     </g>
     <g id="line2d_38"/>
     <g id="text_9">
      <text style="fill:#262626;font-family:Arial;font-size:10px;font-style:normal;font-weight:400;text-anchor:middle;" transform="rotate(-0, 228.591625, 382.705057)" x="228.591625" y="382.705057">75</text>
     </g>
    </g>
    <g id="xtick_14">
     <g id="line2d_39">
      <path clip-path="url(#pc469e824f9)" d="M 276.023622 372.047244 
L 276.023622 226.127416 
" style="fill:none;stroke:#cccccc;stroke-linecap:round;stroke-width:0.8;"/>
     </g>
     <g id="line2d_40"/>
     <g id="text_10">
      <text style="fill:#262626;font-family:Arial;font-size:10px;font-style:normal;font-weight:400;text-anchor:middle;" transform="rotate(-0, 276.023622, 382.705057)" x="276.023622" y="382.705057">100</text>
     </g>
    </g>
    <g id="xtick_15">
     <g id="line2d_41">
      <path clip-path="url(#pc469e824f9)" d="M 323.455619 372.047244 
L 323.455619 226.127416 
" style="fill:none;stroke:#cccccc;stroke-linecap:round;stroke-width:0.8;"/>
     </g>
     <g id="line2d_42"/>
     <g id="text_11">
      <text style="fill:#262626;font-family:Arial;font-size:10px;font-style:normal;font-weight:400;text-anchor:middle;" transform="rotate(-0, 323.455619, 382.705057)" x="323.455619" y="382.705057">125</text>
     </g>
    </g>
    <g id="xtick_16">
     <g id="line2d_43">
      <path clip-path="url(#pc469e824f9)" d="M 370.887616 372.047244 
L 370.887616 226.127416 
" style="fill:none;stroke:#cccccc;stroke-linecap:round;stroke-width:0.8;"/>
     </g>
     <g id="line2d_44"/>
     <g id="text_12">
      <text style="fill:#262626;font-family:Arial;font-size:10px;font-style:normal;font-weight:400;text-anchor:middle;" transform="rotate(-0, 370.887616, 382.705057)" x="370.887616" y="382.705057">150</text>
     </g>
    </g>
    <g id="xtick_17">
     <g id="line2d_45">
      <path clip-path="url(#pc469e824f9)" d="M 418.319613 372.047244 
L 418.319613 226.127416 
" style="fill:none;stroke:#cccccc;stroke-linecap:round;stroke-width:0.8;"/>
     </g>
     <g id="line2d_46"/>
     <g id="text_13">
      <text style="fill:#262626;font-family:Arial;font-size:10px;font-style:normal;font-weight:400;text-anchor:middle;" transform="rotate(-0, 418.319613, 382.705057)" x="418.319613" y="382.705057">175</text>
     </g>
    </g>
    <g id="xtick_18">
     <g id="line2d_47">
      <path clip-path="url(#pc469e824f9)" d="M 465.751611 372.047244 
L 465.751611 226.127416 
" style="fill:none;stroke:#cccccc;stroke-linecap:round;stroke-width:0.8;"/>
     </g>
     <g id="line2d_48"/>
     <g id="text_14">
      <text style="fill:#262626;font-family:Arial;font-size:10px;font-style:normal;font-weight:400;text-anchor:middle;" transform="rotate(-0, 465.751611, 382.705057)" x="465.751611" y="382.705057">200</text>
     </g>
    </g>
    <g id="text_15">
     <text style="fill:#262626;font-family:Arial;font-size:10px;font-style:normal;font-weight:400;text-anchor:middle;" transform="rotate(-0, 276.023622, 395.850369)" x="276.023622" y="395.850369">Time [s]</text>
    </g>
   </g>
   <g id="matplotlib.axis_4">
    <g id="ytick_5">
     <g id="line2d_49">
      <path clip-path="url(#pc469e824f9)" d="M 67.322835 365.407531 
L 484.724409 365.407531 
" style="fill:none;stroke:#cccccc;stroke-linecap:round;stroke-width:0.8;"/>
     </g>
     <g id="line2d_50"/>
     <g id="text_16">
      <text style="fill:#262626;font-family:Arial;font-size:10px;font-style:normal;font-weight:400;text-anchor:end;" transform="rotate(-0, 63.822835, 368.986437)" x="63.822835" y="368.986437">0.0</text>
     </g>
    </g>
    <g id="ytick_6">
     <g id="line2d_51">
      <path clip-path="url(#pc469e824f9)" d="M 67.322835 338.885053 
L 484.724409 338.885053 
" style="fill:none;stroke:#cccccc;stroke-linecap:round;stroke-width:0.8;"/>
     </g>
     <g id="line2d_52"/>
     <g id="text_17">
      <text style="fill:#262626;font-family:Arial;font-size:10px;font-style:normal;font-weight:400;text-anchor:end;" transform="rotate(-0, 63.822835, 342.46396)" x="63.822835" y="342.46396">0.2</text>
     </g>
    </g>
    <g id="ytick_7">
     <g id="line2d_53">
      <path clip-path="url(#pc469e824f9)" d="M 67.322835 312.362576 
L 484.724409 312.362576 
" style="fill:none;stroke:#cccccc;stroke-linecap:round;stroke-width:0.8;"/>
     </g>
     <g id="line2d_54"/>
     <g id="text_18">
      <text style="fill:#262626;font-family:Arial;font-size:10px;font-style:normal;font-weight:400;text-anchor:end;" transform="rotate(-0, 63.822835, 315.941482)" x="63.822835" y="315.941482">0.4</text>
     </g>
    </g>
    <g id="ytick_8">
     <g id="line2d_55">
      <path clip-path="url(#pc469e824f9)" d="M 67.322835 285.840098 
L 484.724409 285.840098 
" style="fill:none;stroke:#cccccc;stroke-linecap:round;stroke-width:0.8;"/>
     </g>
     <g id="line2d_56"/>
     <g id="text_19">
      <text style="fill:#262626;font-family:Arial;font-size:10px;font-style:normal;font-weight:400;text-anchor:end;" transform="rotate(-0, 63.822835, 289.419004)" x="63.822835" y="289.419004">0.6</text>
     </g>
    </g>
    <g id="ytick_9">
     <g id="line2d_57">
      <path clip-path="url(#pc469e824f9)" d="M 67.322835 259.31762 
L 484.724409 259.31762 
" style="fill:none;stroke:#cccccc;stroke-linecap:round;stroke-width:0.8;"/>
     </g>
     <g id="line2d_58"/>
     <g id="text_20">
      <text style="fill:#262626;font-family:Arial;font-size:10px;font-style:normal;font-weight:400;text-anchor:end;" transform="rotate(-0, 63.822835, 262.896526)" x="63.822835" y="262.896526">0.8</text>
     </g>
    </g>
    <g id="ytick_10">
     <g id="line2d_59">
      <path clip-path="url(#pc469e824f9)" d="M 67.322835 232.795142 
L 484.724409 232.795142 
" style="fill:none;stroke:#cccccc;stroke-linecap:round;stroke-width:0.8;"/>
     </g>
     <g id="line2d_60"/>
     <g id="text_21">
      <text style="fill:#262626;font-family:Arial;font-size:10px;font-style:normal;font-weight:400;text-anchor:end;" transform="rotate(-0, 63.822835, 236.374049)" x="63.822835" y="236.374049">1.0</text>
     </g>
    </g>
    <g id="text_22">
     <!-- $y_2$ -->
     <g style="fill:#262626;" transform="translate(43.822835 304.43733)rotate(-90)">
      <text>
       <tspan style="font-family:DejaVu Sans;font-size:10px;font-style:oblique;font-weight:oblique;" x="0" y="-0.53125">y</tspan>
       <tspan style="font-family:DejaVu Sans;font-size:7px;font-style:book;font-weight:book;" x="5.917969" y="1.109375">2</tspan>
      </text>
     </g>
    </g>
   </g>
   <g id="line2d_61">
    <path clip-path="url(#pc469e824f9)" d="M 86.295634 365.407531 
L 276.308214 365.297864 
L 276.649724 364.897938 
L 277.086099 363.999793 
L 277.655283 362.260135 
L 278.395222 359.203518 
L 279.362835 354.164751 
L 280.690931 345.955277 
L 283.005612 329.99414 
L 286.401743 306.876157 
L 288.488751 294.224819 
L 290.348085 284.275069 
L 292.093583 276.102348 
L 293.782162 269.23236 
L 295.413822 263.494322 
L 297.02651 258.614228 
L 298.620225 254.48336 
L 300.213941 250.96044 
L 301.807656 247.969769 
L 303.401371 245.441432 
L 305.014059 243.288718 
L 306.683665 241.427408 
L 308.41019 239.834901 
L 310.212606 238.473407 
L 312.128858 237.303995 
L 314.196893 236.30292 
L 316.473629 235.449579 
L 319.05393 234.725274 
L 322.032659 234.126855 
L 325.599545 233.64573 
L 330.058153 233.278869 
L 336.110476 233.01869 
L 345.464066 232.86184 
L 365.575233 232.799194 
L 465.751611 232.79512 
L 465.751611 232.79512 
" style="fill:none;stroke:#000000;stroke-dasharray:3.7,1.6;stroke-dashoffset:0;"/>
   </g>
   <g id="line2d_62">
    <path clip-path="url(#pc469e824f9)" d="M 86.295634 365.407531 
L 86.485361 364.88886 
L 86.864817 361.407688 
L 87.434001 352.690724 
L 89.141553 324.079648 
L 89.900465 315.147417 
L 90.469649 310.41393 
L 91.038833 307.230761 
L 91.608017 305.399337 
L 91.987473 304.821917 
L 92.366929 304.683818 
L 92.746385 304.922999 
L 93.125841 305.481719 
L 93.695025 306.801406 
L 94.453937 309.234948 
L 95.592305 313.759968 
L 99.956049 332.006787 
L 101.663601 337.842839 
L 103.181424 342.258684 
L 104.699248 346.007522 
L 106.217072 349.166809 
L 107.734896 351.821004 
L 109.25272 354.046964 
L 110.770544 355.910826 
L 112.478096 357.645565 
L 114.185648 359.063188 
L 116.082928 360.337307 
L 118.169936 361.446612 
L 120.446671 362.381871 
L 122.913135 363.146868 
L 125.759055 363.792082 
L 129.174159 364.328363 
L 133.348175 364.748644 
L 138.850286 365.063224 
L 146.818862 365.273225 
L 160.858733 365.381761 
L 207.34209 365.40667 
L 276.023622 365.407416 
L 276.023622 365.407416 
L 276.21335 364.898357 
L 276.592806 361.638894 
L 277.351718 350.909611 
L 279.248998 322.756801 
L 280.387366 309.476254 
L 281.525734 298.78273 
L 282.664102 290.044348 
L 283.992198 281.640689 
L 285.320293 274.640171 
L 286.648389 268.700467 
L 288.166213 262.944026 
L 289.684037 258.092473 
L 291.201861 253.999373 
L 292.719685 250.552342 
L 294.237509 247.656024 
L 295.755333 245.225798 
L 297.273157 243.189235 
L 298.980709 241.292109 
L 300.688261 239.740038 
L 302.395812 238.470592 
L 304.293092 237.329837 
L 306.3801 236.338045 
L 308.656836 235.502088 
L 311.313028 234.772568 
L 314.348676 234.176038 
L 317.953508 233.696818 
L 322.506979 233.3213 
L 328.768003 233.046307 
L 338.254402 232.877067 
L 357.416929 232.804026 
L 465.751611 232.79516 
L 465.751611 232.79516 
" style="fill:none;stroke:#00709b;stroke-linecap:round;"/>
   </g>
   <g id="line2d_63">
    <path clip-path="url(#pc469e824f9)" d="M 86.295634 365.407531 
L 276.023622 365.407531 
L 276.023622 365.407531 
L 276.21335 364.873982 
L 276.592806 361.123231 
L 277.16199 350.93303 
L 278.300358 323.775137 
L 279.628454 293.19005 
L 280.577094 275.72515 
L 281.525734 262.332184 
L 282.284646 254.240744 
L 283.043558 248.093872 
L 283.80247 243.520868 
L 284.561382 240.182593 
L 285.320293 237.788736 
L 286.079205 236.101732 
L 286.838117 234.93358 
L 287.597029 234.139444 
L 288.545669 233.509375 
L 289.494309 233.143275 
L 290.822405 232.888566 
L 292.909413 232.769303 
L 298.790981 232.784242 
L 328.768003 232.795143 
L 465.751611 232.795142 
L 465.751611 232.795142 
" style="fill:none;stroke:#be1e3c;stroke-linecap:round;"/>
   </g>
   <g id="line2d_64">
    <path clip-path="url(#pc469e824f9)" d="M 86.295634 365.407531 
L 276.023622 365.407531 
L 276.023622 365.407531 
L 276.21335 364.873978 
L 276.592806 361.122771 
L 277.16199 350.931793 
L 278.300358 323.771469 
L 279.628454 293.183523 
L 280.577094 275.717903 
L 281.525734 262.326076 
L 282.284646 254.236258 
L 283.043558 248.091102 
L 283.80247 243.519566 
L 284.561382 240.182123 
L 285.320293 237.788395 
L 286.079205 236.100955 
L 286.838117 234.932109 
L 287.597029 234.137342 
L 288.545669 233.506929 
L 289.494309 233.14113 
L 290.822405 232.887569 
L 292.909413 232.769758 
L 298.980709 232.78469 
L 328.768003 232.795148 
L 465.751611 232.795142 
L 465.751611 232.795142 
" style="fill:none;stroke:#e16d00;stroke-linecap:round;"/>
   </g>
   <g id="patch_8">
    <path d="M 67.322835 372.047244 
L 67.322835 226.127416 
" style="fill:none;stroke:#cccccc;stroke-linecap:square;stroke-linejoin:miter;"/>
   </g>
   <g id="patch_9">
    <path d="M 484.724409 372.047244 
L 484.724409 226.127416 
" style="fill:none;stroke:#cccccc;stroke-linecap:square;stroke-linejoin:miter;"/>
   </g>
   <g id="patch_10">
    <path d="M 67.322835 372.047244 
L 484.724409 372.047244 
" style="fill:none;stroke:#cccccc;stroke-linecap:square;stroke-linejoin:miter;"/>
   </g>
   <g id="patch_11">
    <path d="M 67.322835 226.127416 
L 484.724409 226.127416 
" style="fill:none;stroke:#cccccc;stroke-linecap:square;stroke-linejoin:miter;"/>
   </g>
   <g id="legend_1">
    <g id="line2d_65">
     <path d="M 401.590034 315.123807 
L 421.590034 315.123807 
" style="fill:none;stroke:#000000;stroke-dasharray:3.7,1.6;stroke-dashoffset:0;"/>
    </g>
    <g id="line2d_66"/>
    <g id="text_23">
     <text style="fill:#262626;font-family:Arial;font-size:10px;font-style:normal;font-weight:400;text-anchor:start;" transform="rotate(-0, 429.590034, 318.623807)" x="429.590034" y="318.623807">Reference</text>
    </g>
    <g id="line2d_67">
     <path d="M 401.590034 329.269119 
L 421.590034 329.269119 
" style="fill:none;stroke:#00709b;stroke-linecap:round;"/>
    </g>
    <g id="line2d_68"/>
    <g id="text_24">
     <text style="fill:#262626;font-family:Arial;font-size:10px;font-style:normal;font-weight:400;text-anchor:start;" transform="rotate(-0, 429.590034, 332.769119)" x="429.590034" y="332.769119">RGA</text>
    </g>
    <g id="line2d_69">
     <path d="M 401.590034 343.414432 
L 421.590034 343.414432 
" style="fill:none;stroke:#be1e3c;stroke-linecap:round;"/>
    </g>
    <g id="line2d_70"/>
    <g id="text_25">
     <text style="fill:#262626;font-family:Arial;font-size:10px;font-style:normal;font-weight:400;text-anchor:start;" transform="rotate(-0, 429.590034, 346.914432)" x="429.590034" y="346.914432">Astrom</text>
    </g>
    <g id="line2d_71">
     <path d="M 401.590034 357.559744 
L 421.590034 357.559744 
" style="fill:none;stroke:#e16d00;stroke-linecap:round;"/>
    </g>
    <g id="line2d_72"/>
    <g id="text_26">
     <text style="fill:#262626;font-family:Arial;font-size:10px;font-style:normal;font-weight:400;text-anchor:start;" transform="rotate(-0, 429.590034, 361.059744)" x="429.590034" y="361.059744">R2D2</text>
    </g>
   </g>
  </g>
 </g>
 <defs>
  <clipPath id="p71d9563d35">
   <rect height="145.919828" width="417.401575" x="67.322835" y="51.023622"/>
  </clipPath>
  <clipPath id="pc469e824f9">
   <rect height="145.919828" width="417.401575" x="67.322835" y="226.127416"/>
  </clipPath>
 </defs>
</svg>
