<?xml version="1.0" encoding="utf-8" standalone="no"?>
<!DOCTYPE svg PUBLIC "-//W3C//DTD SVG 1.1//EN"
  "http://www.w3.org/Graphics/SVG/1.1/DTD/svg11.dtd">
<!-- Created with matplotlib (http://matplotlib.org/) -->
<svg height="425pt" version="1.1" viewBox="0 0 538 425" width="538pt" xmlns="http://www.w3.org/2000/svg" xmlns:xlink="http://www.w3.org/1999/xlink">
 <defs>
  <style type="text/css">
*{stroke-linecap:butt;stroke-linejoin:round;}
  </style>
 </defs>
 <g id="figure_1">
  <g id="patch_1">
   <path d="M 0 425.19685 
L 538.582677 425.19685 
L 538.582677 0 
L 0 0 
z
" style="fill:#ffffff;"/>
  </g>
  <g id="axes_1">
   <g id="patch_2">
    <path d="M 67.322835 196.94345 
L 484.724409 196.94345 
L 484.724409 51.023622 
L 67.322835 51.023622 
z
" style="fill:#ffffff;"/>
   </g>
   <g id="matplotlib.axis_1">
    <g id="xtick_1">
     <g id="line2d_1">
      <path clip-path="url(#pb6b34ed750)" d="M 86.295634 196.94345 
L 86.295634 51.023622 
" style="fill:none;stroke:#cccccc;stroke-linecap:round;stroke-width:0.8;"/>
     </g>
     <g id="line2d_2"/>
    </g>
    <g id="xtick_2">
     <g id="line2d_3">
      <path clip-path="url(#pb6b34ed750)" d="M 133.727631 196.94345 
L 133.727631 51.023622 
" style="fill:none;stroke:#cccccc;stroke-linecap:round;stroke-width:0.8;"/>
     </g>
     <g id="line2d_4"/>
    </g>
    <g id="xtick_3">
     <g id="line2d_5">
      <path clip-path="url(#pb6b34ed750)" d="M 181.159628 196.94345 
L 181.159628 51.023622 
" style="fill:none;stroke:#cccccc;stroke-linecap:round;stroke-width:0.8;"/>
     </g>
     <g id="line2d_6"/>
    </g>
    <g id="xtick_4">
     <g id="line2d_7">
      <path clip-path="url(#pb6b34ed750)" d="M 228.591625 196.94345 
L 228.591625 51.023622 
" style="fill:none;stroke:#cccccc;stroke-linecap:round;stroke-width:0.8;"/>
     </g>
     <g id="line2d_8"/>
    </g>
    <g id="xtick_5">
     <g id="line2d_9">
      <path clip-path="url(#pb6b34ed750)" d="M 276.023622 196.94345 
L 276.023622 51.023622 
" style="fill:none;stroke:#cccccc;stroke-linecap:round;stroke-width:0.8;"/>
     </g>
     <g id="line2d_10"/>
    </g>
    <g id="xtick_6">
     <g id="line2d_11">
      <path clip-path="url(#pb6b34ed750)" d="M 323.455619 196.94345 
L 323.455619 51.023622 
" style="fill:none;stroke:#cccccc;stroke-linecap:round;stroke-width:0.8;"/>
     </g>
     <g id="line2d_12"/>
    </g>
    <g id="xtick_7">
     <g id="line2d_13">
      <path clip-path="url(#pb6b34ed750)" d="M 370.887616 196.94345 
L 370.887616 51.023622 
" style="fill:none;stroke:#cccccc;stroke-linecap:round;stroke-width:0.8;"/>
     </g>
     <g id="line2d_14"/>
    </g>
    <g id="xtick_8">
     <g id="line2d_15">
      <path clip-path="url(#pb6b34ed750)" d="M 418.319613 196.94345 
L 418.319613 51.023622 
" style="fill:none;stroke:#cccccc;stroke-linecap:round;stroke-width:0.8;"/>
     </g>
     <g id="line2d_16"/>
    </g>
    <g id="xtick_9">
     <g id="line2d_17">
      <path clip-path="url(#pb6b34ed750)" d="M 465.751611 196.94345 
L 465.751611 51.023622 
" style="fill:none;stroke:#cccccc;stroke-linecap:round;stroke-width:0.8;"/>
     </g>
     <g id="line2d_18"/>
    </g>
   </g>
   <g id="matplotlib.axis_2">
    <g id="ytick_1">
     <g id="line2d_19">
      <path clip-path="url(#pb6b34ed750)" d="M 67.322835 179.919654 
L 484.724409 179.919654 
" style="fill:none;stroke:#cccccc;stroke-linecap:round;stroke-width:0.8;"/>
     </g>
     <g id="line2d_20"/>
     <g id="text_1">
      <text style="fill:#262626;font-family:Arial;font-size:10px;font-style:normal;font-weight:400;text-anchor:end;" transform="rotate(-0, 63.822835, 183.49856)" x="63.822835" y="183.49856">0.0</text>
     </g>
    </g>
    <g id="ytick_2">
     <g id="line2d_21">
      <path clip-path="url(#pb6b34ed750)" d="M 67.322835 140.75781 
L 484.724409 140.75781 
" style="fill:none;stroke:#cccccc;stroke-linecap:round;stroke-width:0.8;"/>
     </g>
     <g id="line2d_22"/>
     <g id="text_2">
      <text style="fill:#262626;font-family:Arial;font-size:10px;font-style:normal;font-weight:400;text-anchor:end;" transform="rotate(-0, 63.822835, 144.336716)" x="63.822835" y="144.336716">0.5</text>
     </g>
    </g>
    <g id="ytick_3">
     <g id="line2d_23">
      <path clip-path="url(#pb6b34ed750)" d="M 67.322835 101.595965 
L 484.724409 101.595965 
" style="fill:none;stroke:#cccccc;stroke-linecap:round;stroke-width:0.8;"/>
     </g>
     <g id="line2d_24"/>
     <g id="text_3">
      <text style="fill:#262626;font-family:Arial;font-size:10px;font-style:normal;font-weight:400;text-anchor:end;" transform="rotate(-0, 63.822835, 105.174872)" x="63.822835" y="105.174872">1.0</text>
     </g>
    </g>
    <g id="ytick_4">
     <g id="line2d_25">
      <path clip-path="url(#pb6b34ed750)" d="M 67.322835 62.434121 
L 484.724409 62.434121 
" style="fill:none;stroke:#cccccc;stroke-linecap:round;stroke-width:0.8;"/>
     </g>
     <g id="line2d_26"/>
     <g id="text_4">
      <text style="fill:#262626;font-family:Arial;font-size:10px;font-style:normal;font-weight:400;text-anchor:end;" transform="rotate(-0, 63.822835, 66.013027)" x="63.822835" y="66.013027">1.5</text>
     </g>
    </g>
    <g id="text_5">
     <!-- $y_1$ -->
     <g style="fill:#262626;" transform="translate(43.822835 129.333536)rotate(-90)">
      <text>
       <tspan style="font-family:DejaVu Sans;font-size:10px;font-style:oblique;font-weight:oblique;" x="0" y="-0.53125">y</tspan>
       <tspan style="font-family:DejaVu Sans;font-size:7px;font-style:book;font-weight:book;" x="5.917969" y="1.109375">1</tspan>
      </text>
     </g>
    </g>
   </g>
   <g id="line2d_27">
    <path clip-path="url(#pb6b34ed750)" d="M 86.295634 179.919654 
L 86.485361 180.171047 
L 86.864817 181.613736 
L 87.623729 184.811656 
L 88.003185 185.585069 
L 88.192913 185.683817 
L 88.382641 185.586726 
L 88.762097 184.824362 
L 89.141553 183.368108 
L 89.710737 180.110897 
L 90.469649 174.348355 
L 92.177201 159.017018 
L 93.884753 144.45239 
L 95.212849 134.979383 
L 96.351217 128.281721 
L 97.489585 122.802338 
L 98.627953 118.377678 
L 99.766321 114.835215 
L 100.904689 112.019945 
L 102.043057 109.792127 
L 103.181424 108.032673 
L 104.319792 106.645294 
L 105.647888 105.396195 
L 106.975984 104.454995 
L 108.493808 103.661007 
L 110.20136 103.027592 
L 112.288368 102.509333 
L 114.94456 102.108672 
L 118.359664 101.840093 
L 123.672047 101.67537 
L 134.296815 101.607448 
L 265.968039 101.595689 
L 276.21335 101.487848 
L 276.592806 100.80238 
L 277.351718 98.546047 
L 278.490086 95.291879 
L 279.248998 93.856841 
L 279.818182 93.207639 
L 280.387366 92.886664 
L 280.95655 92.844313 
L 281.525734 93.030756 
L 282.284646 93.554029 
L 283.233286 94.511145 
L 284.940838 96.633192 
L 287.407301 99.675758 
L 288.925125 101.229306 
L 290.442949 102.465627 
L 291.960773 103.388247 
L 293.478597 104.028617 
L 294.996421 104.430913 
L 296.703973 104.655788 
L 298.790981 104.688076 
L 301.447173 104.482781 
L 305.810916 103.88029 
L 313.400036 102.838925 
L 318.902147 102.325735 
L 325.163171 101.971993 
L 333.511203 101.741182 
L 346.98189 101.624737 
L 386.635039 101.596027 
L 465.751611 101.595959 
L 465.751611 101.595959 
" style="fill:none;stroke:#000000;stroke-dasharray:3.7,1.6;stroke-dashoffset:0;"/>
   </g>
   <g id="line2d_28">
    <path clip-path="url(#pb6b34ed750)" d="M 86.295634 179.919654 
L 86.485361 179.620541 
L 86.864817 177.693307 
L 87.623729 171.360186 
L 89.521009 154.728953 
L 90.659377 146.884893 
L 91.797745 140.568058 
L 92.936113 135.408004 
L 94.264209 130.44442 
L 95.592305 126.3119 
L 97.110129 122.345656 
L 98.627953 119.016607 
L 100.145777 116.210279 
L 101.663601 113.844424 
L 103.181424 111.8529 
L 104.888976 109.990096 
L 106.596528 108.461465 
L 108.493808 107.085003 
L 110.391088 105.983103 
L 112.478096 105.023652 
L 114.754832 104.214336 
L 117.411024 103.508758 
L 120.446671 102.931844 
L 124.241231 102.448738 
L 128.984431 102.083299 
L 135.435183 101.823461 
L 145.490766 101.665354 
L 166.930029 101.60162 
L 276.023622 101.59599 
L 276.023622 101.59599 
L 276.21335 101.021966 
L 276.592806 97.680614 
L 277.920902 83.353776 
L 278.490086 79.418215 
L 279.05927 76.904543 
L 279.628454 75.521135 
L 280.00791 75.088476 
L 280.387366 74.9619 
L 280.766822 75.078477 
L 281.336006 75.59637 
L 282.094918 76.720364 
L 283.233286 78.892856 
L 286.648389 85.683946 
L 288.355941 88.507194 
L 289.873765 90.625705 
L 291.581317 92.613169 
L 293.288869 94.248036 
L 294.996421 95.588125 
L 296.893701 96.793473 
L 298.980709 97.843195 
L 301.257445 98.728583 
L 303.723908 99.453304 
L 306.759556 100.099403 
L 310.364388 100.619219 
L 314.728132 101.012928 
L 320.609699 101.305197 
L 329.337187 101.492135 
L 345.653794 101.580611 
L 415.85315 101.595945 
L 465.751611 101.595957 
L 465.751611 101.595957 
" style="fill:none;stroke:#00709b;stroke-linecap:round;"/>
   </g>
   <g id="line2d_29">
    <path clip-path="url(#pb6b34ed750)" d="M 86.295634 179.919654 
L 86.485361 180.305186 
L 86.864817 182.718035 
L 87.623729 188.748139 
L 88.003185 190.218412 
L 88.192913 190.310731 
L 88.382641 189.942725 
L 88.762097 187.854405 
L 89.141553 184.163078 
L 89.900465 173.573381 
L 91.418289 151.41408 
L 92.177201 143.815409 
L 92.936113 138.727827 
L 93.695025 135.239278 
L 96.920401 123.092244 
L 98.248497 118.620517 
L 99.386865 115.669963 
L 100.525233 113.389461 
L 101.853329 111.24445 
L 103.371152 109.205764 
L 104.888976 107.5528 
L 106.4068 106.267712 
L 107.924624 105.273241 
L 109.632176 104.404171 
L 111.529456 103.675832 
L 113.806192 103.043919 
L 116.462384 102.546842 
L 119.877487 102.149737 
L 124.241231 101.87093 
L 131.071439 101.688573 
L 143.593486 101.608361 
L 219.674409 101.596039 
L 276.023622 101.595957 
L 276.023622 101.595957 
L 276.21335 100.375232 
L 276.592806 92.524974 
L 277.731174 62.193872 
L 278.11063 58.073385 
L 278.300358 57.656342 
L 278.490086 58.296451 
L 278.869542 62.401477 
L 279.438726 73.710239 
L 280.95655 107.894501 
L 281.525734 115.1389 
L 281.90519 117.712105 
L 282.284646 118.714822 
L 282.474374 118.728545 
L 282.664102 118.478927 
L 283.043558 117.380367 
L 283.80247 114.013032 
L 284.561382 110.835666 
L 285.130565 109.234149 
L 285.699749 108.36468 
L 286.079205 108.107949 
L 286.648389 108.017231 
L 287.976485 107.990276 
L 288.545669 107.745929 
L 289.304581 107.169448 
L 291.960773 104.833401 
L 293.099141 104.265004 
L 294.996421 103.643848 
L 298.221797 102.80585 
L 300.688261 102.409031 
L 304.48282 102.043297 
L 309.605476 101.794141 
L 317.953508 101.648674 
L 336.926306 101.598372 
L 465.751611 101.595965 
L 465.751611 101.595965 
" style="fill:none;stroke:#be1e3c;stroke-linecap:round;"/>
   </g>
   <g id="line2d_30">
    <path clip-path="url(#pb6b34ed750)" d="M 86.295634 179.919654 
L 86.485361 180.207615 
L 86.864817 181.861007 
L 87.623729 185.53714 
L 88.003185 186.438182 
L 88.192913 186.56038 
L 88.382641 186.458058 
L 88.762097 185.598708 
L 89.141553 183.935661 
L 89.710737 180.187584 
L 90.469649 173.511361 
L 92.177201 155.649092 
L 93.884753 138.848531 
L 95.023121 129.615212 
L 96.161489 122.150867 
L 97.110129 117.197848 
L 98.058769 113.257892 
L 99.007409 110.180382 
L 99.956049 107.816715 
L 100.904689 106.029878 
L 101.853329 104.699376 
L 102.801969 103.723124 
L 103.940336 102.903083 
L 105.078704 102.361518 
L 106.4068 101.970392 
L 108.114352 101.706253 
L 110.580816 101.56888 
L 115.8932 101.561699 
L 139.41947 101.595621 
L 276.023622 101.595817 
L 276.023622 101.595817 
L 276.21335 101.202884 
L 276.592806 98.774634 
L 278.11063 86.324752 
L 278.679814 83.988818 
L 279.05927 83.282055 
L 279.248998 83.157845 
L 279.438726 83.171112 
L 279.818182 83.562499 
L 280.197638 84.359476 
L 280.766822 86.120419 
L 281.715462 89.932922 
L 283.992198 99.330575 
L 284.940838 102.373211 
L 285.889477 104.726624 
L 286.838117 106.421161 
L 287.597029 107.354197 
L 288.355941 107.965815 
L 289.114853 108.308609 
L 289.873765 108.43323 
L 290.822405 108.352617 
L 291.960773 108.011182 
L 293.668325 107.215783 
L 298.980709 104.54144 
L 301.257445 103.703543 
L 303.723908 103.034681 
L 306.569828 102.509758 
L 309.984932 102.121955 
L 314.538404 101.846779 
L 321.368611 101.680297 
L 335.218754 101.606044 
L 410.351038 101.596005 
L 465.751611 101.595954 
L 465.751611 101.595954 
" style="fill:none;stroke:#e16d00;stroke-linecap:round;"/>
   </g>
   <g id="patch_3">
    <path d="M 67.322835 196.94345 
L 67.322835 51.023622 
" style="fill:none;stroke:#cccccc;stroke-linecap:square;stroke-linejoin:miter;"/>
   </g>
   <g id="patch_4">
    <path d="M 484.724409 196.94345 
L 484.724409 51.023622 
" style="fill:none;stroke:#cccccc;stroke-linecap:square;stroke-linejoin:miter;"/>
   </g>
   <g id="patch_5">
    <path d="M 67.322835 196.94345 
L 484.724409 196.94345 
" style="fill:none;stroke:#cccccc;stroke-linecap:square;stroke-linejoin:miter;"/>
   </g>
   <g id="patch_6">
    <path d="M 67.322835 51.023622 
L 484.724409 51.023622 
" style="fill:none;stroke:#cccccc;stroke-linecap:square;stroke-linejoin:miter;"/>
   </g>
  </g>
  <g id="axes_2">
   <g id="patch_7">
    <path d="M 67.322835 372.047244 
L 484.724409 372.047244 
L 484.724409 226.127416 
L 67.322835 226.127416 
z
" style="fill:#ffffff;"/>
   </g>
   <g id="matplotlib.axis_3">
    <g id="xtick_10">
     <g id="line2d_31">
      <path clip-path="url(#pee26b42840)" d="M 86.295634 372.047244 
L 86.295634 226.127416 
" style="fill:none;stroke:#cccccc;stroke-linecap:round;stroke-width:0.8;"/>
     </g>
     <g id="line2d_32"/>
     <g id="text_6">
      <text style="fill:#262626;font-family:Arial;font-size:10px;font-style:normal;font-weight:400;text-anchor:middle;" transform="rotate(-0, 86.295634, 382.705057)" x="86.295634" y="382.705057">0</text>
     </g>
    </g>
    <g id="xtick_11">
     <g id="line2d_33">
      <path clip-path="url(#pee26b42840)" d="M 133.727631 372.047244 
L 133.727631 226.127416 
" style="fill:none;stroke:#cccccc;stroke-linecap:round;stroke-width:0.8;"/>
     </g>
     <g id="line2d_34"/>
     <g id="text_7">
      <text style="fill:#262626;font-family:Arial;font-size:10px;font-style:normal;font-weight:400;text-anchor:middle;" transform="rotate(-0, 133.727631, 382.705057)" x="133.727631" y="382.705057">25</text>
     </g>
    </g>
    <g id="xtick_12">
     <g id="line2d_35">
      <path clip-path="url(#pee26b42840)" d="M 181.159628 372.047244 
L 181.159628 226.127416 
" style="fill:none;stroke:#cccccc;stroke-linecap:round;stroke-width:0.8;"/>
     </g>
     <g id="line2d_36"/>
     <g id="text_8">
      <text style="fill:#262626;font-family:Arial;font-size:10px;font-style:normal;font-weight:400;text-anchor:middle;" transform="rotate(-0, 181.159628, 382.705057)" x="181.159628" y="382.705057">50</text>
     </g>
    </g>
    <g id="xtick_13">
     <g id="line2d_37">
      <path clip-path="url(#pee26b42840)" d="M 228.591625 372.047244 
L 228.591625 226.127416 
" style="fill:none;stroke:#cccccc;stroke-linecap:round;stroke-width:0.8;"/>
     </g>
     <g id="line2d_38"/>
     <g id="text_9">
      <text style="fill:#262626;font-family:Arial;font-size:10px;font-style:normal;font-weight:400;text-anchor:middle;" transform="rotate(-0, 228.591625, 382.705057)" x="228.591625" y="382.705057">75</text>
     </g>
    </g>
    <g id="xtick_14">
     <g id="line2d_39">
      <path clip-path="url(#pee26b42840)" d="M 276.023622 372.047244 
L 276.023622 226.127416 
" style="fill:none;stroke:#cccccc;stroke-linecap:round;stroke-width:0.8;"/>
     </g>
     <g id="line2d_40"/>
     <g id="text_10">
      <text style="fill:#262626;font-family:Arial;font-size:10px;font-style:normal;font-weight:400;text-anchor:middle;" transform="rotate(-0, 276.023622, 382.705057)" x="276.023622" y="382.705057">100</text>
     </g>
    </g>
    <g id="xtick_15">
     <g id="line2d_41">
      <path clip-path="url(#pee26b42840)" d="M 323.455619 372.047244 
L 323.455619 226.127416 
" style="fill:none;stroke:#cccccc;stroke-linecap:round;stroke-width:0.8;"/>
     </g>
     <g id="line2d_42"/>
     <g id="text_11">
      <text style="fill:#262626;font-family:Arial;font-size:10px;font-style:normal;font-weight:400;text-anchor:middle;" transform="rotate(-0, 323.455619, 382.705057)" x="323.455619" y="382.705057">125</text>
     </g>
    </g>
    <g id="xtick_16">
     <g id="line2d_43">
      <path clip-path="url(#pee26b42840)" d="M 370.887616 372.047244 
L 370.887616 226.127416 
" style="fill:none;stroke:#cccccc;stroke-linecap:round;stroke-width:0.8;"/>
     </g>
     <g id="line2d_44"/>
     <g id="text_12">
      <text style="fill:#262626;font-family:Arial;font-size:10px;font-style:normal;font-weight:400;text-anchor:middle;" transform="rotate(-0, 370.887616, 382.705057)" x="370.887616" y="382.705057">150</text>
     </g>
    </g>
    <g id="xtick_17">
     <g id="line2d_45">
      <path clip-path="url(#pee26b42840)" d="M 418.319613 372.047244 
L 418.319613 226.127416 
" style="fill:none;stroke:#cccccc;stroke-linecap:round;stroke-width:0.8;"/>
     </g>
     <g id="line2d_46"/>
     <g id="text_13">
      <text style="fill:#262626;font-family:Arial;font-size:10px;font-style:normal;font-weight:400;text-anchor:middle;" transform="rotate(-0, 418.319613, 382.705057)" x="418.319613" y="382.705057">175</text>
     </g>
    </g>
    <g id="xtick_18">
     <g id="line2d_47">
      <path clip-path="url(#pee26b42840)" d="M 465.751611 372.047244 
L 465.751611 226.127416 
" style="fill:none;stroke:#cccccc;stroke-linecap:round;stroke-width:0.8;"/>
     </g>
     <g id="line2d_48"/>
     <g id="text_14">
      <text style="fill:#262626;font-family:Arial;font-size:10px;font-style:normal;font-weight:400;text-anchor:middle;" transform="rotate(-0, 465.751611, 382.705057)" x="465.751611" y="382.705057">200</text>
     </g>
    </g>
    <g id="text_15">
     <text style="fill:#262626;font-family:Arial;font-size:10px;font-style:normal;font-weight:400;text-anchor:middle;" transform="rotate(-0, 276.023622, 395.850369)" x="276.023622" y="395.850369">Time [s]</text>
    </g>
   </g>
   <g id="matplotlib.axis_4">
    <g id="ytick_5">
     <g id="line2d_49">
      <path clip-path="url(#pee26b42840)" d="M 67.322835 365.409784 
L 484.724409 365.409784 
" style="fill:none;stroke:#cccccc;stroke-linecap:round;stroke-width:0.8;"/>
     </g>
     <g id="line2d_50"/>
     <g id="text_16">
      <text style="fill:#262626;font-family:Arial;font-size:10px;font-style:normal;font-weight:400;text-anchor:end;" transform="rotate(-0, 63.822835, 368.98869)" x="63.822835" y="368.98869">0.0</text>
     </g>
    </g>
    <g id="ytick_6">
     <g id="line2d_51">
      <path clip-path="url(#pee26b42840)" d="M 67.322835 338.886856 
L 484.724409 338.886856 
" style="fill:none;stroke:#cccccc;stroke-linecap:round;stroke-width:0.8;"/>
     </g>
     <g id="line2d_52"/>
     <g id="text_17">
      <text style="fill:#262626;font-family:Arial;font-size:10px;font-style:normal;font-weight:400;text-anchor:end;" transform="rotate(-0, 63.822835, 342.465762)" x="63.822835" y="342.465762">0.2</text>
     </g>
    </g>
    <g id="ytick_7">
     <g id="line2d_53">
      <path clip-path="url(#pee26b42840)" d="M 67.322835 312.363927 
L 484.724409 312.363927 
" style="fill:none;stroke:#cccccc;stroke-linecap:round;stroke-width:0.8;"/>
     </g>
     <g id="line2d_54"/>
     <g id="text_18">
      <text style="fill:#262626;font-family:Arial;font-size:10px;font-style:normal;font-weight:400;text-anchor:end;" transform="rotate(-0, 63.822835, 315.942834)" x="63.822835" y="315.942834">0.4</text>
     </g>
    </g>
    <g id="ytick_8">
     <g id="line2d_55">
      <path clip-path="url(#pee26b42840)" d="M 67.322835 285.840999 
L 484.724409 285.840999 
" style="fill:none;stroke:#cccccc;stroke-linecap:round;stroke-width:0.8;"/>
     </g>
     <g id="line2d_56"/>
     <g id="text_19">
      <text style="fill:#262626;font-family:Arial;font-size:10px;font-style:normal;font-weight:400;text-anchor:end;" transform="rotate(-0, 63.822835, 289.419906)" x="63.822835" y="289.419906">0.6</text>
     </g>
    </g>
    <g id="ytick_9">
     <g id="line2d_57">
      <path clip-path="url(#pee26b42840)" d="M 67.322835 259.318071 
L 484.724409 259.318071 
" style="fill:none;stroke:#cccccc;stroke-linecap:round;stroke-width:0.8;"/>
     </g>
     <g id="line2d_58"/>
     <g id="text_20">
      <text style="fill:#262626;font-family:Arial;font-size:10px;font-style:normal;font-weight:400;text-anchor:end;" transform="rotate(-0, 63.822835, 262.896977)" x="63.822835" y="262.896977">0.8</text>
     </g>
    </g>
    <g id="ytick_10">
     <g id="line2d_59">
      <path clip-path="url(#pee26b42840)" d="M 67.322835 232.795143 
L 484.724409 232.795143 
" style="fill:none;stroke:#cccccc;stroke-linecap:round;stroke-width:0.8;"/>
     </g>
     <g id="line2d_60"/>
     <g id="text_21">
      <text style="fill:#262626;font-family:Arial;font-size:10px;font-style:normal;font-weight:400;text-anchor:end;" transform="rotate(-0, 63.822835, 236.374049)" x="63.822835" y="236.374049">1.0</text>
     </g>
    </g>
    <g id="text_22">
     <!-- $y_2$ -->
     <g style="fill:#262626;" transform="translate(43.822835 304.43733)rotate(-90)">
      <text>
       <tspan style="font-family:DejaVu Sans;font-size:10px;font-style:oblique;font-weight:oblique;" x="0" y="-0.53125">y</tspan>
       <tspan style="font-family:DejaVu Sans;font-size:7px;font-style:book;font-weight:book;" x="5.917969" y="1.109375">2</tspan>
      </text>
     </g>
    </g>
   </g>
   <g id="line2d_61">
    <path clip-path="url(#pee26b42840)" d="M 86.295634 365.409784 
L 276.21335 365.359945 
L 276.592806 364.986127 
L 276.972262 364.275475 
L 277.541446 362.656926 
L 278.300358 359.641187 
L 279.248998 354.809477 
L 280.577094 346.702395 
L 282.85383 331.064159 
L 286.268933 307.731349 
L 288.355941 294.985495 
L 290.253221 284.752383 
L 291.960773 276.685862 
L 293.668325 269.665461 
L 295.375877 263.618823 
L 297.083429 258.455775 
L 298.601253 254.529176 
L 300.119077 251.154829 
L 301.636901 248.267186 
L 303.154724 245.805375 
L 304.862276 243.475758 
L 306.569828 241.543797 
L 308.27738 239.946825 
L 310.17466 238.499373 
L 312.07194 237.335197 
L 314.158948 236.319244 
L 316.435684 235.462037 
L 319.091875 234.716244 
L 322.127523 234.111161 
L 325.732355 233.631598 
L 330.285827 233.265107 
L 336.54685 233.006525 
L 346.222978 232.855591 
L 368.041696 232.797714 
L 465.751611 232.795121 
L 465.751611 232.795121 
" style="fill:none;stroke:#000000;stroke-dasharray:3.7,1.6;stroke-dashoffset:0;"/>
   </g>
   <g id="line2d_62">
    <path clip-path="url(#pee26b42840)" d="M 86.295634 365.409784 
L 86.485361 364.891103 
L 86.864817 361.409873 
L 87.434001 352.692761 
L 89.141553 324.081199 
L 89.900465 315.148816 
L 90.469649 310.415249 
L 91.038833 307.232026 
L 91.608017 305.400571 
L 91.987473 304.823141 
L 92.366929 304.68504 
L 92.746385 304.924224 
L 93.125841 305.482954 
L 93.695025 306.802663 
L 94.453937 309.236247 
L 95.592305 313.761344 
L 99.956049 332.008473 
L 101.663601 337.844624 
L 103.181424 342.260543 
L 104.699248 346.009445 
L 106.217072 349.168785 
L 107.734896 351.823026 
L 109.25272 354.049024 
L 110.770544 355.912918 
L 112.478096 357.647685 
L 114.185648 359.065333 
L 116.082928 360.339473 
L 118.169936 361.448797 
L 120.446671 362.384073 
L 122.913135 363.149082 
L 125.759055 363.794307 
L 129.174159 364.330597 
L 133.348175 364.750885 
L 138.850286 365.06547 
L 146.818862 365.275475 
L 160.858733 365.384013 
L 207.34209 365.408923 
L 276.023622 365.409669 
L 276.023622 365.409669 
L 276.21335 364.900601 
L 276.592806 361.641082 
L 277.351718 350.911617 
L 279.248998 322.758329 
L 280.387366 309.477557 
L 281.525734 298.783851 
L 282.664102 290.045321 
L 283.992198 281.641519 
L 285.320293 274.640882 
L 286.648389 268.701077 
L 288.166213 262.944538 
L 289.684037 258.092903 
L 291.201861 253.999733 
L 292.719685 250.552644 
L 294.237509 247.656277 
L 295.755333 245.22601 
L 297.273157 243.189412 
L 298.980709 241.292254 
L 300.688261 239.740157 
L 302.395812 238.470689 
L 304.293092 237.329915 
L 306.3801 236.338106 
L 308.656836 235.502134 
L 311.313028 234.772602 
L 314.348676 234.176062 
L 317.953508 233.696834 
L 322.506979 233.321309 
L 328.768003 233.046312 
L 338.254402 232.877069 
L 357.416929 232.804027 
L 465.751611 232.795161 
L 465.751611 232.795161 
" style="fill:none;stroke:#00709b;stroke-linecap:round;"/>
   </g>
   <g id="line2d_63">
    <path clip-path="url(#pee26b42840)" d="M 86.295634 365.409784 
L 276.023622 365.409784 
L 276.023622 365.409784 
L 276.21335 364.876226 
L 276.592806 361.12541 
L 277.16199 350.935037 
L 278.300358 323.776683 
L 279.628454 293.191076 
L 280.577094 275.72588 
L 281.525734 262.332686 
L 282.284646 254.241109 
L 283.043558 248.094132 
L 283.80247 243.521051 
L 284.561382 240.182719 
L 285.320293 237.788822 
L 286.079205 236.101789 
L 286.838117 234.933617 
L 287.597029 234.139467 
L 288.545669 233.509388 
L 289.494309 233.143281 
L 290.822405 232.888568 
L 292.909413 232.769303 
L 298.790981 232.784243 
L 328.768003 232.795143 
L 465.751611 232.795143 
L 465.751611 232.795143 
" style="fill:none;stroke:#be1e3c;stroke-linecap:round;"/>
   </g>
   <g id="line2d_64">
    <path clip-path="url(#pee26b42840)" d="M 86.295634 365.409784 
L 276.023622 365.409784 
L 276.023622 365.409784 
L 276.21335 365.228782 
L 276.592806 363.910431 
L 276.972262 361.563131 
L 277.541446 356.647309 
L 278.490086 346.229806 
L 282.284646 302.049989 
L 283.612742 289.66101 
L 284.940838 279.238391 
L 286.268933 270.598332 
L 287.597029 263.500133 
L 288.925125 257.700975 
L 290.253221 252.979672 
L 291.581317 249.144319 
L 292.909413 246.033127 
L 294.237509 243.511645 
L 295.565605 241.469183 
L 296.893701 239.815349 
L 298.411525 238.307332 
L 299.929349 237.123047 
L 301.636901 236.091913 
L 303.53418 235.231666 
L 305.621188 234.542269 
L 308.087652 233.974361 
L 311.1233 233.522217 
L 314.91786 233.193067 
L 320.419971 232.960986 
L 329.526915 232.834122 
L 353.812097 232.796112 
L 465.751611 232.795116 
L 465.751611 232.795116 
" style="fill:none;stroke:#e16d00;stroke-linecap:round;"/>
   </g>
   <g id="patch_8">
    <path d="M 67.322835 372.047244 
L 67.322835 226.127416 
" style="fill:none;stroke:#cccccc;stroke-linecap:square;stroke-linejoin:miter;"/>
   </g>
   <g id="patch_9">
    <path d="M 484.724409 372.047244 
L 484.724409 226.127416 
" style="fill:none;stroke:#cccccc;stroke-linecap:square;stroke-linejoin:miter;"/>
   </g>
   <g id="patch_10">
    <path d="M 67.322835 372.047244 
L 484.724409 372.047244 
" style="fill:none;stroke:#cccccc;stroke-linecap:square;stroke-linejoin:miter;"/>
   </g>
   <g id="patch_11">
    <path d="M 67.322835 226.127416 
L 484.724409 226.127416 
" style="fill:none;stroke:#cccccc;stroke-linecap:square;stroke-linejoin:miter;"/>
   </g>
   <g id="legend_1">
    <g id="line2d_65">
     <path d="M 401.590034 315.123807 
L 421.590034 315.123807 
" style="fill:none;stroke:#000000;stroke-dasharray:3.7,1.6;stroke-dashoffset:0;"/>
    </g>
    <g id="line2d_66"/>
    <g id="text_23">
     <text style="fill:#262626;font-family:Arial;font-size:10px;font-style:normal;font-weight:400;text-anchor:start;" transform="rotate(-0, 429.590034, 318.623807)" x="429.590034" y="318.623807">Reference</text>
    </g>
    <g id="line2d_67">
     <path d="M 401.590034 329.269119 
L 421.590034 329.269119 
" style="fill:none;stroke:#00709b;stroke-linecap:round;"/>
    </g>
    <g id="line2d_68"/>
    <g id="text_24">
     <text style="fill:#262626;font-family:Arial;font-size:10px;font-style:normal;font-weight:400;text-anchor:start;" transform="rotate(-0, 429.590034, 332.769119)" x="429.590034" y="332.769119">RGA</text>
    </g>
    <g id="line2d_69">
     <path d="M 401.590034 343.414432 
L 421.590034 343.414432 
" style="fill:none;stroke:#be1e3c;stroke-linecap:round;"/>
    </g>
    <g id="line2d_70"/>
    <g id="text_25">
     <text style="fill:#262626;font-family:Arial;font-size:10px;font-style:normal;font-weight:400;text-anchor:start;" transform="rotate(-0, 429.590034, 346.914432)" x="429.590034" y="346.914432">Astrom</text>
    </g>
    <g id="line2d_71">
     <path d="M 401.590034 357.559744 
L 421.590034 357.559744 
" style="fill:none;stroke:#e16d00;stroke-linecap:round;"/>
    </g>
    <g id="line2d_72"/>
    <g id="text_26">
     <text style="fill:#262626;font-family:Arial;font-size:10px;font-style:normal;font-weight:400;text-anchor:start;" transform="rotate(-0, 429.590034, 361.059744)" x="429.590034" y="361.059744">R2D2</text>
    </g>
   </g>
  </g>
 </g>
 <defs>
  <clipPath id="pb6b34ed750">
   <rect height="145.919828" width="417.401575" x="67.322835" y="51.023622"/>
  </clipPath>
  <clipPath id="pee26b42840">
   <rect height="145.919828" width="417.401575" x="67.322835" y="226.127416"/>
  </clipPath>
 </defs>
</svg>
