<?xml version="1.0" encoding="utf-8" standalone="no"?>
<!DOCTYPE svg PUBLIC "-//W3C//DTD SVG 1.1//EN"
  "http://www.w3.org/Graphics/SVG/1.1/DTD/svg11.dtd">
<!-- Created with matplotlib (http://matplotlib.org/) -->
<svg height="425pt" version="1.1" viewBox="0 0 538 425" width="538pt" xmlns="http://www.w3.org/2000/svg" xmlns:xlink="http://www.w3.org/1999/xlink">
 <defs>
  <style type="text/css">
*{stroke-linecap:butt;stroke-linejoin:round;}
  </style>
 </defs>
 <g id="figure_1">
  <g id="patch_1">
   <path d="M 0 425.19685 
L 538.582677 425.19685 
L 538.582677 0 
L 0 0 
z
" style="fill:#ffffff;"/>
  </g>
  <g id="axes_1">
   <g id="patch_2">
    <path d="M 67.322835 196.94345 
L 484.724409 196.94345 
L 484.724409 51.023622 
L 67.322835 51.023622 
z
" style="fill:#ffffff;"/>
   </g>
   <g id="matplotlib.axis_1">
    <g id="xtick_1">
     <g id="line2d_1">
      <path clip-path="url(#p6068c23696)" d="M 86.295634 196.94345 
L 86.295634 51.023622 
" style="fill:none;stroke:#cccccc;stroke-linecap:round;stroke-width:0.8;"/>
     </g>
     <g id="line2d_2"/>
    </g>
    <g id="xtick_2">
     <g id="line2d_3">
      <path clip-path="url(#p6068c23696)" d="M 133.727631 196.94345 
L 133.727631 51.023622 
" style="fill:none;stroke:#cccccc;stroke-linecap:round;stroke-width:0.8;"/>
     </g>
     <g id="line2d_4"/>
    </g>
    <g id="xtick_3">
     <g id="line2d_5">
      <path clip-path="url(#p6068c23696)" d="M 181.159628 196.94345 
L 181.159628 51.023622 
" style="fill:none;stroke:#cccccc;stroke-linecap:round;stroke-width:0.8;"/>
     </g>
     <g id="line2d_6"/>
    </g>
    <g id="xtick_4">
     <g id="line2d_7">
      <path clip-path="url(#p6068c23696)" d="M 228.591625 196.94345 
L 228.591625 51.023622 
" style="fill:none;stroke:#cccccc;stroke-linecap:round;stroke-width:0.8;"/>
     </g>
     <g id="line2d_8"/>
    </g>
    <g id="xtick_5">
     <g id="line2d_9">
      <path clip-path="url(#p6068c23696)" d="M 276.023622 196.94345 
L 276.023622 51.023622 
" style="fill:none;stroke:#cccccc;stroke-linecap:round;stroke-width:0.8;"/>
     </g>
     <g id="line2d_10"/>
    </g>
    <g id="xtick_6">
     <g id="line2d_11">
      <path clip-path="url(#p6068c23696)" d="M 323.455619 196.94345 
L 323.455619 51.023622 
" style="fill:none;stroke:#cccccc;stroke-linecap:round;stroke-width:0.8;"/>
     </g>
     <g id="line2d_12"/>
    </g>
    <g id="xtick_7">
     <g id="line2d_13">
      <path clip-path="url(#p6068c23696)" d="M 370.887616 196.94345 
L 370.887616 51.023622 
" style="fill:none;stroke:#cccccc;stroke-linecap:round;stroke-width:0.8;"/>
     </g>
     <g id="line2d_14"/>
    </g>
    <g id="xtick_8">
     <g id="line2d_15">
      <path clip-path="url(#p6068c23696)" d="M 418.319613 196.94345 
L 418.319613 51.023622 
" style="fill:none;stroke:#cccccc;stroke-linecap:round;stroke-width:0.8;"/>
     </g>
     <g id="line2d_16"/>
    </g>
    <g id="xtick_9">
     <g id="line2d_17">
      <path clip-path="url(#p6068c23696)" d="M 465.751611 196.94345 
L 465.751611 51.023622 
" style="fill:none;stroke:#cccccc;stroke-linecap:round;stroke-width:0.8;"/>
     </g>
     <g id="line2d_18"/>
    </g>
   </g>
   <g id="matplotlib.axis_2">
    <g id="ytick_1">
     <g id="line2d_19">
      <path clip-path="url(#p6068c23696)" d="M 67.322835 179.139628 
L 484.724409 179.139628 
" style="fill:none;stroke:#cccccc;stroke-linecap:round;stroke-width:0.8;"/>
     </g>
     <g id="line2d_20"/>
     <g id="text_1">
      <text style="fill:#262626;font-family:Arial;font-size:10px;font-style:normal;font-weight:400;text-anchor:end;" transform="rotate(-0, 63.822835, 182.718534)" x="63.822835" y="182.718534">0.00</text>
     </g>
    </g>
    <g id="ytick_2">
     <g id="line2d_21">
      <path clip-path="url(#p6068c23696)" d="M 67.322835 158.089353 
L 484.724409 158.089353 
" style="fill:none;stroke:#cccccc;stroke-linecap:round;stroke-width:0.8;"/>
     </g>
     <g id="line2d_22"/>
     <g id="text_2">
      <text style="fill:#262626;font-family:Arial;font-size:10px;font-style:normal;font-weight:400;text-anchor:end;" transform="rotate(-0, 63.822835, 161.668259)" x="63.822835" y="161.668259">0.25</text>
     </g>
    </g>
    <g id="ytick_3">
     <g id="line2d_23">
      <path clip-path="url(#p6068c23696)" d="M 67.322835 137.039078 
L 484.724409 137.039078 
" style="fill:none;stroke:#cccccc;stroke-linecap:round;stroke-width:0.8;"/>
     </g>
     <g id="line2d_24"/>
     <g id="text_3">
      <text style="fill:#262626;font-family:Arial;font-size:10px;font-style:normal;font-weight:400;text-anchor:end;" transform="rotate(-0, 63.822835, 140.617984)" x="63.822835" y="140.617984">0.50</text>
     </g>
    </g>
    <g id="ytick_4">
     <g id="line2d_25">
      <path clip-path="url(#p6068c23696)" d="M 67.322835 115.988803 
L 484.724409 115.988803 
" style="fill:none;stroke:#cccccc;stroke-linecap:round;stroke-width:0.8;"/>
     </g>
     <g id="line2d_26"/>
     <g id="text_4">
      <text style="fill:#262626;font-family:Arial;font-size:10px;font-style:normal;font-weight:400;text-anchor:end;" transform="rotate(-0, 63.822835, 119.567709)" x="63.822835" y="119.567709">0.75</text>
     </g>
    </g>
    <g id="ytick_5">
     <g id="line2d_27">
      <path clip-path="url(#p6068c23696)" d="M 67.322835 94.938528 
L 484.724409 94.938528 
" style="fill:none;stroke:#cccccc;stroke-linecap:round;stroke-width:0.8;"/>
     </g>
     <g id="line2d_28"/>
     <g id="text_5">
      <text style="fill:#262626;font-family:Arial;font-size:10px;font-style:normal;font-weight:400;text-anchor:end;" transform="rotate(-0, 63.822835, 98.517434)" x="63.822835" y="98.517434">1.00</text>
     </g>
    </g>
    <g id="ytick_6">
     <g id="line2d_29">
      <path clip-path="url(#p6068c23696)" d="M 67.322835 73.888253 
L 484.724409 73.888253 
" style="fill:none;stroke:#cccccc;stroke-linecap:round;stroke-width:0.8;"/>
     </g>
     <g id="line2d_30"/>
     <g id="text_6">
      <text style="fill:#262626;font-family:Arial;font-size:10px;font-style:normal;font-weight:400;text-anchor:end;" transform="rotate(-0, 63.822835, 77.467159)" x="63.822835" y="77.467159">1.25</text>
     </g>
    </g>
    <g id="ytick_7">
     <g id="line2d_31">
      <path clip-path="url(#p6068c23696)" d="M 67.322835 52.837978 
L 484.724409 52.837978 
" style="fill:none;stroke:#cccccc;stroke-linecap:round;stroke-width:0.8;"/>
     </g>
     <g id="line2d_32"/>
     <g id="text_7">
      <text style="fill:#262626;font-family:Arial;font-size:10px;font-style:normal;font-weight:400;text-anchor:end;" transform="rotate(-0, 63.822835, 56.416884)" x="63.822835" y="56.416884">1.50</text>
     </g>
    </g>
    <g id="text_8">
     <!-- $y_1$ -->
     <g style="fill:#262626;" transform="translate(38.261897 129.333536)rotate(-90)">
      <text>
       <tspan style="font-family:DejaVu Sans;font-size:10px;font-style:oblique;font-weight:oblique;" x="0" y="-0.53125">y</tspan>
       <tspan style="font-family:DejaVu Sans;font-size:7px;font-style:book;font-weight:book;" x="5.917969" y="1.109375">1</tspan>
      </text>
     </g>
    </g>
   </g>
   <g id="line2d_33">
    <path clip-path="url(#p6068c23696)" d="M 86.295634 179.139628 
L 86.40947 179.242544 
L 86.618171 179.846991 
L 87.111464 182.210514 
L 87.699621 184.628475 
L 88.041131 185.268371 
L 88.268805 185.319845 
L 88.477505 185.102064 
L 88.762097 184.412461 
L 89.160526 182.750918 
L 89.710737 179.345192 
L 90.507595 172.808878 
L 92.120283 157.225059 
L 93.903726 140.852029 
L 95.212849 130.82692 
L 96.408135 123.302482 
L 97.565476 117.386185 
L 98.703844 112.698096 
L 99.823239 109.002771 
L 100.942634 106.055745 
L 102.062029 103.714595 
L 103.200397 101.83037 
L 104.376711 100.301023 
L 105.609943 99.057203 
L 106.919066 98.049831 
L 108.360999 97.222682 
L 109.992659 96.548107 
L 111.908912 96.004087 
L 114.261539 95.577806 
L 117.31616 95.267092 
L 121.679903 95.068866 
L 129.648479 94.962403 
L 160.137767 94.938261 
L 276.232323 94.800108 
L 276.516915 94.274317 
L 277.02918 92.760834 
L 278.58495 87.929375 
L 279.267971 86.589215 
L 279.856127 85.887375 
L 280.387366 85.575683 
L 280.899631 85.522757 
L 281.449843 85.691516 
L 282.11389 86.142116 
L 282.986639 87.028734 
L 284.314735 88.737284 
L 287.843676 93.388041 
L 289.3615 94.961832 
L 290.78446 96.12524 
L 292.169474 96.976948 
L 293.592434 97.594418 
L 295.110258 98.009716 
L 296.779864 98.233681 
L 298.734062 98.264673 
L 301.219499 98.068707 
L 305.070977 97.513975 
L 313.684628 96.240398 
L 319.034957 95.712536 
L 325.125225 95.34446 
L 333.036883 95.10355 
L 345.407147 94.976102 
L 377.471178 94.938936 
L 465.751611 94.938521 
L 465.751611 94.938521 
" style="fill:none;stroke:#000000;stroke-dasharray:3.7,1.6;stroke-dashoffset:0;"/>
   </g>
   <g id="line2d_34">
    <path clip-path="url(#p6068c23696)" d="M 86.295634 179.139628 
L 86.485361 178.818069 
L 86.864817 176.746215 
L 87.623729 169.937857 
L 89.521009 152.058615 
L 90.659377 143.625938 
L 91.797745 136.835087 
L 92.936113 131.287823 
L 94.264209 125.951771 
L 95.592305 121.509146 
L 97.110129 117.245276 
L 98.627953 113.666415 
L 100.145777 110.6495 
L 101.663601 108.106111 
L 103.181424 105.965143 
L 104.888976 103.962555 
L 106.596528 102.319214 
L 108.30408 100.973086 
L 110.20136 99.761832 
L 112.288368 98.707069 
L 114.565104 97.817257 
L 117.031568 97.089179 
L 120.067215 96.440592 
L 123.672047 95.919101 
L 128.035791 95.524376 
L 133.917359 95.231215 
L 142.644846 95.042949 
L 158.961453 94.95392 
L 231.437545 94.937863 
L 276.023622 94.938554 
L 276.023622 94.938554 
L 276.21335 94.321456 
L 276.592806 90.729368 
L 277.920902 75.327444 
L 278.490086 71.096558 
L 279.05927 68.39426 
L 279.628454 66.907042 
L 280.00791 66.441916 
L 280.387366 66.305842 
L 280.766822 66.431166 
L 281.336006 66.987922 
L 282.094918 68.196261 
L 283.233286 70.531777 
L 286.648389 77.83247 
L 288.355941 80.867575 
L 289.873765 83.145059 
L 291.391589 85.064255 
L 293.099141 86.860627 
L 294.806693 88.33369 
L 296.703973 89.658665 
L 298.601253 90.719069 
L 300.688261 91.641524 
L 303.154724 92.47495 
L 306.000644 93.178519 
L 309.22602 93.737064 
L 313.210308 94.188515 
L 318.332963 94.529385 
L 325.542627 94.763819 
L 337.305762 94.895008 
L 367.282785 94.937114 
L 465.751611 94.938519 
L 465.751611 94.938519 
" style="fill:none;stroke:#00709b;stroke-linecap:round;"/>
   </g>
   <g id="line2d_35">
    <path clip-path="url(#p6068c23696)" d="M 86.295634 179.139628 
L 86.485361 179.55409 
L 86.864817 182.148012 
L 87.623729 188.63073 
L 88.003185 190.21143 
L 88.192913 190.310731 
L 88.382641 189.915164 
L 88.762097 187.670233 
L 89.141553 183.701975 
L 89.900465 172.31762 
L 91.418289 148.494986 
L 92.177201 140.325835 
L 92.936113 134.856323 
L 93.695025 131.105983 
L 96.920401 118.047852 
L 98.248497 113.240562 
L 99.197137 110.539499 
L 100.335505 107.987815 
L 101.663601 105.614924 
L 103.181424 103.370786 
L 104.699248 101.541869 
L 106.027344 100.272841 
L 107.545168 99.135132 
L 109.25272 98.144237 
L 111.15 97.313077 
L 113.237008 96.64296 
L 115.703472 96.090735 
L 118.73912 95.652151 
L 122.723407 95.315202 
L 128.225519 95.096888 
L 137.52219 94.975109 
L 163.325197 94.939543 
L 276.023622 94.938519 
L 276.023622 94.938519 
L 276.21335 94.057273 
L 276.592806 88.246891 
L 277.920902 60.819204 
L 278.300358 57.908448 
L 278.490086 57.656342 
L 278.679814 58.170028 
L 279.05927 61.237927 
L 279.628454 69.590822 
L 281.146278 95.577961 
L 281.715462 101.694021 
L 282.094918 104.222659 
L 282.474374 105.64713 
L 282.85383 106.175513 
L 283.043558 106.179193 
L 283.423014 105.818979 
L 284.181926 104.38571 
L 284.940838 103.028551 
L 285.510021 102.408951 
L 286.079205 102.137339 
L 286.838117 102.102732 
L 287.976485 102.067362 
L 288.735397 101.766347 
L 289.684037 101.069589 
L 292.340229 98.871908 
L 293.668325 98.145402 
L 295.755333 97.290733 
L 298.221797 96.505555 
L 300.498533 96.016849 
L 303.53418 95.601141 
L 307.518468 95.288128 
L 313.400036 95.075551 
L 323.645347 94.965141 
L 357.227201 94.94066 
L 395.362527 94.937537 
L 457.783035 94.939344 
L 465.751611 94.937933 
L 465.751611 94.937933 
" style="fill:none;stroke:#be1e3c;stroke-linecap:round;"/>
   </g>
   <g id="line2d_36">
    <path clip-path="url(#p6068c23696)" d="M 86.295634 179.139628 
L 86.485361 179.449198 
L 86.864817 181.226662 
L 87.623729 185.178678 
L 88.003185 186.147355 
L 88.192913 186.278736 
L 88.382641 186.16875 
L 88.762097 185.244944 
L 89.141553 183.457132 
L 89.710737 179.427843 
L 90.469649 172.250682 
L 92.177201 153.048059 
L 93.884753 134.986718 
L 95.023121 125.060455 
L 96.161489 117.035902 
L 97.110129 111.711143 
L 98.058769 107.475476 
L 99.007409 104.166983 
L 99.956049 101.625912 
L 100.904689 99.704969 
L 101.853329 98.274615 
L 102.801969 97.225104 
L 103.750608 96.466793 
L 104.888976 95.841683 
L 106.217072 95.387863 
L 107.924624 95.078526 
L 110.20136 94.920403 
L 114.565104 94.893102 
L 140.36811 94.938387 
L 276.023622 94.938368 
L 276.023622 94.938368 
L 276.21335 94.656536 
L 276.592806 92.907275 
L 278.300358 82.675722 
L 278.869542 81.042417 
L 279.248998 80.5275 
L 279.628454 80.410003 
L 280.00791 80.631187 
L 280.387366 81.131713 
L 280.95655 82.281071 
L 281.90519 84.847764 
L 284.561382 92.491607 
L 285.699749 95.01394 
L 286.648389 96.640238 
L 287.597029 97.858538 
L 288.545669 98.715982 
L 289.494309 99.268914 
L 290.442949 99.576268 
L 291.581317 99.697306 
L 292.909413 99.596698 
L 294.806693 99.185724 
L 304.672548 96.624706 
L 308.467108 96.058489 
L 313.02058 95.622388 
L 318.902147 95.301578 
L 327.250179 95.08651 
L 341.669506 94.970344 
L 383.599392 94.939022 
L 465.751611 94.938437 
L 465.751611 94.938437 
" style="fill:none;stroke:#e16d00;stroke-linecap:round;"/>
   </g>
   <g id="patch_3">
    <path d="M 67.322835 196.94345 
L 67.322835 51.023622 
" style="fill:none;stroke:#cccccc;stroke-linecap:square;stroke-linejoin:miter;"/>
   </g>
   <g id="patch_4">
    <path d="M 484.724409 196.94345 
L 484.724409 51.023622 
" style="fill:none;stroke:#cccccc;stroke-linecap:square;stroke-linejoin:miter;"/>
   </g>
   <g id="patch_5">
    <path d="M 67.322835 196.94345 
L 484.724409 196.94345 
" style="fill:none;stroke:#cccccc;stroke-linecap:square;stroke-linejoin:miter;"/>
   </g>
   <g id="patch_6">
    <path d="M 67.322835 51.023622 
L 484.724409 51.023622 
" style="fill:none;stroke:#cccccc;stroke-linecap:square;stroke-linejoin:miter;"/>
   </g>
  </g>
  <g id="axes_2">
   <g id="patch_7">
    <path d="M 67.322835 372.047244 
L 484.724409 372.047244 
L 484.724409 226.127416 
L 67.322835 226.127416 
z
" style="fill:#ffffff;"/>
   </g>
   <g id="matplotlib.axis_3">
    <g id="xtick_10">
     <g id="line2d_37">
      <path clip-path="url(#p8b02fbcc9d)" d="M 86.295634 372.047244 
L 86.295634 226.127416 
" style="fill:none;stroke:#cccccc;stroke-linecap:round;stroke-width:0.8;"/>
     </g>
     <g id="line2d_38"/>
     <g id="text_9">
      <text style="fill:#262626;font-family:Arial;font-size:10px;font-style:normal;font-weight:400;text-anchor:middle;" transform="rotate(-0, 86.295634, 382.705057)" x="86.295634" y="382.705057">0</text>
     </g>
    </g>
    <g id="xtick_11">
     <g id="line2d_39">
      <path clip-path="url(#p8b02fbcc9d)" d="M 133.727631 372.047244 
L 133.727631 226.127416 
" style="fill:none;stroke:#cccccc;stroke-linecap:round;stroke-width:0.8;"/>
     </g>
     <g id="line2d_40"/>
     <g id="text_10">
      <text style="fill:#262626;font-family:Arial;font-size:10px;font-style:normal;font-weight:400;text-anchor:middle;" transform="rotate(-0, 133.727631, 382.705057)" x="133.727631" y="382.705057">25</text>
     </g>
    </g>
    <g id="xtick_12">
     <g id="line2d_41">
      <path clip-path="url(#p8b02fbcc9d)" d="M 181.159628 372.047244 
L 181.159628 226.127416 
" style="fill:none;stroke:#cccccc;stroke-linecap:round;stroke-width:0.8;"/>
     </g>
     <g id="line2d_42"/>
     <g id="text_11">
      <text style="fill:#262626;font-family:Arial;font-size:10px;font-style:normal;font-weight:400;text-anchor:middle;" transform="rotate(-0, 181.159628, 382.705057)" x="181.159628" y="382.705057">50</text>
     </g>
    </g>
    <g id="xtick_13">
     <g id="line2d_43">
      <path clip-path="url(#p8b02fbcc9d)" d="M 228.591625 372.047244 
L 228.591625 226.127416 
" style="fill:none;stroke:#cccccc;stroke-linecap:round;stroke-width:0.8;"/>
     </g>
     <g id="line2d_44"/>
     <g id="text_12">
      <text style="fill:#262626;font-family:Arial;font-size:10px;font-style:normal;font-weight:400;text-anchor:middle;" transform="rotate(-0, 228.591625, 382.705057)" x="228.591625" y="382.705057">75</text>
     </g>
    </g>
    <g id="xtick_14">
     <g id="line2d_45">
      <path clip-path="url(#p8b02fbcc9d)" d="M 276.023622 372.047244 
L 276.023622 226.127416 
" style="fill:none;stroke:#cccccc;stroke-linecap:round;stroke-width:0.8;"/>
     </g>
     <g id="line2d_46"/>
     <g id="text_13">
      <text style="fill:#262626;font-family:Arial;font-size:10px;font-style:normal;font-weight:400;text-anchor:middle;" transform="rotate(-0, 276.023622, 382.705057)" x="276.023622" y="382.705057">100</text>
     </g>
    </g>
    <g id="xtick_15">
     <g id="line2d_47">
      <path clip-path="url(#p8b02fbcc9d)" d="M 323.455619 372.047244 
L 323.455619 226.127416 
" style="fill:none;stroke:#cccccc;stroke-linecap:round;stroke-width:0.8;"/>
     </g>
     <g id="line2d_48"/>
     <g id="text_14">
      <text style="fill:#262626;font-family:Arial;font-size:10px;font-style:normal;font-weight:400;text-anchor:middle;" transform="rotate(-0, 323.455619, 382.705057)" x="323.455619" y="382.705057">125</text>
     </g>
    </g>
    <g id="xtick_16">
     <g id="line2d_49">
      <path clip-path="url(#p8b02fbcc9d)" d="M 370.887616 372.047244 
L 370.887616 226.127416 
" style="fill:none;stroke:#cccccc;stroke-linecap:round;stroke-width:0.8;"/>
     </g>
     <g id="line2d_50"/>
     <g id="text_15">
      <text style="fill:#262626;font-family:Arial;font-size:10px;font-style:normal;font-weight:400;text-anchor:middle;" transform="rotate(-0, 370.887616, 382.705057)" x="370.887616" y="382.705057">150</text>
     </g>
    </g>
    <g id="xtick_17">
     <g id="line2d_51">
      <path clip-path="url(#p8b02fbcc9d)" d="M 418.319613 372.047244 
L 418.319613 226.127416 
" style="fill:none;stroke:#cccccc;stroke-linecap:round;stroke-width:0.8;"/>
     </g>
     <g id="line2d_52"/>
     <g id="text_16">
      <text style="fill:#262626;font-family:Arial;font-size:10px;font-style:normal;font-weight:400;text-anchor:middle;" transform="rotate(-0, 418.319613, 382.705057)" x="418.319613" y="382.705057">175</text>
     </g>
    </g>
    <g id="xtick_18">
     <g id="line2d_53">
      <path clip-path="url(#p8b02fbcc9d)" d="M 465.751611 372.047244 
L 465.751611 226.127416 
" style="fill:none;stroke:#cccccc;stroke-linecap:round;stroke-width:0.8;"/>
     </g>
     <g id="line2d_54"/>
     <g id="text_17">
      <text style="fill:#262626;font-family:Arial;font-size:10px;font-style:normal;font-weight:400;text-anchor:middle;" transform="rotate(-0, 465.751611, 382.705057)" x="465.751611" y="382.705057">200</text>
     </g>
    </g>
    <g id="text_18">
     <text style="fill:#262626;font-family:Arial;font-size:10px;font-style:normal;font-weight:400;text-anchor:middle;" transform="rotate(-0, 276.023622, 395.850369)" x="276.023622" y="395.850369">Time [s]</text>
    </g>
   </g>
   <g id="matplotlib.axis_4">
    <g id="ytick_8">
     <g id="line2d_55">
      <path clip-path="url(#p8b02fbcc9d)" d="M 67.322835 365.408759 
L 484.724409 365.408759 
" style="fill:none;stroke:#cccccc;stroke-linecap:round;stroke-width:0.8;"/>
     </g>
     <g id="line2d_56"/>
     <g id="text_19">
      <text style="fill:#262626;font-family:Arial;font-size:10px;font-style:normal;font-weight:400;text-anchor:end;" transform="rotate(-0, 63.822835, 368.987665)" x="63.822835" y="368.987665">0.0</text>
     </g>
    </g>
    <g id="ytick_9">
     <g id="line2d_57">
      <path clip-path="url(#p8b02fbcc9d)" d="M 67.322835 338.894431 
L 484.724409 338.894431 
" style="fill:none;stroke:#cccccc;stroke-linecap:round;stroke-width:0.8;"/>
     </g>
     <g id="line2d_58"/>
     <g id="text_20">
      <text style="fill:#262626;font-family:Arial;font-size:10px;font-style:normal;font-weight:400;text-anchor:end;" transform="rotate(-0, 63.822835, 342.473337)" x="63.822835" y="342.473337">0.2</text>
     </g>
    </g>
    <g id="ytick_10">
     <g id="line2d_59">
      <path clip-path="url(#p8b02fbcc9d)" d="M 67.322835 312.380103 
L 484.724409 312.380103 
" style="fill:none;stroke:#cccccc;stroke-linecap:round;stroke-width:0.8;"/>
     </g>
     <g id="line2d_60"/>
     <g id="text_21">
      <text style="fill:#262626;font-family:Arial;font-size:10px;font-style:normal;font-weight:400;text-anchor:end;" transform="rotate(-0, 63.822835, 315.959009)" x="63.822835" y="315.959009">0.4</text>
     </g>
    </g>
    <g id="ytick_11">
     <g id="line2d_61">
      <path clip-path="url(#p8b02fbcc9d)" d="M 67.322835 285.865775 
L 484.724409 285.865775 
" style="fill:none;stroke:#cccccc;stroke-linecap:round;stroke-width:0.8;"/>
     </g>
     <g id="line2d_62"/>
     <g id="text_22">
      <text style="fill:#262626;font-family:Arial;font-size:10px;font-style:normal;font-weight:400;text-anchor:end;" transform="rotate(-0, 63.822835, 289.444681)" x="63.822835" y="289.444681">0.6</text>
     </g>
    </g>
    <g id="ytick_12">
     <g id="line2d_63">
      <path clip-path="url(#p8b02fbcc9d)" d="M 67.322835 259.351447 
L 484.724409 259.351447 
" style="fill:none;stroke:#cccccc;stroke-linecap:round;stroke-width:0.8;"/>
     </g>
     <g id="line2d_64"/>
     <g id="text_23">
      <text style="fill:#262626;font-family:Arial;font-size:10px;font-style:normal;font-weight:400;text-anchor:end;" transform="rotate(-0, 63.822835, 262.930353)" x="63.822835" y="262.930353">0.8</text>
     </g>
    </g>
    <g id="ytick_13">
     <g id="line2d_65">
      <path clip-path="url(#p8b02fbcc9d)" d="M 67.322835 232.837119 
L 484.724409 232.837119 
" style="fill:none;stroke:#cccccc;stroke-linecap:round;stroke-width:0.8;"/>
     </g>
     <g id="line2d_66"/>
     <g id="text_24">
      <text style="fill:#262626;font-family:Arial;font-size:10px;font-style:normal;font-weight:400;text-anchor:end;" transform="rotate(-0, 63.822835, 236.416025)" x="63.822835" y="236.416025">1.0</text>
     </g>
    </g>
    <g id="text_25">
     <!-- $y_2$ -->
     <g style="fill:#262626;" transform="translate(43.822835 304.43733)rotate(-90)">
      <text>
       <tspan style="font-family:DejaVu Sans;font-size:10px;font-style:oblique;font-weight:oblique;" x="0" y="-0.53125">y</tspan>
       <tspan style="font-family:DejaVu Sans;font-size:7px;font-style:book;font-weight:book;" x="5.917969" y="1.109375">2</tspan>
      </text>
     </g>
    </g>
   </g>
   <g id="line2d_67">
    <path clip-path="url(#p8b02fbcc9d)" d="M 86.295634 365.408759 
L 276.308214 365.299125 
L 276.649724 364.899322 
L 277.086099 364.001453 
L 277.655283 362.26233 
L 278.395222 359.206652 
L 279.362835 354.169433 
L 280.690931 345.962482 
L 283.005612 330.00625 
L 286.401743 306.89537 
L 288.488751 294.247919 
L 290.348085 284.301227 
L 292.093583 276.131017 
L 293.782162 269.26314 
L 295.413822 263.526866 
L 297.02651 258.648271 
L 298.620225 254.518672 
L 300.213941 250.996835 
L 301.807656 248.007082 
L 303.401371 245.479523 
L 305.033031 243.304338 
L 306.702638 241.447508 
L 308.429162 239.858885 
L 310.231578 238.500751 
L 312.147831 237.334261 
L 314.215866 236.335717 
L 316.492602 235.484557 
L 319.072903 234.762122 
L 322.051632 234.165265 
L 325.618518 233.68541 
L 330.077126 233.319534 
L 336.148422 233.059513 
L 345.539957 232.903143 
L 365.783933 232.841046 
L 465.751611 232.837097 
L 465.751611 232.837097 
" style="fill:none;stroke:#000000;stroke-dasharray:3.7,1.6;stroke-dashoffset:0;"/>
   </g>
   <g id="line2d_68">
    <path clip-path="url(#p8b02fbcc9d)" d="M 86.295634 365.408759 
L 86.485361 364.890247 
L 86.864817 361.410145 
L 87.434001 352.695859 
L 89.141553 324.093575 
L 89.900465 315.164088 
L 90.469649 310.432056 
L 91.038833 307.249865 
L 91.608017 305.419004 
L 91.987473 304.841762 
L 92.366929 304.703705 
L 92.746385 304.942812 
L 93.125841 305.501361 
L 93.695025 306.820642 
L 94.453937 309.253437 
L 95.592305 313.777066 
L 99.956049 332.018278 
L 101.663601 337.852537 
L 103.181424 342.267025 
L 104.699248 346.014711 
L 106.217072 349.173027 
L 107.734896 351.826407 
L 109.25272 354.051683 
L 110.770544 355.914972 
L 112.478096 357.649178 
L 114.185648 359.066366 
L 116.082928 360.340093 
L 118.169936 361.449057 
L 120.446671 362.384029 
L 122.913135 363.14879 
L 125.759055 363.793806 
L 129.174159 364.329923 
L 133.348175 364.750074 
L 138.850286 365.064557 
L 146.818862 365.274494 
L 160.858733 365.382997 
L 207.34209 365.407899 
L 276.023622 365.408644 
L 276.023622 365.408644 
L 276.21335 364.899741 
L 276.592806 361.64128 
L 277.351718 350.915293 
L 279.248998 322.771134 
L 280.387366 309.494668 
L 281.525734 298.80443 
L 282.664102 290.068733 
L 283.992198 281.667656 
L 285.320293 274.669289 
L 286.648389 268.73141 
L 288.166213 262.976738 
L 289.684037 258.126676 
L 291.201861 254.034833 
L 292.719685 250.588862 
L 294.237509 247.693434 
L 295.755333 245.263955 
L 297.273157 243.228018 
L 298.980709 241.331474 
L 300.688261 239.77988 
L 302.395812 238.510825 
L 304.293092 237.37042 
L 306.3801 236.378933 
L 308.656836 235.543232 
L 311.313028 234.813937 
L 314.348676 234.21759 
L 317.953508 233.738517 
L 322.506979 233.363114 
L 328.768003 233.088206 
L 338.254402 232.919018 
L 357.416929 232.846 
L 465.751611 232.837136 
L 465.751611 232.837136 
" style="fill:none;stroke:#00709b;stroke-linecap:round;"/>
   </g>
   <g id="line2d_69">
    <path clip-path="url(#p8b02fbcc9d)" d="M 86.295634 365.408759 
L 276.023622 365.408759 
L 276.023622 365.408759 
L 276.21335 365.050515 
L 276.592806 362.472008 
L 277.16199 355.160762 
L 277.920902 341.629336 
L 280.766822 287.428245 
L 281.90519 271.280075 
L 282.85383 260.815909 
L 283.80247 252.762415 
L 284.75111 246.726147 
L 285.699749 242.307197 
L 286.458661 239.690763 
L 287.217573 237.715232 
L 287.976485 236.244066 
L 288.735397 235.164057 
L 289.684037 234.225758 
L 290.632677 233.61649 
L 291.771045 233.176697 
L 293.099141 232.912854 
L 294.996421 232.777698 
L 298.980709 232.781583 
L 313.02058 232.837043 
L 465.751611 232.837119 
L 465.751611 232.837119 
" style="fill:none;stroke:#be1e3c;stroke-linecap:round;"/>
   </g>
   <g id="line2d_70">
    <path clip-path="url(#p8b02fbcc9d)" d="M 86.295634 365.408759 
L 276.023622 365.408759 
L 276.023622 365.408759 
L 276.21335 365.287937 
L 276.592806 364.404075 
L 276.972262 362.809954 
L 277.541446 359.421391 
L 278.490086 352.049636 
L 280.387366 334.79898 
L 282.664102 314.715519 
L 284.371654 301.584175 
L 285.889477 291.484975 
L 287.407301 282.779834 
L 288.925125 275.324537 
L 290.442949 268.961849 
L 291.960773 263.542159 
L 293.478597 258.931152 
L 294.996421 255.010612 
L 296.514245 251.677996 
L 298.032069 248.845672 
L 299.549893 246.438868 
L 301.257445 244.160903 
L 302.964996 242.264514 
L 304.672548 240.6857 
L 306.569828 239.239481 
L 308.467108 238.059719 
L 310.554116 237.011492 
L 312.830852 236.106379 
L 315.487044 235.295312 
L 318.522691 234.611846 
L 322.127523 234.042681 
L 326.491267 233.591989 
L 331.993379 233.255533 
L 339.772226 233.020161 
L 352.673729 232.883373 
L 384.358304 232.838645 
L 465.751611 232.836698 
L 465.751611 232.836698 
" style="fill:none;stroke:#e16d00;stroke-linecap:round;"/>
   </g>
   <g id="patch_8">
    <path d="M 67.322835 372.047244 
L 67.322835 226.127416 
" style="fill:none;stroke:#cccccc;stroke-linecap:square;stroke-linejoin:miter;"/>
   </g>
   <g id="patch_9">
    <path d="M 484.724409 372.047244 
L 484.724409 226.127416 
" style="fill:none;stroke:#cccccc;stroke-linecap:square;stroke-linejoin:miter;"/>
   </g>
   <g id="patch_10">
    <path d="M 67.322835 372.047244 
L 484.724409 372.047244 
" style="fill:none;stroke:#cccccc;stroke-linecap:square;stroke-linejoin:miter;"/>
   </g>
   <g id="patch_11">
    <path d="M 67.322835 226.127416 
L 484.724409 226.127416 
" style="fill:none;stroke:#cccccc;stroke-linecap:square;stroke-linejoin:miter;"/>
   </g>
   <g id="legend_1">
    <g id="line2d_71">
     <path d="M 401.590034 315.123807 
L 421.590034 315.123807 
" style="fill:none;stroke:#000000;stroke-dasharray:3.7,1.6;stroke-dashoffset:0;"/>
    </g>
    <g id="line2d_72"/>
    <g id="text_26">
     <text style="fill:#262626;font-family:Arial;font-size:10px;font-style:normal;font-weight:400;text-anchor:start;" transform="rotate(-0, 429.590034, 318.623807)" x="429.590034" y="318.623807">Reference</text>
    </g>
    <g id="line2d_73">
     <path d="M 401.590034 329.269119 
L 421.590034 329.269119 
" style="fill:none;stroke:#00709b;stroke-linecap:round;"/>
    </g>
    <g id="line2d_74"/>
    <g id="text_27">
     <text style="fill:#262626;font-family:Arial;font-size:10px;font-style:normal;font-weight:400;text-anchor:start;" transform="rotate(-0, 429.590034, 332.769119)" x="429.590034" y="332.769119">RGA</text>
    </g>
    <g id="line2d_75">
     <path d="M 401.590034 343.414432 
L 421.590034 343.414432 
" style="fill:none;stroke:#be1e3c;stroke-linecap:round;"/>
    </g>
    <g id="line2d_76"/>
    <g id="text_28">
     <text style="fill:#262626;font-family:Arial;font-size:10px;font-style:normal;font-weight:400;text-anchor:start;" transform="rotate(-0, 429.590034, 346.914432)" x="429.590034" y="346.914432">Astrom</text>
    </g>
    <g id="line2d_77">
     <path d="M 401.590034 357.559744 
L 421.590034 357.559744 
" style="fill:none;stroke:#e16d00;stroke-linecap:round;"/>
    </g>
    <g id="line2d_78"/>
    <g id="text_29">
     <text style="fill:#262626;font-family:Arial;font-size:10px;font-style:normal;font-weight:400;text-anchor:start;" transform="rotate(-0, 429.590034, 361.059744)" x="429.590034" y="361.059744">R2D2</text>
    </g>
   </g>
  </g>
 </g>
 <defs>
  <clipPath id="p6068c23696">
   <rect height="145.919828" width="417.401575" x="67.322835" y="51.023622"/>
  </clipPath>
  <clipPath id="p8b02fbcc9d">
   <rect height="145.919828" width="417.401575" x="67.322835" y="226.127416"/>
  </clipPath>
 </defs>
</svg>
