<?xml version="1.0" encoding="utf-8" standalone="no"?>
<!DOCTYPE svg PUBLIC "-//W3C//DTD SVG 1.1//EN"
  "http://www.w3.org/Graphics/SVG/1.1/DTD/svg11.dtd">
<!-- Created with matplotlib (http://matplotlib.org/) -->
<svg height="318pt" version="1.1" viewBox="0 0 318 318" width="318pt" xmlns="http://www.w3.org/2000/svg" xmlns:xlink="http://www.w3.org/1999/xlink">
 <defs>
  <style type="text/css">
*{stroke-linecap:butt;stroke-linejoin:round;}
  </style>
 </defs>
 <g id="figure_1">
  <g id="patch_1">
   <path d="M 0 318.897638 
L 318.897638 318.897638 
L 318.897638 0 
L 0 0 
z
" style="fill:#ffffff;"/>
  </g>
  <g id="axes_1">
   <g id="patch_2">
    <path d="M 39.862205 279.035433 
L 287.007874 279.035433 
L 287.007874 38.267717 
L 39.862205 38.267717 
z
" style="fill:#ffffff;"/>
   </g>
   <g id="patch_3">
    <path clip-path="url(#p6a9610e989)" d="M 152.164533 188.817928 
C 177.827459 197.917423 203.630285 203.466934 223.890237 204.244246 
C 244.15019 205.021557 257.213134 200.963205 260.202107 192.962995 
C 263.19108 184.962785 255.862046 173.673898 239.82914 161.58258 
C 223.796234 149.491263 200.368472 137.584717 174.705546 128.485222 
C 149.042619 119.385727 123.239794 113.836216 102.979841 113.058904 
C 82.719889 112.281592 69.656945 116.339944 66.667972 124.340154 
C 63.678999 132.340365 71.008032 143.629252 87.040938 155.720569 
C 103.073844 167.811887 126.501607 179.718433 152.164533 188.817928 
z
" style="fill:#ffffff;stroke:#ffffff;stroke-linejoin:miter;"/>
   </g>
   <g id="patch_4">
    <path clip-path="url(#p6a9610e989)" d="M 152.164533 188.817928 
C 177.827459 197.917423 203.630285 203.466934 223.890237 204.244246 
C 244.15019 205.021557 257.213134 200.963205 260.202107 192.962995 
C 263.19108 184.962785 255.862046 173.673898 239.82914 161.58258 
C 223.796234 149.491263 200.368472 137.584717 174.705546 128.485222 
C 149.042619 119.385727 123.239794 113.836216 102.979841 113.058904 
C 82.719889 112.281592 69.656945 116.339944 66.667972 124.340154 
C 63.678999 132.340365 71.008032 143.629252 87.040938 155.720569 
C 103.073844 167.811887 126.501607 179.718433 152.164533 188.817928 
z
" style="fill:#be1e3c;opacity:0.3;stroke:#be1e3c;stroke-linejoin:miter;"/>
   </g>
   <g id="patch_5">
    <path clip-path="url(#p6a9610e989)" d="M 163.435039 118.523622 
L 167.554134 130.562008 
L 163.47623 130.562008 
L 163.47623 158.651575 
L 163.393848 158.651575 
L 163.393848 130.562008 
L 159.315945 130.562008 
z
" style="fill:#00709b;stroke:#00709b;stroke-linejoin:miter;"/>
   </g>
   <g id="patch_6">
    <path clip-path="url(#p6a9610e989)" d="M 204.625984 158.651575 
L 192.268701 162.66437 
L 192.268701 158.691703 
L 163.435039 158.691703 
L 163.435039 158.611447 
L 192.268701 158.611447 
L 192.268701 154.63878 
z
" style="fill:#00709b;stroke:#00709b;stroke-linejoin:miter;"/>
   </g>
   <g id="patch_7">
    <path clip-path="url(#p6a9610e989)" d="M 202.141866 172.376143 
L 189.121005 172.029567 
L 190.51573 168.29648 
L 163.420951 158.689283 
L 163.449128 158.613867 
L 190.543906 168.221065 
L 191.938632 164.487978 
z
" style="fill:#6d8300;stroke:#6d8300;stroke-linejoin:miter;"/>
   </g>
   <g id="patch_8">
    <path clip-path="url(#p6a9610e989)" d="M 177.523172 120.943634 
L 177.167415 133.628473 
L 173.335439 132.269741 
L 163.473746 158.665299 
L 163.396333 158.63785 
L 173.258026 132.242291 
L 169.42605 130.883559 
z
" style="fill:#6d8300;stroke:#6d8300;stroke-linejoin:miter;"/>
   </g>
   <g id="patch_9">
    <path clip-path="url(#p6a9610e989)" d="M 260.202107 192.962995 
L 247.181245 192.616419 
L 248.575971 188.883333 
L 163.420951 158.689283 
L 163.449128 158.613867 
L 248.604147 188.807917 
L 249.998872 185.074831 
z
" style="fill:#be1e3c;stroke:#be1e3c;stroke-linejoin:miter;"/>
   </g>
   <g id="patch_10">
    <path clip-path="url(#p6a9610e989)" d="M 174.705546 128.485222 
L 174.349789 141.170061 
L 170.517813 139.811329 
L 163.473746 158.665299 
L 163.396333 158.63785 
L 170.440399 139.78388 
L 166.608423 138.425147 
z
" style="fill:#be1e3c;stroke:#be1e3c;stroke-linejoin:miter;"/>
   </g>
   <g id="patch_11">
    <path clip-path="url(#p6a9610e989)" d="M 214.545117 145.812207 
L 203.607785 152.703837 
L 202.589546 148.857008 
L 163.445325 158.690432 
L 163.424754 158.612718 
L 202.568976 148.779294 
L 201.550737 144.932464 
z
" style="fill:#e16d00;stroke:#e16d00;stroke-linejoin:miter;"/>
   </g>
   <g id="patch_12">
    <path clip-path="url(#p6a9610e989)" d="M 80.497414 114.806016 
L 93.323186 117.020882 
L 91.378194 120.512561 
L 163.454686 158.616305 
L 163.415393 158.686844 
L 91.338901 120.5831 
L 89.393909 124.074779 
z
" style="fill:#e16d00;stroke:#e16d00;stroke-linejoin:miter;"/>
   </g>
   <g id="patch_13">
    <path d="M 39.862205 279.035433 
L 39.862205 38.267717 
" style="fill:none;stroke:#cccccc;stroke-linecap:square;stroke-linejoin:miter;"/>
   </g>
   <g id="patch_14">
    <path d="M 287.007874 279.035433 
L 287.007874 38.267717 
" style="fill:none;stroke:#cccccc;stroke-linecap:square;stroke-linejoin:miter;"/>
   </g>
   <g id="patch_15">
    <path d="M 39.862205 279.035433 
L 287.007874 279.035433 
" style="fill:none;stroke:#cccccc;stroke-linecap:square;stroke-linejoin:miter;"/>
   </g>
   <g id="patch_16">
    <path d="M 39.862205 38.267717 
L 287.007874 38.267717 
" style="fill:none;stroke:#cccccc;stroke-linecap:square;stroke-linejoin:miter;"/>
   </g>
   <g id="legend_1">
    <g id="patch_17">
     <path d="M 161.631312 54.425529 
L 181.631312 54.425529 
L 181.631312 47.425529 
L 161.631312 47.425529 
z
" style="fill:#00709b;stroke:#00709b;stroke-linejoin:miter;"/>
    </g>
    <g id="text_1">
     <text style="fill:#262626;font-family:Arial;font-size:10px;font-style:normal;font-weight:400;text-anchor:start;" transform="rotate(-0, 189.631312, 54.425529)" x="189.631312" y="54.425529">Input</text>
    </g>
    <g id="patch_18">
     <path d="M 161.631312 68.692717 
L 181.631312 68.692717 
L 181.631312 61.692717 
L 161.631312 61.692717 
z
" style="fill:#6d8300;stroke:#6d8300;stroke-linejoin:miter;"/>
    </g>
    <g id="text_2">
     <text style="fill:#262626;font-family:Arial;font-size:10px;font-style:normal;font-weight:400;text-anchor:start;" transform="rotate(-0, 189.631312, 68.692717)" x="189.631312" y="68.692717">Rotation \ma{V}^*</text>
    </g>
    <g id="patch_19">
     <path d="M 161.631312 83.077092 
L 181.631312 83.077092 
L 181.631312 76.077092 
L 161.631312 76.077092 
z
" style="fill:#be1e3c;stroke:#be1e3c;stroke-linejoin:miter;"/>
    </g>
    <g id="text_3">
     <text style="fill:#262626;font-family:Arial;font-size:10px;font-style:normal;font-weight:400;text-anchor:start;" transform="rotate(-0, 189.631312, 83.077092)" x="189.631312" y="83.077092">Scaling \ma{\sigma}</text>
    </g>
    <g id="patch_20">
     <path d="M 161.631312 97.461467 
L 181.631312 97.461467 
L 181.631312 90.461467 
L 161.631312 90.461467 
z
" style="fill:#e16d00;stroke:#e16d00;stroke-linejoin:miter;"/>
    </g>
    <g id="text_4">
     <text style="fill:#262626;font-family:Arial;font-size:10px;font-style:normal;font-weight:400;text-anchor:start;" transform="rotate(-0, 189.631312, 97.461467)" x="189.631312" y="97.461467">Rotation \ma{U}</text>
    </g>
   </g>
  </g>
 </g>
 <defs>
  <clipPath id="p6a9610e989">
   <rect height="240.767717" width="247.145669" x="39.862205" y="38.267717"/>
  </clipPath>
 </defs>
</svg>
