<?xml version="1.0" encoding="utf-8" standalone="no"?>
<!DOCTYPE svg PUBLIC "-//W3C//DTD SVG 1.1//EN"
  "http://www.w3.org/Graphics/SVG/1.1/DTD/svg11.dtd">
<!-- Created with matplotlib (http://matplotlib.org/) -->
<svg height="212pt" version="1.1" viewBox="0 0 538 212" width="538pt" xmlns="http://www.w3.org/2000/svg" xmlns:xlink="http://www.w3.org/1999/xlink">
 <defs>
  <style type="text/css">
*{stroke-linecap:butt;stroke-linejoin:round;}
  </style>
 </defs>
 <g id="figure_1">
  <g id="patch_1">
   <path d="M 0 212.598425 
L 538.582677 212.598425 
L 538.582677 0 
L 0 0 
z
" style="fill:#ffffff;"/>
  </g>
  <g id="axes_1">
   <g id="patch_2">
    <path d="M 67.322835 186.023622 
L 484.724409 186.023622 
L 484.724409 25.511811 
L 67.322835 25.511811 
z
" style="fill:#ffffff;"/>
   </g>
   <g id="matplotlib.axis_1">
    <g id="xtick_1">
     <g id="line2d_1">
      <path clip-path="url(#p806bd96371)" d="M 97.456103 186.023622 
L 97.456103 25.511811 
" style="fill:none;stroke:#cccccc;stroke-linecap:round;stroke-width:0.8;"/>
     </g>
     <g id="line2d_2"/>
     <g id="text_1">
      <text style="fill:#262626;font-family:Arial;font-size:10px;font-style:normal;font-weight:400;text-anchor:middle;" transform="rotate(-0, 97.456103, 196.681435)" x="97.456103" y="196.681435">1</text>
     </g>
    </g>
    <g id="xtick_2">
     <g id="line2d_3">
      <path clip-path="url(#p806bd96371)" d="M 142.097983 186.023622 
L 142.097983 25.511811 
" style="fill:none;stroke:#cccccc;stroke-linecap:round;stroke-width:0.8;"/>
     </g>
     <g id="line2d_4"/>
     <g id="text_2">
      <text style="fill:#262626;font-family:Arial;font-size:10px;font-style:normal;font-weight:400;text-anchor:middle;" transform="rotate(-0, 142.097983, 196.681435)" x="142.097983" y="196.681435">2</text>
     </g>
    </g>
    <g id="xtick_3">
     <g id="line2d_5">
      <path clip-path="url(#p806bd96371)" d="M 186.739863 186.023622 
L 186.739863 25.511811 
" style="fill:none;stroke:#cccccc;stroke-linecap:round;stroke-width:0.8;"/>
     </g>
     <g id="line2d_6"/>
     <g id="text_3">
      <text style="fill:#262626;font-family:Arial;font-size:10px;font-style:normal;font-weight:400;text-anchor:middle;" transform="rotate(-0, 186.739863, 196.681435)" x="186.739863" y="196.681435">3</text>
     </g>
    </g>
    <g id="xtick_4">
     <g id="line2d_7">
      <path clip-path="url(#p806bd96371)" d="M 231.381742 186.023622 
L 231.381742 25.511811 
" style="fill:none;stroke:#cccccc;stroke-linecap:round;stroke-width:0.8;"/>
     </g>
     <g id="line2d_8"/>
     <g id="text_4">
      <text style="fill:#262626;font-family:Arial;font-size:10px;font-style:normal;font-weight:400;text-anchor:middle;" transform="rotate(-0, 231.381742, 196.681435)" x="231.381742" y="196.681435">4</text>
     </g>
    </g>
    <g id="xtick_5">
     <g id="line2d_9">
      <path clip-path="url(#p806bd96371)" d="M 276.023622 186.023622 
L 276.023622 25.511811 
" style="fill:none;stroke:#cccccc;stroke-linecap:round;stroke-width:0.8;"/>
     </g>
     <g id="line2d_10"/>
     <g id="text_5">
      <text style="fill:#262626;font-family:Arial;font-size:10px;font-style:normal;font-weight:400;text-anchor:middle;" transform="rotate(-0, 276.023622, 196.681435)" x="276.023622" y="196.681435">5</text>
     </g>
    </g>
    <g id="xtick_6">
     <g id="line2d_11">
      <path clip-path="url(#p806bd96371)" d="M 320.665502 186.023622 
L 320.665502 25.511811 
" style="fill:none;stroke:#cccccc;stroke-linecap:round;stroke-width:0.8;"/>
     </g>
     <g id="line2d_12"/>
     <g id="text_6">
      <text style="fill:#262626;font-family:Arial;font-size:10px;font-style:normal;font-weight:400;text-anchor:middle;" transform="rotate(-0, 320.665502, 196.681435)" x="320.665502" y="196.681435">6</text>
     </g>
    </g>
    <g id="xtick_7">
     <g id="line2d_13">
      <path clip-path="url(#p806bd96371)" d="M 365.307381 186.023622 
L 365.307381 25.511811 
" style="fill:none;stroke:#cccccc;stroke-linecap:round;stroke-width:0.8;"/>
     </g>
     <g id="line2d_14"/>
     <g id="text_7">
      <text style="fill:#262626;font-family:Arial;font-size:10px;font-style:normal;font-weight:400;text-anchor:middle;" transform="rotate(-0, 365.307381, 196.681435)" x="365.307381" y="196.681435">7</text>
     </g>
    </g>
    <g id="xtick_8">
     <g id="line2d_15">
      <path clip-path="url(#p806bd96371)" d="M 409.949261 186.023622 
L 409.949261 25.511811 
" style="fill:none;stroke:#cccccc;stroke-linecap:round;stroke-width:0.8;"/>
     </g>
     <g id="line2d_16"/>
     <g id="text_8">
      <text style="fill:#262626;font-family:Arial;font-size:10px;font-style:normal;font-weight:400;text-anchor:middle;" transform="rotate(-0, 409.949261, 196.681435)" x="409.949261" y="196.681435">8</text>
     </g>
    </g>
    <g id="xtick_9">
     <g id="line2d_17">
      <path clip-path="url(#p806bd96371)" d="M 454.591141 186.023622 
L 454.591141 25.511811 
" style="fill:none;stroke:#cccccc;stroke-linecap:round;stroke-width:0.8;"/>
     </g>
     <g id="line2d_18"/>
     <g id="text_9">
      <text style="fill:#262626;font-family:Arial;font-size:10px;font-style:normal;font-weight:400;text-anchor:middle;" transform="rotate(-0, 454.591141, 196.681435)" x="454.591141" y="196.681435">9</text>
     </g>
    </g>
    <g id="text_10">
     <text style="fill:#262626;font-family:Arial;font-size:10px;font-style:normal;font-weight:400;text-anchor:middle;" transform="rotate(-0, 276.023622, 209.826747)" x="276.023622" y="209.826747">Model Order</text>
    </g>
   </g>
   <g id="matplotlib.axis_2">
    <g id="ytick_1">
     <g id="line2d_19">
      <path clip-path="url(#p806bd96371)" d="M 67.322835 186.023622 
L 484.724409 186.023622 
" style="fill:none;stroke:#cccccc;stroke-linecap:round;stroke-width:0.8;"/>
     </g>
     <g id="line2d_20"/>
     <g id="text_11">
      <text style="fill:#262626;font-family:Arial;font-size:10px;font-style:normal;font-weight:400;text-anchor:end;" transform="rotate(-0, 63.822835, 189.602528)" x="63.822835" y="189.602528">0.0</text>
     </g>
    </g>
    <g id="ytick_2">
     <g id="line2d_21">
      <path clip-path="url(#p806bd96371)" d="M 67.322835 153.92126 
L 484.724409 153.92126 
" style="fill:none;stroke:#cccccc;stroke-linecap:round;stroke-width:0.8;"/>
     </g>
     <g id="line2d_22"/>
     <g id="text_12">
      <text style="fill:#262626;font-family:Arial;font-size:10px;font-style:normal;font-weight:400;text-anchor:end;" transform="rotate(-0, 63.822835, 157.500166)" x="63.822835" y="157.500166">0.2</text>
     </g>
    </g>
    <g id="ytick_3">
     <g id="line2d_23">
      <path clip-path="url(#p806bd96371)" d="M 67.322835 121.818898 
L 484.724409 121.818898 
" style="fill:none;stroke:#cccccc;stroke-linecap:round;stroke-width:0.8;"/>
     </g>
     <g id="line2d_24"/>
     <g id="text_13">
      <text style="fill:#262626;font-family:Arial;font-size:10px;font-style:normal;font-weight:400;text-anchor:end;" transform="rotate(-0, 63.822835, 125.397804)" x="63.822835" y="125.397804">0.4</text>
     </g>
    </g>
    <g id="ytick_4">
     <g id="line2d_25">
      <path clip-path="url(#p806bd96371)" d="M 67.322835 89.716535 
L 484.724409 89.716535 
" style="fill:none;stroke:#cccccc;stroke-linecap:round;stroke-width:0.8;"/>
     </g>
     <g id="line2d_26"/>
     <g id="text_14">
      <text style="fill:#262626;font-family:Arial;font-size:10px;font-style:normal;font-weight:400;text-anchor:end;" transform="rotate(-0, 63.822835, 93.295442)" x="63.822835" y="93.295442">0.6</text>
     </g>
    </g>
    <g id="ytick_5">
     <g id="line2d_27">
      <path clip-path="url(#p806bd96371)" d="M 67.322835 57.614173 
L 484.724409 57.614173 
" style="fill:none;stroke:#cccccc;stroke-linecap:round;stroke-width:0.8;"/>
     </g>
     <g id="line2d_28"/>
     <g id="text_15">
      <text style="fill:#262626;font-family:Arial;font-size:10px;font-style:normal;font-weight:400;text-anchor:end;" transform="rotate(-0, 63.822835, 61.193079)" x="63.822835" y="61.193079">0.8</text>
     </g>
    </g>
    <g id="ytick_6">
     <g id="line2d_29">
      <path clip-path="url(#p806bd96371)" d="M 67.322835 25.511811 
L 484.724409 25.511811 
" style="fill:none;stroke:#cccccc;stroke-linecap:round;stroke-width:0.8;"/>
     </g>
     <g id="line2d_30"/>
     <g id="text_16">
      <text style="fill:#262626;font-family:Arial;font-size:10px;font-style:normal;font-weight:400;text-anchor:end;" transform="rotate(-0, 63.822835, 29.090717)" x="63.822835" y="29.090717">1.0</text>
     </g>
    </g>
    <g id="text_17">
     <!-- $\tau$ -->
     <g style="fill:#262626;" transform="translate(43.935335 108.817717)rotate(-90)">
      <text>
       <tspan style="font-family:DejaVu Sans;font-size:10px;font-style:oblique;font-weight:oblique;" x="0" y="-0.53125">τ</tspan>
      </text>
     </g>
    </g>
   </g>
   <g id="PolyCollection_1">
    <defs>
     <path d="M 103.372761 -28.396598 
L 91.539446 -28.396598 
L 89.366155 -28.43524 
L 87.549961 -28.473883 
L 86.470519 -28.512525 
L 86.295634 -28.551168 
L 86.94368 -28.589811 
L 88.152123 -28.628453 
L 89.599288 -28.667096 
L 91.014413 -28.705738 
L 92.233706 -28.744381 
L 93.199512 -28.783024 
L 93.927464 -28.821666 
L 94.468653 -28.860309 
L 94.881712 -28.898951 
L 95.21731 -28.937594 
L 95.510261 -28.976237 
L 95.775505 -29.014879 
L 96.010232 -29.053522 
L 96.20431 -29.092164 
L 96.353087 -29.130807 
L 96.463109 -29.16945 
L 96.548184 -29.208092 
L 96.621187 -29.246735 
L 96.688114 -29.285377 
L 96.747845 -29.32402 
L 96.797462 -29.362663 
L 96.83883 -29.401305 
L 96.880266 -29.439948 
L 96.931094 -29.47859 
L 96.993884 -29.517233 
L 97.061652 -29.555876 
L 97.122414 -29.594518 
L 97.166793 -29.633161 
L 97.192615 -29.671804 
L 97.204186 -29.710446 
L 97.208398 -29.749089 
L 97.21109 -29.787731 
L 97.215446 -29.826374 
L 97.222421 -29.865017 
L 97.23205 -29.903659 
L 97.244246 -29.942302 
L 97.258331 -29.980944 
L 97.272156 -30.019587 
L 97.282524 -30.05823 
L 97.28726 -30.096872 
L 97.286907 -30.135515 
L 97.284007 -30.174157 
L 97.280653 -30.2128 
L 97.277058 -30.251443 
L 97.272791 -30.290085 
L 97.26916 -30.328728 
L 97.269886 -30.36737 
L 97.278974 -30.406013 
L 97.297606 -30.444656 
L 97.322673 -30.483298 
L 97.347917 -30.521941 
L 97.366834 -30.560583 
L 97.375736 -30.599226 
L 97.375477 -30.637869 
L 97.370788 -30.676511 
L 97.367468 -30.715154 
L 97.369202 -30.753796 
L 97.376108 -30.792439 
L 97.385693 -30.831082 
L 97.395113 -30.869724 
L 97.402869 -30.908367 
L 97.408796 -30.94701 
L 97.412826 -30.985652 
L 97.414098 -31.024295 
L 97.411478 -31.062937 
L 97.404969 -31.10158 
L 97.396484 -31.140223 
L 97.389118 -31.178865 
L 97.385565 -31.217508 
L 97.387012 -31.25615 
L 97.39308 -31.294793 
L 97.402274 -31.333436 
L 97.412411 -31.372078 
L 97.42115 -31.410721 
L 97.426881 -31.449363 
L 97.429521 -31.488006 
L 97.430399 -31.526649 
L 97.431177 -31.565291 
L 97.432688 -31.603934 
L 97.434593 -31.642576 
L 97.435896 -31.681219 
L 97.435782 -31.719862 
L 97.434308 -31.758504 
L 97.432617 -31.797147 
L 97.432393 -31.835789 
L 97.434706 -31.874432 
L 97.439136 -31.913075 
L 97.443994 -31.951717 
L 97.447439 -31.99036 
L 97.448516 -32.029002 
L 97.447468 -32.067645 
L 97.445382 -32.106288 
L 97.443582 -32.14493 
L 97.443076 -32.183573 
L 97.444211 -32.222216 
L 97.467996 -32.222216 
L 97.467996 -32.222216 
L 97.469131 -32.183573 
L 97.468625 -32.14493 
L 97.466825 -32.106288 
L 97.464738 -32.067645 
L 97.46369 -32.029002 
L 97.464768 -31.99036 
L 97.468213 -31.951717 
L 97.473071 -31.913075 
L 97.477501 -31.874432 
L 97.479813 -31.835789 
L 97.47959 -31.797147 
L 97.477899 -31.758504 
L 97.476425 -31.719862 
L 97.476311 -31.681219 
L 97.477614 -31.642576 
L 97.479518 -31.603934 
L 97.481029 -31.565291 
L 97.481807 -31.526649 
L 97.482686 -31.488006 
L 97.485325 -31.449363 
L 97.491057 -31.410721 
L 97.499796 -31.372078 
L 97.509933 -31.333436 
L 97.519127 -31.294793 
L 97.525195 -31.25615 
L 97.526642 -31.217508 
L 97.523089 -31.178865 
L 97.515723 -31.140223 
L 97.507238 -31.10158 
L 97.500729 -31.062937 
L 97.498109 -31.024295 
L 97.49938 -30.985652 
L 97.503411 -30.94701 
L 97.509338 -30.908367 
L 97.517094 -30.869724 
L 97.526514 -30.831082 
L 97.536099 -30.792439 
L 97.543005 -30.753796 
L 97.544739 -30.715154 
L 97.541419 -30.676511 
L 97.53673 -30.637869 
L 97.536471 -30.599226 
L 97.545373 -30.560583 
L 97.56429 -30.521941 
L 97.589534 -30.483298 
L 97.614601 -30.444656 
L 97.633233 -30.406013 
L 97.642321 -30.36737 
L 97.643047 -30.328728 
L 97.639416 -30.290085 
L 97.635149 -30.251443 
L 97.631554 -30.2128 
L 97.6282 -30.174157 
L 97.6253 -30.135515 
L 97.624946 -30.096872 
L 97.629683 -30.05823 
L 97.640051 -30.019587 
L 97.653876 -29.980944 
L 97.667961 -29.942302 
L 97.680156 -29.903659 
L 97.689786 -29.865017 
L 97.696761 -29.826374 
L 97.701117 -29.787731 
L 97.703808 -29.749089 
L 97.708021 -29.710446 
L 97.719591 -29.671804 
L 97.745414 -29.633161 
L 97.789793 -29.594518 
L 97.850554 -29.555876 
L 97.918323 -29.517233 
L 97.981113 -29.47859 
L 98.031941 -29.439948 
L 98.073377 -29.401305 
L 98.114744 -29.362663 
L 98.164362 -29.32402 
L 98.224093 -29.285377 
L 98.29102 -29.246735 
L 98.364023 -29.208092 
L 98.449098 -29.16945 
L 98.55912 -29.130807 
L 98.707897 -29.092164 
L 98.901975 -29.053522 
L 99.136702 -29.014879 
L 99.401946 -28.976237 
L 99.694896 -28.937594 
L 100.030494 -28.898951 
L 100.443554 -28.860309 
L 100.984743 -28.821666 
L 101.712695 -28.783024 
L 102.6785 -28.744381 
L 103.897793 -28.705738 
L 105.312919 -28.667096 
L 106.760083 -28.628453 
L 107.968527 -28.589811 
L 108.616573 -28.551168 
L 108.441688 -28.512525 
L 107.362246 -28.473883 
L 105.546052 -28.43524 
L 103.372761 -28.396598 
z
" id="mda8af3e5e3" style="stroke:#be1e3c;stroke-opacity:0.3;"/>
    </defs>
    <g clip-path="url(#p806bd96371)">
     <use style="fill:#be1e3c;fill-opacity:0.3;stroke:#be1e3c;stroke-opacity:0.3;" x="0" xlink:href="#mda8af3e5e3" y="212.598425"/>
    </g>
   </g>
   <g id="PolyCollection_2">
    <defs>
     <path d="M 147.884741 -28.39853 
L 136.311225 -28.39853 
L 134.09454 -28.436436 
L 132.249847 -28.474343 
L 131.145459 -28.512249 
L 130.937513 -28.550155 
L 131.55993 -28.588062 
L 132.778121 -28.625968 
L 134.278894 -28.663874 
L 135.774957 -28.701781 
L 137.079571 -28.739687 
L 138.120337 -28.777593 
L 138.906982 -28.8155 
L 139.487832 -28.853406 
L 139.916978 -28.891312 
L 140.238954 -28.929218 
L 140.487755 -28.967125 
L 140.689964 -29.005031 
L 140.864443 -29.042937 
L 141.020801 -29.080844 
L 141.161344 -29.11875 
L 141.28503 -29.156656 
L 141.389558 -29.194563 
L 141.472186 -29.232469 
L 141.531958 -29.270375 
L 141.572544 -29.308282 
L 141.602026 -29.346188 
L 141.628144 -29.384094 
L 141.653 -29.422001 
L 141.673585 -29.459907 
L 141.688321 -29.497813 
L 141.70159 -29.53572 
L 141.720172 -29.573626 
L 141.746173 -29.611532 
L 141.775425 -29.649438 
L 141.802596 -29.687345 
L 141.825756 -29.725251 
L 141.845423 -29.763157 
L 141.861488 -29.801064 
L 141.873066 -29.83897 
L 141.88053 -29.876876 
L 141.885867 -29.914783 
L 141.890954 -29.952689 
L 141.896623 -29.990595 
L 141.903579 -30.028502 
L 141.912934 -30.066408 
L 141.92489 -30.104314 
L 141.937653 -30.142221 
L 141.948682 -30.180127 
L 141.9568 -30.218033 
L 141.962798 -30.255939 
L 141.96872 -30.293846 
L 141.97706 -30.331752 
L 141.989557 -30.369658 
L 142.005568 -30.407565 
L 142.021924 -30.445471 
L 142.035133 -30.483377 
L 142.043636 -30.521284 
L 142.047789 -30.55919 
L 142.048467 -30.597096 
L 142.046363 -30.635003 
L 142.042186 -30.672909 
L 142.036823 -30.710815 
L 142.031334 -30.748722 
L 142.027093 -30.786628 
L 142.025659 -30.824534 
L 142.027925 -30.86244 
L 142.033308 -30.900347 
L 142.040081 -30.938253 
L 142.046626 -30.976159 
L 142.052423 -31.014066 
L 142.057995 -31.051972 
L 142.063945 -31.089878 
L 142.069876 -31.127785 
L 142.074278 -31.165691 
L 142.075611 -31.203597 
L 142.073629 -31.241504 
L 142.069819 -31.27941 
L 142.066659 -31.317316 
L 142.066127 -31.355223 
L 142.068478 -31.393129 
L 142.072292 -31.431035 
L 142.075786 -31.468941 
L 142.078088 -31.506848 
L 142.079401 -31.544754 
L 142.080302 -31.58266 
L 142.081124 -31.620567 
L 142.081919 -31.658473 
L 142.082747 -31.696379 
L 142.083834 -31.734286 
L 142.085431 -31.772192 
L 142.087489 -31.810098 
L 142.089465 -31.848005 
L 142.090589 -31.885911 
L 142.090507 -31.923817 
L 142.089636 -31.961724 
L 142.088766 -31.99963 
L 142.088334 -32.037536 
L 142.088259 -32.075442 
L 142.088457 -32.113349 
L 142.089188 -32.151255 
L 142.106778 -32.151255 
L 142.106778 -32.151255 
L 142.10751 -32.113349 
L 142.107707 -32.075442 
L 142.107632 -32.037536 
L 142.1072 -31.99963 
L 142.10633 -31.961724 
L 142.105459 -31.923817 
L 142.105377 -31.885911 
L 142.106501 -31.848005 
L 142.108477 -31.810098 
L 142.110535 -31.772192 
L 142.112132 -31.734286 
L 142.113219 -31.696379 
L 142.114047 -31.658473 
L 142.114842 -31.620567 
L 142.115664 -31.58266 
L 142.116565 -31.544754 
L 142.117878 -31.506848 
L 142.12018 -31.468941 
L 142.123674 -31.431035 
L 142.127489 -31.393129 
L 142.129839 -31.355223 
L 142.129308 -31.317316 
L 142.126147 -31.27941 
L 142.122337 -31.241504 
L 142.120355 -31.203597 
L 142.121688 -31.165691 
L 142.12609 -31.127785 
L 142.132021 -31.089878 
L 142.137971 -31.051972 
L 142.143544 -31.014066 
L 142.14934 -30.976159 
L 142.155885 -30.938253 
L 142.162658 -30.900347 
L 142.168041 -30.86244 
L 142.170307 -30.824534 
L 142.168873 -30.786628 
L 142.164632 -30.748722 
L 142.159143 -30.710815 
L 142.15378 -30.672909 
L 142.149603 -30.635003 
L 142.147499 -30.597096 
L 142.148177 -30.55919 
L 142.15233 -30.521284 
L 142.160834 -30.483377 
L 142.174043 -30.445471 
L 142.190398 -30.407565 
L 142.206409 -30.369658 
L 142.218906 -30.331752 
L 142.227246 -30.293846 
L 142.233168 -30.255939 
L 142.239166 -30.218033 
L 142.247284 -30.180127 
L 142.258313 -30.142221 
L 142.271076 -30.104314 
L 142.283032 -30.066408 
L 142.292387 -30.028502 
L 142.299343 -29.990595 
L 142.305012 -29.952689 
L 142.310099 -29.914783 
L 142.315436 -29.876876 
L 142.3229 -29.83897 
L 142.334478 -29.801064 
L 142.350543 -29.763157 
L 142.37021 -29.725251 
L 142.39337 -29.687345 
L 142.420541 -29.649438 
L 142.449793 -29.611532 
L 142.475794 -29.573626 
L 142.494376 -29.53572 
L 142.507645 -29.497813 
L 142.522381 -29.459907 
L 142.542966 -29.422001 
L 142.567823 -29.384094 
L 142.593941 -29.346188 
L 142.623422 -29.308282 
L 142.664008 -29.270375 
L 142.723781 -29.232469 
L 142.806408 -29.194563 
L 142.910936 -29.156656 
L 143.034622 -29.11875 
L 143.175165 -29.080844 
L 143.331523 -29.042937 
L 143.506002 -29.005031 
L 143.708212 -28.967125 
L 143.957012 -28.929218 
L 144.278988 -28.891312 
L 144.708134 -28.853406 
L 145.288984 -28.8155 
L 146.075629 -28.777593 
L 147.116395 -28.739687 
L 148.421009 -28.701781 
L 149.917072 -28.663874 
L 151.417845 -28.625968 
L 152.636036 -28.588062 
L 153.258453 -28.550155 
L 153.050507 -28.512249 
L 151.946119 -28.474343 
L 150.101426 -28.436436 
L 147.884741 -28.39853 
z
" id="md96c3391e3" style="stroke:#ffc82a;stroke-opacity:0.3;"/>
    </defs>
    <g clip-path="url(#p806bd96371)">
     <use style="fill:#ffc82a;fill-opacity:0.3;stroke:#ffc82a;stroke-opacity:0.3;" x="0" xlink:href="#md96c3391e3" y="212.598425"/>
    </g>
   </g>
   <g id="PolyCollection_3">
    <defs>
     <path d="M 186.857925 -37.124 
L 186.621801 -37.124 
L 186.600416 -37.560241 
L 186.581803 -37.996481 
L 186.566727 -38.432721 
L 186.554936 -38.868962 
L 186.545162 -39.305202 
L 186.535411 -39.741442 
L 186.523404 -40.177683 
L 186.507065 -40.613923 
L 186.484905 -41.050163 
L 186.456233 -41.486403 
L 186.42115 -41.922644 
L 186.380356 -42.358884 
L 186.334844 -42.795124 
L 186.285613 -43.231365 
L 186.233543 -43.667605 
L 186.179502 -44.103845 
L 186.124636 -44.540086 
L 186.070663 -44.976326 
L 186.019915 -45.412566 
L 185.975039 -45.848806 
L 185.938373 -46.285047 
L 185.911277 -46.721287 
L 185.893674 -47.157527 
L 185.883956 -47.593768 
L 185.879214 -48.030008 
L 185.875605 -48.466248 
L 185.868701 -48.902489 
L 185.853832 -49.338729 
L 185.826541 -49.774969 
L 185.783279 -50.211209 
L 185.722265 -50.64745 
L 185.644175 -51.08369 
L 185.552253 -51.51993 
L 185.451613 -51.956171 
L 185.347888 -52.392411 
L 185.245763 -52.828651 
L 185.147986 -53.264891 
L 185.055244 -53.701132 
L 184.966792 -54.137372 
L 184.881422 -54.573612 
L 184.798265 -55.009853 
L 184.717154 -55.446093 
L 184.638568 -55.882333 
L 184.563349 -56.318574 
L 184.49236 -56.754814 
L 184.426144 -57.191054 
L 184.364652 -57.627294 
L 184.307121 -58.063535 
L 184.252295 -58.499775 
L 184.199005 -58.936015 
L 184.146901 -59.372256 
L 184.09687 -59.808496 
L 184.050721 -60.244736 
L 184.010044 -60.680977 
L 183.974644 -61.117217 
L 183.941262 -61.553457 
L 183.903228 -61.989697 
L 183.851254 -62.425938 
L 183.775122 -62.862178 
L 183.665705 -63.298418 
L 183.516768 -63.734659 
L 183.326154 -64.170899 
L 183.096147 -64.607139 
L 182.832879 -65.043379 
L 182.544718 -65.47962 
L 182.239791 -65.91586 
L 181.923157 -66.3521 
L 181.594484 -66.788341 
L 181.247237 -67.224581 
L 180.870025 -67.660821 
L 180.450059 -68.097062 
L 179.977822 -68.533302 
L 179.451514 -68.969542 
L 178.87985 -69.405782 
L 178.282322 -69.842023 
L 177.686812 -70.278263 
L 177.125191 -70.714503 
L 176.627947 -71.150744 
L 176.219074 -71.586984 
L 175.91237 -72.023224 
L 175.710029 -72.459465 
L 175.603941 -72.895705 
L 175.579393 -73.331945 
L 175.62017 -73.768185 
L 175.713562 -74.204426 
L 175.853838 -74.640666 
L 176.043274 -75.076906 
L 176.290694 -75.513147 
L 176.608306 -75.949387 
L 177.00802 -76.385627 
L 177.498378 -76.821868 
L 178.082664 -77.258108 
L 178.758095 -77.694348 
L 179.515557 -78.130588 
L 180.339399 -78.566829 
L 181.207245 -79.003069 
L 182.090364 -79.439309 
L 182.955345 -79.87555 
L 183.767485 -80.31179 
L 189.71224 -80.31179 
L 189.71224 -80.31179 
L 190.52438 -79.87555 
L 191.389362 -79.439309 
L 192.27248 -79.003069 
L 193.140326 -78.566829 
L 193.964168 -78.130588 
L 194.72163 -77.694348 
L 195.397061 -77.258108 
L 195.981347 -76.821868 
L 196.471705 -76.385627 
L 196.871419 -75.949387 
L 197.189031 -75.513147 
L 197.436452 -75.076906 
L 197.625887 -74.640666 
L 197.766163 -74.204426 
L 197.859556 -73.768185 
L 197.900333 -73.331945 
L 197.875785 -72.895705 
L 197.769696 -72.459465 
L 197.567355 -72.023224 
L 197.260651 -71.586984 
L 196.851779 -71.150744 
L 196.354535 -70.714503 
L 195.792913 -70.278263 
L 195.197404 -69.842023 
L 194.599876 -69.405782 
L 194.028212 -68.969542 
L 193.501903 -68.533302 
L 193.029666 -68.097062 
L 192.609701 -67.660821 
L 192.232489 -67.224581 
L 191.885241 -66.788341 
L 191.556568 -66.3521 
L 191.239934 -65.91586 
L 190.935007 -65.47962 
L 190.646846 -65.043379 
L 190.383578 -64.607139 
L 190.153572 -64.170899 
L 189.962957 -63.734659 
L 189.81402 -63.298418 
L 189.704604 -62.862178 
L 189.628472 -62.425938 
L 189.576498 -61.989697 
L 189.538464 -61.553457 
L 189.505082 -61.117217 
L 189.469681 -60.680977 
L 189.429004 -60.244736 
L 189.382856 -59.808496 
L 189.332825 -59.372256 
L 189.28072 -58.936015 
L 189.227431 -58.499775 
L 189.172605 -58.063535 
L 189.115074 -57.627294 
L 189.053581 -57.191054 
L 188.987366 -56.754814 
L 188.916376 -56.318574 
L 188.841157 -55.882333 
L 188.762571 -55.446093 
L 188.68146 -55.009853 
L 188.598304 -54.573612 
L 188.512934 -54.137372 
L 188.424481 -53.701132 
L 188.331739 -53.264891 
L 188.233963 -52.828651 
L 188.131838 -52.392411 
L 188.028113 -51.956171 
L 187.927472 -51.51993 
L 187.83555 -51.08369 
L 187.75746 -50.64745 
L 187.696447 -50.211209 
L 187.653185 -49.774969 
L 187.625893 -49.338729 
L 187.611024 -48.902489 
L 187.604121 -48.466248 
L 187.600511 -48.030008 
L 187.595769 -47.593768 
L 187.586052 -47.157527 
L 187.568448 -46.721287 
L 187.541353 -46.285047 
L 187.504686 -45.848806 
L 187.45981 -45.412566 
L 187.409063 -44.976326 
L 187.355089 -44.540086 
L 187.300224 -44.103845 
L 187.246182 -43.667605 
L 187.194112 -43.231365 
L 187.144882 -42.795124 
L 187.09937 -42.358884 
L 187.058575 -41.922644 
L 187.023492 -41.486403 
L 186.994821 -41.050163 
L 186.972661 -40.613923 
L 186.956322 -40.177683 
L 186.944314 -39.741442 
L 186.934563 -39.305202 
L 186.92479 -38.868962 
L 186.912998 -38.432721 
L 186.897923 -37.996481 
L 186.879309 -37.560241 
L 186.857925 -37.124 
z
" id="m14527fdc31" style="stroke:#e16d00;stroke-opacity:0.3;"/>
    </defs>
    <g clip-path="url(#p806bd96371)">
     <use style="fill:#e16d00;fill-opacity:0.3;stroke:#e16d00;stroke-opacity:0.3;" x="0" xlink:href="#m14527fdc31" y="212.598425"/>
    </g>
   </g>
   <g id="PolyCollection_4">
    <defs>
     <path d="M 231.430082 -49.708421 
L 231.333403 -49.708421 
L 231.332647 -50.218424 
L 231.33702 -50.728427 
L 231.344782 -51.23843 
L 231.353151 -51.748433 
L 231.359444 -52.258436 
L 231.36195 -52.76844 
L 231.360187 -53.278443 
L 231.354639 -53.788446 
L 231.34631 -54.298449 
L 231.336371 -54.808452 
L 231.325942 -55.318455 
L 231.315863 -55.828458 
L 231.306345 -56.338462 
L 231.296632 -56.848465 
L 231.285028 -57.358468 
L 231.269576 -57.868471 
L 231.249169 -58.378474 
L 231.224483 -58.888477 
L 231.19811 -59.39848 
L 231.173705 -59.908484 
L 231.154518 -60.418487 
L 231.141971 -60.92849 
L 231.134953 -61.438493 
L 231.130246 -61.948496 
L 231.123981 -62.458499 
L 231.113471 -62.968502 
L 231.098383 -63.478506 
L 231.080573 -63.988509 
L 231.062663 -64.498512 
L 231.046229 -65.008515 
L 231.030603 -65.518518 
L 231.012858 -66.028521 
L 230.988813 -66.538524 
L 230.954478 -67.048528 
L 230.907439 -67.558531 
L 230.847986 -68.068534 
L 230.779864 -68.578537 
L 230.710165 -69.08854 
L 230.647667 -69.598543 
L 230.599504 -70.108546 
L 230.567273 -70.61855 
L 230.544644 -71.128553 
L 230.518137 -71.638556 
L 230.470982 -72.148559 
L 230.387968 -72.658562 
L 230.258691 -73.168565 
L 230.078114 -73.678568 
L 229.845457 -74.188572 
L 229.563224 -74.698575 
L 229.23724 -75.208578 
L 228.877274 -75.718581 
L 228.497529 -76.228584 
L 228.116511 -76.738587 
L 227.755762 -77.24859 
L 227.436534 -77.758594 
L 227.173947 -78.268597 
L 226.970031 -78.7786 
L 226.809228 -79.288603 
L 226.6603 -79.798606 
L 226.485957 -80.308609 
L 226.256806 -80.818612 
L 225.96267 -81.328616 
L 225.615127 -81.838619 
L 225.240708 -82.348622 
L 224.870159 -82.858625 
L 224.530135 -83.368628 
L 224.238901 -83.878631 
L 224.002724 -84.388634 
L 223.810851 -84.898638 
L 223.63286 -85.408641 
L 223.425154 -85.918644 
L 223.148166 -86.428647 
L 222.786162 -86.93865 
L 222.35671 -87.448653 
L 221.902571 -87.958656 
L 221.471179 -88.46866 
L 221.09567 -88.978663 
L 220.788903 -89.488666 
L 220.550521 -89.998669 
L 220.377325 -90.508672 
L 220.267875 -91.018675 
L 220.221272 -91.528678 
L 220.236979 -92.038682 
L 220.319501 -92.548685 
L 220.48315 -93.058688 
L 220.748987 -93.568691 
L 221.133431 -94.078694 
L 221.637875 -94.588697 
L 222.24917 -95.0987 
L 222.950483 -95.608704 
L 223.731745 -96.118707 
L 224.58931 -96.62871 
L 225.514948 -97.138713 
L 226.48396 -97.648716 
L 227.452641 -98.158719 
L 228.367295 -98.668722 
L 229.178729 -99.178726 
L 229.85395 -99.688729 
L 230.380652 -100.198732 
L 232.382833 -100.198732 
L 232.382833 -100.198732 
L 232.909534 -99.688729 
L 233.584756 -99.178726 
L 234.39619 -98.668722 
L 235.310844 -98.158719 
L 236.279524 -97.648716 
L 237.248537 -97.138713 
L 238.174175 -96.62871 
L 239.03174 -96.118707 
L 239.813002 -95.608704 
L 240.514315 -95.0987 
L 241.125609 -94.588697 
L 241.630054 -94.078694 
L 242.014498 -93.568691 
L 242.280335 -93.058688 
L 242.443984 -92.548685 
L 242.526505 -92.038682 
L 242.542212 -91.528678 
L 242.49561 -91.018675 
L 242.386159 -90.508672 
L 242.212964 -89.998669 
L 241.974581 -89.488666 
L 241.667815 -88.978663 
L 241.292306 -88.46866 
L 240.860914 -87.958656 
L 240.406774 -87.448653 
L 239.977323 -86.93865 
L 239.615319 -86.428647 
L 239.338331 -85.918644 
L 239.130625 -85.408641 
L 238.952634 -84.898638 
L 238.760761 -84.388634 
L 238.524583 -83.878631 
L 238.233349 -83.368628 
L 237.893326 -82.858625 
L 237.522777 -82.348622 
L 237.148358 -81.838619 
L 236.800815 -81.328616 
L 236.506679 -80.818612 
L 236.277528 -80.308609 
L 236.103185 -79.798606 
L 235.954257 -79.288603 
L 235.793454 -78.7786 
L 235.589538 -78.268597 
L 235.32695 -77.758594 
L 235.007723 -77.24859 
L 234.646974 -76.738587 
L 234.265956 -76.228584 
L 233.886211 -75.718581 
L 233.526245 -75.208578 
L 233.200261 -74.698575 
L 232.918028 -74.188572 
L 232.685371 -73.678568 
L 232.504794 -73.168565 
L 232.375517 -72.658562 
L 232.292503 -72.148559 
L 232.245348 -71.638556 
L 232.218841 -71.128553 
L 232.196211 -70.61855 
L 232.163981 -70.108546 
L 232.115818 -69.598543 
L 232.05332 -69.08854 
L 231.983621 -68.578537 
L 231.915499 -68.068534 
L 231.856046 -67.558531 
L 231.809007 -67.048528 
L 231.774672 -66.538524 
L 231.750626 -66.028521 
L 231.732882 -65.518518 
L 231.717256 -65.008515 
L 231.700822 -64.498512 
L 231.682912 -63.988509 
L 231.665102 -63.478506 
L 231.650014 -62.968502 
L 231.639503 -62.458499 
L 231.633239 -61.948496 
L 231.628531 -61.438493 
L 231.621514 -60.92849 
L 231.608967 -60.418487 
L 231.58978 -59.908484 
L 231.565375 -59.39848 
L 231.539001 -58.888477 
L 231.514315 -58.378474 
L 231.493908 -57.868471 
L 231.478457 -57.358468 
L 231.466853 -56.848465 
L 231.457139 -56.338462 
L 231.447622 -55.828458 
L 231.437543 -55.318455 
L 231.427114 -54.808452 
L 231.417175 -54.298449 
L 231.408846 -53.788446 
L 231.403297 -53.278443 
L 231.401535 -52.76844 
L 231.404041 -52.258436 
L 231.410334 -51.748433 
L 231.418703 -51.23843 
L 231.426465 -50.728427 
L 231.430838 -50.218424 
L 231.430082 -49.708421 
z
" id="m7e59da1f7c" style="stroke:#711c2f;stroke-opacity:0.3;"/>
    </defs>
    <g clip-path="url(#p806bd96371)">
     <use style="fill:#711c2f;fill-opacity:0.3;stroke:#711c2f;stroke-opacity:0.3;" x="0" xlink:href="#m7e59da1f7c" y="212.598425"/>
    </g>
   </g>
   <g id="PolyCollection_5">
    <defs>
     <path d="M 276.041473 -63.183492 
L 276.005771 -63.183492 
L 276.007029 -63.701258 
L 276.010297 -64.219023 
L 276.014377 -64.736789 
L 276.01808 -65.254554 
L 276.020748 -65.77232 
L 276.022317 -66.290086 
L 276.023043 -66.807851 
L 276.023166 -67.325617 
L 276.022697 -67.843383 
L 276.021309 -68.361148 
L 276.018389 -68.878914 
L 276.013306 -69.39668 
L 276.005921 -69.914445 
L 275.99707 -70.432211 
L 275.988494 -70.949976 
L 275.981944 -71.467742 
L 275.977959 -71.985508 
L 275.975287 -72.503273 
L 275.971523 -73.021039 
L 275.96445 -73.538805 
L 275.95307 -74.05657 
L 275.937758 -74.574336 
L 275.919713 -75.092102 
L 275.90024 -75.609867 
L 275.880303 -76.127633 
L 275.86049 -76.645399 
L 275.841212 -77.163164 
L 275.822712 -77.68093 
L 275.804659 -78.198695 
L 275.785667 -78.716461 
L 275.763295 -79.234227 
L 275.734508 -79.751992 
L 275.695827 -80.269758 
L 275.642633 -80.787524 
L 275.568633 -81.305289 
L 275.467609 -81.823055 
L 275.338145 -82.340821 
L 275.188685 -82.858586 
L 275.038117 -83.376352 
L 274.909288 -83.894117 
L 274.818248 -84.411883 
L 274.765674 -84.929649 
L 274.73548 -85.447414 
L 274.70091 -85.96518 
L 274.634612 -86.482946 
L 274.518096 -87.000711 
L 274.346478 -87.518477 
L 274.126312 -88.036243 
L 273.868177 -88.554008 
L 273.579568 -89.071774 
L 273.263259 -89.589539 
L 272.92106 -90.107305 
L 272.557888 -90.625071 
L 272.181721 -91.142836 
L 271.800054 -91.660602 
L 271.417076 -92.178368 
L 271.03448 -92.696133 
L 270.655053 -93.213899 
L 270.285537 -93.731665 
L 269.934646 -94.24943 
L 269.604527 -94.767196 
L 269.280151 -95.284961 
L 268.927274 -95.802727 
L 268.506835 -96.320493 
L 267.999666 -96.838258 
L 267.423135 -97.356024 
L 266.825774 -97.87379 
L 266.264357 -98.391555 
L 265.781418 -98.909321 
L 265.39737 -99.427087 
L 265.116891 -99.944852 
L 264.939157 -100.462618 
L 264.863152 -100.980383 
L 264.887529 -101.498149 
L 265.008869 -102.015915 
L 265.219155 -102.53368 
L 265.500764 -103.051446 
L 265.822345 -103.569212 
L 266.144227 -104.086977 
L 266.435588 -104.604743 
L 266.692216 -105.122509 
L 266.940453 -105.640274 
L 267.224143 -106.15804 
L 267.583813 -106.675805 
L 268.039752 -107.193571 
L 268.585771 -107.711337 
L 269.19503 -108.229102 
L 269.834816 -108.746868 
L 270.482639 -109.264634 
L 271.133816 -109.782399 
L 271.795106 -110.300165 
L 272.469167 -110.817931 
L 273.142205 -111.335696 
L 273.78415 -111.853462 
L 274.359959 -112.371227 
L 274.842996 -112.888993 
L 275.222533 -113.406759 
L 275.503418 -113.924524 
L 275.700634 -114.44229 
L 276.346611 -114.44229 
L 276.346611 -114.44229 
L 276.543826 -113.924524 
L 276.824712 -113.406759 
L 277.204249 -112.888993 
L 277.687285 -112.371227 
L 278.263094 -111.853462 
L 278.905039 -111.335696 
L 279.578077 -110.817931 
L 280.252138 -110.300165 
L 280.913428 -109.782399 
L 281.564605 -109.264634 
L 282.212428 -108.746868 
L 282.852214 -108.229102 
L 283.461473 -107.711337 
L 284.007492 -107.193571 
L 284.463431 -106.675805 
L 284.823101 -106.15804 
L 285.106791 -105.640274 
L 285.355028 -105.122509 
L 285.611656 -104.604743 
L 285.903017 -104.086977 
L 286.224899 -103.569212 
L 286.54648 -103.051446 
L 286.828089 -102.53368 
L 287.038375 -102.015915 
L 287.159715 -101.498149 
L 287.184092 -100.980383 
L 287.108087 -100.462618 
L 286.930353 -99.944852 
L 286.649874 -99.427087 
L 286.265826 -98.909321 
L 285.782887 -98.391555 
L 285.22147 -97.87379 
L 284.624109 -97.356024 
L 284.047578 -96.838258 
L 283.540409 -96.320493 
L 283.11997 -95.802727 
L 282.767093 -95.284961 
L 282.442717 -94.767196 
L 282.112599 -94.24943 
L 281.761707 -93.731665 
L 281.392191 -93.213899 
L 281.012765 -92.696133 
L 280.630168 -92.178368 
L 280.24719 -91.660602 
L 279.865523 -91.142836 
L 279.489356 -90.625071 
L 279.126185 -90.107305 
L 278.783985 -89.589539 
L 278.467676 -89.071774 
L 278.179067 -88.554008 
L 277.920932 -88.036243 
L 277.700766 -87.518477 
L 277.529148 -87.000711 
L 277.412632 -86.482946 
L 277.346334 -85.96518 
L 277.311764 -85.447414 
L 277.28157 -84.929649 
L 277.228996 -84.411883 
L 277.137957 -83.894117 
L 277.009127 -83.376352 
L 276.858559 -82.858586 
L 276.709099 -82.340821 
L 276.579635 -81.823055 
L 276.478611 -81.305289 
L 276.404611 -80.787524 
L 276.351417 -80.269758 
L 276.312736 -79.751992 
L 276.283949 -79.234227 
L 276.261577 -78.716461 
L 276.242585 -78.198695 
L 276.224532 -77.68093 
L 276.206032 -77.163164 
L 276.186754 -76.645399 
L 276.166941 -76.127633 
L 276.147004 -75.609867 
L 276.127531 -75.092102 
L 276.109486 -74.574336 
L 276.094175 -74.05657 
L 276.082794 -73.538805 
L 276.075721 -73.021039 
L 276.071957 -72.503273 
L 276.069285 -71.985508 
L 276.0653 -71.467742 
L 276.05875 -70.949976 
L 276.050174 -70.432211 
L 276.041323 -69.914445 
L 276.033938 -69.39668 
L 276.028855 -68.878914 
L 276.025935 -68.361148 
L 276.024548 -67.843383 
L 276.024078 -67.325617 
L 276.024201 -66.807851 
L 276.024927 -66.290086 
L 276.026496 -65.77232 
L 276.029164 -65.254554 
L 276.032867 -64.736789 
L 276.036947 -64.219023 
L 276.040215 -63.701258 
L 276.041473 -63.183492 
z
" id="mc6bd0b48c1" style="stroke:#acc13a;stroke-opacity:0.3;"/>
    </defs>
    <g clip-path="url(#p806bd96371)">
     <use style="fill:#acc13a;fill-opacity:0.3;stroke:#acc13a;stroke-opacity:0.3;" x="0" xlink:href="#mc6bd0b48c1" y="212.598425"/>
    </g>
   </g>
   <g id="PolyCollection_6">
    <defs>
     <path d="M 320.688338 -80.376949 
L 320.642665 -80.376949 
L 320.640605 -80.833964 
L 320.639365 -81.29098 
L 320.63829 -81.747995 
L 320.636777 -82.20501 
L 320.634315 -82.662026 
L 320.630414 -83.119041 
L 320.624802 -83.576056 
L 320.617952 -84.033072 
L 320.611365 -84.490087 
L 320.607023 -84.947102 
L 320.606145 -85.404118 
L 320.608167 -85.861133 
L 320.610815 -86.318148 
L 320.611255 -86.775164 
L 320.607428 -87.232179 
L 320.598565 -87.689194 
L 320.584575 -88.14621 
L 320.564939 -88.603225 
L 320.538209 -89.06024 
L 320.502812 -89.517256 
L 320.458812 -89.974271 
L 320.409087 -90.431286 
L 320.358285 -90.888302 
L 320.309524 -91.345317 
L 320.261063 -91.802332 
L 320.205921 -92.259348 
L 320.135482 -92.716363 
L 320.044958 -93.173379 
L 319.937032 -93.630394 
L 319.82117 -94.087409 
L 319.708904 -94.544425 
L 319.607754 -95.00144 
L 319.517139 -95.458455 
L 319.428585 -95.915471 
L 319.33009 -96.372486 
L 319.211915 -96.829501 
L 319.070133 -97.286517 
L 318.905988 -97.743532 
L 318.722161 -98.200547 
L 318.518808 -98.657563 
L 318.291586 -99.114578 
L 318.03236 -99.571593 
L 317.732216 -100.028609 
L 317.385739 -100.485624 
L 316.994535 -100.942639 
L 316.567857 -101.399655 
L 316.119951 -101.85667 
L 315.666077 -102.313685 
L 315.219169 -102.770701 
L 314.787062 -103.227716 
L 314.369856 -103.684731 
L 313.9595 -104.141747 
L 313.544692 -104.598762 
L 313.119971 -105.055777 
L 312.692248 -105.512793 
L 312.278464 -105.969808 
L 311.895483 -106.426823 
L 311.550329 -106.883839 
L 311.23818 -107.340854 
L 310.948357 -107.79787 
L 310.672198 -108.254885 
L 310.407037 -108.7119 
L 310.156077 -109.168916 
L 309.927768 -109.625931 
L 309.735802 -110.082946 
L 309.596288 -110.539962 
L 309.520031 -110.996977 
L 309.505032 -111.453992 
L 309.537818 -111.911008 
L 309.605642 -112.368023 
L 309.710944 -112.825038 
L 309.876048 -113.282054 
L 310.132863 -113.739069 
L 310.50308 -114.196084 
L 310.981073 -114.6531 
L 311.530632 -115.110115 
L 312.098545 -115.56713 
L 312.637655 -116.024146 
L 313.126392 -116.481161 
L 313.574675 -116.938176 
L 314.014756 -117.395192 
L 314.483378 -117.852207 
L 315.004616 -118.309222 
L 315.580773 -118.766238 
L 316.193724 -119.223253 
L 316.813717 -119.680268 
L 317.409849 -120.137284 
L 317.957638 -120.594299 
L 318.442463 -121.051314 
L 318.859812 -121.50833 
L 319.213252 -121.965345 
L 319.51074 -122.422361 
L 319.760569 -122.879376 
L 319.968845 -123.336391 
L 320.139501 -123.793407 
L 320.275947 -124.250422 
L 320.382484 -124.707437 
L 320.464338 -125.164453 
L 320.526659 -125.621468 
L 320.804344 -125.621468 
L 320.804344 -125.621468 
L 320.866665 -125.164453 
L 320.94852 -124.707437 
L 321.055056 -124.250422 
L 321.191502 -123.793407 
L 321.362158 -123.336391 
L 321.570435 -122.879376 
L 321.820263 -122.422361 
L 322.117752 -121.965345 
L 322.471192 -121.50833 
L 322.888541 -121.051314 
L 323.373366 -120.594299 
L 323.921154 -120.137284 
L 324.517287 -119.680268 
L 325.13728 -119.223253 
L 325.75023 -118.766238 
L 326.326388 -118.309222 
L 326.847625 -117.852207 
L 327.316247 -117.395192 
L 327.756329 -116.938176 
L 328.204612 -116.481161 
L 328.693348 -116.024146 
L 329.232459 -115.56713 
L 329.800372 -115.110115 
L 330.349931 -114.6531 
L 330.827923 -114.196084 
L 331.19814 -113.739069 
L 331.454955 -113.282054 
L 331.620059 -112.825038 
L 331.725362 -112.368023 
L 331.793185 -111.911008 
L 331.825972 -111.453992 
L 331.810972 -110.996977 
L 331.734716 -110.539962 
L 331.595202 -110.082946 
L 331.403235 -109.625931 
L 331.174927 -109.168916 
L 330.923967 -108.7119 
L 330.658806 -108.254885 
L 330.382647 -107.79787 
L 330.092823 -107.340854 
L 329.780674 -106.883839 
L 329.435521 -106.426823 
L 329.05254 -105.969808 
L 328.638755 -105.512793 
L 328.211033 -105.055777 
L 327.786312 -104.598762 
L 327.371504 -104.141747 
L 326.961147 -103.684731 
L 326.543941 -103.227716 
L 326.111834 -102.770701 
L 325.664926 -102.313685 
L 325.211052 -101.85667 
L 324.763147 -101.399655 
L 324.336469 -100.942639 
L 323.945264 -100.485624 
L 323.598787 -100.028609 
L 323.298644 -99.571593 
L 323.039417 -99.114578 
L 322.812195 -98.657563 
L 322.608842 -98.200547 
L 322.425016 -97.743532 
L 322.26087 -97.286517 
L 322.119089 -96.829501 
L 322.000914 -96.372486 
L 321.902419 -95.915471 
L 321.813865 -95.458455 
L 321.72325 -95.00144 
L 321.622099 -94.544425 
L 321.509834 -94.087409 
L 321.393971 -93.630394 
L 321.286046 -93.173379 
L 321.195521 -92.716363 
L 321.125082 -92.259348 
L 321.069941 -91.802332 
L 321.021479 -91.345317 
L 320.972718 -90.888302 
L 320.921917 -90.431286 
L 320.872192 -89.974271 
L 320.828192 -89.517256 
L 320.792794 -89.06024 
L 320.766064 -88.603225 
L 320.746429 -88.14621 
L 320.732438 -87.689194 
L 320.723575 -87.232179 
L 320.719749 -86.775164 
L 320.720188 -86.318148 
L 320.722837 -85.861133 
L 320.724859 -85.404118 
L 320.72398 -84.947102 
L 320.719638 -84.490087 
L 320.713052 -84.033072 
L 320.706202 -83.576056 
L 320.700589 -83.119041 
L 320.696688 -82.662026 
L 320.694227 -82.20501 
L 320.692713 -81.747995 
L 320.691638 -81.29098 
L 320.690398 -80.833964 
L 320.688338 -80.376949 
z
" id="m67c23aca7e" style="stroke:#6d8300;stroke-opacity:0.3;"/>
    </defs>
    <g clip-path="url(#p806bd96371)">
     <use style="fill:#6d8300;fill-opacity:0.3;stroke:#6d8300;stroke-opacity:0.3;" x="0" xlink:href="#m67c23aca7e" y="212.598425"/>
    </g>
   </g>
   <g id="PolyCollection_7">
    <defs>
     <path d="M 365.363958 -95.634347 
L 365.250805 -95.634347 
L 365.238407 -96.019579 
L 365.22643 -96.404811 
L 365.214686 -96.790042 
L 365.202501 -97.175274 
L 365.189018 -97.560505 
L 365.173523 -97.945737 
L 365.155591 -98.330968 
L 365.134948 -98.7162 
L 365.111052 -99.101432 
L 365.082651 -99.486663 
L 365.04768 -99.871895 
L 365.003751 -100.257126 
L 364.949171 -100.642358 
L 364.883917 -101.02759 
L 364.809896 -101.412821 
L 364.73018 -101.798053 
L 364.647543 -102.183284 
L 364.563077 -102.568516 
L 364.475595 -102.953747 
L 364.382072 -103.338979 
L 364.278822 -103.724211 
L 364.162771 -104.109442 
L 364.032208 -104.494674 
L 363.886648 -104.879905 
L 363.726075 -105.265137 
L 363.550326 -105.650369 
L 363.359434 -106.0356 
L 363.154963 -106.420832 
L 362.941204 -106.806063 
L 362.724614 -107.191295 
L 362.51082 -107.576526 
L 362.300511 -107.961758 
L 362.086941 -108.34699 
L 361.857331 -108.732221 
L 361.598119 -109.117453 
L 361.301516 -109.502684 
L 360.969733 -109.887916 
L 360.614442 -110.273147 
L 360.251594 -110.658379 
L 359.894254 -111.043611 
L 359.54715 -111.428842 
L 359.205664 -111.814074 
L 358.859488 -112.199305 
L 358.498424 -112.584537 
L 358.116782 -112.969769 
L 357.714266 -113.355 
L 357.294345 -113.740232 
L 356.863077 -114.125463 
L 356.430249 -114.510695 
L 356.011302 -114.895926 
L 355.62634 -115.281158 
L 355.294281 -115.66639 
L 355.02475 -116.051621 
L 354.81343 -116.436853 
L 354.644996 -116.822084 
L 354.502377 -117.207316 
L 354.376334 -117.592547 
L 354.269119 -117.977779 
L 354.190421 -118.363011 
L 354.149138 -118.748242 
L 354.146911 -119.133474 
L 354.177335 -119.518705 
L 354.230706 -119.903937 
L 354.301019 -120.289169 
L 354.391221 -120.6744 
L 354.514002 -121.059632 
L 354.687429 -121.444863 
L 354.927104 -121.830095 
L 355.238363 -122.215326 
L 355.612539 -122.600558 
L 356.029436 -122.98579 
L 356.464858 -123.371021 
L 356.899359 -123.756253 
L 357.324037 -124.141484 
L 357.741197 -124.526716 
L 358.160383 -124.911947 
L 358.592074 -125.297179 
L 359.041837 -125.682411 
L 359.507214 -126.067642 
L 359.978457 -126.452874 
L 360.442631 -126.838105 
L 360.889055 -127.223337 
L 361.313331 -127.608569 
L 361.717853 -127.9938 
L 362.108628 -128.379032 
L 362.490337 -128.764263 
L 362.862497 -129.149495 
L 363.218816 -129.534726 
L 363.549765 -129.919958 
L 363.846582 -130.30519 
L 364.104416 -130.690421 
L 364.323303 -131.075653 
L 364.507083 -131.460884 
L 364.661361 -131.846116 
L 364.79165 -132.231348 
L 364.902303 -132.616579 
L 364.996253 -133.001811 
L 365.07526 -133.387042 
L 365.140352 -133.772274 
L 365.47441 -133.772274 
L 365.47441 -133.772274 
L 365.539503 -133.387042 
L 365.61851 -133.001811 
L 365.71246 -132.616579 
L 365.823113 -132.231348 
L 365.953402 -131.846116 
L 366.10768 -131.460884 
L 366.29146 -131.075653 
L 366.510346 -130.690421 
L 366.768181 -130.30519 
L 367.064998 -129.919958 
L 367.395947 -129.534726 
L 367.752266 -129.149495 
L 368.124426 -128.764263 
L 368.506135 -128.379032 
L 368.89691 -127.9938 
L 369.301432 -127.608569 
L 369.725708 -127.223337 
L 370.172132 -126.838105 
L 370.636305 -126.452874 
L 371.107549 -126.067642 
L 371.572926 -125.682411 
L 372.022689 -125.297179 
L 372.45438 -124.911947 
L 372.873566 -124.526716 
L 373.290726 -124.141484 
L 373.715403 -123.756253 
L 374.149905 -123.371021 
L 374.585327 -122.98579 
L 375.002223 -122.600558 
L 375.3764 -122.215326 
L 375.687659 -121.830095 
L 375.927334 -121.444863 
L 376.100761 -121.059632 
L 376.223541 -120.6744 
L 376.313744 -120.289169 
L 376.384056 -119.903937 
L 376.437428 -119.518705 
L 376.467851 -119.133474 
L 376.465625 -118.748242 
L 376.424342 -118.363011 
L 376.345644 -117.977779 
L 376.238429 -117.592547 
L 376.112385 -117.207316 
L 375.969767 -116.822084 
L 375.801333 -116.436853 
L 375.590013 -116.051621 
L 375.320482 -115.66639 
L 374.988423 -115.281158 
L 374.603461 -114.895926 
L 374.184513 -114.510695 
L 373.751686 -114.125463 
L 373.320418 -113.740232 
L 372.900497 -113.355 
L 372.497981 -112.969769 
L 372.116339 -112.584537 
L 371.755275 -112.199305 
L 371.409099 -111.814074 
L 371.067613 -111.428842 
L 370.720508 -111.043611 
L 370.363169 -110.658379 
L 370.000321 -110.273147 
L 369.64503 -109.887916 
L 369.313247 -109.502684 
L 369.016644 -109.117453 
L 368.757432 -108.732221 
L 368.527821 -108.34699 
L 368.314252 -107.961758 
L 368.103943 -107.576526 
L 367.890149 -107.191295 
L 367.673559 -106.806063 
L 367.4598 -106.420832 
L 367.255329 -106.0356 
L 367.064437 -105.650369 
L 366.888687 -105.265137 
L 366.728114 -104.879905 
L 366.582554 -104.494674 
L 366.451991 -104.109442 
L 366.335941 -103.724211 
L 366.23269 -103.338979 
L 366.139168 -102.953747 
L 366.051686 -102.568516 
L 365.967219 -102.183284 
L 365.884583 -101.798053 
L 365.804867 -101.412821 
L 365.730845 -101.02759 
L 365.665591 -100.642358 
L 365.611012 -100.257126 
L 365.567083 -99.871895 
L 365.532111 -99.486663 
L 365.503711 -99.101432 
L 365.479814 -98.7162 
L 365.459171 -98.330968 
L 365.44124 -97.945737 
L 365.425744 -97.560505 
L 365.412262 -97.175274 
L 365.400077 -96.790042 
L 365.388332 -96.404811 
L 365.376356 -96.019579 
L 365.363958 -95.634347 
z
" id="mb7d410b9a9" style="stroke:#00534a;stroke-opacity:0.3;"/>
    </defs>
    <g clip-path="url(#p806bd96371)">
     <use style="fill:#00534a;fill-opacity:0.3;stroke:#00534a;stroke-opacity:0.3;" x="0" xlink:href="#mb7d410b9a9" y="212.598425"/>
    </g>
   </g>
   <g id="PolyCollection_8">
    <defs>
     <path d="M 409.972158 -100.213798 
L 409.926364 -100.213798 
L 409.922807 -100.620219 
L 409.918156 -101.02664 
L 409.911117 -101.433061 
L 409.900934 -101.839482 
L 409.88805 -102.245903 
L 409.874262 -102.652324 
L 409.862205 -103.058745 
L 409.854329 -103.465166 
L 409.851749 -103.871587 
L 409.853561 -104.278008 
L 409.856964 -104.684429 
L 409.858195 -105.09085 
L 409.853759 -105.497271 
L 409.841323 -105.903692 
L 409.819843 -106.310113 
L 409.78904 -106.716534 
L 409.748701 -107.122954 
L 409.69829 -107.529375 
L 409.637056 -107.935796 
L 409.56451 -108.342217 
L 409.481019 -108.748638 
L 409.388276 -109.155059 
L 409.289397 -109.56148 
L 409.188408 -109.967901 
L 409.089041 -110.374322 
L 408.993082 -110.780743 
L 408.898836 -111.187164 
L 408.80052 -111.593585 
L 408.689348 -112.000006 
L 408.556522 -112.406427 
L 408.397266 -112.812848 
L 408.213857 -113.219269 
L 408.015448 -113.62569 
L 407.813982 -114.032111 
L 407.617928 -114.438532 
L 407.427275 -114.844953 
L 407.232563 -115.251374 
L 407.018216 -115.657795 
L 406.767986 -116.064216 
L 406.469859 -116.470637 
L 406.119251 -116.877058 
L 405.720804 -117.283479 
L 405.28894 -117.6899 
L 404.84622 -118.096321 
L 404.418464 -118.502742 
L 404.027409 -118.909163 
L 403.68366 -119.315584 
L 403.382856 -119.722005 
L 403.106404 -120.128426 
L 402.826541 -120.534847 
L 402.514531 -120.941268 
L 402.149651 -121.347689 
L 401.725597 -121.75411 
L 401.251695 -122.160531 
L 400.749457 -122.566951 
L 400.247826 -122.973372 
L 399.77963 -123.379793 
L 399.378315 -123.786214 
L 399.072272 -124.192635 
L 398.876858 -124.599056 
L 398.788836 -125.005477 
L 398.788791 -125.411898 
L 398.85198 -125.818319 
L 398.961045 -126.22474 
L 399.111978 -126.631161 
L 399.309915 -127.037582 
L 399.559128 -127.444003 
L 399.855147 -127.850424 
L 400.184113 -128.256845 
L 400.52856 -128.663266 
L 400.874922 -129.069687 
L 401.218183 -129.476108 
L 401.561896 -129.882529 
L 401.914564 -130.28895 
L 402.284554 -130.695371 
L 402.675743 -131.101792 
L 403.085645 -131.508213 
L 403.507032 -131.914634 
L 403.932333 -132.321055 
L 404.358153 -132.727476 
L 404.786809 -133.133897 
L 405.223694 -133.540318 
L 405.672216 -133.946739 
L 406.129569 -134.35316 
L 406.585786 -134.759581 
L 407.026208 -135.166002 
L 407.435774 -135.572423 
L 407.803168 -135.978844 
L 408.123548 -136.385265 
L 408.399182 -136.791686 
L 408.637741 -137.198107 
L 408.848743 -137.604528 
L 409.039655 -138.010948 
L 409.213634 -138.417369 
L 409.369885 -138.82379 
L 409.505951 -139.230211 
L 409.620147 -139.636632 
L 409.712688 -140.043053 
L 409.785373 -140.449474 
L 410.113149 -140.449474 
L 410.113149 -140.449474 
L 410.185834 -140.043053 
L 410.278375 -139.636632 
L 410.392571 -139.230211 
L 410.528637 -138.82379 
L 410.684888 -138.417369 
L 410.858867 -138.010948 
L 411.049779 -137.604528 
L 411.260781 -137.198107 
L 411.49934 -136.791686 
L 411.774974 -136.385265 
L 412.095354 -135.978844 
L 412.462748 -135.572423 
L 412.872314 -135.166002 
L 413.312736 -134.759581 
L 413.768953 -134.35316 
L 414.226306 -133.946739 
L 414.674828 -133.540318 
L 415.111713 -133.133897 
L 415.540369 -132.727476 
L 415.966189 -132.321055 
L 416.391491 -131.914634 
L 416.812877 -131.508213 
L 417.222779 -131.101792 
L 417.613968 -130.695371 
L 417.983958 -130.28895 
L 418.336626 -129.882529 
L 418.68034 -129.476108 
L 419.0236 -129.069687 
L 419.369962 -128.663266 
L 419.714409 -128.256845 
L 420.043375 -127.850424 
L 420.339394 -127.444003 
L 420.588607 -127.037582 
L 420.786544 -126.631161 
L 420.937477 -126.22474 
L 421.046542 -125.818319 
L 421.109731 -125.411898 
L 421.109686 -125.005477 
L 421.021664 -124.599056 
L 420.82625 -124.192635 
L 420.520207 -123.786214 
L 420.118892 -123.379793 
L 419.650696 -122.973372 
L 419.149065 -122.566951 
L 418.646827 -122.160531 
L 418.172925 -121.75411 
L 417.748871 -121.347689 
L 417.383991 -120.941268 
L 417.071981 -120.534847 
L 416.792118 -120.128426 
L 416.515666 -119.722005 
L 416.214862 -119.315584 
L 415.871113 -118.909163 
L 415.480058 -118.502742 
L 415.052302 -118.096321 
L 414.609582 -117.6899 
L 414.177718 -117.283479 
L 413.779271 -116.877058 
L 413.428663 -116.470637 
L 413.130536 -116.064216 
L 412.880306 -115.657795 
L 412.665959 -115.251374 
L 412.471247 -114.844953 
L 412.280594 -114.438532 
L 412.08454 -114.032111 
L 411.883074 -113.62569 
L 411.684665 -113.219269 
L 411.501256 -112.812848 
L 411.342 -112.406427 
L 411.209174 -112.000006 
L 411.098002 -111.593585 
L 410.999686 -111.187164 
L 410.90544 -110.780743 
L 410.809481 -110.374322 
L 410.710114 -109.967901 
L 410.609125 -109.56148 
L 410.510246 -109.155059 
L 410.417503 -108.748638 
L 410.334012 -108.342217 
L 410.261466 -107.935796 
L 410.200232 -107.529375 
L 410.149821 -107.122954 
L 410.109482 -106.716534 
L 410.078679 -106.310113 
L 410.057199 -105.903692 
L 410.044763 -105.497271 
L 410.040327 -105.09085 
L 410.041558 -104.684429 
L 410.044961 -104.278008 
L 410.046773 -103.871587 
L 410.044193 -103.465166 
L 410.036317 -103.058745 
L 410.024261 -102.652324 
L 410.010472 -102.245903 
L 409.997588 -101.839482 
L 409.987406 -101.433061 
L 409.980366 -101.02664 
L 409.975715 -100.620219 
L 409.972158 -100.213798 
z
" id="m288bcc313c" style="stroke:#66b4d3;stroke-opacity:0.3;"/>
    </defs>
    <g clip-path="url(#p806bd96371)">
     <use style="fill:#66b4d3;fill-opacity:0.3;stroke:#66b4d3;stroke-opacity:0.3;" x="0" xlink:href="#m288bcc313c" y="212.598425"/>
    </g>
   </g>
   <g id="PolyCollection_9">
    <defs>
     <path d="M 454.625503 -109.959505 
L 454.556778 -109.959505 
L 454.551099 -110.33247 
L 454.546023 -110.705436 
L 454.540983 -111.078402 
L 454.535157 -111.451368 
L 454.527645 -111.824333 
L 454.517303 -112.197299 
L 454.502245 -112.570265 
L 454.479433 -112.943231 
L 454.444991 -113.316196 
L 454.395488 -113.689162 
L 454.329645 -114.062128 
L 454.24935 -114.435093 
L 454.159228 -114.808059 
L 454.065056 -115.181025 
L 453.972108 -115.553991 
L 453.884276 -115.926956 
L 453.803802 -116.299922 
L 453.730906 -116.672888 
L 453.663095 -117.045854 
L 453.594852 -117.418819 
L 453.518591 -117.791785 
L 453.426801 -118.164751 
L 453.314259 -118.537717 
L 453.179011 -118.910682 
L 453.021776 -119.283648 
L 452.844546 -119.656614 
L 452.649617 -120.02958 
L 452.43971 -120.402545 
L 452.218737 -120.775511 
L 451.991979 -121.148477 
L 451.764739 -121.521442 
L 451.539746 -121.894408 
L 451.314824 -122.267374 
L 451.082459 -122.64034 
L 450.831749 -123.013305 
L 450.551707 -123.386271 
L 450.234376 -123.759237 
L 449.876703 -124.132203 
L 449.481001 -124.505168 
L 449.054328 -124.878134 
L 448.60729 -125.2511 
L 448.152842 -125.624066 
L 447.705322 -125.997031 
L 447.279364 -126.369997 
L 446.887919 -126.742963 
L 446.539176 -127.115929 
L 446.233345 -127.488894 
L 445.961244 -127.86186 
L 445.706513 -128.234826 
L 445.45181 -128.607791 
L 445.186948 -128.980757 
L 444.914795 -129.353723 
L 444.650702 -129.726689 
L 444.414351 -130.099654 
L 444.218115 -130.47262 
L 444.059396 -130.845586 
L 443.922704 -131.218552 
L 443.790795 -131.591517 
L 443.657704 -131.964483 
L 443.53529 -132.337449 
L 443.449657 -132.710415 
L 443.430671 -133.08338 
L 443.501253 -133.456346 
L 443.671538 -133.829312 
L 443.938809 -134.202278 
L 444.291049 -134.575243 
L 444.711405 -134.948209 
L 445.181818 -135.321175 
L 445.685083 -135.69414 
L 446.205459 -136.067106 
L 446.728743 -136.440072 
L 447.24311 -136.813038 
L 447.741066 -137.186003 
L 448.221272 -137.558969 
L 448.688315 -137.931935 
L 449.149807 -138.304901 
L 449.612224 -138.677866 
L 450.077665 -139.050832 
L 450.542706 -139.423798 
L 450.999079 -139.796764 
L 451.435544 -140.169729 
L 451.840582 -140.542695 
L 452.205489 -140.915661 
L 452.526807 -141.288627 
L 452.806823 -141.661592 
L 453.051739 -142.034558 
L 453.268498 -142.407524 
L 453.462003 -142.780489 
L 453.634111 -143.153455 
L 453.784625 -143.526421 
L 453.913351 -143.899387 
L 454.021779 -144.272352 
L 454.113365 -144.645318 
L 454.192451 -145.018284 
L 454.262736 -145.39125 
L 454.326326 -145.764215 
L 454.383708 -146.137181 
L 454.434375 -146.510147 
L 454.477553 -146.883113 
L 454.704729 -146.883113 
L 454.704729 -146.883113 
L 454.747906 -146.510147 
L 454.798573 -146.137181 
L 454.855956 -145.764215 
L 454.919545 -145.39125 
L 454.989831 -145.018284 
L 455.068916 -144.645318 
L 455.160503 -144.272352 
L 455.268931 -143.899387 
L 455.397656 -143.526421 
L 455.54817 -143.153455 
L 455.720279 -142.780489 
L 455.913784 -142.407524 
L 456.130542 -142.034558 
L 456.375458 -141.661592 
L 456.655474 -141.288627 
L 456.976792 -140.915661 
L 457.341699 -140.542695 
L 457.746737 -140.169729 
L 458.183202 -139.796764 
L 458.639575 -139.423798 
L 459.104616 -139.050832 
L 459.570058 -138.677866 
L 460.032474 -138.304901 
L 460.493967 -137.931935 
L 460.96101 -137.558969 
L 461.441215 -137.186003 
L 461.939171 -136.813038 
L 462.453538 -136.440072 
L 462.976823 -136.067106 
L 463.497198 -135.69414 
L 464.000464 -135.321175 
L 464.470876 -134.948209 
L 464.891232 -134.575243 
L 465.243472 -134.202278 
L 465.510744 -133.829312 
L 465.681029 -133.456346 
L 465.751611 -133.08338 
L 465.732624 -132.710415 
L 465.646991 -132.337449 
L 465.524577 -131.964483 
L 465.391487 -131.591517 
L 465.259577 -131.218552 
L 465.122886 -130.845586 
L 464.964166 -130.47262 
L 464.76793 -130.099654 
L 464.531579 -129.726689 
L 464.267486 -129.353723 
L 463.995334 -128.980757 
L 463.730471 -128.607791 
L 463.475768 -128.234826 
L 463.221037 -127.86186 
L 462.948936 -127.488894 
L 462.643106 -127.115929 
L 462.294363 -126.742963 
L 461.902917 -126.369997 
L 461.476959 -125.997031 
L 461.02944 -125.624066 
L 460.574991 -125.2511 
L 460.127953 -124.878134 
L 459.70128 -124.505168 
L 459.305578 -124.132203 
L 458.947905 -123.759237 
L 458.630574 -123.386271 
L 458.350532 -123.013305 
L 458.099822 -122.64034 
L 457.867458 -122.267374 
L 457.642535 -121.894408 
L 457.417542 -121.521442 
L 457.190302 -121.148477 
L 456.963544 -120.775511 
L 456.742572 -120.402545 
L 456.532665 -120.02958 
L 456.337735 -119.656614 
L 456.160505 -119.283648 
L 456.00327 -118.910682 
L 455.868023 -118.537717 
L 455.75548 -118.164751 
L 455.663691 -117.791785 
L 455.587429 -117.418819 
L 455.519186 -117.045854 
L 455.451375 -116.672888 
L 455.37848 -116.299922 
L 455.298005 -115.926956 
L 455.210173 -115.553991 
L 455.117225 -115.181025 
L 455.023053 -114.808059 
L 454.932932 -114.435093 
L 454.852637 -114.062128 
L 454.786794 -113.689162 
L 454.737291 -113.316196 
L 454.702848 -112.943231 
L 454.680036 -112.570265 
L 454.664978 -112.197299 
L 454.654636 -111.824333 
L 454.647124 -111.451368 
L 454.641299 -111.078402 
L 454.636258 -110.705436 
L 454.631182 -110.33247 
L 454.625503 -109.959505 
z
" id="m5933e03741" style="stroke:#00709b;stroke-opacity:0.3;"/>
    </defs>
    <g clip-path="url(#p806bd96371)">
     <use style="fill:#00709b;fill-opacity:0.3;stroke:#00709b;stroke-opacity:0.3;" x="0" xlink:href="#m5933e03741" y="212.598425"/>
    </g>
   </g>
   <g id="LineCollection_1">
    <path clip-path="url(#p806bd96371)" d="M 91.875868 180.37621 
L 103.036338 180.37621 
" style="fill:none;stroke:#1f77b4;stroke-width:1.5;"/>
    <path clip-path="url(#p806bd96371)" d="M 136.517748 180.44717 
L 147.678218 180.44717 
" style="fill:none;stroke:#1f77b4;stroke-width:1.5;"/>
    <path clip-path="url(#p806bd96371)" d="M 181.159628 132.286635 
L 192.320098 132.286635 
" style="fill:none;stroke:#1f77b4;stroke-width:1.5;"/>
    <path clip-path="url(#p806bd96371)" d="M 225.801507 112.399693 
L 236.961977 112.399693 
" style="fill:none;stroke:#1f77b4;stroke-width:1.5;"/>
    <path clip-path="url(#p806bd96371)" d="M 270.443387 98.156135 
L 281.603857 98.156135 
" style="fill:none;stroke:#1f77b4;stroke-width:1.5;"/>
    <path clip-path="url(#p806bd96371)" d="M 315.085267 86.976957 
L 326.245737 86.976957 
" style="fill:none;stroke:#1f77b4;stroke-width:1.5;"/>
    <path clip-path="url(#p806bd96371)" d="M 359.727146 78.826151 
L 370.887616 78.826151 
" style="fill:none;stroke:#1f77b4;stroke-width:1.5;"/>
    <path clip-path="url(#p806bd96371)" d="M 404.369026 72.148951 
L 415.529496 72.148951 
" style="fill:none;stroke:#1f77b4;stroke-width:1.5;"/>
    <path clip-path="url(#p806bd96371)" d="M 449.010906 65.715313 
L 460.171376 65.715313 
" style="fill:none;stroke:#1f77b4;stroke-width:1.5;"/>
   </g>
   <g id="LineCollection_2">
    <path clip-path="url(#p806bd96371)" d="M 91.875868 184.201828 
L 103.036338 184.201828 
" style="fill:none;stroke:#1f77b4;stroke-width:1.5;"/>
    <path clip-path="url(#p806bd96371)" d="M 136.517748 184.199895 
L 147.678218 184.199895 
" style="fill:none;stroke:#1f77b4;stroke-width:1.5;"/>
    <path clip-path="url(#p806bd96371)" d="M 181.159628 175.474425 
L 192.320098 175.474425 
" style="fill:none;stroke:#1f77b4;stroke-width:1.5;"/>
    <path clip-path="url(#p806bd96371)" d="M 225.801507 162.890005 
L 236.961977 162.890005 
" style="fill:none;stroke:#1f77b4;stroke-width:1.5;"/>
    <path clip-path="url(#p806bd96371)" d="M 270.443387 149.414933 
L 281.603857 149.414933 
" style="fill:none;stroke:#1f77b4;stroke-width:1.5;"/>
    <path clip-path="url(#p806bd96371)" d="M 315.085267 132.221476 
L 326.245737 132.221476 
" style="fill:none;stroke:#1f77b4;stroke-width:1.5;"/>
    <path clip-path="url(#p806bd96371)" d="M 359.727146 116.964078 
L 370.887616 116.964078 
" style="fill:none;stroke:#1f77b4;stroke-width:1.5;"/>
    <path clip-path="url(#p806bd96371)" d="M 404.369026 112.384627 
L 415.529496 112.384627 
" style="fill:none;stroke:#1f77b4;stroke-width:1.5;"/>
    <path clip-path="url(#p806bd96371)" d="M 449.010906 102.638921 
L 460.171376 102.638921 
" style="fill:none;stroke:#1f77b4;stroke-width:1.5;"/>
   </g>
   <g id="LineCollection_3">
    <path clip-path="url(#p806bd96371)" d="M 97.456103 184.201828 
L 97.456103 180.37621 
" style="fill:none;stroke:#1f77b4;stroke-width:1.5;"/>
    <path clip-path="url(#p806bd96371)" d="M 142.097983 184.199895 
L 142.097983 180.44717 
" style="fill:none;stroke:#1f77b4;stroke-width:1.5;"/>
    <path clip-path="url(#p806bd96371)" d="M 186.739863 175.474425 
L 186.739863 132.286635 
" style="fill:none;stroke:#1f77b4;stroke-width:1.5;"/>
    <path clip-path="url(#p806bd96371)" d="M 231.381742 162.890005 
L 231.381742 112.399693 
" style="fill:none;stroke:#1f77b4;stroke-width:1.5;"/>
    <path clip-path="url(#p806bd96371)" d="M 276.023622 149.414933 
L 276.023622 98.156135 
" style="fill:none;stroke:#1f77b4;stroke-width:1.5;"/>
    <path clip-path="url(#p806bd96371)" d="M 320.665502 132.221476 
L 320.665502 86.976957 
" style="fill:none;stroke:#1f77b4;stroke-width:1.5;"/>
    <path clip-path="url(#p806bd96371)" d="M 365.307381 116.964078 
L 365.307381 78.826151 
" style="fill:none;stroke:#1f77b4;stroke-width:1.5;"/>
    <path clip-path="url(#p806bd96371)" d="M 409.949261 112.384627 
L 409.949261 72.148951 
" style="fill:none;stroke:#1f77b4;stroke-width:1.5;"/>
    <path clip-path="url(#p806bd96371)" d="M 454.591141 102.638921 
L 454.591141 65.715313 
" style="fill:none;stroke:#1f77b4;stroke-width:1.5;"/>
   </g>
   <g id="patch_3">
    <path d="M 67.322835 186.023622 
L 67.322835 25.511811 
" style="fill:none;stroke:#cccccc;stroke-linecap:square;stroke-linejoin:miter;"/>
   </g>
   <g id="patch_4">
    <path d="M 484.724409 186.023622 
L 484.724409 25.511811 
" style="fill:none;stroke:#cccccc;stroke-linecap:square;stroke-linejoin:miter;"/>
   </g>
   <g id="patch_5">
    <path d="M 67.322835 186.023622 
L 484.724409 186.023622 
" style="fill:none;stroke:#cccccc;stroke-linecap:square;stroke-linejoin:miter;"/>
   </g>
   <g id="patch_6">
    <path d="M 67.322835 25.511811 
L 484.724409 25.511811 
" style="fill:none;stroke:#cccccc;stroke-linecap:square;stroke-linejoin:miter;"/>
   </g>
  </g>
 </g>
 <defs>
  <clipPath id="p806bd96371">
   <rect height="160.511811" width="417.401575" x="67.322835" y="25.511811"/>
  </clipPath>
 </defs>
</svg>
