<?xml version="1.0" encoding="utf-8" standalone="no"?>
<!DOCTYPE svg PUBLIC "-//W3C//DTD SVG 1.1//EN"
  "http://www.w3.org/Graphics/SVG/1.1/DTD/svg11.dtd">
<!-- Created with matplotlib (http://matplotlib.org/) -->
<svg height="212pt" version="1.1" viewBox="0 0 538 212" width="538pt" xmlns="http://www.w3.org/2000/svg" xmlns:xlink="http://www.w3.org/1999/xlink">
 <defs>
  <style type="text/css">
*{stroke-linecap:butt;stroke-linejoin:round;}
  </style>
 </defs>
 <g id="figure_1">
  <g id="patch_1">
   <path d="M 0 212.598425 
L 538.582677 212.598425 
L 538.582677 0 
L 0 0 
z
" style="fill:#ffffff;"/>
  </g>
  <g id="axes_1">
   <g id="patch_2">
    <path d="M 67.322835 186.023622 
L 484.724409 186.023622 
L 484.724409 25.511811 
L 67.322835 25.511811 
z
" style="fill:#ffffff;"/>
   </g>
   <g id="matplotlib.axis_1">
    <g id="xtick_1">
     <g id="line2d_1">
      <path clip-path="url(#pc2563e9041)" d="M 79.498558 186.023622 
L 79.498558 25.511811 
" style="fill:none;stroke:#cccccc;stroke-linecap:round;stroke-width:0.8;"/>
     </g>
     <g id="line2d_2"/>
     <g id="text_1">
      <text style="fill:#262626;font-family:Arial;font-size:10px;font-style:normal;font-weight:400;text-anchor:middle;" transform="rotate(-0, 79.498558, 196.681435)" x="79.498558" y="196.681435">1.00</text>
     </g>
    </g>
    <g id="xtick_2">
     <g id="line2d_3">
      <path clip-path="url(#pc2563e9041)" d="M 125.928589 186.023622 
L 125.928589 25.511811 
" style="fill:none;stroke:#cccccc;stroke-linecap:round;stroke-width:0.8;"/>
     </g>
     <g id="line2d_4"/>
     <g id="text_2">
      <text style="fill:#262626;font-family:Arial;font-size:10px;font-style:normal;font-weight:400;text-anchor:middle;" transform="rotate(-0, 125.928589, 196.681435)" x="125.928589" y="196.681435">1.05</text>
     </g>
    </g>
    <g id="xtick_3">
     <g id="line2d_5">
      <path clip-path="url(#pc2563e9041)" d="M 172.35862 186.023622 
L 172.35862 25.511811 
" style="fill:none;stroke:#cccccc;stroke-linecap:round;stroke-width:0.8;"/>
     </g>
     <g id="line2d_6"/>
     <g id="text_3">
      <text style="fill:#262626;font-family:Arial;font-size:10px;font-style:normal;font-weight:400;text-anchor:middle;" transform="rotate(-0, 172.35862, 196.681435)" x="172.35862" y="196.681435">1.10</text>
     </g>
    </g>
    <g id="xtick_4">
     <g id="line2d_7">
      <path clip-path="url(#pc2563e9041)" d="M 218.788651 186.023622 
L 218.788651 25.511811 
" style="fill:none;stroke:#cccccc;stroke-linecap:round;stroke-width:0.8;"/>
     </g>
     <g id="line2d_8"/>
     <g id="text_4">
      <text style="fill:#262626;font-family:Arial;font-size:10px;font-style:normal;font-weight:400;text-anchor:middle;" transform="rotate(-0, 218.788651, 196.681435)" x="218.788651" y="196.681435">1.15</text>
     </g>
    </g>
    <g id="xtick_5">
     <g id="line2d_9">
      <path clip-path="url(#pc2563e9041)" d="M 265.218682 186.023622 
L 265.218682 25.511811 
" style="fill:none;stroke:#cccccc;stroke-linecap:round;stroke-width:0.8;"/>
     </g>
     <g id="line2d_10"/>
     <g id="text_5">
      <text style="fill:#262626;font-family:Arial;font-size:10px;font-style:normal;font-weight:400;text-anchor:middle;" transform="rotate(-0, 265.218682, 196.681435)" x="265.218682" y="196.681435">1.20</text>
     </g>
    </g>
    <g id="xtick_6">
     <g id="line2d_11">
      <path clip-path="url(#pc2563e9041)" d="M 311.648713 186.023622 
L 311.648713 25.511811 
" style="fill:none;stroke:#cccccc;stroke-linecap:round;stroke-width:0.8;"/>
     </g>
     <g id="line2d_12"/>
     <g id="text_6">
      <text style="fill:#262626;font-family:Arial;font-size:10px;font-style:normal;font-weight:400;text-anchor:middle;" transform="rotate(-0, 311.648713, 196.681435)" x="311.648713" y="196.681435">1.25</text>
     </g>
    </g>
    <g id="xtick_7">
     <g id="line2d_13">
      <path clip-path="url(#pc2563e9041)" d="M 358.078744 186.023622 
L 358.078744 25.511811 
" style="fill:none;stroke:#cccccc;stroke-linecap:round;stroke-width:0.8;"/>
     </g>
     <g id="line2d_14"/>
     <g id="text_7">
      <text style="fill:#262626;font-family:Arial;font-size:10px;font-style:normal;font-weight:400;text-anchor:middle;" transform="rotate(-0, 358.078744, 196.681435)" x="358.078744" y="196.681435">1.30</text>
     </g>
    </g>
    <g id="xtick_8">
     <g id="line2d_15">
      <path clip-path="url(#pc2563e9041)" d="M 404.508775 186.023622 
L 404.508775 25.511811 
" style="fill:none;stroke:#cccccc;stroke-linecap:round;stroke-width:0.8;"/>
     </g>
     <g id="line2d_16"/>
     <g id="text_8">
      <text style="fill:#262626;font-family:Arial;font-size:10px;font-style:normal;font-weight:400;text-anchor:middle;" transform="rotate(-0, 404.508775, 196.681435)" x="404.508775" y="196.681435">1.35</text>
     </g>
    </g>
    <g id="xtick_9">
     <g id="line2d_17">
      <path clip-path="url(#pc2563e9041)" d="M 450.938806 186.023622 
L 450.938806 25.511811 
" style="fill:none;stroke:#cccccc;stroke-linecap:round;stroke-width:0.8;"/>
     </g>
     <g id="line2d_18"/>
     <g id="text_9">
      <text style="fill:#262626;font-family:Arial;font-size:10px;font-style:normal;font-weight:400;text-anchor:middle;" transform="rotate(-0, 450.938806, 196.681435)" x="450.938806" y="196.681435">1.40</text>
     </g>
    </g>
    <g id="text_10">
     <!-- $M_S$ -->
     <g style="fill:#262626;" transform="translate(269.323622 209.826747)">
      <text>
       <tspan style="font-family:DejaVu Sans;font-size:10px;font-style:oblique;font-weight:oblique;" x="0" y="-0.703125">M</tspan>
       <tspan style="font-family:DejaVu Sans;font-size:7px;font-style:oblique;font-weight:oblique;" x="8.62793" y="0.9375">S</tspan>
      </text>
     </g>
    </g>
   </g>
   <g id="matplotlib.axis_2">
    <g id="ytick_1">
     <g id="line2d_19">
      <path clip-path="url(#pc2563e9041)" d="M 67.322835 178.727631 
L 484.724409 178.727631 
" style="fill:none;stroke:#cccccc;stroke-linecap:round;stroke-width:0.8;"/>
     </g>
     <g id="line2d_20"/>
     <g id="text_11">
      <text style="fill:#262626;font-family:Arial;font-size:10px;font-style:normal;font-weight:400;text-anchor:end;" transform="rotate(-0, 63.822835, 182.306537)" x="63.822835" y="182.306537">0.0</text>
     </g>
    </g>
    <g id="ytick_2">
     <g id="line2d_21">
      <path clip-path="url(#pc2563e9041)" d="M 67.322835 149.514452 
L 484.724409 149.514452 
" style="fill:none;stroke:#cccccc;stroke-linecap:round;stroke-width:0.8;"/>
     </g>
     <g id="line2d_22"/>
     <g id="text_12">
      <text style="fill:#262626;font-family:Arial;font-size:10px;font-style:normal;font-weight:400;text-anchor:end;" transform="rotate(-0, 63.822835, 153.093358)" x="63.822835" y="153.093358">0.2</text>
     </g>
    </g>
    <g id="ytick_3">
     <g id="line2d_23">
      <path clip-path="url(#pc2563e9041)" d="M 67.322835 120.301273 
L 484.724409 120.301273 
" style="fill:none;stroke:#cccccc;stroke-linecap:round;stroke-width:0.8;"/>
     </g>
     <g id="line2d_24"/>
     <g id="text_13">
      <text style="fill:#262626;font-family:Arial;font-size:10px;font-style:normal;font-weight:400;text-anchor:end;" transform="rotate(-0, 63.822835, 123.880179)" x="63.822835" y="123.880179">0.4</text>
     </g>
    </g>
    <g id="ytick_4">
     <g id="line2d_25">
      <path clip-path="url(#pc2563e9041)" d="M 67.322835 91.088094 
L 484.724409 91.088094 
" style="fill:none;stroke:#cccccc;stroke-linecap:round;stroke-width:0.8;"/>
     </g>
     <g id="line2d_26"/>
     <g id="text_14">
      <text style="fill:#262626;font-family:Arial;font-size:10px;font-style:normal;font-weight:400;text-anchor:end;" transform="rotate(-0, 63.822835, 94.667)" x="63.822835" y="94.667">0.6</text>
     </g>
    </g>
    <g id="ytick_5">
     <g id="line2d_27">
      <path clip-path="url(#pc2563e9041)" d="M 67.322835 61.874915 
L 484.724409 61.874915 
" style="fill:none;stroke:#cccccc;stroke-linecap:round;stroke-width:0.8;"/>
     </g>
     <g id="line2d_28"/>
     <g id="text_15">
      <text style="fill:#262626;font-family:Arial;font-size:10px;font-style:normal;font-weight:400;text-anchor:end;" transform="rotate(-0, 63.822835, 65.453822)" x="63.822835" y="65.453822">0.8</text>
     </g>
    </g>
    <g id="ytick_6">
     <g id="line2d_29">
      <path clip-path="url(#pc2563e9041)" d="M 67.322835 32.661737 
L 484.724409 32.661737 
" style="fill:none;stroke:#cccccc;stroke-linecap:round;stroke-width:0.8;"/>
     </g>
     <g id="line2d_30"/>
     <g id="text_16">
      <text style="fill:#262626;font-family:Arial;font-size:10px;font-style:normal;font-weight:400;text-anchor:end;" transform="rotate(-0, 63.822835, 36.240643)" x="63.822835" y="36.240643">1.0</text>
     </g>
    </g>
    <g id="text_17">
     <text style="fill:#262626;font-family:Arial;font-size:10px;font-style:normal;font-weight:400;text-anchor:middle;" transform="rotate(-90, 43.935335, 105.767717)" x="43.935335" y="105.767717">CDF</text>
    </g>
   </g>
   <g id="line2d_31">
    <path clip-path="url(#pc2563e9041)" d="M 86.295634 178.727631 
L 86.520354 178.581565 
L 86.526369 178.435499 
L 86.953661 178.289433 
L 87.003847 178.143367 
L 87.526661 177.851235 
L 87.777448 177.559103 
L 87.937849 177.266972 
L 88.417867 176.97484 
L 88.748888 176.536642 
L 89.052526 175.806313 
L 89.188548 175.514181 
L 89.300867 175.075983 
L 89.572567 174.783851 
L 90.024042 173.76139 
L 90.162266 172.884995 
L 90.48872 172.592863 
L 90.614633 172.0086 
L 91.174879 171.716468 
L 91.184649 171.570402 
L 91.515255 171.27827 
L 91.630027 170.840072 
L 91.898578 170.109743 
L 92.142987 169.817611 
L 92.162408 169.671545 
L 92.33429 169.379413 
L 92.407694 169.087282 
L 92.859666 168.79515 
L 93.025482 168.503018 
L 93.198312 168.210886 
L 93.360694 167.334491 
L 93.898316 166.458096 
L 94.126471 165.727766 
L 94.36086 165.435634 
L 94.614448 164.997437 
L 94.802516 164.705305 
L 95.113941 163.828909 
L 95.267802 163.536778 
L 95.42566 163.09858 
L 95.556042 162.806448 
L 95.604178 162.514316 
L 95.695855 162.36825 
L 96.049552 162.076119 
L 96.542038 161.345789 
L 96.681219 161.053657 
L 96.79678 160.761526 
L 96.948207 160.323328 
L 96.979085 160.177262 
L 97.788856 159.446933 
L 98.163391 158.424471 
L 98.525044 158.13234 
L 98.582222 157.840208 
L 98.77564 157.255944 
L 98.820517 156.963812 
L 99.019942 156.671681 
L 99.057127 156.379549 
L 99.295665 155.941351 
L 99.435848 155.503153 
L 99.609345 155.211022 
L 99.946818 154.772824 
L 99.995918 154.626758 
L 100.28316 154.334626 
L 100.474045 153.750363 
L 101.057226 153.020033 
L 101.316895 152.873967 
L 101.430822 152.581836 
L 101.642006 152.143638 
L 101.940774 150.682979 
L 102.430042 149.806584 
L 102.961023 149.368386 
L 103.440418 148.345925 
L 103.478363 148.199859 
L 104.018487 147.615595 
L 104.268819 147.031332 
L 104.62451 146.7392 
L 106.793411 139.874103 
L 107.227467 139.143773 
L 107.347935 138.851642 
L 107.656433 138.705576 
L 107.678831 138.55951 
L 108.240791 137.82918 
L 108.658037 137.244917 
L 108.744435 136.952785 
L 108.855343 136.514587 
L 109.324328 136.222455 
L 109.40745 135.784258 
L 109.661647 135.34606 
L 109.864855 135.199994 
L 109.97879 134.761797 
L 110.295362 134.031467 
L 110.601318 133.739335 
L 110.625211 133.593269 
L 111.060476 133.155072 
L 111.394849 131.840479 
L 111.485909 131.548347 
L 111.622849 131.256215 
L 111.772189 130.671951 
L 111.948136 130.37982 
L 112.331624 130.233754 
L 112.488101 129.795556 
L 112.735394 129.065227 
L 112.898213 128.773095 
L 113.134472 128.042765 
L 113.344866 127.750634 
L 113.347245 127.604568 
L 113.576905 127.312436 
L 113.640177 126.874238 
L 113.755825 126.436041 
L 114.020793 125.413579 
L 114.630547 124.537184 
L 114.807647 124.098986 
L 115.458197 123.368657 
L 115.603004 122.930459 
L 115.793293 122.346196 
L 116.059579 122.054064 
L 116.154238 121.615866 
L 116.653146 121.177668 
L 116.772285 120.739471 
L 117.796279 118.840614 
L 118.111471 118.694548 
L 118.212891 118.110285 
L 118.281412 117.964219 
L 118.5087 117.672087 
L 119.212822 115.919296 
L 119.482751 115.77323 
L 119.515387 115.627164 
L 120.199883 114.896835 
L 120.35188 114.604703 
L 121.154724 113.582242 
L 121.406793 113.144044 
L 121.744761 112.705847 
L 121.876078 112.413715 
L 122.268821 112.121583 
L 122.28896 111.829451 
L 122.472675 111.537319 
L 122.511926 111.099122 
L 122.740872 110.80699 
L 122.762815 110.660924 
L 123.09844 110.514858 
L 123.363876 109.930595 
L 124.089928 109.492397 
L 124.379064 108.616001 
L 124.428572 108.469936 
L 124.681749 108.177804 
L 124.904231 107.739606 
L 125.340809 107.59354 
L 126.011637 106.278947 
L 126.135713 105.548618 
L 126.42045 104.964354 
L 126.814849 104.818288 
L 126.918848 104.380091 
L 127.59965 102.773366 
L 127.777326 102.043036 
L 128.4076 100.874509 
L 128.56308 100.582377 
L 129.158713 100.14418 
L 129.232305 99.998114 
L 129.496763 99.705982 
L 129.849523 98.975652 
L 129.983927 98.683521 
L 130.139772 98.245323 
L 130.373662 97.368928 
L 130.598983 97.076796 
L 130.809183 96.346466 
L 131.189995 95.616137 
L 131.555288 95.177939 
L 131.635847 94.885807 
L 131.959815 94.155478 
L 132.421427 94.009412 
L 132.56332 93.571214 
L 132.683397 93.279083 
L 133.196421 92.986951 
L 133.219747 92.694819 
L 133.709849 92.548753 
L 133.870963 91.96449 
L 133.926861 91.672358 
L 134.224871 91.526292 
L 134.341976 91.088094 
L 134.899616 90.503831 
L 135.128931 89.773501 
L 135.348434 89.481369 
L 135.449496 89.043172 
L 135.481692 88.897106 
L 135.870007 88.604974 
L 135.87986 88.458908 
L 136.086303 88.166776 
L 136.821776 86.26792 
L 136.940337 85.829722 
L 137.268773 85.53759 
L 137.43823 84.953327 
L 137.578767 84.661195 
L 137.799715 83.638734 
L 138.667907 82.762338 
L 138.79191 82.032009 
L 139.04565 81.301679 
L 139.548574 80.717416 
L 140.044254 79.402823 
L 140.231918 79.110691 
L 140.464529 78.818559 
L 140.714218 78.526427 
L 141.40052 76.919702 
L 141.586573 76.481505 
L 141.587681 76.335439 
L 142.111864 75.897241 
L 142.273199 75.605109 
L 142.325965 75.459044 
L 142.914122 75.166912 
L 142.996336 74.582648 
L 143.252236 74.290516 
L 143.400392 73.560187 
L 143.772407 73.268055 
L 144.680981 70.784935 
L 144.928351 70.638869 
L 144.935442 70.492803 
L 145.657925 70.054605 
L 145.677145 69.90854 
L 146.180891 69.616408 
L 146.250654 69.324276 
L 146.479573 69.032144 
L 146.669087 68.740012 
L 146.912453 68.301815 
L 147.10558 68.009683 
L 147.228713 67.717551 
L 147.28536 67.133288 
L 147.463178 66.841156 
L 147.941034 65.96476 
L 148.120565 65.672629 
L 148.156268 65.380497 
L 148.337924 65.234431 
L 148.341604 65.088365 
L 148.666605 64.650167 
L 148.740391 64.21197 
L 149.344994 63.919838 
L 149.481608 63.335574 
L 149.952385 62.751311 
L 150.664769 60.99852 
L 151.027014 60.414256 
L 151.305498 60.268191 
L 151.44298 59.976059 
L 152.058954 59.537861 
L 152.088183 59.391795 
L 152.565754 59.245729 
L 152.637703 58.953597 
L 152.994123 58.807532 
L 153.170323 58.369334 
L 153.54649 57.78507 
L 153.691633 57.492939 
L 154.23832 57.200807 
L 154.381765 56.908675 
L 154.883105 56.616543 
L 154.90901 56.470477 
L 155.061894 56.324411 
L 155.595147 56.178345 
L 155.751386 55.740148 
L 156.030215 55.448016 
L 156.129016 55.155884 
L 156.156514 55.009818 
L 156.966472 54.571621 
L 157.73621 54.279489 
L 157.78254 54.133423 
L 158.219839 53.695225 
L 158.92045 53.549159 
L 159.031022 53.257028 
L 159.220914 52.964896 
L 159.273908 52.81883 
L 159.659762 52.526698 
L 159.854247 52.0885 
L 161.67883 51.212105 
L 161.697118 51.066039 
L 162.002889 50.919973 
L 162.016383 50.773907 
L 162.407646 50.33571 
L 162.427237 50.189644 
L 162.778339 50.043578 
L 162.956827 49.60538 
L 163.537506 49.313248 
L 163.543655 49.167183 
L 164.174835 48.436853 
L 164.227343 48.290787 
L 164.465877 48.144721 
L 164.477126 47.998655 
L 165.123594 47.560458 
L 165.212655 47.414392 
L 166.393191 46.684062 
L 166.502911 46.391931 
L 167.332726 45.953733 
L 167.423567 45.661601 
L 168.165711 45.369469 
L 168.592711 44.785206 
L 170.139183 44.054876 
L 170.40451 43.616679 
L 171.897933 43.032415 
L 171.955372 42.886349 
L 172.155326 42.740283 
L 172.574119 42.594217 
L 172.590403 42.448151 
L 173.409226 41.863888 
L 175.54229 41.571756 
L 176.088496 41.133558 
L 176.11584 40.987493 
L 176.747905 40.549295 
L 177.68583 40.403229 
L 177.923959 39.965031 
L 178.178946 39.672899 
L 178.398829 39.526834 
L 178.410405 39.380768 
L 180.227482 39.088636 
L 180.415594 38.504372 
L 182.310177 38.212241 
L 182.920335 38.066175 
L 183.097623 37.774043 
L 183.421015 37.481911 
L 185.191076 37.043713 
L 185.357861 36.751582 
L 186.289297 36.605516 
L 186.46995 36.45945 
L 188.891772 36.167318 
L 190.103513 35.875186 
L 192.021028 35.583054 
L 192.061926 35.436989 
L 193.157074 35.290923 
L 193.197038 35.144857 
L 196.199953 34.852725 
L 197.376551 34.560593 
L 197.732197 34.414527 
L 204.525411 33.684198 
L 210.149444 33.392066 
L 210.708355 33.246 
L 213.166257 32.807802 
L 213.166257 32.807802 
" style="fill:none;stroke:#be1e3c;stroke-linecap:round;stroke-width:1.5;"/>
   </g>
   <g id="line2d_32">
    <path clip-path="url(#pc2563e9041)" d="M 272.820081 178.727631 
L 273.107146 178.581565 
L 273.234945 178.435499 
L 273.434292 178.143367 
L 274.024001 169.087282 
L 274.252222 162.514316 
L 274.35438 158.716603 
L 274.485398 153.750363 
L 274.574679 150.244781 
L 274.730546 141.480828 
L 274.886579 134.469665 
L 275.016933 126.728172 
L 275.062871 124.245052 
L 275.210897 114.750769 
L 275.338451 107.155343 
L 275.576316 96.054335 
L 275.638945 94.009412 
L 275.757362 88.458908 
L 276.850837 54.279489 
L 277.338171 45.953733 
L 277.453025 44.785206 
L 277.591841 43.032415 
L 277.727449 41.863888 
L 278.06709 39.234702 
L 278.366302 37.189779 
L 278.525446 36.751582 
L 278.738018 36.021252 
L 278.805766 35.72912 
L 278.978103 35.436989 
L 279.123821 34.560593 
L 279.427345 34.122395 
L 279.453487 33.97633 
L 279.813866 33.684198 
L 279.930326 33.392066 
L 280.215862 33.246 
L 280.257088 33.099934 
L 280.849451 32.807802 
L 280.849451 32.807802 
" style="fill:none;stroke:#ffc82a;stroke-linecap:round;stroke-width:1.5;"/>
   </g>
   <g id="line2d_33">
    <path clip-path="url(#pc2563e9041)" d="M 289.353004 178.727631 
L 289.585284 177.705169 
L 289.718019 176.828774 
L 289.776039 176.098445 
L 290.202108 171.27827 
L 290.4158 168.356952 
L 290.51602 167.334491 
L 291.164424 159.300867 
L 291.217805 158.716603 
L 291.563689 155.941351 
L 291.7304 154.772824 
L 291.885123 152.289704 
L 292.458031 145.278541 
L 292.514072 144.840343 
L 292.968561 139.874103 
L 293.049216 138.997707 
L 293.208191 137.244917 
L 293.35048 136.368521 
L 293.456531 136.07639 
L 294.225159 129.64949 
L 294.359306 129.357358 
L 294.416259 128.919161 
L 294.583801 127.16637 
L 294.676446 126.582106 
L 294.975471 123.660789 
L 295.064308 122.638327 
L 296.280748 109.492397 
L 296.414392 109.200265 
L 296.714066 106.132881 
L 296.78627 104.964354 
L 296.848109 104.526156 
L 296.959944 103.941893 
L 297.110041 102.773366 
L 297.251719 102.043036 
L 297.33941 100.874509 
L 297.45055 100.14418 
L 297.725487 98.391389 
L 297.958396 97.807125 
L 298.073358 96.492532 
L 298.241413 95.470071 
L 298.362223 93.571214 
L 298.419366 92.694819 
L 298.546339 91.380226 
L 298.789739 89.627435 
L 299.056726 86.852183 
L 299.119236 86.413986 
L 299.213397 84.807261 
L 299.315236 84.076931 
L 299.482234 82.324141 
L 300.301153 75.605109 
L 300.368826 75.020846 
L 300.4425 74.728714 
L 300.749301 72.245594 
L 300.859203 71.66133 
L 301.021545 70.931001 
L 301.103777 70.492803 
L 301.258182 69.324276 
L 301.344983 69.032144 
L 301.847323 65.380497 
L 302.164104 63.335574 
L 302.269094 62.751311 
L 302.605122 61.144586 
L 302.898168 59.245729 
L 303.059352 58.661466 
L 303.227413 57.346873 
L 303.368486 56.616543 
L 303.548696 55.155884 
L 303.682489 54.571621 
L 303.799431 54.279489 
L 304.670221 49.459314 
L 304.88257 49.313248 
L 304.949038 48.875051 
L 305.227447 48.436853 
L 305.712826 45.807667 
L 305.836319 45.223403 
L 305.991842 44.785206 
L 306.408444 44.347008 
L 306.494332 44.054876 
L 307.271863 42.886349 
L 307.363028 42.594217 
L 307.430372 42.15602 
L 307.721342 41.863888 
L 308.047504 41.133558 
L 308.770971 40.111097 
L 308.946006 39.672899 
L 308.961558 39.526834 
L 309.233208 39.234702 
L 309.249483 38.796504 
L 309.749617 37.920109 
L 309.783759 37.774043 
L 310.021235 37.481911 
L 310.206346 37.043713 
L 310.34853 36.313384 
L 311.066003 36.021252 
L 311.149542 35.875186 
L 311.607283 35.583054 
L 311.955323 35.290923 
L 311.980369 35.144857 
L 312.127668 34.998791 
L 312.56368 34.852725 
L 312.589729 34.706659 
L 312.872588 34.560593 
L 314.288659 34.122395 
L 314.393299 33.97633 
L 315.042151 33.538132 
L 315.078082 33.392066 
L 316.324526 33.246 
L 316.457302 33.099934 
L 316.849725 32.953868 
L 316.914966 32.807802 
L 316.914966 32.807802 
" style="fill:none;stroke:#e16d00;stroke-linecap:round;stroke-width:1.5;"/>
   </g>
   <g id="line2d_34">
    <path clip-path="url(#pc2563e9041)" d="M 313.34941 178.727631 
L 313.589036 178.289433 
L 313.751983 177.851235 
L 313.948677 177.705169 
L 314.120449 176.098445 
L 314.28896 175.660247 
L 314.477068 175.222049 
L 314.617733 174.637786 
L 314.748639 173.615324 
L 315.706698 167.772689 
L 315.854161 166.896293 
L 315.982009 166.019898 
L 316.154228 164.559239 
L 316.288205 164.267107 
L 316.376407 163.682844 
L 316.613154 163.390712 
L 316.693371 162.514316 
L 316.801785 162.076119 
L 316.854375 161.783987 
L 317.005448 161.491855 
L 317.150206 160.469394 
L 317.283148 159.592999 
L 317.441626 158.570537 
L 317.533839 157.986274 
L 317.571361 157.548076 
L 317.671697 157.255944 
L 318.146769 153.312165 
L 318.248909 152.873967 
L 318.408835 152.581836 
L 318.671765 150.244781 
L 318.941632 148.784122 
L 319.020592 148.053793 
L 319.33714 146.447068 
L 319.509744 146.154936 
L 319.838644 144.840343 
L 319.948697 143.963948 
L 320.614235 140.166235 
L 320.675707 139.728037 
L 321.199702 135.053928 
L 321.331764 134.469665 
L 321.676988 132.13261 
L 321.879439 131.402281 
L 322.376076 127.604568 
L 322.606623 127.16637 
L 323.113239 123.660789 
L 323.265909 123.368657 
L 323.372565 122.930459 
L 323.494302 122.638327 
L 323.820587 120.593405 
L 323.997665 120.447339 
L 323.998643 120.301273 
L 324.166447 120.009141 
L 324.169734 119.717009 
L 324.355343 119.424878 
L 324.468997 118.840614 
L 325.159803 115.481098 
L 325.344889 114.312571 
L 325.665777 112.121583 
L 325.976478 110.953056 
L 326.329426 108.908133 
L 326.411877 107.739606 
L 326.520273 107.447474 
L 327.085904 104.380091 
L 327.195144 103.503695 
L 327.197162 103.357629 
L 327.335004 103.065497 
L 327.475321 102.043036 
L 327.640105 101.020575 
L 327.748624 100.14418 
L 327.868904 98.829587 
L 327.97395 98.245323 
L 328.042907 97.661059 
L 328.113636 97.076796 
L 328.231945 96.2004 
L 328.435401 95.762203 
L 328.568569 95.177939 
L 328.748345 93.863346 
L 328.855737 93.425148 
L 328.930575 92.840885 
L 329.006867 92.402687 
L 329.403806 90.503831 
L 329.936828 88.166776 
L 330.043723 87.874645 
L 330.397262 85.391524 
L 330.494376 84.953327 
L 330.910355 81.593811 
L 331.025167 81.155613 
L 331.252376 79.987086 
L 331.344204 79.548889 
L 331.462814 79.256757 
L 331.642861 78.234295 
L 331.833374 77.211834 
L 331.999849 76.335439 
L 333.264304 69.616408 
L 333.289637 69.324276 
L 333.611151 68.740012 
L 333.804044 67.863617 
L 333.926774 66.549024 
L 334.05363 66.256892 
L 334.186129 64.942299 
L 334.297311 64.504101 
L 334.60803 62.751311 
L 335.478249 59.683927 
L 335.716052 58.077202 
L 335.870508 57.492939 
L 335.996282 56.762609 
L 336.284752 56.470477 
L 336.315116 56.324411 
L 336.516021 56.03228 
L 336.706363 54.717687 
L 336.9133 54.571621 
L 337.024344 53.841291 
L 337.160207 53.549159 
L 337.386583 52.234566 
L 337.402012 51.942435 
L 337.589122 51.650303 
L 337.608168 51.504237 
L 338.110871 51.066039 
L 338.46531 49.60538 
L 338.622405 49.167183 
L 338.881005 47.706524 
L 339.351504 46.830128 
L 340.260813 44.785206 
L 340.309446 44.493074 
L 340.517026 44.347008 
L 340.613492 43.90881 
L 340.835688 43.032415 
L 341.497243 42.740283 
L 341.52964 42.594217 
L 342.027677 42.15602 
L 342.124993 41.863888 
L 342.164015 41.571756 
L 342.46901 41.279624 
L 342.704171 40.695361 
L 342.819281 40.257163 
L 342.895141 40.111097 
L 343.193917 39.818965 
L 343.539364 39.234702 
L 344.072175 39.088636 
L 344.170136 38.650438 
L 344.421906 38.066175 
L 345.648041 36.897647 
L 345.854448 36.751582 
L 345.857502 36.605516 
L 346.245805 36.167318 
L 346.270357 35.875186 
L 347.87029 35.290923 
L 348.199202 34.998791 
L 349.209536 34.268461 
L 350.269082 33.97633 
L 351.714478 33.538132 
L 352.064115 33.392066 
L 352.076282 33.246 
L 353.514312 32.807802 
L 353.514312 32.807802 
" style="fill:none;stroke:#711c2f;stroke-linecap:round;stroke-width:1.5;"/>
   </g>
   <g id="line2d_35">
    <path clip-path="url(#pc2563e9041)" d="M 339.680933 178.727631 
L 339.749132 178.581565 
L 339.991037 178.435499 
L 340.080711 177.705169 
L 340.255819 177.413038 
L 340.414039 177.120906 
L 340.518482 176.828774 
L 341.127319 174.49172 
L 341.495186 173.031061 
L 341.669032 172.0086 
L 341.929089 171.132204 
L 341.931687 170.986138 
L 342.129961 170.694006 
L 342.166447 170.401875 
L 342.357949 170.255809 
L 342.420692 169.671545 
L 342.579414 169.087282 
L 342.723994 168.06482 
L 344.362968 158.862669 
L 344.476097 158.570537 
L 344.639837 157.548076 
L 344.743453 156.817747 
L 344.833226 156.525615 
L 344.952787 156.087417 
L 345.179446 154.480692 
L 345.261969 154.042495 
L 345.984727 150.829045 
L 346.298523 149.660518 
L 346.460303 149.076254 
L 346.802248 147.469529 
L 346.890273 146.885266 
L 347.097189 146.301002 
L 347.363816 145.278541 
L 347.518018 144.986409 
L 347.678467 143.52575 
L 348.269797 141.626894 
L 348.393034 141.334762 
L 348.490349 140.458366 
L 348.709785 139.728037 
L 350.859245 128.627029 
L 350.982513 128.334897 
L 351.168057 127.16637 
L 351.463376 126.874238 
L 351.873237 125.559645 
L 352.752081 122.638327 
L 353.046554 120.155207 
L 353.361982 118.840614 
L 353.512896 117.672087 
L 353.680149 116.941757 
L 353.948031 115.042901 
L 354.647728 112.121583 
L 354.919769 111.829451 
L 355.204852 109.784529 
L 355.301176 109.200265 
L 355.405866 108.031738 
L 355.493334 107.739606 
L 355.57265 106.863211 
L 355.707736 106.425013 
L 355.882912 105.694684 
L 356.038303 104.818288 
L 356.17466 104.380091 
L 356.285717 103.211563 
L 356.516282 101.750904 
L 356.641837 100.582377 
L 356.799291 99.121718 
L 356.939714 97.953191 
L 357.084735 96.93073 
L 357.2796 96.054335 
L 358.258124 90.795962 
L 358.364983 90.503831 
L 358.44673 89.919567 
L 358.60741 89.627435 
L 358.713207 89.043172 
L 358.906064 88.604974 
L 359.058799 87.582513 
L 359.450829 84.661195 
L 359.594049 84.369063 
L 359.738001 83.638734 
L 359.940794 83.200536 
L 359.982137 82.616272 
L 360.09941 82.324141 
L 360.229816 81.885943 
L 360.994323 78.526427 
L 361.084578 77.942164 
L 361.192861 77.3579 
L 361.292502 76.481505 
L 361.610578 75.459044 
L 361.734222 75.166912 
L 361.86934 74.728714 
L 362.260502 72.099528 
L 362.446616 71.515264 
L 362.540493 70.931001 
L 362.881364 69.90854 
L 362.929094 69.324276 
L 363.063089 69.032144 
L 363.42245 67.571485 
L 363.549491 66.841156 
L 363.761062 65.96476 
L 363.893021 64.942299 
L 364.18502 64.065904 
L 364.674416 61.874915 
L 364.847461 61.582784 
L 365.033601 60.99852 
L 365.469487 59.391795 
L 365.713196 59.099663 
L 366.301347 57.78507 
L 366.431696 57.492939 
L 366.53479 57.200807 
L 366.761946 56.762609 
L 367.130119 56.03228 
L 367.256623 55.594082 
L 367.475251 55.448016 
L 367.613879 55.009818 
L 367.752937 54.717687 
L 367.830247 54.279489 
L 368.001292 53.841291 
L 368.434568 52.672764 
L 368.808962 51.796369 
L 368.854048 51.358171 
L 369.298401 51.212105 
L 370.174413 48.728985 
L 370.243487 48.290787 
L 370.641283 47.12226 
L 370.736157 46.537996 
L 370.992075 46.245865 
L 371.045686 45.953733 
L 371.203964 45.661601 
L 371.222238 45.369469 
L 371.462107 44.931272 
L 372.058986 43.032415 
L 372.302253 42.594217 
L 372.307742 42.448151 
L 372.430016 42.302086 
L 372.769937 42.15602 
L 373.084276 41.42569 
L 373.733217 40.549295 
L 373.868419 39.965031 
L 374.138618 39.818965 
L 374.25703 39.380768 
L 374.599823 39.088636 
L 374.760375 38.796504 
L 374.765882 38.650438 
L 376.315331 37.774043 
L 376.385936 37.627977 
L 376.793161 37.481911 
L 376.867544 37.189779 
L 377.782612 36.897647 
L 377.894956 36.45945 
L 378.134381 36.313384 
L 378.769155 36.021252 
L 379.301305 35.436989 
L 379.866774 35.144857 
L 380.008456 34.852725 
L 380.413135 34.560593 
L 380.755539 34.122395 
L 381.730438 33.830264 
L 382.633019 33.246 
L 382.850819 33.099934 
L 385.379462 32.807802 
L 385.379462 32.807802 
" style="fill:none;stroke:#acc13a;stroke-linecap:round;stroke-width:1.5;"/>
   </g>
   <g id="line2d_36">
    <path clip-path="url(#pc2563e9041)" d="M 364.222035 178.727631 
L 364.45055 178.143367 
L 364.562212 177.705169 
L 364.95937 177.413038 
L 365.264496 176.098445 
L 365.768798 173.469258 
L 365.976858 173.177127 
L 366.007416 172.884995 
L 366.197071 172.592863 
L 366.403703 171.132204 
L 366.57656 170.840072 
L 366.830113 169.379413 
L 367.077578 168.503018 
L 367.403327 166.458096 
L 367.472932 165.289568 
L 367.627542 164.997437 
L 367.786618 164.121041 
L 367.991335 163.09858 
L 368.243835 161.930053 
L 368.399944 161.199723 
L 368.713035 159.739064 
L 368.860423 159.300867 
L 369.233178 157.840208 
L 369.279003 157.40201 
L 369.488424 156.963812 
L 369.669327 156.087417 
L 369.825509 155.649219 
L 369.975415 155.064956 
L 370.151496 154.772824 
L 370.224459 154.042495 
L 370.357169 153.750363 
L 370.518952 153.020033 
L 372.375315 145.278541 
L 372.498166 144.986409 
L 372.682497 144.402146 
L 372.919664 143.671816 
L 373.685887 140.020169 
L 373.868053 139.143773 
L 374.005846 138.121312 
L 374.142651 137.537049 
L 374.34018 136.514587 
L 374.563934 135.638192 
L 374.970454 134.031467 
L 375.168529 132.716874 
L 375.294849 132.424742 
L 375.42328 131.402281 
L 375.568621 130.964083 
L 376.207614 128.627029 
L 376.337806 127.16637 
L 376.494848 126.874238 
L 376.628339 126.582106 
L 376.754296 125.997843 
L 376.9175 125.705711 
L 377.005436 124.975382 
L 377.114147 124.537184 
L 377.194471 124.098986 
L 377.282192 123.660789 
L 378.605689 118.25635 
L 378.736516 117.672087 
L 379.055142 115.919296 
L 379.228547 115.627164 
L 379.361044 114.604703 
L 379.527621 114.312571 
L 379.968386 113.29011 
L 380.115325 112.705847 
L 380.267422 112.121583 
L 380.431611 111.537319 
L 380.560367 111.245188 
L 380.672472 110.222726 
L 380.781467 109.930595 
L 380.903389 109.200265 
L 381.232586 107.59354 
L 381.372747 107.009277 
L 381.717659 105.694684 
L 381.789075 105.402552 
L 381.908356 104.818288 
L 382.125314 103.211563 
L 382.243871 102.773366 
L 382.359911 102.189102 
L 383.206065 99.267784 
L 383.457892 98.245323 
L 384.142794 95.031873 
L 384.266494 93.863346 
L 384.305109 93.571214 
L 384.522362 93.279083 
L 384.906936 90.649896 
L 385.125794 89.919567 
L 385.26775 89.335303 
L 385.484068 88.897106 
L 385.620878 88.312842 
L 386.131826 86.852183 
L 386.206741 86.26792 
L 386.396424 85.683656 
L 386.563401 85.391524 
L 386.666333 84.953327 
L 387.19284 82.616272 
L 387.293839 82.324141 
L 387.336717 81.885943 
L 387.514648 81.447745 
L 388.417659 76.919702 
L 388.558243 76.627571 
L 388.650141 75.897241 
L 388.833833 75.605109 
L 388.947719 75.020846 
L 389.033803 74.728714 
L 389.281037 74.436582 
L 389.382174 73.706253 
L 389.592648 71.953462 
L 389.670514 71.369198 
L 389.917488 69.762474 
L 390.817139 66.549024 
L 390.872157 65.96476 
L 390.954132 65.672629 
L 391.078883 64.942299 
L 391.69938 61.874915 
L 391.981771 60.852454 
L 392.191184 60.414256 
L 392.259258 59.976059 
L 392.614331 59.537861 
L 393.048622 58.369334 
L 393.309073 57.054741 
L 393.675163 55.740148 
L 393.791761 55.009818 
L 393.845103 54.863752 
L 394.033829 54.717687 
L 394.11905 53.987357 
L 394.406297 53.257028 
L 394.557556 52.964896 
L 395.574096 49.459314 
L 396.084447 49.021117 
L 396.706735 47.414392 
L 397.178559 46.976194 
L 398.02913 45.515535 
L 398.259531 44.931272 
L 398.536011 44.63914 
L 398.779183 44.054876 
L 399.051009 43.470613 
L 399.191866 42.594217 
L 399.516064 42.448151 
L 399.646071 41.863888 
L 399.890975 41.717822 
L 399.903306 41.571756 
L 400.673665 40.695361 
L 400.739079 40.403229 
L 401.027414 39.672899 
L 401.157272 39.380768 
L 401.752547 38.358306 
L 402.046291 38.066175 
L 402.222801 37.774043 
L 402.912232 36.605516 
L 402.925671 36.45945 
L 404.364434 35.72912 
L 404.391464 35.436989 
L 404.548471 35.290923 
L 405.044889 34.998791 
L 405.480084 34.706659 
L 406.755672 34.414527 
L 406.79652 34.268461 
L 407.727831 33.830264 
L 407.734573 33.684198 
L 408.413641 33.246 
L 410.957241 33.099934 
L 412.061936 32.807802 
L 412.061936 32.807802 
" style="fill:none;stroke:#6d8300;stroke-linecap:round;stroke-width:1.5;"/>
   </g>
   <g id="line2d_37">
    <path clip-path="url(#pc2563e9041)" d="M 386.303467 178.727631 
L 386.600551 178.581565 
L 386.67281 178.435499 
L 387.069522 177.559103 
L 387.201591 176.828774 
L 387.269127 176.536642 
L 388.174402 174.783851 
L 388.228781 174.49172 
L 388.412521 174.199588 
L 388.587431 173.76139 
L 388.935567 172.446797 
L 389.265269 170.401875 
L 389.968021 168.06482 
L 390.082486 167.626623 
L 390.299459 166.165964 
L 390.442284 165.143502 
L 390.596162 164.559239 
L 390.918191 163.828909 
L 391.062567 162.806448 
L 391.463103 160.469394 
L 391.787897 159.592999 
L 391.969298 158.570537 
L 392.082365 157.840208 
L 392.182664 157.255944 
L 392.315026 156.671681 
L 392.356528 156.233483 
L 392.561494 155.941351 
L 392.636641 155.211022 
L 392.842609 154.91889 
L 392.936429 154.626758 
L 393.605499 152.143638 
L 393.713494 151.559374 
L 393.883145 150.829045 
L 395.765943 142.211157 
L 395.885891 141.772959 
L 396.197528 140.020169 
L 396.28469 139.289839 
L 396.401029 138.851642 
L 396.686684 138.267378 
L 396.816336 137.82918 
L 397.236546 136.07639 
L 397.332627 135.638192 
L 397.385801 135.34606 
L 397.611208 134.907862 
L 397.739905 134.177533 
L 397.963727 133.593269 
L 398.158682 132.278676 
L 398.259941 131.548347 
L 398.492221 130.087688 
L 399.022217 128.627029 
L 399.022317 128.480963 
L 399.210948 128.188831 
L 399.363843 127.604568 
L 399.430503 126.874238 
L 399.560132 126.582106 
L 399.909508 125.267513 
L 400.040613 124.68325 
L 400.273641 123.514723 
L 400.429088 122.784393 
L 400.51741 121.615866 
L 400.678615 121.031602 
L 400.873735 119.863075 
L 401.085448 119.570944 
L 401.236449 118.402416 
L 401.566083 116.795692 
L 401.672526 116.357494 
L 401.913021 114.750769 
L 403.87175 105.402552 
L 404.01327 105.11042 
L 404.390683 103.503695 
L 404.513865 102.773366 
L 405.502538 98.391389 
L 405.66744 98.099257 
L 405.794514 97.661059 
L 406.185136 94.739742 
L 406.274061 94.301544 
L 406.47593 93.279083 
L 406.520959 93.133017 
L 406.723635 92.840885 
L 407.256931 90.065633 
L 407.532645 88.312842 
L 407.702657 88.02071 
L 407.955463 87.436447 
L 408.073877 86.26792 
L 408.342612 85.975788 
L 408.640179 84.953327 
L 408.862035 83.638734 
L 408.939477 83.346602 
L 408.941053 83.05447 
L 409.068772 82.762338 
L 409.203081 81.593811 
L 409.807851 77.3579 
L 409.890728 76.773637 
L 410.008415 76.481505 
L 411.620393 69.616408 
L 412.031852 68.740012 
L 412.042247 68.593946 
L 412.186844 68.301815 
L 412.236403 67.863617 
L 412.426829 67.571485 
L 412.65636 65.818694 
L 412.766366 65.234431 
L 412.911362 64.796233 
L 413.092507 64.504101 
L 413.197177 64.065904 
L 413.532437 62.020981 
L 413.63935 61.290652 
L 413.765736 60.852454 
L 413.877888 59.829993 
L 414.135594 58.807532 
L 414.277291 58.077202 
L 414.576158 56.762609 
L 414.650864 56.178345 
L 414.924277 55.886214 
L 415.099195 55.448016 
L 415.310071 54.571621 
L 415.604039 54.425555 
L 415.629315 54.279489 
L 415.821836 54.133423 
L 415.918988 53.403094 
L 416.223828 52.380632 
L 416.520562 51.942435 
L 416.627153 51.504237 
L 416.90732 50.919973 
L 416.998621 50.481776 
L 417.092951 50.33571 
L 417.354561 50.189644 
L 417.483334 49.897512 
L 417.52343 49.751446 
L 417.715325 49.459314 
L 417.855593 48.875051 
L 418.322932 48.436853 
L 418.480282 48.144721 
L 419.546758 45.953733 
L 419.895694 45.661601 
L 420.15465 45.077338 
L 420.322295 44.63914 
L 421.145223 43.324547 
L 421.54661 43.032415 
L 421.608512 42.740283 
L 421.884388 42.594217 
L 422.240555 41.42569 
L 422.907432 40.403229 
L 422.977959 39.672899 
L 423.242535 39.380768 
L 423.309123 39.088636 
L 423.487965 38.796504 
L 423.837121 38.650438 
L 423.918245 38.358306 
L 424.439672 37.920109 
L 424.444867 37.774043 
L 425.298815 37.189779 
L 425.53494 36.897647 
L 425.852834 36.751582 
L 425.929016 36.313384 
L 426.699357 35.436989 
L 427.666196 34.852725 
L 427.683048 34.706659 
L 428.014048 34.414527 
L 428.219291 34.122395 
L 428.774534 33.830264 
L 430.371272 33.099934 
L 433.334686 32.807802 
L 433.334686 32.807802 
" style="fill:none;stroke:#00534a;stroke-linecap:round;stroke-width:1.5;"/>
   </g>
   <g id="line2d_38">
    <path clip-path="url(#pc2563e9041)" d="M 405.482658 178.727631 
L 405.827731 178.289433 
L 405.948683 177.559103 
L 406.111097 177.120906 
L 406.309051 176.828774 
L 406.521508 176.682708 
L 406.601744 176.24451 
L 406.700333 175.952379 
L 406.896344 175.222049 
L 407.090418 174.49172 
L 407.261816 174.199588 
L 407.937518 171.27827 
L 408.092814 170.986138 
L 408.317053 170.547941 
L 408.392231 169.817611 
L 408.474437 169.379413 
L 408.827764 167.480557 
L 408.864068 166.896293 
L 408.968505 166.604161 
L 409.120115 166.019898 
L 410.064835 161.930053 
L 410.288276 160.031196 
L 410.467314 159.592999 
L 410.988252 157.40201 
L 411.141637 156.233483 
L 411.37685 155.941351 
L 411.72428 154.334626 
L 411.859872 153.604297 
L 412.137598 153.312165 
L 412.283517 153.020033 
L 412.625268 150.829045 
L 412.865376 150.098715 
L 413.754958 146.447068 
L 413.933616 145.424607 
L 414.065683 145.132475 
L 414.241643 144.402146 
L 415.150404 140.3123 
L 415.222763 139.581971 
L 415.475498 139.435905 
L 415.616384 138.851642 
L 415.909409 137.390983 
L 416.039942 136.806719 
L 416.717713 134.323599 
L 416.839731 133.739335 
L 417.173455 131.256215 
L 417.301888 130.964083 
L 417.324548 130.818017 
L 417.468932 130.525886 
L 417.472837 130.37982 
L 417.613127 130.087688 
L 417.74576 129.64949 
L 417.912144 128.334897 
L 418.064148 127.458502 
L 418.241645 126.436041 
L 418.43629 125.559645 
L 418.558572 125.121448 
L 418.612589 124.68325 
L 418.719246 124.391118 
L 419.006188 123.368657 
L 419.127685 122.492261 
L 419.292437 121.907998 
L 419.489409 121.323734 
L 419.620435 120.885537 
L 420.072108 119.132746 
L 420.193655 118.548482 
L 420.589921 117.526021 
L 421.092909 115.188967 
L 421.557208 113.582242 
L 421.724458 113.29011 
L 421.992666 111.829451 
L 422.217499 111.099122 
L 422.327876 110.368792 
L 422.528805 109.784529 
L 422.676704 108.908133 
L 422.759972 108.616001 
L 422.914725 107.59354 
L 423.035622 107.301408 
L 423.177721 106.571079 
L 423.343745 106.132881 
L 423.47329 105.548618 
L 423.560122 104.964354 
L 423.664874 104.087959 
L 423.928359 102.043036 
L 424.062413 101.166641 
L 425.683197 94.739742 
L 425.916366 93.425148 
L 426.128038 92.694819 
L 426.295509 91.96449 
L 426.792412 89.919567 
L 426.978154 89.481369 
L 427.020867 89.189238 
L 427.200819 88.897106 
L 427.661533 86.413986 
L 427.771317 85.683656 
L 428.004815 84.222997 
L 428.117555 83.492668 
L 428.307419 82.762338 
L 429.348143 77.942164 
L 429.868092 74.14445 
L 430.029 73.414121 
L 431.066962 67.863617 
L 431.253954 66.841156 
L 431.342314 66.549024 
L 431.46043 65.672629 
L 431.612979 65.234431 
L 431.752563 64.504101 
L 431.926132 63.773772 
L 432.013793 63.189508 
L 432.306426 62.605245 
L 432.378434 62.313113 
L 432.553766 62.020981 
L 432.640057 61.290652 
L 432.957146 60.852454 
L 433.113755 60.414256 
L 433.243586 59.976059 
L 433.421553 59.245729 
L 433.486097 58.661466 
L 433.589694 57.931136 
L 433.748741 57.346873 
L 433.927012 57.054741 
L 434.215084 55.740148 
L 434.532664 55.448016 
L 434.959643 54.133423 
L 435.26391 53.841291 
L 435.30483 53.549159 
L 435.627688 53.403094 
L 435.853486 52.234566 
L 436.131593 51.942435 
L 436.230978 51.504237 
L 437.458293 48.582919 
L 437.688083 48.290787 
L 437.964914 46.976194 
L 438.328416 46.391931 
L 438.748682 45.515535 
L 439.006391 45.369469 
L 439.230079 44.63914 
L 439.39406 44.347008 
L 439.464406 43.90881 
L 439.649313 43.616679 
L 439.662846 43.470613 
L 439.96731 43.324547 
L 440.144859 43.032415 
L 440.359736 42.740283 
L 440.389062 42.594217 
L 440.565713 42.302086 
L 440.753678 41.279624 
L 441.032377 41.133558 
L 441.038387 40.987493 
L 441.338911 40.695361 
L 441.610549 39.965031 
L 441.828433 39.672899 
L 441.856014 39.380768 
L 442.082427 39.088636 
L 442.183344 38.504372 
L 442.532705 37.920109 
L 442.929121 37.481911 
L 443.929654 37.189779 
L 444.208292 36.45945 
L 444.704508 35.72912 
L 445.112165 35.436989 
L 445.294945 35.290923 
L 445.995729 35.144857 
L 446.033178 34.998791 
L 446.344484 34.706659 
L 446.977639 34.560593 
L 447.244039 34.268461 
L 448.021797 33.97633 
L 448.672328 33.684198 
L 448.931164 33.538132 
L 449.738964 33.392066 
L 449.901387 33.246 
L 450.956412 32.807802 
L 450.956412 32.807802 
" style="fill:none;stroke:#66b4d3;stroke-linecap:round;stroke-width:1.5;"/>
   </g>
   <g id="line2d_39">
    <path clip-path="url(#pc2563e9041)" d="M 422.5851 178.727631 
L 422.81523 178.581565 
L 422.850608 178.289433 
L 423.126771 177.997301 
L 423.522549 176.97484 
L 423.671177 176.682708 
L 423.768593 176.098445 
L 424.368205 174.053522 
L 424.487628 173.323193 
L 424.701361 173.177127 
L 424.704552 173.031061 
L 424.867957 172.738929 
L 425.172061 170.840072 
L 425.28268 170.547941 
L 425.497594 169.233348 
L 425.592847 168.941216 
L 425.786529 168.06482 
L 426.065517 167.188425 
L 426.069632 166.750227 
L 426.193489 166.458096 
L 426.294405 166.019898 
L 426.760981 163.828909 
L 426.860816 163.09858 
L 426.945962 162.806448 
L 427.051842 162.076119 
L 427.168157 161.637921 
L 427.386107 160.761526 
L 427.551975 159.446933 
L 427.895681 157.255944 
L 428.040205 156.233483 
L 428.271358 154.91889 
L 428.405722 154.18856 
L 428.617529 153.166099 
L 428.831343 152.143638 
L 428.941947 151.559374 
L 429.068046 150.682979 
L 429.783588 148.199859 
L 429.936773 147.615595 
L 430.089873 146.885266 
L 430.236374 145.424607 
L 430.836825 143.671816 
L 431.071955 141.334762 
L 431.179517 141.04263 
L 432.123238 137.244917 
L 432.228253 136.952785 
L 432.49466 136.368521 
L 432.58 135.638192 
L 432.639446 134.907862 
L 432.929134 134.469665 
L 433.111107 132.86294 
L 433.270057 132.278676 
L 433.806736 129.503424 
L 434.019131 128.919161 
L 434.6144 126.436041 
L 434.706079 125.559645 
L 434.849917 124.829316 
L 435.075151 124.098986 
L 435.228953 123.806854 
L 435.551235 122.20013 
L 435.652482 121.615866 
L 436.224916 117.818153 
L 436.492619 117.233889 
L 436.610027 116.649626 
L 437.343868 112.413715 
L 437.795479 111.245188 
L 437.951853 110.80699 
L 439.0197 106.717145 
L 439.101918 106.278947 
L 439.113858 106.132881 
L 439.378479 105.840749 
L 439.514117 104.672222 
L 439.598756 104.234025 
L 439.832139 103.211563 
L 439.964282 102.773366 
L 440.141111 101.750904 
L 440.471992 100.728443 
L 440.697285 98.683521 
L 440.853943 97.807125 
L 441.108793 95.762203 
L 441.469141 94.155478 
L 442.045522 92.402687 
L 442.234047 91.380226 
L 442.58661 90.065633 
L 442.72635 88.897106 
L 442.800641 88.458908 
L 442.878907 87.874645 
L 443.03171 87.582513 
L 443.129606 87.144315 
L 443.471421 86.26792 
L 443.619215 85.245458 
L 443.862891 84.076931 
L 444.057004 82.762338 
L 444.14427 82.324141 
L 444.248841 81.593811 
L 444.383553 81.155613 
L 444.741009 79.402823 
L 444.766873 79.110691 
L 444.939134 78.818559 
L 445.076091 77.942164 
L 445.169279 77.650032 
L 445.297565 77.065768 
L 445.424064 76.189373 
L 445.775604 74.14445 
L 445.887365 73.560187 
L 446.023486 73.268055 
L 446.134738 71.807396 
L 446.438662 71.223133 
L 446.977205 68.155749 
L 447.111795 67.279353 
L 447.268752 66.110826 
L 447.540888 65.234431 
L 447.649419 64.796233 
L 447.82383 63.773772 
L 448.075143 63.335574 
L 448.166242 63.043443 
L 448.280768 62.605245 
L 448.437431 62.020981 
L 448.638598 61.582784 
L 448.793037 60.706388 
L 449.625147 58.369334 
L 449.721949 57.931136 
L 449.884817 56.908675 
L 450.17824 56.324411 
L 450.321906 55.886214 
L 450.49801 54.863752 
L 450.667644 54.425555 
L 450.962562 53.403094 
L 451.003457 53.257028 
L 451.249189 52.964896 
L 451.39556 52.380632 
L 451.661086 51.650303 
L 451.746861 51.066039 
L 452.631624 48.582919 
L 453.003107 48.290787 
L 453.176795 47.998655 
L 453.34579 47.12226 
L 453.5364 46.684062 
L 453.734204 45.953733 
L 453.992007 45.369469 
L 454.161281 44.785206 
L 454.410932 44.63914 
L 454.570703 43.616679 
L 455.005326 43.032415 
L 455.119817 42.740283 
L 455.946048 41.863888 
L 456.023431 41.571756 
L 456.31887 40.987493 
L 456.389267 40.841427 
L 456.666876 40.695361 
L 456.755302 40.257163 
L 457.121824 39.965031 
L 457.242573 39.672899 
L 457.51863 39.526834 
L 457.548388 39.380768 
L 457.924964 38.94257 
L 458.044623 38.504372 
L 458.288873 38.066175 
L 458.699207 37.774043 
L 458.934695 37.481911 
L 459.2242 37.189779 
L 459.229166 37.043713 
L 459.557872 36.897647 
L 459.604069 36.751582 
L 460.036056 36.45945 
L 460.218856 36.167318 
L 460.653445 35.436989 
L 461.042871 35.290923 
L 461.084057 34.998791 
L 461.838571 34.414527 
L 461.88574 33.97633 
L 463.220252 33.538132 
L 465.156534 32.953868 
L 465.751611 32.807802 
L 465.751611 32.807802 
" style="fill:none;stroke:#00709b;stroke-linecap:round;stroke-width:1.5;"/>
   </g>
   <g id="patch_3">
    <path d="M 67.322835 186.023622 
L 67.322835 25.511811 
" style="fill:none;stroke:#cccccc;stroke-linecap:square;stroke-linejoin:miter;"/>
   </g>
   <g id="patch_4">
    <path d="M 484.724409 186.023622 
L 484.724409 25.511811 
" style="fill:none;stroke:#cccccc;stroke-linecap:square;stroke-linejoin:miter;"/>
   </g>
   <g id="patch_5">
    <path d="M 67.322835 186.023622 
L 484.724409 186.023622 
" style="fill:none;stroke:#cccccc;stroke-linecap:square;stroke-linejoin:miter;"/>
   </g>
   <g id="patch_6">
    <path d="M 67.322835 25.511811 
L 484.724409 25.511811 
" style="fill:none;stroke:#cccccc;stroke-linecap:square;stroke-linejoin:miter;"/>
   </g>
   <g id="legend_1">
    <g id="line2d_40">
     <path d="M 493.724409 38.169624 
L 513.724409 38.169624 
" style="fill:none;stroke:#be1e3c;stroke-linecap:round;stroke-width:1.5;"/>
    </g>
    <g id="line2d_41"/>
    <g id="text_18">
     <text style="fill:#262626;font-family:Arial;font-size:10px;font-style:normal;font-weight:400;text-anchor:start;" transform="rotate(-0, 521.724409, 41.669624)" x="521.724409" y="41.669624">Order 1</text>
    </g>
    <g id="line2d_42">
     <path d="M 493.724409 52.314936 
L 513.724409 52.314936 
" style="fill:none;stroke:#ffc82a;stroke-linecap:round;stroke-width:1.5;"/>
    </g>
    <g id="line2d_43"/>
    <g id="text_19">
     <text style="fill:#262626;font-family:Arial;font-size:10px;font-style:normal;font-weight:400;text-anchor:start;" transform="rotate(-0, 521.724409, 55.814936)" x="521.724409" y="55.814936">Order 2</text>
    </g>
    <g id="line2d_44">
     <path d="M 493.724409 66.460249 
L 513.724409 66.460249 
" style="fill:none;stroke:#e16d00;stroke-linecap:round;stroke-width:1.5;"/>
    </g>
    <g id="line2d_45"/>
    <g id="text_20">
     <text style="fill:#262626;font-family:Arial;font-size:10px;font-style:normal;font-weight:400;text-anchor:start;" transform="rotate(-0, 521.724409, 69.960249)" x="521.724409" y="69.960249">Order 3</text>
    </g>
    <g id="line2d_46">
     <path d="M 493.724409 80.605561 
L 513.724409 80.605561 
" style="fill:none;stroke:#711c2f;stroke-linecap:round;stroke-width:1.5;"/>
    </g>
    <g id="line2d_47"/>
    <g id="text_21">
     <text style="fill:#262626;font-family:Arial;font-size:10px;font-style:normal;font-weight:400;text-anchor:start;" transform="rotate(-0, 521.724409, 84.105561)" x="521.724409" y="84.105561">Order 4</text>
    </g>
    <g id="line2d_48">
     <path d="M 493.724409 94.750874 
L 513.724409 94.750874 
" style="fill:none;stroke:#acc13a;stroke-linecap:round;stroke-width:1.5;"/>
    </g>
    <g id="line2d_49"/>
    <g id="text_22">
     <text style="fill:#262626;font-family:Arial;font-size:10px;font-style:normal;font-weight:400;text-anchor:start;" transform="rotate(-0, 521.724409, 98.250874)" x="521.724409" y="98.250874">Order 5</text>
    </g>
    <g id="line2d_50">
     <path d="M 493.724409 108.896186 
L 513.724409 108.896186 
" style="fill:none;stroke:#6d8300;stroke-linecap:round;stroke-width:1.5;"/>
    </g>
    <g id="line2d_51"/>
    <g id="text_23">
     <text style="fill:#262626;font-family:Arial;font-size:10px;font-style:normal;font-weight:400;text-anchor:start;" transform="rotate(-0, 521.724409, 112.396186)" x="521.724409" y="112.396186">Order 6</text>
    </g>
    <g id="line2d_52">
     <path d="M 493.724409 123.041499 
L 513.724409 123.041499 
" style="fill:none;stroke:#00534a;stroke-linecap:round;stroke-width:1.5;"/>
    </g>
    <g id="line2d_53"/>
    <g id="text_24">
     <text style="fill:#262626;font-family:Arial;font-size:10px;font-style:normal;font-weight:400;text-anchor:start;" transform="rotate(-0, 521.724409, 126.541499)" x="521.724409" y="126.541499">Order 7</text>
    </g>
    <g id="line2d_54">
     <path d="M 493.724409 137.186811 
L 513.724409 137.186811 
" style="fill:none;stroke:#66b4d3;stroke-linecap:round;stroke-width:1.5;"/>
    </g>
    <g id="line2d_55"/>
    <g id="text_25">
     <text style="fill:#262626;font-family:Arial;font-size:10px;font-style:normal;font-weight:400;text-anchor:start;" transform="rotate(-0, 521.724409, 140.686811)" x="521.724409" y="140.686811">Order 8</text>
    </g>
    <g id="line2d_56">
     <path d="M 493.724409 151.332124 
L 513.724409 151.332124 
" style="fill:none;stroke:#00709b;stroke-linecap:round;stroke-width:1.5;"/>
    </g>
    <g id="line2d_57"/>
    <g id="text_26">
     <text style="fill:#262626;font-family:Arial;font-size:10px;font-style:normal;font-weight:400;text-anchor:start;" transform="rotate(-0, 521.724409, 154.832124)" x="521.724409" y="154.832124">Order 9</text>
    </g>
   </g>
  </g>
 </g>
 <defs>
  <clipPath id="pc2563e9041">
   <rect height="160.511811" width="417.401575" x="67.322835" y="25.511811"/>
  </clipPath>
 </defs>
</svg>
