<?xml version="1.0" encoding="utf-8" standalone="no"?>
<!DOCTYPE svg PUBLIC "-//W3C//DTD SVG 1.1//EN"
  "http://www.w3.org/Graphics/SVG/1.1/DTD/svg11.dtd">
<!-- Created with matplotlib (http://matplotlib.org/) -->
<svg height="212pt" version="1.1" viewBox="0 0 538 212" width="538pt" xmlns="http://www.w3.org/2000/svg" xmlns:xlink="http://www.w3.org/1999/xlink">
 <defs>
  <style type="text/css">
*{stroke-linecap:butt;stroke-linejoin:round;}
  </style>
 </defs>
 <g id="figure_1">
  <g id="patch_1">
   <path d="M 0 212.598425 
L 538.582677 212.598425 
L 538.582677 0 
L 0 0 
z
" style="fill:#ffffff;"/>
  </g>
  <g id="axes_1">
   <g id="patch_2">
    <path d="M 67.322835 186.023622 
L 484.724409 186.023622 
L 484.724409 25.511811 
L 67.322835 25.511811 
z
" style="fill:#ffffff;"/>
   </g>
   <g id="matplotlib.axis_1">
    <g id="xtick_1">
     <g id="line2d_1">
      <path clip-path="url(#pca187be413)" d="M 79.22895 186.023622 
L 79.22895 25.511811 
" style="fill:none;stroke:#cccccc;stroke-linecap:round;stroke-width:0.8;"/>
     </g>
     <g id="line2d_2"/>
     <g id="text_1">
      <text style="fill:#262626;font-family:Arial;font-size:10px;font-style:normal;font-weight:400;text-anchor:middle;" transform="rotate(-0, 79.22895, 196.681435)" x="79.22895" y="196.681435">1.00</text>
     </g>
    </g>
    <g id="xtick_2">
     <g id="line2d_3">
      <path clip-path="url(#pca187be413)" d="M 128.959514 186.023622 
L 128.959514 25.511811 
" style="fill:none;stroke:#cccccc;stroke-linecap:round;stroke-width:0.8;"/>
     </g>
     <g id="line2d_4"/>
     <g id="text_2">
      <text style="fill:#262626;font-family:Arial;font-size:10px;font-style:normal;font-weight:400;text-anchor:middle;" transform="rotate(-0, 128.959514, 196.681435)" x="128.959514" y="196.681435">1.05</text>
     </g>
    </g>
    <g id="xtick_3">
     <g id="line2d_5">
      <path clip-path="url(#pca187be413)" d="M 178.690078 186.023622 
L 178.690078 25.511811 
" style="fill:none;stroke:#cccccc;stroke-linecap:round;stroke-width:0.8;"/>
     </g>
     <g id="line2d_6"/>
     <g id="text_3">
      <text style="fill:#262626;font-family:Arial;font-size:10px;font-style:normal;font-weight:400;text-anchor:middle;" transform="rotate(-0, 178.690078, 196.681435)" x="178.690078" y="196.681435">1.10</text>
     </g>
    </g>
    <g id="xtick_4">
     <g id="line2d_7">
      <path clip-path="url(#pca187be413)" d="M 228.420643 186.023622 
L 228.420643 25.511811 
" style="fill:none;stroke:#cccccc;stroke-linecap:round;stroke-width:0.8;"/>
     </g>
     <g id="line2d_8"/>
     <g id="text_4">
      <text style="fill:#262626;font-family:Arial;font-size:10px;font-style:normal;font-weight:400;text-anchor:middle;" transform="rotate(-0, 228.420643, 196.681435)" x="228.420643" y="196.681435">1.15</text>
     </g>
    </g>
    <g id="xtick_5">
     <g id="line2d_9">
      <path clip-path="url(#pca187be413)" d="M 278.151207 186.023622 
L 278.151207 25.511811 
" style="fill:none;stroke:#cccccc;stroke-linecap:round;stroke-width:0.8;"/>
     </g>
     <g id="line2d_10"/>
     <g id="text_5">
      <text style="fill:#262626;font-family:Arial;font-size:10px;font-style:normal;font-weight:400;text-anchor:middle;" transform="rotate(-0, 278.151207, 196.681435)" x="278.151207" y="196.681435">1.20</text>
     </g>
    </g>
    <g id="xtick_6">
     <g id="line2d_11">
      <path clip-path="url(#pca187be413)" d="M 327.881771 186.023622 
L 327.881771 25.511811 
" style="fill:none;stroke:#cccccc;stroke-linecap:round;stroke-width:0.8;"/>
     </g>
     <g id="line2d_12"/>
     <g id="text_6">
      <text style="fill:#262626;font-family:Arial;font-size:10px;font-style:normal;font-weight:400;text-anchor:middle;" transform="rotate(-0, 327.881771, 196.681435)" x="327.881771" y="196.681435">1.25</text>
     </g>
    </g>
    <g id="xtick_7">
     <g id="line2d_13">
      <path clip-path="url(#pca187be413)" d="M 377.612335 186.023622 
L 377.612335 25.511811 
" style="fill:none;stroke:#cccccc;stroke-linecap:round;stroke-width:0.8;"/>
     </g>
     <g id="line2d_14"/>
     <g id="text_7">
      <text style="fill:#262626;font-family:Arial;font-size:10px;font-style:normal;font-weight:400;text-anchor:middle;" transform="rotate(-0, 377.612335, 196.681435)" x="377.612335" y="196.681435">1.30</text>
     </g>
    </g>
    <g id="xtick_8">
     <g id="line2d_15">
      <path clip-path="url(#pca187be413)" d="M 427.342899 186.023622 
L 427.342899 25.511811 
" style="fill:none;stroke:#cccccc;stroke-linecap:round;stroke-width:0.8;"/>
     </g>
     <g id="line2d_16"/>
     <g id="text_8">
      <text style="fill:#262626;font-family:Arial;font-size:10px;font-style:normal;font-weight:400;text-anchor:middle;" transform="rotate(-0, 427.342899, 196.681435)" x="427.342899" y="196.681435">1.35</text>
     </g>
    </g>
    <g id="xtick_9">
     <g id="line2d_17">
      <path clip-path="url(#pca187be413)" d="M 477.073463 186.023622 
L 477.073463 25.511811 
" style="fill:none;stroke:#cccccc;stroke-linecap:round;stroke-width:0.8;"/>
     </g>
     <g id="line2d_18"/>
     <g id="text_9">
      <text style="fill:#262626;font-family:Arial;font-size:10px;font-style:normal;font-weight:400;text-anchor:middle;" transform="rotate(-0, 477.073463, 196.681435)" x="477.073463" y="196.681435">1.40</text>
     </g>
    </g>
    <g id="text_10">
     <!-- $M_S$ -->
     <g style="fill:#262626;" transform="translate(269.323622 209.826747)">
      <text>
       <tspan style="font-family:DejaVu Sans;font-size:10px;font-style:oblique;font-weight:oblique;" x="0" y="-0.703125">M</tspan>
       <tspan style="font-family:DejaVu Sans;font-size:7px;font-style:oblique;font-weight:oblique;" x="8.62793" y="0.9375">S</tspan>
      </text>
     </g>
    </g>
   </g>
   <g id="matplotlib.axis_2">
    <g id="ytick_1">
     <g id="line2d_19">
      <path clip-path="url(#pca187be413)" d="M 67.322835 178.727631 
L 484.724409 178.727631 
" style="fill:none;stroke:#cccccc;stroke-linecap:round;stroke-width:0.8;"/>
     </g>
     <g id="line2d_20"/>
     <g id="text_11">
      <text style="fill:#262626;font-family:Arial;font-size:10px;font-style:normal;font-weight:400;text-anchor:end;" transform="rotate(-0, 63.822835, 182.306537)" x="63.822835" y="182.306537">0.0</text>
     </g>
    </g>
    <g id="ytick_2">
     <g id="line2d_21">
      <path clip-path="url(#pca187be413)" d="M 67.322835 149.514452 
L 484.724409 149.514452 
" style="fill:none;stroke:#cccccc;stroke-linecap:round;stroke-width:0.8;"/>
     </g>
     <g id="line2d_22"/>
     <g id="text_12">
      <text style="fill:#262626;font-family:Arial;font-size:10px;font-style:normal;font-weight:400;text-anchor:end;" transform="rotate(-0, 63.822835, 153.093358)" x="63.822835" y="153.093358">0.2</text>
     </g>
    </g>
    <g id="ytick_3">
     <g id="line2d_23">
      <path clip-path="url(#pca187be413)" d="M 67.322835 120.301273 
L 484.724409 120.301273 
" style="fill:none;stroke:#cccccc;stroke-linecap:round;stroke-width:0.8;"/>
     </g>
     <g id="line2d_24"/>
     <g id="text_13">
      <text style="fill:#262626;font-family:Arial;font-size:10px;font-style:normal;font-weight:400;text-anchor:end;" transform="rotate(-0, 63.822835, 123.880179)" x="63.822835" y="123.880179">0.4</text>
     </g>
    </g>
    <g id="ytick_4">
     <g id="line2d_25">
      <path clip-path="url(#pca187be413)" d="M 67.322835 91.088094 
L 484.724409 91.088094 
" style="fill:none;stroke:#cccccc;stroke-linecap:round;stroke-width:0.8;"/>
     </g>
     <g id="line2d_26"/>
     <g id="text_14">
      <text style="fill:#262626;font-family:Arial;font-size:10px;font-style:normal;font-weight:400;text-anchor:end;" transform="rotate(-0, 63.822835, 94.667)" x="63.822835" y="94.667">0.6</text>
     </g>
    </g>
    <g id="ytick_5">
     <g id="line2d_27">
      <path clip-path="url(#pca187be413)" d="M 67.322835 61.874915 
L 484.724409 61.874915 
" style="fill:none;stroke:#cccccc;stroke-linecap:round;stroke-width:0.8;"/>
     </g>
     <g id="line2d_28"/>
     <g id="text_15">
      <text style="fill:#262626;font-family:Arial;font-size:10px;font-style:normal;font-weight:400;text-anchor:end;" transform="rotate(-0, 63.822835, 65.453822)" x="63.822835" y="65.453822">0.8</text>
     </g>
    </g>
    <g id="ytick_6">
     <g id="line2d_29">
      <path clip-path="url(#pca187be413)" d="M 67.322835 32.661737 
L 484.724409 32.661737 
" style="fill:none;stroke:#cccccc;stroke-linecap:round;stroke-width:0.8;"/>
     </g>
     <g id="line2d_30"/>
     <g id="text_16">
      <text style="fill:#262626;font-family:Arial;font-size:10px;font-style:normal;font-weight:400;text-anchor:end;" transform="rotate(-0, 63.822835, 36.240643)" x="63.822835" y="36.240643">1.0</text>
     </g>
    </g>
    <g id="text_17">
     <text style="fill:#262626;font-family:Arial;font-size:10px;font-style:normal;font-weight:400;text-anchor:middle;" transform="rotate(-90, 43.935335, 105.767717)" x="43.935335" y="105.767717">CDF</text>
    </g>
   </g>
   <g id="line2d_31">
    <path clip-path="url(#pca187be413)" d="M 86.295634 178.727631 
L 86.30272 178.581565 
L 86.558633 178.143367 
L 86.702286 177.705169 
L 87.150234 177.120906 
L 87.241243 176.682708 
L 87.372126 176.390576 
L 87.398896 176.24451 
L 87.642039 175.952379 
L 87.733051 175.514181 
L 87.953069 175.222049 
L 88.058353 174.345654 
L 88.292139 174.053522 
L 88.603004 172.592863 
L 88.87273 172.154665 
L 89.367305 170.986138 
L 90.243534 168.941216 
L 90.532399 168.503018 
L 90.640963 168.06482 
L 91.328584 167.334491 
L 91.411009 166.896293 
L 91.605108 166.458096 
L 92.001017 165.143502 
L 93.134126 164.121041 
L 93.186782 163.974975 
L 93.515512 163.682844 
L 93.800963 163.09858 
L 94.236706 162.514316 
L 95.308763 160.469394 
L 95.983576 159.739064 
L 96.101484 159.300867 
L 96.377037 159.008735 
L 97.017586 157.109878 
L 97.38514 156.671681 
L 97.718785 156.087417 
L 99.485961 150.829045 
L 99.686581 150.390847 
L 100.373121 148.784122 
L 100.750345 148.345925 
L 100.966553 147.761661 
L 101.085976 147.469529 
L 101.209374 147.031332 
L 101.482807 146.7392 
L 101.60016 146.00887 
L 101.777032 145.570673 
L 101.901581 144.694277 
L 102.078152 144.110014 
L 102.374577 143.087552 
L 102.497827 142.795421 
L 102.725775 142.211157 
L 102.806025 141.919025 
L 102.982738 141.626894 
L 103.186002 141.04263 
L 103.615315 139.874103 
L 103.617163 139.581971 
L 103.892429 139.143773 
L 104.365192 137.975246 
L 104.781236 137.683114 
L 104.88362 137.244917 
L 105.027576 136.952785 
L 105.159399 136.368521 
L 105.628238 134.615731 
L 105.724649 134.323599 
L 106.076894 133.739335 
L 106.180981 133.447203 
L 106.434101 132.716874 
L 106.645969 132.424742 
L 107.151144 131.548347 
L 107.511943 131.110149 
L 108.133282 128.627029 
L 108.447298 128.480963 
L 108.490196 128.042765 
L 109.080839 127.312436 
L 109.409155 127.16637 
L 109.416658 127.020304 
L 109.724148 126.582106 
L 110.009059 125.997843 
L 110.480921 125.705711 
L 110.52872 125.413579 
L 110.792689 125.267513 
L 110.844536 124.975382 
L 111.00923 124.68325 
L 111.24563 123.95292 
L 111.36466 123.514723 
L 111.487991 122.930459 
L 111.582826 122.638327 
L 111.583205 122.492261 
L 111.806147 122.054064 
L 112.214199 121.907998 
L 112.242639 121.615866 
L 112.409538 121.323734 
L 112.567517 121.031602 
L 112.766132 120.301273 
L 113.10167 119.570944 
L 113.128378 119.278812 
L 113.469299 118.840614 
L 113.543054 118.548482 
L 114.621358 117.672087 
L 115.207899 116.211428 
L 115.277973 115.919296 
L 115.445865 115.627164 
L 115.55058 115.042901 
L 115.793777 114.750769 
L 116.052895 113.582242 
L 116.136524 113.29011 
L 116.231476 112.559781 
L 116.431438 111.975517 
L 116.908866 110.368792 
L 117.08566 109.784529 
L 117.103011 109.492397 
L 117.280762 109.200265 
L 117.336958 109.054199 
L 117.535638 108.762067 
L 117.672362 108.469936 
L 117.897396 107.447474 
L 118.025292 106.863211 
L 118.151391 106.425013 
L 118.368862 105.986815 
L 118.523781 105.840749 
L 118.859939 105.694684 
L 119.197903 104.672222 
L 119.56554 103.795827 
L 119.94654 102.773366 
L 120.133792 102.6273 
L 120.270858 101.750904 
L 120.986711 100.436311 
L 121.073633 99.998114 
L 121.278142 99.705982 
L 121.304126 99.267784 
L 121.544468 99.121718 
L 121.598102 98.683521 
L 121.680708 98.391389 
L 121.845621 97.514994 
L 122.044622 97.076796 
L 122.301936 95.908269 
L 122.429837 95.470071 
L 122.835912 94.885807 
L 123.039619 94.155478 
L 123.268711 93.71728 
L 123.392355 93.279083 
L 123.872437 92.548753 
L 124.345938 90.942028 
L 124.55668 90.795962 
L 124.602099 90.357765 
L 124.740248 90.065633 
L 124.798874 89.627435 
L 125.060988 89.335303 
L 125.213213 88.75104 
L 125.470777 88.604974 
L 125.654655 87.874645 
L 126.229699 86.852183 
L 126.349201 86.26792 
L 126.462475 85.975788 
L 126.463249 85.829722 
L 126.622341 85.53759 
L 126.68017 84.953327 
L 126.824716 84.515129 
L 126.962511 84.076931 
L 127.179566 83.346602 
L 127.312579 82.908404 
L 127.541795 82.178075 
L 127.827121 81.739877 
L 127.948457 81.155613 
L 128.061688 80.863482 
L 128.260005 80.425284 
L 128.413768 80.133152 
L 129.095661 78.672493 
L 129.670854 78.08823 
L 129.696511 77.942164 
L 130.121851 77.796098 
L 131.172523 74.582648 
L 131.311775 73.706253 
L 132.056368 71.953462 
L 132.153431 71.515264 
L 132.985129 70.346737 
L 133.003413 70.200671 
L 133.219035 69.90854 
L 133.413369 68.593946 
L 133.633847 67.863617 
L 133.647655 67.571485 
L 133.819193 67.279353 
L 133.885536 66.841156 
L 134.101156 66.549024 
L 134.387206 66.110826 
L 134.671661 65.818694 
L 135.619357 64.065904 
L 135.763462 63.189508 
L 136.002102 62.605245 
L 136.010649 62.459179 
L 136.341876 62.167047 
L 136.460733 61.728849 
L 136.565473 61.436718 
L 136.792482 60.99852 
L 137.125989 60.706388 
L 137.267422 60.268191 
L 137.351282 59.829993 
L 137.750498 59.391795 
L 138.133409 58.661466 
L 138.337203 58.369334 
L 139.10283 57.054741 
L 139.511265 56.178345 
L 139.572787 55.886214 
L 139.826023 55.740148 
L 139.944855 55.155884 
L 140.289535 55.009818 
L 140.413146 54.279489 
L 140.745803 53.695225 
L 140.869166 53.257028 
L 140.958342 52.81883 
L 141.31924 52.526698 
L 141.483726 51.796369 
L 142.145901 50.919973 
L 142.319277 50.627842 
L 142.751266 50.189644 
L 143.020545 49.021117 
L 143.047095 48.728985 
L 143.575628 48.144721 
L 144.00129 46.537996 
L 144.143605 46.245865 
L 144.292242 45.953733 
L 144.485799 45.661601 
L 144.498894 45.515535 
L 144.890021 45.223403 
L 146.112814 42.302086 
L 146.236095 41.863888 
L 146.555611 41.571756 
L 146.899839 40.987493 
L 147.067953 40.111097 
L 147.214282 39.818965 
L 147.57263 38.504372 
L 147.668112 38.358306 
L 147.93718 38.212241 
L 148.09783 37.627977 
L 148.429704 36.751582 
L 148.47712 36.45945 
L 148.77758 36.167318 
L 148.947573 35.583054 
L 149.095985 35.144857 
L 149.228328 34.414527 
L 149.309899 34.268461 
L 149.55922 34.122395 
L 149.760481 32.807802 
L 149.760481 32.807802 
" style="fill:none;stroke:#be1e3c;stroke-linecap:round;stroke-width:1.5;"/>
   </g>
   <g id="line2d_32">
    <path clip-path="url(#pca187be413)" d="M 157.039032 178.727631 
L 168.574633 178.581565 
L 173.003837 178.435499 
L 178.029249 177.851235 
L 181.518305 177.705169 
L 189.492514 177.559103 
L 189.632226 177.413038 
L 199.715113 177.120906 
L 202.814462 176.97484 
L 203.399692 176.828774 
L 207.404462 176.24451 
L 215.22781 175.806313 
L 216.321176 175.660247 
L 216.393402 175.514181 
L 216.930909 175.368115 
L 218.305273 175.075983 
L 218.311703 174.929917 
L 220.31698 174.637786 
L 220.97254 174.49172 
L 222.9471 174.345654 
L 223.649244 173.907456 
L 226.742813 173.615324 
L 226.977478 173.323193 
L 229.657123 173.031061 
L 229.999167 172.884995 
L 231.047354 172.738929 
L 231.242422 172.592863 
L 232.612163 172.300731 
L 233.776146 172.0086 
L 233.938022 171.862534 
L 235.777305 171.716468 
L 236.090222 171.570402 
L 239.026767 171.27827 
L 239.46016 171.132204 
L 240.349595 170.986138 
L 242.080797 170.840072 
L 242.238946 170.694006 
L 243.044875 170.547941 
L 243.201607 170.255809 
L 244.892658 170.109743 
L 244.907837 169.963677 
L 250.663163 168.649084 
L 250.818075 168.503018 
L 251.316413 168.356952 
L 251.366869 168.210886 
L 252.541589 167.918754 
L 252.549589 167.772689 
L 254.250741 167.626623 
L 255.10273 167.188425 
L 256.455712 166.896293 
L 256.730377 166.604161 
L 256.810337 166.458096 
L 257.520276 166.31203 
L 257.694541 165.873832 
L 258.178898 165.727766 
L 258.205733 165.5817 
L 258.771428 165.435634 
L 258.826801 165.289568 
L 259.4834 164.997437 
L 259.520525 164.851371 
L 260.079293 164.705305 
L 260.149982 164.559239 
L 260.591367 164.413173 
L 260.806174 164.121041 
L 261.041329 163.974975 
L 262.061058 163.828909 
L 262.400317 163.244646 
L 263.906978 162.952514 
L 264.552658 162.660382 
L 264.96888 162.36825 
L 265.546537 162.222185 
L 266.789531 162.076119 
L 268.920517 160.907592 
L 270.795208 160.61546 
L 270.858482 160.469394 
L 271.872379 160.177262 
L 274.399485 159.739064 
L 274.724764 159.446933 
L 277.17067 159.008735 
L 277.189342 158.862669 
L 278.553838 158.716603 
L 278.792695 158.570537 
L 279.35704 158.424471 
L 279.448564 158.278405 
L 279.777964 158.13234 
L 283.40156 157.548076 
L 283.525666 157.255944 
L 283.616328 157.109878 
L 283.984185 156.963812 
L 285.139829 156.817747 
L 286.11945 155.941351 
L 286.230441 155.503153 
L 286.43229 154.334626 
L 286.733753 150.975111 
L 286.832135 149.076254 
L 286.98293 144.986409 
L 287.399902 130.37982 
L 287.576166 122.930459 
L 287.643012 119.570944 
L 287.800638 112.559781 
L 287.973813 103.941893 
L 288.162521 93.571214 
L 288.239368 89.335303 
L 288.937459 59.829993 
L 289.019605 56.908675 
L 289.13258 53.257028 
L 289.43807 45.515535 
L 289.54222 43.470613 
L 289.770013 39.818965 
L 290.26445 37.481911 
L 290.617416 36.751582 
L 290.824343 36.605516 
L 291.289771 36.45945 
L 291.593382 35.72912 
L 291.640423 35.436989 
L 291.752503 35.144857 
L 291.7551 34.998791 
L 292.619298 33.97633 
L 293.440114 33.684198 
L 293.448505 33.538132 
L 294.314135 33.246 
L 294.555583 32.953868 
L 295.236607 32.807802 
L 295.236607 32.807802 
" style="fill:none;stroke:#ffc82a;stroke-linecap:round;stroke-width:1.5;"/>
   </g>
   <g id="line2d_33">
    <path clip-path="url(#pca187be413)" d="M 287.515014 178.727631 
L 287.685964 178.435499 
L 287.864402 178.143367 
L 288.078177 177.266972 
L 288.220352 176.828774 
L 288.304981 176.24451 
L 288.392944 175.660247 
L 288.556289 175.222049 
L 288.794016 173.76139 
L 289.04568 172.300731 
L 289.130855 171.862534 
L 289.939094 167.918754 
L 290.036603 167.480557 
L 291.600053 156.233483 
L 291.726145 155.503153 
L 291.907081 154.480692 
L 291.949464 154.042495 
L 292.083378 153.604297 
L 292.384893 152.43577 
L 292.864771 148.491991 
L 293.484431 146.00887 
L 293.605428 145.570673 
L 293.752366 144.986409 
L 294.095195 142.211157 
L 294.161712 141.772959 
L 294.512069 139.728037 
L 294.642596 139.435905 
L 294.788453 138.55951 
L 294.908462 137.975246 
L 295.547411 133.593269 
L 296.37788 128.334897 
L 296.644919 125.997843 
L 296.75257 125.559645 
L 297.094854 123.806854 
L 297.200021 122.784393 
L 297.280488 122.054064 
L 298.000349 117.818153 
L 298.109246 117.526021 
L 298.587728 114.02044 
L 298.692287 113.582242 
L 298.770783 112.997978 
L 298.846397 112.559781 
L 298.920006 111.537319 
L 299.274496 107.301408 
L 299.338814 106.863211 
L 299.42065 105.986815 
L 299.726233 104.672222 
L 300.028484 102.481234 
L 300.206388 102.189102 
L 300.45593 100.582377 
L 300.768484 98.391389 
L 300.905658 97.661059 
L 301.38751 95.177939 
L 301.540546 93.425148 
L 301.649276 92.548753 
L 301.825719 91.526292 
L 301.885101 90.942028 
L 301.988683 90.065633 
L 302.061707 89.481369 
L 302.157745 88.312842 
L 302.400828 87.582513 
L 302.520353 86.852183 
L 302.783227 85.099393 
L 302.902247 83.784799 
L 303.377034 80.425284 
L 303.488417 80.133152 
L 303.62638 79.256757 
L 303.773113 78.818559 
L 303.929769 77.3579 
L 304.338195 75.020846 
L 304.471089 74.436582 
L 304.587199 73.121989 
L 304.722485 72.245594 
L 304.85123 70.784935 
L 304.928498 70.492803 
L 305.08424 68.740012 
L 305.242997 67.425419 
L 305.505571 66.110826 
L 305.612177 65.234431 
L 305.708447 64.650167 
L 305.802975 64.065904 
L 305.930308 63.773772 
L 306.336048 61.728849 
L 306.487474 61.290652 
L 306.706541 59.976059 
L 306.784156 59.391795 
L 307.020095 57.931136 
L 307.559392 55.448016 
L 307.763106 53.987357 
L 307.981592 53.257028 
L 308.338527 51.504237 
L 308.471752 51.212105 
L 308.632499 49.751446 
L 308.820579 48.875051 
L 308.995235 48.144721 
L 309.145973 47.268326 
L 309.367676 46.537996 
L 309.449329 46.099799 
L 309.538605 45.807667 
L 309.722518 45.369469 
L 309.827968 45.077338 
L 309.926127 44.785206 
L 310.320588 43.762744 
L 310.415095 43.470613 
L 310.780408 42.009954 
L 311.067593 40.841427 
L 311.282884 40.549295 
L 311.301814 40.257163 
L 311.836063 39.526834 
L 311.943084 38.94257 
L 312.12731 37.774043 
L 312.434434 36.605516 
L 312.653236 36.45945 
L 312.802841 35.875186 
L 313.424288 34.998791 
L 313.472081 34.852725 
L 314.447154 33.97633 
L 314.523174 33.684198 
L 314.762064 33.392066 
L 314.767395 33.246 
L 315.243416 32.807802 
L 315.243416 32.807802 
" style="fill:none;stroke:#e16d00;stroke-linecap:round;stroke-width:1.5;"/>
   </g>
   <g id="line2d_34">
    <path clip-path="url(#pca187be413)" d="M 288.910824 178.727631 
L 288.933259 178.581565 
L 290.038107 178.289433 
L 291.528696 177.997301 
L 291.848825 177.705169 
L 292.72483 177.559103 
L 293.306261 177.120906 
L 294.040298 176.97484 
L 294.072638 176.828774 
L 295.382946 176.390576 
L 295.547563 176.098445 
L 296.288426 175.514181 
L 296.42274 175.222049 
L 296.889247 174.783851 
L 297.002556 174.637786 
L 297.38631 174.49172 
L 297.480421 174.053522 
L 297.844068 173.76139 
L 298.618128 173.469258 
L 298.765059 173.177127 
L 299.361923 172.738929 
L 299.607187 172.154665 
L 299.815293 172.0086 
L 299.940908 171.570402 
L 300.422674 171.424336 
L 300.984571 169.671545 
L 301.516782 169.087282 
L 301.778564 168.79515 
L 301.884727 168.210886 
L 302.08352 167.918754 
L 302.084998 167.772689 
L 302.375732 167.626623 
L 302.404318 167.334491 
L 303.435946 166.458096 
L 303.768429 166.019898 
L 304.070948 165.873832 
L 304.093817 165.727766 
L 304.370917 165.435634 
L 304.628622 164.705305 
L 305.099074 164.267107 
L 305.153805 163.974975 
L 305.333317 163.536778 
L 305.583681 162.806448 
L 305.848137 162.514316 
L 305.99387 162.076119 
L 306.296005 161.637921 
L 306.632895 159.88513 
L 307.161294 159.008735 
L 307.268099 158.13234 
L 307.603158 157.40201 
L 307.697455 157.109878 
L 307.810307 156.817747 
L 307.81659 156.671681 
L 308.183199 156.379549 
L 308.250529 155.941351 
L 308.532357 155.357088 
L 308.616542 154.772824 
L 308.815951 154.480692 
L 309.270693 152.143638 
L 309.616514 150.975111 
L 309.729047 150.682979 
L 309.831834 150.390847 
L 309.969665 149.368386 
L 310.192426 148.930188 
L 310.351252 148.345925 
L 310.547258 147.907727 
L 310.659661 147.469529 
L 310.813486 146.593134 
L 310.932621 146.301002 
L 311.148315 145.424607 
L 311.269139 145.132475 
L 311.542631 143.671816 
L 311.858003 142.941487 
L 312.741948 139.874103 
L 312.813392 139.435905 
L 312.974214 138.851642 
L 313.054519 137.82918 
L 313.318028 137.390983 
L 314.106804 134.469665 
L 314.824054 130.964083 
L 315.002012 130.233754 
L 315.605073 126.874238 
L 315.773314 126.436041 
L 316.153253 124.537184 
L 316.261989 124.245052 
L 316.470912 122.784393 
L 317.168492 119.863075 
L 317.219542 119.424878 
L 317.333586 119.132746 
L 317.470768 118.840614 
L 317.603286 118.548482 
L 317.692593 117.964219 
L 317.783545 117.526021 
L 317.877933 116.941757 
L 318.08408 116.065362 
L 318.175941 115.335033 
L 318.304736 115.042901 
L 318.411874 114.750769 
L 318.618031 113.874374 
L 318.792325 113.436176 
L 319.056118 111.391253 
L 319.403874 110.660924 
L 319.595845 110.514858 
L 319.660682 109.930595 
L 319.814227 109.638463 
L 320.068401 108.177804 
L 320.333261 107.155343 
L 320.414651 106.571079 
L 320.490316 105.840749 
L 320.57184 105.402552 
L 320.614583 104.964354 
L 320.768081 104.672222 
L 320.903966 104.234025 
L 321.052249 103.941893 
L 321.143396 103.065497 
L 321.397692 102.335168 
L 321.489384 101.750904 
L 321.821321 99.852048 
L 322.291266 97.222862 
L 322.544777 95.616137 
L 322.749434 94.593676 
L 322.872395 93.863346 
L 322.981684 93.279083 
L 323.65295 90.649896 
L 323.768413 89.919567 
L 323.865996 89.627435 
L 323.892621 89.189238 
L 324.015999 88.897106 
L 324.560744 87.144315 
L 324.678315 86.413986 
L 324.782362 85.975788 
L 324.955848 85.683656 
L 325.061483 84.953327 
L 325.230297 84.661195 
L 325.414779 83.492668 
L 325.559591 82.470206 
L 325.686941 82.178075 
L 327.403935 74.582648 
L 327.553017 73.998385 
L 327.774475 72.537726 
L 327.903609 72.099528 
L 328.255512 70.931001 
L 328.38971 70.638869 
L 328.448507 70.054605 
L 328.670215 69.762474 
L 328.730416 69.324276 
L 329.011425 69.032144 
L 329.486935 66.841156 
L 329.701588 66.402958 
L 331.015168 61.144586 
L 331.185138 60.268191 
L 331.30349 59.829993 
L 332.066127 57.346873 
L 332.279379 56.324411 
L 332.781999 54.863752 
L 332.928945 54.571621 
L 332.975987 54.279489 
L 333.212762 53.987357 
L 334.18812 49.167183 
L 334.477206 48.875051 
L 335.228675 47.414392 
L 335.757898 46.976194 
L 335.937091 46.099799 
L 336.037035 45.807667 
L 336.167471 45.515535 
L 336.393713 44.931272 
L 337.70794 43.178481 
L 337.791082 42.886349 
L 337.914028 42.302086 
L 337.924302 42.15602 
L 338.15923 41.863888 
L 338.271534 41.42569 
L 338.486381 40.841427 
L 338.642431 40.257163 
L 338.830249 39.965031 
L 339.480191 39.818965 
L 339.601293 39.234702 
L 340.010257 38.94257 
L 340.48752 38.650438 
L 340.853313 37.920109 
L 341.418683 37.774043 
L 341.607249 37.189779 
L 341.844659 36.897647 
L 342.019598 36.45945 
L 342.112548 36.313384 
L 342.851131 36.021252 
L 342.856603 35.875186 
L 344.188844 34.998791 
L 344.536116 34.560593 
L 345.410763 34.122395 
L 346.070605 33.392066 
L 347.112137 33.246 
L 347.189172 33.099934 
L 348.890021 32.953868 
L 349.170136 32.807802 
L 349.170136 32.807802 
" style="fill:none;stroke:#711c2f;stroke-linecap:round;stroke-width:1.5;"/>
   </g>
   <g id="line2d_35">
    <path clip-path="url(#pca187be413)" d="M 300.788115 178.727631 
L 301.976682 178.581565 
L 302.327166 178.435499 
L 306.608382 178.143367 
L 307.038114 177.997301 
L 307.091199 177.851235 
L 307.946922 177.705169 
L 308.010079 177.559103 
L 308.884549 177.266972 
L 310.811933 177.120906 
L 311.263873 176.828774 
L 312.275327 176.536642 
L 312.611294 176.390576 
L 313.515865 176.098445 
L 313.569738 175.952379 
L 313.977189 175.660247 
L 315.245791 175.514181 
L 315.575625 175.075983 
L 315.582078 174.929917 
L 316.475313 174.783851 
L 316.630297 174.637786 
L 316.95855 174.49172 
L 317.937507 174.199588 
L 318.279127 173.907456 
L 318.33933 173.76139 
L 319.215593 173.615324 
L 319.321175 173.323193 
L 319.374689 173.177127 
L 319.795128 172.884995 
L 320.489554 172.446797 
L 320.710824 172.154665 
L 321.26691 171.716468 
L 321.359145 171.424336 
L 322.085611 170.986138 
L 322.140046 170.694006 
L 322.787725 170.547941 
L 322.962553 170.255809 
L 323.39077 169.963677 
L 323.602813 169.671545 
L 323.750107 168.79515 
L 324.161383 168.356952 
L 324.212084 168.210886 
L 324.56648 167.918754 
L 325.220763 166.896293 
L 325.442462 166.604161 
L 325.735228 165.873832 
L 325.910024 165.727766 
L 326.505241 165.435634 
L 326.77557 164.997437 
L 326.844542 164.559239 
L 327.02221 164.267107 
L 327.181498 163.974975 
L 327.386455 163.536778 
L 327.674951 163.244646 
L 327.998316 162.36825 
L 328.097674 161.930053 
L 328.452287 161.783987 
L 328.573962 161.345789 
L 328.933405 161.053657 
L 329.193539 160.61546 
L 329.209275 160.323328 
L 329.91373 160.031196 
L 330.061227 159.739064 
L 330.253846 159.446933 
L 330.536551 158.716603 
L 330.792748 158.424471 
L 330.925603 157.255944 
L 331.145057 157.109878 
L 331.153044 156.817747 
L 331.651937 156.087417 
L 331.736273 155.649219 
L 331.800554 155.211022 
L 331.901616 154.91889 
L 331.967417 154.626758 
L 332.366414 153.896429 
L 332.474373 153.458231 
L 332.897266 153.020033 
L 333.234968 151.997572 
L 333.720897 149.806584 
L 333.959203 149.514452 
L 334.180131 148.930188 
L 335.785284 143.233618 
L 336.075965 142.941487 
L 336.102204 142.649355 
L 336.537992 142.211157 
L 336.555404 141.919025 
L 336.856079 141.480828 
L 336.89005 141.188696 
L 337.002995 140.896564 
L 337.148609 140.020169 
L 337.221755 139.728037 
L 337.507432 139.289839 
L 337.600465 138.997707 
L 337.744683 138.705576 
L 338.002531 137.82918 
L 338.053865 137.244917 
L 338.261172 136.660653 
L 338.324063 136.222455 
L 338.445528 135.930324 
L 338.630198 135.492126 
L 338.800068 135.053928 
L 338.918731 134.615731 
L 339.117574 134.177533 
L 339.165366 133.885401 
L 339.676993 133.301138 
L 340.361246 130.525886 
L 340.547068 130.087688 
L 340.630613 129.64949 
L 340.76774 128.188831 
L 340.870659 127.896699 
L 341.085254 126.436041 
L 341.176696 126.143909 
L 341.371158 125.559645 
L 341.524803 125.121448 
L 341.683073 124.391118 
L 341.827256 123.95292 
L 342.956333 118.548482 
L 343.148438 118.402416 
L 343.186278 118.110285 
L 343.410227 117.818153 
L 343.535114 116.795692 
L 343.655593 116.50356 
L 344.002696 115.042901 
L 344.20104 114.750769 
L 344.244939 114.02044 
L 344.560805 113.728308 
L 344.784447 112.559781 
L 345.008028 111.829451 
L 345.108814 111.537319 
L 345.229198 111.099122 
L 345.370446 110.660924 
L 345.681155 110.368792 
L 345.70482 110.07666 
L 345.921037 109.784529 
L 346.114793 109.054199 
L 346.57611 107.155343 
L 346.65443 106.863211 
L 346.758012 106.425013 
L 346.881562 105.986815 
L 346.962841 105.694684 
L 347.160981 105.11042 
L 347.503021 103.795827 
L 347.685068 103.503695 
L 347.796254 103.065497 
L 347.941033 102.189102 
L 349.558333 96.054335 
L 349.56081 95.908269 
L 349.723656 95.616137 
L 349.834936 94.885807 
L 351.006652 89.627435 
L 351.209528 89.189238 
L 351.226673 89.043172 
L 351.429755 88.75104 
L 352.263073 84.515129 
L 352.408924 84.076931 
L 352.555513 82.762338 
L 352.619614 82.324141 
L 352.838166 81.155613 
L 353.010329 80.717416 
L 353.86973 77.650032 
L 353.957077 77.211834 
L 354.13599 76.919702 
L 354.444178 76.335439 
L 354.497429 75.897241 
L 354.621284 75.166912 
L 355.085879 73.121989 
L 355.287243 72.829857 
L 355.489641 71.66133 
L 355.693249 71.077067 
L 355.811423 70.200671 
L 355.888746 69.90854 
L 355.896822 69.762474 
L 356.02719 69.470342 
L 356.350892 68.740012 
L 356.588773 68.301815 
L 356.754281 67.425419 
L 356.888415 66.987222 
L 356.986668 66.69509 
L 357.253158 66.402958 
L 357.449209 64.942299 
L 357.53369 64.650167 
L 357.70657 64.358036 
L 357.849728 64.065904 
L 357.955425 63.627706 
L 358.05167 63.335574 
L 358.155528 62.313113 
L 358.301358 61.582784 
L 358.443974 60.99852 
L 358.574673 60.268191 
L 358.681046 59.683927 
L 358.917793 58.953597 
L 359.130243 57.931136 
L 359.16787 57.639004 
L 359.314164 57.346873 
L 359.452874 56.908675 
L 359.516807 56.470477 
L 359.840729 55.740148 
L 360.305978 54.133423 
L 360.459248 53.549159 
L 360.665531 52.964896 
L 361.027495 52.526698 
L 361.595115 51.358171 
L 361.799272 50.481776 
L 362.579926 48.875051 
L 363.15036 47.560458 
L 363.409051 47.268326 
L 363.547849 46.684062 
L 363.662165 46.391931 
L 363.702253 45.953733 
L 364.464069 45.223403 
L 364.708008 44.931272 
L 364.882654 44.63914 
L 365.344565 43.178481 
L 366.175979 41.717822 
L 366.314086 41.42569 
L 366.545562 40.695361 
L 366.882274 40.111097 
L 367.242815 39.818965 
L 367.346526 39.526834 
L 368.18537 38.796504 
L 368.415927 38.358306 
L 368.739401 38.212241 
L 368.904444 37.774043 
L 369.261609 37.335845 
L 369.472276 37.189779 
L 369.94177 37.043713 
L 370.094128 36.751582 
L 370.683139 36.45945 
L 370.967938 35.583054 
L 373.270083 33.97633 
L 373.399148 33.684198 
L 374.478472 33.392066 
L 376.52875 33.099934 
L 376.999651 32.807802 
L 376.999651 32.807802 
" style="fill:none;stroke:#acc13a;stroke-linecap:round;stroke-width:1.5;"/>
   </g>
   <g id="line2d_36">
    <path clip-path="url(#pca187be413)" d="M 317.451541 178.727631 
L 319.767179 178.581565 
L 325.228791 178.435499 
L 328.576235 177.997301 
L 331.817133 177.851235 
L 331.907742 177.559103 
L 333.54795 177.266972 
L 333.769213 176.97484 
L 337.609321 176.390576 
L 338.142164 176.098445 
L 338.20187 175.806313 
L 341.455521 174.929917 
L 341.650035 174.345654 
L 342.637092 173.907456 
L 342.637335 173.76139 
L 343.755278 173.177127 
L 344.025292 172.884995 
L 344.397341 172.154665 
L 344.674093 171.862534 
L 345.25044 171.716468 
L 345.256649 171.570402 
L 345.767559 171.27827 
L 346.002322 170.986138 
L 346.026758 170.840072 
L 346.749513 170.255809 
L 346.856323 169.963677 
L 347.138026 169.525479 
L 347.593077 169.087282 
L 347.672681 168.941216 
L 347.884273 168.79515 
L 348.450138 168.503018 
L 348.633614 168.210886 
L 348.71706 167.772689 
L 349.370574 166.604161 
L 349.60281 166.019898 
L 349.963287 164.851371 
L 350.534515 164.121041 
L 351.096234 163.828909 
L 351.223569 163.536778 
L 351.501962 163.09858 
L 351.749964 162.806448 
L 352.135211 162.660382 
L 352.201221 162.36825 
L 352.295819 162.076119 
L 352.315798 161.930053 
L 352.936028 161.199723 
L 353.177188 160.469394 
L 353.467256 160.323328 
L 353.63719 159.592999 
L 353.906687 159.154801 
L 354.295788 158.278405 
L 354.446708 157.986274 
L 354.559777 157.694142 
L 354.888509 156.525615 
L 355.050551 156.087417 
L 355.25076 155.211022 
L 355.38611 154.91889 
L 355.572565 154.18856 
L 356.01158 153.896429 
L 356.082848 153.604297 
L 356.41252 153.312165 
L 356.520827 153.020033 
L 357.099356 151.559374 
L 357.111768 151.413308 
L 357.690922 150.682979 
L 358.106821 149.076254 
L 358.345885 148.638056 
L 358.389949 148.345925 
L 358.534171 148.053793 
L 358.542392 147.907727 
L 358.764729 147.761661 
L 358.856331 147.177398 
L 359.066805 146.593134 
L 359.241153 146.00887 
L 359.956805 144.25608 
L 360.153325 143.379684 
L 360.316596 143.087552 
L 360.449032 142.503289 
L 360.607417 142.211157 
L 360.725063 141.772959 
L 360.857232 141.480828 
L 360.956034 141.04263 
L 361.07898 140.604432 
L 361.167423 140.3123 
L 361.26553 139.874103 
L 361.364917 139.289839 
L 361.484005 139.143773 
L 361.77089 138.997707 
L 361.840503 138.413444 
L 362.02981 137.82918 
L 362.181849 137.098851 
L 362.394694 136.660653 
L 362.407035 136.514587 
L 362.628741 136.222455 
L 362.788371 135.492126 
L 363.00355 135.199994 
L 363.573135 132.424742 
L 363.677267 131.694413 
L 363.945925 131.402281 
L 363.982588 131.110149 
L 364.207019 130.818017 
L 364.336364 130.525886 
L 364.647186 129.941622 
L 364.719266 129.357358 
L 364.852001 129.065227 
L 364.856068 128.919161 
L 365.051086 128.773095 
L 365.129011 128.480963 
L 365.431101 127.896699 
L 365.619648 127.312436 
L 365.786861 127.020304 
L 366.614026 124.098986 
L 367.252887 121.761932 
L 368.241615 118.548482 
L 368.492941 118.25635 
L 368.627428 117.818153 
L 368.956569 116.795692 
L 369.204261 115.481098 
L 369.318327 115.042901 
L 369.438232 114.604703 
L 369.513718 114.312571 
L 369.677116 112.997978 
L 369.867689 112.559781 
L 370.019785 111.683385 
L 370.152366 110.953056 
L 370.264282 110.660924 
L 370.523856 109.346331 
L 370.63498 108.762067 
L 370.767054 108.031738 
L 370.930393 107.009277 
L 371.090635 106.278947 
L 371.173921 105.840749 
L 371.262582 105.256486 
L 372.507247 100.582377 
L 372.755346 100.14418 
L 372.839056 99.705982 
L 373.107458 99.41385 
L 373.453123 98.099257 
L 373.611983 97.807125 
L 373.959793 96.784664 
L 374.136913 96.346466 
L 374.581736 94.155478 
L 374.765014 93.863346 
L 374.881623 93.133017 
L 375.196845 91.526292 
L 375.688469 89.481369 
L 375.867819 88.897106 
L 376.043873 88.604974 
L 376.154777 87.582513 
L 376.27121 87.290381 
L 376.599714 85.391524 
L 376.751997 84.953327 
L 377.056059 84.515129 
L 377.200202 84.076931 
L 377.350725 83.346602 
L 377.67231 82.762338 
L 377.804647 82.324141 
L 377.838023 81.885943 
L 377.982318 81.593811 
L 378.230455 80.425284 
L 378.366943 79.84102 
L 378.461734 79.548889 
L 378.596183 78.818559 
L 378.866783 78.08823 
L 378.948959 77.211834 
L 379.102485 76.627571 
L 379.317966 75.897241 
L 379.486596 75.605109 
L 379.635525 74.728714 
L 379.75794 74.14445 
L 380.158805 73.414121 
L 380.518237 72.245594 
L 381.090682 71.66133 
L 381.202642 71.077067 
L 381.358613 70.784935 
L 381.446286 70.200671 
L 381.697417 69.616408 
L 381.862543 69.032144 
L 382.130537 68.009683 
L 382.41711 67.863617 
L 382.652411 66.987222 
L 383.256899 65.380497 
L 383.674167 64.065904 
L 383.916343 62.897377 
L 384.049099 62.605245 
L 384.227536 61.874915 
L 384.241957 61.728849 
L 384.58424 61.290652 
L 384.707845 60.560322 
L 384.831265 60.122125 
L 385.175656 59.829993 
L 385.285345 59.245729 
L 385.505266 58.5154 
L 386.259453 56.178345 
L 386.817196 55.594082 
L 387.059896 55.009818 
L 387.195991 54.717687 
L 387.285799 54.279489 
L 387.65321 53.403094 
L 387.886405 53.257028 
L 388.032216 52.672764 
L 388.294545 52.380632 
L 388.405539 51.796369 
L 388.427299 51.650303 
L 388.740517 51.358171 
L 388.74254 51.212105 
L 389.032139 50.919973 
L 389.212703 50.189644 
L 389.698893 49.313248 
L 389.787448 49.021117 
L 389.876736 48.728985 
L 389.887841 48.582919 
L 390.023589 48.290787 
L 390.126662 47.706524 
L 390.603679 47.560458 
L 390.714173 46.830128 
L 391.151893 46.684062 
L 391.507473 45.661601 
L 391.997297 44.63914 
L 392.062417 44.347008 
L 392.510221 44.054876 
L 392.625774 43.616679 
L 393.053119 42.886349 
L 393.133552 42.594217 
L 393.458499 42.15602 
L 393.651156 41.863888 
L 394.036284 41.42569 
L 394.111999 41.133558 
L 394.95439 40.695361 
L 395.247642 39.818965 
L 395.564743 39.526834 
L 395.572151 39.380768 
L 396.25124 39.088636 
L 396.642963 38.358306 
L 396.907219 37.774043 
L 397.8464 37.189779 
L 397.888184 37.043713 
L 398.527806 36.751582 
L 398.632199 36.45945 
L 399.08901 36.313384 
L 399.56213 35.583054 
L 399.875447 35.290923 
L 400.26638 34.852725 
L 401.504423 34.706659 
L 401.53857 34.560593 
L 402.293061 34.122395 
L 402.602636 33.684198 
L 404.33256 33.538132 
L 404.465524 33.246 
L 405.416585 32.953868 
L 407.110581 32.807802 
L 407.110581 32.807802 
" style="fill:none;stroke:#6d8300;stroke-linecap:round;stroke-width:1.5;"/>
   </g>
   <g id="line2d_37">
    <path clip-path="url(#pca187be413)" d="M 345.863263 178.727631 
L 347.789414 178.581565 
L 353.224943 178.289433 
L 355.695207 177.851235 
L 355.74245 177.705169 
L 356.097239 177.559103 
L 356.139419 177.413038 
L 357.051372 177.120906 
L 357.093124 176.97484 
L 359.438632 176.390576 
L 359.498441 176.24451 
L 360.32286 175.952379 
L 362.077982 175.075983 
L 362.359486 174.49172 
L 362.577029 174.345654 
L 362.683363 174.053522 
L 363.536718 173.907456 
L 363.574196 173.615324 
L 363.797373 173.323193 
L 364.25065 173.177127 
L 365.508029 173.031061 
L 365.742678 172.738929 
L 366.566742 172.592863 
L 366.819536 172.0086 
L 366.82343 171.862534 
L 367.181717 171.570402 
L 367.467914 171.27827 
L 367.525789 170.986138 
L 368.359628 170.255809 
L 368.525322 169.671545 
L 369.888472 168.06482 
L 370.537778 167.042359 
L 370.56492 166.896293 
L 370.933942 166.750227 
L 371.152301 166.019898 
L 371.449753 165.143502 
L 372.117096 164.559239 
L 372.304835 163.974975 
L 372.473353 163.682844 
L 373.155756 162.952514 
L 373.272562 162.514316 
L 373.696753 161.930053 
L 373.713404 161.783987 
L 374.508008 161.345789 
L 374.966028 160.177262 
L 375.177359 159.739064 
L 375.315711 159.154801 
L 375.64624 158.716603 
L 376.261168 157.40201 
L 376.436934 157.109878 
L 376.561028 156.817747 
L 376.797165 155.941351 
L 376.913522 155.649219 
L 376.968305 155.357088 
L 377.082715 155.064956 
L 377.137616 154.772824 
L 377.329508 154.480692 
L 377.648403 153.750363 
L 377.814665 153.458231 
L 378.257085 152.873967 
L 378.26019 152.727901 
L 378.529689 152.581836 
L 378.808346 151.70544 
L 379.039258 151.413308 
L 379.039614 151.267243 
L 379.248127 150.829045 
L 379.333273 150.536913 
L 379.422648 150.098715 
L 379.53181 149.806584 
L 379.660599 149.368386 
L 379.931736 148.930188 
L 380.297001 147.761661 
L 380.484229 147.469529 
L 380.616224 147.031332 
L 380.800572 146.301002 
L 381.008099 145.570673 
L 381.340519 145.278541 
L 381.557594 144.25608 
L 382.005762 143.087552 
L 382.308081 142.649355 
L 383.443935 138.121312 
L 383.489456 137.683114 
L 383.837795 137.098851 
L 384.391306 135.492126 
L 384.586875 135.199994 
L 384.791614 134.177533 
L 384.797506 134.031467 
L 385.060949 133.739335 
L 385.272234 133.009006 
L 385.527962 132.570808 
L 385.596104 132.278676 
L 385.784269 131.986545 
L 385.87388 131.694413 
L 386.05777 131.256215 
L 386.361401 129.64949 
L 386.693295 129.065227 
L 386.930665 127.896699 
L 387.167729 127.16637 
L 387.4547 125.997843 
L 387.552674 125.559645 
L 387.57762 125.121448 
L 387.694875 124.829316 
L 387.821079 123.806854 
L 388.157191 123.660789 
L 391.484051 111.975517 
L 391.576623 111.683385 
L 391.974122 110.222726 
L 392.258536 109.346331 
L 392.435083 108.616001 
L 392.54947 108.32387 
L 392.724997 107.155343 
L 392.854799 106.278947 
L 392.985586 105.986815 
L 393.064819 105.548618 
L 393.541584 102.189102 
L 393.743885 101.750904 
L 393.830731 101.312707 
L 394.072864 99.998114 
L 394.134865 99.41385 
L 394.141737 99.267784 
L 394.325152 98.975652 
L 394.460026 98.391389 
L 394.780871 97.514994 
L 395.495452 93.279083 
L 395.645345 92.840885 
L 396.005662 91.526292 
L 396.20642 91.380226 
L 396.240536 91.088094 
L 396.405181 90.795962 
L 396.524038 90.357765 
L 396.67058 90.065633 
L 396.96199 88.458908 
L 397.12858 88.02071 
L 397.137043 87.874645 
L 397.2927 87.582513 
L 397.420782 86.706117 
L 397.95228 85.391524 
L 398.048277 84.807261 
L 399.526374 79.987086 
L 399.712817 79.110691 
L 400.56993 75.312978 
L 401.010964 73.998385 
L 401.446324 72.975923 
L 401.586741 72.099528 
L 401.829657 71.223133 
L 402.026912 70.784935 
L 402.043962 70.492803 
L 402.217944 70.200671 
L 402.348161 69.470342 
L 402.491593 69.17821 
L 402.674277 68.593946 
L 403.378211 66.549024 
L 403.592644 66.402958 
L 403.626372 66.110826 
L 403.956182 65.672629 
L 404.01111 65.234431 
L 404.089858 64.796233 
L 404.417075 63.773772 
L 404.670419 63.48164 
L 404.90267 62.751311 
L 405.080102 62.459179 
L 405.456009 60.706388 
L 405.698575 60.122125 
L 406.664046 57.200807 
L 406.783653 56.178345 
L 407.224484 55.009818 
L 407.229123 54.863752 
L 407.600838 54.279489 
L 407.620126 54.133423 
L 407.83164 53.841291 
L 408.749541 51.504237 
L 408.800683 50.919973 
L 409.088399 50.773907 
L 409.105642 50.627842 
L 409.311214 50.33571 
L 409.397105 50.043578 
L 410.035495 48.875051 
L 410.508966 47.706524 
L 410.824813 46.830128 
L 411.006347 46.537996 
L 411.03212 46.245865 
L 411.275052 45.953733 
L 411.323763 45.807667 
L 411.565028 45.515535 
L 411.882928 45.223403 
L 412.220606 44.785206 
L 412.636365 44.054876 
L 412.78993 43.762744 
L 412.887453 43.470613 
L 414.303891 40.111097 
L 414.335497 39.965031 
L 414.746071 39.672899 
L 414.867471 39.380768 
L 415.540805 39.088636 
L 415.719708 38.94257 
L 416.294088 38.796504 
L 416.590603 38.212241 
L 417.286649 37.481911 
L 417.778653 37.335845 
L 417.875355 37.189779 
L 418.629789 36.751582 
L 418.814855 36.605516 
L 419.412859 36.313384 
L 419.530996 36.021252 
L 420.004868 35.72912 
L 420.663356 35.436989 
L 421.057703 35.290923 
L 421.20037 34.998791 
L 421.707004 34.706659 
L 422.367082 34.122395 
L 423.183723 33.97633 
L 423.328276 33.830264 
L 423.766603 33.684198 
L 424.775215 33.538132 
L 424.826477 33.246 
L 427.341486 32.953868 
L 429.757187 32.807802 
L 429.757187 32.807802 
" style="fill:none;stroke:#00534a;stroke-linecap:round;stroke-width:1.5;"/>
   </g>
   <g id="line2d_38">
    <path clip-path="url(#pca187be413)" d="M 364.538334 178.727631 
L 372.799311 178.143367 
L 373.304173 177.851235 
L 373.513161 177.705169 
L 374.114725 177.559103 
L 377.432946 177.413038 
L 379.144366 176.97484 
L 379.188405 176.828774 
L 379.494011 176.682708 
L 379.49492 176.536642 
L 380.370066 176.24451 
L 381.447476 176.098445 
L 381.520282 175.952379 
L 382.405107 175.368115 
L 382.492571 175.075983 
L 382.894834 174.783851 
L 383.283097 174.345654 
L 384.307672 173.76139 
L 384.648885 173.469258 
L 385.698376 173.177127 
L 386.350365 172.446797 
L 386.673564 171.862534 
L 386.828569 171.570402 
L 386.92908 171.424336 
L 387.92699 171.132204 
L 387.94974 170.986138 
L 388.376327 170.547941 
L 388.607832 170.255809 
L 389.759327 169.817611 
L 390.378546 169.233348 
L 390.432251 168.941216 
L 390.872308 168.649084 
L 391.065443 168.06482 
L 391.378954 167.772689 
L 392.071007 167.334491 
L 392.28437 166.896293 
L 392.412411 166.604161 
L 392.975172 166.019898 
L 393.300047 165.873832 
L 393.342236 165.727766 
L 394.25821 165.289568 
L 394.357072 164.997437 
L 394.533627 164.559239 
L 394.800392 163.974975 
L 395.164869 163.536778 
L 395.32907 162.952514 
L 395.496829 162.514316 
L 395.6928 162.222185 
L 395.786499 161.783987 
L 397.276691 158.716603 
L 397.404718 158.424471 
L 397.478716 158.13234 
L 397.861463 157.840208 
L 398.118412 157.40201 
L 398.326946 156.525615 
L 398.548347 156.087417 
L 398.689736 155.795285 
L 398.826262 155.503153 
L 399.025711 154.772824 
L 399.232405 154.480692 
L 399.296972 154.18856 
L 399.479225 153.750363 
L 399.617233 153.458231 
L 400.03227 153.166099 
L 400.233174 152.143638 
L 400.234668 151.997572 
L 400.443223 151.70544 
L 400.558499 151.413308 
L 400.978025 149.660518 
L 401.119495 149.22232 
L 401.515944 148.345925 
L 401.634269 147.615595 
L 401.929395 146.154936 
L 401.968425 145.862804 
L 402.258257 145.132475 
L 402.429026 144.840343 
L 402.619609 144.548211 
L 402.757699 144.110014 
L 402.988972 143.817882 
L 403.586317 141.188696 
L 403.836154 140.896564 
L 403.931552 140.458366 
L 404.094727 139.874103 
L 404.116663 139.728037 
L 404.267907 139.435905 
L 404.478844 138.997707 
L 404.732439 138.851642 
L 404.953782 138.121312 
L 405.240918 137.244917 
L 405.297531 136.952785 
L 405.414656 136.660653 
L 405.636308 135.638192 
L 405.814104 135.34606 
L 405.908789 134.761797 
L 406.276503 133.739335 
L 406.384616 133.155072 
L 406.557566 132.716874 
L 406.682716 132.424742 
L 406.988303 131.840479 
L 407.228716 130.818017 
L 408.155919 128.188831 
L 408.706775 125.851777 
L 408.837263 125.121448 
L 409.427484 123.222591 
L 409.552178 122.930459 
L 409.943103 121.031602 
L 410.084448 120.739471 
L 410.782445 117.087823 
L 410.868965 116.50356 
L 411.018819 116.211428 
L 411.154385 115.335033 
L 411.414728 114.166505 
L 411.863249 112.705847 
L 411.904178 112.559781 
L 412.168565 112.267649 
L 412.240528 111.391253 
L 412.346512 110.80699 
L 412.48238 110.368792 
L 412.609362 109.346331 
L 412.881011 108.908133 
L 413.018683 108.469936 
L 413.422054 107.447474 
L 413.670117 106.132881 
L 413.921412 105.986815 
L 414.319973 103.941893 
L 414.706428 103.211563 
L 415.321211 99.852048 
L 415.531412 99.41385 
L 415.645719 98.975652 
L 416.58924 95.177939 
L 416.699647 94.593676 
L 416.773752 94.155478 
L 416.787314 94.009412 
L 416.947823 93.71728 
L 417.05414 93.279083 
L 417.121835 92.694819 
L 417.338994 92.402687 
L 418.392075 88.02071 
L 418.484795 87.582513 
L 418.723767 87.436447 
L 418.814677 86.998249 
L 419.02233 86.121854 
L 419.139556 85.099393 
L 419.334068 84.661195 
L 419.358692 84.515129 
L 419.596403 84.222997 
L 420.023377 82.324141 
L 420.248444 81.447745 
L 420.641597 79.84102 
L 421.030585 78.672493 
L 421.170694 77.650032 
L 421.349679 77.3579 
L 421.439464 76.919702 
L 421.515289 76.335439 
L 421.715223 75.897241 
L 421.833728 75.459044 
L 422.340952 73.414121 
L 422.433809 73.121989 
L 422.54502 72.829857 
L 422.621941 72.537726 
L 422.845123 72.099528 
L 422.904379 71.66133 
L 423.126902 71.077067 
L 423.291685 70.784935 
L 423.506649 70.200671 
L 423.775229 69.324276 
L 424.045997 67.863617 
L 424.406499 67.279353 
L 425.406893 62.459179 
L 425.579181 62.167047 
L 425.747744 61.436718 
L 425.847432 60.99852 
L 426.172527 59.391795 
L 426.240807 58.807532 
L 426.371253 58.369334 
L 426.471477 58.077202 
L 426.71306 57.931136 
L 426.830845 57.200807 
L 427.119277 56.178345 
L 427.664322 55.594082 
L 427.886693 54.425555 
L 428.137128 54.133423 
L 428.343415 53.549159 
L 428.621028 53.110962 
L 428.739545 52.672764 
L 428.916909 52.380632 
L 428.928959 52.234566 
L 429.069665 51.942435 
L 429.168916 51.650303 
L 429.293655 51.358171 
L 429.519928 50.33571 
L 429.689591 49.897512 
L 429.810606 49.459314 
L 430.293205 48.290787 
L 430.308184 47.998655 
L 430.610595 47.706524 
L 431.123675 46.830128 
L 431.429804 46.537996 
L 431.491055 46.245865 
L 431.809132 45.953733 
L 431.967379 45.223403 
L 432.49848 45.077338 
L 433.57781 42.009954 
L 433.722929 41.717822 
L 434.188628 41.571756 
L 434.212146 41.279624 
L 434.627839 41.133558 
L 434.843189 40.111097 
L 435.051954 39.526834 
L 435.057303 39.380768 
L 435.477323 39.088636 
L 435.723945 38.650438 
L 436.445792 38.358306 
L 437.148324 37.627977 
L 437.582048 37.481911 
L 437.584771 37.335845 
L 438.456538 36.605516 
L 438.612094 36.167318 
L 439.479972 36.021252 
L 439.522558 35.875186 
L 440.366851 35.583054 
L 440.469505 35.436989 
L 440.94531 35.144857 
L 441.316483 34.706659 
L 441.881647 34.414527 
L 441.962387 34.268461 
L 443.548054 33.97633 
L 443.571747 33.830264 
L 443.941861 33.684198 
L 445.455055 33.538132 
L 445.707913 33.246 
L 450.017422 32.953868 
L 450.668486 32.807802 
L 450.668486 32.807802 
" style="fill:none;stroke:#66b4d3;stroke-linecap:round;stroke-width:1.5;"/>
   </g>
   <g id="line2d_39">
    <path clip-path="url(#pca187be413)" d="M 384.429222 178.727631 
L 385.888712 178.581565 
L 386.154841 178.435499 
L 387.333765 178.289433 
L 389.993349 178.143367 
L 390.545229 177.997301 
L 393.819404 177.705169 
L 394.125506 177.559103 
L 394.882056 177.266972 
L 395.029191 176.97484 
L 395.053677 176.828774 
L 397.230216 176.536642 
L 401.120299 175.514181 
L 401.298643 175.075983 
L 401.95178 174.345654 
L 402.013785 174.199588 
L 402.322408 174.053522 
L 402.378028 173.76139 
L 402.487042 173.469258 
L 403.154253 173.177127 
L 403.39516 172.884995 
L 403.480907 172.738929 
L 404.507885 172.592863 
L 404.767539 172.300731 
L 406.673811 171.27827 
L 406.810304 170.840072 
L 406.903654 170.547941 
L 407.498056 169.817611 
L 407.830385 169.525479 
L 407.962126 169.233348 
L 408.075939 168.649084 
L 408.497611 168.210886 
L 408.963364 167.626623 
L 409.087576 167.334491 
L 409.198693 167.042359 
L 409.315306 166.750227 
L 409.663751 166.019898 
L 409.749713 165.727766 
L 410.006568 165.435634 
L 410.085394 164.997437 
L 410.37103 164.413173 
L 410.482218 164.121041 
L 410.527392 163.828909 
L 410.738587 163.536778 
L 410.92633 163.244646 
L 411.152849 162.952514 
L 411.306439 162.36825 
L 411.465625 162.076119 
L 411.852868 161.930053 
L 412.102652 161.053657 
L 412.149198 160.907592 
L 412.635675 160.469394 
L 412.894694 160.031196 
L 413.218654 159.739064 
L 413.475663 159.008735 
L 413.806399 158.570537 
L 413.986352 157.694142 
L 414.382916 157.40201 
L 414.478944 157.109878 
L 414.650615 156.817747 
L 414.740641 156.525615 
L 414.908665 156.233483 
L 415.103111 155.503153 
L 415.280069 155.211022 
L 415.402501 154.626758 
L 415.691273 154.334626 
L 415.803704 154.042495 
L 416.198626 153.166099 
L 416.401423 152.143638 
L 416.60798 151.413308 
L 416.794605 151.121177 
L 416.925167 150.682979 
L 417.131374 150.244781 
L 417.416059 148.930188 
L 417.78887 148.491991 
L 417.903375 148.053793 
L 418.518148 147.031332 
L 418.921744 146.885266 
L 418.946661 146.301002 
L 419.167342 146.00887 
L 419.519449 145.132475 
L 419.751937 144.840343 
L 420.071383 143.817882 
L 420.097968 143.52575 
L 420.344184 143.087552 
L 422.204619 137.537049 
L 422.607868 137.098851 
L 422.742188 136.660653 
L 422.992096 136.514587 
L 423.047528 136.07639 
L 423.218042 135.492126 
L 423.346648 134.615731 
L 423.545775 134.323599 
L 424.000545 132.424742 
L 424.152329 132.13261 
L 424.323571 131.110149 
L 424.682473 130.525886 
L 424.810512 129.795556 
L 424.963845 129.503424 
L 425.054668 128.773095 
L 425.197168 128.334897 
L 425.312518 127.604568 
L 425.455817 127.020304 
L 425.514062 126.582106 
L 425.787917 126.143909 
L 425.906148 125.559645 
L 426.056375 124.975382 
L 426.204707 124.68325 
L 426.387894 123.806854 
L 426.587512 123.514723 
L 426.708287 122.930459 
L 426.891438 122.054064 
L 426.996479 121.761932 
L 427.115906 121.031602 
L 427.256778 120.739471 
L 427.341214 120.301273 
L 427.478003 120.009141 
L 428.021588 117.964219 
L 428.155543 117.672087 
L 428.290453 117.087823 
L 428.406494 116.795692 
L 428.576644 116.357494 
L 428.76679 115.335033 
L 428.839535 114.896835 
L 429.680618 111.099122 
L 429.810012 110.514858 
L 430.167301 108.616001 
L 430.277836 108.32387 
L 430.373013 107.885672 
L 430.464368 107.59354 
L 430.552162 107.301408 
L 430.592226 107.009277 
L 430.763137 106.717145 
L 430.807239 106.278947 
L 431.057669 105.986815 
L 431.159497 105.694684 
L 431.427903 104.672222 
L 431.65124 104.380091 
L 432.063641 102.6273 
L 432.342969 101.89697 
L 432.481238 101.312707 
L 432.605733 100.728443 
L 432.878209 100.290246 
L 433.206031 98.391389 
L 433.324844 98.099257 
L 433.58494 95.762203 
L 433.722831 94.885807 
L 433.986627 93.571214 
L 434.246584 91.526292 
L 434.519301 90.649896 
L 434.963026 89.189238 
L 436.081903 83.05447 
L 436.2247 82.470206 
L 436.248873 82.032009 
L 436.502779 81.739877 
L 437.257193 79.402823 
L 437.319326 78.964625 
L 437.454463 78.526427 
L 437.519756 77.942164 
L 437.66086 77.503966 
L 437.911352 76.335439 
L 438.048185 75.897241 
L 438.156681 75.166912 
L 439.016568 71.515264 
L 439.251522 71.223133 
L 439.495498 70.638869 
L 439.993896 69.032144 
L 440.110767 68.593946 
L 440.296855 68.155749 
L 440.464028 67.133288 
L 440.592354 66.841156 
L 440.781122 66.110826 
L 440.954107 65.234431 
L 441.247413 64.796233 
L 441.457537 64.21197 
L 441.690202 63.919838 
L 442.038547 62.459179 
L 442.265207 62.167047 
L 442.443973 61.582784 
L 442.504656 61.290652 
L 442.777101 60.414256 
L 443.000593 59.683927 
L 443.483435 58.5154 
L 443.510713 58.077202 
L 443.692191 57.78507 
L 443.822201 57.346873 
L 443.933078 56.908675 
L 444.060764 56.324411 
L 444.169636 55.886214 
L 444.471331 55.448016 
L 444.666899 54.717687 
L 444.825794 54.425555 
L 444.864748 54.279489 
L 445.049118 53.987357 
L 445.514378 52.526698 
L 445.514801 52.380632 
L 445.64723 52.0885 
L 446.229694 50.33571 
L 446.442439 50.043578 
L 446.683322 49.167183 
L 446.980786 48.875051 
L 447.061673 47.998655 
L 447.565083 47.268326 
L 447.912765 47.12226 
L 447.989188 46.684062 
L 448.769925 46.245865 
L 448.825571 45.807667 
L 448.968627 45.515535 
L 448.969017 45.369469 
L 449.143192 45.077338 
L 449.282088 44.347008 
L 449.456663 44.054876 
L 450.11405 42.448151 
L 450.391918 42.302086 
L 450.501126 42.009954 
L 450.601545 41.863888 
L 451.158414 41.717822 
L 451.324758 41.279624 
L 451.363885 41.133558 
L 451.644535 40.841427 
L 451.787798 40.403229 
L 452.195981 39.380768 
L 452.286064 39.088636 
L 452.365703 38.94257 
L 452.811713 38.796504 
L 452.848788 38.650438 
L 453.56411 38.066175 
L 453.628661 37.774043 
L 453.85384 37.481911 
L 453.934424 37.335845 
L 454.468013 37.043713 
L 455.061871 36.605516 
L 455.237098 36.313384 
L 455.513111 35.875186 
L 455.523042 35.72912 
L 456.175944 35.583054 
L 456.265774 35.290923 
L 456.601666 35.144857 
L 456.611149 34.998791 
L 456.946625 34.706659 
L 457.41764 34.560593 
L 457.503752 34.414527 
L 458.544036 34.268461 
L 458.894441 33.830264 
L 460.164161 33.538132 
L 461.062585 33.246 
L 462.458052 33.099934 
L 462.714385 32.953868 
L 465.751611 32.807802 
L 465.751611 32.807802 
" style="fill:none;stroke:#00709b;stroke-linecap:round;stroke-width:1.5;"/>
   </g>
   <g id="patch_3">
    <path d="M 67.322835 186.023622 
L 67.322835 25.511811 
" style="fill:none;stroke:#cccccc;stroke-linecap:square;stroke-linejoin:miter;"/>
   </g>
   <g id="patch_4">
    <path d="M 484.724409 186.023622 
L 484.724409 25.511811 
" style="fill:none;stroke:#cccccc;stroke-linecap:square;stroke-linejoin:miter;"/>
   </g>
   <g id="patch_5">
    <path d="M 67.322835 186.023622 
L 484.724409 186.023622 
" style="fill:none;stroke:#cccccc;stroke-linecap:square;stroke-linejoin:miter;"/>
   </g>
   <g id="patch_6">
    <path d="M 67.322835 25.511811 
L 484.724409 25.511811 
" style="fill:none;stroke:#cccccc;stroke-linecap:square;stroke-linejoin:miter;"/>
   </g>
   <g id="legend_1">
    <g id="line2d_40">
     <path d="M 493.724409 38.169624 
L 513.724409 38.169624 
" style="fill:none;stroke:#be1e3c;stroke-linecap:round;stroke-width:1.5;"/>
    </g>
    <g id="line2d_41"/>
    <g id="text_18">
     <text style="fill:#262626;font-family:Arial;font-size:10px;font-style:normal;font-weight:400;text-anchor:start;" transform="rotate(-0, 521.724409, 41.669624)" x="521.724409" y="41.669624">Order 1</text>
    </g>
    <g id="line2d_42">
     <path d="M 493.724409 52.314936 
L 513.724409 52.314936 
" style="fill:none;stroke:#ffc82a;stroke-linecap:round;stroke-width:1.5;"/>
    </g>
    <g id="line2d_43"/>
    <g id="text_19">
     <text style="fill:#262626;font-family:Arial;font-size:10px;font-style:normal;font-weight:400;text-anchor:start;" transform="rotate(-0, 521.724409, 55.814936)" x="521.724409" y="55.814936">Order 2</text>
    </g>
    <g id="line2d_44">
     <path d="M 493.724409 66.460249 
L 513.724409 66.460249 
" style="fill:none;stroke:#e16d00;stroke-linecap:round;stroke-width:1.5;"/>
    </g>
    <g id="line2d_45"/>
    <g id="text_20">
     <text style="fill:#262626;font-family:Arial;font-size:10px;font-style:normal;font-weight:400;text-anchor:start;" transform="rotate(-0, 521.724409, 69.960249)" x="521.724409" y="69.960249">Order 3</text>
    </g>
    <g id="line2d_46">
     <path d="M 493.724409 80.605561 
L 513.724409 80.605561 
" style="fill:none;stroke:#711c2f;stroke-linecap:round;stroke-width:1.5;"/>
    </g>
    <g id="line2d_47"/>
    <g id="text_21">
     <text style="fill:#262626;font-family:Arial;font-size:10px;font-style:normal;font-weight:400;text-anchor:start;" transform="rotate(-0, 521.724409, 84.105561)" x="521.724409" y="84.105561">Order 4</text>
    </g>
    <g id="line2d_48">
     <path d="M 493.724409 94.750874 
L 513.724409 94.750874 
" style="fill:none;stroke:#acc13a;stroke-linecap:round;stroke-width:1.5;"/>
    </g>
    <g id="line2d_49"/>
    <g id="text_22">
     <text style="fill:#262626;font-family:Arial;font-size:10px;font-style:normal;font-weight:400;text-anchor:start;" transform="rotate(-0, 521.724409, 98.250874)" x="521.724409" y="98.250874">Order 5</text>
    </g>
    <g id="line2d_50">
     <path d="M 493.724409 108.896186 
L 513.724409 108.896186 
" style="fill:none;stroke:#6d8300;stroke-linecap:round;stroke-width:1.5;"/>
    </g>
    <g id="line2d_51"/>
    <g id="text_23">
     <text style="fill:#262626;font-family:Arial;font-size:10px;font-style:normal;font-weight:400;text-anchor:start;" transform="rotate(-0, 521.724409, 112.396186)" x="521.724409" y="112.396186">Order 6</text>
    </g>
    <g id="line2d_52">
     <path d="M 493.724409 123.041499 
L 513.724409 123.041499 
" style="fill:none;stroke:#00534a;stroke-linecap:round;stroke-width:1.5;"/>
    </g>
    <g id="line2d_53"/>
    <g id="text_24">
     <text style="fill:#262626;font-family:Arial;font-size:10px;font-style:normal;font-weight:400;text-anchor:start;" transform="rotate(-0, 521.724409, 126.541499)" x="521.724409" y="126.541499">Order 7</text>
    </g>
    <g id="line2d_54">
     <path d="M 493.724409 137.186811 
L 513.724409 137.186811 
" style="fill:none;stroke:#66b4d3;stroke-linecap:round;stroke-width:1.5;"/>
    </g>
    <g id="line2d_55"/>
    <g id="text_25">
     <text style="fill:#262626;font-family:Arial;font-size:10px;font-style:normal;font-weight:400;text-anchor:start;" transform="rotate(-0, 521.724409, 140.686811)" x="521.724409" y="140.686811">Order 8</text>
    </g>
    <g id="line2d_56">
     <path d="M 493.724409 151.332124 
L 513.724409 151.332124 
" style="fill:none;stroke:#00709b;stroke-linecap:round;stroke-width:1.5;"/>
    </g>
    <g id="line2d_57"/>
    <g id="text_26">
     <text style="fill:#262626;font-family:Arial;font-size:10px;font-style:normal;font-weight:400;text-anchor:start;" transform="rotate(-0, 521.724409, 154.832124)" x="521.724409" y="154.832124">Order 9</text>
    </g>
   </g>
  </g>
 </g>
 <defs>
  <clipPath id="pca187be413">
   <rect height="160.511811" width="417.401575" x="67.322835" y="25.511811"/>
  </clipPath>
 </defs>
</svg>
