<?xml version="1.0" encoding="utf-8" standalone="no"?>
<!DOCTYPE svg PUBLIC "-//W3C//DTD SVG 1.1//EN"
  "http://www.w3.org/Graphics/SVG/1.1/DTD/svg11.dtd">
<!-- Created with matplotlib (http://matplotlib.org/) -->
<svg height="212pt" version="1.1" viewBox="0 0 538 212" width="538pt" xmlns="http://www.w3.org/2000/svg" xmlns:xlink="http://www.w3.org/1999/xlink">
 <defs>
  <style type="text/css">
*{stroke-linecap:butt;stroke-linejoin:round;}
  </style>
 </defs>
 <g id="figure_1">
  <g id="patch_1">
   <path d="M 0 212.598425 
L 538.582677 212.598425 
L 538.582677 0 
L 0 0 
z
" style="fill:#ffffff;"/>
  </g>
  <g id="axes_1">
   <g id="patch_2">
    <path d="M 67.322835 186.023622 
L 484.724409 186.023622 
L 484.724409 25.511811 
L 67.322835 25.511811 
z
" style="fill:#ffffff;"/>
   </g>
   <g id="matplotlib.axis_1">
    <g id="xtick_1">
     <g id="line2d_1">
      <path clip-path="url(#p47c94e282a)" d="M 85.974429 186.023622 
L 85.974429 25.511811 
" style="fill:none;stroke:#cccccc;stroke-linecap:round;stroke-width:0.8;"/>
     </g>
     <g id="line2d_2"/>
     <g id="text_1">
      <text style="fill:#262626;font-family:Arial;font-size:10px;font-style:normal;font-weight:400;text-anchor:middle;" transform="rotate(-0, 85.974429, 196.681435)" x="85.974429" y="196.681435">1.0</text>
     </g>
    </g>
    <g id="xtick_2">
     <g id="line2d_3">
      <path clip-path="url(#p47c94e282a)" d="M 163.926597 186.023622 
L 163.926597 25.511811 
" style="fill:none;stroke:#cccccc;stroke-linecap:round;stroke-width:0.8;"/>
     </g>
     <g id="line2d_4"/>
     <g id="text_2">
      <text style="fill:#262626;font-family:Arial;font-size:10px;font-style:normal;font-weight:400;text-anchor:middle;" transform="rotate(-0, 163.926597, 196.681435)" x="163.926597" y="196.681435">1.1</text>
     </g>
    </g>
    <g id="xtick_3">
     <g id="line2d_5">
      <path clip-path="url(#p47c94e282a)" d="M 241.878765 186.023622 
L 241.878765 25.511811 
" style="fill:none;stroke:#cccccc;stroke-linecap:round;stroke-width:0.8;"/>
     </g>
     <g id="line2d_6"/>
     <g id="text_3">
      <text style="fill:#262626;font-family:Arial;font-size:10px;font-style:normal;font-weight:400;text-anchor:middle;" transform="rotate(-0, 241.878765, 196.681435)" x="241.878765" y="196.681435">1.2</text>
     </g>
    </g>
    <g id="xtick_4">
     <g id="line2d_7">
      <path clip-path="url(#p47c94e282a)" d="M 319.830933 186.023622 
L 319.830933 25.511811 
" style="fill:none;stroke:#cccccc;stroke-linecap:round;stroke-width:0.8;"/>
     </g>
     <g id="line2d_8"/>
     <g id="text_4">
      <text style="fill:#262626;font-family:Arial;font-size:10px;font-style:normal;font-weight:400;text-anchor:middle;" transform="rotate(-0, 319.830933, 196.681435)" x="319.830933" y="196.681435">1.3</text>
     </g>
    </g>
    <g id="xtick_5">
     <g id="line2d_9">
      <path clip-path="url(#p47c94e282a)" d="M 397.783101 186.023622 
L 397.783101 25.511811 
" style="fill:none;stroke:#cccccc;stroke-linecap:round;stroke-width:0.8;"/>
     </g>
     <g id="line2d_10"/>
     <g id="text_5">
      <text style="fill:#262626;font-family:Arial;font-size:10px;font-style:normal;font-weight:400;text-anchor:middle;" transform="rotate(-0, 397.783101, 196.681435)" x="397.783101" y="196.681435">1.4</text>
     </g>
    </g>
    <g id="xtick_6">
     <g id="line2d_11">
      <path clip-path="url(#p47c94e282a)" d="M 475.735268 186.023622 
L 475.735268 25.511811 
" style="fill:none;stroke:#cccccc;stroke-linecap:round;stroke-width:0.8;"/>
     </g>
     <g id="line2d_12"/>
     <g id="text_6">
      <text style="fill:#262626;font-family:Arial;font-size:10px;font-style:normal;font-weight:400;text-anchor:middle;" transform="rotate(-0, 475.735268, 196.681435)" x="475.735268" y="196.681435">1.5</text>
     </g>
    </g>
    <g id="text_7">
     <!-- $M_S$ -->
     <g style="fill:#262626;" transform="translate(269.323622 209.826747)">
      <text>
       <tspan style="font-family:DejaVu Sans;font-size:10px;font-style:oblique;font-weight:oblique;" x="0" y="-0.703125">M</tspan>
       <tspan style="font-family:DejaVu Sans;font-size:7px;font-style:oblique;font-weight:oblique;" x="8.62793" y="0.9375">S</tspan>
      </text>
     </g>
    </g>
   </g>
   <g id="matplotlib.axis_2">
    <g id="ytick_1">
     <g id="line2d_13">
      <path clip-path="url(#p47c94e282a)" d="M 67.322835 178.727631 
L 484.724409 178.727631 
" style="fill:none;stroke:#cccccc;stroke-linecap:round;stroke-width:0.8;"/>
     </g>
     <g id="line2d_14"/>
     <g id="text_8">
      <text style="fill:#262626;font-family:Arial;font-size:10px;font-style:normal;font-weight:400;text-anchor:end;" transform="rotate(-0, 63.822835, 182.306537)" x="63.822835" y="182.306537">0.0</text>
     </g>
    </g>
    <g id="ytick_2">
     <g id="line2d_15">
      <path clip-path="url(#p47c94e282a)" d="M 67.322835 149.514452 
L 484.724409 149.514452 
" style="fill:none;stroke:#cccccc;stroke-linecap:round;stroke-width:0.8;"/>
     </g>
     <g id="line2d_16"/>
     <g id="text_9">
      <text style="fill:#262626;font-family:Arial;font-size:10px;font-style:normal;font-weight:400;text-anchor:end;" transform="rotate(-0, 63.822835, 153.093358)" x="63.822835" y="153.093358">0.2</text>
     </g>
    </g>
    <g id="ytick_3">
     <g id="line2d_17">
      <path clip-path="url(#p47c94e282a)" d="M 67.322835 120.301273 
L 484.724409 120.301273 
" style="fill:none;stroke:#cccccc;stroke-linecap:round;stroke-width:0.8;"/>
     </g>
     <g id="line2d_18"/>
     <g id="text_10">
      <text style="fill:#262626;font-family:Arial;font-size:10px;font-style:normal;font-weight:400;text-anchor:end;" transform="rotate(-0, 63.822835, 123.880179)" x="63.822835" y="123.880179">0.4</text>
     </g>
    </g>
    <g id="ytick_4">
     <g id="line2d_19">
      <path clip-path="url(#p47c94e282a)" d="M 67.322835 91.088094 
L 484.724409 91.088094 
" style="fill:none;stroke:#cccccc;stroke-linecap:round;stroke-width:0.8;"/>
     </g>
     <g id="line2d_20"/>
     <g id="text_11">
      <text style="fill:#262626;font-family:Arial;font-size:10px;font-style:normal;font-weight:400;text-anchor:end;" transform="rotate(-0, 63.822835, 94.667)" x="63.822835" y="94.667">0.6</text>
     </g>
    </g>
    <g id="ytick_5">
     <g id="line2d_21">
      <path clip-path="url(#p47c94e282a)" d="M 67.322835 61.874915 
L 484.724409 61.874915 
" style="fill:none;stroke:#cccccc;stroke-linecap:round;stroke-width:0.8;"/>
     </g>
     <g id="line2d_22"/>
     <g id="text_12">
      <text style="fill:#262626;font-family:Arial;font-size:10px;font-style:normal;font-weight:400;text-anchor:end;" transform="rotate(-0, 63.822835, 65.453822)" x="63.822835" y="65.453822">0.8</text>
     </g>
    </g>
    <g id="ytick_6">
     <g id="line2d_23">
      <path clip-path="url(#p47c94e282a)" d="M 67.322835 32.661737 
L 484.724409 32.661737 
" style="fill:none;stroke:#cccccc;stroke-linecap:round;stroke-width:0.8;"/>
     </g>
     <g id="line2d_24"/>
     <g id="text_13">
      <text style="fill:#262626;font-family:Arial;font-size:10px;font-style:normal;font-weight:400;text-anchor:end;" transform="rotate(-0, 63.822835, 36.240643)" x="63.822835" y="36.240643">1.0</text>
     </g>
    </g>
    <g id="text_14">
     <text style="fill:#262626;font-family:Arial;font-size:10px;font-style:normal;font-weight:400;text-anchor:middle;" transform="rotate(-90, 43.935335, 105.767717)" x="43.935335" y="105.767717">CDF</text>
    </g>
   </g>
   <g id="line2d_25">
    <path clip-path="url(#p47c94e282a)" d="M 86.295634 178.727631 
L 88.914104 178.581565 
L 89.025992 178.289433 
L 90.91858 178.143367 
L 91.172209 177.997301 
L 92.309395 177.705169 
L 92.440783 177.559103 
L 94.176099 177.413038 
L 100.745054 177.266972 
L 102.113681 176.97484 
L 102.884646 176.828774 
L 102.909863 176.682708 
L 103.167737 176.536642 
L 104.894277 176.24451 
L 116.202056 175.660247 
L 118.012986 175.368115 
L 118.293824 175.222049 
L 118.954235 175.075983 
L 119.032627 174.929917 
L 119.506797 174.783851 
L 120.470924 174.637786 
L 125.946307 174.199588 
L 130.354017 173.323193 
L 130.462544 173.177127 
L 135.845473 172.592863 
L 135.898462 172.446797 
L 136.579646 172.154665 
L 137.75728 172.0086 
L 143.991387 171.716468 
L 146.645905 170.840072 
L 153.042687 170.255809 
L 153.462365 170.109743 
L 158.411871 169.525479 
L 159.129724 169.087282 
L 162.413295 168.503018 
L 163.09203 168.356952 
L 164.765632 168.06482 
L 164.879234 167.772689 
L 165.921904 167.480557 
L 166.100031 167.334491 
L 168.563946 167.188425 
L 173.166895 167.042359 
L 173.592435 166.896293 
L 174.96957 166.750227 
L 175.124355 166.604161 
L 177.46512 166.458096 
L 178.657691 165.873832 
L 179.706466 165.727766 
L 179.788101 165.5817 
L 181.693635 165.289568 
L 181.801968 165.143502 
L 189.225839 164.705305 
L 189.622877 164.559239 
L 191.620176 164.413173 
L 191.899144 164.267107 
L 197.532163 163.974975 
L 198.810099 163.828909 
L 198.903775 163.682844 
L 203.301142 163.244646 
L 204.424231 162.952514 
L 204.993125 162.660382 
L 205.301743 162.514316 
L 206.25024 162.36825 
L 208.028634 162.222185 
L 208.251724 162.076119 
L 209.368055 161.930053 
L 209.617995 161.783987 
L 214.354374 161.637921 
L 214.505475 161.491855 
L 217.726865 161.199723 
L 217.883635 161.053657 
L 218.568392 160.761526 
L 218.679369 160.61546 
L 219.78646 160.323328 
L 224.888272 159.88513 
L 228.564181 159.300867 
L 231.286865 159.154801 
L 231.808599 158.716603 
L 231.936977 158.570537 
L 232.822081 158.278405 
L 234.167415 158.13234 
L 237.586699 157.840208 
L 237.733552 157.694142 
L 239.78616 157.548076 
L 239.83529 157.40201 
L 240.796703 157.255944 
L 240.983414 157.109878 
L 241.73962 156.963812 
L 241.87758 156.671681 
L 242.987067 156.379549 
L 243.138575 156.233483 
L 243.483797 156.087417 
L 243.503445 155.941351 
L 244.01651 155.503153 
L 244.327425 155.357088 
L 245.31147 155.064956 
L 245.820215 154.480692 
L 246.542302 154.18856 
L 246.795623 153.604297 
L 247.242507 153.166099 
L 247.264182 153.020033 
L 247.562069 152.727901 
L 248.307068 150.975111 
L 248.448855 150.682979 
L 248.620757 150.098715 
L 248.88575 149.660518 
L 248.929306 149.368386 
L 249.10262 149.076254 
L 250.142716 145.278541 
L 250.385474 143.379684 
L 250.675871 141.772959 
L 250.713826 141.480828 
L 251.013344 140.896564 
L 251.31755 139.289839 
L 251.448394 138.413444 
L 251.710851 137.975246 
L 252.033326 137.244917 
L 252.158982 136.368521 
L 252.298035 136.07639 
L 252.336735 135.784258 
L 252.714446 135.34606 
L 252.732694 135.053928 
L 252.890738 134.761797 
L 252.990512 134.469665 
L 253.19849 133.593269 
L 253.433301 133.009006 
L 253.55899 132.570808 
L 253.749307 131.840479 
L 253.973952 131.402281 
L 254.199042 130.671951 
L 254.529043 130.37982 
L 254.654792 129.503424 
L 255.089497 128.334897 
L 255.336007 128.188831 
L 255.682464 126.582106 
L 255.92205 126.289975 
L 257.126974 124.098986 
L 257.407349 123.660789 
L 257.485955 123.222591 
L 257.618529 122.930459 
L 257.685096 122.784393 
L 258.091781 122.492261 
L 258.708984 121.4698 
L 259.257917 121.177668 
L 259.686691 120.155207 
L 260.29902 119.570944 
L 260.310657 119.424878 
L 260.803211 119.132746 
L 261.11773 118.694548 
L 261.506895 118.548482 
L 261.565035 118.402416 
L 261.861458 118.110285 
L 262.035897 117.672087 
L 262.257065 117.379955 
L 262.269237 117.233889 
L 262.927958 116.795692 
L 263.021902 116.50356 
L 263.124866 116.357494 
L 263.648218 116.211428 
L 263.959114 115.481098 
L 264.560274 115.188967 
L 264.576057 115.042901 
L 265.072903 114.604703 
L 265.598551 114.312571 
L 265.618015 114.166505 
L 266.348461 114.02044 
L 266.804649 113.582242 
L 267.138889 113.436176 
L 267.347693 112.705847 
L 268.204325 112.121583 
L 268.9598 111.975517 
L 269.121665 111.683385 
L 269.216747 111.245188 
L 269.837899 110.953056 
L 269.95805 110.80699 
L 270.230413 110.660924 
L 270.266126 110.514858 
L 270.457118 110.222726 
L 270.674652 109.784529 
L 271.488869 109.054199 
L 271.71598 108.616001 
L 272.409262 107.885672 
L 273.491812 107.739606 
L 273.599249 107.447474 
L 273.883487 107.155343 
L 274.137451 106.863211 
L 274.398276 106.132881 
L 274.658865 105.840749 
L 274.705216 105.694684 
L 275.096536 105.548618 
L 277.015276 105.11042 
L 277.253168 104.964354 
L 278.047269 104.672222 
L 278.237886 104.380091 
L 278.408013 103.941893 
L 279.755936 103.503695 
L 279.97499 102.919432 
L 280.707173 102.6273 
L 280.715126 102.481234 
L 282.087258 102.043036 
L 282.100101 101.750904 
L 282.622376 101.458773 
L 282.725376 101.020575 
L 283.633644 100.582377 
L 283.664642 100.290246 
L 283.980467 100.14418 
L 283.987147 99.998114 
L 284.385851 99.705982 
L 284.525431 99.559916 
L 286.330387 99.121718 
L 286.358104 98.975652 
L 286.877294 98.829587 
L 286.952719 98.537455 
L 287.149642 98.245323 
L 287.567323 97.953191 
L 287.752491 97.807125 
L 288.402865 97.514994 
L 288.683383 97.222862 
L 288.943779 96.93073 
L 289.383029 96.638598 
L 290.389722 96.054335 
L 290.86476 95.616137 
L 290.905366 95.324005 
L 292.789173 94.739742 
L 292.963225 94.44761 
L 293.795563 93.863346 
L 293.839398 93.71728 
L 294.988228 93.133017 
L 296.285704 92.840885 
L 296.477385 92.402687 
L 296.614251 92.256621 
L 297.468041 91.96449 
L 299.350273 91.672358 
L 299.96474 91.380226 
L 300.487025 90.795962 
L 301.884513 90.211699 
L 302.161199 89.919567 
L 302.382625 89.627435 
L 303.769318 89.335303 
L 304.228312 89.189238 
L 304.268806 89.043172 
L 305.024204 88.897106 
L 305.118915 88.75104 
L 308.069283 86.852183 
L 308.090444 86.706117 
L 309.375481 86.413986 
L 309.499187 86.121854 
L 310.56252 85.829722 
L 310.985474 85.245458 
L 311.155362 85.099393 
L 312.436209 84.807261 
L 314.030501 84.515129 
L 314.089221 84.369063 
L 315.460649 84.076931 
L 315.834381 83.784799 
L 315.957512 83.638734 
L 319.21487 82.908404 
L 319.28397 82.762338 
L 321.163299 81.739877 
L 322.087157 81.593811 
L 322.195231 81.447745 
L 323.258914 81.009547 
L 323.846282 80.863482 
L 324.186901 80.425284 
L 326.356225 80.133152 
L 327.356057 79.84102 
L 327.582971 79.694954 
L 327.583417 79.548889 
L 328.170199 79.110691 
L 328.207471 78.964625 
L 328.880917 78.818559 
L 329.257013 78.234295 
L 329.285574 78.08823 
L 330.24101 77.942164 
L 330.27724 77.796098 
L 330.733531 77.503966 
L 331.885817 77.3579 
L 332.064491 77.065768 
L 332.400539 76.919702 
L 334.453289 76.627571 
L 334.540295 76.481505 
L 335.0005 76.335439 
L 335.101315 76.043307 
L 335.627713 75.751175 
L 340.057802 75.020846 
L 340.52802 74.582648 
L 341.752815 74.14445 
L 344.073598 73.852319 
L 345.139261 73.121989 
L 345.777246 72.975923 
L 345.84519 72.829857 
L 350.029113 72.39166 
L 350.92707 71.953462 
L 352.939923 71.515264 
L 352.996746 71.369198 
L 354.475275 70.784935 
L 354.541233 70.492803 
L 356.271168 70.346737 
L 356.524002 70.200671 
L 358.607047 69.470342 
L 360.145775 69.324276 
L 360.172746 69.17821 
L 360.997467 68.886078 
L 361.823795 68.740012 
L 361.850566 68.593946 
L 362.792712 68.301815 
L 362.809681 68.155749 
L 364.34773 67.717551 
L 367.149427 67.571485 
L 367.211349 67.425419 
L 370.997406 67.133288 
L 372.057106 66.987222 
L 372.128577 66.549024 
L 372.998609 66.402958 
L 373.076791 66.256892 
L 374.706493 65.672629 
L 374.980285 65.526563 
L 377.867031 64.942299 
L 381.371924 64.21197 
L 381.502656 64.065904 
L 383.00745 63.627706 
L 384.08264 63.48164 
L 384.088132 63.335574 
L 387.103572 63.043443 
L 387.141186 62.897377 
L 389.270949 62.459179 
L 389.496447 62.313113 
L 390.148287 62.167047 
L 390.590777 61.582784 
L 391.92218 61.436718 
L 391.985231 61.290652 
L 392.882072 60.99852 
L 399.219822 60.706388 
L 404.064766 59.683927 
L 406.626125 59.537861 
L 406.9761 59.391795 
L 407.813763 59.099663 
L 410.967503 58.807532 
L 411.159385 58.661466 
L 412.551196 58.369334 
L 419.89209 57.054741 
L 420.425145 56.762609 
L 421.816085 56.324411 
L 421.897973 56.178345 
L 423.18435 56.03228 
L 423.285612 55.886214 
L 426.369994 55.155884 
L 427.018666 54.863752 
L 427.325803 54.717687 
L 429.080253 54.571621 
L 429.24997 54.279489 
L 430.308664 53.841291 
L 430.488297 53.695225 
L 431.147457 53.403094 
L 431.205071 53.110962 
L 431.783798 52.81883 
L 432.095102 52.672764 
L 432.911318 52.526698 
L 432.94478 52.234566 
L 434.473711 51.942435 
L 434.71536 51.796369 
L 435.600379 51.504237 
L 436.171149 51.212105 
L 437.173816 51.066039 
L 437.427132 50.773907 
L 437.958076 50.627842 
L 438.14432 50.043578 
L 438.274656 49.897512 
L 439.07598 49.60538 
L 442.66006 48.290787 
L 443.21464 47.85259 
L 445.500376 47.560458 
L 446.139553 47.414392 
L 446.458511 46.684062 
L 447.359301 46.537996 
L 447.597541 46.245865 
L 448.5321 45.661601 
L 448.569918 45.515535 
L 449.091903 45.223403 
L 449.932607 45.077338 
L 450.133405 44.785206 
L 450.654952 44.63914 
L 450.836464 44.347008 
L 451.437393 44.054876 
L 452.321281 43.90881 
L 452.463795 43.762744 
L 453.578421 43.324547 
L 454.291807 42.886349 
L 454.59372 42.740283 
L 455.218773 42.594217 
L 455.321251 42.448151 
L 456.216833 42.15602 
L 456.353009 41.717822 
L 456.839455 41.279624 
L 457.318329 41.133558 
L 457.389641 40.987493 
L 458.0998 40.549295 
L 458.473138 39.965031 
L 459.022605 39.672899 
L 459.141413 39.234702 
L 459.666409 39.088636 
L 459.68867 38.94257 
L 460.469348 38.504372 
L 460.565875 38.212241 
L 460.717919 37.920109 
L 461.39684 37.189779 
L 461.528209 36.751582 
L 461.813088 36.605516 
L 461.94936 36.313384 
L 462.114375 36.021252 
L 462.693368 34.998791 
L 463.030544 34.706659 
L 463.236998 34.122395 
L 463.327427 33.830264 
L 463.947747 33.538132 
L 464.575293 32.953868 
L 464.58697 32.807802 
L 464.58697 32.807802 
" style="fill:none;stroke:#be1e3c;stroke-linecap:round;stroke-width:1.5;"/>
   </g>
   <g id="line2d_26">
    <path clip-path="url(#p47c94e282a)" d="M 87.497954 178.727631 
L 92.110013 178.143367 
L 99.747874 177.266972 
L 100.310337 177.120906 
L 100.390099 176.97484 
L 101.882584 176.682708 
L 104.525796 176.536642 
L 104.667043 176.390576 
L 106.057058 175.952379 
L 106.069145 175.806313 
L 117.617236 175.222049 
L 119.720095 174.929917 
L 122.349534 174.637786 
L 122.513266 174.49172 
L 123.050396 174.345654 
L 126.612533 174.199588 
L 127.202275 174.053522 
L 130.322023 173.76139 
L 130.328413 173.615324 
L 130.835011 173.469258 
L 140.286444 172.592863 
L 140.50073 172.300731 
L 141.06591 172.0086 
L 142.676141 171.716468 
L 143.321413 171.570402 
L 147.739665 171.132204 
L 149.519692 170.694006 
L 149.670592 170.547941 
L 152.886627 170.255809 
L 153.884032 169.963677 
L 153.905677 169.817611 
L 155.727041 169.671545 
L 155.907203 169.525479 
L 156.29954 169.379413 
L 159.396265 168.79515 
L 165.822812 168.210886 
L 166.927763 167.918754 
L 172.888994 167.626623 
L 178.630388 166.750227 
L 181.724043 166.604161 
L 182.054393 166.458096 
L 183.233608 166.31203 
L 186.225334 166.165964 
L 186.526938 165.727766 
L 187.825481 165.5817 
L 188.117326 165.435634 
L 191.510869 165.289568 
L 191.752255 165.143502 
L 194.792993 164.851371 
L 198.488344 163.682844 
L 199.697576 163.536778 
L 199.976086 163.390712 
L 201.85648 163.09858 
L 202.5272 162.952514 
L 206.652848 162.514316 
L 206.889783 162.36825 
L 211.869645 161.637921 
L 211.899712 161.491855 
L 215.441754 161.199723 
L 215.513248 161.053657 
L 227.031981 160.031196 
L 230.574803 159.88513 
L 231.089783 159.739064 
L 232.092144 159.592999 
L 237.085918 159.300867 
L 237.524812 159.154801 
L 240.875574 158.716603 
L 241.385524 158.570537 
L 241.409759 158.424471 
L 242.561087 157.986274 
L 242.579457 157.840208 
L 243.341896 157.694142 
L 243.38326 157.548076 
L 244.90134 157.109878 
L 245.157959 156.817747 
L 246.422588 156.233483 
L 246.630278 155.941351 
L 246.703056 155.795285 
L 246.982869 155.649219 
L 246.995778 155.503153 
L 247.448903 155.211022 
L 247.675891 154.91889 
L 247.866614 154.480692 
L 248.123243 154.334626 
L 248.145505 154.042495 
L 248.280143 153.750363 
L 248.881647 152.581836 
L 249.4954 150.244781 
L 249.637663 149.952649 
L 249.7199 149.368386 
L 249.845744 149.076254 
L 250.142848 147.323463 
L 250.407698 146.301002 
L 250.533384 145.716739 
L 250.656658 145.424607 
L 250.897336 144.694277 
L 250.992879 144.25608 
L 251.168896 143.52575 
L 251.440304 143.233618 
L 251.618658 142.795421 
L 251.718048 141.772959 
L 251.948438 140.604432 
L 252.264581 139.728037 
L 252.538563 139.435905 
L 252.837797 138.705576 
L 252.849412 138.55951 
L 252.991949 138.267378 
L 253.190784 137.683114 
L 253.289518 137.098851 
L 253.534559 136.806719 
L 253.850309 135.492126 
L 254.04755 135.199994 
L 254.356241 134.615731 
L 255.001868 133.593269 
L 255.412263 132.13261 
L 255.635658 131.840479 
L 255.714935 131.548347 
L 255.787451 131.402281 
L 256.012301 131.110149 
L 256.082857 130.818017 
L 256.356992 130.233754 
L 256.504856 129.64949 
L 256.594638 129.357358 
L 256.767929 129.065227 
L 256.917228 128.773095 
L 257.124268 128.480963 
L 257.559424 127.750634 
L 257.81785 126.728172 
L 258.122908 125.559645 
L 258.371822 125.267513 
L 258.432899 124.975382 
L 258.76142 124.537184 
L 258.80747 124.245052 
L 259.076471 124.098986 
L 259.167068 123.514723 
L 259.94539 123.076525 
L 260.795901 121.615866 
L 260.983817 121.177668 
L 261.391799 120.885537 
L 261.867659 120.009141 
L 262.396538 119.717009 
L 262.665254 119.278812 
L 263.071079 118.98668 
L 263.23844 118.694548 
L 263.293129 118.402416 
L 263.836075 117.672087 
L 264.460164 117.526021 
L 264.703159 116.795692 
L 265.279103 116.50356 
L 265.312088 116.357494 
L 265.573426 116.065362 
L 266.03695 115.919296 
L 266.05867 115.77323 
L 266.782382 115.627164 
L 266.811252 115.481098 
L 267.666689 115.042901 
L 267.867591 114.604703 
L 268.710274 114.166505 
L 268.968578 114.02044 
L 268.969694 113.874374 
L 270.050049 113.728308 
L 270.356945 113.436176 
L 270.469585 113.29011 
L 270.874158 112.997978 
L 271.138673 112.705847 
L 271.518336 112.559781 
L 271.551059 112.413715 
L 271.713291 112.267649 
L 272.388396 111.975517 
L 273.014176 111.537319 
L 273.376198 111.245188 
L 274.048618 111.099122 
L 274.221871 110.80699 
L 274.865592 110.368792 
L 274.983203 110.222726 
L 275.511573 109.930595 
L 275.889988 109.638463 
L 276.585789 109.346331 
L 277.146904 108.762067 
L 277.473109 108.616001 
L 277.5059 108.32387 
L 277.899538 108.031738 
L 278.976475 107.301408 
L 279.293374 106.717145 
L 279.457199 106.571079 
L 280.457782 106.278947 
L 280.500968 106.132881 
L 280.8639 105.986815 
L 280.876423 105.840749 
L 281.556463 105.256486 
L 281.723984 104.964354 
L 282.000401 104.818288 
L 282.02602 104.526156 
L 283.204521 103.941893 
L 284.278113 103.649761 
L 284.351355 103.503695 
L 284.831815 103.357629 
L 284.859298 103.211563 
L 285.067059 103.065497 
L 285.078443 102.919432 
L 285.754927 102.335168 
L 286.243114 101.750904 
L 287.187122 101.312707 
L 287.250437 101.020575 
L 287.538518 100.728443 
L 287.731295 100.436311 
L 287.87105 100.14418 
L 288.546409 99.852048 
L 288.553631 99.705982 
L 289.815387 99.267784 
L 289.926227 99.121718 
L 290.424372 98.829587 
L 291.034483 98.391389 
L 292.183395 98.099257 
L 292.375433 97.807125 
L 292.876618 97.514994 
L 293.230436 96.784664 
L 294.723166 96.492532 
L 294.872292 96.2004 
L 295.528015 95.470071 
L 295.573561 95.324005 
L 296.247424 95.031873 
L 296.596241 94.593676 
L 298.385129 93.279083 
L 298.780988 93.133017 
L 300.678426 92.840885 
L 300.936213 92.548753 
L 300.939029 92.402687 
L 302.25545 91.96449 
L 302.30605 91.818424 
L 303.657627 91.088094 
L 304.374276 90.795962 
L 304.784072 90.649896 
L 304.792677 90.503831 
L 306.724789 89.627435 
L 306.939982 89.189238 
L 307.091273 89.043172 
L 308.853991 88.75104 
L 309.117732 88.458908 
L 310.473817 87.728579 
L 310.942439 86.998249 
L 311.643494 86.852183 
L 311.75507 86.560051 
L 312.800832 86.26792 
L 313.013126 85.975788 
L 314.17835 85.683656 
L 314.726199 85.53759 
L 314.838957 85.245458 
L 315.111129 85.099393 
L 316.200108 84.807261 
L 316.38145 84.661195 
L 319.405415 83.930865 
L 319.511519 83.638734 
L 320.082767 83.346602 
L 321.546639 82.908404 
L 321.711417 82.616272 
L 323.642857 82.178075 
L 323.659385 82.032009 
L 324.252278 81.739877 
L 325.370721 81.593811 
L 325.448301 81.447745 
L 325.900847 81.155613 
L 326.106037 80.863482 
L 326.58795 80.717416 
L 326.808189 80.279218 
L 326.999739 80.133152 
L 327.006304 79.987086 
L 327.149726 79.84102 
L 330.774072 78.964625 
L 330.952672 78.818559 
L 331.633105 78.526427 
L 331.902103 78.234295 
L 331.98574 78.08823 
L 332.550761 77.796098 
L 332.662387 77.650032 
L 334.836956 77.211834 
L 335.301449 76.773637 
L 335.348097 76.627571 
L 335.876569 76.481505 
L 337.58458 76.189373 
L 337.610842 75.897241 
L 338.507697 75.605109 
L 338.728916 75.459044 
L 344.629134 74.290516 
L 344.769925 74.14445 
L 346.253766 73.560187 
L 346.404299 73.268055 
L 346.63864 73.121989 
L 347.1527 72.975923 
L 349.568514 72.537726 
L 350.255489 72.245594 
L 351.033217 71.66133 
L 351.175567 71.515264 
L 351.683749 71.369198 
L 354.012398 71.077067 
L 354.071553 70.931001 
L 354.467277 70.784935 
L 354.605229 70.492803 
L 355.548364 70.200671 
L 355.902274 69.762474 
L 356.45819 69.616408 
L 356.467803 69.470342 
L 360.483685 69.324276 
L 360.633204 69.17821 
L 361.922247 69.032144 
L 362.180231 68.593946 
L 362.784743 68.301815 
L 362.791215 68.155749 
L 363.724593 68.009683 
L 363.838073 67.863617 
L 364.578033 67.571485 
L 366.615519 67.279353 
L 368.035427 66.987222 
L 369.115322 66.549024 
L 371.748098 65.96476 
L 371.793385 65.818694 
L 375.079015 65.234431 
L 375.475097 65.088365 
L 376.579456 64.942299 
L 376.653552 64.796233 
L 377.274896 64.650167 
L 377.347728 64.504101 
L 378.326617 64.21197 
L 378.612386 63.919838 
L 379.344235 63.773772 
L 379.425668 63.48164 
L 379.802055 63.335574 
L 379.975947 63.043443 
L 380.300768 62.605245 
L 384.542297 62.020981 
L 385.097655 61.728849 
L 388.681325 61.144586 
L 388.88684 60.852454 
L 388.892266 60.706388 
L 389.589284 60.122125 
L 391.518851 59.683927 
L 394.293089 59.537861 
L 394.926515 59.245729 
L 395.267664 59.099663 
L 397.048322 58.953597 
L 397.249906 58.807532 
L 398.822108 58.5154 
L 399.967345 58.369334 
L 400.205005 58.223268 
L 400.720881 58.077202 
L 402.155363 57.78507 
L 402.786562 57.492939 
L 403.584626 57.200807 
L 407.677558 56.762609 
L 408.074936 56.616543 
L 409.690242 56.324411 
L 411.234658 56.178345 
L 412.15166 55.594082 
L 413.15157 55.30195 
L 413.508989 55.155884 
L 414.92131 55.009818 
L 415.356855 54.717687 
L 416.708996 54.279489 
L 416.71643 54.133423 
L 418.280209 53.841291 
L 418.339682 53.695225 
L 418.900545 53.403094 
L 419.340208 53.257028 
L 420.963715 52.964896 
L 420.964282 52.81883 
L 421.30014 52.672764 
L 422.103218 52.526698 
L 423.981084 52.380632 
L 423.994853 52.234566 
L 424.44489 52.0885 
L 424.452349 51.942435 
L 424.982612 51.796369 
L 426.552069 51.650303 
L 426.627838 51.504237 
L 427.157652 51.358171 
L 428.737017 51.212105 
L 429.586918 50.919973 
L 431.985467 50.627842 
L 432.004194 50.481776 
L 433.610887 50.043578 
L 434.441129 49.897512 
L 434.566488 49.60538 
L 435.139561 49.459314 
L 435.213444 49.313248 
L 436.058234 49.021117 
L 436.247901 48.875051 
L 439.509845 47.85259 
L 439.715606 47.414392 
L 439.772877 47.268326 
L 441.771751 47.12226 
L 441.936623 46.684062 
L 442.136872 46.537996 
L 443.246096 46.099799 
L 443.262135 45.953733 
L 444.701553 45.807667 
L 445.179326 45.515535 
L 445.274395 45.223403 
L 445.592184 45.077338 
L 445.59659 44.931272 
L 446.074769 44.347008 
L 446.146002 44.200942 
L 447.475285 43.762744 
L 447.576501 43.470613 
L 448.055565 43.178481 
L 448.288096 42.886349 
L 448.810916 42.594217 
L 448.823563 42.448151 
L 450.033537 42.15602 
L 450.377772 41.863888 
L 451.104046 41.571756 
L 451.121283 41.42569 
L 452.307367 41.279624 
L 452.323136 41.133558 
L 453.37207 40.841427 
L 453.600742 40.549295 
L 454.378192 40.257163 
L 455.07048 39.965031 
L 455.106497 39.818965 
L 455.770496 39.526834 
L 455.851254 39.380768 
L 456.148194 39.234702 
L 457.00347 39.088636 
L 457.049348 38.94257 
L 458.403099 38.650438 
L 458.617687 38.212241 
L 459.383851 37.774043 
L 460.366929 36.897647 
L 460.371563 36.751582 
L 460.672911 36.605516 
L 460.773743 36.167318 
L 461.380046 35.875186 
L 461.539779 35.583054 
L 461.890622 35.290923 
L 462.004677 34.852725 
L 462.386952 34.560593 
L 462.654604 34.414527 
L 462.717638 34.122395 
L 463.158723 33.97633 
L 463.325142 33.684198 
L 464.032146 33.246 
L 464.065209 33.099934 
L 464.212486 32.953868 
L 464.638976 32.807802 
L 464.638976 32.807802 
" style="fill:none;stroke:#ffc82a;stroke-linecap:round;stroke-width:1.5;"/>
   </g>
   <g id="line2d_27">
    <path clip-path="url(#p47c94e282a)" d="M 134.205939 178.727631 
L 150.693023 178.581565 
L 156.482768 178.435499 
L 158.565915 178.289433 
L 177.683958 177.851235 
L 178.112791 177.705169 
L 208.018318 176.828774 
L 208.658048 176.682708 
L 211.639956 176.390576 
L 212.999928 176.24451 
L 215.960354 176.098445 
L 238.891681 175.514181 
L 239.27659 175.368115 
L 241.765665 175.075983 
L 242.59463 174.929917 
L 242.749332 174.783851 
L 243.941647 174.49172 
L 244.143888 174.053522 
L 244.258993 173.76139 
L 245.674971 173.177127 
L 246.184389 172.446797 
L 246.252516 172.154665 
L 246.760691 171.716468 
L 247.260915 170.547941 
L 247.384695 170.255809 
L 247.452565 169.525479 
L 247.621882 169.233348 
L 247.734231 168.356952 
L 247.83631 168.06482 
L 247.972366 166.896293 
L 248.053278 166.604161 
L 248.242796 165.5817 
L 248.648511 163.682844 
L 248.741361 163.390712 
L 248.825153 162.514316 
L 248.934891 162.076119 
L 249.676616 155.795285 
L 249.760269 155.211022 
L 249.899846 153.458231 
L 250.052872 152.43577 
L 250.373538 150.536913 
L 251.094329 146.885266 
L 251.294283 146.447068 
L 251.425698 145.716739 
L 251.553943 145.424607 
L 251.910824 144.402146 
L 252.107965 144.110014 
L 252.116098 143.963948 
L 252.25122 143.671816 
L 252.42911 143.087552 
L 252.69477 142.211157 
L 252.757275 141.772959 
L 252.860334 141.480828 
L 252.975881 141.188696 
L 253.501419 139.435905 
L 253.613344 138.705576 
L 253.846033 137.537049 
L 253.981707 136.952785 
L 254.395646 135.930324 
L 254.514584 135.199994 
L 254.692754 134.907862 
L 254.813395 134.031467 
L 255.133298 133.593269 
L 255.24106 133.155072 
L 255.320478 132.716874 
L 255.489679 131.256215 
L 255.599293 130.964083 
L 255.88458 130.818017 
L 256.318296 128.919161 
L 256.775009 128.480963 
L 256.867138 128.188831 
L 257.273617 128.042765 
L 257.731073 127.312436 
L 257.885075 127.020304 
L 257.89509 126.874238 
L 258.156768 126.436041 
L 258.169369 126.289975 
L 258.533128 125.997843 
L 258.957646 125.413579 
L 259.288662 124.829316 
L 259.480751 124.391118 
L 260.012583 122.638327 
L 260.167356 122.346196 
L 260.202457 122.054064 
L 260.514618 121.761932 
L 260.569992 121.4698 
L 261.131681 121.031602 
L 261.269499 120.301273 
L 261.409923 120.155207 
L 261.824867 119.863075 
L 263.056494 117.672087 
L 263.314729 117.379955 
L 263.450437 116.941757 
L 263.452569 116.795692 
L 263.78014 116.50356 
L 264.476292 115.77323 
L 264.732234 114.896835 
L 265.493316 114.312571 
L 265.561612 114.02044 
L 266.493001 112.997978 
L 266.584089 112.705847 
L 266.940612 112.413715 
L 268.214133 112.121583 
L 268.346958 111.829451 
L 269.400289 111.099122 
L 269.515423 110.80699 
L 269.550782 110.514858 
L 270.062119 109.638463 
L 270.118362 109.346331 
L 270.516242 109.200265 
L 270.519933 109.054199 
L 270.740125 108.762067 
L 271.073878 108.177804 
L 271.207838 108.031738 
L 271.510705 107.885672 
L 271.538768 107.739606 
L 271.735887 107.447474 
L 272.1838 106.863211 
L 272.210637 106.717145 
L 272.850046 106.425013 
L 273.097274 106.132881 
L 273.41379 105.694684 
L 273.576098 104.964354 
L 273.837395 104.380091 
L 274.344733 104.234025 
L 274.735713 103.211563 
L 275.273652 102.919432 
L 275.346735 102.335168 
L 275.941403 101.89697 
L 275.962208 101.604839 
L 276.570826 101.166641 
L 276.838392 100.436311 
L 277.963958 99.852048 
L 278.215742 99.559916 
L 278.321106 98.975652 
L 278.858011 98.829587 
L 279.101755 98.245323 
L 279.254421 97.953191 
L 279.498999 97.514994 
L 280.613356 96.638598 
L 280.797922 96.346466 
L 280.902025 96.054335 
L 281.358222 95.762203 
L 281.410079 95.616137 
L 281.714252 95.324005 
L 282.09173 94.301544 
L 283.03847 93.425148 
L 283.20185 93.133017 
L 283.920399 92.402687 
L 284.047487 91.96449 
L 284.133578 91.818424 
L 284.524558 91.526292 
L 284.617923 91.23416 
L 285.049439 90.942028 
L 285.060008 90.795962 
L 286.193899 90.211699 
L 286.476644 89.773501 
L 286.760153 89.627435 
L 286.768682 89.481369 
L 287.623832 89.335303 
L 287.86602 88.75104 
L 288.423476 87.874645 
L 288.641144 87.436447 
L 288.997821 87.144315 
L 289.42931 86.852183 
L 289.775728 86.413986 
L 290.369234 86.121854 
L 290.441208 85.829722 
L 291.341422 85.391524 
L 291.512345 84.953327 
L 291.691252 84.807261 
L 292.17916 84.661195 
L 292.578259 84.076931 
L 292.897894 83.930865 
L 292.899709 83.784799 
L 293.223705 83.492668 
L 293.936784 83.05447 
L 293.962836 82.616272 
L 294.356328 82.324141 
L 294.891337 82.178075 
L 294.997784 81.885943 
L 295.021294 81.739877 
L 295.406066 81.447745 
L 296.019612 80.57135 
L 296.24878 79.987086 
L 297.21182 79.548889 
L 297.331295 79.256757 
L 297.375184 79.110691 
L 298.18983 78.672493 
L 298.329808 78.234295 
L 298.69915 77.650032 
L 299.007845 77.211834 
L 299.494146 76.919702 
L 299.8468 76.773637 
L 299.858456 76.627571 
L 300.282307 76.335439 
L 300.4818 75.751175 
L 301.243963 75.459044 
L 301.644696 75.020846 
L 301.693856 74.728714 
L 302.103354 74.436582 
L 302.306838 73.852319 
L 302.58108 73.560187 
L 302.672082 73.268055 
L 303.204585 72.975923 
L 303.869185 72.099528 
L 303.877722 71.953462 
L 304.56079 71.369198 
L 305.217156 71.223133 
L 305.261671 71.077067 
L 306.187446 70.492803 
L 306.237228 70.346737 
L 306.769887 69.762474 
L 306.775587 69.616408 
L 307.044853 69.470342 
L 307.607419 69.324276 
L 307.806232 69.032144 
L 307.98276 68.886078 
L 308.532971 68.593946 
L 309.471643 67.571485 
L 309.888916 67.279353 
L 310.294697 66.841156 
L 310.387568 66.256892 
L 310.613002 66.110826 
L 311.316958 65.818694 
L 311.415128 65.672629 
L 312.462558 65.526563 
L 312.658382 65.234431 
L 312.813343 65.088365 
L 313.150029 64.942299 
L 313.265009 64.504101 
L 314.830923 64.065904 
L 315.023663 63.919838 
L 315.558442 63.773772 
L 315.573002 63.627706 
L 315.983501 63.48164 
L 315.98559 63.335574 
L 316.588865 63.189508 
L 317.064196 62.605245 
L 317.735262 62.313113 
L 317.791604 62.167047 
L 318.30011 61.728849 
L 318.332374 61.582784 
L 319.073235 61.290652 
L 319.523497 60.99852 
L 319.613459 60.852454 
L 319.899967 60.560322 
L 319.966043 60.414256 
L 321.234317 60.122125 
L 321.276541 59.976059 
L 323.611175 58.953597 
L 323.997208 58.369334 
L 325.062758 58.077202 
L 325.55471 57.639004 
L 326.421475 57.492939 
L 326.925476 57.054741 
L 328.224602 56.762609 
L 328.671527 56.470477 
L 329.317459 55.886214 
L 330.941263 55.740148 
L 331.109597 55.594082 
L 333.293123 55.155884 
L 333.684225 55.009818 
L 334.535866 54.863752 
L 334.703266 54.717687 
L 336.317181 54.425555 
L 336.896171 54.279489 
L 337.142044 53.841291 
L 337.593174 53.549159 
L 338.178728 52.964896 
L 338.36737 52.81883 
L 340.630249 52.0885 
L 341.48195 51.796369 
L 341.749662 51.650303 
L 343.746941 51.504237 
L 346.801368 50.481776 
L 346.835198 50.33571 
L 347.158826 50.189644 
L 351.53855 49.459314 
L 354.663974 48.290787 
L 356.256437 48.144721 
L 356.467109 47.998655 
L 357.45895 47.85259 
L 358.064759 47.414392 
L 364.27993 46.099799 
L 364.748962 45.953733 
L 366.476307 45.807667 
L 366.719776 45.661601 
L 368.811701 45.369469 
L 369.33965 45.223403 
L 370.906456 45.077338 
L 371.006724 44.931272 
L 372.13771 44.63914 
L 374.128808 44.347008 
L 379.867197 43.616679 
L 380.833993 43.470613 
L 387.748688 42.886349 
L 388.710794 42.302086 
L 390.189341 41.863888 
L 396.582115 41.133558 
L 396.862091 40.987493 
L 398.74671 40.695361 
L 399.402761 40.403229 
L 403.784616 39.965031 
L 406.915646 39.672899 
L 409.284726 39.380768 
L 409.520881 39.234702 
L 416.293546 38.94257 
L 416.685519 38.796504 
L 422.402779 38.650438 
L 425.145644 38.066175 
L 431.269873 37.627977 
L 431.933009 37.481911 
L 438.816353 36.897647 
L 439.0737 36.751582 
L 447.31792 35.875186 
L 451.752819 35.72912 
L 451.986578 35.436989 
L 454.792824 34.852725 
L 455.950223 34.706659 
L 456.040502 34.560593 
L 457.285253 34.414527 
L 458.412524 33.830264 
L 462.829149 33.538132 
L 464.390847 33.246 
L 465.262795 32.953868 
L 465.751611 32.807802 
L 465.751611 32.807802 
" style="fill:none;stroke:#e16d00;stroke-linecap:round;stroke-width:1.5;"/>
   </g>
   <g id="line2d_28">
    <path clip-path="url(#p47c94e282a)" d="M 224.465753 178.727631 
L 238.912611 178.581565 
L 243.73552 178.435499 
L 245.421282 178.289433 
L 246.063119 177.997301 
L 246.146983 177.851235 
L 247.883922 177.413038 
L 248.60654 177.120906 
L 248.615164 176.97484 
L 249.702644 175.806313 
L 249.976184 175.514181 
L 250.152649 174.783851 
L 250.308462 174.053522 
L 250.572671 173.031061 
L 250.8073 172.154665 
L 250.957249 171.862534 
L 251.048636 171.570402 
L 251.305933 171.424336 
L 251.342787 171.132204 
L 251.831766 170.694006 
L 252.868982 168.210886 
L 253.10937 167.918754 
L 253.345571 167.480557 
L 253.742321 166.896293 
L 254.060996 166.31203 
L 254.377805 165.435634 
L 254.563819 165.289568 
L 255.160966 164.997437 
L 255.528748 164.705305 
L 255.61869 164.413173 
L 255.698257 164.267107 
L 256.038856 163.974975 
L 256.146735 163.536778 
L 256.94136 161.491855 
L 257.032669 161.199723 
L 257.520817 159.88513 
L 257.874722 159.739064 
L 257.99158 159.300867 
L 258.380555 158.716603 
L 258.503914 158.278405 
L 258.792388 158.13234 
L 258.999109 157.255944 
L 259.360976 156.963812 
L 259.555298 156.671681 
L 259.608104 156.379549 
L 260.147221 155.503153 
L 260.262226 155.211022 
L 260.397316 154.91889 
L 260.574332 154.334626 
L 261.163227 153.020033 
L 261.437392 151.559374 
L 261.912112 151.121177 
L 261.914721 150.975111 
L 262.211356 150.682979 
L 262.464868 149.952649 
L 262.613342 149.368386 
L 262.767302 149.076254 
L 262.971381 148.784122 
L 262.986011 148.638056 
L 263.502259 148.053793 
L 263.785521 146.885266 
L 264.138119 146.00887 
L 264.201132 145.716739 
L 264.476872 145.424607 
L 264.578203 144.986409 
L 265.140072 143.963948 
L 265.346753 143.52575 
L 265.737505 142.941487 
L 266.228206 142.065091 
L 266.400634 141.626894 
L 266.628741 141.04263 
L 266.810255 140.750498 
L 267.086709 140.458366 
L 267.425024 140.166235 
L 267.55453 139.874103 
L 267.802211 139.581971 
L 268.237606 138.851642 
L 269.267333 136.222455 
L 269.455794 135.930324 
L 269.522715 135.784258 
L 269.839518 135.492126 
L 270.12528 134.761797 
L 270.452306 134.615731 
L 270.881675 133.739335 
L 271.210035 133.447203 
L 271.309633 132.86294 
L 271.52222 132.570808 
L 271.611528 131.986545 
L 272.015131 131.694413 
L 272.583661 130.818017 
L 273.227137 129.795556 
L 273.402909 129.211293 
L 273.703911 128.919161 
L 273.842 128.627029 
L 274.052831 128.042765 
L 274.218221 127.458502 
L 274.478476 127.020304 
L 274.61621 126.728172 
L 275.022433 126.582106 
L 275.055764 126.289975 
L 275.31546 126.143909 
L 275.451725 125.559645 
L 275.48444 125.413579 
L 275.961979 125.121448 
L 276.314941 123.95292 
L 276.382421 123.660789 
L 276.592411 123.368657 
L 276.611756 123.076525 
L 277.273058 122.492261 
L 277.907495 121.4698 
L 278.215444 121.177668 
L 278.766221 120.593405 
L 279.11083 120.447339 
L 279.376846 119.863075 
L 279.991538 119.278812 
L 280.055871 118.98668 
L 280.174727 118.694548 
L 280.235626 118.25635 
L 280.430472 117.964219 
L 280.628178 117.087823 
L 280.804419 116.795692 
L 280.902649 116.357494 
L 281.096143 115.627164 
L 281.42929 115.335033 
L 281.432189 115.188967 
L 281.796271 114.896835 
L 282.00761 114.458637 
L 282.079675 114.166505 
L 282.442701 113.874374 
L 282.846853 113.728308 
L 282.858563 113.582242 
L 283.057901 113.29011 
L 283.058448 113.144044 
L 283.178446 112.997978 
L 284.463365 112.267649 
L 284.815543 111.245188 
L 285.063221 110.514858 
L 285.440267 109.930595 
L 285.454674 109.784529 
L 286.22682 108.908133 
L 286.234889 108.762067 
L 286.737284 108.32387 
L 286.750796 108.177804 
L 287.071219 108.031738 
L 287.345493 107.447474 
L 287.482128 107.155343 
L 287.532933 106.863211 
L 287.813238 106.278947 
L 288.4397 105.402552 
L 288.662223 105.11042 
L 289.077492 104.380091 
L 289.34006 103.357629 
L 289.831531 102.919432 
L 289.959308 102.481234 
L 290.340896 102.189102 
L 290.474345 101.89697 
L 291.032411 101.312707 
L 291.051014 101.166641 
L 291.404575 100.874509 
L 291.456896 100.14418 
L 291.87495 99.705982 
L 292.368899 98.683521 
L 292.488981 97.953191 
L 292.754591 97.076796 
L 292.929057 96.784664 
L 293.432929 96.638598 
L 293.954338 95.616137 
L 294.17134 95.324005 
L 294.563086 94.44761 
L 295.014616 94.155478 
L 295.102867 94.009412 
L 295.545379 93.71728 
L 295.599827 93.571214 
L 295.914083 93.279083 
L 296.037925 92.986951 
L 296.609599 92.548753 
L 296.74639 92.110555 
L 297.085287 91.526292 
L 297.098063 91.380226 
L 297.488214 90.942028 
L 297.696302 90.503831 
L 297.987112 90.211699 
L 298.31492 90.065633 
L 298.481137 89.773501 
L 298.634698 89.481369 
L 299.295029 87.874645 
L 299.513313 87.436447 
L 300.062063 86.706117 
L 300.096671 86.26792 
L 300.264849 85.975788 
L 300.32817 85.829722 
L 300.674379 85.53759 
L 300.872841 85.245458 
L 300.879389 85.099393 
L 301.143326 84.953327 
L 301.174428 84.807261 
L 301.756853 84.369063 
L 301.92937 83.492668 
L 302.339005 83.200536 
L 302.347961 83.05447 
L 304.264374 81.447745 
L 304.35883 81.155613 
L 304.591715 81.009547 
L 304.678282 80.57135 
L 305.182898 79.84102 
L 305.337236 79.110691 
L 305.545233 78.818559 
L 305.593184 78.526427 
L 305.74124 78.234295 
L 305.83121 77.942164 
L 306.192039 77.796098 
L 306.246487 77.650032 
L 306.978088 77.3579 
L 306.989815 77.211834 
L 307.437094 76.919702 
L 307.482177 76.773637 
L 307.809666 76.627571 
L 307.992486 75.751175 
L 308.32685 75.166912 
L 308.660053 74.87478 
L 308.736076 74.582648 
L 308.915699 74.436582 
L 309.339167 74.290516 
L 309.529675 73.998385 
L 310.196528 73.414121 
L 310.197277 73.268055 
L 310.360047 72.975923 
L 310.545424 72.245594 
L 310.966912 71.953462 
L 311.168133 71.515264 
L 311.656063 71.223133 
L 311.95268 70.492803 
L 312.449496 70.200671 
L 312.602174 69.90854 
L 313.105794 69.17821 
L 313.141494 68.886078 
L 313.324275 68.447881 
L 313.505602 67.863617 
L 313.82745 67.717551 
L 313.905307 67.425419 
L 314.263913 66.841156 
L 314.383893 66.549024 
L 315.384274 64.796233 
L 316.21467 64.358036 
L 316.479775 63.773772 
L 316.863009 62.751311 
L 317.591924 62.605245 
L 317.61051 62.459179 
L 317.790101 62.167047 
L 317.819037 62.020981 
L 318.229644 61.582784 
L 318.265692 61.290652 
L 318.399733 61.144586 
L 319.663288 60.706388 
L 320.369331 59.976059 
L 320.475398 59.683927 
L 320.817619 59.245729 
L 320.859222 59.099663 
L 321.2255 58.807532 
L 321.535949 58.661466 
L 321.547693 58.5154 
L 321.980962 58.223268 
L 322.100566 57.931136 
L 322.338975 57.346873 
L 322.367709 57.200807 
L 323.749863 56.616543 
L 323.889002 56.324411 
L 324.176454 56.178345 
L 324.207914 56.03228 
L 324.46324 55.886214 
L 324.484871 55.740148 
L 325.19458 55.155884 
L 325.243496 55.009818 
L 325.596485 54.863752 
L 325.604942 54.717687 
L 325.730687 54.425555 
L 326.288217 53.403094 
L 326.367551 53.257028 
L 326.775419 52.964896 
L 326.791746 52.81883 
L 327.526457 52.526698 
L 328.283756 51.796369 
L 328.500748 51.504237 
L 329.633092 51.212105 
L 329.750141 50.773907 
L 330.088968 50.627842 
L 330.100929 50.481776 
L 330.321011 50.33571 
L 330.326805 50.189644 
L 330.692118 49.897512 
L 331.382279 49.167183 
L 331.504659 49.021117 
L 332.324837 48.582919 
L 332.68305 48.290787 
L 332.726027 47.998655 
L 333.517809 47.268326 
L 334.19856 46.684062 
L 334.212912 46.537996 
L 334.592672 46.245865 
L 334.667708 46.099799 
L 335.208738 45.807667 
L 335.262342 45.661601 
L 335.757972 45.223403 
L 336.168019 44.785206 
L 337.122338 44.493074 
L 337.145659 44.347008 
L 340.253461 44.200942 
L 340.635008 44.054876 
L 341.596711 43.90881 
L 341.78702 43.324547 
L 342.68281 42.886349 
L 343.529232 42.740283 
L 343.556968 42.448151 
L 344.490347 42.302086 
L 344.667196 42.15602 
L 345.05622 42.009954 
L 345.330712 41.42569 
L 348.325785 41.279624 
L 348.753835 41.133558 
L 350.031403 40.987493 
L 350.124349 40.841427 
L 353.702232 40.111097 
L 355.597343 39.818965 
L 355.926161 39.672899 
L 356.742475 39.526834 
L 360.512608 39.380768 
L 361.099901 39.088636 
L 365.046116 38.94257 
L 365.978677 38.796504 
L 368.953653 38.504372 
L 371.011217 38.066175 
L 371.551061 37.920109 
L 379.184784 37.189779 
L 379.365454 37.043713 
L 380.032993 36.897647 
L 385.415801 36.313384 
L 385.444249 36.021252 
L 391.789185 35.72912 
L 393.025763 35.583054 
L 396.68623 35.436989 
L 397.240866 35.290923 
L 408.805929 34.852725 
L 409.334953 34.706659 
L 411.305845 34.414527 
L 411.405529 34.268461 
L 416.718441 34.122395 
L 417.572977 33.97633 
L 421.447656 33.830264 
L 437.376735 33.538132 
L 440.532787 33.099934 
L 455.433172 32.953868 
L 458.782423 32.807802 
L 458.782423 32.807802 
" style="fill:none;stroke:#711c2f;stroke-linecap:round;stroke-width:1.5;"/>
   </g>
   <g id="line2d_29">
    <path clip-path="url(#p47c94e282a)" d="M 246.098911 178.727631 
L 247.444099 178.581565 
L 247.961385 178.435499 
L 249.201231 178.143367 
L 249.492257 177.997301 
L 250.781415 177.705169 
L 250.994008 177.559103 
L 253.061041 177.120906 
L 253.476624 176.828774 
L 254.485629 176.536642 
L 255.058844 176.24451 
L 255.438755 175.952379 
L 256.853564 175.514181 
L 258.130293 175.222049 
L 258.256908 175.075983 
L 259.145841 174.783851 
L 259.171931 174.637786 
L 259.569191 174.345654 
L 260.338421 174.199588 
L 260.575484 173.907456 
L 262.08676 173.177127 
L 262.181739 172.884995 
L 263.060644 172.446797 
L 263.201894 172.300731 
L 263.582331 172.154665 
L 263.714599 171.862534 
L 264.177897 171.570402 
L 264.278268 171.424336 
L 264.539009 171.27827 
L 264.548491 171.132204 
L 264.768369 170.840072 
L 265.071314 170.109743 
L 266.652565 169.087282 
L 266.885339 168.356952 
L 268.028183 168.210886 
L 268.310733 167.772689 
L 268.37442 167.480557 
L 268.630224 167.334491 
L 268.808451 166.896293 
L 269.264464 166.31203 
L 269.588841 166.019898 
L 269.776068 165.5817 
L 269.825444 165.435634 
L 270.293103 165.289568 
L 270.852164 164.121041 
L 270.957217 163.828909 
L 271.443111 163.536778 
L 271.453261 163.390712 
L 271.79905 163.09858 
L 272.005716 162.514316 
L 272.569383 161.637921 
L 272.732839 161.199723 
L 272.954618 160.907592 
L 273.201393 160.761526 
L 273.277157 160.177262 
L 273.393272 159.88513 
L 274.620409 158.716603 
L 275.185159 157.548076 
L 275.215594 157.40201 
L 275.669339 157.109878 
L 276.066956 156.087417 
L 276.603423 155.064956 
L 276.928076 154.772824 
L 276.997523 154.480692 
L 277.272797 154.18856 
L 277.517918 153.604297 
L 277.680396 153.312165 
L 277.960183 152.43577 
L 277.966473 152.289704 
L 278.240498 151.997572 
L 278.263418 151.851506 
L 278.586292 151.413308 
L 278.998762 149.952649 
L 279.124776 149.660518 
L 279.263919 149.22232 
L 279.659742 148.784122 
L 280.046213 147.615595 
L 280.454725 146.885266 
L 280.479932 146.7392 
L 280.928177 146.447068 
L 281.384607 145.862804 
L 281.524397 144.986409 
L 282.167801 143.379684 
L 282.402458 143.233618 
L 282.537151 142.941487 
L 282.704498 142.503289 
L 282.715349 142.357223 
L 283.130519 142.065091 
L 283.400886 141.772959 
L 283.789109 141.188696 
L 284.151971 140.750498 
L 284.618975 139.435905 
L 285.054941 139.143773 
L 285.215295 138.851642 
L 285.2224 138.705576 
L 285.667201 138.413444 
L 285.971374 137.82918 
L 286.601206 136.660653 
L 286.840303 136.07639 
L 286.998441 135.492126 
L 287.430161 135.199994 
L 287.533192 134.907862 
L 287.898113 134.615731 
L 288.056098 134.177533 
L 288.301809 133.885401 
L 290.107042 130.525886 
L 290.294666 129.941622 
L 290.679358 129.64949 
L 290.749741 129.357358 
L 291.062572 129.211293 
L 291.086287 129.065227 
L 291.403119 128.919161 
L 291.437326 128.773095 
L 291.613497 128.480963 
L 291.692486 128.188831 
L 291.850824 127.896699 
L 291.972316 127.458502 
L 292.237831 126.874238 
L 292.239545 126.728172 
L 292.3534 126.436041 
L 292.759509 125.121448 
L 293.058533 124.975382 
L 293.073131 124.829316 
L 293.591039 124.537184 
L 293.760243 124.098986 
L 294.502122 123.806854 
L 294.674961 123.368657 
L 294.901537 122.930459 
L 295.799966 121.031602 
L 296.083964 120.885537 
L 296.212962 120.155207 
L 296.555942 119.424878 
L 296.577836 119.278812 
L 296.922396 118.98668 
L 297.050619 118.694548 
L 297.111148 118.25635 
L 297.536712 117.672087 
L 298.188481 117.379955 
L 298.303757 117.087823 
L 298.351912 116.649626 
L 298.7332 116.211428 
L 299.083114 115.627164 
L 299.134339 115.481098 
L 299.323522 115.188967 
L 299.400313 114.750769 
L 299.83046 114.312571 
L 299.974152 114.02044 
L 300.06784 113.582242 
L 300.271586 113.29011 
L 300.414793 112.705847 
L 300.666691 111.829451 
L 300.793296 111.537319 
L 301.225429 111.245188 
L 301.768913 110.660924 
L 302.350106 109.638463 
L 302.460968 109.346331 
L 302.588758 109.054199 
L 302.783642 108.469936 
L 302.951714 108.177804 
L 302.954156 108.031738 
L 303.248204 107.739606 
L 303.603828 107.447474 
L 303.692157 107.009277 
L 303.935836 106.278947 
L 304.193796 105.986815 
L 304.476347 105.256486 
L 305.290696 104.964354 
L 305.586953 104.526156 
L 305.811447 104.234025 
L 306.113994 103.649761 
L 306.126646 103.503695 
L 306.429955 103.211563 
L 306.564148 102.6273 
L 306.945591 102.481234 
L 307.239991 101.458773 
L 307.488158 101.020575 
L 307.569733 100.436311 
L 308.088404 99.998114 
L 308.117495 99.705982 
L 308.473828 99.267784 
L 308.689172 98.537455 
L 309.042015 97.953191 
L 309.830194 97.222862 
L 310.11559 96.492532 
L 310.403045 95.470071 
L 310.570853 95.031873 
L 310.828315 94.739742 
L 311.046939 94.44761 
L 311.742107 93.133017 
L 311.938811 92.840885 
L 312.142098 91.96449 
L 312.550068 91.818424 
L 312.597906 91.526292 
L 313.059263 91.23416 
L 313.574163 89.773501 
L 313.941794 89.335303 
L 314.129422 88.897106 
L 314.327539 88.604974 
L 314.814318 87.290381 
L 315.24522 86.560051 
L 315.411004 85.975788 
L 315.860713 85.683656 
L 316.410162 84.953327 
L 316.549039 84.515129 
L 316.684446 84.222997 
L 316.736129 83.930865 
L 316.987465 83.638734 
L 317.344996 82.908404 
L 317.404325 82.762338 
L 317.646689 82.470206 
L 318.030215 81.739877 
L 318.241541 81.447745 
L 318.39817 80.57135 
L 319.247318 79.694954 
L 319.263662 79.548889 
L 319.398968 79.402823 
L 319.805163 79.110691 
L 319.904161 78.526427 
L 320.269577 78.234295 
L 320.362604 77.796098 
L 320.657445 77.650032 
L 320.701196 77.3579 
L 321.092431 76.481505 
L 321.109695 76.335439 
L 321.398874 75.897241 
L 321.531902 75.459044 
L 321.719382 75.166912 
L 322.070446 74.87478 
L 322.583267 74.290516 
L 323.099828 73.998385 
L 323.341566 73.706253 
L 323.669241 73.268055 
L 323.786363 72.975923 
L 324.061948 72.537726 
L 324.292715 72.099528 
L 324.578018 71.66133 
L 324.595792 71.369198 
L 324.841919 71.077067 
L 324.94081 70.784935 
L 325.418023 69.616408 
L 325.884175 69.032144 
L 326.319667 68.155749 
L 326.44358 67.571485 
L 326.795357 67.279353 
L 327.250934 66.841156 
L 327.43047 65.818694 
L 327.612442 65.526563 
L 327.615537 65.380497 
L 328.54728 64.065904 
L 328.700208 63.189508 
L 329.034167 62.751311 
L 329.903934 61.874915 
L 330.787657 61.436718 
L 330.814978 61.290652 
L 331.178721 60.852454 
L 331.267776 60.560322 
L 331.650479 60.268191 
L 332.079283 59.245729 
L 332.296603 58.807532 
L 332.299343 58.661466 
L 332.471383 58.369334 
L 332.731476 57.492939 
L 333.608401 57.200807 
L 333.721152 56.908675 
L 334.013701 55.740148 
L 334.332395 55.448016 
L 334.538883 54.863752 
L 334.746932 54.425555 
L 334.794047 54.279489 
L 335.204047 53.987357 
L 335.343211 53.841291 
L 335.701601 53.695225 
L 335.83777 53.257028 
L 337.423319 51.796369 
L 337.637174 51.504237 
L 337.739474 51.066039 
L 338.228727 50.773907 
L 338.471072 50.33571 
L 338.685441 50.043578 
L 338.755902 49.897512 
L 339.668257 49.167183 
L 340.164711 48.582919 
L 340.183488 48.436853 
L 341.004441 48.290787 
L 341.113814 47.998655 
L 341.268534 47.706524 
L 341.310765 47.414392 
L 341.644083 47.12226 
L 341.757288 46.976194 
L 342.212405 46.830128 
L 342.240038 46.684062 
L 343.248247 46.391931 
L 343.279711 46.099799 
L 343.97133 45.515535 
L 343.972729 45.369469 
L 344.5137 45.077338 
L 345.334408 44.785206 
L 345.510643 44.347008 
L 345.799494 44.200942 
L 345.885014 43.90881 
L 346.376976 43.470613 
L 347.054706 43.178481 
L 348.334935 43.032415 
L 348.504451 42.594217 
L 348.659937 42.448151 
L 349.485207 42.302086 
L 349.521526 42.15602 
L 349.805024 41.863888 
L 349.90222 41.42569 
L 349.963045 41.279624 
L 352.088204 40.987493 
L 354.468243 40.549295 
L 354.984872 40.111097 
L 355.849562 39.965031 
L 358.789709 39.818965 
L 358.806752 39.672899 
L 358.939059 39.526834 
L 359.470602 39.380768 
L 362.013814 39.234702 
L 362.213748 38.94257 
L 362.816792 38.650438 
L 363.303224 38.358306 
L 364.171523 38.212241 
L 364.323345 38.066175 
L 364.842278 37.920109 
L 365.061779 37.627977 
L 365.371669 37.335845 
L 365.458047 37.189779 
L 372.537058 36.605516 
L 372.550842 36.45945 
L 372.817043 36.313384 
L 376.571986 35.72912 
L 381.846676 35.583054 
L 382.138179 35.436989 
L 385.212256 35.144857 
L 388.299128 34.998791 
L 394.470408 34.852725 
L 396.20537 34.560593 
L 403.437896 34.414527 
L 403.492327 34.268461 
L 411.103694 33.97633 
L 411.34142 33.830264 
L 415.04422 33.684198 
L 415.055596 33.538132 
L 415.978382 33.392066 
L 419.172479 33.246 
L 431.52995 33.099934 
L 432.027752 32.953868 
L 448.329034 32.807802 
L 448.329034 32.807802 
" style="fill:none;stroke:#acc13a;stroke-linecap:round;stroke-width:1.5;"/>
   </g>
   <g id="line2d_30">
    <path clip-path="url(#p47c94e282a)" d="M 257.346403 178.727631 
L 258.213829 178.581565 
L 258.690406 178.435499 
L 264.149797 178.143367 
L 264.848503 177.997301 
L 265.240493 177.705169 
L 266.08776 177.559103 
L 268.471436 177.413038 
L 269.40516 176.97484 
L 269.587645 176.828774 
L 270.475987 176.536642 
L 271.499914 176.24451 
L 272.170272 175.806313 
L 272.963331 175.514181 
L 273.097907 175.222049 
L 273.454188 174.929917 
L 273.518122 174.783851 
L 273.710238 174.637786 
L 274.256549 174.49172 
L 274.277184 174.345654 
L 274.926438 173.76139 
L 276.129921 173.469258 
L 276.388645 173.031061 
L 276.946914 172.300731 
L 277.627008 172.0086 
L 278.0794 171.27827 
L 279.367626 170.401875 
L 279.56868 170.255809 
L 280.132379 169.963677 
L 280.22561 169.671545 
L 280.986265 169.379413 
L 281.344615 168.79515 
L 281.8059 168.503018 
L 282.286979 168.356952 
L 282.446542 168.06482 
L 282.921819 167.626623 
L 283.413049 167.480557 
L 283.448046 167.334491 
L 283.737173 167.042359 
L 284.326993 166.750227 
L 284.704241 166.165964 
L 285.203032 165.727766 
L 285.32212 165.435634 
L 285.426037 165.289568 
L 285.971162 164.997437 
L 286.498952 164.267107 
L 286.568338 163.974975 
L 286.765569 163.682844 
L 286.984721 163.244646 
L 287.307978 163.09858 
L 287.417834 162.36825 
L 288.009876 162.076119 
L 288.163132 161.637921 
L 288.294291 161.345789 
L 288.83556 160.907592 
L 289.090765 160.469394 
L 289.411954 160.177262 
L 289.460775 159.88513 
L 289.736963 159.592999 
L 289.961564 159.008735 
L 289.985384 158.716603 
L 290.699967 157.986274 
L 290.744051 157.694142 
L 291.445198 156.963812 
L 291.915464 156.671681 
L 292.053827 156.379549 
L 292.325107 155.941351 
L 292.548491 155.503153 
L 293.116752 155.064956 
L 293.275061 154.626758 
L 293.578801 154.334626 
L 294.144701 153.166099 
L 294.252466 152.873967 
L 294.53149 152.43577 
L 294.549881 152.289704 
L 295.142936 151.559374 
L 295.155493 151.413308 
L 295.382843 151.121177 
L 295.396675 150.829045 
L 295.82414 150.682979 
L 296.31374 149.514452 
L 296.771974 149.076254 
L 296.806363 148.930188 
L 296.971487 148.638056 
L 297.352258 147.615595 
L 297.806054 147.177398 
L 298.007102 146.885266 
L 298.17771 146.593134 
L 299.02585 144.25608 
L 299.579448 143.963948 
L 299.845775 143.817882 
L 300.005868 143.52575 
L 300.270314 143.233618 
L 300.860045 141.919025 
L 301.159007 141.626894 
L 301.382859 141.480828 
L 301.479822 141.188696 
L 302.042844 140.896564 
L 302.270071 140.166235 
L 302.657955 139.874103 
L 302.963812 139.435905 
L 303.238711 139.289839 
L 303.243724 139.143773 
L 303.417705 138.851642 
L 303.470481 138.55951 
L 303.904947 138.267378 
L 304.106386 138.121312 
L 304.168509 137.82918 
L 304.492594 137.244917 
L 304.605851 136.952785 
L 304.956615 136.07639 
L 305.235627 135.784258 
L 305.735178 134.031467 
L 306.234768 133.009006 
L 306.392714 132.278676 
L 306.607132 131.986545 
L 306.794963 131.110149 
L 307.066765 130.671951 
L 307.227787 130.233754 
L 307.447431 129.941622 
L 307.547631 129.795556 
L 307.798469 129.64949 
L 307.817983 129.503424 
L 308.090077 129.357358 
L 308.295061 128.480963 
L 308.539806 128.188831 
L 308.859615 127.458502 
L 309.040089 126.582106 
L 309.370598 125.705711 
L 309.491871 125.121448 
L 309.707056 124.829316 
L 309.960059 123.660789 
L 310.219139 123.514723 
L 310.421558 122.638327 
L 310.901907 121.615866 
L 311.168559 121.4698 
L 311.316568 121.031602 
L 311.477468 120.739471 
L 311.550152 120.593405 
L 311.892352 120.447339 
L 312.032438 120.155207 
L 312.543967 119.717009 
L 312.574379 119.424878 
L 312.710759 119.132746 
L 312.842167 118.548482 
L 313.443255 117.526021 
L 313.502333 117.087823 
L 314.329326 116.357494 
L 314.413705 115.919296 
L 314.663868 115.627164 
L 314.697008 115.188967 
L 314.833504 114.896835 
L 314.878823 114.604703 
L 315.741449 112.851912 
L 315.878333 112.413715 
L 316.31489 111.245188 
L 316.466425 110.368792 
L 316.677603 110.07666 
L 316.911174 109.784529 
L 317.062339 109.492397 
L 317.110951 109.346331 
L 317.296196 109.054199 
L 317.422729 108.762067 
L 318.012506 107.739606 
L 318.284035 107.301408 
L 318.426858 106.863211 
L 318.632915 106.571079 
L 318.741124 105.986815 
L 318.927468 105.694684 
L 319.152676 105.402552 
L 319.222699 104.818288 
L 319.271078 104.526156 
L 319.696172 104.380091 
L 319.771608 103.941893 
L 320.035073 103.211563 
L 320.042663 103.065497 
L 320.495787 102.6273 
L 320.630516 102.043036 
L 320.657121 101.89697 
L 320.992765 101.604839 
L 321.033542 101.312707 
L 321.197681 101.020575 
L 321.374139 100.582377 
L 321.502728 100.14418 
L 321.846475 99.852048 
L 321.850104 99.559916 
L 322.178614 98.975652 
L 322.404269 98.391389 
L 322.771195 98.099257 
L 322.907916 97.368928 
L 323.150338 96.93073 
L 323.358273 96.784664 
L 323.471942 96.492532 
L 323.687865 95.470071 
L 324.022818 95.031873 
L 324.521801 94.155478 
L 324.53427 94.009412 
L 325.009339 93.425148 
L 325.29592 92.986951 
L 325.548973 92.548753 
L 325.727826 91.818424 
L 326.028886 91.672358 
L 326.148079 90.795962 
L 326.571732 90.357765 
L 326.703748 89.919567 
L 326.972925 89.627435 
L 327.105368 89.335303 
L 327.213004 89.043172 
L 327.562287 88.02071 
L 327.69059 87.728579 
L 328.015884 86.560051 
L 328.031267 86.413986 
L 328.573825 85.683656 
L 328.739322 85.391524 
L 329.081771 84.953327 
L 329.462161 84.661195 
L 329.556961 84.222997 
L 329.79669 83.492668 
L 330.099955 82.908404 
L 330.350518 82.762338 
L 330.450179 82.470206 
L 330.698833 82.324141 
L 330.83097 81.593811 
L 331.182022 81.155613 
L 331.62414 79.987086 
L 331.843394 78.818559 
L 332.119316 78.526427 
L 332.299629 78.08823 
L 332.316096 77.942164 
L 332.619229 77.503966 
L 332.722809 77.065768 
L 333.066379 76.773637 
L 333.076452 76.627571 
L 333.513596 76.189373 
L 333.527306 75.751175 
L 333.647249 75.459044 
L 333.749667 75.166912 
L 333.973857 75.020846 
L 334.107071 74.436582 
L 334.303509 74.14445 
L 334.632139 73.414121 
L 334.650225 73.268055 
L 334.825408 72.975923 
L 335.010037 72.537726 
L 335.09034 72.099528 
L 335.262753 71.66133 
L 335.916099 69.324276 
L 336.174115 69.032144 
L 336.953347 67.279353 
L 337.514719 66.549024 
L 337.679179 65.818694 
L 337.895858 65.526563 
L 338.114701 65.088365 
L 338.744893 64.650167 
L 338.803652 64.358036 
L 338.939268 64.065904 
L 338.956153 63.919838 
L 339.239439 63.627706 
L 339.251354 63.48164 
L 339.546384 63.189508 
L 339.787539 62.751311 
L 340.230878 62.605245 
L 340.745202 60.99852 
L 341.321373 60.560322 
L 341.357094 59.976059 
L 341.94591 59.245729 
L 341.959949 59.099663 
L 342.155729 58.953597 
L 342.198868 58.661466 
L 342.659458 58.5154 
L 342.671162 58.369334 
L 343.455932 57.492939 
L 343.541394 57.200807 
L 343.883281 56.908675 
L 344.064316 56.616543 
L 344.401498 55.594082 
L 344.74962 55.448016 
L 344.753263 55.30195 
L 344.948766 55.009818 
L 345.113493 54.571621 
L 345.492476 54.133423 
L 345.697143 53.841291 
L 345.905535 53.257028 
L 346.136639 52.81883 
L 346.234138 52.380632 
L 346.548594 52.0885 
L 346.799514 51.066039 
L 347.181023 50.919973 
L 347.313277 50.481776 
L 347.653109 50.33571 
L 347.91249 49.897512 
L 348.800609 47.998655 
L 349.195656 47.85259 
L 349.321294 47.414392 
L 349.540728 47.12226 
L 349.671358 46.830128 
L 350.053799 46.391931 
L 350.619294 46.245865 
L 350.739655 45.953733 
L 350.96965 45.807667 
L 351.027899 45.515535 
L 351.567801 44.493074 
L 352.024954 44.200942 
L 352.136391 43.762744 
L 352.155434 43.470613 
L 352.761316 42.886349 
L 352.856442 42.740283 
L 353.876682 42.302086 
L 353.895067 42.15602 
L 354.22654 41.863888 
L 354.335665 41.717822 
L 355.156145 41.42569 
L 355.425908 40.841427 
L 355.621355 40.695361 
L 355.628953 40.549295 
L 356.10601 40.111097 
L 356.598936 39.818965 
L 356.707857 39.526834 
L 357.493735 39.088636 
L 357.545852 38.94257 
L 357.723881 38.796504 
L 359.57384 38.504372 
L 360.504249 37.920109 
L 361.461351 37.774043 
L 361.585554 37.627977 
L 364.247364 37.189779 
L 364.587305 37.043713 
L 366.403921 36.605516 
L 370.805289 35.436989 
L 370.8863 35.290923 
L 374.146448 34.852725 
L 376.141258 34.268461 
L 378.838123 33.97633 
L 379.146088 33.684198 
L 384.095605 33.538132 
L 384.158156 33.392066 
L 392.450925 33.099934 
L 421.020282 32.807802 
L 421.020282 32.807802 
" style="fill:none;stroke:#6d8300;stroke-linecap:round;stroke-width:1.5;"/>
   </g>
   <g id="line2d_31">
    <path clip-path="url(#p47c94e282a)" d="M 273.837469 178.727631 
L 275.184325 178.581565 
L 280.248444 178.289433 
L 282.823465 177.559103 
L 284.651819 177.266972 
L 284.844211 177.120906 
L 286.613154 176.97484 
L 286.914484 176.682708 
L 287.176802 176.536642 
L 288.330727 176.24451 
L 288.458029 176.098445 
L 289.931109 175.514181 
L 290.016721 175.368115 
L 291.326746 175.075983 
L 291.348661 174.929917 
L 291.618873 174.783851 
L 292.134458 174.637786 
L 292.187354 174.49172 
L 292.807332 174.345654 
L 292.833557 174.199588 
L 294.125737 173.76139 
L 294.180838 173.615324 
L 294.813909 173.177127 
L 294.814863 173.031061 
L 295.117021 172.738929 
L 295.99546 172.446797 
L 296.016835 172.300731 
L 296.53228 172.0086 
L 296.628265 171.716468 
L 297.088282 171.570402 
L 297.124906 171.424336 
L 297.336756 171.132204 
L 297.861662 170.401875 
L 298.305158 170.109743 
L 299.054971 168.79515 
L 299.09773 168.503018 
L 299.280336 168.210886 
L 300.205869 167.042359 
L 301.082087 166.750227 
L 301.105161 166.604161 
L 301.425919 166.458096 
L 301.571715 166.019898 
L 301.801781 165.5817 
L 303.467496 164.559239 
L 303.601325 164.267107 
L 303.843465 163.390712 
L 304.16317 163.09858 
L 304.234015 162.806448 
L 304.670282 162.660382 
L 304.740822 162.36825 
L 305.075337 162.076119 
L 305.257759 161.783987 
L 305.35863 161.491855 
L 305.436366 161.053657 
L 305.847286 160.61546 
L 306.033671 160.177262 
L 306.532869 159.446933 
L 306.694158 159.008735 
L 307.121274 158.570537 
L 307.247421 158.13234 
L 307.365517 157.840208 
L 307.713309 157.548076 
L 307.819416 156.671681 
L 308.031273 156.525615 
L 308.143183 155.941351 
L 308.420575 155.649219 
L 308.68866 154.480692 
L 308.769349 154.334626 
L 309.100086 154.18856 
L 309.225984 153.750363 
L 309.537515 153.458231 
L 309.760597 153.166099 
L 309.928913 152.727901 
L 310.091698 152.43577 
L 310.407153 151.70544 
L 310.599772 151.413308 
L 310.601607 151.267243 
L 311.256369 150.390847 
L 311.332457 149.952649 
L 311.686932 149.806584 
L 311.795445 149.368386 
L 312.393403 148.345925 
L 312.785919 147.177398 
L 313.264409 146.885266 
L 313.50797 146.154936 
L 313.617843 145.862804 
L 313.621778 145.716739 
L 313.85847 145.278541 
L 313.860282 145.132475 
L 314.353777 144.402146 
L 314.506099 143.963948 
L 314.836945 142.941487 
L 315.402296 141.626894 
L 315.592473 141.04263 
L 316.047899 140.020169 
L 316.209279 139.289839 
L 316.26746 138.997707 
L 316.645771 138.705576 
L 316.767226 138.413444 
L 317.055322 138.121312 
L 317.273509 137.82918 
L 318.019237 136.222455 
L 318.445644 135.492126 
L 318.758296 135.199994 
L 319.207282 134.469665 
L 319.280182 134.177533 
L 319.508707 133.885401 
L 319.648938 132.86294 
L 319.777688 132.570808 
L 319.849773 131.986545 
L 320.349856 130.964083 
L 320.384669 130.671951 
L 320.621126 130.37982 
L 320.715073 129.941622 
L 320.819343 129.211293 
L 320.967717 128.627029 
L 321.181159 128.042765 
L 321.18133 127.896699 
L 321.45406 127.604568 
L 321.46475 127.312436 
L 321.609641 127.020304 
L 321.739397 126.728172 
L 322.395454 125.559645 
L 322.599879 125.267513 
L 322.895159 124.829316 
L 323.301428 124.098986 
L 323.462751 123.514723 
L 323.79746 123.222591 
L 323.879697 122.638327 
L 324.060336 122.346196 
L 324.501558 120.739471 
L 324.915628 120.155207 
L 325.468429 119.570944 
L 325.640613 118.694548 
L 325.827424 118.402416 
L 325.896462 117.964219 
L 326.362274 117.379955 
L 326.482767 116.649626 
L 326.919998 115.919296 
L 327.049208 115.335033 
L 327.284171 115.042901 
L 327.431641 114.604703 
L 327.817098 114.312571 
L 327.856924 114.166505 
L 328.113407 114.02044 
L 328.260924 113.582242 
L 328.434304 113.144044 
L 328.436278 112.997978 
L 328.571306 112.705847 
L 328.921985 111.829451 
L 329.22563 111.245188 
L 329.376197 110.660924 
L 329.533761 110.368792 
L 329.624486 110.07666 
L 329.759123 109.346331 
L 329.976681 109.054199 
L 330.220936 108.177804 
L 331.059245 105.840749 
L 331.263101 105.256486 
L 331.350017 105.11042 
L 331.57349 104.964354 
L 331.687041 104.526156 
L 331.878173 103.795827 
L 332.645524 101.89697 
L 332.721166 101.604839 
L 333.188707 101.166641 
L 333.510205 99.998114 
L 333.795647 99.559916 
L 334.230072 97.953191 
L 334.608623 97.661059 
L 334.76254 97.368928 
L 334.824957 97.076796 
L 335.042703 96.346466 
L 335.348756 96.2004 
L 335.597897 95.470071 
L 335.799639 95.324005 
L 335.828783 95.031873 
L 336.042131 94.885807 
L 336.244926 93.571214 
L 336.732443 92.110555 
L 336.974991 91.818424 
L 337.018446 91.526292 
L 337.550222 90.942028 
L 337.712376 90.649896 
L 337.721802 90.357765 
L 338.027246 89.919567 
L 338.149746 89.627435 
L 338.415807 89.335303 
L 338.559198 88.75104 
L 338.648 88.312842 
L 338.99873 86.998249 
L 339.194711 85.975788 
L 339.407632 85.683656 
L 339.436551 85.391524 
L 339.685941 84.953327 
L 339.944075 84.222997 
L 340.099179 83.638734 
L 340.397956 82.908404 
L 340.837801 82.324141 
L 341.173555 81.447745 
L 341.449534 81.009547 
L 341.94744 79.987086 
L 342.255508 79.694954 
L 342.385624 79.110691 
L 342.732374 78.234295 
L 343.074196 77.796098 
L 343.178266 77.211834 
L 343.657018 77.065768 
L 343.863046 76.043307 
L 344.523959 74.290516 
L 344.625742 73.706253 
L 345.106259 73.414121 
L 345.179487 73.268055 
L 345.399111 73.121989 
L 345.409888 72.975923 
L 345.837207 72.683792 
L 345.936006 72.39166 
L 346.06697 72.099528 
L 346.335416 71.807396 
L 346.36338 71.66133 
L 346.605152 71.369198 
L 346.800264 70.931001 
L 346.86921 70.346737 
L 347.100526 70.200671 
L 347.16091 69.90854 
L 348.695285 67.279353 
L 348.831407 66.987222 
L 349.33185 65.672629 
L 349.769808 65.088365 
L 349.880432 64.504101 
L 350.163845 64.21197 
L 350.344951 63.48164 
L 350.60149 63.189508 
L 350.875707 62.897377 
L 351.208408 61.874915 
L 351.494811 61.290652 
L 351.61016 60.852454 
L 352.120615 60.122125 
L 352.348418 59.829993 
L 352.940251 57.931136 
L 353.278035 57.639004 
L 353.410805 57.346873 
L 353.625287 56.762609 
L 353.786103 56.470477 
L 353.840639 56.178345 
L 354.152691 55.886214 
L 354.594158 55.155884 
L 354.873741 54.133423 
L 354.992372 53.695225 
L 355.330702 52.526698 
L 355.612176 51.942435 
L 355.944381 51.796369 
L 356.031788 51.504237 
L 356.273275 51.212105 
L 356.359143 50.919973 
L 356.552549 50.627842 
L 356.593678 50.481776 
L 356.97077 50.043578 
L 357.049954 49.751446 
L 357.50937 49.313248 
L 357.610219 48.290787 
L 357.771878 47.268326 
L 358.127388 47.12226 
L 358.128505 46.976194 
L 358.593211 46.684062 
L 358.603433 46.537996 
L 358.842834 46.245865 
L 359.431001 46.099799 
L 359.903872 45.369469 
L 360.068459 45.077338 
L 360.264883 44.785206 
L 360.269594 44.63914 
L 360.692967 44.200942 
L 360.949189 43.762744 
L 361.115764 43.470613 
L 361.50096 43.324547 
L 361.812987 42.740283 
L 362.003223 42.594217 
L 362.666719 42.448151 
L 363.21925 41.42569 
L 363.82613 41.279624 
L 363.870418 41.133558 
L 364.468962 40.987493 
L 364.988742 39.965031 
L 365.103203 39.818965 
L 365.729776 39.526834 
L 365.751208 39.380768 
L 366.62016 38.358306 
L 366.838445 37.920109 
L 367.556509 37.774043 
L 367.699463 37.335845 
L 367.899481 37.043713 
L 368.940024 36.751582 
L 370.523291 36.605516 
L 370.546419 36.45945 
L 371.378142 36.313384 
L 371.436955 36.021252 
L 372.223005 35.583054 
L 374.271717 35.290923 
L 374.527365 35.144857 
L 374.540877 34.998791 
L 376.56558 34.414527 
L 376.605254 34.268461 
L 376.978379 34.122395 
L 378.432491 33.97633 
L 378.620292 33.684198 
L 387.769767 33.099934 
L 394.500372 32.807802 
L 394.500372 32.807802 
" style="fill:none;stroke:#00534a;stroke-linecap:round;stroke-width:1.5;"/>
   </g>
   <g id="line2d_32">
    <path clip-path="url(#p47c94e282a)" d="M 282.573915 178.727631 
L 290.592677 178.581565 
L 291.996365 178.435499 
L 292.267922 178.289433 
L 292.907512 178.143367 
L 294.998454 177.851235 
L 295.128863 177.705169 
L 295.738829 177.559103 
L 295.806421 177.413038 
L 298.082735 176.682708 
L 298.620966 176.536642 
L 298.667914 176.390576 
L 299.460532 176.24451 
L 301.302368 176.098445 
L 301.399519 175.952379 
L 303.122985 175.660247 
L 303.806323 175.368115 
L 304.382207 175.222049 
L 304.41375 175.075983 
L 305.558518 174.929917 
L 305.826919 174.637786 
L 306.272638 174.49172 
L 306.311457 174.053522 
L 306.879155 173.907456 
L 306.950481 173.615324 
L 307.358474 173.323193 
L 307.584853 173.177127 
L 308.093047 173.031061 
L 308.105576 172.884995 
L 309.227542 172.592863 
L 309.523878 172.446797 
L 309.764165 172.0086 
L 309.880793 171.862534 
L 310.832872 171.716468 
L 310.840466 171.570402 
L 311.109115 171.27827 
L 311.788736 170.401875 
L 312.069096 169.963677 
L 312.33823 169.379413 
L 314.709028 168.503018 
L 314.742065 168.210886 
L 315.137736 168.06482 
L 315.176356 167.918754 
L 315.726872 167.626623 
L 315.826501 167.334491 
L 316.300998 167.042359 
L 316.59133 166.458096 
L 316.96433 166.019898 
L 317.901845 165.5817 
L 318.008717 164.997437 
L 318.163482 164.705305 
L 318.440564 163.974975 
L 319.101545 163.828909 
L 319.591584 162.222185 
L 319.608126 161.930053 
L 320.0423 161.491855 
L 320.505378 160.469394 
L 320.84061 160.177262 
L 320.920058 160.031196 
L 321.166324 159.88513 
L 321.280618 159.300867 
L 321.777099 158.570537 
L 321.87161 158.278405 
L 321.974619 157.986274 
L 322.058304 157.40201 
L 322.893641 155.941351 
L 322.911184 155.795285 
L 323.151268 155.503153 
L 323.154561 155.357088 
L 323.313163 155.064956 
L 323.495616 154.772824 
L 323.794604 153.458231 
L 323.946038 153.312165 
L 324.384509 153.020033 
L 324.955762 152.581836 
L 325.176369 151.559374 
L 325.387494 151.267243 
L 325.548578 150.975111 
L 326.053727 149.22232 
L 326.376239 148.345925 
L 327.306856 147.469529 
L 327.728591 147.323463 
L 327.822994 146.885266 
L 328.300312 146.7392 
L 329.097051 144.986409 
L 329.690803 144.25608 
L 329.71122 144.110014 
L 330.225675 143.671816 
L 330.645767 142.941487 
L 330.756497 142.357223 
L 331.47256 141.188696 
L 331.47556 141.04263 
L 331.650623 140.750498 
L 331.905199 139.435905 
L 331.96999 139.143773 
L 332.206608 138.705576 
L 332.298075 138.413444 
L 332.540367 137.975246 
L 332.749707 137.244917 
L 332.92988 136.952785 
L 333.099494 136.222455 
L 333.487516 135.638192 
L 333.56327 135.199994 
L 333.707428 134.907862 
L 333.779797 134.469665 
L 334.014135 133.593269 
L 334.199942 132.86294 
L 334.380434 132.570808 
L 334.382696 132.424742 
L 334.634069 132.13261 
L 334.991766 131.256215 
L 335.154177 130.964083 
L 335.30342 130.525886 
L 335.464495 130.233754 
L 335.582778 129.795556 
L 335.925116 129.357358 
L 336.136055 128.480963 
L 336.342048 128.188831 
L 336.503639 127.458502 
L 336.774455 127.020304 
L 336.899388 126.582106 
L 337.069254 126.289975 
L 337.164008 125.851777 
L 337.458224 125.413579 
L 338.159597 123.222591 
L 338.317819 122.784393 
L 338.446012 122.492261 
L 338.553236 122.054064 
L 339.790914 120.301273 
L 340.101551 120.155207 
L 340.109601 120.009141 
L 340.250347 119.717009 
L 340.423782 118.840614 
L 340.448767 118.694548 
L 340.682699 118.548482 
L 340.780518 117.964219 
L 340.888419 117.672087 
L 340.910415 117.526021 
L 341.105299 117.233889 
L 341.399977 115.77323 
L 341.722763 115.188967 
L 341.962859 114.166505 
L 342.21476 113.874374 
L 342.364527 113.144044 
L 342.550634 112.705847 
L 343.227349 110.660924 
L 343.535968 110.222726 
L 343.667568 109.784529 
L 343.765951 109.200265 
L 343.905906 108.177804 
L 344.148843 107.59354 
L 344.514444 107.447474 
L 345.395501 105.694684 
L 345.584682 105.402552 
L 345.85023 104.964354 
L 346.034586 104.672222 
L 346.139752 104.234025 
L 346.242284 103.941893 
L 346.328507 103.503695 
L 346.494778 103.211563 
L 346.657754 102.189102 
L 346.778671 101.89697 
L 346.896819 101.604839 
L 346.955749 101.312707 
L 347.632773 100.582377 
L 347.768535 99.41385 
L 347.892371 98.975652 
L 348.149636 97.953191 
L 348.318977 97.661059 
L 348.53026 97.368928 
L 348.719711 97.076796 
L 348.869954 96.054335 
L 349.902226 94.885807 
L 350.005003 94.155478 
L 350.340682 93.863346 
L 350.468197 93.571214 
L 350.608632 93.279083 
L 350.87084 92.986951 
L 351.011004 92.402687 
L 351.151318 91.818424 
L 351.358783 91.526292 
L 351.464213 91.23416 
L 351.993651 90.211699 
L 352.17215 89.919567 
L 352.550257 89.189238 
L 352.660406 88.458908 
L 352.749097 88.02071 
L 352.988264 86.998249 
L 353.263758 86.26792 
L 353.277233 85.975788 
L 353.553556 85.683656 
L 354.107525 83.200536 
L 354.774815 82.762338 
L 354.854402 82.178075 
L 355.053751 81.885943 
L 355.262163 81.009547 
L 355.389345 80.717416 
L 355.590712 80.133152 
L 356.06906 77.942164 
L 356.276307 77.3579 
L 356.459777 76.627571 
L 356.700339 75.897241 
L 357.01002 74.728714 
L 357.30949 74.582648 
L 357.324088 74.290516 
L 357.609477 74.14445 
L 357.611242 73.998385 
L 357.765231 73.706253 
L 357.943088 73.414121 
L 358.758885 72.683792 
L 359.134648 71.077067 
L 359.2264 70.492803 
L 359.660098 69.90854 
L 360.451636 68.155749 
L 361.002731 65.96476 
L 361.690857 63.627706 
L 361.81796 62.751311 
L 362.041575 62.459179 
L 362.091465 62.020981 
L 362.22839 61.874915 
L 362.691767 61.582784 
L 362.834418 61.436718 
L 363.208303 61.144586 
L 363.285827 60.852454 
L 363.55574 60.414256 
L 363.624965 59.976059 
L 363.810877 59.683927 
L 363.883426 59.245729 
L 364.191439 57.78507 
L 364.37193 57.492939 
L 364.975258 55.886214 
L 365.236433 55.594082 
L 365.709283 54.717687 
L 365.766807 54.279489 
L 366.11143 53.987357 
L 366.559364 52.81883 
L 366.850204 52.234566 
L 367.043107 51.504237 
L 367.137198 51.212105 
L 367.321652 50.773907 
L 367.50854 50.043578 
L 369.152202 45.953733 
L 369.439006 45.807667 
L 369.475022 45.661601 
L 369.83953 45.515535 
L 369.961369 44.931272 
L 370.422219 44.63914 
L 371.479781 43.90881 
L 371.90579 43.324547 
L 372.114936 42.886349 
L 372.180594 42.594217 
L 372.615863 42.448151 
L 372.829802 42.009954 
L 373.206952 41.863888 
L 373.220816 41.717822 
L 373.617459 41.42569 
L 374.15534 41.133558 
L 374.231228 40.695361 
L 374.477341 40.403229 
L 374.50548 40.257163 
L 374.941328 39.965031 
L 374.948107 39.818965 
L 375.474278 39.672899 
L 375.569484 39.526834 
L 377.049326 38.94257 
L 377.258018 38.504372 
L 377.694258 38.358306 
L 377.705088 38.212241 
L 379.461401 36.605516 
L 380.609626 36.45945 
L 380.729278 36.313384 
L 383.093812 35.875186 
L 383.991716 35.436989 
L 385.594338 35.144857 
L 386.856815 34.852725 
L 387.029908 34.706659 
L 389.007404 34.414527 
L 389.296238 34.122395 
L 389.622866 33.97633 
L 391.187193 33.830264 
L 391.403036 33.684198 
L 393.901085 33.392066 
L 394.186633 33.099934 
L 399.069507 32.953868 
L 399.843559 32.807802 
L 399.843559 32.807802 
" style="fill:none;stroke:#66b4d3;stroke-linecap:round;stroke-width:1.5;"/>
   </g>
   <g id="line2d_33">
    <path clip-path="url(#p47c94e282a)" d="M 294.819143 178.727631 
L 296.224112 178.581565 
L 302.589473 178.289433 
L 307.843606 177.705169 
L 313.127124 177.413038 
L 314.843658 177.120906 
L 315.017099 176.828774 
L 316.025594 176.536642 
L 316.808294 176.24451 
L 318.327082 176.098445 
L 318.365148 175.952379 
L 318.860307 175.806313 
L 318.995869 175.514181 
L 320.295492 175.368115 
L 320.490364 175.222049 
L 322.068108 174.929917 
L 322.249256 174.637786 
L 322.524462 174.345654 
L 322.903416 174.199588 
L 322.921137 174.053522 
L 323.216546 173.76139 
L 323.531213 173.323193 
L 323.947461 173.177127 
L 324.001798 172.884995 
L 324.773884 172.738929 
L 324.806457 172.592863 
L 325.117107 172.300731 
L 325.137615 172.0086 
L 325.432123 171.862534 
L 325.434397 171.716468 
L 326.019499 171.424336 
L 326.021462 171.27827 
L 326.381243 171.132204 
L 326.633458 170.401875 
L 327.193843 170.109743 
L 327.254759 169.671545 
L 327.919588 169.525479 
L 328.122753 169.087282 
L 328.236962 168.79515 
L 328.248591 168.649084 
L 328.554731 168.503018 
L 328.581643 168.356952 
L 329.031923 168.06482 
L 329.329552 167.480557 
L 329.831176 167.188425 
L 329.913957 166.896293 
L 330.226095 166.604161 
L 330.555549 165.727766 
L 331.135075 165.435634 
L 331.753761 163.974975 
L 332.027672 163.682844 
L 332.205836 163.390712 
L 332.236473 163.09858 
L 332.564227 162.806448 
L 332.56463 162.660382 
L 332.763412 162.36825 
L 332.824148 162.222185 
L 333.207361 161.930053 
L 333.240122 161.783987 
L 333.865696 161.345789 
L 333.923556 161.199723 
L 334.20008 161.053657 
L 334.209989 160.761526 
L 334.390551 160.469394 
L 334.656899 159.739064 
L 334.863781 159.446933 
L 335.073547 159.154801 
L 335.991084 157.548076 
L 336.02359 157.40201 
L 336.197504 157.109878 
L 336.588568 156.379549 
L 336.714027 156.087417 
L 337.493605 154.480692 
L 338.219357 153.166099 
L 338.751176 152.43577 
L 339.162648 151.559374 
L 339.327521 151.121177 
L 339.474276 150.829045 
L 339.751425 150.098715 
L 340.134117 148.930188 
L 340.453449 148.053793 
L 340.697691 147.615595 
L 340.810213 147.031332 
L 341.220403 146.00887 
L 341.385704 145.716739 
L 341.534215 145.132475 
L 341.790883 144.840343 
L 342.282773 143.671816 
L 342.306468 143.52575 
L 342.650227 143.233618 
L 343.579398 141.188696 
L 343.703638 140.750498 
L 343.9484 140.604432 
L 343.954151 140.458366 
L 344.275253 140.3123 
L 344.446737 139.143773 
L 344.675004 138.705576 
L 344.714124 138.413444 
L 344.97231 138.121312 
L 344.9747 137.975246 
L 345.23005 137.683114 
L 345.285154 137.537049 
L 345.627085 137.244917 
L 345.743645 136.806719 
L 345.817408 136.368521 
L 345.948091 136.07639 
L 346.184782 135.638192 
L 346.47074 135.199994 
L 346.555735 134.907862 
L 346.620045 134.323599 
L 346.88407 134.177533 
L 347.033293 133.593269 
L 347.438561 132.86294 
L 347.706842 131.986545 
L 348.084934 131.694413 
L 348.881392 130.525886 
L 349.161041 129.357358 
L 349.287388 128.919161 
L 349.357801 128.334897 
L 349.43234 127.604568 
L 349.62057 127.020304 
L 349.714009 126.436041 
L 350.09053 125.413579 
L 350.134573 125.121448 
L 350.346489 124.975382 
L 350.356374 124.829316 
L 350.74289 124.391118 
L 351.028842 123.514723 
L 351.077163 123.076525 
L 351.305794 122.930459 
L 351.445416 122.20013 
L 351.944673 121.323734 
L 351.974785 121.177668 
L 352.270646 121.031602 
L 352.483425 120.155207 
L 352.657546 119.863075 
L 352.66294 119.717009 
L 352.918239 119.570944 
L 353.12199 118.98668 
L 353.319452 118.694548 
L 353.3645 118.25635 
L 353.553808 117.964219 
L 353.569096 117.818153 
L 353.991239 117.379955 
L 354.292921 116.211428 
L 354.465094 115.77323 
L 354.4727 115.627164 
L 354.678045 115.335033 
L 356.941516 106.717145 
L 357.106136 106.425013 
L 358.819572 100.874509 
L 359.036277 100.582377 
L 359.107161 100.14418 
L 359.396555 99.705982 
L 359.397918 99.41385 
L 359.653964 99.121718 
L 359.714934 98.391389 
L 359.865273 98.099257 
L 359.926131 97.661059 
L 360.304073 97.368928 
L 360.635972 95.908269 
L 360.954328 95.177939 
L 361.044583 94.885807 
L 361.249838 94.155478 
L 361.356268 93.279083 
L 362.762655 91.23416 
L 362.855953 90.795962 
L 362.958076 90.211699 
L 363.024926 89.919567 
L 363.283849 89.627435 
L 363.467336 89.189238 
L 363.55179 88.897106 
L 363.623691 88.458908 
L 363.962894 88.166776 
L 364.093055 87.290381 
L 364.168302 86.998249 
L 364.278325 86.706117 
L 364.378294 86.413986 
L 364.729877 85.975788 
L 364.914041 85.53759 
L 365.097392 84.369063 
L 365.184754 84.076931 
L 365.198727 83.930865 
L 365.429124 83.638734 
L 365.54892 82.908404 
L 365.732468 82.616272 
L 365.874097 81.447745 
L 366.287424 80.717416 
L 366.55044 80.279218 
L 366.58823 79.987086 
L 366.813373 79.694954 
L 367.846649 77.503966 
L 368.281995 75.897241 
L 368.434652 75.605109 
L 368.641964 74.436582 
L 369.40394 73.706253 
L 369.588407 72.975923 
L 370.029828 72.683792 
L 370.345633 71.66133 
L 370.437174 71.077067 
L 371.015066 70.638869 
L 371.16526 70.054605 
L 371.419254 69.17821 
L 371.783748 68.155749 
L 371.881043 67.717551 
L 372.086796 67.133288 
L 372.190229 66.69509 
L 372.259961 66.402958 
L 372.394491 65.96476 
L 372.659083 65.234431 
L 372.756285 64.650167 
L 372.947497 64.504101 
L 372.950467 64.358036 
L 373.241603 64.21197 
L 373.355988 63.48164 
L 373.391592 63.043443 
L 373.853342 62.897377 
L 374.013315 62.313113 
L 374.28506 62.167047 
L 374.543074 61.436718 
L 374.641032 61.144586 
L 374.852019 60.268191 
L 375.161873 59.829993 
L 375.313568 59.391795 
L 375.599898 58.369334 
L 375.97616 57.639004 
L 376.163771 56.908675 
L 376.297195 56.03228 
L 376.545717 55.448016 
L 376.740707 55.155884 
L 377.060261 54.279489 
L 377.274273 53.987357 
L 377.391574 53.549159 
L 377.913866 52.380632 
L 378.231465 51.942435 
L 378.277467 51.650303 
L 378.593549 51.212105 
L 378.650381 50.919973 
L 379.080926 50.627842 
L 379.531623 49.60538 
L 379.700386 49.167183 
L 380.155942 49.021117 
L 380.284876 48.582919 
L 380.501253 47.706524 
L 380.601824 47.268326 
L 380.722817 46.976194 
L 380.821168 46.684062 
L 381.152886 46.245865 
L 381.163093 46.099799 
L 381.423455 45.807667 
L 381.634956 45.077338 
L 381.934614 44.054876 
L 382.536615 43.762744 
L 382.602989 43.324547 
L 383.859913 41.717822 
L 383.891004 41.571756 
L 384.605581 40.841427 
L 384.618902 40.695361 
L 385.092327 40.111097 
L 385.249537 39.672899 
L 386.151706 38.358306 
L 386.514759 38.212241 
L 386.519888 38.066175 
L 386.820408 37.920109 
L 386.971878 37.627977 
L 387.453996 37.335845 
L 387.995524 37.043713 
L 388.035572 36.897647 
L 388.384965 36.751582 
L 388.446223 36.605516 
L 388.729018 36.45945 
L 388.843859 36.167318 
L 389.18457 36.021252 
L 390.458381 35.875186 
L 391.330467 35.290923 
L 393.230575 34.852725 
L 393.60353 34.706659 
L 393.604067 34.560593 
L 393.985625 34.414527 
L 394.80657 34.268461 
L 397.332694 33.97633 
L 397.588887 33.830264 
L 399.221563 33.684198 
L 399.515148 33.538132 
L 406.609058 32.953868 
L 410.034247 32.807802 
L 410.034247 32.807802 
" style="fill:none;stroke:#00709b;stroke-linecap:round;stroke-width:1.5;"/>
   </g>
   <g id="patch_3">
    <path d="M 67.322835 186.023622 
L 67.322835 25.511811 
" style="fill:none;stroke:#cccccc;stroke-linecap:square;stroke-linejoin:miter;"/>
   </g>
   <g id="patch_4">
    <path d="M 484.724409 186.023622 
L 484.724409 25.511811 
" style="fill:none;stroke:#cccccc;stroke-linecap:square;stroke-linejoin:miter;"/>
   </g>
   <g id="patch_5">
    <path d="M 67.322835 186.023622 
L 484.724409 186.023622 
" style="fill:none;stroke:#cccccc;stroke-linecap:square;stroke-linejoin:miter;"/>
   </g>
   <g id="patch_6">
    <path d="M 67.322835 25.511811 
L 484.724409 25.511811 
" style="fill:none;stroke:#cccccc;stroke-linecap:square;stroke-linejoin:miter;"/>
   </g>
   <g id="legend_1">
    <g id="line2d_34">
     <path d="M 493.724409 38.169624 
L 513.724409 38.169624 
" style="fill:none;stroke:#be1e3c;stroke-linecap:round;stroke-width:1.5;"/>
    </g>
    <g id="line2d_35"/>
    <g id="text_15">
     <text style="fill:#262626;font-family:Arial;font-size:10px;font-style:normal;font-weight:400;text-anchor:start;" transform="rotate(-0, 521.724409, 41.669624)" x="521.724409" y="41.669624">Order 1</text>
    </g>
    <g id="line2d_36">
     <path d="M 493.724409 52.314936 
L 513.724409 52.314936 
" style="fill:none;stroke:#ffc82a;stroke-linecap:round;stroke-width:1.5;"/>
    </g>
    <g id="line2d_37"/>
    <g id="text_16">
     <text style="fill:#262626;font-family:Arial;font-size:10px;font-style:normal;font-weight:400;text-anchor:start;" transform="rotate(-0, 521.724409, 55.814936)" x="521.724409" y="55.814936">Order 2</text>
    </g>
    <g id="line2d_38">
     <path d="M 493.724409 66.460249 
L 513.724409 66.460249 
" style="fill:none;stroke:#e16d00;stroke-linecap:round;stroke-width:1.5;"/>
    </g>
    <g id="line2d_39"/>
    <g id="text_17">
     <text style="fill:#262626;font-family:Arial;font-size:10px;font-style:normal;font-weight:400;text-anchor:start;" transform="rotate(-0, 521.724409, 69.960249)" x="521.724409" y="69.960249">Order 3</text>
    </g>
    <g id="line2d_40">
     <path d="M 493.724409 80.605561 
L 513.724409 80.605561 
" style="fill:none;stroke:#711c2f;stroke-linecap:round;stroke-width:1.5;"/>
    </g>
    <g id="line2d_41"/>
    <g id="text_18">
     <text style="fill:#262626;font-family:Arial;font-size:10px;font-style:normal;font-weight:400;text-anchor:start;" transform="rotate(-0, 521.724409, 84.105561)" x="521.724409" y="84.105561">Order 4</text>
    </g>
    <g id="line2d_42">
     <path d="M 493.724409 94.750874 
L 513.724409 94.750874 
" style="fill:none;stroke:#acc13a;stroke-linecap:round;stroke-width:1.5;"/>
    </g>
    <g id="line2d_43"/>
    <g id="text_19">
     <text style="fill:#262626;font-family:Arial;font-size:10px;font-style:normal;font-weight:400;text-anchor:start;" transform="rotate(-0, 521.724409, 98.250874)" x="521.724409" y="98.250874">Order 5</text>
    </g>
    <g id="line2d_44">
     <path d="M 493.724409 108.896186 
L 513.724409 108.896186 
" style="fill:none;stroke:#6d8300;stroke-linecap:round;stroke-width:1.5;"/>
    </g>
    <g id="line2d_45"/>
    <g id="text_20">
     <text style="fill:#262626;font-family:Arial;font-size:10px;font-style:normal;font-weight:400;text-anchor:start;" transform="rotate(-0, 521.724409, 112.396186)" x="521.724409" y="112.396186">Order 6</text>
    </g>
    <g id="line2d_46">
     <path d="M 493.724409 123.041499 
L 513.724409 123.041499 
" style="fill:none;stroke:#00534a;stroke-linecap:round;stroke-width:1.5;"/>
    </g>
    <g id="line2d_47"/>
    <g id="text_21">
     <text style="fill:#262626;font-family:Arial;font-size:10px;font-style:normal;font-weight:400;text-anchor:start;" transform="rotate(-0, 521.724409, 126.541499)" x="521.724409" y="126.541499">Order 7</text>
    </g>
    <g id="line2d_48">
     <path d="M 493.724409 137.186811 
L 513.724409 137.186811 
" style="fill:none;stroke:#66b4d3;stroke-linecap:round;stroke-width:1.5;"/>
    </g>
    <g id="line2d_49"/>
    <g id="text_22">
     <text style="fill:#262626;font-family:Arial;font-size:10px;font-style:normal;font-weight:400;text-anchor:start;" transform="rotate(-0, 521.724409, 140.686811)" x="521.724409" y="140.686811">Order 8</text>
    </g>
    <g id="line2d_50">
     <path d="M 493.724409 151.332124 
L 513.724409 151.332124 
" style="fill:none;stroke:#00709b;stroke-linecap:round;stroke-width:1.5;"/>
    </g>
    <g id="line2d_51"/>
    <g id="text_23">
     <text style="fill:#262626;font-family:Arial;font-size:10px;font-style:normal;font-weight:400;text-anchor:start;" transform="rotate(-0, 521.724409, 154.832124)" x="521.724409" y="154.832124">Order 9</text>
    </g>
   </g>
  </g>
 </g>
 <defs>
  <clipPath id="p47c94e282a">
   <rect height="160.511811" width="417.401575" x="67.322835" y="25.511811"/>
  </clipPath>
 </defs>
</svg>
