<?xml version="1.0" encoding="utf-8" standalone="no"?>
<!DOCTYPE svg PUBLIC "-//W3C//DTD SVG 1.1//EN"
  "http://www.w3.org/Graphics/SVG/1.1/DTD/svg11.dtd">
<!-- Created with matplotlib (http://matplotlib.org/) -->
<svg height="425pt" version="1.1" viewBox="0 0 538 425" width="538pt" xmlns="http://www.w3.org/2000/svg" xmlns:xlink="http://www.w3.org/1999/xlink">
 <defs>
  <style type="text/css">
*{stroke-linecap:butt;stroke-linejoin:round;}
  </style>
 </defs>
 <g id="figure_1">
  <g id="patch_1">
   <path d="M 0 425.19685 
L 538.582677 425.19685 
L 538.582677 0 
L 0 0 
z
" style="fill:#ffffff;"/>
  </g>
  <g id="axes_1">
   <g id="patch_2">
    <path d="M 67.322835 196.94345 
L 484.724409 196.94345 
L 484.724409 51.023622 
L 67.322835 51.023622 
z
" style="fill:#ffffff;"/>
   </g>
   <g id="matplotlib.axis_1">
    <g id="xtick_1">
     <g id="line2d_1">
      <path clip-path="url(#pd53221077d)" d="M 90.424235 196.94345 
L 90.424235 51.023622 
" style="fill:none;stroke:#cccccc;stroke-linecap:round;stroke-width:0.8;"/>
     </g>
     <g id="line2d_2"/>
    </g>
    <g id="xtick_2">
     <g id="line2d_3">
      <path clip-path="url(#pd53221077d)" d="M 173.830318 196.94345 
L 173.830318 51.023622 
" style="fill:none;stroke:#cccccc;stroke-linecap:round;stroke-width:0.8;"/>
     </g>
     <g id="line2d_4"/>
    </g>
    <g id="xtick_3">
     <g id="line2d_5">
      <path clip-path="url(#pd53221077d)" d="M 257.236402 196.94345 
L 257.236402 51.023622 
" style="fill:none;stroke:#cccccc;stroke-linecap:round;stroke-width:0.8;"/>
     </g>
     <g id="line2d_6"/>
    </g>
    <g id="xtick_4">
     <g id="line2d_7">
      <path clip-path="url(#pd53221077d)" d="M 340.642485 196.94345 
L 340.642485 51.023622 
" style="fill:none;stroke:#cccccc;stroke-linecap:round;stroke-width:0.8;"/>
     </g>
     <g id="line2d_8"/>
    </g>
    <g id="xtick_5">
     <g id="line2d_9">
      <path clip-path="url(#pd53221077d)" d="M 424.048569 196.94345 
L 424.048569 51.023622 
" style="fill:none;stroke:#cccccc;stroke-linecap:round;stroke-width:0.8;"/>
     </g>
     <g id="line2d_10"/>
    </g>
   </g>
   <g id="matplotlib.axis_2">
    <g id="ytick_1">
     <g id="line2d_11">
      <path clip-path="url(#pd53221077d)" d="M 67.322835 181.734561 
L 484.724409 181.734561 
" style="fill:none;stroke:#cccccc;stroke-linecap:round;stroke-width:0.8;"/>
     </g>
     <g id="line2d_12"/>
     <g id="text_1">
      <text style="fill:#262626;font-family:Arial;font-size:10px;font-style:normal;font-weight:400;text-anchor:end;" transform="rotate(-0, 63.822835, 185.313468)" x="63.822835" y="185.313468">274.5</text>
     </g>
    </g>
    <g id="ytick_2">
     <g id="line2d_13">
      <path clip-path="url(#pd53221077d)" d="M 67.322835 140.445191 
L 484.724409 140.445191 
" style="fill:none;stroke:#cccccc;stroke-linecap:round;stroke-width:0.8;"/>
     </g>
     <g id="line2d_14"/>
     <g id="text_2">
      <text style="fill:#262626;font-family:Arial;font-size:10px;font-style:normal;font-weight:400;text-anchor:end;" transform="rotate(-0, 63.822835, 144.024097)" x="63.822835" y="144.024097">275.0</text>
     </g>
    </g>
    <g id="ytick_3">
     <g id="line2d_15">
      <path clip-path="url(#pd53221077d)" d="M 67.322835 99.155821 
L 484.724409 99.155821 
" style="fill:none;stroke:#cccccc;stroke-linecap:round;stroke-width:0.8;"/>
     </g>
     <g id="line2d_16"/>
     <g id="text_3">
      <text style="fill:#262626;font-family:Arial;font-size:10px;font-style:normal;font-weight:400;text-anchor:end;" transform="rotate(-0, 63.822835, 102.734727)" x="63.822835" y="102.734727">275.5</text>
     </g>
    </g>
    <g id="ytick_4">
     <g id="line2d_17">
      <path clip-path="url(#pd53221077d)" d="M 67.322835 57.86645 
L 484.724409 57.86645 
" style="fill:none;stroke:#cccccc;stroke-linecap:round;stroke-width:0.8;"/>
     </g>
     <g id="line2d_18"/>
     <g id="text_4">
      <text style="fill:#262626;font-family:Arial;font-size:10px;font-style:normal;font-weight:400;text-anchor:end;" transform="rotate(-0, 63.822835, 61.445356)" x="63.822835" y="61.445356">276.0</text>
     </g>
    </g>
    <g id="text_5">
     <text style="fill:#262626;font-family:Arial;font-size:10px;font-style:normal;font-weight:400;text-anchor:middle;" transform="rotate(-90, 32.81346, 123.983536)" x="32.81346" y="123.983536">Temperature [K]</text>
    </g>
   </g>
   <g id="line2d_19">
    <path clip-path="url(#pd53221077d)" d="M 86.295634 140.41837 
L 90.507641 140.588398 
L 90.716156 141.230606 
L 91.04978 143.176955 
L 91.508514 147.373025 
L 92.175762 156.001468 
L 93.802181 177.758417 
L 94.511133 184.225363 
L 95.094975 187.685243 
L 95.595412 189.466359 
L 95.970739 190.15697 
L 96.26266 190.310731 
L 96.512879 190.185023 
L 96.8048 189.762334 
L 97.22183 188.714277 
L 97.805673 186.576926 
L 98.806546 181.891592 
L 101.975977 166.612426 
L 103.393881 160.99662 
L 104.519863 157.394049 
L 105.562439 154.772767 
L 106.605015 152.750275 
L 107.689294 151.134852 
L 108.898682 149.729966 
L 110.483398 148.248199 
L 112.735362 146.467142 
L 115.154138 144.82283 
L 117.23929 143.666257 
L 119.28274 142.78985 
L 121.451298 142.106309 
L 123.995183 141.546719 
L 127.122911 141.0951 
L 131.0847 140.756075 
L 136.297581 140.546643 
L 144.721595 140.461337 
L 200.436859 140.445967 
L 257.48662 140.352558 
L 257.778541 139.972585 
L 258.153869 139.029847 
L 258.612602 137.151253 
L 259.196445 133.676699 
L 259.988802 127.449092 
L 261.365003 114.52912 
L 263.24164 97.336521 
L 264.367622 89.029873 
L 265.368495 83.206508 
L 266.327665 78.857503 
L 267.328538 75.335597 
L 268.371114 72.466433 
L 269.538799 69.905402 
L 270.873296 67.526916 
L 272.583121 64.978408 
L 274.876788 61.997398 
L 276.378098 60.370609 
L 277.629189 59.326573 
L 278.838577 58.603678 
L 280.089669 58.12143 
L 281.465869 57.833603 
L 283.2591 57.699607 
L 287.054077 57.707897 
L 334.428732 57.87469 
L 430.804462 57.866548 
L 465.751611 57.866475 
L 465.751611 57.866475 
" style="fill:none;stroke:#be1e3c;stroke-linecap:round;stroke-width:1.5;"/>
   </g>
   <g id="line2d_20">
    <path clip-path="url(#pd53221077d)" d="M 86.295634 140.432473 
L 90.507641 140.499193 
L 90.757859 141.023232 
L 91.299999 142.782737 
L 92.217465 146.622424 
L 92.926417 149.134318 
L 93.385151 150.074928 
L 93.760478 150.432222 
L 94.094102 150.481007 
L 94.46943 150.292047 
L 94.969866 149.746418 
L 95.762224 148.494321 
L 97.930782 144.94454 
L 98.973358 143.720025 
L 100.015934 142.82745 
L 101.183619 142.125628 
L 102.55982 141.569136 
L 104.269645 141.127634 
L 106.521609 140.790591 
L 109.607634 140.570111 
L 114.737108 140.456983 
L 129.541688 140.441594 
L 257.278105 140.433955 
L 257.444917 140.202194 
L 257.736838 139.2432 
L 258.112166 137.123277 
L 258.612602 132.822984 
L 259.363257 124.006788 
L 261.531815 97.447914 
L 262.574391 87.801426 
L 263.575264 80.585217 
L 264.576137 74.980419 
L 265.57701 70.622361 
L 266.619586 67.040299 
L 267.662162 64.27626 
L 268.704738 62.129821 
L 269.663908 60.64111 
L 270.623078 59.559102 
L 271.582248 58.808517 
L 272.624824 58.277761 
L 273.834212 57.921641 
L 275.377225 57.7157 
L 277.670892 57.65765 
L 285.844688 57.828515 
L 297.855164 57.88599 
L 465.751611 57.86645 
L 465.751611 57.86645 
" style="fill:none;stroke:#00709b;stroke-linecap:round;stroke-width:1.5;"/>
   </g>
   <g id="patch_3">
    <path d="M 67.322835 196.94345 
L 67.322835 51.023622 
" style="fill:none;stroke:#cccccc;stroke-linecap:square;stroke-linejoin:miter;"/>
   </g>
   <g id="patch_4">
    <path d="M 484.724409 196.94345 
L 484.724409 51.023622 
" style="fill:none;stroke:#cccccc;stroke-linecap:square;stroke-linejoin:miter;"/>
   </g>
   <g id="patch_5">
    <path d="M 67.322835 196.94345 
L 484.724409 196.94345 
" style="fill:none;stroke:#cccccc;stroke-linecap:square;stroke-linejoin:miter;"/>
   </g>
   <g id="patch_6">
    <path d="M 67.322835 51.023622 
L 484.724409 51.023622 
" style="fill:none;stroke:#cccccc;stroke-linecap:square;stroke-linejoin:miter;"/>
   </g>
   <g id="text_6">
    <text style="fill:#262626;font-family:Arial;font-size:12px;font-style:normal;font-weight:400;text-anchor:start;" transform="rotate(-0, 67.322835, 45.023622)" x="67.322835" y="45.023622">T_{amb}=272 K, Q_C = -65000 W</text>
   </g>
   <g id="legend_1">
    <g id="line2d_21">
     <path d="M 351.572847 168.310638 
L 371.572847 168.310638 
" style="fill:none;stroke:#be1e3c;stroke-linecap:round;stroke-width:1.5;"/>
    </g>
    <g id="line2d_22"/>
    <g id="text_7">
     <text style="fill:#262626;font-family:Arial;font-size:10px;font-style:normal;font-weight:400;text-anchor:start;" transform="rotate(-0, 379.572847, 171.810638)" x="379.572847" y="171.810638">Decentralized Control</text>
    </g>
    <g id="line2d_23">
     <path d="M 351.572847 182.45595 
L 371.572847 182.45595 
" style="fill:none;stroke:#00709b;stroke-linecap:round;stroke-width:1.5;"/>
    </g>
    <g id="line2d_24"/>
    <g id="text_8">
     <text style="fill:#262626;font-family:Arial;font-size:10px;font-style:normal;font-weight:400;text-anchor:start;" transform="rotate(-0, 379.572847, 185.95595)" x="379.572847" y="185.95595">R2D2</text>
    </g>
   </g>
  </g>
  <g id="axes_2">
   <g id="patch_7">
    <path d="M 67.322835 372.047244 
L 484.724409 372.047244 
L 484.724409 226.127416 
L 67.322835 226.127416 
z
" style="fill:#ffffff;"/>
   </g>
   <g id="matplotlib.axis_3">
    <g id="xtick_6">
     <g id="line2d_25">
      <path clip-path="url(#p444d283490)" d="M 90.424235 372.047244 
L 90.424235 226.127416 
" style="fill:none;stroke:#cccccc;stroke-linecap:round;stroke-width:0.8;"/>
     </g>
     <g id="line2d_26"/>
     <g id="text_9">
      <text style="fill:#262626;font-family:Arial;font-size:10px;font-style:normal;font-weight:400;text-anchor:middle;" transform="rotate(-0, 90.424235, 382.705057)" x="90.424235" y="382.705057">6000</text>
     </g>
    </g>
    <g id="xtick_7">
     <g id="line2d_27">
      <path clip-path="url(#p444d283490)" d="M 173.830318 372.047244 
L 173.830318 226.127416 
" style="fill:none;stroke:#cccccc;stroke-linecap:round;stroke-width:0.8;"/>
     </g>
     <g id="line2d_28"/>
     <g id="text_10">
      <text style="fill:#262626;font-family:Arial;font-size:10px;font-style:normal;font-weight:400;text-anchor:middle;" transform="rotate(-0, 173.830318, 382.705057)" x="173.830318" y="382.705057">8000</text>
     </g>
    </g>
    <g id="xtick_8">
     <g id="line2d_29">
      <path clip-path="url(#p444d283490)" d="M 257.236402 372.047244 
L 257.236402 226.127416 
" style="fill:none;stroke:#cccccc;stroke-linecap:round;stroke-width:0.8;"/>
     </g>
     <g id="line2d_30"/>
     <g id="text_11">
      <text style="fill:#262626;font-family:Arial;font-size:10px;font-style:normal;font-weight:400;text-anchor:middle;" transform="rotate(-0, 257.236402, 382.705057)" x="257.236402" y="382.705057">10000</text>
     </g>
    </g>
    <g id="xtick_9">
     <g id="line2d_31">
      <path clip-path="url(#p444d283490)" d="M 340.642485 372.047244 
L 340.642485 226.127416 
" style="fill:none;stroke:#cccccc;stroke-linecap:round;stroke-width:0.8;"/>
     </g>
     <g id="line2d_32"/>
     <g id="text_12">
      <text style="fill:#262626;font-family:Arial;font-size:10px;font-style:normal;font-weight:400;text-anchor:middle;" transform="rotate(-0, 340.642485, 382.705057)" x="340.642485" y="382.705057">12000</text>
     </g>
    </g>
    <g id="xtick_10">
     <g id="line2d_33">
      <path clip-path="url(#p444d283490)" d="M 424.048569 372.047244 
L 424.048569 226.127416 
" style="fill:none;stroke:#cccccc;stroke-linecap:round;stroke-width:0.8;"/>
     </g>
     <g id="line2d_34"/>
     <g id="text_13">
      <text style="fill:#262626;font-family:Arial;font-size:10px;font-style:normal;font-weight:400;text-anchor:middle;" transform="rotate(-0, 424.048569, 382.705057)" x="424.048569" y="382.705057">14000</text>
     </g>
    </g>
    <g id="text_14">
     <text style="fill:#262626;font-family:Arial;font-size:10px;font-style:normal;font-weight:400;text-anchor:middle;" transform="rotate(-0, 276.023622, 395.850369)" x="276.023622" y="395.850369">Time [s]</text>
    </g>
   </g>
   <g id="matplotlib.axis_4">
    <g id="ytick_5">
     <g id="line2d_35">
      <path clip-path="url(#p444d283490)" d="M 67.322835 365.320449 
L 484.724409 365.320449 
" style="fill:none;stroke:#cccccc;stroke-linecap:round;stroke-width:0.8;"/>
     </g>
     <g id="line2d_36"/>
     <g id="text_15">
      <text style="fill:#262626;font-family:Arial;font-size:10px;font-style:normal;font-weight:400;text-anchor:end;" transform="rotate(-0, 63.822835, 368.899355)" x="63.822835" y="368.899355">50.0</text>
     </g>
    </g>
    <g id="ytick_6">
     <g id="line2d_37">
      <path clip-path="url(#p444d283490)" d="M 67.322835 342.006981 
L 484.724409 342.006981 
" style="fill:none;stroke:#cccccc;stroke-linecap:round;stroke-width:0.8;"/>
     </g>
     <g id="line2d_38"/>
     <g id="text_16">
      <text style="fill:#262626;font-family:Arial;font-size:10px;font-style:normal;font-weight:400;text-anchor:end;" transform="rotate(-0, 63.822835, 345.585887)" x="63.822835" y="345.585887">50.2</text>
     </g>
    </g>
    <g id="ytick_7">
     <g id="line2d_39">
      <path clip-path="url(#p444d283490)" d="M 67.322835 318.693513 
L 484.724409 318.693513 
" style="fill:none;stroke:#cccccc;stroke-linecap:round;stroke-width:0.8;"/>
     </g>
     <g id="line2d_40"/>
     <g id="text_17">
      <text style="fill:#262626;font-family:Arial;font-size:10px;font-style:normal;font-weight:400;text-anchor:end;" transform="rotate(-0, 63.822835, 322.272419)" x="63.822835" y="322.272419">50.4</text>
     </g>
    </g>
    <g id="ytick_8">
     <g id="line2d_41">
      <path clip-path="url(#p444d283490)" d="M 67.322835 295.380045 
L 484.724409 295.380045 
" style="fill:none;stroke:#cccccc;stroke-linecap:round;stroke-width:0.8;"/>
     </g>
     <g id="line2d_42"/>
     <g id="text_18">
      <text style="fill:#262626;font-family:Arial;font-size:10px;font-style:normal;font-weight:400;text-anchor:end;" transform="rotate(-0, 63.822835, 298.958951)" x="63.822835" y="298.958951">50.6</text>
     </g>
    </g>
    <g id="ytick_9">
     <g id="line2d_43">
      <path clip-path="url(#p444d283490)" d="M 67.322835 272.066577 
L 484.724409 272.066577 
" style="fill:none;stroke:#cccccc;stroke-linecap:round;stroke-width:0.8;"/>
     </g>
     <g id="line2d_44"/>
     <g id="text_19">
      <text style="fill:#262626;font-family:Arial;font-size:10px;font-style:normal;font-weight:400;text-anchor:end;" transform="rotate(-0, 63.822835, 275.645483)" x="63.822835" y="275.645483">50.8</text>
     </g>
    </g>
    <g id="ytick_10">
     <g id="line2d_45">
      <path clip-path="url(#p444d283490)" d="M 67.322835 248.753109 
L 484.724409 248.753109 
" style="fill:none;stroke:#cccccc;stroke-linecap:round;stroke-width:0.8;"/>
     </g>
     <g id="line2d_46"/>
     <g id="text_20">
      <text style="fill:#262626;font-family:Arial;font-size:10px;font-style:normal;font-weight:400;text-anchor:end;" transform="rotate(-0, 63.822835, 252.332015)" x="63.822835" y="252.332015">51.0</text>
     </g>
    </g>
    <g id="text_21">
     <text style="fill:#262626;font-family:Arial;font-size:10px;font-style:normal;font-weight:400;text-anchor:middle;" transform="rotate(-90, 38.374397, 299.08733)" x="38.374397" y="299.08733">Pressure [bar]</text>
    </g>
   </g>
   <g id="line2d_47">
    <path clip-path="url(#p444d283490)" d="M 86.295634 365.414525 
L 90.465938 365.317164 
L 90.674453 364.408485 
L 90.924671 361.862195 
L 91.299999 355.093935 
L 91.925544 338.762892 
L 94.511133 267.005002 
L 95.261787 249.498372 
L 95.84563 240.609693 
L 96.346067 236.054034 
L 96.763097 234.016933 
L 97.096721 233.30685 
L 97.34694 233.205069 
L 97.597158 233.405159 
L 97.930782 234.044614 
L 98.431219 235.557921 
L 99.515498 239.02121 
L 100.849995 240.904484 
L 101.809165 242.87584 
L 103.644099 246.680565 
L 104.519863 247.990896 
L 105.312221 248.79926 
L 106.062875 249.254798 
L 106.81353 249.457596 
L 107.689294 249.456865 
L 108.898682 249.2093 
L 112.318332 248.399298 
L 114.069859 248.282104 
L 116.613745 248.365213 
L 122.660686 248.604237 
L 139.633824 248.737418 
L 173.03796 248.75456 
L 257.319808 248.6864 
L 257.48662 248.079205 
L 257.820244 245.662262 
L 259.071336 235.666625 
L 259.571772 233.661963 
L 259.947099 232.927524 
L 260.239021 232.760135 
L 260.489239 232.863425 
L 260.822863 233.303651 
L 261.281597 234.355426 
L 261.990548 236.627809 
L 264.117404 243.775944 
L 264.909761 245.579163 
L 265.618713 246.695408 
L 266.327665 247.405358 
L 267.036617 247.798081 
L 267.828974 247.975399 
L 268.913253 247.966411 
L 271.457139 247.655834 
L 272.583121 247.232222 
L 273.500588 247.115034 
L 274.543164 247.214784 
L 276.044474 247.61138 
L 279.339014 248.532094 
L 281.132245 248.757554 
L 283.342506 248.79159 
L 292.683987 248.686988 
L 302.525905 248.772634 
L 465.751611 248.753118 
L 465.751611 248.753118 
" style="fill:none;stroke:#be1e3c;stroke-linecap:round;stroke-width:1.5;"/>
   </g>
   <g id="line2d_48">
    <path clip-path="url(#p444d283490)" d="M 86.295634 365.297692 
L 90.465938 365.206796 
L 90.63275 363.75031 
L 90.882968 358.71185 
L 91.341702 343.413487 
L 93.009823 282.727937 
L 93.677072 267.98252 
L 94.260914 259.682645 
L 94.803054 254.947026 
L 95.303491 252.411808 
L 95.762224 251.154173 
L 96.179254 250.596037 
L 96.596285 250.386833 
L 97.138424 250.39633 
L 99.348686 250.71072 
L 100.432965 250.499204 
L 105.43733 249.232756 
L 108.106324 248.970863 
L 112.318332 248.805234 
L 120.65894 248.740956 
L 220.078992 248.75311 
L 257.403214 248.67888 
L 258.112166 247.340464 
L 258.278978 247.473499 
L 258.487493 247.980543 
L 259.071336 250.967758 
L 260.656051 260.383359 
L 261.198191 262.143692 
L 261.615221 262.846435 
L 261.948845 263.042082 
L 262.240767 262.983583 
L 262.616094 262.649556 
L 263.116531 261.866423 
L 263.950591 260.081269 
L 267.203429 252.781826 
L 267.954083 251.910977 
L 268.829847 251.235671 
L 270.080939 250.573232 
L 272.249497 249.704868 
L 274.334649 249.09333 
L 276.336395 248.745421 
L 278.713468 248.570494 
L 282.425039 248.549155 
L 309.281798 248.77678 
L 453.073886 248.753124 
L 465.751611 248.753118 
L 465.751611 248.753118 
" style="fill:none;stroke:#00709b;stroke-linecap:round;stroke-width:1.5;"/>
   </g>
   <g id="patch_8">
    <path d="M 67.322835 372.047244 
L 67.322835 226.127416 
" style="fill:none;stroke:#cccccc;stroke-linecap:square;stroke-linejoin:miter;"/>
   </g>
   <g id="patch_9">
    <path d="M 484.724409 372.047244 
L 484.724409 226.127416 
" style="fill:none;stroke:#cccccc;stroke-linecap:square;stroke-linejoin:miter;"/>
   </g>
   <g id="patch_10">
    <path d="M 67.322835 372.047244 
L 484.724409 372.047244 
" style="fill:none;stroke:#cccccc;stroke-linecap:square;stroke-linejoin:miter;"/>
   </g>
   <g id="patch_11">
    <path d="M 67.322835 226.127416 
L 484.724409 226.127416 
" style="fill:none;stroke:#cccccc;stroke-linecap:square;stroke-linejoin:miter;"/>
   </g>
  </g>
 </g>
 <defs>
  <clipPath id="pd53221077d">
   <rect height="145.919828" width="417.401575" x="67.322835" y="51.023622"/>
  </clipPath>
  <clipPath id="p444d283490">
   <rect height="145.919828" width="417.401575" x="67.322835" y="226.127416"/>
  </clipPath>
 </defs>
</svg>
