<?xml version="1.0" encoding="utf-8" standalone="no"?>
<!DOCTYPE svg PUBLIC "-//W3C//DTD SVG 1.1//EN"
  "http://www.w3.org/Graphics/SVG/1.1/DTD/svg11.dtd">
<!-- Created with matplotlib (http://matplotlib.org/) -->
<svg height="212pt" version="1.1" viewBox="0 0 538 212" width="538pt" xmlns="http://www.w3.org/2000/svg" xmlns:xlink="http://www.w3.org/1999/xlink">
 <defs>
  <style type="text/css">
*{stroke-linecap:butt;stroke-linejoin:round;}
  </style>
 </defs>
 <g id="figure_1">
  <g id="patch_1">
   <path d="M 0 212.598425 
L 538.582677 212.598425 
L 538.582677 0 
L 0 0 
z
" style="fill:#ffffff;"/>
  </g>
  <g id="axes_1">
   <g id="patch_2">
    <path d="M 67.322835 186.023622 
L 190.088004 186.023622 
L 190.088004 25.511811 
L 67.322835 25.511811 
z
" style="fill:#ffffff;"/>
   </g>
   <g id="matplotlib.axis_1">
    <g id="xtick_1">
     <g id="line2d_1">
      <path clip-path="url(#p458b055751)" d="M 100.804244 186.023622 
L 100.804244 25.511811 
" style="fill:none;stroke:#cccccc;stroke-linecap:round;stroke-width:0.8;"/>
     </g>
     <g id="line2d_2"/>
     <g id="text_1">
      <!-- $\mathdefault{10^{-2}}$ -->
      <g style="fill:#262626;" transform="translate(90.904244 199.836122)">
       <text>
        <tspan style="font-family:Arial;font-size:10px;font-style:regular;font-weight:regular;" x="0 5.561523" y="-0.999375">10</tspan>
        <tspan style="font-family:Arial;font-size:7px;font-style:regular;font-weight:regular;" x="11.297281 15.385172" y="-7.96875">−2</tspan>
       </text>
      </g>
     </g>
    </g>
    <g id="xtick_2">
     <g id="line2d_3">
      <path clip-path="url(#p458b055751)" d="M 156.606594 186.023622 
L 156.606594 25.511811 
" style="fill:none;stroke:#cccccc;stroke-linecap:round;stroke-width:0.8;"/>
     </g>
     <g id="line2d_4"/>
     <g id="text_2">
      <!-- $\mathdefault{10^{0}}$ -->
      <g style="fill:#262626;" transform="translate(148.756594 199.836122)">
       <text>
        <tspan style="font-family:Arial;font-size:10px;font-style:regular;font-weight:regular;" x="0 5.561523" y="-0.999375">10</tspan>
        <tspan style="font-family:Arial;font-size:7px;font-style:regular;font-weight:regular;" x="11.297281" y="-7.96875">0</tspan>
       </text>
      </g>
     </g>
    </g>
    <g id="text_3">
     <!-- $\omega$ -->
     <g style="fill:#262626;" transform="translate(124.505419 212.981435)">
      <text>
       <tspan style="font-family:DejaVu Sans;font-size:10px;font-style:oblique;font-weight:oblique;" x="0" y="-0.53125">ω</tspan>
      </text>
     </g>
    </g>
   </g>
   <g id="matplotlib.axis_2">
    <g id="ytick_1">
     <g id="line2d_5">
      <path clip-path="url(#p458b055751)" d="M 67.322835 178.146284 
L 190.088004 178.146284 
" style="fill:none;stroke:#cccccc;stroke-linecap:round;stroke-width:0.8;"/>
     </g>
     <g id="line2d_6"/>
     <g id="text_4">
      <!-- $\mathdefault{10^{-5}}$ -->
      <g style="fill:#262626;" transform="translate(44.022835 183.252534)">
       <text>
        <tspan style="font-family:Arial;font-size:10px;font-style:regular;font-weight:regular;" x="0 5.561523" y="-0.086875">10</tspan>
        <tspan style="font-family:Arial;font-size:7px;font-style:regular;font-weight:regular;" x="11.297281 15.385172" y="-7.05625">−5</tspan>
       </text>
      </g>
     </g>
    </g>
    <g id="ytick_2">
     <g id="line2d_7">
      <path clip-path="url(#p458b055751)" d="M 67.322835 149.417317 
L 190.088004 149.417317 
" style="fill:none;stroke:#cccccc;stroke-linecap:round;stroke-width:0.8;"/>
     </g>
     <g id="line2d_8"/>
     <g id="text_5">
      <!-- $\mathdefault{10^{-4}}$ -->
      <g style="fill:#262626;" transform="translate(44.022835 154.523567)">
       <text>
        <tspan style="font-family:Arial;font-size:10px;font-style:regular;font-weight:regular;" x="0 5.561523" y="-0.02125">10</tspan>
        <tspan style="font-family:Arial;font-size:7px;font-style:regular;font-weight:regular;" x="11.297281 15.385172" y="-6.990625">−4</tspan>
       </text>
      </g>
     </g>
    </g>
    <g id="ytick_3">
     <g id="line2d_9">
      <path clip-path="url(#p458b055751)" d="M 67.322835 120.688351 
L 190.088004 120.688351 
" style="fill:none;stroke:#cccccc;stroke-linecap:round;stroke-width:0.8;"/>
     </g>
     <g id="line2d_10"/>
     <g id="text_6">
      <!-- $\mathdefault{10^{-3}}$ -->
      <g style="fill:#262626;" transform="translate(44.022835 125.844601)">
       <text>
        <tspan style="font-family:Arial;font-size:10px;font-style:regular;font-weight:regular;" x="0 5.561523" y="-0.999375">10</tspan>
        <tspan style="font-family:Arial;font-size:7px;font-style:regular;font-weight:regular;" x="11.297281 15.385172" y="-7.96875">−3</tspan>
       </text>
      </g>
     </g>
    </g>
    <g id="ytick_4">
     <g id="line2d_11">
      <path clip-path="url(#p458b055751)" d="M 67.322835 91.959385 
L 190.088004 91.959385 
" style="fill:none;stroke:#cccccc;stroke-linecap:round;stroke-width:0.8;"/>
     </g>
     <g id="line2d_12"/>
     <g id="text_7">
      <!-- $\mathdefault{10^{-2}}$ -->
      <g style="fill:#262626;" transform="translate(44.022835 97.115635)">
       <text>
        <tspan style="font-family:Arial;font-size:10px;font-style:regular;font-weight:regular;" x="0 5.561523" y="-0.999375">10</tspan>
        <tspan style="font-family:Arial;font-size:7px;font-style:regular;font-weight:regular;" x="11.297281 15.385172" y="-7.96875">−2</tspan>
       </text>
      </g>
     </g>
    </g>
    <g id="ytick_5">
     <g id="line2d_13">
      <path clip-path="url(#p458b055751)" d="M 67.322835 63.230419 
L 190.088004 63.230419 
" style="fill:none;stroke:#cccccc;stroke-linecap:round;stroke-width:0.8;"/>
     </g>
     <g id="line2d_14"/>
     <g id="text_8">
      <!-- $\mathdefault{10^{-1}}$ -->
      <g style="fill:#262626;" transform="translate(44.022835 68.386669)">
       <text>
        <tspan style="font-family:Arial;font-size:10px;font-style:regular;font-weight:regular;" x="0 5.561523" y="-0.999375">10</tspan>
        <tspan style="font-family:Arial;font-size:7px;font-style:regular;font-weight:regular;" x="11.297281 15.385172" y="-7.96875">−1</tspan>
       </text>
      </g>
     </g>
    </g>
    <g id="ytick_6">
     <g id="line2d_15">
      <path clip-path="url(#p458b055751)" d="M 67.322835 34.501453 
L 190.088004 34.501453 
" style="fill:none;stroke:#cccccc;stroke-linecap:round;stroke-width:0.8;"/>
     </g>
     <g id="line2d_16"/>
     <g id="text_9">
      <!-- $\mathdefault{10^{0}}$ -->
      <g style="fill:#262626;" transform="translate(48.122835 39.657703)">
       <text>
        <tspan style="font-family:Arial;font-size:10px;font-style:regular;font-weight:regular;" x="0 5.561523" y="-0.999375">10</tspan>
        <tspan style="font-family:Arial;font-size:7px;font-style:regular;font-weight:regular;" x="11.297281" y="-7.96875">0</tspan>
       </text>
      </g>
     </g>
    </g>
    <g id="ytick_7">
     <g id="line2d_17"/>
    </g>
    <g id="ytick_8">
     <g id="line2d_18"/>
    </g>
    <g id="ytick_9">
     <g id="line2d_19"/>
    </g>
    <g id="ytick_10">
     <g id="line2d_20"/>
    </g>
    <g id="ytick_11">
     <g id="line2d_21"/>
    </g>
    <g id="ytick_12">
     <g id="line2d_22"/>
    </g>
    <g id="ytick_13">
     <g id="line2d_23"/>
    </g>
    <g id="ytick_14">
     <g id="line2d_24"/>
    </g>
    <g id="ytick_15">
     <g id="line2d_25"/>
    </g>
    <g id="ytick_16">
     <g id="line2d_26"/>
    </g>
    <g id="ytick_17">
     <g id="line2d_27"/>
    </g>
    <g id="ytick_18">
     <g id="line2d_28"/>
    </g>
    <g id="ytick_19">
     <g id="line2d_29"/>
    </g>
    <g id="ytick_20">
     <g id="line2d_30"/>
    </g>
    <g id="ytick_21">
     <g id="line2d_31"/>
    </g>
    <g id="ytick_22">
     <g id="line2d_32"/>
    </g>
    <g id="ytick_23">
     <g id="line2d_33"/>
    </g>
    <g id="ytick_24">
     <g id="line2d_34"/>
    </g>
    <g id="ytick_25">
     <g id="line2d_35"/>
    </g>
    <g id="ytick_26">
     <g id="line2d_36"/>
    </g>
    <g id="ytick_27">
     <g id="line2d_37"/>
    </g>
    <g id="ytick_28">
     <g id="line2d_38"/>
    </g>
    <g id="ytick_29">
     <g id="line2d_39"/>
    </g>
    <g id="ytick_30">
     <g id="line2d_40"/>
    </g>
    <g id="ytick_31">
     <g id="line2d_41"/>
    </g>
    <g id="ytick_32">
     <g id="line2d_42"/>
    </g>
    <g id="ytick_33">
     <g id="line2d_43"/>
    </g>
    <g id="ytick_34">
     <g id="line2d_44"/>
    </g>
    <g id="ytick_35">
     <g id="line2d_45"/>
    </g>
    <g id="ytick_36">
     <g id="line2d_46"/>
    </g>
    <g id="ytick_37">
     <g id="line2d_47"/>
    </g>
    <g id="ytick_38">
     <g id="line2d_48"/>
    </g>
    <g id="ytick_39">
     <g id="line2d_49"/>
    </g>
    <g id="ytick_40">
     <g id="line2d_50"/>
    </g>
    <g id="ytick_41">
     <g id="line2d_51"/>
    </g>
    <g id="ytick_42">
     <g id="line2d_52"/>
    </g>
    <g id="ytick_43">
     <g id="line2d_53"/>
    </g>
    <g id="ytick_44">
     <g id="line2d_54"/>
    </g>
    <g id="ytick_45">
     <g id="line2d_55"/>
    </g>
    <g id="ytick_46">
     <g id="line2d_56"/>
    </g>
    <g id="ytick_47">
     <g id="line2d_57"/>
    </g>
    <g id="ytick_48">
     <g id="line2d_58"/>
    </g>
    <g id="ytick_49">
     <g id="line2d_59"/>
    </g>
    <g id="ytick_50">
     <g id="line2d_60"/>
    </g>
    <g id="ytick_51">
     <g id="line2d_61"/>
    </g>
    <g id="text_10">
     <text style="fill:#262626;font-family:Arial;font-size:10px;font-style:normal;font-weight:400;text-anchor:middle;" transform="rotate(-90, 38.035335, 105.767717)" x="38.035335" y="105.767717">Gain</text>
    </g>
   </g>
   <g id="patch_3">
    <path clip-path="url(#p458b055751)" d="M 72.90307 186.023622 
L 72.90307 25.511811 
L 118.464664 25.511811 
L 118.464664 186.023622 
z
" style="fill:#008000;opacity:0.2;stroke:#008000;stroke-linejoin:miter;"/>
   </g>
   <g id="patch_4">
    <path clip-path="url(#p458b055751)" d="M 118.464664 186.023622 
L 118.464664 25.511811 
L 184.507769 25.511811 
L 184.507769 186.023622 
z
" style="fill:#ff0000;opacity:0.2;stroke:#ff0000;stroke-linejoin:miter;"/>
   </g>
   <g id="line2d_62">
    <path clip-path="url(#p458b055751)" d="M 72.90307 34.384087 
L 104.970306 34.216754 
L 109.189386 34.520284 
L 112.403923 34.966296 
L 115.026895 35.549473 
L 117.270374 36.272815 
L 119.268298 37.1482 
L 121.121121 38.202032 
L 122.895814 39.467857 
L 124.659344 41.002325 
L 126.467521 42.877407 
L 128.376152 45.186345 
L 130.463369 48.072679 
L 132.829625 51.740004 
L 135.631183 56.511724 
L 139.135921 62.945272 
L 143.890757 72.17266 
L 151.324373 87.138218 
L 167.642612 120.608769 
L 184.507769 155.330646 
L 184.507769 155.330646 
" style="fill:none;stroke:#6d8300;stroke-linecap:round;"/>
   </g>
   <g id="line2d_63">
    <path clip-path="url(#p458b055751)" d="M 72.90307 34.644751 
L 83.551223 34.89378 
L 89.734741 35.247079 
L 94.065437 35.707314 
L 97.458559 36.285199 
L 100.315925 36.993151 
L 102.871928 37.85353 
L 105.260508 38.891911 
L 107.570956 40.139074 
L 109.881404 41.641576 
L 112.214176 43.427452 
L 114.56927 45.514086 
L 116.913203 47.89018 
L 119.234813 50.562598 
L 121.556423 53.578456 
L 123.945003 57.054481 
L 126.501006 61.179455 
L 129.403018 66.302367 
L 133.019372 73.164733 
L 138.35461 83.816752 
L 150.330992 108.356644 
L 184.507769 178.727631 
L 184.507769 178.727631 
" style="fill:none;stroke:#6d8300;stroke-linecap:round;"/>
   </g>
   <g id="line2d_64">
    <path clip-path="url(#p458b055751)" d="M 72.90307 68.415915 
L 86.955506 54.160794 
L 93.027409 48.299077 
L 97.168358 44.595837 
L 100.438702 41.959254 
L 103.240261 39.978615 
L 105.785102 38.446001 
L 108.218328 37.237596 
L 110.629231 36.287405 
L 113.118264 35.546072 
L 115.785883 34.986814 
L 118.743704 34.599129 
L 122.192634 34.378713 
L 126.824692 34.323226 
L 183.614842 34.501131 
L 184.507769 34.501148 
L 184.507769 34.501148 
" style="fill:none;stroke:#be1e3c;stroke-linecap:round;"/>
   </g>
   <g id="line2d_65">
    <path clip-path="url(#p458b055751)" d="M 72.90307 91.905185 
L 120.217033 43.342085 
L 122.884652 41.089479 
L 125.161616 39.449922 
L 127.282317 38.193417 
L 129.380695 37.208439 
L 131.568366 36.429176 
L 133.979269 35.811364 
L 136.780827 35.330236 
L 140.263242 34.968141 
L 144.995754 34.714969 
L 152.42937 34.564265 
L 168.881548 34.506028 
L 184.507769 34.502042 
L 184.507769 34.502042 
" style="fill:none;stroke:#be1e3c;stroke-linecap:round;"/>
   </g>
   <g id="line2d_66">
    <path clip-path="url(#p458b055751)" d="M 125.887119 34.320726 
" style="fill:none;stroke:#ffffff;stroke-linecap:round;stroke-width:1.5;"/>
    <defs>
     <path d="M 0 3 
C 0.795609 3 1.55874 2.683901 2.12132 2.12132 
C 2.683901 1.55874 3 0.795609 3 0 
C 3 -0.795609 2.683901 -1.55874 2.12132 -2.12132 
C 1.55874 -2.683901 0.795609 -3 0 -3 
C -0.795609 -3 -1.55874 -2.683901 -2.12132 -2.12132 
C -2.683901 -1.55874 -3 -0.795609 -3 0 
C -3 0.795609 -2.683901 1.55874 -2.12132 2.12132 
C -1.55874 2.683901 -0.795609 3 0 3 
z
" id="m466df34b2d" style="stroke:#ffffff;"/>
    </defs>
    <g clip-path="url(#p458b055751)">
     <use style="fill:#ffffff;stroke:#ffffff;" x="125.887119" xlink:href="#m466df34b2d" y="34.320726"/>
    </g>
   </g>
   <g id="patch_5">
    <path d="M 67.322835 186.023622 
L 67.322835 25.511811 
" style="fill:none;stroke:#cccccc;stroke-linecap:square;stroke-linejoin:miter;"/>
   </g>
   <g id="patch_6">
    <path d="M 190.088004 186.023622 
L 190.088004 25.511811 
" style="fill:none;stroke:#cccccc;stroke-linecap:square;stroke-linejoin:miter;"/>
   </g>
   <g id="patch_7">
    <path d="M 67.322835 186.023622 
L 190.088004 186.023622 
" style="fill:none;stroke:#cccccc;stroke-linecap:square;stroke-linejoin:miter;"/>
   </g>
   <g id="patch_8">
    <path d="M 67.322835 25.511811 
L 190.088004 25.511811 
" style="fill:none;stroke:#cccccc;stroke-linecap:square;stroke-linejoin:miter;"/>
   </g>
   <g id="text_11">
    <text style="fill:#262626;font-family:Arial;font-size:12px;font-style:normal;font-weight:400;text-anchor:middle;" transform="rotate(-0, 128.705419, 19.511811)" x="128.705419" y="19.511811">RGA</text>
   </g>
  </g>
  <g id="axes_2">
   <g id="patch_9">
    <path d="M 214.641038 186.023622 
L 337.406207 186.023622 
L 337.406207 25.511811 
L 214.641038 25.511811 
z
" style="fill:#ffffff;"/>
   </g>
   <g id="matplotlib.axis_3">
    <g id="xtick_3">
     <g id="line2d_67">
      <path clip-path="url(#p2d43d0f866)" d="M 248.122447 186.023622 
L 248.122447 25.511811 
" style="fill:none;stroke:#cccccc;stroke-linecap:round;stroke-width:0.8;"/>
     </g>
     <g id="line2d_68"/>
     <g id="text_12">
      <!-- $\mathdefault{10^{-2}}$ -->
      <g style="fill:#262626;" transform="translate(238.222447 199.836122)">
       <text>
        <tspan style="font-family:Arial;font-size:10px;font-style:regular;font-weight:regular;" x="0 5.561523" y="-0.999375">10</tspan>
        <tspan style="font-family:Arial;font-size:7px;font-style:regular;font-weight:regular;" x="11.297281 15.385172" y="-7.96875">−2</tspan>
       </text>
      </g>
     </g>
    </g>
    <g id="xtick_4">
     <g id="line2d_69">
      <path clip-path="url(#p2d43d0f866)" d="M 303.924797 186.023622 
L 303.924797 25.511811 
" style="fill:none;stroke:#cccccc;stroke-linecap:round;stroke-width:0.8;"/>
     </g>
     <g id="line2d_70"/>
     <g id="text_13">
      <!-- $\mathdefault{10^{0}}$ -->
      <g style="fill:#262626;" transform="translate(296.074797 199.836122)">
       <text>
        <tspan style="font-family:Arial;font-size:10px;font-style:regular;font-weight:regular;" x="0 5.561523" y="-0.999375">10</tspan>
        <tspan style="font-family:Arial;font-size:7px;font-style:regular;font-weight:regular;" x="11.297281" y="-7.96875">0</tspan>
       </text>
      </g>
     </g>
    </g>
    <g id="text_14">
     <!-- $\omega$ -->
     <g style="fill:#262626;" transform="translate(271.823622 212.981435)">
      <text>
       <tspan style="font-family:DejaVu Sans;font-size:10px;font-style:oblique;font-weight:oblique;" x="0" y="-0.53125">ω</tspan>
      </text>
     </g>
    </g>
   </g>
   <g id="matplotlib.axis_4">
    <g id="ytick_52">
     <g id="line2d_71">
      <path clip-path="url(#p2d43d0f866)" d="M 214.641038 178.146284 
L 337.406207 178.146284 
" style="fill:none;stroke:#cccccc;stroke-linecap:round;stroke-width:0.8;"/>
     </g>
     <g id="line2d_72"/>
    </g>
    <g id="ytick_53">
     <g id="line2d_73">
      <path clip-path="url(#p2d43d0f866)" d="M 214.641038 149.417317 
L 337.406207 149.417317 
" style="fill:none;stroke:#cccccc;stroke-linecap:round;stroke-width:0.8;"/>
     </g>
     <g id="line2d_74"/>
    </g>
    <g id="ytick_54">
     <g id="line2d_75">
      <path clip-path="url(#p2d43d0f866)" d="M 214.641038 120.688351 
L 337.406207 120.688351 
" style="fill:none;stroke:#cccccc;stroke-linecap:round;stroke-width:0.8;"/>
     </g>
     <g id="line2d_76"/>
    </g>
    <g id="ytick_55">
     <g id="line2d_77">
      <path clip-path="url(#p2d43d0f866)" d="M 214.641038 91.959385 
L 337.406207 91.959385 
" style="fill:none;stroke:#cccccc;stroke-linecap:round;stroke-width:0.8;"/>
     </g>
     <g id="line2d_78"/>
    </g>
    <g id="ytick_56">
     <g id="line2d_79">
      <path clip-path="url(#p2d43d0f866)" d="M 214.641038 63.230419 
L 337.406207 63.230419 
" style="fill:none;stroke:#cccccc;stroke-linecap:round;stroke-width:0.8;"/>
     </g>
     <g id="line2d_80"/>
    </g>
    <g id="ytick_57">
     <g id="line2d_81">
      <path clip-path="url(#p2d43d0f866)" d="M 214.641038 34.501453 
L 337.406207 34.501453 
" style="fill:none;stroke:#cccccc;stroke-linecap:round;stroke-width:0.8;"/>
     </g>
     <g id="line2d_82"/>
    </g>
    <g id="ytick_58">
     <g id="line2d_83"/>
    </g>
    <g id="ytick_59">
     <g id="line2d_84"/>
    </g>
    <g id="ytick_60">
     <g id="line2d_85"/>
    </g>
    <g id="ytick_61">
     <g id="line2d_86"/>
    </g>
    <g id="ytick_62">
     <g id="line2d_87"/>
    </g>
    <g id="ytick_63">
     <g id="line2d_88"/>
    </g>
    <g id="ytick_64">
     <g id="line2d_89"/>
    </g>
    <g id="ytick_65">
     <g id="line2d_90"/>
    </g>
    <g id="ytick_66">
     <g id="line2d_91"/>
    </g>
    <g id="ytick_67">
     <g id="line2d_92"/>
    </g>
    <g id="ytick_68">
     <g id="line2d_93"/>
    </g>
    <g id="ytick_69">
     <g id="line2d_94"/>
    </g>
    <g id="ytick_70">
     <g id="line2d_95"/>
    </g>
    <g id="ytick_71">
     <g id="line2d_96"/>
    </g>
    <g id="ytick_72">
     <g id="line2d_97"/>
    </g>
    <g id="ytick_73">
     <g id="line2d_98"/>
    </g>
    <g id="ytick_74">
     <g id="line2d_99"/>
    </g>
    <g id="ytick_75">
     <g id="line2d_100"/>
    </g>
    <g id="ytick_76">
     <g id="line2d_101"/>
    </g>
    <g id="ytick_77">
     <g id="line2d_102"/>
    </g>
    <g id="ytick_78">
     <g id="line2d_103"/>
    </g>
    <g id="ytick_79">
     <g id="line2d_104"/>
    </g>
    <g id="ytick_80">
     <g id="line2d_105"/>
    </g>
    <g id="ytick_81">
     <g id="line2d_106"/>
    </g>
    <g id="ytick_82">
     <g id="line2d_107"/>
    </g>
    <g id="ytick_83">
     <g id="line2d_108"/>
    </g>
    <g id="ytick_84">
     <g id="line2d_109"/>
    </g>
    <g id="ytick_85">
     <g id="line2d_110"/>
    </g>
    <g id="ytick_86">
     <g id="line2d_111"/>
    </g>
    <g id="ytick_87">
     <g id="line2d_112"/>
    </g>
    <g id="ytick_88">
     <g id="line2d_113"/>
    </g>
    <g id="ytick_89">
     <g id="line2d_114"/>
    </g>
    <g id="ytick_90">
     <g id="line2d_115"/>
    </g>
    <g id="ytick_91">
     <g id="line2d_116"/>
    </g>
    <g id="ytick_92">
     <g id="line2d_117"/>
    </g>
    <g id="ytick_93">
     <g id="line2d_118"/>
    </g>
    <g id="ytick_94">
     <g id="line2d_119"/>
    </g>
    <g id="ytick_95">
     <g id="line2d_120"/>
    </g>
    <g id="ytick_96">
     <g id="line2d_121"/>
    </g>
    <g id="ytick_97">
     <g id="line2d_122"/>
    </g>
    <g id="ytick_98">
     <g id="line2d_123"/>
    </g>
    <g id="ytick_99">
     <g id="line2d_124"/>
    </g>
    <g id="ytick_100">
     <g id="line2d_125"/>
    </g>
    <g id="ytick_101">
     <g id="line2d_126"/>
    </g>
    <g id="ytick_102">
     <g id="line2d_127"/>
    </g>
   </g>
   <g id="patch_10">
    <path clip-path="url(#p2d43d0f866)" d="M 220.221272 186.023622 
L 220.221272 25.511811 
L 266.497208 25.511811 
L 266.497208 186.023622 
z
" style="fill:#008000;opacity:0.2;stroke:#008000;stroke-linejoin:miter;"/>
   </g>
   <g id="patch_11">
    <path clip-path="url(#p2d43d0f866)" d="M 266.497208 186.023622 
L 266.497208 25.511811 
L 331.825972 25.511811 
L 331.825972 186.023622 
z
" style="fill:#ff0000;opacity:0.2;stroke:#ff0000;stroke-linejoin:miter;"/>
   </g>
   <g id="line2d_128">
    <path clip-path="url(#p2d43d0f866)" d="M 220.221272 34.501844 
L 257.121476 34.615243 
L 263.896559 34.822141 
L 266.619986 35.115324 
L 268.495132 35.531836 
L 270.02427 36.094817 
L 271.397145 36.837481 
L 272.725373 37.814329 
L 274.087087 39.099984 
L 275.593901 40.842672 
L 277.402078 43.294808 
L 280.002727 47.237777 
L 286.922911 57.867908 
L 290.237902 62.463628 
L 293.686832 66.861115 
L 297.638033 71.528362 
L 302.660747 77.099246 
L 310.150171 85.042059 
L 325.899169 101.348295 
L 331.825972 107.455481 
L 331.825972 107.455481 
" style="fill:none;stroke:#6d8300;stroke-linecap:round;"/>
   </g>
   <g id="line2d_129">
    <path clip-path="url(#p2d43d0f866)" d="M 220.221272 34.504579 
L 242.455152 34.627064 
L 248.783771 34.872263 
L 252.64568 35.232432 
L 255.4584 35.709717 
L 257.724202 36.314975 
L 259.666318 37.060339 
L 261.44101 37.979373 
L 263.126409 39.103784 
L 264.811809 40.50061 
L 266.553016 42.239378 
L 268.439324 44.446764 
L 270.59351 47.323294 
L 273.294614 51.324376 
L 278.317328 59.259629 
L 282.714993 66.00845 
L 286.130438 70.841977 
L 289.545884 75.28806 
L 293.340823 79.854992 
L 298.006366 85.106754 
L 304.614025 92.182984 
L 316.858285 104.914188 
L 331.825972 120.343447 
L 331.825972 120.343447 
" style="fill:none;stroke:#6d8300;stroke-linecap:round;"/>
   </g>
   <g id="line2d_130">
    <path clip-path="url(#p2d43d0f866)" d="M 220.221272 77.706767 
L 249.553921 47.668021 
L 254.96729 42.425913 
L 258.259958 39.529628 
L 260.760153 37.615343 
L 262.880854 36.262987 
L 264.856455 35.263617 
L 266.832056 34.513356 
L 269.075535 33.907735 
L 272.479818 33.251239 
L 275.404154 32.866658 
L 277.569502 32.815277 
L 280.237121 32.992988 
L 292.012594 34.017937 
L 299.133686 34.266695 
L 310.697089 34.421547 
L 331.825972 34.488416 
L 331.825972 34.488416 
" style="fill:none;stroke:#be1e3c;stroke-linecap:round;"/>
   </g>
   <g id="line2d_131">
    <path clip-path="url(#p2d43d0f866)" d="M 220.221272 89.021783 
L 263.383126 44.422319 
L 268.372355 39.229725 
L 270.292148 37.553783 
L 271.798962 36.521579 
L 273.171837 35.844955 
L 274.611681 35.386742 
L 276.341727 35.081331 
L 278.797276 34.893728 
L 283.54095 34.797533 
L 324.972758 34.523456 
L 331.825972 34.514099 
L 331.825972 34.514099 
" style="fill:none;stroke:#be1e3c;stroke-linecap:round;"/>
   </g>
   <g id="line2d_132">
    <path clip-path="url(#p2d43d0f866)" d="M 276.977938 32.807802 
" style="fill:none;stroke:#ffffff;stroke-linecap:round;stroke-width:1.5;"/>
    <g clip-path="url(#p2d43d0f866)">
     <use style="fill:#ffffff;stroke:#ffffff;" x="276.977938" xlink:href="#m466df34b2d" y="32.807802"/>
    </g>
   </g>
   <g id="patch_12">
    <path d="M 214.641038 186.023622 
L 214.641038 25.511811 
" style="fill:none;stroke:#cccccc;stroke-linecap:square;stroke-linejoin:miter;"/>
   </g>
   <g id="patch_13">
    <path d="M 337.406207 186.023622 
L 337.406207 25.511811 
" style="fill:none;stroke:#cccccc;stroke-linecap:square;stroke-linejoin:miter;"/>
   </g>
   <g id="patch_14">
    <path d="M 214.641038 186.023622 
L 337.406207 186.023622 
" style="fill:none;stroke:#cccccc;stroke-linecap:square;stroke-linejoin:miter;"/>
   </g>
   <g id="patch_15">
    <path d="M 214.641038 25.511811 
L 337.406207 25.511811 
" style="fill:none;stroke:#cccccc;stroke-linecap:square;stroke-linejoin:miter;"/>
   </g>
   <g id="text_15">
    <text style="fill:#262626;font-family:Arial;font-size:12px;font-style:normal;font-weight:400;text-anchor:middle;" transform="rotate(-0, 276.023622, 19.511811)" x="276.023622" y="19.511811">Astroem</text>
   </g>
  </g>
  <g id="axes_3">
   <g id="patch_16">
    <path d="M 361.95924 186.023622 
L 484.724409 186.023622 
L 484.724409 25.511811 
L 361.95924 25.511811 
z
" style="fill:#ffffff;"/>
   </g>
   <g id="matplotlib.axis_5">
    <g id="xtick_5">
     <g id="line2d_133">
      <path clip-path="url(#p1743adf168)" d="M 395.44065 186.023622 
L 395.44065 25.511811 
" style="fill:none;stroke:#cccccc;stroke-linecap:round;stroke-width:0.8;"/>
     </g>
     <g id="line2d_134"/>
     <g id="text_16">
      <!-- $\mathdefault{10^{-2}}$ -->
      <g style="fill:#262626;" transform="translate(385.54065 199.836122)">
       <text>
        <tspan style="font-family:Arial;font-size:10px;font-style:regular;font-weight:regular;" x="0 5.561523" y="-0.999375">10</tspan>
        <tspan style="font-family:Arial;font-size:7px;font-style:regular;font-weight:regular;" x="11.297281 15.385172" y="-7.96875">−2</tspan>
       </text>
      </g>
     </g>
    </g>
    <g id="xtick_6">
     <g id="line2d_135">
      <path clip-path="url(#p1743adf168)" d="M 451.243 186.023622 
L 451.243 25.511811 
" style="fill:none;stroke:#cccccc;stroke-linecap:round;stroke-width:0.8;"/>
     </g>
     <g id="line2d_136"/>
     <g id="text_17">
      <!-- $\mathdefault{10^{0}}$ -->
      <g style="fill:#262626;" transform="translate(443.393 199.836122)">
       <text>
        <tspan style="font-family:Arial;font-size:10px;font-style:regular;font-weight:regular;" x="0 5.561523" y="-0.999375">10</tspan>
        <tspan style="font-family:Arial;font-size:7px;font-style:regular;font-weight:regular;" x="11.297281" y="-7.96875">0</tspan>
       </text>
      </g>
     </g>
    </g>
    <g id="text_18">
     <!-- $\omega$ -->
     <g style="fill:#262626;" transform="translate(419.141825 212.981435)">
      <text>
       <tspan style="font-family:DejaVu Sans;font-size:10px;font-style:oblique;font-weight:oblique;" x="0" y="-0.53125">ω</tspan>
      </text>
     </g>
    </g>
   </g>
   <g id="matplotlib.axis_6">
    <g id="ytick_103">
     <g id="line2d_137">
      <path clip-path="url(#p1743adf168)" d="M 361.95924 178.146284 
L 484.724409 178.146284 
" style="fill:none;stroke:#cccccc;stroke-linecap:round;stroke-width:0.8;"/>
     </g>
     <g id="line2d_138"/>
    </g>
    <g id="ytick_104">
     <g id="line2d_139">
      <path clip-path="url(#p1743adf168)" d="M 361.95924 149.417317 
L 484.724409 149.417317 
" style="fill:none;stroke:#cccccc;stroke-linecap:round;stroke-width:0.8;"/>
     </g>
     <g id="line2d_140"/>
    </g>
    <g id="ytick_105">
     <g id="line2d_141">
      <path clip-path="url(#p1743adf168)" d="M 361.95924 120.688351 
L 484.724409 120.688351 
" style="fill:none;stroke:#cccccc;stroke-linecap:round;stroke-width:0.8;"/>
     </g>
     <g id="line2d_142"/>
    </g>
    <g id="ytick_106">
     <g id="line2d_143">
      <path clip-path="url(#p1743adf168)" d="M 361.95924 91.959385 
L 484.724409 91.959385 
" style="fill:none;stroke:#cccccc;stroke-linecap:round;stroke-width:0.8;"/>
     </g>
     <g id="line2d_144"/>
    </g>
    <g id="ytick_107">
     <g id="line2d_145">
      <path clip-path="url(#p1743adf168)" d="M 361.95924 63.230419 
L 484.724409 63.230419 
" style="fill:none;stroke:#cccccc;stroke-linecap:round;stroke-width:0.8;"/>
     </g>
     <g id="line2d_146"/>
    </g>
    <g id="ytick_108">
     <g id="line2d_147">
      <path clip-path="url(#p1743adf168)" d="M 361.95924 34.501453 
L 484.724409 34.501453 
" style="fill:none;stroke:#cccccc;stroke-linecap:round;stroke-width:0.8;"/>
     </g>
     <g id="line2d_148"/>
    </g>
    <g id="ytick_109">
     <g id="line2d_149"/>
    </g>
    <g id="ytick_110">
     <g id="line2d_150"/>
    </g>
    <g id="ytick_111">
     <g id="line2d_151"/>
    </g>
    <g id="ytick_112">
     <g id="line2d_152"/>
    </g>
    <g id="ytick_113">
     <g id="line2d_153"/>
    </g>
    <g id="ytick_114">
     <g id="line2d_154"/>
    </g>
    <g id="ytick_115">
     <g id="line2d_155"/>
    </g>
    <g id="ytick_116">
     <g id="line2d_156"/>
    </g>
    <g id="ytick_117">
     <g id="line2d_157"/>
    </g>
    <g id="ytick_118">
     <g id="line2d_158"/>
    </g>
    <g id="ytick_119">
     <g id="line2d_159"/>
    </g>
    <g id="ytick_120">
     <g id="line2d_160"/>
    </g>
    <g id="ytick_121">
     <g id="line2d_161"/>
    </g>
    <g id="ytick_122">
     <g id="line2d_162"/>
    </g>
    <g id="ytick_123">
     <g id="line2d_163"/>
    </g>
    <g id="ytick_124">
     <g id="line2d_164"/>
    </g>
    <g id="ytick_125">
     <g id="line2d_165"/>
    </g>
    <g id="ytick_126">
     <g id="line2d_166"/>
    </g>
    <g id="ytick_127">
     <g id="line2d_167"/>
    </g>
    <g id="ytick_128">
     <g id="line2d_168"/>
    </g>
    <g id="ytick_129">
     <g id="line2d_169"/>
    </g>
    <g id="ytick_130">
     <g id="line2d_170"/>
    </g>
    <g id="ytick_131">
     <g id="line2d_171"/>
    </g>
    <g id="ytick_132">
     <g id="line2d_172"/>
    </g>
    <g id="ytick_133">
     <g id="line2d_173"/>
    </g>
    <g id="ytick_134">
     <g id="line2d_174"/>
    </g>
    <g id="ytick_135">
     <g id="line2d_175"/>
    </g>
    <g id="ytick_136">
     <g id="line2d_176"/>
    </g>
    <g id="ytick_137">
     <g id="line2d_177"/>
    </g>
    <g id="ytick_138">
     <g id="line2d_178"/>
    </g>
    <g id="ytick_139">
     <g id="line2d_179"/>
    </g>
    <g id="ytick_140">
     <g id="line2d_180"/>
    </g>
    <g id="ytick_141">
     <g id="line2d_181"/>
    </g>
    <g id="ytick_142">
     <g id="line2d_182"/>
    </g>
    <g id="ytick_143">
     <g id="line2d_183"/>
    </g>
    <g id="ytick_144">
     <g id="line2d_184"/>
    </g>
    <g id="ytick_145">
     <g id="line2d_185"/>
    </g>
    <g id="ytick_146">
     <g id="line2d_186"/>
    </g>
    <g id="ytick_147">
     <g id="line2d_187"/>
    </g>
    <g id="ytick_148">
     <g id="line2d_188"/>
    </g>
    <g id="ytick_149">
     <g id="line2d_189"/>
    </g>
    <g id="ytick_150">
     <g id="line2d_190"/>
    </g>
    <g id="ytick_151">
     <g id="line2d_191"/>
    </g>
    <g id="ytick_152">
     <g id="line2d_192"/>
    </g>
    <g id="ytick_153">
     <g id="line2d_193"/>
    </g>
   </g>
   <g id="patch_17">
    <path clip-path="url(#p1743adf168)" d="M 367.539475 186.023622 
L 367.539475 25.511811 
L 415.110155 25.511811 
L 415.110155 186.023622 
z
" style="fill:#008000;opacity:0.2;stroke:#008000;stroke-linejoin:miter;"/>
   </g>
   <g id="patch_18">
    <path clip-path="url(#p1743adf168)" d="M 415.110155 186.023622 
L 415.110155 25.511811 
L 479.144174 25.511811 
L 479.144174 186.023622 
z
" style="fill:#ff0000;opacity:0.2;stroke:#ff0000;stroke-linejoin:miter;"/>
   </g>
   <g id="line2d_194">
    <path clip-path="url(#p1743adf168)" d="M 367.539475 34.506888 
L 387.016443 34.635474 
L 393.579456 34.890111 
L 397.854343 35.267827 
L 401.124688 35.772399 
L 403.836953 36.411181 
L 406.192048 37.191687 
L 408.301588 38.123377 
L 410.243704 39.223319 
L 412.085365 40.5238 
L 413.860058 42.05097 
L 415.63475 43.876099 
L 417.454088 46.073355 
L 419.385043 48.76448 
L 421.516906 52.131795 
L 423.983616 56.461528 
L 427.086537 62.383881 
L 431.685111 71.692 
L 479.144174 169.687114 
L 479.144174 169.687114 
" style="fill:none;stroke:#6d8300;stroke-linecap:round;"/>
   </g>
   <g id="line2d_195">
    <path clip-path="url(#p1743adf168)" d="M 367.539475 34.51352 
L 383.009434 34.655411 
L 389.181791 34.922117 
L 393.266931 35.310741 
L 396.414499 35.826252 
L 399.037471 36.475908 
L 401.34792 37.273486 
L 403.479783 38.243698 
L 405.511191 39.413785 
L 407.509115 40.824823 
L 409.518201 42.520289 
L 411.594256 44.569247 
L 413.781926 47.048939 
L 416.12586 50.051435 
L 418.681863 53.697229 
L 421.539229 58.17213 
L 424.843058 63.774914 
L 428.816583 70.971362 
L 433.783489 80.450429 
L 440.435794 93.658224 
L 451.31834 115.826631 
L 479.144174 173.077888 
L 479.144174 173.077888 
" style="fill:none;stroke:#6d8300;stroke-linecap:round;"/>
   </g>
   <g id="line2d_196">
    <path clip-path="url(#p1743adf168)" d="M 367.539475 74.878225 
L 386.982958 55.042278 
L 393.579456 48.613018 
L 397.921313 44.67592 
L 401.314435 41.888668 
L 404.23877 39.767958 
L 406.939874 38.079721 
L 409.574008 36.693291 
L 412.152335 35.583964 
L 414.619045 34.760694 
L 417.007625 34.196586 
L 419.463174 33.847922 
L 422.231247 33.686889 
L 425.914571 33.712855 
L 454.041767 34.41509 
L 479.144174 34.490814 
L 479.144174 34.490814 
" style="fill:none;stroke:#be1e3c;stroke-linecap:round;"/>
   </g>
   <g id="line2d_197">
    <path clip-path="url(#p1743adf168)" d="M 367.539475 76.727358 
L 387.585684 56.269163 
L 394.271474 49.74785 
L 398.669139 45.752942 
L 402.084584 42.938655 
L 404.953112 40.85384 
L 407.486792 39.280828 
L 409.819563 38.090341 
L 412.085365 37.182412 
L 414.429298 36.484183 
L 417.029948 35.946322 
L 420.155192 35.535981 
L 424.396595 35.219352 
L 431.551171 34.938086 
L 444.197248 34.677937 
L 462.546896 34.54256 
L 479.144174 34.512016 
L 479.144174 34.512016 
" style="fill:none;stroke:#be1e3c;stroke-linecap:round;"/>
   </g>
   <g id="line2d_198">
    <path clip-path="url(#p1743adf168)" d="M 423.470183 33.673258 
" style="fill:none;stroke:#ffffff;stroke-linecap:round;stroke-width:1.5;"/>
    <g clip-path="url(#p1743adf168)">
     <use style="fill:#ffffff;stroke:#ffffff;" x="423.470183" xlink:href="#m466df34b2d" y="33.673258"/>
    </g>
   </g>
   <g id="patch_19">
    <path d="M 361.95924 186.023622 
L 361.95924 25.511811 
" style="fill:none;stroke:#cccccc;stroke-linecap:square;stroke-linejoin:miter;"/>
   </g>
   <g id="patch_20">
    <path d="M 484.724409 186.023622 
L 484.724409 25.511811 
" style="fill:none;stroke:#cccccc;stroke-linecap:square;stroke-linejoin:miter;"/>
   </g>
   <g id="patch_21">
    <path d="M 361.95924 186.023622 
L 484.724409 186.023622 
" style="fill:none;stroke:#cccccc;stroke-linecap:square;stroke-linejoin:miter;"/>
   </g>
   <g id="patch_22">
    <path d="M 361.95924 25.511811 
L 484.724409 25.511811 
" style="fill:none;stroke:#cccccc;stroke-linecap:square;stroke-linejoin:miter;"/>
   </g>
   <g id="text_19">
    <text style="fill:#262626;font-family:Arial;font-size:12px;font-style:normal;font-weight:400;text-anchor:middle;" transform="rotate(-0, 423.341825, 19.511811)" x="423.341825" y="19.511811">R2D2</text>
   </g>
  </g>
 </g>
 <defs>
  <clipPath id="p458b055751">
   <rect height="160.511811" width="122.765169" x="67.322835" y="25.511811"/>
  </clipPath>
  <clipPath id="p2d43d0f866">
   <rect height="160.511811" width="122.765169" x="214.641038" y="25.511811"/>
  </clipPath>
  <clipPath id="p1743adf168">
   <rect height="160.511811" width="122.765169" x="361.95924" y="25.511811"/>
  </clipPath>
 </defs>
</svg>
