<?xml version="1.0" encoding="utf-8" standalone="no"?>
<!DOCTYPE svg PUBLIC "-//W3C//DTD SVG 1.1//EN"
  "http://www.w3.org/Graphics/SVG/1.1/DTD/svg11.dtd">
<!-- Created with matplotlib (http://matplotlib.org/) -->
<svg height="212pt" version="1.1" viewBox="0 0 538 212" width="538pt" xmlns="http://www.w3.org/2000/svg" xmlns:xlink="http://www.w3.org/1999/xlink">
 <defs>
  <style type="text/css">
*{stroke-linecap:butt;stroke-linejoin:round;}
  </style>
 </defs>
 <g id="figure_1">
  <g id="patch_1">
   <path d="M 0 212.598425 
L 538.582677 212.598425 
L 538.582677 0 
L 0 0 
z
" style="fill:#ffffff;"/>
  </g>
  <g id="axes_1">
   <g id="patch_2">
    <path d="M 67.322835 186.023622 
L 190.088004 186.023622 
L 190.088004 25.511811 
L 67.322835 25.511811 
z
" style="fill:#ffffff;"/>
   </g>
   <g id="matplotlib.axis_1">
    <g id="xtick_1">
     <g id="line2d_1">
      <path clip-path="url(#p2abe4fe162)" d="M 100.804244 186.023622 
L 100.804244 25.511811 
" style="fill:none;stroke:#cccccc;stroke-linecap:round;stroke-width:0.8;"/>
     </g>
     <g id="line2d_2"/>
     <g id="text_1">
      <!-- $\mathdefault{10^{-2}}$ -->
      <g style="fill:#262626;" transform="translate(90.904244 199.836122)">
       <text>
        <tspan style="font-family:Arial;font-size:10px;font-style:regular;font-weight:regular;" x="0 5.561523" y="-0.999375">10</tspan>
        <tspan style="font-family:Arial;font-size:7px;font-style:regular;font-weight:regular;" x="11.297281 15.385172" y="-7.96875">−2</tspan>
       </text>
      </g>
     </g>
    </g>
    <g id="xtick_2">
     <g id="line2d_3">
      <path clip-path="url(#p2abe4fe162)" d="M 156.606594 186.023622 
L 156.606594 25.511811 
" style="fill:none;stroke:#cccccc;stroke-linecap:round;stroke-width:0.8;"/>
     </g>
     <g id="line2d_4"/>
     <g id="text_2">
      <!-- $\mathdefault{10^{0}}$ -->
      <g style="fill:#262626;" transform="translate(148.756594 199.836122)">
       <text>
        <tspan style="font-family:Arial;font-size:10px;font-style:regular;font-weight:regular;" x="0 5.561523" y="-0.999375">10</tspan>
        <tspan style="font-family:Arial;font-size:7px;font-style:regular;font-weight:regular;" x="11.297281" y="-7.96875">0</tspan>
       </text>
      </g>
     </g>
    </g>
    <g id="text_3">
     <!-- $\omega$ -->
     <g style="fill:#262626;" transform="translate(124.505419 212.981435)">
      <text>
       <tspan style="font-family:DejaVu Sans;font-size:10px;font-style:oblique;font-weight:oblique;" x="0" y="-0.53125">ω</tspan>
      </text>
     </g>
    </g>
   </g>
   <g id="matplotlib.axis_2">
    <g id="ytick_1">
     <g id="line2d_5">
      <path clip-path="url(#p2abe4fe162)" d="M 67.322835 178.14613 
L 190.088004 178.14613 
" style="fill:none;stroke:#cccccc;stroke-linecap:round;stroke-width:0.8;"/>
     </g>
     <g id="line2d_6"/>
     <g id="text_4">
      <!-- $\mathdefault{10^{-5}}$ -->
      <g style="fill:#262626;" transform="translate(44.022835 183.25238)">
       <text>
        <tspan style="font-family:Arial;font-size:10px;font-style:regular;font-weight:regular;" x="0 5.561523" y="-0.086875">10</tspan>
        <tspan style="font-family:Arial;font-size:7px;font-style:regular;font-weight:regular;" x="11.297281 15.385172" y="-7.05625">−5</tspan>
       </text>
      </g>
     </g>
    </g>
    <g id="ytick_2">
     <g id="line2d_7">
      <path clip-path="url(#p2abe4fe162)" d="M 67.322835 149.409558 
L 190.088004 149.409558 
" style="fill:none;stroke:#cccccc;stroke-linecap:round;stroke-width:0.8;"/>
     </g>
     <g id="line2d_8"/>
     <g id="text_5">
      <!-- $\mathdefault{10^{-4}}$ -->
      <g style="fill:#262626;" transform="translate(44.022835 154.515808)">
       <text>
        <tspan style="font-family:Arial;font-size:10px;font-style:regular;font-weight:regular;" x="0 5.561523" y="-0.02125">10</tspan>
        <tspan style="font-family:Arial;font-size:7px;font-style:regular;font-weight:regular;" x="11.297281 15.385172" y="-6.990625">−4</tspan>
       </text>
      </g>
     </g>
    </g>
    <g id="ytick_3">
     <g id="line2d_9">
      <path clip-path="url(#p2abe4fe162)" d="M 67.322835 120.672986 
L 190.088004 120.672986 
" style="fill:none;stroke:#cccccc;stroke-linecap:round;stroke-width:0.8;"/>
     </g>
     <g id="line2d_10"/>
     <g id="text_6">
      <!-- $\mathdefault{10^{-3}}$ -->
      <g style="fill:#262626;" transform="translate(44.022835 125.829236)">
       <text>
        <tspan style="font-family:Arial;font-size:10px;font-style:regular;font-weight:regular;" x="0 5.561523" y="-0.999375">10</tspan>
        <tspan style="font-family:Arial;font-size:7px;font-style:regular;font-weight:regular;" x="11.297281 15.385172" y="-7.96875">−3</tspan>
       </text>
      </g>
     </g>
    </g>
    <g id="ytick_4">
     <g id="line2d_11">
      <path clip-path="url(#p2abe4fe162)" d="M 67.322835 91.936415 
L 190.088004 91.936415 
" style="fill:none;stroke:#cccccc;stroke-linecap:round;stroke-width:0.8;"/>
     </g>
     <g id="line2d_12"/>
     <g id="text_7">
      <!-- $\mathdefault{10^{-2}}$ -->
      <g style="fill:#262626;" transform="translate(44.022835 97.092665)">
       <text>
        <tspan style="font-family:Arial;font-size:10px;font-style:regular;font-weight:regular;" x="0 5.561523" y="-0.999375">10</tspan>
        <tspan style="font-family:Arial;font-size:7px;font-style:regular;font-weight:regular;" x="11.297281 15.385172" y="-7.96875">−2</tspan>
       </text>
      </g>
     </g>
    </g>
    <g id="ytick_5">
     <g id="line2d_13">
      <path clip-path="url(#p2abe4fe162)" d="M 67.322835 63.199843 
L 190.088004 63.199843 
" style="fill:none;stroke:#cccccc;stroke-linecap:round;stroke-width:0.8;"/>
     </g>
     <g id="line2d_14"/>
     <g id="text_8">
      <!-- $\mathdefault{10^{-1}}$ -->
      <g style="fill:#262626;" transform="translate(44.022835 68.356093)">
       <text>
        <tspan style="font-family:Arial;font-size:10px;font-style:regular;font-weight:regular;" x="0 5.561523" y="-0.999375">10</tspan>
        <tspan style="font-family:Arial;font-size:7px;font-style:regular;font-weight:regular;" x="11.297281 15.385172" y="-7.96875">−1</tspan>
       </text>
      </g>
     </g>
    </g>
    <g id="ytick_6">
     <g id="line2d_15">
      <path clip-path="url(#p2abe4fe162)" d="M 67.322835 34.463271 
L 190.088004 34.463271 
" style="fill:none;stroke:#cccccc;stroke-linecap:round;stroke-width:0.8;"/>
     </g>
     <g id="line2d_16"/>
     <g id="text_9">
      <!-- $\mathdefault{10^{0}}$ -->
      <g style="fill:#262626;" transform="translate(48.122835 39.619521)">
       <text>
        <tspan style="font-family:Arial;font-size:10px;font-style:regular;font-weight:regular;" x="0 5.561523" y="-0.999375">10</tspan>
        <tspan style="font-family:Arial;font-size:7px;font-style:regular;font-weight:regular;" x="11.297281" y="-7.96875">0</tspan>
       </text>
      </g>
     </g>
    </g>
    <g id="ytick_7">
     <g id="line2d_17"/>
    </g>
    <g id="ytick_8">
     <g id="line2d_18"/>
    </g>
    <g id="ytick_9">
     <g id="line2d_19"/>
    </g>
    <g id="ytick_10">
     <g id="line2d_20"/>
    </g>
    <g id="ytick_11">
     <g id="line2d_21"/>
    </g>
    <g id="ytick_12">
     <g id="line2d_22"/>
    </g>
    <g id="ytick_13">
     <g id="line2d_23"/>
    </g>
    <g id="ytick_14">
     <g id="line2d_24"/>
    </g>
    <g id="ytick_15">
     <g id="line2d_25"/>
    </g>
    <g id="ytick_16">
     <g id="line2d_26"/>
    </g>
    <g id="ytick_17">
     <g id="line2d_27"/>
    </g>
    <g id="ytick_18">
     <g id="line2d_28"/>
    </g>
    <g id="ytick_19">
     <g id="line2d_29"/>
    </g>
    <g id="ytick_20">
     <g id="line2d_30"/>
    </g>
    <g id="ytick_21">
     <g id="line2d_31"/>
    </g>
    <g id="ytick_22">
     <g id="line2d_32"/>
    </g>
    <g id="ytick_23">
     <g id="line2d_33"/>
    </g>
    <g id="ytick_24">
     <g id="line2d_34"/>
    </g>
    <g id="ytick_25">
     <g id="line2d_35"/>
    </g>
    <g id="ytick_26">
     <g id="line2d_36"/>
    </g>
    <g id="ytick_27">
     <g id="line2d_37"/>
    </g>
    <g id="ytick_28">
     <g id="line2d_38"/>
    </g>
    <g id="ytick_29">
     <g id="line2d_39"/>
    </g>
    <g id="ytick_30">
     <g id="line2d_40"/>
    </g>
    <g id="ytick_31">
     <g id="line2d_41"/>
    </g>
    <g id="ytick_32">
     <g id="line2d_42"/>
    </g>
    <g id="ytick_33">
     <g id="line2d_43"/>
    </g>
    <g id="ytick_34">
     <g id="line2d_44"/>
    </g>
    <g id="ytick_35">
     <g id="line2d_45"/>
    </g>
    <g id="ytick_36">
     <g id="line2d_46"/>
    </g>
    <g id="ytick_37">
     <g id="line2d_47"/>
    </g>
    <g id="ytick_38">
     <g id="line2d_48"/>
    </g>
    <g id="ytick_39">
     <g id="line2d_49"/>
    </g>
    <g id="ytick_40">
     <g id="line2d_50"/>
    </g>
    <g id="ytick_41">
     <g id="line2d_51"/>
    </g>
    <g id="ytick_42">
     <g id="line2d_52"/>
    </g>
    <g id="ytick_43">
     <g id="line2d_53"/>
    </g>
    <g id="ytick_44">
     <g id="line2d_54"/>
    </g>
    <g id="ytick_45">
     <g id="line2d_55"/>
    </g>
    <g id="ytick_46">
     <g id="line2d_56"/>
    </g>
    <g id="ytick_47">
     <g id="line2d_57"/>
    </g>
    <g id="ytick_48">
     <g id="line2d_58"/>
    </g>
    <g id="ytick_49">
     <g id="line2d_59"/>
    </g>
    <g id="ytick_50">
     <g id="line2d_60"/>
    </g>
    <g id="ytick_51">
     <g id="line2d_61"/>
    </g>
    <g id="text_10">
     <text style="fill:#262626;font-family:Arial;font-size:10px;font-style:normal;font-weight:400;text-anchor:middle;" transform="rotate(-90, 38.035335, 105.767717)" x="38.035335" y="105.767717">Gain</text>
    </g>
   </g>
   <g id="patch_3">
    <path clip-path="url(#p2abe4fe162)" d="M 72.90307 186.023622 
L 72.90307 25.511811 
L 118.464664 25.511811 
L 118.464664 186.023622 
z
" style="fill:#008000;opacity:0.2;stroke:#008000;stroke-linejoin:miter;"/>
   </g>
   <g id="patch_4">
    <path clip-path="url(#p2abe4fe162)" d="M 118.464664 186.023622 
L 118.464664 25.511811 
L 184.507769 25.511811 
L 184.507769 186.023622 
z
" style="fill:#ff0000;opacity:0.2;stroke:#ff0000;stroke-linejoin:miter;"/>
   </g>
   <g id="line2d_62">
    <path clip-path="url(#p2abe4fe162)" d="M 72.90307 34.345875 
L 104.970306 34.178497 
L 109.189386 34.482107 
L 112.403923 34.928237 
L 115.015734 35.508546 
L 117.259213 36.230876 
L 119.257137 37.105121 
L 121.10996 38.157697 
L 122.884652 39.422177 
L 124.648183 40.955244 
L 126.45636 42.828921 
L 128.364991 45.136534 
L 130.452207 48.021725 
L 132.818464 51.688222 
L 135.620022 56.459599 
L 139.12476 62.893514 
L 143.868434 72.100243 
L 151.279727 87.023066 
L 167.519835 120.340676 
L 184.507769 155.324452 
L 184.507769 155.324452 
" style="fill:none;stroke:#6d8300;stroke-linecap:round;"/>
   </g>
   <g id="line2d_63">
    <path clip-path="url(#p2abe4fe162)" d="M 72.90307 34.606607 
L 83.551223 34.855702 
L 89.734741 35.209095 
L 94.065437 35.669452 
L 97.458559 36.247489 
L 100.315925 36.955629 
L 102.871928 37.816236 
L 105.260508 38.854892 
L 107.570956 40.102385 
L 109.881404 41.605285 
L 112.214176 43.391633 
L 114.56927 45.47882 
L 116.913203 47.855543 
L 119.234813 50.528668 
L 121.556423 53.545324 
L 123.945003 57.02227 
L 126.501006 61.148336 
L 129.403018 66.272604 
L 133.019372 73.136787 
L 138.35461 83.791626 
L 150.330992 108.338015 
L 184.507769 178.727631 
L 184.507769 178.727631 
" style="fill:none;stroke:#6d8300;stroke-linecap:round;"/>
   </g>
   <g id="line2d_64">
    <path clip-path="url(#p2abe4fe162)" d="M 72.90307 68.386711 
L 86.955506 54.127817 
L 93.027409 48.264548 
L 97.168358 44.560328 
L 100.438702 41.923046 
L 103.240261 39.941884 
L 105.785102 38.408863 
L 108.218328 37.200139 
L 110.629231 36.249696 
L 113.118264 35.508167 
L 115.785883 34.948761 
L 118.743704 34.560973 
L 122.192634 34.340499 
L 126.824692 34.284997 
L 183.614842 34.46295 
L 184.507769 34.462967 
L 184.507769 34.462967 
" style="fill:none;stroke:#be1e3c;stroke-linecap:round;"/>
   </g>
   <g id="line2d_65">
    <path clip-path="url(#p2abe4fe162)" d="M 72.90307 91.8822 
L 120.217033 43.306244 
L 122.884652 41.053041 
L 125.161616 39.41305 
L 127.282317 38.156213 
L 129.380695 37.170975 
L 131.568366 36.391505 
L 133.979269 35.773529 
L 136.780827 35.292273 
L 140.263242 34.930083 
L 144.984592 34.677237 
L 152.407047 34.52633 
L 168.814579 34.467894 
L 184.507769 34.463861 
L 184.507769 34.463861 
" style="fill:none;stroke:#be1e3c;stroke-linecap:round;"/>
   </g>
   <g id="line2d_66">
    <path clip-path="url(#p2abe4fe162)" d="M 125.887119 34.282497 
" style="fill:none;stroke:#ffffff;stroke-linecap:round;stroke-width:1.5;"/>
    <defs>
     <path d="M 0 3 
C 0.795609 3 1.55874 2.683901 2.12132 2.12132 
C 2.683901 1.55874 3 0.795609 3 0 
C 3 -0.795609 2.683901 -1.55874 2.12132 -2.12132 
C 1.55874 -2.683901 0.795609 -3 0 -3 
C -0.795609 -3 -1.55874 -2.683901 -2.12132 -2.12132 
C -2.683901 -1.55874 -3 -0.795609 -3 0 
C -3 0.795609 -2.683901 1.55874 -2.12132 2.12132 
C -1.55874 2.683901 -0.795609 3 0 3 
z
" id="m78cb86e662" style="stroke:#ffffff;"/>
    </defs>
    <g clip-path="url(#p2abe4fe162)">
     <use style="fill:#ffffff;stroke:#ffffff;" x="125.887119" xlink:href="#m78cb86e662" y="34.282497"/>
    </g>
   </g>
   <g id="patch_5">
    <path d="M 67.322835 186.023622 
L 67.322835 25.511811 
" style="fill:none;stroke:#cccccc;stroke-linecap:square;stroke-linejoin:miter;"/>
   </g>
   <g id="patch_6">
    <path d="M 190.088004 186.023622 
L 190.088004 25.511811 
" style="fill:none;stroke:#cccccc;stroke-linecap:square;stroke-linejoin:miter;"/>
   </g>
   <g id="patch_7">
    <path d="M 67.322835 186.023622 
L 190.088004 186.023622 
" style="fill:none;stroke:#cccccc;stroke-linecap:square;stroke-linejoin:miter;"/>
   </g>
   <g id="patch_8">
    <path d="M 67.322835 25.511811 
L 190.088004 25.511811 
" style="fill:none;stroke:#cccccc;stroke-linecap:square;stroke-linejoin:miter;"/>
   </g>
   <g id="text_11">
    <text style="fill:#262626;font-family:Arial;font-size:12px;font-style:normal;font-weight:400;text-anchor:middle;" transform="rotate(-0, 128.705419, 19.511811)" x="128.705419" y="19.511811">RGA</text>
   </g>
  </g>
  <g id="axes_2">
   <g id="patch_9">
    <path d="M 214.641038 186.023622 
L 337.406207 186.023622 
L 337.406207 25.511811 
L 214.641038 25.511811 
z
" style="fill:#ffffff;"/>
   </g>
   <g id="matplotlib.axis_3">
    <g id="xtick_3">
     <g id="line2d_67">
      <path clip-path="url(#pefb1232a87)" d="M 248.122447 186.023622 
L 248.122447 25.511811 
" style="fill:none;stroke:#cccccc;stroke-linecap:round;stroke-width:0.8;"/>
     </g>
     <g id="line2d_68"/>
     <g id="text_12">
      <!-- $\mathdefault{10^{-2}}$ -->
      <g style="fill:#262626;" transform="translate(238.222447 199.836122)">
       <text>
        <tspan style="font-family:Arial;font-size:10px;font-style:regular;font-weight:regular;" x="0 5.561523" y="-0.999375">10</tspan>
        <tspan style="font-family:Arial;font-size:7px;font-style:regular;font-weight:regular;" x="11.297281 15.385172" y="-7.96875">−2</tspan>
       </text>
      </g>
     </g>
    </g>
    <g id="xtick_4">
     <g id="line2d_69">
      <path clip-path="url(#pefb1232a87)" d="M 303.924797 186.023622 
L 303.924797 25.511811 
" style="fill:none;stroke:#cccccc;stroke-linecap:round;stroke-width:0.8;"/>
     </g>
     <g id="line2d_70"/>
     <g id="text_13">
      <!-- $\mathdefault{10^{0}}$ -->
      <g style="fill:#262626;" transform="translate(296.074797 199.836122)">
       <text>
        <tspan style="font-family:Arial;font-size:10px;font-style:regular;font-weight:regular;" x="0 5.561523" y="-0.999375">10</tspan>
        <tspan style="font-family:Arial;font-size:7px;font-style:regular;font-weight:regular;" x="11.297281" y="-7.96875">0</tspan>
       </text>
      </g>
     </g>
    </g>
    <g id="text_14">
     <!-- $\omega$ -->
     <g style="fill:#262626;" transform="translate(271.823622 212.981435)">
      <text>
       <tspan style="font-family:DejaVu Sans;font-size:10px;font-style:oblique;font-weight:oblique;" x="0" y="-0.53125">ω</tspan>
      </text>
     </g>
    </g>
   </g>
   <g id="matplotlib.axis_4">
    <g id="ytick_52">
     <g id="line2d_71">
      <path clip-path="url(#pefb1232a87)" d="M 214.641038 178.14613 
L 337.406207 178.14613 
" style="fill:none;stroke:#cccccc;stroke-linecap:round;stroke-width:0.8;"/>
     </g>
     <g id="line2d_72"/>
    </g>
    <g id="ytick_53">
     <g id="line2d_73">
      <path clip-path="url(#pefb1232a87)" d="M 214.641038 149.409558 
L 337.406207 149.409558 
" style="fill:none;stroke:#cccccc;stroke-linecap:round;stroke-width:0.8;"/>
     </g>
     <g id="line2d_74"/>
    </g>
    <g id="ytick_54">
     <g id="line2d_75">
      <path clip-path="url(#pefb1232a87)" d="M 214.641038 120.672986 
L 337.406207 120.672986 
" style="fill:none;stroke:#cccccc;stroke-linecap:round;stroke-width:0.8;"/>
     </g>
     <g id="line2d_76"/>
    </g>
    <g id="ytick_55">
     <g id="line2d_77">
      <path clip-path="url(#pefb1232a87)" d="M 214.641038 91.936415 
L 337.406207 91.936415 
" style="fill:none;stroke:#cccccc;stroke-linecap:round;stroke-width:0.8;"/>
     </g>
     <g id="line2d_78"/>
    </g>
    <g id="ytick_56">
     <g id="line2d_79">
      <path clip-path="url(#pefb1232a87)" d="M 214.641038 63.199843 
L 337.406207 63.199843 
" style="fill:none;stroke:#cccccc;stroke-linecap:round;stroke-width:0.8;"/>
     </g>
     <g id="line2d_80"/>
    </g>
    <g id="ytick_57">
     <g id="line2d_81">
      <path clip-path="url(#pefb1232a87)" d="M 214.641038 34.463271 
L 337.406207 34.463271 
" style="fill:none;stroke:#cccccc;stroke-linecap:round;stroke-width:0.8;"/>
     </g>
     <g id="line2d_82"/>
    </g>
    <g id="ytick_58">
     <g id="line2d_83"/>
    </g>
    <g id="ytick_59">
     <g id="line2d_84"/>
    </g>
    <g id="ytick_60">
     <g id="line2d_85"/>
    </g>
    <g id="ytick_61">
     <g id="line2d_86"/>
    </g>
    <g id="ytick_62">
     <g id="line2d_87"/>
    </g>
    <g id="ytick_63">
     <g id="line2d_88"/>
    </g>
    <g id="ytick_64">
     <g id="line2d_89"/>
    </g>
    <g id="ytick_65">
     <g id="line2d_90"/>
    </g>
    <g id="ytick_66">
     <g id="line2d_91"/>
    </g>
    <g id="ytick_67">
     <g id="line2d_92"/>
    </g>
    <g id="ytick_68">
     <g id="line2d_93"/>
    </g>
    <g id="ytick_69">
     <g id="line2d_94"/>
    </g>
    <g id="ytick_70">
     <g id="line2d_95"/>
    </g>
    <g id="ytick_71">
     <g id="line2d_96"/>
    </g>
    <g id="ytick_72">
     <g id="line2d_97"/>
    </g>
    <g id="ytick_73">
     <g id="line2d_98"/>
    </g>
    <g id="ytick_74">
     <g id="line2d_99"/>
    </g>
    <g id="ytick_75">
     <g id="line2d_100"/>
    </g>
    <g id="ytick_76">
     <g id="line2d_101"/>
    </g>
    <g id="ytick_77">
     <g id="line2d_102"/>
    </g>
    <g id="ytick_78">
     <g id="line2d_103"/>
    </g>
    <g id="ytick_79">
     <g id="line2d_104"/>
    </g>
    <g id="ytick_80">
     <g id="line2d_105"/>
    </g>
    <g id="ytick_81">
     <g id="line2d_106"/>
    </g>
    <g id="ytick_82">
     <g id="line2d_107"/>
    </g>
    <g id="ytick_83">
     <g id="line2d_108"/>
    </g>
    <g id="ytick_84">
     <g id="line2d_109"/>
    </g>
    <g id="ytick_85">
     <g id="line2d_110"/>
    </g>
    <g id="ytick_86">
     <g id="line2d_111"/>
    </g>
    <g id="ytick_87">
     <g id="line2d_112"/>
    </g>
    <g id="ytick_88">
     <g id="line2d_113"/>
    </g>
    <g id="ytick_89">
     <g id="line2d_114"/>
    </g>
    <g id="ytick_90">
     <g id="line2d_115"/>
    </g>
    <g id="ytick_91">
     <g id="line2d_116"/>
    </g>
    <g id="ytick_92">
     <g id="line2d_117"/>
    </g>
    <g id="ytick_93">
     <g id="line2d_118"/>
    </g>
    <g id="ytick_94">
     <g id="line2d_119"/>
    </g>
    <g id="ytick_95">
     <g id="line2d_120"/>
    </g>
    <g id="ytick_96">
     <g id="line2d_121"/>
    </g>
    <g id="ytick_97">
     <g id="line2d_122"/>
    </g>
    <g id="ytick_98">
     <g id="line2d_123"/>
    </g>
    <g id="ytick_99">
     <g id="line2d_124"/>
    </g>
    <g id="ytick_100">
     <g id="line2d_125"/>
    </g>
    <g id="ytick_101">
     <g id="line2d_126"/>
    </g>
    <g id="ytick_102">
     <g id="line2d_127"/>
    </g>
   </g>
   <g id="patch_10">
    <path clip-path="url(#pefb1232a87)" d="M 220.221272 186.023622 
L 220.221272 25.511811 
L 262.378583 25.511811 
L 262.378583 186.023622 
z
" style="fill:#008000;opacity:0.2;stroke:#008000;stroke-linejoin:miter;"/>
   </g>
   <g id="patch_11">
    <path clip-path="url(#pefb1232a87)" d="M 262.378583 186.023622 
L 262.378583 25.511811 
L 331.825972 25.511811 
L 331.825972 186.023622 
z
" style="fill:#ff0000;opacity:0.2;stroke:#ff0000;stroke-linejoin:miter;"/>
   </g>
   <g id="line2d_128">
    <path clip-path="url(#pefb1232a87)" d="M 220.221272 34.463645 
L 256.965214 34.576892 
L 263.561711 34.786771 
L 266.329785 35.084131 
L 268.238416 35.504736 
L 269.789876 36.070421 
L 271.173913 36.810338 
L 272.513303 37.782045 
L 273.886178 39.059711 
L 275.392992 40.776515 
L 277.201169 43.192954 
L 279.768334 47.035714 
L 287.179627 58.30784 
L 290.528103 62.888946 
L 294.044003 67.318346 
L 298.117982 72.08238 
L 303.38625 77.881636 
L 311.489562 86.436322 
L 330.174057 105.75287 
L 331.825972 107.455082 
L 331.825972 107.455082 
" style="fill:none;stroke:#6d8300;stroke-linecap:round;"/>
   </g>
   <g id="line2d_129">
    <path clip-path="url(#pefb1232a87)" d="M 220.221272 34.469238 
L 239.106676 34.598868 
L 245.424134 34.852006 
L 249.40882 35.222568 
L 252.355479 35.711289 
L 254.744058 36.327815 
L 256.79779 37.085328 
L 258.650613 38.005076 
L 260.402982 39.12509 
L 262.121867 40.491438 
L 263.874236 42.17465 
L 265.727059 44.272031 
L 267.758468 46.920075 
L 270.080077 50.327013 
L 272.937443 54.937771 
L 277.435563 62.682815 
L 282.971709 72.108302 
L 286.387155 77.475224 
L 289.568207 82.064232 
L 292.849713 86.405625 
L 296.499552 90.858214 
L 300.941863 95.913071 
L 307.069574 102.524627 
L 317.717727 113.638888 
L 331.825972 128.197651 
L 331.825972 128.197651 
" style="fill:none;stroke:#6d8300;stroke-linecap:round;"/>
   </g>
   <g id="line2d_130">
    <path clip-path="url(#pefb1232a87)" d="M 220.221272 73.636715 
L 243.325756 50.01449 
L 249.676698 43.820562 
L 253.572092 40.313604 
L 256.440619 38.016799 
L 258.784552 36.414213 
L 260.860607 35.2577 
L 262.813885 34.421064 
L 264.778324 33.82235 
L 266.921349 33.407338 
L 269.667099 33.118712 
L 275.147438 32.814128 
L 277.882026 32.873381 
L 281.543026 33.20898 
L 288.552502 33.849073 
L 294.624405 34.143898 
L 303.564836 34.332791 
L 320.731355 34.43532 
L 331.825972 34.452359 
L 331.825972 34.452359 
" style="fill:none;stroke:#be1e3c;stroke-linecap:round;"/>
   </g>
   <g id="line2d_131">
    <path clip-path="url(#pefb1232a87)" d="M 220.221272 88.997943 
L 262.880854 44.903208 
L 268.238416 39.334144 
L 270.225178 37.594158 
L 271.7878 36.509489 
L 273.205322 35.791131 
L 274.656328 35.307364 
L 276.341727 34.988438 
L 278.663337 34.793617 
L 282.915901 34.69926 
L 319.760297 34.490999 
L 331.825972 34.47382 
L 331.825972 34.47382 
" style="fill:none;stroke:#be1e3c;stroke-linecap:round;"/>
   </g>
   <g id="line2d_132">
    <path clip-path="url(#pefb1232a87)" d="M 275.805971 32.807802 
" style="fill:none;stroke:#ffffff;stroke-linecap:round;stroke-width:1.5;"/>
    <g clip-path="url(#pefb1232a87)">
     <use style="fill:#ffffff;stroke:#ffffff;" x="275.805971" xlink:href="#m78cb86e662" y="32.807802"/>
    </g>
   </g>
   <g id="patch_12">
    <path d="M 214.641038 186.023622 
L 214.641038 25.511811 
" style="fill:none;stroke:#cccccc;stroke-linecap:square;stroke-linejoin:miter;"/>
   </g>
   <g id="patch_13">
    <path d="M 337.406207 186.023622 
L 337.406207 25.511811 
" style="fill:none;stroke:#cccccc;stroke-linecap:square;stroke-linejoin:miter;"/>
   </g>
   <g id="patch_14">
    <path d="M 214.641038 186.023622 
L 337.406207 186.023622 
" style="fill:none;stroke:#cccccc;stroke-linecap:square;stroke-linejoin:miter;"/>
   </g>
   <g id="patch_15">
    <path d="M 214.641038 25.511811 
L 337.406207 25.511811 
" style="fill:none;stroke:#cccccc;stroke-linecap:square;stroke-linejoin:miter;"/>
   </g>
   <g id="text_15">
    <text style="fill:#262626;font-family:Arial;font-size:12px;font-style:normal;font-weight:400;text-anchor:middle;" transform="rotate(-0, 276.023622, 19.511811)" x="276.023622" y="19.511811">Astroem</text>
   </g>
  </g>
  <g id="axes_3">
   <g id="patch_16">
    <path d="M 361.95924 186.023622 
L 484.724409 186.023622 
L 484.724409 25.511811 
L 361.95924 25.511811 
z
" style="fill:#ffffff;"/>
   </g>
   <g id="matplotlib.axis_5">
    <g id="xtick_5">
     <g id="line2d_133">
      <path clip-path="url(#p144f462e43)" d="M 395.44065 186.023622 
L 395.44065 25.511811 
" style="fill:none;stroke:#cccccc;stroke-linecap:round;stroke-width:0.8;"/>
     </g>
     <g id="line2d_134"/>
     <g id="text_16">
      <!-- $\mathdefault{10^{-2}}$ -->
      <g style="fill:#262626;" transform="translate(385.54065 199.836122)">
       <text>
        <tspan style="font-family:Arial;font-size:10px;font-style:regular;font-weight:regular;" x="0 5.561523" y="-0.999375">10</tspan>
        <tspan style="font-family:Arial;font-size:7px;font-style:regular;font-weight:regular;" x="11.297281 15.385172" y="-7.96875">−2</tspan>
       </text>
      </g>
     </g>
    </g>
    <g id="xtick_6">
     <g id="line2d_135">
      <path clip-path="url(#p144f462e43)" d="M 451.243 186.023622 
L 451.243 25.511811 
" style="fill:none;stroke:#cccccc;stroke-linecap:round;stroke-width:0.8;"/>
     </g>
     <g id="line2d_136"/>
     <g id="text_17">
      <!-- $\mathdefault{10^{0}}$ -->
      <g style="fill:#262626;" transform="translate(443.393 199.836122)">
       <text>
        <tspan style="font-family:Arial;font-size:10px;font-style:regular;font-weight:regular;" x="0 5.561523" y="-0.999375">10</tspan>
        <tspan style="font-family:Arial;font-size:7px;font-style:regular;font-weight:regular;" x="11.297281" y="-7.96875">0</tspan>
       </text>
      </g>
     </g>
    </g>
    <g id="text_18">
     <!-- $\omega$ -->
     <g style="fill:#262626;" transform="translate(419.141825 212.981435)">
      <text>
       <tspan style="font-family:DejaVu Sans;font-size:10px;font-style:oblique;font-weight:oblique;" x="0" y="-0.53125">ω</tspan>
      </text>
     </g>
    </g>
   </g>
   <g id="matplotlib.axis_6">
    <g id="ytick_103">
     <g id="line2d_137">
      <path clip-path="url(#p144f462e43)" d="M 361.95924 178.14613 
L 484.724409 178.14613 
" style="fill:none;stroke:#cccccc;stroke-linecap:round;stroke-width:0.8;"/>
     </g>
     <g id="line2d_138"/>
    </g>
    <g id="ytick_104">
     <g id="line2d_139">
      <path clip-path="url(#p144f462e43)" d="M 361.95924 149.409558 
L 484.724409 149.409558 
" style="fill:none;stroke:#cccccc;stroke-linecap:round;stroke-width:0.8;"/>
     </g>
     <g id="line2d_140"/>
    </g>
    <g id="ytick_105">
     <g id="line2d_141">
      <path clip-path="url(#p144f462e43)" d="M 361.95924 120.672986 
L 484.724409 120.672986 
" style="fill:none;stroke:#cccccc;stroke-linecap:round;stroke-width:0.8;"/>
     </g>
     <g id="line2d_142"/>
    </g>
    <g id="ytick_106">
     <g id="line2d_143">
      <path clip-path="url(#p144f462e43)" d="M 361.95924 91.936415 
L 484.724409 91.936415 
" style="fill:none;stroke:#cccccc;stroke-linecap:round;stroke-width:0.8;"/>
     </g>
     <g id="line2d_144"/>
    </g>
    <g id="ytick_107">
     <g id="line2d_145">
      <path clip-path="url(#p144f462e43)" d="M 361.95924 63.199843 
L 484.724409 63.199843 
" style="fill:none;stroke:#cccccc;stroke-linecap:round;stroke-width:0.8;"/>
     </g>
     <g id="line2d_146"/>
    </g>
    <g id="ytick_108">
     <g id="line2d_147">
      <path clip-path="url(#p144f462e43)" d="M 361.95924 34.463271 
L 484.724409 34.463271 
" style="fill:none;stroke:#cccccc;stroke-linecap:round;stroke-width:0.8;"/>
     </g>
     <g id="line2d_148"/>
    </g>
    <g id="ytick_109">
     <g id="line2d_149"/>
    </g>
    <g id="ytick_110">
     <g id="line2d_150"/>
    </g>
    <g id="ytick_111">
     <g id="line2d_151"/>
    </g>
    <g id="ytick_112">
     <g id="line2d_152"/>
    </g>
    <g id="ytick_113">
     <g id="line2d_153"/>
    </g>
    <g id="ytick_114">
     <g id="line2d_154"/>
    </g>
    <g id="ytick_115">
     <g id="line2d_155"/>
    </g>
    <g id="ytick_116">
     <g id="line2d_156"/>
    </g>
    <g id="ytick_117">
     <g id="line2d_157"/>
    </g>
    <g id="ytick_118">
     <g id="line2d_158"/>
    </g>
    <g id="ytick_119">
     <g id="line2d_159"/>
    </g>
    <g id="ytick_120">
     <g id="line2d_160"/>
    </g>
    <g id="ytick_121">
     <g id="line2d_161"/>
    </g>
    <g id="ytick_122">
     <g id="line2d_162"/>
    </g>
    <g id="ytick_123">
     <g id="line2d_163"/>
    </g>
    <g id="ytick_124">
     <g id="line2d_164"/>
    </g>
    <g id="ytick_125">
     <g id="line2d_165"/>
    </g>
    <g id="ytick_126">
     <g id="line2d_166"/>
    </g>
    <g id="ytick_127">
     <g id="line2d_167"/>
    </g>
    <g id="ytick_128">
     <g id="line2d_168"/>
    </g>
    <g id="ytick_129">
     <g id="line2d_169"/>
    </g>
    <g id="ytick_130">
     <g id="line2d_170"/>
    </g>
    <g id="ytick_131">
     <g id="line2d_171"/>
    </g>
    <g id="ytick_132">
     <g id="line2d_172"/>
    </g>
    <g id="ytick_133">
     <g id="line2d_173"/>
    </g>
    <g id="ytick_134">
     <g id="line2d_174"/>
    </g>
    <g id="ytick_135">
     <g id="line2d_175"/>
    </g>
    <g id="ytick_136">
     <g id="line2d_176"/>
    </g>
    <g id="ytick_137">
     <g id="line2d_177"/>
    </g>
    <g id="ytick_138">
     <g id="line2d_178"/>
    </g>
    <g id="ytick_139">
     <g id="line2d_179"/>
    </g>
    <g id="ytick_140">
     <g id="line2d_180"/>
    </g>
    <g id="ytick_141">
     <g id="line2d_181"/>
    </g>
    <g id="ytick_142">
     <g id="line2d_182"/>
    </g>
    <g id="ytick_143">
     <g id="line2d_183"/>
    </g>
    <g id="ytick_144">
     <g id="line2d_184"/>
    </g>
    <g id="ytick_145">
     <g id="line2d_185"/>
    </g>
    <g id="ytick_146">
     <g id="line2d_186"/>
    </g>
    <g id="ytick_147">
     <g id="line2d_187"/>
    </g>
    <g id="ytick_148">
     <g id="line2d_188"/>
    </g>
    <g id="ytick_149">
     <g id="line2d_189"/>
    </g>
    <g id="ytick_150">
     <g id="line2d_190"/>
    </g>
    <g id="ytick_151">
     <g id="line2d_191"/>
    </g>
    <g id="ytick_152">
     <g id="line2d_192"/>
    </g>
    <g id="ytick_153">
     <g id="line2d_193"/>
    </g>
   </g>
   <g id="patch_17">
    <path clip-path="url(#p144f462e43)" d="M 367.539475 186.023622 
L 367.539475 25.511811 
L 415.110155 25.511811 
L 415.110155 186.023622 
z
" style="fill:#008000;opacity:0.2;stroke:#008000;stroke-linejoin:miter;"/>
   </g>
   <g id="patch_18">
    <path clip-path="url(#p144f462e43)" d="M 415.110155 186.023622 
L 415.110155 25.511811 
L 479.144174 25.511811 
L 479.144174 186.023622 
z
" style="fill:#ff0000;opacity:0.2;stroke:#ff0000;stroke-linejoin:miter;"/>
   </g>
   <g id="line2d_194">
    <path clip-path="url(#p144f462e43)" d="M 367.539475 34.468707 
L 387.005281 34.597084 
L 393.579456 34.852032 
L 397.854343 35.229848 
L 401.124688 35.734554 
L 403.836953 36.373505 
L 406.180886 37.14992 
L 408.290426 38.080549 
L 410.232542 39.179311 
L 412.074204 40.478493 
L 413.848896 42.004273 
L 415.623588 43.827943 
L 417.442927 46.023739 
L 419.373881 48.713491 
L 421.505744 52.079663 
L 423.972455 56.408688 
L 427.075375 62.331082 
L 431.662787 71.617668 
L 479.144174 169.684721 
L 479.144174 169.684721 
" style="fill:none;stroke:#6d8300;stroke-linecap:round;"/>
   </g>
   <g id="line2d_195">
    <path clip-path="url(#p144f462e43)" d="M 367.539475 34.475342 
L 383.009434 34.61727 
L 389.181791 34.884047 
L 393.266931 35.272774 
L 396.414499 35.788421 
L 399.037471 36.438249 
L 401.34792 37.236038 
L 403.479783 38.206507 
L 405.511191 39.376904 
L 407.497953 40.779678 
L 409.507039 42.474027 
L 411.583094 44.52191 
L 413.770765 47.000614 
L 416.114698 50.002265 
L 418.670701 53.647427 
L 421.528067 58.122003 
L 424.831897 63.724897 
L 428.79426 70.901282 
L 433.750004 80.359147 
L 440.379986 93.523281 
L 451.217886 115.603913 
L 479.144174 173.076393 
L 479.144174 173.076393 
" style="fill:none;stroke:#6d8300;stroke-linecap:round;"/>
   </g>
   <g id="line2d_196">
    <path clip-path="url(#p144f462e43)" d="M 367.539475 74.850733 
L 386.982958 55.009534 
L 393.579456 48.578572 
L 397.921313 44.640432 
L 401.314435 41.852442 
L 404.23877 39.73117 
L 406.939874 38.042487 
L 409.574008 36.65569 
L 412.152335 35.546069 
L 414.619045 34.722581 
L 417.007625 34.158323 
L 419.463174 33.809567 
L 422.231247 33.648492 
L 425.914571 33.674465 
L 454.041767 34.376885 
L 479.144174 34.45263 
L 479.144174 34.45263 
" style="fill:none;stroke:#be1e3c;stroke-linecap:round;"/>
   </g>
   <g id="line2d_197">
    <path clip-path="url(#p144f462e43)" d="M 367.539475 76.700355 
L 387.574522 56.247897 
L 394.260312 49.724234 
L 398.669139 45.717739 
L 402.084584 42.902707 
L 404.953112 40.81734 
L 407.486792 39.243911 
L 409.819563 38.05311 
L 412.085365 37.14494 
L 414.429298 36.446526 
L 417.029948 35.908523 
L 420.155192 35.498073 
L 424.396595 35.18136 
L 431.551171 34.90002 
L 444.197248 34.639802 
L 462.535734 34.504427 
L 479.144174 34.473837 
L 479.144174 34.473837 
" style="fill:none;stroke:#be1e3c;stroke-linecap:round;"/>
   </g>
   <g id="line2d_198">
    <path clip-path="url(#p144f462e43)" d="M 423.470183 33.634857 
" style="fill:none;stroke:#ffffff;stroke-linecap:round;stroke-width:1.5;"/>
    <g clip-path="url(#p144f462e43)">
     <use style="fill:#ffffff;stroke:#ffffff;" x="423.470183" xlink:href="#m78cb86e662" y="33.634857"/>
    </g>
   </g>
   <g id="patch_19">
    <path d="M 361.95924 186.023622 
L 361.95924 25.511811 
" style="fill:none;stroke:#cccccc;stroke-linecap:square;stroke-linejoin:miter;"/>
   </g>
   <g id="patch_20">
    <path d="M 484.724409 186.023622 
L 484.724409 25.511811 
" style="fill:none;stroke:#cccccc;stroke-linecap:square;stroke-linejoin:miter;"/>
   </g>
   <g id="patch_21">
    <path d="M 361.95924 186.023622 
L 484.724409 186.023622 
" style="fill:none;stroke:#cccccc;stroke-linecap:square;stroke-linejoin:miter;"/>
   </g>
   <g id="patch_22">
    <path d="M 361.95924 25.511811 
L 484.724409 25.511811 
" style="fill:none;stroke:#cccccc;stroke-linecap:square;stroke-linejoin:miter;"/>
   </g>
   <g id="text_19">
    <text style="fill:#262626;font-family:Arial;font-size:12px;font-style:normal;font-weight:400;text-anchor:middle;" transform="rotate(-0, 423.341825, 19.511811)" x="423.341825" y="19.511811">R2D2</text>
   </g>
  </g>
 </g>
 <defs>
  <clipPath id="p2abe4fe162">
   <rect height="160.511811" width="122.765169" x="67.322835" y="25.511811"/>
  </clipPath>
  <clipPath id="pefb1232a87">
   <rect height="160.511811" width="122.765169" x="214.641038" y="25.511811"/>
  </clipPath>
  <clipPath id="p144f462e43">
   <rect height="160.511811" width="122.765169" x="361.95924" y="25.511811"/>
  </clipPath>
 </defs>
</svg>
