<?xml version="1.0" encoding="utf-8" standalone="no"?>
<!DOCTYPE svg PUBLIC "-//W3C//DTD SVG 1.1//EN"
  "http://www.w3.org/Graphics/SVG/1.1/DTD/svg11.dtd">
<!-- Created with matplotlib (http://matplotlib.org/) -->
<svg height="425pt" version="1.1" viewBox="0 0 538 425" width="538pt" xmlns="http://www.w3.org/2000/svg" xmlns:xlink="http://www.w3.org/1999/xlink">
 <defs>
  <style type="text/css">
*{stroke-linecap:butt;stroke-linejoin:round;}
  </style>
 </defs>
 <g id="figure_1">
  <g id="patch_1">
   <path d="M 0 425.19685 
L 538.582677 425.19685 
L 538.582677 0 
L 0 0 
z
" style="fill:#ffffff;"/>
  </g>
  <g id="axes_1">
   <g id="patch_2">
    <path d="M 67.322835 196.94345 
L 484.724409 196.94345 
L 484.724409 51.023622 
L 67.322835 51.023622 
z
" style="fill:#ffffff;"/>
   </g>
   <g id="matplotlib.axis_1">
    <g id="xtick_1">
     <g id="line2d_1">
      <path clip-path="url(#pcaf0851ac8)" d="M 86.295634 196.94345 
L 86.295634 51.023622 
" style="fill:none;stroke:#cccccc;stroke-linecap:round;stroke-width:0.8;"/>
     </g>
     <g id="line2d_2"/>
    </g>
    <g id="xtick_2">
     <g id="line2d_3">
      <path clip-path="url(#pcaf0851ac8)" d="M 149.538296 196.94345 
L 149.538296 51.023622 
" style="fill:none;stroke:#cccccc;stroke-linecap:round;stroke-width:0.8;"/>
     </g>
     <g id="line2d_4"/>
    </g>
    <g id="xtick_3">
     <g id="line2d_5">
      <path clip-path="url(#pcaf0851ac8)" d="M 212.780959 196.94345 
L 212.780959 51.023622 
" style="fill:none;stroke:#cccccc;stroke-linecap:round;stroke-width:0.8;"/>
     </g>
     <g id="line2d_6"/>
    </g>
    <g id="xtick_4">
     <g id="line2d_7">
      <path clip-path="url(#pcaf0851ac8)" d="M 276.023622 196.94345 
L 276.023622 51.023622 
" style="fill:none;stroke:#cccccc;stroke-linecap:round;stroke-width:0.8;"/>
     </g>
     <g id="line2d_8"/>
    </g>
    <g id="xtick_5">
     <g id="line2d_9">
      <path clip-path="url(#pcaf0851ac8)" d="M 339.266285 196.94345 
L 339.266285 51.023622 
" style="fill:none;stroke:#cccccc;stroke-linecap:round;stroke-width:0.8;"/>
     </g>
     <g id="line2d_10"/>
    </g>
    <g id="xtick_6">
     <g id="line2d_11">
      <path clip-path="url(#pcaf0851ac8)" d="M 402.508948 196.94345 
L 402.508948 51.023622 
" style="fill:none;stroke:#cccccc;stroke-linecap:round;stroke-width:0.8;"/>
     </g>
     <g id="line2d_12"/>
    </g>
    <g id="xtick_7">
     <g id="line2d_13">
      <path clip-path="url(#pcaf0851ac8)" d="M 465.751611 196.94345 
L 465.751611 51.023622 
" style="fill:none;stroke:#cccccc;stroke-linecap:round;stroke-width:0.8;"/>
     </g>
     <g id="line2d_14"/>
    </g>
   </g>
   <g id="matplotlib.axis_2">
    <g id="ytick_1">
     <g id="line2d_15">
      <path clip-path="url(#pcaf0851ac8)" d="M 67.322835 190.310731 
L 484.724409 190.310731 
" style="fill:none;stroke:#cccccc;stroke-linecap:round;stroke-width:0.8;"/>
     </g>
     <g id="line2d_16"/>
     <g id="text_1">
      <text style="fill:#262626;font-family:Arial;font-size:10px;font-style:normal;font-weight:400;text-anchor:end;" transform="rotate(-0, 63.822835, 193.889637)" x="63.822835" y="193.889637">0.00</text>
     </g>
    </g>
    <g id="ytick_2">
     <g id="line2d_17">
      <path clip-path="url(#pcaf0851ac8)" d="M 67.322835 165.716722 
L 484.724409 165.716722 
" style="fill:none;stroke:#cccccc;stroke-linecap:round;stroke-width:0.8;"/>
     </g>
     <g id="line2d_18"/>
     <g id="text_2">
      <text style="fill:#262626;font-family:Arial;font-size:10px;font-style:normal;font-weight:400;text-anchor:end;" transform="rotate(-0, 63.822835, 169.295629)" x="63.822835" y="169.295629">0.25</text>
     </g>
    </g>
    <g id="ytick_3">
     <g id="line2d_19">
      <path clip-path="url(#pcaf0851ac8)" d="M 67.322835 141.122714 
L 484.724409 141.122714 
" style="fill:none;stroke:#cccccc;stroke-linecap:round;stroke-width:0.8;"/>
     </g>
     <g id="line2d_20"/>
     <g id="text_3">
      <text style="fill:#262626;font-family:Arial;font-size:10px;font-style:normal;font-weight:400;text-anchor:end;" transform="rotate(-0, 63.822835, 144.70162)" x="63.822835" y="144.70162">0.50</text>
     </g>
    </g>
    <g id="ytick_4">
     <g id="line2d_21">
      <path clip-path="url(#pcaf0851ac8)" d="M 67.322835 116.528706 
L 484.724409 116.528706 
" style="fill:none;stroke:#cccccc;stroke-linecap:round;stroke-width:0.8;"/>
     </g>
     <g id="line2d_22"/>
     <g id="text_4">
      <text style="fill:#262626;font-family:Arial;font-size:10px;font-style:normal;font-weight:400;text-anchor:end;" transform="rotate(-0, 63.822835, 120.107612)" x="63.822835" y="120.107612">0.75</text>
     </g>
    </g>
    <g id="ytick_5">
     <g id="line2d_23">
      <path clip-path="url(#pcaf0851ac8)" d="M 67.322835 91.934697 
L 484.724409 91.934697 
" style="fill:none;stroke:#cccccc;stroke-linecap:round;stroke-width:0.8;"/>
     </g>
     <g id="line2d_24"/>
     <g id="text_5">
      <text style="fill:#262626;font-family:Arial;font-size:10px;font-style:normal;font-weight:400;text-anchor:end;" transform="rotate(-0, 63.822835, 95.513604)" x="63.822835" y="95.513604">1.00</text>
     </g>
    </g>
    <g id="ytick_6">
     <g id="line2d_25">
      <path clip-path="url(#pcaf0851ac8)" d="M 67.322835 67.340689 
L 484.724409 67.340689 
" style="fill:none;stroke:#cccccc;stroke-linecap:round;stroke-width:0.8;"/>
     </g>
     <g id="line2d_26"/>
     <g id="text_6">
      <text style="fill:#262626;font-family:Arial;font-size:10px;font-style:normal;font-weight:400;text-anchor:end;" transform="rotate(-0, 63.822835, 70.919595)" x="63.822835" y="70.919595">1.25</text>
     </g>
    </g>
    <g id="text_7">
     <!-- $y_1$ -->
     <g style="fill:#262626;" transform="translate(38.261897 129.333536)rotate(-90)">
      <text>
       <tspan style="font-family:DejaVu Sans;font-size:10px;font-style:oblique;font-weight:oblique;" x="0" y="-0.53125">y</tspan>
       <tspan style="font-family:DejaVu Sans;font-size:7px;font-style:book;font-weight:book;" x="5.917969" y="1.109375">1</tspan>
      </text>
     </g>
    </g>
   </g>
   <g id="line2d_27">
    <path clip-path="url(#pcaf0851ac8)" d="M 86.295634 190.310731 
L 87.117788 190.20924 
L 87.370759 189.767866 
L 87.686972 188.734804 
L 88.129671 186.448521 
L 89.015068 180.218591 
L 91.165319 163.040576 
L 96.983644 117.161286 
L 98.438225 107.846124 
L 99.766321 100.690866 
L 100.967931 95.346082 
L 102.106299 91.267085 
L 103.118182 88.414814 
L 104.066822 86.360167 
L 104.952219 84.939519 
L 105.774374 84.010428 
L 106.596528 83.418703 
L 107.35544 83.137015 
L 108.177595 83.076585 
L 108.999749 83.241236 
L 109.948389 83.666122 
L 111.086757 84.436072 
L 112.604581 85.762461 
L 119.181818 91.890406 
L 120.826127 92.943904 
L 122.343951 93.661906 
L 123.861775 94.139155 
L 125.442842 94.400677 
L 127.150394 94.450813 
L 129.110916 94.274655 
L 131.640623 93.803418 
L 141.190265 91.796495 
L 144.289155 91.500653 
L 147.704259 91.40394 
L 152.194488 91.518809 
L 166.677058 92.041115 
L 175.973729 92.012625 
L 197.160021 91.924444 
L 276.909019 92.051782 
L 277.225233 92.500661 
L 277.604689 93.475507 
L 278.237115 95.884948 
L 279.375483 99.966605 
L 280.197638 102.173985 
L 280.893307 103.466718 
L 281.525734 104.204861 
L 282.15816 104.611261 
L 282.85383 104.803151 
L 283.612742 104.785821 
L 284.371654 104.551906 
L 285.193808 104.057325 
L 286.079205 103.246532 
L 287.091088 101.993323 
L 288.355941 100.047005 
L 290.442949 96.361525 
L 293.731568 90.601698 
L 295.43912 88.077478 
L 296.830458 86.394803 
L 298.095311 85.200117 
L 299.296922 84.36217 
L 300.43529 83.830077 
L 301.573658 83.538928 
L 302.712026 83.470497 
L 303.976879 83.625495 
L 305.368218 84.034851 
L 307.012527 84.770315 
L 309.162777 86.002811 
L 316.372441 90.339549 
L 318.585934 91.304255 
L 320.672942 91.978965 
L 322.823193 92.441753 
L 325.099928 92.704528 
L 327.75612 92.776969 
L 331.234467 92.627801 
L 346.412706 91.715198 
L 353.306156 91.743875 
L 373.417323 91.936504 
L 465.751611 91.935596 
L 465.751611 91.935596 
" style="fill:none;stroke:#000000;stroke-dasharray:3.7,1.6;stroke-dashoffset:0;"/>
   </g>
   <g id="line2d_28">
    <path clip-path="url(#pcaf0851ac8)" d="M 86.295634 190.310731 
L 87.465623 190.20243 
L 88.066428 189.848804 
L 88.730476 189.189671 
L 89.489388 188.132289 
L 90.469649 186.340691 
L 91.702881 183.5295 
L 93.125841 179.686362 
L 95.339334 172.953762 
L 100.430369 157.292122 
L 102.738726 150.99982 
L 104.888976 145.764994 
L 106.944363 141.33346 
L 108.999749 137.41823 
L 111.086757 133.912598 
L 113.205387 130.781433 
L 115.41888 127.906053 
L 117.727237 125.271266 
L 120.162079 122.825626 
L 122.755029 120.53196 
L 125.569327 118.337394 
L 128.699839 116.182813 
L 132.146564 114.084862 
L 135.909503 112.056442 
L 139.957033 110.126527 
L 144.320777 108.285393 
L 149.664782 106.292957 
L 154.597709 104.698429 
L 160.763869 102.954462 
L 166.424087 101.595175 
L 173.918343 100.016894 
L 181.159628 98.739924 
L 188.653883 97.649411 
L 197.286507 96.619803 
L 207.626682 95.618123 
L 218.883876 94.747321 
L 230.773497 94.060892 
L 244.307427 93.497625 
L 266.347495 92.891211 
L 278.521707 92.495321 
L 279.154134 92.115685 
L 279.881424 91.396809 
L 280.703579 90.265126 
L 281.810326 88.301968 
L 283.264907 85.208272 
L 285.984341 78.778068 
L 288.608912 72.812042 
L 290.506192 69.028664 
L 292.213744 66.107829 
L 293.79481 63.835024 
L 295.312634 62.03469 
L 296.767215 60.639504 
L 298.190175 59.568936 
L 299.644757 58.746534 
L 301.130959 58.166369 
L 302.648783 57.810079 
L 304.261471 57.660957 
L 306.000644 57.727447 
L 307.929545 58.030676 
L 310.111417 58.608058 
L 312.672745 59.527587 
L 315.8665 60.923848 
L 320.641321 63.278183 
L 335.81956 70.929777 
L 341.258429 73.33254 
L 346.539191 75.429447 
L 352.167788 77.426562 
L 358.017734 79.262388 
L 363.994166 80.904671 
L 370.350054 82.418666 
L 377.180261 83.819405 
L 384.674517 85.118103 
L 392.137151 86.201539 
L 401.560308 87.335549 
L 411.426163 88.256215 
L 423.790104 89.177413 
L 436.912956 89.934915 
L 449.687974 90.440853 
L 465.751611 90.893449 
L 465.751611 90.893449 
" style="fill:none;stroke:#00709b;stroke-linecap:round;"/>
   </g>
   <g id="line2d_29">
    <path clip-path="url(#pcaf0851ac8)" d="M 86.295634 190.310731 
L 87.275895 190.204875 
L 87.686972 189.834462 
L 88.161292 189.084201 
L 88.983447 187.228565 
L 90.026951 184.272657 
L 91.323425 179.884039 
L 92.967734 173.476657 
L 95.181228 163.876305 
L 102.169542 132.970481 
L 104.414656 124.338468 
L 106.438422 117.416484 
L 108.30408 111.801019 
L 110.074875 107.159588 
L 111.750805 103.371424 
L 113.363493 100.254634 
L 114.94456 97.67032 
L 116.494005 95.557545 
L 118.011829 93.856446 
L 119.529653 92.482968 
L 121.079098 91.382541 
L 122.660165 90.535753 
L 124.304474 89.90927 
L 126.075268 89.478457 
L 128.00417 89.243713 
L 130.217663 89.207158 
L 132.873855 89.395929 
L 136.510308 89.895181 
L 149.063976 91.78521 
L 153.965283 92.199394 
L 159.309288 92.421302 
L 165.886525 92.458853 
L 177.143719 92.259703 
L 195.515712 91.980903 
L 216.543898 91.921145 
L 276.68767 91.995163 
L 277.826038 94.479473 
L 278.079009 94.842392 
L 279.691696 96.076167 
L 281.43087 97.123077 
L 283.486256 98.095106 
L 285.225429 98.676248 
L 286.964603 99.022188 
L 288.735397 99.146225 
L 290.601056 99.052473 
L 292.624821 98.726186 
L 294.9648 98.114417 
L 297.779098 97.134771 
L 301.889871 95.440567 
L 309.099535 92.461021 
L 312.767609 91.196612 
L 316.182713 90.248965 
L 319.534574 89.544697 
L 323.012921 89.041322 
L 326.744238 88.730437 
L 330.886632 88.614232 
L 335.787938 88.707147 
L 342.586525 89.077596 
L 372.215712 90.936617 
L 384.832623 91.364164 
L 400.516804 91.661996 
L 423.884968 91.85112 
L 465.467019 91.930219 
L 465.751611 91.930319 
L 465.751611 91.930319 
" style="fill:none;stroke:#be1e3c;stroke-linecap:round;"/>
   </g>
   <g id="line2d_30">
    <path clip-path="url(#pcaf0851ac8)" d="M 86.295634 190.310731 
L 87.307516 190.201268 
L 87.750215 189.822102 
L 88.256156 189.069354 
L 89.141553 187.282578 
L 90.438028 184.128957 
L 92.335308 178.888038 
L 94.169345 173.123301 
L 96.920401 163.538128 
L 101.284145 148.455634 
L 103.940336 140.076678 
L 106.280315 133.413474 
L 108.430565 127.940901 
L 110.517573 123.223618 
L 112.57296 119.12867 
L 114.565104 115.647638 
L 116.557248 112.607253 
L 118.581013 109.921833 
L 120.604778 107.600351 
L 122.660165 105.577802 
L 124.810415 103.767933 
L 127.05553 102.168947 
L 129.458751 100.730906 
L 132.0517 99.438691 
L 134.89762 98.273106 
L 138.028132 97.230169 
L 141.696206 96.253542 
L 145.838601 95.390408 
L 150.5818 94.628416 
L 156.178776 93.947952 
L 162.344936 93.394169 
L 170.218647 92.900716 
L 181.570705 92.449678 
L 195.484091 92.166817 
L 215.784986 92.013833 
L 265.367233 91.941088 
L 276.972262 92.035628 
L 277.383339 92.392558 
L 277.889281 93.17599 
L 279.976288 96.980606 
L 281.051414 98.443293 
L 282.094918 99.481909 
L 283.549499 100.59452 
L 285.067323 101.488511 
L 286.363797 102.000475 
L 287.628651 102.254564 
L 288.893504 102.27827 
L 290.253221 102.079391 
L 291.771045 101.628503 
L 293.510218 100.873018 
L 295.628848 99.696148 
L 298.632874 97.744582 
L 306.000644 92.865861 
L 309.099535 91.162337 
L 311.818969 89.928433 
L 314.285433 89.028744 
L 316.941625 88.288711 
L 319.629438 87.770681 
L 322.538601 87.442779 
L 325.732355 87.310248 
L 329.400429 87.395279 
L 333.827416 87.714397 
L 342.23869 88.624524 
L 355.361543 90.029491 
L 363.266875 90.642655 
L 372.468683 91.114127 
L 383.757498 91.474014 
L 399.631407 91.741692 
L 423.884968 91.890174 
L 465.751611 91.928357 
L 465.751611 91.928357 
" style="fill:none;stroke:#e16d00;stroke-linecap:round;"/>
   </g>
   <g id="patch_3">
    <path d="M 67.322835 196.94345 
L 67.322835 51.023622 
" style="fill:none;stroke:#cccccc;stroke-linecap:square;stroke-linejoin:miter;"/>
   </g>
   <g id="patch_4">
    <path d="M 484.724409 196.94345 
L 484.724409 51.023622 
" style="fill:none;stroke:#cccccc;stroke-linecap:square;stroke-linejoin:miter;"/>
   </g>
   <g id="patch_5">
    <path d="M 67.322835 196.94345 
L 484.724409 196.94345 
" style="fill:none;stroke:#cccccc;stroke-linecap:square;stroke-linejoin:miter;"/>
   </g>
   <g id="patch_6">
    <path d="M 67.322835 51.023622 
L 484.724409 51.023622 
" style="fill:none;stroke:#cccccc;stroke-linecap:square;stroke-linejoin:miter;"/>
   </g>
  </g>
  <g id="axes_2">
   <g id="patch_7">
    <path d="M 67.322835 372.047244 
L 484.724409 372.047244 
L 484.724409 226.127416 
L 67.322835 226.127416 
z
" style="fill:#ffffff;"/>
   </g>
   <g id="matplotlib.axis_3">
    <g id="xtick_8">
     <g id="line2d_31">
      <path clip-path="url(#p8d1b67c961)" d="M 86.295634 372.047244 
L 86.295634 226.127416 
" style="fill:none;stroke:#cccccc;stroke-linecap:round;stroke-width:0.8;"/>
     </g>
     <g id="line2d_32"/>
     <g id="text_8">
      <text style="fill:#262626;font-family:Arial;font-size:10px;font-style:normal;font-weight:400;text-anchor:middle;" transform="rotate(-0, 86.295634, 382.705057)" x="86.295634" y="382.705057">0</text>
     </g>
    </g>
    <g id="xtick_9">
     <g id="line2d_33">
      <path clip-path="url(#p8d1b67c961)" d="M 149.538296 372.047244 
L 149.538296 226.127416 
" style="fill:none;stroke:#cccccc;stroke-linecap:round;stroke-width:0.8;"/>
     </g>
     <g id="line2d_34"/>
     <g id="text_9">
      <text style="fill:#262626;font-family:Arial;font-size:10px;font-style:normal;font-weight:400;text-anchor:middle;" transform="rotate(-0, 149.538296, 382.705057)" x="149.538296" y="382.705057">100</text>
     </g>
    </g>
    <g id="xtick_10">
     <g id="line2d_35">
      <path clip-path="url(#p8d1b67c961)" d="M 212.780959 372.047244 
L 212.780959 226.127416 
" style="fill:none;stroke:#cccccc;stroke-linecap:round;stroke-width:0.8;"/>
     </g>
     <g id="line2d_36"/>
     <g id="text_10">
      <text style="fill:#262626;font-family:Arial;font-size:10px;font-style:normal;font-weight:400;text-anchor:middle;" transform="rotate(-0, 212.780959, 382.705057)" x="212.780959" y="382.705057">200</text>
     </g>
    </g>
    <g id="xtick_11">
     <g id="line2d_37">
      <path clip-path="url(#p8d1b67c961)" d="M 276.023622 372.047244 
L 276.023622 226.127416 
" style="fill:none;stroke:#cccccc;stroke-linecap:round;stroke-width:0.8;"/>
     </g>
     <g id="line2d_38"/>
     <g id="text_11">
      <text style="fill:#262626;font-family:Arial;font-size:10px;font-style:normal;font-weight:400;text-anchor:middle;" transform="rotate(-0, 276.023622, 382.705057)" x="276.023622" y="382.705057">300</text>
     </g>
    </g>
    <g id="xtick_12">
     <g id="line2d_39">
      <path clip-path="url(#p8d1b67c961)" d="M 339.266285 372.047244 
L 339.266285 226.127416 
" style="fill:none;stroke:#cccccc;stroke-linecap:round;stroke-width:0.8;"/>
     </g>
     <g id="line2d_40"/>
     <g id="text_12">
      <text style="fill:#262626;font-family:Arial;font-size:10px;font-style:normal;font-weight:400;text-anchor:middle;" transform="rotate(-0, 339.266285, 382.705057)" x="339.266285" y="382.705057">400</text>
     </g>
    </g>
    <g id="xtick_13">
     <g id="line2d_41">
      <path clip-path="url(#p8d1b67c961)" d="M 402.508948 372.047244 
L 402.508948 226.127416 
" style="fill:none;stroke:#cccccc;stroke-linecap:round;stroke-width:0.8;"/>
     </g>
     <g id="line2d_42"/>
     <g id="text_13">
      <text style="fill:#262626;font-family:Arial;font-size:10px;font-style:normal;font-weight:400;text-anchor:middle;" transform="rotate(-0, 402.508948, 382.705057)" x="402.508948" y="382.705057">500</text>
     </g>
    </g>
    <g id="xtick_14">
     <g id="line2d_43">
      <path clip-path="url(#p8d1b67c961)" d="M 465.751611 372.047244 
L 465.751611 226.127416 
" style="fill:none;stroke:#cccccc;stroke-linecap:round;stroke-width:0.8;"/>
     </g>
     <g id="line2d_44"/>
     <g id="text_14">
      <text style="fill:#262626;font-family:Arial;font-size:10px;font-style:normal;font-weight:400;text-anchor:middle;" transform="rotate(-0, 465.751611, 382.705057)" x="465.751611" y="382.705057">600</text>
     </g>
    </g>
    <g id="text_15">
     <text style="fill:#262626;font-family:Arial;font-size:10px;font-style:normal;font-weight:400;text-anchor:middle;" transform="rotate(-0, 276.023622, 395.850369)" x="276.023622" y="395.850369">Time [s]</text>
    </g>
   </g>
   <g id="matplotlib.axis_4">
    <g id="ytick_7">
     <g id="line2d_45">
      <path clip-path="url(#p8d1b67c961)" d="M 67.322835 371.015854 
L 484.724409 371.015854 
" style="fill:none;stroke:#cccccc;stroke-linecap:round;stroke-width:0.8;"/>
     </g>
     <g id="line2d_46"/>
     <g id="text_16">
      <text style="fill:#262626;font-family:Arial;font-size:10px;font-style:normal;font-weight:400;text-anchor:end;" transform="rotate(-0, 63.822835, 374.59476)" x="63.822835" y="374.59476">−0.2</text>
     </g>
    </g>
    <g id="ytick_8">
     <g id="line2d_47">
      <path clip-path="url(#p8d1b67c961)" d="M 67.322835 349.928575 
L 484.724409 349.928575 
" style="fill:none;stroke:#cccccc;stroke-linecap:round;stroke-width:0.8;"/>
     </g>
     <g id="line2d_48"/>
     <g id="text_17">
      <text style="fill:#262626;font-family:Arial;font-size:10px;font-style:normal;font-weight:400;text-anchor:end;" transform="rotate(-0, 63.822835, 353.507481)" x="63.822835" y="353.507481">0.0</text>
     </g>
    </g>
    <g id="ytick_9">
     <g id="line2d_49">
      <path clip-path="url(#p8d1b67c961)" d="M 67.322835 328.841296 
L 484.724409 328.841296 
" style="fill:none;stroke:#cccccc;stroke-linecap:round;stroke-width:0.8;"/>
     </g>
     <g id="line2d_50"/>
     <g id="text_18">
      <text style="fill:#262626;font-family:Arial;font-size:10px;font-style:normal;font-weight:400;text-anchor:end;" transform="rotate(-0, 63.822835, 332.420202)" x="63.822835" y="332.420202">0.2</text>
     </g>
    </g>
    <g id="ytick_10">
     <g id="line2d_51">
      <path clip-path="url(#p8d1b67c961)" d="M 67.322835 307.754017 
L 484.724409 307.754017 
" style="fill:none;stroke:#cccccc;stroke-linecap:round;stroke-width:0.8;"/>
     </g>
     <g id="line2d_52"/>
     <g id="text_19">
      <text style="fill:#262626;font-family:Arial;font-size:10px;font-style:normal;font-weight:400;text-anchor:end;" transform="rotate(-0, 63.822835, 311.332923)" x="63.822835" y="311.332923">0.4</text>
     </g>
    </g>
    <g id="ytick_11">
     <g id="line2d_53">
      <path clip-path="url(#p8d1b67c961)" d="M 67.322835 286.666738 
L 484.724409 286.666738 
" style="fill:none;stroke:#cccccc;stroke-linecap:round;stroke-width:0.8;"/>
     </g>
     <g id="line2d_54"/>
     <g id="text_20">
      <text style="fill:#262626;font-family:Arial;font-size:10px;font-style:normal;font-weight:400;text-anchor:end;" transform="rotate(-0, 63.822835, 290.245644)" x="63.822835" y="290.245644">0.6</text>
     </g>
    </g>
    <g id="ytick_12">
     <g id="line2d_55">
      <path clip-path="url(#p8d1b67c961)" d="M 67.322835 265.579459 
L 484.724409 265.579459 
" style="fill:none;stroke:#cccccc;stroke-linecap:round;stroke-width:0.8;"/>
     </g>
     <g id="line2d_56"/>
     <g id="text_21">
      <text style="fill:#262626;font-family:Arial;font-size:10px;font-style:normal;font-weight:400;text-anchor:end;" transform="rotate(-0, 63.822835, 269.158365)" x="63.822835" y="269.158365">0.8</text>
     </g>
    </g>
    <g id="ytick_13">
     <g id="line2d_57">
      <path clip-path="url(#p8d1b67c961)" d="M 67.322835 244.49218 
L 484.724409 244.49218 
" style="fill:none;stroke:#cccccc;stroke-linecap:round;stroke-width:0.8;"/>
     </g>
     <g id="line2d_58"/>
     <g id="text_22">
      <text style="fill:#262626;font-family:Arial;font-size:10px;font-style:normal;font-weight:400;text-anchor:end;" transform="rotate(-0, 63.822835, 248.071086)" x="63.822835" y="248.071086">1.0</text>
     </g>
    </g>
    <g id="text_23">
     <!-- $y_2$ -->
     <g style="fill:#262626;" transform="translate(37.98221 304.43733)rotate(-90)">
      <text>
       <tspan style="font-family:DejaVu Sans;font-size:10px;font-style:oblique;font-weight:oblique;" x="0" y="-0.53125">y</tspan>
       <tspan style="font-family:DejaVu Sans;font-size:7px;font-style:book;font-weight:book;" x="5.917969" y="1.109375">2</tspan>
      </text>
     </g>
    </g>
   </g>
   <g id="line2d_59">
    <path clip-path="url(#p8d1b67c961)" d="M 86.295634 349.928575 
L 88.382641 349.993531 
L 88.698855 350.380561 
L 89.078311 351.289682 
L 89.584252 353.180346 
L 90.279921 356.798508 
L 91.544775 363.682487 
L 91.987473 364.864778 
L 92.366929 365.344082 
L 92.683142 365.402702 
L 92.999356 365.179503 
L 93.378812 364.596233 
L 93.947996 363.235866 
L 94.896636 360.238886 
L 98.058769 349.86243 
L 99.766321 344.975424 
L 100.967931 342.158956 
L 101.979814 340.326489 
L 102.865211 339.150926 
L 103.687366 338.405297 
L 104.446278 337.999364 
L 105.20519 337.847314 
L 105.964102 337.929617 
L 106.786256 338.258042 
L 107.671654 338.855886 
L 108.746779 339.866235 
L 110.074875 341.445282 
L 112.225125 344.407243 
L 115.513744 348.896369 
L 117.284538 350.937923 
L 118.802362 352.35944 
L 120.193701 353.362044 
L 121.521797 354.045189 
L 122.849893 354.471113 
L 124.177989 354.660851 
L 125.569327 354.637154 
L 127.150394 354.381189 
L 129.047674 353.832954 
L 131.703865 352.80683 
L 137.395705 350.560795 
L 139.988654 349.821169 
L 142.455118 349.350981 
L 145.048067 349.090423 
L 147.95723 349.031509 
L 151.75179 349.197419 
L 166.044631 350.026531 
L 173.064567 350.048976 
L 202.851861 349.920199 
L 277.984145 349.919841 
L 278.237115 349.703949 
L 278.553329 349.048156 
L 278.932785 347.709097 
L 279.438726 345.068991 
L 280.071152 340.561087 
L 283.296528 315.053266 
L 289.431067 274.374817 
L 291.328346 263.571652 
L 292.972656 255.403618 
L 294.427237 249.224969 
L 295.755333 244.494468 
L 297.020186 240.800301 
L 298.158554 238.130632 
L 299.233679 236.147535 
L 300.245562 234.733273 
L 301.194202 233.779634 
L 302.079599 233.188868 
L 302.964996 232.858792 
L 303.850394 232.760226 
L 304.799034 232.879856 
L 305.874159 233.254542 
L 307.07577 233.915949 
L 308.593593 235.021682 
L 310.743844 236.894108 
L 315.676772 241.262683 
L 317.76378 242.761925 
L 319.661059 243.850716 
L 321.495097 244.644907 
L 323.329134 245.197212 
L 325.289656 245.551075 
L 327.439907 245.708814 
L 330.032856 245.669481 
L 333.574445 245.371671 
L 342.934359 244.48522 
L 347.740802 244.322058 
L 354.191553 244.348017 
L 372.342198 244.515485 
L 425.466034 244.486054 
L 465.751611 244.494788 
L 465.751611 244.494788 
" style="fill:none;stroke:#000000;stroke-dasharray:3.7,1.6;stroke-dashoffset:0;"/>
   </g>
   <g id="line2d_60">
    <path clip-path="url(#p8d1b67c961)" d="M 86.295634 349.928575 
L 91.291804 349.827377 
L 91.955852 349.484652 
L 92.714764 348.82494 
L 93.600161 347.763511 
L 94.77015 346.022155 
L 96.793916 342.561652 
L 99.51335 338.008226 
L 101.220902 335.572749 
L 102.738726 333.777727 
L 104.193307 332.401155 
L 105.553024 331.409385 
L 106.944363 330.666133 
L 108.367323 330.160326 
L 109.853525 329.872051 
L 111.434592 329.794371 
L 113.205387 329.933513 
L 115.260773 330.323427 
L 117.79048 331.041307 
L 121.237205 332.266427 
L 135.245455 337.487046 
L 140.526217 339.078164 
L 146.186435 340.539724 
L 151.846654 341.767958 
L 159.214424 343.123715 
L 167.151378 344.316175 
L 173.918343 345.143092 
L 183.81582 346.120608 
L 195.357606 347.038052 
L 206.709664 347.716804 
L 220.022244 348.278695 
L 239.785576 348.874877 
L 264.197244 349.360333 
L 278.237115 349.410886 
L 278.743057 349.107985 
L 279.312241 348.474934 
L 280.00791 347.315579 
L 280.766822 345.589421 
L 281.715462 342.848173 
L 282.948694 338.536068 
L 284.624624 331.796876 
L 290.537813 307.37538 
L 292.529957 300.410327 
L 294.395616 294.681419 
L 296.198031 289.858616 
L 297.968826 285.743464 
L 299.771242 282.118049 
L 301.573658 278.996726 
L 303.376074 276.304599 
L 305.273354 273.866493 
L 307.265497 271.670065 
L 309.352505 269.697838 
L 311.629241 267.855092 
L 314.127326 266.12497 
L 316.941625 264.453401 
L 320.261865 262.749284 
L 323.96156 261.104223 
L 328.040712 259.534198 
L 332.815533 257.939947 
L 338.317645 256.338353 
L 344.736775 254.699655 
L 351.50374 253.208098 
L 358.555297 251.889625 
L 366.334145 250.664641 
L 374.840283 249.553259 
L 384.389925 248.540887 
L 395.109556 247.642262 
L 407.220526 246.859837 
L 419.679331 246.248996 
L 433.750823 245.791707 
L 460.913547 245.169555 
L 465.751611 245.095258 
L 465.751611 245.095258 
" style="fill:none;stroke:#00709b;stroke-linecap:round;"/>
   </g>
   <g id="line2d_61">
    <path clip-path="url(#p8d1b67c961)" d="M 86.295634 349.928575 
L 88.635612 350.036051 
L 89.141553 350.396444 
L 89.710737 351.096024 
L 90.406407 352.328163 
L 91.955852 355.26817 
L 92.746385 356.183054 
L 93.505297 356.731463 
L 94.264209 357.014337 
L 95.086364 357.080419 
L 96.003382 356.928551 
L 97.110129 356.507394 
L 98.438225 355.752114 
L 100.303883 354.406922 
L 107.039227 349.315919 
L 109.126235 348.127574 
L 111.118379 347.244836 
L 113.078901 346.61056 
L 115.134288 346.178775 
L 117.31616 345.953701 
L 119.687759 345.937097 
L 122.438815 346.149311 
L 125.88554 346.652507 
L 131.956836 347.810821 
L 138.69218 349.017362 
L 143.719971 349.68619 
L 148.747763 350.127521 
L 154.281496 350.384068 
L 161.111704 350.466639 
L 171.989442 350.345814 
L 198.171904 350.028328 
L 231.690515 349.948713 
L 277.952523 349.851306 
L 279.05927 346.7906 
L 280.418987 342.32698 
L 280.671958 341.800034 
L 284.118683 335.098662 
L 286.774875 329.32857 
L 291.17024 319.201457 
L 298.917466 301.335012 
L 302.522298 293.632987 
L 305.684431 287.38664 
L 308.625215 282.054636 
L 311.439513 277.402718 
L 314.158948 273.33277 
L 316.846761 269.707891 
L 319.471331 266.536785 
L 322.095902 263.70756 
L 324.752094 261.167954 
L 327.439907 258.902139 
L 330.222584 256.848071 
L 333.068504 255.022561 
L 336.040909 253.378933 
L 339.171421 251.902626 
L 342.523282 250.570527 
L 346.128114 249.379237 
L 350.049159 248.321456 
L 354.318039 247.40162 
L 359.156102 246.595099 
L 364.594971 245.92265 
L 370.887616 245.375189 
L 378.445115 244.949258 
L 387.931514 244.647974 
L 400.927881 244.473419 
L 424.137938 244.428444 
L 465.751611 244.475287 
L 465.751611 244.475287 
" style="fill:none;stroke:#be1e3c;stroke-linecap:round;"/>
   </g>
   <g id="line2d_62">
    <path clip-path="url(#p8d1b67c961)" d="M 86.295634 349.928575 
L 88.667233 350.036826 
L 89.204796 350.393861 
L 89.805601 351.076647 
L 90.596135 352.349503 
L 91.544775 353.874743 
L 92.177201 354.495308 
L 92.778006 354.794803 
L 93.378812 354.856683 
L 94.074481 354.714506 
L 95.212849 354.201206 
L 99.228758 351.952666 
L 103.339531 349.625665 
L 105.426539 348.743943 
L 107.513547 348.106955 
L 109.663797 347.685301 
L 111.908912 347.475589 
L 114.47024 347.466874 
L 117.56913 347.686429 
L 121.743146 348.218978 
L 130.723604 349.403561 
L 136.194094 349.885396 
L 141.854313 350.166236 
L 148.558035 350.28067 
L 160.54252 350.216452 
L 195.642198 349.965195 
L 262.394828 349.929204 
L 278.205494 349.826516 
L 278.58495 349.443642 
L 279.027649 348.644302 
L 279.565211 347.19175 
L 280.229259 344.736972 
L 283.486256 331.449087 
L 287.502165 316.433599 
L 291.707802 300.587921 
L 294.616965 290.510124 
L 297.083429 282.732649 
L 299.360165 276.269573 
L 301.447173 270.991124 
L 303.439316 266.536145 
L 305.399839 262.686589 
L 307.360361 259.323555 
L 309.289263 256.444617 
L 311.154921 254.068288 
L 312.988958 252.072261 
L 314.854617 250.373148 
L 316.751897 248.94151 
L 318.712419 247.739187 
L 320.799427 246.72128 
L 323.044542 245.874771 
L 325.447763 245.214933 
L 328.293683 244.674068 
L 331.329331 244.315732 
L 335.471725 244.081109 
L 339.930333 244.029787 
L 352.673729 244.207014 
L 370.065462 244.397866 
L 399.726271 244.481935 
L 465.751611 244.492626 
L 465.751611 244.492626 
" style="fill:none;stroke:#e16d00;stroke-linecap:round;"/>
   </g>
   <g id="patch_8">
    <path d="M 67.322835 372.047244 
L 67.322835 226.127416 
" style="fill:none;stroke:#cccccc;stroke-linecap:square;stroke-linejoin:miter;"/>
   </g>
   <g id="patch_9">
    <path d="M 484.724409 372.047244 
L 484.724409 226.127416 
" style="fill:none;stroke:#cccccc;stroke-linecap:square;stroke-linejoin:miter;"/>
   </g>
   <g id="patch_10">
    <path d="M 67.322835 372.047244 
L 484.724409 372.047244 
" style="fill:none;stroke:#cccccc;stroke-linecap:square;stroke-linejoin:miter;"/>
   </g>
   <g id="patch_11">
    <path d="M 67.322835 226.127416 
L 484.724409 226.127416 
" style="fill:none;stroke:#cccccc;stroke-linecap:square;stroke-linejoin:miter;"/>
   </g>
   <g id="legend_1">
    <g id="line2d_63">
     <path d="M 401.590034 315.123807 
L 421.590034 315.123807 
" style="fill:none;stroke:#000000;stroke-dasharray:3.7,1.6;stroke-dashoffset:0;"/>
    </g>
    <g id="line2d_64"/>
    <g id="text_24">
     <text style="fill:#262626;font-family:Arial;font-size:10px;font-style:normal;font-weight:400;text-anchor:start;" transform="rotate(-0, 429.590034, 318.623807)" x="429.590034" y="318.623807">Reference</text>
    </g>
    <g id="line2d_65">
     <path d="M 401.590034 329.269119 
L 421.590034 329.269119 
" style="fill:none;stroke:#00709b;stroke-linecap:round;"/>
    </g>
    <g id="line2d_66"/>
    <g id="text_25">
     <text style="fill:#262626;font-family:Arial;font-size:10px;font-style:normal;font-weight:400;text-anchor:start;" transform="rotate(-0, 429.590034, 332.769119)" x="429.590034" y="332.769119">RGA</text>
    </g>
    <g id="line2d_67">
     <path d="M 401.590034 343.414432 
L 421.590034 343.414432 
" style="fill:none;stroke:#be1e3c;stroke-linecap:round;"/>
    </g>
    <g id="line2d_68"/>
    <g id="text_26">
     <text style="fill:#262626;font-family:Arial;font-size:10px;font-style:normal;font-weight:400;text-anchor:start;" transform="rotate(-0, 429.590034, 346.914432)" x="429.590034" y="346.914432">Astrom</text>
    </g>
    <g id="line2d_69">
     <path d="M 401.590034 357.559744 
L 421.590034 357.559744 
" style="fill:none;stroke:#e16d00;stroke-linecap:round;"/>
    </g>
    <g id="line2d_70"/>
    <g id="text_27">
     <text style="fill:#262626;font-family:Arial;font-size:10px;font-style:normal;font-weight:400;text-anchor:start;" transform="rotate(-0, 429.590034, 361.059744)" x="429.590034" y="361.059744">R2D2</text>
    </g>
   </g>
  </g>
 </g>
 <defs>
  <clipPath id="pcaf0851ac8">
   <rect height="145.919828" width="417.401575" x="67.322835" y="51.023622"/>
  </clipPath>
  <clipPath id="p8d1b67c961">
   <rect height="145.919828" width="417.401575" x="67.322835" y="226.127416"/>
  </clipPath>
 </defs>
</svg>
