<svg version="1.1" xmlns="http://www.w3.org/2000/svg" xmlns:xlink="http://www.w3.org/1999/xlink" width="800" height="300" style="width: 800px; height: 300px;"><defs/><g><g/><g transform="scale(1,1) translate(0.5,0.5)"><rect fill="#FFFFFF" stroke="none" x="0" y="0" width="800" height="300"/><rect fill="#ffffff" stroke="none" x="0" y="0" width="800" height="300"/><rect fill="#FFFFFF" stroke="none" x="56.040000000000006" y="4" width="733.96" height="251.64"/><rect fill="#ffffff" stroke="none" x="56.040000000000006" y="4" width="733.96" height="251.64"/><g/><g><g><path fill="none" stroke="#e5e5e5" paint-order="fill stroke markers" d=" M 89 256 L 89 4" stroke-miterlimit="10"/><path fill="none" stroke="#e5e5e5" paint-order="fill stroke markers" d=" M 223 256 L 223 4" stroke-miterlimit="10"/><path fill="none" stroke="#e5e5e5" paint-order="fill stroke markers" d=" M 356 256 L 356 4" stroke-miterlimit="10"/><path fill="none" stroke="#e5e5e5" paint-order="fill stroke markers" d=" M 490 256 L 490 4" stroke-miterlimit="10"/><path fill="none" stroke="#e5e5e5" paint-order="fill stroke markers" d=" M 623 256 L 623 4" stroke-miterlimit="10"/><path fill="none" stroke="#e5e5e5" paint-order="fill stroke markers" d=" M 757 256 L 757 4" stroke-miterlimit="10"/></g><g><path fill="none" stroke="#e5e5e5" paint-order="fill stroke markers" d=" M 56 249 L 790 249" stroke-miterlimit="10"/><path fill="none" stroke="#e5e5e5" paint-order="fill stroke markers" d=" M 56 214 L 790 214" stroke-miterlimit="10"/><path fill="none" stroke="#e5e5e5" paint-order="fill stroke markers" d=" M 56 179 L 790 179" stroke-miterlimit="10"/><path fill="none" stroke="#e5e5e5" paint-order="fill stroke markers" d=" M 56 144 L 790 144" stroke-miterlimit="10"/><path fill="none" stroke="#e5e5e5" paint-order="fill stroke markers" d=" M 56 109 L 790 109" stroke-miterlimit="10"/><path fill="none" stroke="#e5e5e5" paint-order="fill stroke markers" d=" M 56 74 L 790 74" stroke-miterlimit="10"/><path fill="none" stroke="#e5e5e5" paint-order="fill stroke markers" d=" M 56 39 L 790 39" stroke-miterlimit="10"/></g><g><path fill="none" stroke="none"/><path fill="none" stroke="rgb(225,109,0)" paint-order="fill stroke markers" d=" M 89.40181818181821 4.0058723141261225 L 90.06972244972249 4.006009236397631 L 90.73762671762672 4.0061493512279185 L 91.40553098553102 4.0062927330565685 L 92.07343525343529 4.006439458058821 L 92.74133952133954 4.00658960418599 L 93.40924378924382 4.006743251207013 L 94.07714805714811 4.006900480750744 L 94.74505232505234 4.007061376349384 L 95.41295659295663 4.007226023482758 L 96.08086086086087 4.0073945096237935 L 96.74876512876514 4.007566924285072 L 97.41666939666945 4.007743359066126 L 98.08457366457367 4.007923907702491 L 98.75247793247796 4.008108666115106 L 99.42038220038225 4.008297732461642 L 100.08828646828648 4.008491207188229 L 100.75619073619077 4.008689193083342 L 101.424095004095 4.008891795331863 L 102.0919992719993 4.00909912157141 L 102.75990353990358 4.009311281949238 L 103.42780780780781 4.009528389180957 L 104.0957120757121 4.009750558610165 L 104.76361634361638 4.009977908270059 L 105.43152061152063 4.010210558945857 L 106.0994248794249 4.010448634239083 L 106.76732914732919 4.0106922606332205 L 107.43523341523343 4.010941567560906 L 108.10313768313772 4.011196687472761 L 108.77104195104195 4.0114577559076565 L 109.43894621894623 4.011724911564784 L 110.10685048685052 4.0119982963772145 L 110.77475475475475 4.012278055587672 L 111.44265902265904 4.012564337825097 L 112.11056329056333 4.01285729518429 L 112.77846755846757 4.013157083306055 L 113.44637182637186 4.01346386146048 L 114.1142760942761 4.013777792631117 L 114.78218036218038 4.014099043601732 L 115.45008463008466 4.014427785045086 L 116.11798889798891 4.01476419161321 L 116.78589316589319 4.015108442030623 L 117.45379743379748 4.015460719188923 L 118.12170170170171 4.015821210244155 L 118.78960596960599 4.016190106716294 L 119.45751023751023 4.016567604590762 L 120.12541450541451 4.016953904422792 L 120.7933187733188 4.017349211443786 L 121.46122304122304 4.017753735670567 L 122.12912730912733 4.018167692016618 L 122.79703157703162 4.018591300406683 L 123.46493584493585 4.019024785893237 L 124.13284011284013 4.019468378776196 L 124.80074438074442 4.019922314725477 L 125.46864864864865 4.0203868349057075 L 126.13655291655294 4.020862186104864 L 126.80445718445718 4.021348620865069 L 127.47236145236145 4.021846397616855 L 128.14026572026575 4.022355780816497 L 128.80816998817 4.022877041086417 L 129.47607425607427 4.0234104553590555 L 130.14397852397855 4.02395630702398 L 130.8118827918828 4.024514886078293 L 131.4797870597871 4.025086489280966 L 132.14769132769132 4.025671420310289 L 132.8155955955956 4.026269989925254 L 133.4834998634999 4.02688251613074 L 134.15140413140412 4.0275093243462265 L 134.8193083993084 4.028150747579048 L 135.4872126672127 4.028807126600952 L 136.15511693511692 4.029478810129376 L 136.82302120302123 4.03016615501258 L 137.4909254709255 4.030869526419224 L 138.15882973882975 4.031589298032543 L 138.82673400673403 4.032325852248675 L 139.49463827463825 4.0330795803798765 L 140.16254254254255 4.033850882862396 L 140.83044681044683 4.034640169469299 L 141.49835107835108 4.035447859528176 L 142.16625534625535 4.036274382143688 L 142.83415961415966 4.037120176425731 L 143.50206388206388 4.037985691722781 L 144.16996814996816 4.038871387860411 L 144.83787241787246 4.039777735385769 L 145.5057766857767 4.040705215817411 L 146.17368095368096 4.0416543219012055 L 146.8415852215852 4.042625557872043 L 147.5094894894895 4.043619439721795 L 148.17739375739376 4.044636495473412 L 148.845298025298 4.04567726546145 L 149.5132022932023 4.046742302619009 L 150.18110656110656 4.047832172771621 L 150.8490108290108 4.0489474549378315 L 151.5169150969151 4.050088741636728 L 152.18481936481936 4.051256639202791 L 152.85272363272364 4.052451768108085 L 153.52062790062791 4.0536747632915535 L 154.18853216853216 4.054926274496836 L 154.85643643643644 4.056206966616912 L 155.52434070434072 4.0575175200477815 L 156.19224497224502 4.058858631049588 L 156.86014924014924 4.0602310121167875 L 157.52805350805352 4.061635392356322 L 158.19595777595782 4.063072517875241 L 158.86386204386207 4.064543152176952 L 159.53176631176638 4.066048076566858 L 160.19967057967062 4.067588090567369 L 160.86757484757487 4.069164012342526 L 161.53547911547918 4.070776679132962 L 162.20338338338337 4.0724269477003645 L 162.87128765128767 4.0741156947827335 L 163.53919191919198 4.0758438175601555 L 164.2070961870962 4.077612234131323 L 164.87500045500047 4.079421884001249 L 165.54290472290478 4.08127372858047 L 166.210808990809 4.083168751695723 L 166.8787132587133 4.085107960112396 L 167.54661752661758 4.087092384069592 L 168.21452179452183 4.089123077827196 L 168.8824260624261 4.091201120226003 L 169.55033033033033 4.0933276152608755 L 170.21823459823463 4.095503692666966 L 170.88613886613894 4.097730508519987 L 171.55404313404313 4.100009245850231 L 172.22194740194743 4.102341115271145 L 172.88985166985174 4.104727355622174 L 173.55775593775599 4.107169234626838 L 174.22566020566023 4.109668049566267 L 174.89356447356448 4.112225127968145 L 175.5614687414688 4.114841828311853 L 176.22937300937303 4.117519540750038 L 176.89727727727728 4.120259687847124 L 177.5651815451816 4.1230637253347595 L 178.23308581308586 4.1259331428848895 L 178.90099008099008 4.128869464901356 L 179.5688943488944 4.131874251329293 L 180.23679861679864 4.13494909848356 L 180.9047028847029 4.13809563989679 L 181.5726071526072 4.141315547186878 L 182.24051142051144 4.144610530944703 L 182.90841568841572 4.14798234164283 L 183.57631995632 4.151432770564725 L 184.24422422422424 4.154963650756599 L 184.91212849212855 4.158576858000345 L 185.5800327600328 4.162274311810222 L 186.24793702793704 4.166057976451555 L 186.91584129584135 4.169929861984485 L 187.5837455637456 4.173892025330815 L 188.25164983164984 4.17794657136659 L 188.91955409955415 4.1820956540395855 L 189.5874583674584 4.186341477513167 L 190.25536263536264 4.190686297336356 L 190.92326690326695 4.195132421641858 L 191.5911711711712 4.199682212371044 L 192.25907543907545 4.2043380865284234 L 192.92697970697975 4.20910251746443 L 193.594883974884 4.2139780361887915 L 194.26278824278825 4.218967232714078 L 194.93069251069255 4.22407275743052 L 195.5985967785968 4.229297322512934 L 196.26650104650105 4.234643703360632 L 196.93440531440535 4.240114740070112 L 197.6023095823096 4.245713338942892 L 198.2702138502139 4.251442474027726 L 198.93811811811815 4.257305188699206 L 199.60602238602246 4.263304597272622 L 200.2739266539267 4.269443886656688 L 200.94183092183096 4.2757263180448035 L 201.6097351897352 4.282155228645081 L 202.2776394576395 4.2887340334513055 L 202.94554372554376 4.295466227054419 L 203.613447993448 4.30235538549681 L 204.2813522613523 4.30940516816878 L 204.94925652925656 4.316619319750032 L 205.6171607971608 4.324001672195379 L 206.2850650650651 4.3315561467674115 L 206.95296933296942 4.339286756115769 L 207.62087360087367 4.34719760640462 L 208.2887778687779 4.35529289949028 L 208.95668213668216 4.363576935148387 L 209.62458640458647 4.372054113353556 L 210.29249067249071 4.380728936611433 L 210.96039494039496 4.389606012344927 L 211.6282992082992 4.398690055335862 L 212.29620347620352 4.407985890223358 L 212.96410774410782 4.417498454059569 L 213.632012012012 4.427232798925388 L 214.29991627991632 4.4371940946060136 L 214.96782054782062 4.4473876313289225 L 215.63572481572487 4.457818822564889 L 216.30362908362912 4.468493207894312 L 216.97153335153337 4.479416455939031 L 217.63943761943767 4.490594367362803 L 218.30734188734192 4.50203287794028 L 218.97524615524623 4.513738061697609 L 219.64315042315047 4.525716134125048 L 220.31105469105472 4.537973455463828 L 220.97895895895903 4.550516534069118 L 221.64686322686327 4.563352029849852 L 222.31476749476752 4.5764867577886434 L 222.98267176267183 4.5899276915421865 L 223.65057603057608 4.603681967124601 L 224.31848029848032 4.61775688667575 L 224.98638456638463 4.6321599223156795 L 225.65428883428888 4.646898720088359 L 226.32219310219313 4.6619811039950605 L 226.99009737009743 4.677415080120852 L 227.65800163800168 4.693208840855448 L 228.32590590590593 4.709370769210807 L 228.99381017381023 4.725909443237242 L 229.66171444171448 4.74283364054088 L 230.32961870961873 4.760152342903893 L 230.99752297752303 4.777874741010351 L 231.66542724542728 4.796010239279838 L 232.3333315133316 4.81456846081079 L 233.00123578123583 4.833559252436487 L 233.66914004914008 4.852992689895814 L 234.33704431704433 4.872879083121404 L 235.00494858494864 4.893228981647155 L 235.67285285285288 4.914053180138637 L 236.34075712075713 4.93536272404782 L 237.00866138866144 4.9571689153959255 L 237.67656565656569 4.97948331868588 L 238.34446992447 5.002317766948067 L 239.01237419237424 5.025684367921713 L 239.6802784602785 5.049595510374104 L 240.34818272818273 5.0740638705620995 L 241.01608699608704 5.099102418836651 L 241.6839912639913 5.124724426395005 L 242.35189553189554 5.150943472182689 L 243.01979979979984 5.17777344994812 L 243.6877040677041 5.2052285754533045 L 244.35560833560834 5.2333233938434205 L 245.0235126035126 5.2620727871782265 L 245.69141687141695 5.291491982128662 L 246.3593211393212 5.321596557841133 L 247.0272254072254 5.352402453973525 L 247.69512967512975 5.383925978905211 L 248.363033943034 5.416183818124523 L 249.03093821093825 5.449193042796992 L 249.6988424788425 5.482971118517355 L 250.3667467467468 5.517535914248185 L 251.03465101465105 5.55290571144883 L 251.7025552825553 5.589099213397674 L 252.37045955045954 5.626135554709947 L 253.03836381836385 5.664034311056014 L 253.7062680862681 5.702815509080779 L 254.3741723541724 5.742499636529772 L 255.04207662207665 5.78310765258243 L 255.7099808899809 5.824660998397576 L 256.3778851578852 5.867181607872226 L 257.04578942578945 5.910691918617829 L 257.71369369369376 5.955214883155463 L 258.381597961598 6.0007739803332925 L 259.04950222950225 6.047393226968495 L 259.71740649740656 6.095097189715602 L 260.3853107653108 6.143910997163914 L 261.05321503321505 6.193860352165586 L 261.72111930111936 6.244971544396208 L 262.3890235690236 6.297271463149741 L 263.05692783692785 6.350787610368343 L 263.72483210483216 6.405548113909333 L 264.3927363727364 6.461581741048974 L 265.06064064064066 6.518917912224026 L 265.72854490854496 6.577586715011421 L 266.3964491764492 6.637618918345311 L 267.06435344435346 6.699045986971328 L 267.7322577122577 6.761900096136571 L 268.400161980162 6.8262141465141895 L 269.06806624806626 6.892021779359936 L 269.7359705159705 6.9593573918986635 L 270.4038747838748 7.028256152937104 L 271.0717790517791 7.098754018699083 L 271.7396833196833 7.170887748878499 L 272.4075875875876 7.244694922904955 L 273.0754918554919 7.32021395641533 L 273.74339612339617 7.397484117924648 L 274.4113003913004 7.47654554568777 L 275.07920465920466 7.557439264742868 L 275.74710892710897 7.640207204126511 L 276.4150131950132 7.724892214248598 L 277.08291746291746 7.8115380844150195 L 277.75082173082177 7.900189560483113 L 278.418725998726 7.990892362634668 L 279.08663026663027 8.083693203249311 L 279.75453453453457 8.178639804859301 L 280.4224388024388 8.275780918164969 L 281.09034307034307 8.375166340087844 L 281.7582473382474 8.476846931837429 L 282.4261516061516 8.58087463696387 L 283.09405587405587 8.687302499367831 L 283.7619601419602 8.796184681235161 L 284.4298644098644 8.907576480862645 L 285.0977686777687 9.021534350336822 L 285.7656729456729 9.138115913025729 L 286.4335772135772 9.25737998084054 L 287.1014814814815 9.379386571219527 L 287.7693857493858 9.504196923784548 L 288.43729001729 9.631873516615087 L 289.10519428519433 9.762480082082561 L 289.7730985530986 9.896081622181896 L 290.4410028210028 10.032744423293082 L 291.10890708890713 10.172536070302613 L 291.7768113568114 10.315525460006825 L 292.4447156247156 10.461782813716525 L 293.11261989261993 10.611379688975887 L 293.78052416052424 10.764388990302564 L 294.44842842842843 10.920884978851177 L 295.1163326963327 11.08094328089544 L 295.784236964237 11.244640895017483 L 296.45214123214123 11.412056197888148 L 297.12004550004553 11.583268948512114 L 297.7879497679498 11.758360290808184 L 298.45585403585403 11.937412754385093 L 299.1237583037583 12.120510253367058 L 299.7916625716626 12.30773808311551 L 300.4595668395669 12.499182914685207 L 301.12747110747114 12.694932786845982 L 301.7953753753754 12.895077095493036 L 302.46327964327963 13.099706580259692 L 303.13118391118394 13.30891330814103 L 303.7990881790882 13.522790653926847 L 304.4669924469925 13.74143327723516 L 305.13489671489674 13.964937095931418 L 305.802800982801 14.193399255709494 L 306.4707052507053 14.426918095605288 L 307.13860951860954 14.66559310920735 L 307.8065137865138 14.90952490132247 L 308.4744180544181 15.158815139851072 L 309.14232232232234 15.41356650262253 L 309.81022659022665 15.673882618937 L 310.47813085813084 15.939868005561607 L 311.14603512603514 16.211627996925415 L 311.81393939393945 16.4892686692624 L 312.48184366184375 16.77289675845344 L 313.14974792974795 17.062619571324888 L 313.81765219765225 17.358544890168616 L 314.4855564655565 17.66078087026102 L 315.15346073346075 17.969435930169936 L 315.82136500136505 18.28461863465668 L 316.4892692692693 18.606437570001276 L 317.1571735371736 18.935001211602412 L 317.8250778050778 19.270417783731546 L 318.4929820729821 19.612795111356036 L 319.1608863408864 19.962240463980095 L 319.82879060879065 20.318860391498674 L 320.4966948766949 20.68276055210464 L 321.1645991445992 21.05404553234405 L 321.83250341250346 21.432818659474606 L 322.5004076804077 21.81918180634534 L 323.168311948312 22.213235189088607 L 323.83621621621626 22.61507715799246 L 324.5041204841205 23.024803982003675 L 325.17202475202475 23.442509627402842 L 325.83992901992906 23.86828553128629 L 326.5078332878333 24.302220370591954 L 327.1757375557376 24.744399827509767 L 327.84364182364186 25.194906352229168 L 328.51154609154617 25.65381892408891 L 329.17945035945036 26.121212812310546 L 329.84735462735466 26.597159337617256 L 330.51525889525897 27.08172563615551 L 331.1831631631632 27.574974427258212 L 331.85106743106746 28.07696378670221 L 332.5189716989717 28.587746927223975 L 333.186875966876 29.107371988165255 L 333.85478023478026 29.635881836215958 L 334.5226845026845 30.17331387930966 L 335.1905887705888 30.719699895803217 L 335.85849303849307 31.275065881130615 L 336.5263973063973 31.839431914165687 L 337.1943015743016 32.412812045551505 L 337.86220584220587 32.99521421025611 L 338.5301101101101 33.58664016659327 L 339.1980143780144 34.187085463898484 L 339.86591864591867 34.79653944097532 L 340.5338229138229 35.41498525732442 L 341.2017271817272 36.04239995903117 L 341.86963144963147 36.67875458102657 L 342.5375357175358 37.3240142872375 L 343.20543998543997 37.97813854992006 L 343.87334425334427 38.64108136921436 L 344.5412485212486 39.3127915336774 L 345.2091527891528 39.99321292224482 L 345.8770570570571 40.68228484774306 L 346.5449613249614 41.37994244172762 L 347.2128655928656 42.08611708006049 L 347.8807698607699 42.80073684827107 L 348.5486741286742 43.52372704536765 L 349.2165783965784 44.25501072439508 L 349.8844826644827 44.994509267666274 L 350.5523869323869 45.7421429942417 L 351.22029120029123 46.497831796896236 L 351.8881954681955 47.261495805503074 L 352.55609973609984 48.03305607348392 L 353.22400400400403 48.81243528373008 L 353.8919082719083 49.59955847019518 L 354.5598125398125 50.394353751197855 L 355.22771680771683 51.19675307035942 L 355.89562107562114 52.00669294103611 L 356.56352534352544 52.824115190089344 L 357.23142961142963 53.64896769687479 L 357.89933387933394 54.48120512341441 L 358.5672381472382 55.320789631850715 L 359.23514241514243 56.167691585461085 L 359.90304668304674 57.021890229732264 L 360.57095095095104 57.88337435025508 L 361.2388552188553 58.7521429044927 L 361.9067594867596 59.628205624798625 L 362.5746637546638 60.51158359040403 L 363.2425680225681 61.402309766456256 L 363.9104722904724 62.3004295085623 L 364.57837655837665 63.20600103166805 L 365.2462808262809 64.11909584248082 L 365.9141850941852 65.03979913501266 L 366.58208936208945 65.96821014918123 L 367.2499936299937 66.9044424927475 L 367.917897897898 67.84862442719447 L 368.58580216580225 68.80089911844937 L 369.2537064337065 69.76142485362885 L 369.92161070161075 70.73037522523049 L 370.58951496951505 71.70793928441304 L 371.2574192374193 72.69432166519374 L 371.92532350532355 73.68974268154705 L 372.59322777322785 74.69443839951526 L 373.2611320411321 75.70866068653754 L 373.92903630903635 76.73267724027204 L 374.59694057694065 77.7667715992261 L 375.2648448448449 78.81124313752599 L 375.9327491127492 79.8664070461499 L 376.60065338065345 80.93259430291988 L 377.2685576485577 82.01015163350218 L 377.936461916462 83.09944146560144 L 378.60436618436626 84.20084187845896 L 379.2722704522705 85.31474654967494 L 379.9401747201748 86.44156470127922 L 380.60807898807906 87.58172104686761 L 381.2759832559833 88.73565574151303 L 381.9438875238876 89.90382433604526 L 382.61179179179186 91.08669773717898 L 383.2796960596961 92.28476217485405 L 383.9476003276004 93.49851917803682 L 384.61550459550466 94.7284855601198 L 385.2834088634089 95.97519341494808 L 385.9513131313132 97.23919012439524 L 386.61921739921746 98.52103837831203 L 387.28712166712177 99.82131620757582 L 387.95502593502596 101.1406170308793 L 388.62293020293026 102.47954971581422 L 389.29083447083457 103.83873865472754 L 389.95873873873876 105.21882385575731 L 390.62664300664306 106.62046104939012 L 391.2945472745473 108.04432181082257 L 391.9624515424516 109.4910936983575 L 392.63035581035587 110.96148040801722 L 393.2982600782601 112.45620194451504 L 393.9661643461644 113.97599480868996 L 394.63406861406867 115.52161220147775 L 395.3019728819729 117.0938242444658 L 395.9698771498772 118.69341821705518 L 396.63778141778147 120.32119881023806 L 397.3056856856857 121.97798839698109 L 397.97358995359 123.66462731919776 L 398.64149422149427 125.38197419128252 L 399.3093984893985 127.13090622017705 L 399.9773027573028 128.91231954193506 L 400.64520702520707 130.72712957475517 L 401.3131112931113 132.57627138845075 L 401.9810155610156 134.46070009033332 L 402.6489198289199 136.38139122749047 L 403.3168240968242 138.33934120544737 L 403.98472836472837 140.33556772321128 L 404.6526326326327 142.37111022470705 L 405.320536900537 144.447030366624 L 405.9884411684412 146.56441250270748 L 406.6563454363455 148.72436418453907 L 407.3242497042498 150.92801667886567 L 407.99215397215403 153.17652550154995 L 408.6600582400583 155.47107096823007 L 409.3279625079626 157.81285876179163 L 409.99586677586683 160.20312051676896 L 410.6637710437711 162.64311442081012 L 411.3316753116754 165.13412583335378 L 411.99957957957963 167.6774679216832 L 412.6674838474839 170.27448231453764 L 413.3353881153881 172.92653977347823 L 414.00329238329243 175.6350408822201 L 414.67119665119674 178.4014167541601 L 415.33910091910093 181.22712975834398 L 416.00700518700523 184.11367426413364 L 416.6749094549095 187.06257740485137 L 417.3428137228138 190.07539986069256 L 418.01071799071804 193.1537366612157 L 418.6786222586223 196.29921800773394 L 419.3465265265266 199.5135101159473 L 420.01443079443084 202.79831607917245 L 420.6823350623351 206.15537675254077 L 421.3502393302394 209.58647165855217 L 422.01814359814364 213.0934199143879 L 422.6860478660479 216.67808118140118 L 423.3539521339522 220.3423566372198 L 424.0218564018564 224.08818997091092 L 424.6897606697607 227.91756840167304 L 425.35766493766505 231.8325237215373 L 426.02556920556924 235.83513336257198 L 426.6934734734735 239.9275214891017 L 427.3613777413778 244.11186011546533 L 428.029282009282 248.39037024984748 L 428.69718627718635 252.76532306473314" stroke-opacity="0.9" stroke-miterlimit="10" stroke-width="2"/></g><g><path fill="none" stroke="none"/><path fill="none" stroke="rgb(102,180,211)" paint-order="fill stroke markers" d=" M 89.40181818181821 4.005967412718235 L 90.06972244972249 4.006106552363633 L 90.73762671762672 4.006248936269458 L 91.40553098553102 4.006394640080714 L 92.07343525343529 4.006543741206201 L 92.74133952133954 4.006696318859724 L 93.40924378924382 4.006852454102045 L 94.07714805714811 4.0070122298838555 L 94.74505232505234 4.007175731090115 L 95.41295659295663 4.007343044585014 L 96.08086086086087 4.007514259258016 L 96.74876512876514 4.00768946607127 L 97.41666939666945 4.007868758107804 L 98.08457366457367 4.008052230621047 L 98.75247793247796 4.00823998108541 L 99.42038220038225 4.008432109248076 L 100.08828646828648 4.008628717181978 L 100.75619073619077 4.008829909340022 L 101.424095004095 4.009035792610632 L 102.0919992719993 4.0092464763744715 L 102.75990353990358 4.0094620725626555 L 103.42780780780781 4.009682695716094 L 104.0957120757121 4.009908463046372 L 104.76361634361638 4.010139494498048 L 105.43152061152063 4.010375912812492 L 106.0994248794249 4.010617843592797 L 106.76732914732919 4.0108654153708585 L 107.43523341523343 4.011118759675412 L 108.10313768313772 4.0113780111020105 L 108.77104195104195 4.0116433073845315 L 109.43894621894623 4.011914789468221 L 110.10685048685052 4.012192601584843 L 110.77475475475475 4.012476891329015 L 111.44265902265904 4.012767809736943 L 112.11056329056333 4.0130655113662215 L 112.77846755846757 4.0133701543784355 L 113.44637182637186 4.013681900622771 L 114.1142760942761 4.014000915722306 L 114.78218036218038 4.014327369161833 L 115.45008463008466 4.014661434377956 L 116.11798889798891 4.015003288851176 L 116.78589316589319 4.015353114200252 L 117.45379743379748 4.015711096278778 L 118.12170170170171 4.016077425273636 L 118.78960596960599 4.016452295806346 L 119.45751023751023 4.0168359070362385 L 120.12541450541451 4.017228462766411 L 120.7933187733188 4.017630171551957 L 121.46122304122304 4.018041246810753 L 122.12912730912733 4.01846190693675 L 122.79703157703162 4.018892375416215 L 123.46493584493585 4.019332880946308 L 124.13284011284013 4.019783657556559 L 124.80074438074442 4.020244944733349 L 125.46864864864865 4.020716987546962 L 126.13655291655294 4.02120003678192 L 126.80445718445718 4.0216943490702874 L 127.47236145236145 4.022200187027636 L 128.14026572026575 4.022717819393051 L 128.80816998817 4.0232475211716405 L 129.47607425607427 4.023789573780618 L 130.14397852397855 4.024344265198863 L 130.8118827918828 4.024911890119938 L 131.4797870597871 4.025492750108754 L 132.14769132769132 4.026087153761523 L 132.8155955955956 4.026695416869927 L 133.4834998634999 4.0273178625886885 L 134.15140413140412 4.02795482160758 L 134.8193083993084 4.028606632326728 L 135.4872126672127 4.029273641036696 L 136.15511693511692 4.029956202102198 L 136.82302120302123 4.030654678150597 L 137.4909254709255 4.031369440264484 L 138.15882973882975 4.032100868178702 L 138.82673400673403 4.032849350482252 L 139.49463827463825 4.033615284824577 L 140.16254254254255 4.03439907812708 L 140.83044681044683 4.035201146798954 L 141.49835107835108 4.036021916958703 L 142.16625534625535 4.036861824660377 L 142.83415961415966 4.037721316125271 L 143.50206388206388 4.038600847978955 L 144.16996814996816 4.039500887494 L 144.83787241787246 4.040421912837871 L 145.5057766857767 4.041364413327528 L 146.17368095368096 4.042328889688861 L 146.8415852215852 4.043315854322884 L 147.5094894894895 4.044325831578078 L 148.17739375739376 4.0453593580287475 L 148.845298025298 4.04641698276032 L 149.5132022932023 4.0474992676608395 L 150.18110656110656 4.048606787719507 L 150.8490108290108 4.049740131332328 L 151.5169150969151 4.050899900614468 L 152.18481936481936 4.0520867117202215 L 152.85272363272364 4.053301195170491 L 153.52062790062791 4.054543996187533 L 154.18853216853216 4.055815775037786 L 154.85643643643644 4.05711720738276 L 155.52434070434072 4.058448984637835 L 156.19224497224502 4.059811814339753 L 156.86014924014924 4.061206420522296 L 157.52805350805352 4.062633544101061 L 158.19595777595782 4.064093943267039 L 158.86386204386207 4.0655883938893 L 159.53176631176638 4.067117689927443 L 160.19967057967062 4.0686826438530375 L 160.86757484757487 4.070284087081461 L 161.53547911547918 4.071922870413573 L 162.20338338338337 4.073599864487562 L 162.87128765128767 4.075315960241653 L 163.53919191919198 4.07707206938727 L 164.2070961870962 4.078869124893288 L 164.87500045500047 4.08070808148193 L 165.54290472290478 4.082589916135703 L 166.210808990809 4.08451562861643 L 166.8787132587133 4.086486241996454 L 167.54661752661758 4.088502803202061 L 168.21452179452183 4.090566383569637 L 168.8824260624261 4.092678079414725 L 169.55033033033033 4.094839012614443 L 170.21823459823463 4.097050331203548 L 170.88613886613894 4.099313209984075 L 171.55404313404313 4.101628851149485 L 172.22194740194743 4.103998484923466 L 172.88985166985174 4.106423370213065 L 173.55775593775599 4.108904795277738 L 174.22566020566023 4.111444078413456 L 174.89356447356448 4.114042568653019 L 175.5614687414688 4.116701646482852 L 176.22937300937303 4.119422724575884 L 176.89727727727728 4.1222072485422245 L 177.5651815451816 4.125056697697119 L 178.23308581308586 4.127972585846294 L 178.90099008099008 4.13095646209041 L 179.5688943488944 4.134009911647752 L 180.23679861679864 4.137134556696253 L 180.9047028847029 4.140332057235014 L 181.5726071526072 4.143604111966056 L 182.24051142051144 4.146952459196541 L 182.90841568841572 4.15037887776208 L 183.57631995632 4.153885187971412 L 184.24422422422424 4.157473252573254 L 184.91212849212855 4.161144977745607 L 185.5800327600328 4.164902314108133 L 186.24793702793704 4.168747257757957 L 186.91584129584135 4.172681851329969 L 187.5837455637456 4.176708185081452 L 188.25164983164984 4.180828398002234 L 188.91955409955415 4.185044678950419 L 189.5874583674584 4.189359267815007 L 190.25536263536264 4.193774456705057 L 190.92326690326695 4.1982925911669895 L 191.5911711711712 4.202916071430138 L 192.25907543907545 4.207647353681068 L 192.92697970697975 4.212488951367789 L 193.594883974884 4.217443436534438 L 194.26278824278825 4.22251344118672 L 194.93069251069255 4.227701658689455 L 195.5985967785968 4.233010845196475 L 196.26650104650105 4.238443821113719 L 196.93440531440535 4.244003472596887 L 197.6023095823096 4.249692753083082 L 198.2702138502139 4.255514684859122 L 198.93811811811815 4.2614723606654366 L 199.60602238602246 4.267568945337928 L 200.2739266539267 4.273807677487753 L 200.94183092183096 4.28019187122004 L 201.6097351897352 4.286724917893139 L 202.2776394576395 4.293410287917936 L 202.94554372554376 4.3002515326001 L 203.613447993448 4.3072522860239815 L 204.2813522613523 4.314416266981311 L 204.94925652925656 4.321747280944351 L 205.6171607971608 4.32924922208457 L 206.2850650650651 4.3369260753389085 L 206.95296933296942 4.344781918523552 L 207.62087360087367 4.352820924497166 L 208.2887778687779 4.3610473633739275 L 208.95668213668216 4.369465604788559 L 209.62458640458647 4.378080120213497 L 210.29249067249071 4.386895485329887 L 210.96039494039496 4.395916382454118 L 211.6282992082992 4.405147603019998 L 212.29620347620352 4.414594050118922 L 212.96410774410782 4.424260741098919 L 213.632012012012 4.43415281022402 L 214.29991627991632 4.4442755113950625 L 214.96782054782062 4.454634220933883 L 215.63572481572487 4.465234440431686 L 216.30362908362912 4.476081799663859 L 216.97153335153337 4.487182059571921 L 217.63943761943767 4.498541115314538 L 218.30734188734192 4.510164999389417 L 218.97524615524623 4.522059884827229 L 219.64315042315047 4.534232088459476 L 220.31105469105472 4.546688074261851 L 220.97895895895903 4.559434456774966 L 221.64686322686327 4.572478004604079 L 222.31476749476752 4.585825643999669 L 222.98267176267183 4.599484462520422 L 223.65057603057608 4.613461712781316 L 224.31848029848032 4.627764816287254 L 224.98638456638463 4.6424013673558875 L 225.65428883428888 4.657379137130306 L 226.32219310219313 4.672706077684438 L 226.99009737009743 4.688390326222361 L 227.65800163800168 4.704440209374866 L 228.32590590590593 4.72086424759425 L 228.99381017381023 4.737671159650176 L 229.66171444171448 4.754869867228706 L 230.32961870961873 4.772469499636713 L 230.99752297752303 4.7904793986141385 L 231.66542724542728 4.808909123256342 L 232.3333315133316 4.827768455048954 L 233.00123578123583 4.847067403018059 L 233.66914004914008 4.866816208997307 L 234.33704431704433 4.887025353015986 L 235.00494858494864 4.9077055588090275 L 235.67285285285288 4.928867799452746 L 236.34075712075713 4.950523303128705 L 237.00866138866144 4.972683559018208 L 237.67656565656569 4.995360323330431 L 238.34446992447 5.018565625467204 L 239.01237419237424 5.042311774326777 L 239.6802784602785 5.066611364750145 L 240.34818272818273 5.091477284112727 L 241.01608699608704 5.116922719063666 L 241.6839912639913 5.142961162417464 L 242.35189553189554 5.169606420199273 L 243.01979979979984 5.19687261884809 L 243.6877040677041 5.224774212580996 L 244.35560833560834 5.2533259909210415 L 245.0235126035126 5.282543086392764 L 245.69141687141695 5.312440982388296 L 246.3593211393212 5.343035521207582 L 247.0272254072254 5.374342912275665 L 247.69512967512975 5.406379740541297 L 248.363033943034 5.439162975059503 L 249.03093821093825 5.472709977761724 L 249.6988424788425 5.507038512417864 L 250.3667467467468 5.54216675379223 L 251.03465101465105 5.578113296998481 L 251.7025552825553 5.614897167056029 L 252.37045955045954 5.652537828651816 L 253.03836381836385 5.691055196111279 L 253.7062680862681 5.7304696435815 L 254.3741723541724 5.770802015430434 L 255.04207662207665 5.812073636865762 L 255.7099808899809 5.854306324776644 L 256.3778851578852 5.897522398801698 L 257.04578942578945 5.941744692627367 L 257.71369369369376 5.986996565519064 L 258.381597961598 6.033301914088838 L 259.04950222950225 6.080685184303093 L 259.71740649740656 6.129171383732739 L 260.3853107653108 6.178786094049542 L 261.05321503321505 6.229555483771151 L 261.72111930111936 6.281506321257893 L 262.3890235690236 6.33466598796349 L 263.05692783692785 6.389062491942752 L 263.72483210483216 6.444724481618266 L 264.3927363727364 6.5016812598081515 L 265.06064064064066 6.559962798016613 L 265.72854490854496 6.619599750989437 L 266.3964491764492 6.680623471535057 L 267.06435344435346 6.743066025612791 L 267.7322577122577 6.806960207688576 L 268.400161980162 6.872339556358611 L 269.06806624806626 6.939238370241071 L 269.7359705159705 7.007691724134929 L 270.4038747838748 7.077735485445373 L 271.0717790517791 7.1494063308738305 L 271.7396833196833 7.222741763371005 L 272.4075875875876 7.297780129349462 L 273.0754918554919 7.3745606361535465 L 273.74339612339617 7.453123369781167 L 274.4113003913004 7.5335093128537665 L 275.07920465920466 7.615760362827928 L 275.74710892710897 7.699919350442315 L 276.4150131950132 7.786030058392328 L 277.08291746291746 7.87413724022349 L 277.75082173082177 7.964286639434249 L 278.418725998726 8.056525008776134 L 279.08663026663027 8.150900129740307 L 279.75453453453457 8.247460832214813 L 280.4224388024388 8.346257014299113 L 281.09034307034307 8.447339662257093 L 281.7582473382474 8.550760870590977 L 282.4261516061516 8.656573862214941 L 283.09405587405587 8.764833008705523 L 283.7619601419602 8.875593850604844 L 284.4298644098644 8.988913117747984 L 285.0977686777687 9.104848749586665 L 285.7656729456729 9.223459915474962 L 286.4335772135772 9.344807034883786 L 287.1014814814815 9.468951797504872 L 287.7693857493858 9.595957183203268 L 288.43729001729 9.725887481773668 L 289.10519428519433 9.85880831245288 L 289.7730985530986 9.994786643134717 L 290.4410028210028 10.133890809233378 L 291.10890708890713 10.276190532132716 L 291.7768113568114 10.421756937157966 L 292.4447156247156 10.57066257099882 L 293.11261989261993 10.722981418509903 L 293.78052416052424 10.8787889188078 L 294.44842842842843 11.038161980578593 L 295.1163326963327 11.201178996504098 L 295.784236964237 11.367919856708625 L 296.45214123214123 11.538465961120892 L 297.12004550004553 11.712900230640116 L 297.7879497679498 11.891307116986752 L 298.45585403585403 12.073772611110712 L 299.1237583037583 12.26038425002406 L 299.7916625716626 12.451231121913963 L 300.4595668395669 12.64640386938521 L 301.12747110747114 12.845994690671887 L 301.7953753753754 13.050097338649266 L 302.46327964327963 13.258807117466176 L 303.13118391118394 13.47222087660981 L 303.7990881790882 13.690437002203964 L 304.4669924469925 13.913555405331635 L 305.13489671489674 14.14167750716291 L 305.802800982801 14.374906220657124 L 306.4707052507053 14.613345928599585 L 307.13860951860954 14.85710245772026 L 307.8065137865138 15.10628304863235 L 308.4744180544181 15.360996321317657 L 309.14232232232234 15.621352235874951 L 309.81022659022665 15.887462048236898 L 310.47813085813084 16.159438260552463 L 311.14603512603514 16.4373945659201 L 311.81393939393945 16.721445787151254 L 312.48184366184375 17.011707809231552 L 313.14974792974795 17.308297505144424 L 313.81765219765225 17.6113326547121 L 314.4855564655565 17.920931856106108 L 315.15346073346075 18.237214429675987 L 315.82136500136505 18.560300313742516 L 316.4892692692693 18.890309952003236 L 317.1571735371736 19.22736417220017 L 317.8250778050778 19.571584055704193 L 318.4929820729821 19.92309079768023 L 319.1608863408864 20.282005557506636 L 319.82879060879065 20.648449299136985 L 320.4966948766949 21.022542621112166 L 321.1645991445992 21.404405575949966 L 321.83250341250346 21.794157478669092 L 322.5004076804077 22.191916704232938 L 323.168311948312 22.59780047373721 L 323.83621621621626 23.01192462920443 L 324.5041204841205 23.43440339689812 L 325.17202475202475 23.865349139119758 L 325.83992901992906 24.3048720945132 L 326.5078332878333 24.753080106963807 L 327.1757375557376 25.210078343252405 L 327.84364182364186 25.675968999702604 L 328.51154609154617 26.150850998141664 L 329.17945035945036 26.63481967158765 L 329.84735462735466 27.12796644017004 L 330.51525889525897 27.630378477894 L 331.1831631631632 28.14213837096304 L 331.85106743106746 28.663323768488624 L 332.5189716989717 29.194007026527117 L 333.186875966876 29.73425484650477 L 333.85478023478026 30.284127909208223 L 334.5226845026845 30.84368050563927 L 335.1905887705888 31.412960166150924 L 335.85849303849307 31.99200728939752 L 336.5263973063973 32.580854772744146 L 337.1943015743016 33.17952764588762 L 337.86220584220587 33.788042709537194 L 338.5301101101101 34.40640818109466 L 339.1980143780144 35.0346233493471 L 339.86591864591867 35.672678240250036 L 340.5338229138229 36.32055329592464 L 341.2017271817272 36.97821906902112 L 341.86963144963147 37.64563593461003 L 342.5375357175358 38.322753821750496 L 343.20543998543997 39.00951196684997 L 343.87334425334427 39.70583869087068 L 344.5412485212486 40.41165120235655 L 345.2091527891528 41.126855428145404 L 345.8770570570571 41.851345873499895 L 346.5449613249614 42.58500551323584 L 347.2128655928656 43.32770571524628 L 347.8807698607699 44.079306197623765 L 348.5486741286742 44.839655020362926 L 349.2165783965784 45.60858861239461 L 349.8844826644827 46.38593183445667 L 350.5523869323869 47.17149807805268 L 351.22029120029123 47.96508940049094 L 351.8881954681955 48.76649669573857 L 352.55609973609984 49.57549990056961 L 353.22400400400403 50.39186823524153 L 353.8919082719083 51.21536047770212 L 354.5598125398125 52.04572527011305 L 355.22771680771683 52.88270145628488 L 355.89562107562114 53.72601844844698 L 356.56352534352544 54.57539662163802 L 357.23142961142963 55.43054773388829 L 357.89933387933394 56.29117537028719 L 358.5672381472382 57.156975408978155 L 359.23514241514243 58.02763650710699 L 359.90304668304674 58.90284060475892 L 360.57095095095104 59.78226344496079 L 361.2388552188553 60.66557510788547 L 361.9067594867596 61.552440557480395 L 362.5746637546638 62.442520198841606 L 363.2425680225681 63.33547044476481 L 363.9104722904724 64.23094429002361 L 364.57837655837665 65.12859189204167 L 365.2462808262809 66.02806115674116 L 365.9141850941852 66.92899832845404 L 366.58208936208945 67.8310485828749 L 367.2499936299937 68.73385662210865 L 367.917897897898 69.63706727092008 L 368.58580216580225 70.54032607332425 L 369.2537064337065 71.44327988866337 L 369.92161070161075 72.34557748630056 L 370.58951496951505 73.24687013801821 L 371.2574192374193 74.14681220714908 L 371.92532350532355 75.0450617333837 L 372.59322777322785 75.94128101210202 L 373.2611320411321 76.83513716696623 L 373.92903630903635 77.72630271439499 L 374.59694057694065 78.61445611841975 L 375.2648448448449 79.49928233430691 L 375.9327491127492 80.38047333922111 L 376.60065338065345 81.25772864810918 L 377.2685576485577 82.13075581290582 L 377.936461916462 82.99927090310658 L 378.60436618436626 83.86299896572186 L 379.2722704522705 84.72167446262381 L 379.9401747201748 85.5750416833244 L 380.60807898807906 86.42285513128161 L 381.2759832559833 87.26487988192054 L 381.9438875238876 88.10089191067547 L 382.61179179179186 88.93067838950856 L 383.2796960596961 89.75403795053603 L 383.9476003276004 90.57078091559214 L 384.61550459550466 91.38072949078 L 385.2834088634089 92.18371792529317 L 385.9513131313132 92.97959263403973 L 386.61921739921746 93.76821228385262 L 387.28712166712177 94.54944784332815 L 387.95502593502596 95.32318259658797 L 388.62293020293026 96.08931212150821 L 389.29083447083457 96.84774423319885 L 389.95873873873876 97.59839889373887 L 390.62664300664306 98.34120808938258 L 391.2945472745473 99.07611567663892 L 391.9624515424516 99.80307719879357 L 392.63035581035587 100.5220596745852 L 393.2982600782601 101.23304136086861 L 393.9661643461644 101.9360114911899 L 394.63406861406867 102.63096999226946 L 395.3019728819729 103.31792718043332 L 395.9698771498772 103.99690344005549 L 396.63778141778147 104.66792888607227 L 397.3056856856857 105.33104301260875 L 397.97358995359 105.98629432971592 L 398.64149422149427 106.63373999015843 L 399.3093984893985 107.27344540811941 L 399.9773027573028 107.90548387160044 L 400.64520702520707 108.5299361501971 L 401.3131112931113 109.14689009982123 L 401.9810155610156 109.75644026582628 L 402.6489198289199 110.35868748587029 L 403.3168240968242 110.9537384937276 L 403.98472836472837 111.5417055251321 L 404.6526326326327 112.1227059266098 L 405.320536900537 112.69686176812934 L 405.9884411684412 113.26429946027855 L 406.6563454363455 113.82514937655122 L 407.3242497042498 114.37954548121357 L 407.99215397215403 114.9276249631065 L 408.6600582400583 115.46952787563589 L 409.3279625079626 116.00539678310062 L 409.99586677586683 116.53537641341643 L 410.6637710437711 117.0596133172065 L 411.3316753116754 117.57825553315092 L 411.99957957957963 118.0914522594141 L 412.6674838474839 118.59935353090572 L 413.3353881153881 119.10210990207366 L 414.00329238329243 119.59987213487659 L 414.67119665119674 120.09279089154359 L 415.33910091910093 120.58101643169232 L 416.00700518700523 121.06469831335033 L 416.6749094549095 121.54398509740497 L 417.3428137228138 122.01902405499374 L 418.01071799071804 122.48996087734344 L 418.6786222586223 122.95693938756662 L 419.3465265265266 123.42010125393517 L 420.01443079443084 123.879585704166 L 420.6823350623351 124.33552924027885 L 421.3502393302394 124.78806535361667 L 422.01814359814364 125.23732423965771 L 422.6860478660479 125.68343251229476 L 423.3539521339522 126.12651291730933 L 424.0218564018564 126.56668404482997 L 424.6897606697607 127.00406004063109 L 425.35766493766505 127.43875031620485 L 426.02556920556924 127.87085925762011 L 426.6934734734735 128.30048593327376 L 427.3613777413778 128.72772380073442 L 428.029282009282 129.15266041298418 L 428.69718627718635 129.57537712447328 L 429.36509054509054 129.99594879751754 L 430.03299481299484 130.41444350969178 L 430.70089908089915 130.83092226299783 L 431.36880334880334 131.24543869571565 L 432.0367076167077 131.65803879798113 L 432.70461188461195 132.06876063226798 L 433.3725161525162 132.47763406008858 L 434.04042042042045 132.8846804763633 L 434.70832468832475 133.28991255304197 L 435.376228956229 133.69333399368935 L 436.0441332241333 134.0949393008698 L 436.7120374920375 134.49471355828254 L 437.3799417599418 134.89263222970132 L 438.04784602784605 135.2886609768665 L 438.71575029575035 135.682755498554 L 439.38365456365466 136.07486139310438 L 440.0515588315589 136.46491404673654 L 440.7194630994631 136.85283854998758 L 441.3873673673674 137.23854964461339 L 442.0552716352717 137.62195170325202 L 442.72317590317596 138.00293874409005 L 443.39108017108026 138.38139448268095 L 444.05898443898445 138.75719242294198 L 444.72688870688876 139.13019598920326 L 445.394792974793 139.50025870099424 L 446.0626972426973 139.8672243920391 L 446.73060151060156 140.23092747467965 L 447.39850577850586 140.59119325066996 L 448.06641004641006 140.94783826898066 L 448.73431431431436 141.30067073092025 L 449.4022185822186 141.64949094253222 L 450.0701228501229 141.99409181385604 L 450.7380271180272 142.33425940426125 L 451.4059313859314 142.66977351267357 L 452.07383565383566 143.00040831112082 L 452.74173992173996 143.32593301963718 L 453.40964418964427 143.64611262018346 L 454.0775484575485 143.96070860687533 L 454.7454527254528 144.26947976946337 L 455.413356993357 144.57218300668666 L 456.0812612612613 144.8685741658299 L 456.74916552916557 145.15840890455362 L 457.41706979706987 145.44144357084778 L 458.0849740649741 145.71743609677725 L 458.7528783328783 145.98614690154994 L 459.4207826007826 146.24733979934572 L 460.0886868686869 146.50078290729292 L 460.75659113659117 146.7462495489759 L 461.4244954044955 146.98351914889165 L 462.09239967239967 147.2123781133531 L 462.76030394030397 147.43262069344956 L 463.4282082082082 147.64404982582425 L 464.0961124761125 147.84647794720797 L 464.76401674401677 148.0397277788507 L 465.4319210119211 148.2236330772192 L 466.09982527982527 148.3980393475699 L 466.7677295477296 148.56280451725925 L 467.4356338156338 148.71779956591482 L 468.1035380835381 148.8629091098537 L 468.77144235144243 148.9980319383999 L 469.4393466193466 149.12308150001158 L 470.10725088725087 149.23798633638526 L 470.7751551551552 149.34269046295086 L 471.4430594230595 149.43715369441162 L 472.11096369096373 149.52135191421223 L 472.77886795886803 149.59527728704103 L 473.4467722267722 149.65893841368506 L 474.11467649467653 149.7123604277649 L 474.7825807625808 149.75558503407717 L 475.4504850304851 149.78867048847204 L 476.11838929838933 149.81169151939227 L 476.7862935662936 149.82473919139827 L 477.4541978341978 149.82792071120787 L 478.12210210210213 149.82135917698744 L 478.7900063700064 149.80519327184615 L 479.4579106379107 149.779576902709 L 480.125814905815 149.74467878597554 L 480.7937191737192 149.70068198161331 L 481.46162344162343 149.6477833775833 L 482.12952770952774 149.58619312675083 L 482.79743197743204 149.51613403869737 L 483.4653362453363 149.4378409291117 L 484.1332405132405 149.35155992970203 L 484.8011447811448 149.25754776182987 L 485.4690490490491 149.15607097731632 L 486.13695331695334 149.04740517010904 L 486.80485758485764 148.93183416271842 L 487.47276185276183 148.80964917152897 L 488.14066612066614 148.68114795526338 L 488.8085703885704 148.54663395101716 L 489.4764746564747 148.40641540238664 L 490.14437892437894 148.26080448428146 L 490.81228319228325 148.110116429037 L 491.48018746018744 147.95466865842727 L 492.14809172809174 147.79477992611723 L 492.815995995996 147.6307694749871 L 493.4839002639003 147.4629562136137 L 494.1518045318046 147.29165791600064 L 494.8197087997088 147.11719044841826 L 495.48761306761304 146.93986702694502 L 496.15551733551735 146.75999750900016 L 496.82342160342165 146.5778877218267 L 497.4913258713259 146.39383883053017 L 498.1592301392302 146.20814674790392 L 498.8271344071344 146.02110158788835 L 499.4950386750387 145.83298716411642 L 500.16294294294295 145.64408053460448 L 500.83084721084725 145.4546515932553 L 501.4987514787515 145.26496270845996 L 502.16665574665575 145.07526840871483 L 502.83456001456 144.88581511482207 L 503.5024642824643 144.69684091791095 L 504.17036855036855 144.5085754022166 L 504.83827281827286 144.3212395112746 L 505.50617708617716 144.13504545594438 L 506.17408135408135 143.95019666245886 L 506.8419856219856 143.766887758513 L 507.5098898898899 143.5853045952519 L 508.1777941577942 143.40562430289748 L 508.84569842569846 143.22801537766216 L 509.51360269360265 143.0526377975366 L 510.18150696150695 142.87964316450353 L 510.84941122941126 142.70917487072253 L 511.5173154973155 142.54136828624445 L 512.1852197652198 142.37635096585183 L 512.853124033124 142.2142428726759 L 513.5210283010283 142.05515661631344 L 514.1889325689325 141.8991977032518 L 514.8568368368368 141.74646479750925 L 515.5247411047411 141.5970499895033 L 516.1926453726454 141.45103907127597 L 516.8605496405496 141.3085118163228 L 517.5284539084539 141.16954226239676 L 518.1963581763582 141.03419899578222 L 518.8642624442624 140.9025454356594 L 519.5321667121668 140.77464011730333 L 520.200070980071 140.6505369729828 L 520.8679752479753 140.53028560954175 L 521.5358795158795 140.41393158176126 L 522.2037837837838 140.301516660707 L 522.871688051688 140.19307909637124 L 523.5395923195923 140.08865387401664 L 524.2074965874966 139.98827296371917 L 524.8754008554009 139.8919655626931 L 525.5433051233052 139.79975833005992 L 526.2112093912094 139.71167561379474 L 526.8791136591136 139.6277396696501 L 527.5470179270179 139.54797087191605 L 528.2149221949222 139.47238791593014 L 528.8828264628265 139.40100801229798 L 529.5507307307308 139.33384707282775 L 530.218634998635 139.2709198882192 L 530.8865392665393 139.2122402975795 L 531.5544435344435 139.15782134986662 L 532.2223478023478 139.10767545738247 L 532.8902520702521 139.06181454145923 L 533.5581563381564 139.02025017049556 L 534.2260606060606 138.982993690513 L 534.8939648739649 138.95005634841033 L 535.5618691418691 138.92144940810016 L 536.2297734097734 138.8971842597149 L 536.8976776776777 138.87727252207094 L 537.5655819455819 138.86172613857693 L 538.2334862134862 138.85055746677043 L 538.9013904813905 138.8437793616613 L 539.5692947492947 138.84140525305432 L 540.237199017199 138.84344921701467 L 540.9051032851032 138.84992604163196 L 541.5730075530075 138.8608512872279 L 542.2409118209118 138.87624134114085 L 542.9088160888161 138.89611346721045 L 543.5767203567204 138.92048585007072 L 544.2446246246246 138.94937763434828 L 544.9125288925289 138.9828089588488 L 545.5804331604331 139.02080098579933 L 546.2483374283374 139.06337592520077 L 546.9162416962417 139.11055705433014 L 547.584145964146 139.16236873241607 L 548.2520502320502 139.21883641049766 L 548.9199544999545 139.27998663645974 L 549.5878587678587 139.34584705522394 L 550.255763035763 139.41644640405912 L 550.9236673036673 139.4918145029592 L 551.5915715715716 139.57198224002258 L 552.2594758394758 139.65698155175187 L 552.9273801073801 139.7468453981784 L 553.5952843752843 139.84160773270247 L 554.2631886431886 139.94130346652614 L 554.931092911093 140.04596842754276 L 555.5989971789971 140.1556393135357 L 556.2669014469014 140.2703536395256 L 556.9348057148057 140.39014967909748 L 557.60270998271 140.51506639952618 L 558.2706142506142 140.64514339051402 L 558.9385185185184 140.7804207863438 L 559.6064227864227 140.9209391812477 L 560.274327054327 141.06673953778744 L 560.9422313222314 141.21786308803877 L 561.6101355901357 141.3743512273754 L 562.2780398580398 141.53624540064823 L 562.9459441259442 141.70358698056177 L 563.6138483938483 141.87641713805846 L 564.2817526617526 142.0547767045313 L 564.949656929657 142.23870602570128 L 565.6175611975613 142.42824480701444 L 566.2854654654656 142.62343195043462 L 566.9533697333698 142.82430538253672 L 567.621274001274 143.030901873835 L 568.2891782691783 143.24325684931816 L 568.9570825370826 143.46140419020477 L 569.6249868049869 143.68537602697864 L 570.292891072891 143.91520252381747 L 570.9607953407952 144.1509116545863 L 571.6286996086995 144.39252897063147 L 572.2966038766039 144.6400773606824 L 572.9645081445082 144.89357680324514 L 573.6324124124124 145.15304411195422 L 574.3003166803167 145.41849267443934 L 574.968220948221 145.68993218535732 L 575.6361252161252 145.96736837434108 L 576.3040294840295 146.25080272972127 L 576.9719337519336 146.5402322189876 L 577.639838019838 146.83564900706799 L 578.3077422877423 147.13704017362124 L 578.9756465556466 147.44438743065533 L 579.6435508235508 147.75766684190174 L 580.3114550914551 148.0768485454925 L 580.9793593593594 148.40189648160126 L 581.6472636272636 148.73276812681777 L 582.3151678951679 149.06941423713104 L 582.9830721630722 149.4117786014882 L 583.6509764309765 149.75979780798147 L 584.3188806988807 150.1134010247882 L 584.9867849667849 150.47250979804198 L 585.6546892346892 150.83703786885428 L 586.3225935025935 151.20689101172195 L 586.9904977704978 151.58196689655406 L 587.6584020384021 151.96215497652295 L 588.3263063063063 152.3473364038895 L 588.9942105742106 152.7373839758723 L 589.6621148421148 153.13216211251688 L 590.3300191100191 153.53152686838266 L 590.9979233779234 153.93532597969087 L 591.6658276458276 154.34339894837646 L 592.3337319137319 154.75557716425268 L 593.0016361816362 155.17168406623858 L 593.6695404495404 155.591535343309 L 594.3374447174447 156.01493917551647 L 595.0053489853489 156.44169651509972 L 595.6732532532533 156.8716014073428 L 596.3411575211575 157.30444135048378 L 597.0090617890618 157.7399976935999 L 597.6769660569661 158.17804607101934 L 598.3448703248703 158.61835687143613 L 599.0127745927746 159.06069573953997 L 599.6806788606788 159.50482410762035 L 600.3485831285831 159.95049975427506 L 601.0164873964874 160.39747738704594 L 601.6843916643917 160.84550924553253 L 602.3522959322959 161.29434572129585 L 603.0202002002002 161.74373599066814 L 603.6881044681044 162.193428656431 L 604.3560087360087 162.64317239422022 L 605.023913003913 163.09271659945904 L 605.6918172718173 163.54181203061626 L 606.3597215397215 163.99021144462986 L 607.0276258076258 164.43767022043275 L 607.69553007553 164.88394696665785 L 608.3634343434343 165.32880410978865 L 609.0313386113386 165.77200845924943 L 609.6992428792428 166.21333174619576 L 610.3671471471471 166.65255113306512 L 611.0350514150514 167.08944969127234 L 611.7029556829557 167.5238168447833 L 612.3708599508599 167.95544877766145 L 613.0387642187641 168.38414880405415 L 613.7066684866685 168.80972769946422 L 614.3745727545727 169.23200399252215 L 615.042477022477 169.65080421684476 L 615.7103812903813 170.06596312291748 L 616.3782855582855 170.4773238502784 L 617.0461898261898 170.88473806059574 L 617.714094094094 171.28806603252698 L 618.3819983619983 171.68717671951302 L 619.0499026299026 172.08194777189965 L 619.7178068978069 172.47226552498788 L 620.3857111657112 172.85802495479282 L 621.0536154336154 173.2391296034381 L 621.7215197015196 173.61549147623163 L 622.3894239694239 173.98703091255467 L 623.0573282373282 174.35367643275796 L 623.7252325052325 174.7153645632913 L 624.3931367731368 175.07203964230052 L 625.0610410410411 175.42365360791405 L 625.7289453089454 175.77016577140392 L 626.3968495768497 176.11154257735623 L 627.0647538447538 176.44775735291526 L 627.7326581126581 176.7787900480849 L 628.4005623805624 177.10462696897818 L 629.0684666484667 177.4252605058026 L 629.736370916371 177.74068885726135 L 630.4042751842751 178.0509157529357 L 631.0721794521794 178.35595017509888 L 631.7400837200838 178.65580608129034 L 632.4079879879881 178.95050212886457 L 633.0758922558923 179.24006140260954 L 633.7437965237965 179.52451114641494 L 634.4117007917008 179.80388249986083 L 635.0796050596051 180.0782102404891 L 635.7475093275094 180.34753253241718 L 636.4154135954137 180.61189068185814 L 637.0833178633178 180.87132890001803 L 637.7512221312221 181.12589407375705 L 638.4191263991264 181.37563554432057 L 639.0870306670307 181.62060489437386 L 639.754934934935 181.8608557435052 L 640.4228392028391 182.09644355230262 L 641.0907434707434 182.3274254350523 L 641.7586477386478 182.55385998105749 L 642.426552006552 182.77580708453215 L 643.0944562744563 182.99332778298432 L 643.7623605423606 183.20648410396845 L 644.4302648102649 183.4153389200581 L 645.098169078169 183.61995581186204 L 645.7660733460734 183.82039893888776 L 646.4339776139777 184.01673291803516 L 647.1018818818819 184.20902270949185 L 647.7697861497862 184.39733350978636 L 648.4376904176903 184.58173065174924 L 649.1055946855947 184.76227951112327 L 649.773498953499 184.9390454195627 L 650.4414032214033 185.11209358375496 L 651.1093074893075 185.28148901040228 L 651.7772117572117 185.44729643679855 L 652.445116025116 185.60958026674018 L 653.1130202930203 185.76840451151364 L 653.7809245609246 185.92383273570644 L 654.4488288288289 186.07592800759332 L 655.116733096733 186.22475285385718 L 655.7846373646374 186.37036921840829 L 656.4525416325416 186.5128384250754 L 657.1204459004459 186.6522211439472 L 657.7883501683502 186.7885773611524 L 658.4562544362543 186.92196635187355 L 659.1241587041588 187.05244665639773 L 659.792062972063 187.18007605901616 L 660.4599672399672 187.304911569592 L 661.1278715078715 187.42700940762413 L 661.7957757757757 187.54642498864277 L 662.4636800436801 187.66321291277978 L 663.1315843115843 187.7774269553659 L 663.7994885794886 187.8891200594124 L 664.467392847393 187.99834432984338 L 665.135297115297 188.10515102935275 L 665.8032013832014 188.20959057576428 L 666.4711056511056 188.3117125407817 L 667.1390099190099 188.41156565002262 L 667.8069141869142 188.5091977842332 L 668.4748184548185 188.60465598159092 L 669.1427227227227 188.6979864410036 L 669.810626990627 188.7892345263219 L 670.4785312585313 188.87844477138557 L 671.1464355264355 188.96566088583 L 671.8143397943398 189.05092576158216 L 672.4822440622441 189.13428147998297 L 673.1501483301483 189.21576931947305 L 673.8180525980526 189.29542976378576 L 674.4859568659568 189.37330251059578 L 675.1538611338611 189.44942648057068 L 675.8217654017654 189.52383982678225 L 676.4896696696696 189.59657994443265 L 677.157573937574 189.66768348085614 L 677.8254782054782 189.73718634575923 L 678.4933824733826 189.80512372166444 L 679.1612867412867 189.87153007452568 L 679.8291910091909 189.9364391644861 L 680.4970952770954 189.99988405675032 L 681.1649995449995 190.0618971325462 L 681.8329038129039 190.12251010015237 L 682.5008080808082 190.18175400597056 L 683.1687123487123 190.2396592456219 L 683.8366166166167 190.2962555750506 L 684.5045208845208 190.35157212161613 L 685.1724251524251 190.4056373951606 L 685.8403294203295 190.45847929903601 L 686.5082336882338 190.51012514107978 L 687.1761379561381 190.56060164452538 L 687.8440422240423 190.60993495883878 L 688.5119464919466 190.65815067047126 L 689.1798507598508 190.70527381351866 L 689.847755027755 190.75132888028088 L 690.5156592956594 190.79633983171328 L 691.1835635635636 190.840330107765 L 691.8514678314679 190.88332263759776 L 692.5193720993722 190.9253398496809 L 693.1872763672764 190.96640368175775 L 693.8551806351807 191.0065355906803 L 694.5230849030849 191.04575656210864 L 695.1909891709893 191.08408712007213 L 695.8588934388935 191.12154733639062 L 696.5267977067978 191.15815683995345 L 697.194701974702 191.19393482585454 L 697.8626062426063 191.22890006438325 L 698.5305105105106 191.2630709098685 L 699.1984147784148 191.29646530937785 L 699.8663190463191 191.32910081126906 L 700.5342233142234 191.3609945735953 L 701.2021275821277 191.39216337236397 L 701.8700318500319 191.42262360964955 L 702.537936117936 191.4523913215603 L 703.2058403858404 191.48148218606102 L 703.8737446537447 191.5099115306509 L 704.541648921649 191.53769433989896 L 705.2095531895533 191.5648452628379 L 705.8774574574575 191.59137862021691 L 706.5453617253618 191.6173084116154 L 707.213265993266 191.64264832241915 L 707.8811702611703 191.66741173066015 L 708.5490745290746 191.69161171372187 L 709.2169787969788 191.71526105491137 L 709.8848830648832 191.73837224990038 L 710.5527873327874 191.76095751303674 L 711.2206916006916 191.7830287835285 L 711.8885958685959 191.80459773150147 L 712.5565001365001 191.82567576393353 L 713.2244044044045 191.84627403046653 L 713.8923086723087 191.86640342909783 L 714.560212940213 191.88607461175425 L 715.2281172081173 191.9052979897486 L 715.8960214760215 191.92408373912318 L 716.5639257439258 191.94244180587955 L 717.23183001183 191.9603819110989 L 717.8997342797343 191.977913555953 L 718.5676385476386 191.99504602660917 L 719.2355428155429 192.01178839903017 L 719.9034470834471 192.02814954367162 L 720.5713513513513 192.044138130078 L 721.2392556192556 192.05976263138064 L 721.9071598871599 192.07503132869738 L 722.5750641550642 192.08995231543807 L 723.2429684229685 192.10453350151582 L 723.9108726908727 192.11878261746728 L 724.578776958777 192.13270721848266 L 725.2466812266812 192.14631468834807 L 725.9145854945855 192.15961224330118 L 726.5824897624898 192.17260693580278 L 727.250394030394 192.18530565822513 L 727.9182982982984 192.1977151464595 L 728.5862025662026 192.20984198344365 L 729.2541068341068 192.22169260261225 L 729.9220111020111 192.23327329127017 L 730.5899153699153 192.24459019389175 L 731.2578196378197 192.2556493153467 L 731.9257239057239 192.2664565240542 L 732.5936281736282 192.27701755506715 L 733.2615324415325 192.28733801308798 L 733.9294367094367 192.2974233754169 L 734.597340977341 192.30727899483446 L 735.2652452452452 192.31691010242017 L 735.9331495131495 192.3263218103077 L 736.6010537810538 192.33551911437874 L 737.2689580489581 192.34450689689655 L 737.9368623168623 192.35328992908043 L 738.6047665847666 192.36187287362253 L 739.2726708526708 192.3702602871483 L 739.9405751205751 192.37845662262143 L 740.6084793884794 192.38646623169524 L 741.2763836563837 192.39429336701065 L 741.9442879242879 192.40194218444304 L 742.6121921921922 192.4094167452981 L 743.2800964600964 192.41672101845833 L 743.9480007280007 192.42385888248148 L 744.615904995905 192.43083412765114 L 745.2838092638092 192.43765045798185 L 745.9517135317136 192.44431149317796 L 746.6196177996178 192.45082077054937 L 747.2875220675221 192.4571817468833 L 747.9554263354263 192.46339780027358 L 748.6233306033305 192.46947223190958 L 749.2912348712349 192.47540826782367 L 749.9591391391391 192.48120906059972 L 750.6270434070434 192.48687769104282 L 751.2949476749477 192.49241716981098 L 751.9628519428519 192.49783043901047 L 752.6307562107562 192.50312037375434 L 753.2986604786604 192.50828978368617 L 753.9665647465647 192.51334141446875 L 754.634469014469 192.51827794923997 L 755.3023732823733 192.5231020100345 L 755.9702775502776 192.52781615917414 L 756.6381818181818 192.53242290062627" stroke-opacity="0.9" stroke-miterlimit="10" stroke-width="2" stroke-dasharray="6"/></g></g><g><g/><g><path fill="#ffffff" stroke="#e5e5e5" paint-order="fill stroke markers" d=" M 691 14 L 780 14 L 780 77 L 691 77 L 691 14 Z" fill-opacity="0.8" stroke-miterlimit="10" stroke-opacity="0.5"/><text fill="#444444" stroke="none" font-family="helvetica" font-size="10pt" font-style="normal" font-weight="normal" text-decoration="normal" x="726" y="34" text-anchor="start" dominant-baseline="central">Model</text><g><path fill="none" stroke="rgb(225,109,0)" paint-order="fill stroke markers" d=" M 701 34 L 721 34" stroke-opacity="0.9" stroke-miterlimit="10" stroke-width="2"/></g><text fill="#444444" stroke="none" font-family="helvetica" font-size="10pt" font-style="normal" font-weight="normal" text-decoration="normal" x="726" y="57" text-anchor="start" dominant-baseline="central">Original</text><g><path fill="none" stroke="rgb(102,180,211)" paint-order="fill stroke markers" d=" M 701 57 L 721 57" stroke-opacity="0.9" stroke-miterlimit="10" stroke-width="2" stroke-dasharray="6"/></g></g></g><g><g><path fill="none" stroke="#CAC6B6" paint-order="fill stroke markers" d=" M 56 256 L 790 256" stroke-miterlimit="10"/><path fill="none" stroke="#CAC6B6" paint-order="fill stroke markers" d=" M 89 262 L 89 256" stroke-miterlimit="10"/><path fill="none" stroke="#CAC6B6" paint-order="fill stroke markers" d=" M 223 262 L 223 256" stroke-miterlimit="10"/><path fill="none" stroke="#CAC6B6" paint-order="fill stroke markers" d=" M 356 262 L 356 256" stroke-miterlimit="10"/><path fill="none" stroke="#CAC6B6" paint-order="fill stroke markers" d=" M 490 262 L 490 256" stroke-miterlimit="10"/><path fill="none" stroke="#CAC6B6" paint-order="fill stroke markers" d=" M 623 262 L 623 256" stroke-miterlimit="10"/><path fill="none" stroke="#CAC6B6" paint-order="fill stroke markers" d=" M 757 262 L 757 256" stroke-miterlimit="10"/><path fill="none" stroke="black" paint-order="fill stroke markers" d=" M 89 256 L 89 256" stroke-miterlimit="10"/><path fill="none" stroke="black" paint-order="fill stroke markers" d=" M 156 256 L 156 256" stroke-miterlimit="10"/><path fill="none" stroke="black" paint-order="fill stroke markers" d=" M 176 256 L 176 256" stroke-miterlimit="10"/><path fill="none" stroke="black" paint-order="fill stroke markers" d=" M 188 256 L 188 256" stroke-miterlimit="10"/><path fill="none" stroke="black" paint-order="fill stroke markers" d=" M 196 256 L 196 256" stroke-miterlimit="10"/><path fill="none" stroke="black" paint-order="fill stroke markers" d=" M 203 256 L 203 256" stroke-miterlimit="10"/><path fill="none" stroke="black" paint-order="fill stroke markers" d=" M 208 256 L 208 256" stroke-miterlimit="10"/><path fill="none" stroke="black" paint-order="fill stroke markers" d=" M 213 256 L 213 256" stroke-miterlimit="10"/><path fill="none" stroke="black" paint-order="fill stroke markers" d=" M 216 256 L 216 256" stroke-miterlimit="10"/><path fill="none" stroke="black" paint-order="fill stroke markers" d=" M 220 256 L 220 256" stroke-miterlimit="10"/><path fill="none" stroke="black" paint-order="fill stroke markers" d=" M 223 256 L 223 256" stroke-miterlimit="10"/><path fill="none" stroke="black" paint-order="fill stroke markers" d=" M 290 256 L 290 256" stroke-miterlimit="10"/><path fill="none" stroke="black" paint-order="fill stroke markers" d=" M 310 256 L 310 256" stroke-miterlimit="10"/><path fill="none" stroke="black" paint-order="fill stroke markers" d=" M 321 256 L 321 256" stroke-miterlimit="10"/><path fill="none" stroke="black" paint-order="fill stroke markers" d=" M 330 256 L 330 256" stroke-miterlimit="10"/><path fill="none" stroke="black" paint-order="fill stroke markers" d=" M 336 256 L 336 256" stroke-miterlimit="10"/><path fill="none" stroke="black" paint-order="fill stroke markers" d=" M 341 256 L 341 256" stroke-miterlimit="10"/><path fill="none" stroke="black" paint-order="fill stroke markers" d=" M 346 256 L 346 256" stroke-miterlimit="10"/><path fill="none" stroke="black" paint-order="fill stroke markers" d=" M 350 256 L 350 256" stroke-miterlimit="10"/><path fill="none" stroke="black" paint-order="fill stroke markers" d=" M 353 256 L 353 256" stroke-miterlimit="10"/><path fill="none" stroke="black" paint-order="fill stroke markers" d=" M 356 256 L 356 256" stroke-miterlimit="10"/><path fill="none" stroke="black" paint-order="fill stroke markers" d=" M 423 256 L 423 256" stroke-miterlimit="10"/><path fill="none" stroke="black" paint-order="fill stroke markers" d=" M 443 256 L 443 256" stroke-miterlimit="10"/><path fill="none" stroke="black" paint-order="fill stroke markers" d=" M 455 256 L 455 256" stroke-miterlimit="10"/><path fill="none" stroke="black" paint-order="fill stroke markers" d=" M 463 256 L 463 256" stroke-miterlimit="10"/><path fill="none" stroke="black" paint-order="fill stroke markers" d=" M 470 256 L 470 256" stroke-miterlimit="10"/><path fill="none" stroke="black" paint-order="fill stroke markers" d=" M 475 256 L 475 256" stroke-miterlimit="10"/><path fill="none" stroke="black" paint-order="fill stroke markers" d=" M 479 256 L 479 256" stroke-miterlimit="10"/><path fill="none" stroke="black" paint-order="fill stroke markers" d=" M 483 256 L 483 256" stroke-miterlimit="10"/><path fill="none" stroke="black" paint-order="fill stroke markers" d=" M 487 256 L 487 256" stroke-miterlimit="10"/><path fill="none" stroke="black" paint-order="fill stroke markers" d=" M 490 256 L 490 256" stroke-miterlimit="10"/><path fill="none" stroke="black" paint-order="fill stroke markers" d=" M 556 256 L 556 256" stroke-miterlimit="10"/><path fill="none" stroke="black" paint-order="fill stroke markers" d=" M 577 256 L 577 256" stroke-miterlimit="10"/><path fill="none" stroke="black" paint-order="fill stroke markers" d=" M 588 256 L 588 256" stroke-miterlimit="10"/><path fill="none" stroke="black" paint-order="fill stroke markers" d=" M 597 256 L 597 256" stroke-miterlimit="10"/><path fill="none" stroke="black" paint-order="fill stroke markers" d=" M 603 256 L 603 256" stroke-miterlimit="10"/><path fill="none" stroke="black" paint-order="fill stroke markers" d=" M 608 256 L 608 256" stroke-miterlimit="10"/><path fill="none" stroke="black" paint-order="fill stroke markers" d=" M 613 256 L 613 256" stroke-miterlimit="10"/><path fill="none" stroke="black" paint-order="fill stroke markers" d=" M 617 256 L 617 256" stroke-miterlimit="10"/><path fill="none" stroke="black" paint-order="fill stroke markers" d=" M 620 256 L 620 256" stroke-miterlimit="10"/><path fill="none" stroke="black" paint-order="fill stroke markers" d=" M 623 256 L 623 256" stroke-miterlimit="10"/><path fill="none" stroke="black" paint-order="fill stroke markers" d=" M 690 256 L 690 256" stroke-miterlimit="10"/><path fill="none" stroke="black" paint-order="fill stroke markers" d=" M 710 256 L 710 256" stroke-miterlimit="10"/><path fill="none" stroke="black" paint-order="fill stroke markers" d=" M 722 256 L 722 256" stroke-miterlimit="10"/><path fill="none" stroke="black" paint-order="fill stroke markers" d=" M 730 256 L 730 256" stroke-miterlimit="10"/><path fill="none" stroke="black" paint-order="fill stroke markers" d=" M 737 256 L 737 256" stroke-miterlimit="10"/><path fill="none" stroke="black" paint-order="fill stroke markers" d=" M 742 256 L 742 256" stroke-miterlimit="10"/><path fill="none" stroke="black" paint-order="fill stroke markers" d=" M 746 256 L 746 256" stroke-miterlimit="10"/><path fill="none" stroke="black" paint-order="fill stroke markers" d=" M 750 256 L 750 256" stroke-miterlimit="10"/><path fill="none" stroke="black" paint-order="fill stroke markers" d=" M 754 256 L 754 256" stroke-miterlimit="10"/><path fill="none" stroke="black" paint-order="fill stroke markers" d=" M 757 256 L 757 256" stroke-miterlimit="10"/><text fill="#444444" stroke="none" font-family="helvetica" font-size="8pt" font-style="normal" font-weight="normal" text-decoration="normal" x="89" y="267" text-anchor="middle" dominant-baseline="hanging">10^-5</text><text fill="#444444" stroke="none" font-family="helvetica" font-size="8pt" font-style="normal" font-weight="normal" text-decoration="normal" x="223" y="267" text-anchor="middle" dominant-baseline="hanging">10^-3</text><text fill="#444444" stroke="none" font-family="helvetica" font-size="8pt" font-style="normal" font-weight="normal" text-decoration="normal" x="356" y="267" text-anchor="middle" dominant-baseline="hanging">10^-1</text><text fill="#444444" stroke="none" font-family="helvetica" font-size="8pt" font-style="normal" font-weight="normal" text-decoration="normal" x="490" y="267" text-anchor="middle" dominant-baseline="hanging">10^1</text><text fill="#444444" stroke="none" font-family="helvetica" font-size="8pt" font-style="normal" font-weight="normal" text-decoration="normal" x="623" y="267" text-anchor="middle" dominant-baseline="hanging">10^3</text><text fill="#444444" stroke="none" font-family="helvetica" font-size="8pt" font-style="normal" font-weight="normal" text-decoration="normal" x="757" y="267" text-anchor="middle" dominant-baseline="hanging">10^5</text><text fill="#444444" stroke="none" font-family="helvetica" font-size="10pt" font-style="italic" font-weight="normal" text-decoration="normal" x="423.02" y="283.15999999999997" text-anchor="middle" dominant-baseline="hanging">Frequency [rad/s]</text></g><g><path fill="none" stroke="#CAC6B6" paint-order="fill stroke markers" d=" M 56 256 L 56 4" stroke-miterlimit="10"/><path fill="none" stroke="#CAC6B6" paint-order="fill stroke markers" d=" M 50 249 L 56 249" stroke-miterlimit="10"/><path fill="none" stroke="#CAC6B6" paint-order="fill stroke markers" d=" M 50 214 L 56 214" stroke-miterlimit="10"/><path fill="none" stroke="#CAC6B6" paint-order="fill stroke markers" d=" M 50 179 L 56 179" stroke-miterlimit="10"/><path fill="none" stroke="#CAC6B6" paint-order="fill stroke markers" d=" M 50 144 L 56 144" stroke-miterlimit="10"/><path fill="none" stroke="#CAC6B6" paint-order="fill stroke markers" d=" M 50 109 L 56 109" stroke-miterlimit="10"/><path fill="none" stroke="#CAC6B6" paint-order="fill stroke markers" d=" M 50 74 L 56 74" stroke-miterlimit="10"/><path fill="none" stroke="#CAC6B6" paint-order="fill stroke markers" d=" M 50 39 L 56 39" stroke-miterlimit="10"/><path fill="none" stroke="#CAC6B6" paint-order="fill stroke markers" d=" M 50 4 L 56 4" stroke-miterlimit="10"/><path fill="none" stroke="black" paint-order="fill stroke markers" d=" M 56 256 L 56 256" stroke-miterlimit="10"/><path fill="none" stroke="black" paint-order="fill stroke markers" d=" M 56 249 L 56 249" stroke-miterlimit="10"/><path fill="none" stroke="black" paint-order="fill stroke markers" d=" M 56 242 L 56 242" stroke-miterlimit="10"/><path fill="none" stroke="black" paint-order="fill stroke markers" d=" M 56 235 L 56 235" stroke-miterlimit="10"/><path fill="none" stroke="black" paint-order="fill stroke markers" d=" M 56 228 L 56 228" stroke-miterlimit="10"/><path fill="none" stroke="black" paint-order="fill stroke markers" d=" M 56 221 L 56 221" stroke-miterlimit="10"/><path fill="none" stroke="black" paint-order="fill stroke markers" d=" M 56 214 L 56 214" stroke-miterlimit="10"/><path fill="none" stroke="black" paint-order="fill stroke markers" d=" M 56 207 L 56 207" stroke-miterlimit="10"/><path fill="none" stroke="black" paint-order="fill stroke markers" d=" M 56 200 L 56 200" stroke-miterlimit="10"/><path fill="none" stroke="black" paint-order="fill stroke markers" d=" M 56 193 L 56 193" stroke-miterlimit="10"/><path fill="none" stroke="black" paint-order="fill stroke markers" d=" M 56 186 L 56 186" stroke-miterlimit="10"/><path fill="none" stroke="black" paint-order="fill stroke markers" d=" M 56 179 L 56 179" stroke-miterlimit="10"/><path fill="none" stroke="black" paint-order="fill stroke markers" d=" M 56 172 L 56 172" stroke-miterlimit="10"/><path fill="none" stroke="black" paint-order="fill stroke markers" d=" M 56 165 L 56 165" stroke-miterlimit="10"/><path fill="none" stroke="black" paint-order="fill stroke markers" d=" M 56 158 L 56 158" stroke-miterlimit="10"/><path fill="none" stroke="black" paint-order="fill stroke markers" d=" M 56 151 L 56 151" stroke-miterlimit="10"/><path fill="none" stroke="black" paint-order="fill stroke markers" d=" M 56 144 L 56 144" stroke-miterlimit="10"/><path fill="none" stroke="black" paint-order="fill stroke markers" d=" M 56 137 L 56 137" stroke-miterlimit="10"/><path fill="none" stroke="black" paint-order="fill stroke markers" d=" M 56 130 L 56 130" stroke-miterlimit="10"/><path fill="none" stroke="black" paint-order="fill stroke markers" d=" M 56 123 L 56 123" stroke-miterlimit="10"/><path fill="none" stroke="black" paint-order="fill stroke markers" d=" M 56 116 L 56 116" stroke-miterlimit="10"/><path fill="none" stroke="black" paint-order="fill stroke markers" d=" M 56 109 L 56 109" stroke-miterlimit="10"/><path fill="none" stroke="black" paint-order="fill stroke markers" d=" M 56 102 L 56 102" stroke-miterlimit="10"/><path fill="none" stroke="black" paint-order="fill stroke markers" d=" M 56 95 L 56 95" stroke-miterlimit="10"/><path fill="none" stroke="black" paint-order="fill stroke markers" d=" M 56 88 L 56 88" stroke-miterlimit="10"/><path fill="none" stroke="black" paint-order="fill stroke markers" d=" M 56 81 L 56 81" stroke-miterlimit="10"/><path fill="none" stroke="black" paint-order="fill stroke markers" d=" M 56 74 L 56 74" stroke-miterlimit="10"/><path fill="none" stroke="black" paint-order="fill stroke markers" d=" M 56 67 L 56 67" stroke-miterlimit="10"/><path fill="none" stroke="black" paint-order="fill stroke markers" d=" M 56 60 L 56 60" stroke-miterlimit="10"/><path fill="none" stroke="black" paint-order="fill stroke markers" d=" M 56 53 L 56 53" stroke-miterlimit="10"/><path fill="none" stroke="black" paint-order="fill stroke markers" d=" M 56 46 L 56 46" stroke-miterlimit="10"/><path fill="none" stroke="black" paint-order="fill stroke markers" d=" M 56 39 L 56 39" stroke-miterlimit="10"/><path fill="none" stroke="black" paint-order="fill stroke markers" d=" M 56 32 L 56 32" stroke-miterlimit="10"/><path fill="none" stroke="black" paint-order="fill stroke markers" d=" M 56 25 L 56 25" stroke-miterlimit="10"/><path fill="none" stroke="black" paint-order="fill stroke markers" d=" M 56 18 L 56 18" stroke-miterlimit="10"/><path fill="none" stroke="black" paint-order="fill stroke markers" d=" M 56 11 L 56 11" stroke-miterlimit="10"/><path fill="none" stroke="black" paint-order="fill stroke markers" d=" M 56 4 L 56 4" stroke-miterlimit="10"/><text fill="#444444" stroke="none" font-family="helvetica" font-size="8pt" font-style="normal" font-weight="normal" text-decoration="normal" x="45" y="249" text-anchor="end" dominant-baseline="central">-350</text><text fill="#444444" stroke="none" font-family="helvetica" font-size="8pt" font-style="normal" font-weight="normal" text-decoration="normal" x="45" y="214" text-anchor="end" dominant-baseline="central">-300</text><text fill="#444444" stroke="none" font-family="helvetica" font-size="8pt" font-style="normal" font-weight="normal" text-decoration="normal" x="45" y="179" text-anchor="end" dominant-baseline="central">-250</text><text fill="#444444" stroke="none" font-family="helvetica" font-size="8pt" font-style="normal" font-weight="normal" text-decoration="normal" x="45" y="144" text-anchor="end" dominant-baseline="central">-200</text><text fill="#444444" stroke="none" font-family="helvetica" font-size="8pt" font-style="normal" font-weight="normal" text-decoration="normal" x="45" y="109" text-anchor="end" dominant-baseline="central">-150</text><text fill="#444444" stroke="none" font-family="helvetica" font-size="8pt" font-style="normal" font-weight="normal" text-decoration="normal" x="45" y="74" text-anchor="end" dominant-baseline="central">-100</text><text fill="#444444" stroke="none" font-family="helvetica" font-size="8pt" font-style="normal" font-weight="normal" text-decoration="normal" x="45" y="39" text-anchor="end" dominant-baseline="central">-50</text><text fill="#444444" stroke="none" font-family="helvetica" font-size="8pt" font-style="normal" font-weight="normal" text-decoration="normal" x="45" y="4" text-anchor="end" dominant-baseline="central">0</text><g transform="translate(15.840000000000003,129.82) rotate(-90,0,0)"><text fill="#444444" stroke="none" font-family="helvetica" font-size="10pt" font-style="italic" font-weight="normal" text-decoration="normal" x="0" y="0" text-anchor="middle" dominant-baseline="alphabetic">Phase [rad]</text><g transform="rotate(90,0,0) translate(-15.840000000000003,-129.82)"/></g></g></g></g></g></svg>