<svg version="1.1" xmlns="http://www.w3.org/2000/svg" xmlns:xlink="http://www.w3.org/1999/xlink" width="800" height="300" style="width: 800px; height: 300px;"><defs/><g><g/><g transform="scale(1,1) translate(0.5,0.5)"><rect fill="#FFFFFF" stroke="none" x="0" y="0" width="800" height="300"/><rect fill="#ffffff" stroke="none" x="0" y="0" width="800" height="300"/><rect fill="#FFFFFF" stroke="none" x="52.92843750000001" y="4" width="717.0715625" height="246.2625"/><rect fill="#ffffff" stroke="none" x="52.92843750000001" y="4" width="717.0715625" height="246.2625"/><g><rect fill="none" stroke="#e5e5e5" x="52.92843750000001" y="4" width="717.0715625" height="246.2625" stroke-miterlimit="10"/></g><g><g><path fill="none" stroke="#e5e5e5" paint-order="fill stroke markers" d=" M 196 250 L 196 4" stroke-miterlimit="10"/><path fill="none" stroke="#e5e5e5" paint-order="fill stroke markers" d=" M 340 250 L 340 4" stroke-miterlimit="10"/><path fill="none" stroke="#e5e5e5" paint-order="fill stroke markers" d=" M 483 250 L 483 4" stroke-miterlimit="10"/><path fill="none" stroke="#e5e5e5" paint-order="fill stroke markers" d=" M 627 250 L 627 4" stroke-miterlimit="10"/></g><g><path fill="none" stroke="#e5e5e5" paint-order="fill stroke markers" d=" M 53 239 L 770 239" stroke-miterlimit="10"/><path fill="none" stroke="#e5e5e5" paint-order="fill stroke markers" d=" M 53 180 L 770 180" stroke-miterlimit="10"/><path fill="none" stroke="#e5e5e5" paint-order="fill stroke markers" d=" M 53 121 L 770 121" stroke-miterlimit="10"/><path fill="none" stroke="#e5e5e5" paint-order="fill stroke markers" d=" M 53 63 L 770 63" stroke-miterlimit="10"/></g><g><path fill="none" stroke="none"/><path fill="none" stroke="rgb(225,109,0)" paint-order="fill stroke markers" d=" M 52.92843750000001 238.53571428571428 L 53.64622685185186 238.53872495289838 L 54.36401620370371 238.76632117857568 L 55.08180555555556 238.61782347554885 L 55.79959490740742 238.36208093760584 L 56.517384259259266 238.25576026343876 L 57.23517361111112 238.3522149814161 L 57.95296296296297 238.5615339793038 L 58.67075231481482 238.7563658316563 L 59.388541666666676 238.84585834564314 L 60.106331018518524 238.80315881967306 L 60.82412037037038 238.6578562421985 L 61.54190972222223 238.47101417952086 L 62.259699074074085 238.30769064306344 L 62.977488425925934 238.2161365861735 L 63.69527777777779 238.2173252476829 L 64.41306712962964 238.3043992773731 L 65.13085648148149 238.4493093807923 L 65.84864583333334 238.6131141353057 L 66.56643518518518 238.75667008662276 L 67.28422453703705 238.84930047051336 L 68.0020138888889 238.8741020797785 L 68.71980324074075 238.82955707494847 L 69.43759259259261 238.72789734384645 L 70.15538194444446 238.59115671465656 L 70.8731712962963 238.44604519276442 L 71.59096064814815 238.3187387321881 L 72.30875 238.2304694381136 L 73.02653935185185 238.19450056741613 L 73.74432870370372 238.21474644740684 L 74.46211805555556 238.28600263200627 L 75.17990740740741 238.39552146157368 L 75.89769675925926 238.52552022626176 L 76.61548611111112 238.6561456805169 L 77.33327546296297 238.76843048512535 L 78.05106481481482 238.84684752953234 L 78.76885416666667 238.8811766568624 L 79.48664351851852 238.86752440775166 L 80.20443287037037 238.8084625459751 L 80.92222222222223 238.71236070769297 L 81.64001157407408 238.59207258308126 L 82.35780092592594 238.46318844767322 L 83.07559027777779 238.34208883313164 L 83.79337962962964 238.24402745190278 L 84.51116898148149 238.18144151600114 L 85.22895833333334 238.16264116562908 L 85.94674768518519 238.19097420195192 L 86.66453703703704 238.26450471460566 L 87.3823263888889 238.3761905424373 L 88.10011574074075 238.51449944065197 L 88.81790509259261 238.66437038427563 L 89.53569444444446 238.80840604398315 L 90.25348379629631 238.92817509204116 L 90.97127314814816 239.00550739557522 L 91.6890625 239.0236792120719 L 92.40685185185185 238.96840656164107 L 93.1246412037037 238.82859015066765 L 93.84243055555557 238.59678178645134 L 94.56021990740742 238.2693676940156 L 95.27800925925926 237.846486546157 L 95.99579861111113 237.3317179395355 L 96.71358796296298 236.73158968462843 L 97.43137731481482 236.05495938494732 L 98.14916666666667 235.3123276146494 L 98.86695601851852 234.51513720865043 L 99.58474537037037 233.67510667404167 L 100.30253472222222 232.80363658715154 L 101.02032407407408 231.9113171680566 L 101.73811342592593 231.00755407808936 L 102.45590277777778 230.1003187880556 L 103.17369212962964 229.1960203536314 L 103.89148148148149 228.29948763595357 L 104.60927083333334 227.4140452278356 L 105.32706018518519 226.54166269173663 L 106.04484953703704 225.68315510794932 L 106.76263888888889 224.83841315105593 L 107.48042824074074 224.0066426386557 L 108.19821759259258 223.18659634842865 L 108.91600694444445 222.37678447758358 L 109.6337962962963 221.57565403663713 L 110.35158564814816 220.78173138252694 L 111.06937500000001 219.99372571986777 L 111.78716435185186 219.21059452072427 L 112.5049537037037 218.43157429463486 L 113.22274305555555 217.6561819160206 L 113.94053240740742 216.88419278412925 L 114.65832175925927 216.11560250282128 L 115.37611111111113 215.35057861483995 L 116.09390046296298 214.5894083242677 L 116.81168981481483 213.83244722024807 L 117.52947916666668 213.08007290348297 L 118.24726851851852 212.33264623359844 L 118.96505787037037 211.59048176243726 L 119.68284722222222 210.85382787642175 L 120.40063657407407 210.12285629744412 L 121.11842592592592 209.3976599198391 L 121.8362152777778 208.67825750273593 L 122.55400462962965 207.9646034858077 L 123.2717939814815 207.25660113095608 L 123.98958333333334 206.55411728144418 L 124.70737268518519 205.85699723625518 L 125.42516203703704 205.16507852197756 L 126.14295138888889 204.4782026697513 L 126.86074074074074 203.79622443731853 L 127.57853009259262 203.11901822846588 L 128.29631944444446 202.4464817334867 L 129.0141087962963 201.77853703127886 L 129.73189814814816 201.11512954972326 L 130.4496875 200.45622537551031 L 131.16747685185186 199.80180744197767 L 131.8852662037037 199.15187111182445 L 132.60305555555556 198.50641962111766 L 133.3208449074074 197.86545977322618 L 134.03863425925925 197.2289981775758 L 134.75642361111113 196.5970382288807 L 135.47421296296298 195.96957792666086 L 136.19200231481483 195.34660854933082 L 136.90979166666668 194.7281141267333 L 137.62758101851853 194.1140716023813 L 138.34537037037038 193.504451542635 L 139.06315972222222 192.8992192337373 L 139.78094907407407 192.2983360069879 L 140.49873842592592 191.70176064442848 L 141.21652777777777 191.10945073887996 L 141.93431712962965 190.52136390954098 L 142.6521064814815 189.9374588043554 L 143.36989583333335 189.35769585011883 L 144.0876851851852 188.7820377385216 L 144.80547453703704 188.21044965934692 L 145.5232638888889 187.64289930984324 L 146.24105324074074 187.07935672144953 L 146.9588425925926 186.51979395167874 L 147.67663194444444 185.96418469058068 L 148.3944212962963 185.41250382862933 L 149.11221064814816 184.86472702710205 L 149.83 184.32083032410128 L 150.54778935185186 183.78078980033402 L 151.2655787037037 183.24458131953742 L 151.98336805555556 182.7121803497766 L 152.7011574074074 182.18356186432152 L 153.41894675925926 181.65870031480762 L 154.1367361111111 181.13756966508384 L 154.85452546296295 180.6201434715744 L 155.5723148148148 180.1063949949971 L 156.29010416666668 179.59629732867586 L 157.00789351851853 179.0898235301633 L 157.72568287037038 178.5869467451294 L 158.44347222222223 178.08764031516174 L 159.16126157407408 177.5918778639554 L 159.87905092592592 177.09963335910942 L 160.59684027777777 176.61088114918118 L 161.31462962962962 176.1255959776589 L 162.03241898148147 175.64375297700923 L 162.75020833333332 175.16532764692496 L 163.46799768518517 174.69029582136034 L 164.18578703703704 174.21863362895598 L 164.9035763888889 173.7503174511079 L 165.62136574074074 173.28532388131708 L 166.3391550925926 172.82362968867187 L 167.05694444444444 172.36521178745363 L 167.7747337962963 171.91004721400054 L 168.49252314814817 171.4581131111841 L 169.21031250000001 171.0093867201865 L 169.92810185185186 170.5638453787575 L 170.6458912037037 170.12146652477333 L 171.36368055555556 169.6822277037307 L 172.0814699074074 169.2461065787556 L 172.79925925925926 168.81308094178064 L 173.5170486111111 168.383128724706 L 174.23483796296298 167.95622800958486 L 174.95262731481483 167.5323570371333 L 175.67041666666668 167.1114942131274 L 176.38820601851853 166.69361811250025 L 177.10599537037038 166.27870748116706 L 177.82378472222223 165.86674123578064 L 178.54157407407408 165.45769846174443 L 179.25936342592593 165.05155840988516 L 179.97715277777777 164.64830049221723 L 180.69494212962962 164.24790427722246 L 181.41273148148147 163.85034948502468 L 182.13052083333332 163.45561598277905 L 182.84831018518517 163.06368378051735 L 183.56609953703705 162.67453302760998 L 184.2838888888889 162.2881440099278 L 185.00167824074074 161.90449714771665 L 185.7194675925926 161.52357299413947 L 186.43725694444444 161.14535223439736 L 187.1550462962963 160.76981568531386 L 187.87283564814814 160.3969442952511 L 188.590625 160.02671914422749 L 189.30841435185184 159.65912144411436 L 190.0262037037037 159.29413253880801 L 190.74399305555556 158.93173390429394 L 191.4617824074074 158.57190714854585 L 192.17957175925926 158.2146340112268 L 192.8973611111111 157.85989636318004 L 193.61515046296296 157.50767620571878 L 194.3329398148148 157.1579556697369 L 195.05072916666666 156.81071701467448 L 195.7685185185185 156.46594262737602 L 196.48630787037038 156.12361502088226 L 197.20409722222223 155.7837168331938 L 197.92188657407408 155.44623082604048 L 198.63967592592593 155.111139883684 L 199.35746527777778 154.77842701177386 L 200.07525462962963 154.44807533626954 L 200.79304398148147 154.12006810243435 L 201.51083333333335 153.79438867390013 L 202.2286226851852 153.47102053179782 L 202.94641203703705 153.1499472739436 L 203.6642013888889 152.83115261407016 L 204.38199074074075 152.51462038109082 L 205.0997800925926 152.20033451838282 L 205.81756944444444 151.8882790830813 L 206.5353587962963 151.57843824537252 L 207.25314814814814 151.2707962877808 L 207.9709375 150.96533760444387 L 208.68872685185187 150.66204670037405 L 209.40651620370372 150.36090819070512 L 210.12430555555557 150.06190679992568 L 210.84209490740741 149.76502736110206 L 211.55988425925926 149.4702548150931 L 212.2776736111111 149.17757420976147 L 212.99546296296296 148.88697069918436 L 213.7132523148148 148.59842954286765 L 214.43104166666666 148.31193610496592 L 215.1488310185185 148.0274758535114 L 215.86662037037038 147.74503435965258 L 216.58440972222223 147.46459729690403 L 217.30219907407408 147.18615044040766 L 218.01998842592593 146.90967966620488 L 218.73777777777778 146.6351709505194 L 219.45556712962963 146.36261036904938 L 220.17335648148148 146.09198409626794 L 220.89114583333333 145.82327840473056 L 221.60893518518517 145.55647966438892 L 222.32672453703702 145.29157434190944 L 223.04451388888887 145.02854899999608 L 223.76230324074075 144.76739029671643 L 224.4800925925926 144.50808498483158 L 225.19788194444445 144.25061991112804 L 225.9156712962963 143.99498201575338 L 226.63346064814814 143.74115833155446 L 227.35125 143.48913598341898 L 228.06903935185184 143.23890218762077 L 228.7868287037037 142.99044425116858 L 229.50461805555554 142.74374957115953 L 230.2224074074074 142.49880563413657 L 230.94019675925927 142.25560001545097 L 231.65798611111111 142.0141203786293 L 232.37577546296296 141.77435447474585 L 233.0935648148148 141.53629014179953 L 233.81135416666666 141.2999153040962 L 234.5291435185185 141.06521797163563 L 235.24693287037036 140.83218623950341 L 235.9647222222222 140.60080828726745 L 236.68251157407406 140.3710723783791 L 237.4003009259259 140.14296685957873 L 238.11809027777778 139.91648016030558 L 238.83587962962963 139.69160079211167 L 239.55366898148148 139.46831734808003 L 240.27145833333333 139.24661850224663 L 240.98924768518518 139.02649300902647 L 241.70703703703703 138.80792970264366 L 242.42482638888887 138.59091749656477 L 243.14261574074072 138.375445382937 L 243.86040509259257 138.16150243202944 L 244.57819444444442 137.94907779167852 L 245.2959837962963 137.73816068673733 L 246.01377314814815 137.52874041852874 L 246.7315625 137.32080636430243 L 247.44935185185184 137.11434797669574 L 248.1671412037037 136.90935478319858 L 248.88493055555554 136.70581638562203 L 249.6027199074074 136.50372245957067 L 250.32050925925924 136.30306275391865 L 251.0382986111111 136.1038270902901 L 251.75608796296294 135.9060053625425 L 252.4738773148148 135.7095875362542 L 253.19166666666666 135.51456364821547 L 253.9094560185185 135.32092380592337 L 254.62724537037036 135.1286581870799 L 255.3450347222222 134.9377570390938 L 256.06282407407406 134.74821067858596 L 256.78061342592594 134.5600094908986 L 257.49840277777776 134.37314392960707 L 258.21619212962963 134.18760451603606 L 258.93398148148145 134.00338183877858 L 259.65177083333333 133.8204665532187 L 260.3695601851852 133.63884938105753 L 261.087349537037 133.45852110984254 L 261.8051388888889 133.27947259250013 L 262.5229282407407 133.10169474687194 L 263.2407175925926 132.92517855525378 L 263.9585069444444 132.7499150639382 L 264.6762962962963 132.5758953827606 L 265.3940856481481 132.403110684648 L 266.111875 132.23155220517137 L 266.8296643518518 132.06121124210102 L 267.5474537037037 131.8920791549653 L 268.2652430555556 131.72414736461218 L 268.9830324074074 131.55740735277405 L 269.70082175925927 131.39185066163586 L 270.4186111111111 131.22746889340593 L 271.13640046296297 131.06425370988995 L 271.8541898148148 130.90219683206823 L 272.57197916666667 130.74129003967556 L 273.2897685185185 130.5815251707843 L 274.00755787037036 130.42289412139039 L 274.72534722222224 130.2653888450023 L 275.44313657407406 130.10900135223307 L 276.16092592592594 129.9537237103945 L 276.87871527777776 129.7995480430954 L 277.59650462962964 129.64646652984158 L 278.31429398148146 129.4944714056395 L 279.03208333333333 129.34355496060215 L 279.74987268518515 129.19370953955794 L 280.46766203703703 129.0449275416628 L 281.18545138888885 128.89720142001417 L 281.9032407407407 128.75052368126833 L 282.6210300925926 128.60488688526044 L 283.3388194444445 128.46028364462683 L 284.0566087962963 128.31670662443068 L 284.7743981481482 128.17414854178958 L 285.4921875 128.03260216550646 L 286.2099768518519 127.8920603157024 L 286.9277662037037 127.75251586345286 L 287.6455555555556 127.61396173042567 L 288.36334490740745 127.47639088852236 L 289.0811342592593 127.33979635952136 L 289.79892361111115 127.20417121472417 L 290.51671296296297 127.06950857460379 L 291.23450231481485 126.93580160845607 L 291.95229166666667 126.80304353405279 L 292.67008101851854 126.67122761729806 L 293.38787037037036 126.54034717188637 L 294.10565972222224 126.41039555896378 L 294.82344907407406 126.28136618679085 L 295.54123842592594 126.15325251040844 L 296.2590277777778 126.02604803130566 L 296.97681712962964 125.89974629709019 L 297.6946064814815 125.7743409011612 L 298.41239583333333 125.6498254823841 L 299.1301851851852 125.52619372476806 L 299.84797453703703 125.4034393571456 L 300.5657638888889 125.28155615285445 L 301.28355324074073 125.16053792942171 L 302.0013425925926 125.04037854825032 L 302.7191319444445 124.9210719143075 L 303.4369212962963 124.80261197581584 L 304.1547106481482 124.68499272394615 L 304.8725 124.56820819251263 L 305.5902893518519 124.4522524576704 L 306.3080787037037 124.33711963761488 L 307.0258680555556 124.22280389228345 L 307.7436574074074 124.10929942305944 L 308.4614467592593 123.9966004724775 L 309.17923611111115 123.88470132393218 L 309.897025462963 123.77359630138739 L 310.61481481481485 123.66327976908889 L 311.33260416666667 123.55374613127822 L 312.05039351851855 123.44498983190903 L 312.76818287037037 123.33700535436489 L 313.48597222222224 123.22978722117992 L 314.2037615740741 123.12332999376059 L 314.92155092592594 123.01762827211002 L 315.6393402777778 122.91267669455402 L 316.35712962962964 122.80846993746923 L 317.0749189814815 122.70500271501282 L 317.79270833333334 122.60226977885469 L 318.5104976851852 122.50026591791098 L 319.22828703703703 122.39898595807989 L 319.9460763888889 122.29842476197928 L 320.66386574074073 122.19857722868588 L 321.3816550925926 122.09943829347674 L 322.0994444444445 122.00100292757213 L 322.8172337962963 121.90326613788068 L 323.5350231481482 121.8062229667459 L 324.2528125 121.70986849169486 L 324.9706018518519 121.61419782518851 L 325.6883912037037 121.51920611437356 L 326.4061805555556 121.4248885408366 L 327.1239699074074 121.33124032035929 L 327.8417592592593 121.23825670267613 L 328.55954861111115 121.14593297123332 L 329.277337962963 121.05426444294955 L 329.99512731481485 120.9632464679782 L 330.7129166666667 120.87287442947184 L 331.43070601851855 120.78314374334786 L 332.14849537037037 120.6940498580559 L 332.86628472222225 120.60558825434714 L 333.58407407407407 120.51775444504494 L 334.30186342592594 120.43054397481725 L 335.01965277777776 120.34395241995065 L 335.73744212962964 120.25797538812591 L 336.4552314814815 120.17260851819526 L 337.17302083333334 120.08784747996114 L 337.8908101851852 120.00368797395654 L 338.60859953703704 119.92012573122696 L 339.3263888888889 119.83715651311354 L 340.0441782407408 119.75477611103867 L 340.7619675925926 119.67298034629195 L 341.4797569444445 119.59176506981856 L 342.19754629629637 119.51112616200868 L 342.9153356481482 119.43105953248858 L 343.63312500000006 119.35156111991301 L 344.3509143518519 119.27262689175944 L 345.06870370370376 119.19425284412307 L 345.7864930555556 119.11643500151428 L 346.50428240740746 119.03916941665645 L 347.2220717592593 118.96245217028627 L 347.93986111111116 118.88627937095458 L 348.657650462963 118.81064715482896 L 349.37543981481485 118.73555168549797 L 350.09322916666673 118.66098915377646 L 350.81101851851855 118.58695577751217 L 351.52880787037043 118.51344780139408 L 352.24659722222225 118.44046149676183 L 352.9643865740741 118.36799316141668 L 353.68217592592595 118.29603911943371 L 354.3999652777778 118.22459572097503 L 355.11775462962964 118.15365934210524 L 355.8355439814815 118.08322638460714 L 356.55333333333334 118.01329327579936 L 357.2711226851852 117.9438564683552 L 357.9889120370371 117.87491244012256 L 358.7067013888889 117.80645769394533 L 359.4244907407408 117.73848875748615 L 360.1422800925926 117.67100218305009 L 360.8600694444445 117.60399454740983 L 361.5778587962963 117.53746245163194 L 362.2956481481482 117.47140252090463 L 363.0134375 117.40581140436652 L 363.7312268518519 117.34068577493642 L 364.44901620370376 117.27602232914492 L 365.1668055555556 117.21181778696669 L 365.88459490740746 117.14806889165413 L 366.6023842592593 117.084772409572 L 367.32017361111116 117.02192513003365 L 368.037962962963 116.9595238651379 L 368.75575231481486 116.89756544960755 L 369.4735416666667 116.83604674062866 L 370.19133101851855 116.77496461769135 L 370.9091203703704 116.71431598243132 L 371.62690972222225 116.65409775847274 L 372.34469907407413 116.5943068912722 L 373.06248842592595 116.53494034796387 L 373.7802777777778 116.47599511720543 L 374.49806712962965 116.41746820902557 L 375.2158564814815 116.35935665467207 L 375.93364583333334 116.30165750646162 L 376.6514351851852 116.2443678376298 L 377.36922453703704 116.18748474218279 L 378.0870138888889 116.1310053347502 L 378.8048032407408 116.07492675043852 L 379.5225925925926 116.01924614468572 L 380.2403819444445 115.96396069311714 L 380.9581712962963 115.9090675914021 L 381.6759606481482 115.85456405511178 L 382.39375 115.80044731957778 L 383.1115393518519 115.7467146397521 L 383.8293287037037 115.69336329006777 L 384.5471180555556 115.64039056430062 L 385.2649074074074 115.58779377543215 L 385.9826967592593 115.5355702555128 L 386.70048611111116 115.48371735552718 L 387.418275462963 115.43223244525927 L 388.13606481481486 115.38111291315917 L 388.8538541666667 115.33035616621075 L 389.57164351851856 115.27995962979998 L 390.2894328703704 115.22992074758426 L 391.00722222222225 115.18023698136287 L 391.7250115740741 115.13090581094826 L 392.44280092592595 115.0819247340381 L 393.16059027777777 115.03329126608844 L 393.87837962962965 114.98500294018771 L 394.5961689814815 114.93705730693137 L 395.31395833333335 114.88945193429791 L 396.0317476851852 114.8421844075254 L 396.74953703703704 114.79525232898891 L 397.4673263888889 114.74865331807908 L 398.18511574074074 114.70238501108116 L 398.9029050925926 114.65644506105531 L 399.62069444444444 114.61083113771741 L 400.3384837962963 114.56554092732091 L 401.0562731481482 114.52057213253943 L 401.7740625 114.4759224723503 L 402.4918518518519 114.43158968191878 L 403.2096412037037 114.38757151248322 L 403.9274305555556 114.34386573124101 L 404.6452199074074 114.30047012123521 L 405.3630092592593 114.25738248124225 L 406.0807986111111 114.21460062566021 L 406.798587962963 114.17212238439802 L 407.5163773148148 114.12994560276522 L 408.2341666666667 114.08806814136275 L 408.95195601851856 114.04648787597449 L 409.6697453703704 114.00520269745937 L 410.38753472222226 113.96421051164452 L 411.1053240740741 113.92350923921907 L 411.82311342592595 113.88309681562862 L 412.5409027777778 113.84297119097039 L 413.25869212962965 113.80313032988943 L 413.97648148148147 113.76357221147524 L 414.69427083333335 113.7242948291593 L 415.4120601851852 113.68529619061349 L 416.12984953703705 113.6465743176486 L 416.8476388888889 113.6081272461144 L 417.56542824074074 113.56995302579975 L 418.2832175925926 113.53204972033384 L 419.00100694444444 113.49441540708787 L 419.7187962962963 113.45704817707767 L 420.43658564814814 113.41994613486662 L 421.154375 113.38310739846952 L 421.87216435185184 113.34653009925759 L 422.5899537037037 113.3102123818629 L 423.3077430555556 113.27415240408502 L 424.0255324074074 113.23834833679712 L 424.7433217592593 113.20279836385333 L 425.4611111111111 113.16750068199664 L 426.178900462963 113.13245350076744 L 426.8966898148148 113.09765504241255 L 427.6144791666667 113.06310354179533 L 428.3322685185185 113.02879724630577 L 429.0500578703704 112.99473441577192 L 429.76784722222226 112.96091332237137 L 430.4856365740741 112.92733225054363 L 431.20342592592596 112.8939894969034 L 431.9212152777778 112.86088337015383 L 432.63900462962965 112.82801219100097 L 433.3567939814815 112.79537429206835 L 434.07458333333335 112.76296801781274 L 434.79237268518517 112.73079172443994 L 435.51016203703705 112.69884377982129 L 436.22795138888887 112.66712256341125 L 436.94574074074075 112.63562646616472 L 437.6635300925926 112.60435389045585 L 438.38131944444444 112.57330324999677 L 439.0991087962963 112.54247296975717 L 439.81689814814814 112.51186148588425 L 440.5346875 112.48146724562392 L 441.25247685185184 112.45128870724139 L 441.9702662037037 112.4213243399434 L 442.68805555555554 112.39157262380027 L 443.4058449074074 112.36203204966915 L 444.12363425925923 112.33270111911708 L 444.8414236111111 112.30357834434531 L 445.559212962963 112.27466224811354 L 446.2770023148148 112.2459513636652 L 446.9947916666667 112.2174442346531 L 447.7125810185185 112.18913941506543 L 448.4303703703704 112.16103546915241 L 449.1481597222222 112.13313097135364 L 449.8659490740741 112.10542450622546 L 450.5837384259259 112.07791466836949 L 451.3015277777778 112.05060006236113 L 452.01931712962966 112.02347930267882 L 452.7371064814815 111.99655101363362 L 453.45489583333335 111.96981382929994 L 454.1726851851852 111.94326639344553 L 454.89047453703705 111.91690735946338 L 455.60826388888887 111.89073539030267 L 456.32605324074075 111.86474915840165 L 457.04384259259257 111.83894734561989 L 457.76163194444445 111.81332864317153 L 458.47942129629627 111.78789175155896 L 459.19721064814814 111.7626353805066 L 459.915 111.73755824889602 L 460.63278935185184 111.71265908470048 L 461.3505787037037 111.68793662492075 L 462.06836805555554 111.66338961552074 L 462.7861574074074 111.63901681136383 L 463.50394675925924 111.61481697615028 L 464.2217361111111 111.59078888235388 L 464.93952546296293 111.56693131115998 L 465.6573148148148 111.54324305240362 L 466.3751041666667 111.51972290450828 L 467.0928935185185 111.49636967442459 L 467.8106828703704 111.47318217756998 L 468.5284722222222 111.4501592377687 L 469.2462615740741 111.427299687192 L 469.9640509259259 111.40460236629912 L 470.6818402777778 111.38206612377812 L 471.3996296296296 111.35968981648784 L 472.1174189814815 111.33747230939971 L 472.8352083333333 111.31541247554031 L 473.5529976851852 111.29350919593406 L 474.27078703703705 111.27176135954653 L 474.9885763888889 111.25016786322817 L 475.70636574074075 111.22872761165814 L 476.42415509259257 111.20743951728895 L 477.14194444444445 111.1863025002913 L 477.85973379629627 111.16531548849915 L 478.57752314814815 111.14447741735546 L 479.29531249999997 111.12378722985807 L 480.01310185185184 111.10324387650613 L 480.73089120370366 111.08284631524697 L 481.44868055555554 111.06259351142307 L 482.1664699074074 111.04248443771968 L 482.88425925925924 111.02251807411272 L 483.6020486111111 111.00269340781702 L 484.31983796296294 110.98300943323494 L 485.0376273148148 110.96346515190527 L 485.75541666666663 110.94405957245283 L 486.4732060185185 110.92479171053793 L 487.19099537037033 110.90566058880663 L 487.9087847222222 110.88666523684105 L 488.6265740740741 110.86780469111022 L 489.3443634259259 110.84907799492106 L 490.0621527777778 110.83048419837002 L 490.7799421296296 110.81202235829488 L 491.4977314814815 110.79369153822671 L 492.2155208333333 110.77549080834257 L 492.9333101851852 110.75741924541828 L 493.651099537037 110.73947593278177 L 494.3688888888889 110.72165996026615 L 495.0866782407407 110.70397042416394 L 495.8044675925926 110.68640642718111 L 496.52225694444445 110.66896707839138 L 497.24004629629627 110.65165149319134 L 497.95783564814815 110.63445879325539 L 498.67562499999997 110.61738810649126 L 499.39341435185185 110.60043856699573 L 500.11120370370367 110.58360931501079 L 500.82899305555554 110.56689949687984 L 501.54678240740736 110.55030826500456 L 502.26457175925924 110.5338347778019 L 502.9823611111111 110.51747819966135 L 503.70015046296294 110.50123770090255 L 504.4179398148148 110.48511245773321 L 505.13572916666664 110.46910165220731 L 505.8535185185185 110.45320447218364 L 506.57130787037033 110.43742011128464 L 507.2890972222222 110.42174776885543 L 508.00688657407403 110.40618664992317 L 508.7246759259259 110.39073596515689 L 509.4424652777777 110.3753949308273 L 510.1602546296296 110.36016276876714 L 510.8780439814815 110.34503870633151 L 511.5958333333333 110.33002197635895 L 512.3136226851851 110.31511181713222 L 513.0314120370371 110.30030747234 L 513.7492013888889 110.28560819103828 L 514.4669907407407 110.27101322761226 L 515.1847800925926 110.25652184173867 L 515.9025694444445 110.24213329834825 L 516.6203587962963 110.22784686758834 L 517.3381481481482 110.21366182478585 L 518.0559375 110.19957745041063 L 518.7737268518518 110.18559303003897 L 519.4915162037037 110.17170785431716 L 520.2093055555556 110.15792121892571 L 520.9270949074074 110.14423242454353 L 521.6448842592592 110.13064077681247 L 522.3626736111111 110.117145586302 L 523.080462962963 110.10374616847446 L 523.7982523148148 110.09044184365015 L 524.5160416666666 110.07723193697296 L 525.2338310185186 110.06411577837605 L 525.9516203703704 110.051092702548 L 526.6694097222222 110.03816204889887 L 527.387199074074 110.02532316152676 L 528.104988425926 110.01257538918463 L 528.8227777777778 109.9999180852472 L 529.5405671296296 109.98735060767822 L 530.2583564814814 109.97487231899783 L 530.9761458333334 109.96248258625022 L 531.6939351851852 109.95018078097158 L 532.411724537037 109.93796627915816 L 533.1295138888889 109.9258384612346 L 533.8473032407408 109.91379671202264 L 534.5650925925926 109.90184042070976 L 535.2828819444444 109.8899689808182 L 536.0006712962963 109.87818179017441 L 536.7184606481482 109.86647825087826 L 537.43625 109.85485776927268 L 538.1540393518519 109.84331975591388 L 538.8718287037037 109.83186362554108 L 539.5896180555555 109.82048879704698 L 540.3074074074074 109.80919469344838 L 541.0251967592593 109.79798074185655 L 541.7429861111111 109.78684637344867 L 542.4607754629629 109.77579102343876 L 543.1785648148148 109.76481413104892 L 543.8963541666667 109.75391513948105 L 544.6141435185185 109.7430934958885 L 545.3319328703703 109.73234865134813 L 546.0497222222223 109.7216800608322 L 546.7675115740741 109.71108718318123 L 547.4853009259259 109.70056948107597 L 548.2030902777777 109.6901264210106 L 548.9208796296297 109.67975747326537 L 549.6386689814815 109.66946211187991 L 550.3564583333333 109.65923981462643 L 551.0742476851851 109.64909006298336 L 551.7920370370371 109.63901234210897 L 552.5098263888889 109.62900614081522 L 553.2276157407407 109.6190709515418 L 553.9454050925926 109.60920627033065 L 554.6631944444445 109.5994115968 L 555.3809837962963 109.58968643411924 L 556.0987731481481 109.58003028898378 L 556.8165625 109.57044267158969 L 557.5343518518519 109.5609230956093 L 558.2521412037037 109.55147107816617 L 558.9699305555555 109.54208613981083 L 559.6877199074074 109.53276780449636 L 560.4055092592592 109.52351559955406 L 561.1232986111111 109.51432905567003 L 561.841087962963 109.50520770686074 L 562.5588773148148 109.49615109044979 L 563.2766666666666 109.48715874704413 L 563.9944560185185 109.47823022051111 L 564.7122453703704 109.46936505795506 L 565.4300347222222 109.46056280969447 L 566.147824074074 109.45182302923894 L 566.8656134259259 109.44314527326694 L 567.5834027777778 109.43452910160309 L 568.3011921296296 109.42597407719578 L 569.0189814814814 109.41747976609511 L 569.7367708333333 109.4090457374308 L 570.4545601851852 109.40067156339038 L 571.172349537037 109.39235681919749 L 571.8901388888888 109.38410108309026 L 572.6079282407406 109.37590393630012 L 573.3257175925926 109.36776496303034 L 574.0435069444444 109.35968375043498 L 574.7612962962962 109.35165988859816 L 575.4790856481482 109.34369297051288 L 576.196875 109.33578259206067 L 576.9146643518518 109.32792835199098 L 577.6324537037036 109.32012985190084 L 578.3502430555556 109.31238669621473 L 579.0680324074074 109.30469849216433 L 579.7858217592592 109.29706484976896 L 580.503611111111 109.28948538181533 L 581.221400462963 109.28195970383823 L 581.9391898148148 109.2744874341009 L 582.6569791666666 109.26706819357571 L 583.3747685185185 109.25970160592493 L 584.0925578703703 109.25238729748153 L 584.8103472222222 109.24512489723043 L 585.528136574074 109.23791403678942 L 586.2459259259259 109.23075435039084 L 586.9637152777777 109.22364547486251 L 587.6815046296296 109.2165870496099 L 588.3992939814814 109.20957871659732 L 589.1170833333333 109.20262012033007 L 589.8348726851851 109.19571090783637 L 590.552662037037 109.1888507286495 L 591.2704513888889 109.18203923478967 L 591.9882407407407 109.17527608074681 L 592.7060300925925 109.16856092346296 L 593.4238194444443 109.16189342231479 L 594.1416087962963 109.15527323909615 L 594.8593981481481 109.1487000380011 L 595.5771874999999 109.14217348560692 L 596.2949768518519 109.13569325085712 L 597.0127662037037 109.1292590050445 L 597.7305555555555 109.1228704217946 L 598.4483449074073 109.11652717704933 L 599.1661342592593 109.11022894905037 L 599.8839236111111 109.10397541832276 L 600.6017129629629 109.09776626765881 L 601.3195023148147 109.09160118210215 L 602.0372916666666 109.08547984893144 L 602.7550810185185 109.0794019576447 L 603.4728703703703 109.07336719994353 L 604.1906597222222 109.0673752697175 L 604.908449074074 109.06142586302849 L 605.6262384259259 109.05551867809544 L 606.3440277777777 109.04965341527895 L 607.0618171296296 109.04382977706615 L 607.7796064814814 109.03804746805551 L 608.4973958333333 109.03230619494187 L 609.2151851851851 109.02660566650164 L 609.932974537037 109.02094559357792 L 610.6507638888888 109.01532568906595 L 611.3685532407407 109.0097456678985 L 612.0863425925926 109.00420524703134 L 612.8041319444444 108.99870414542895 L 613.5219212962962 108.9932420840504 L 614.239710648148 108.98781878583495 L 614.9575 108.98243397568828 L 615.6752893518518 108.97708738046808 L 616.3930787037036 108.97177872897072 L 617.1108680555554 108.96650775191716 L 617.8286574074074 108.9612741819393 L 618.5464467592592 108.9560777535666 L 619.264236111111 108.95091820321258 L 619.982025462963 108.94579526916138 L 620.6998148148148 108.94070869155419 L 621.4176041666666 108.93565821237667 L 622.1353935185184 108.93064357544543 L 622.8531828703703 108.92566452639511 L 623.5709722222222 108.92072081266562 L 624.288761574074 108.91581218348918 L 625.0065509259258 108.9109383898776 L 625.7243402777777 108.90609918460979 L 626.4421296296296 108.9012943222192 L 627.1599189814815 108.89652355898127 L 627.8777083333333 108.89178665290106 L 628.5954976851851 108.8870833637011 L 629.3132870370371 108.88241345280909 L 630.0310763888889 108.87777668334584 L 630.7488657407407 108.87317282011327 L 631.4666550925926 108.8686016295824 L 632.1844444444445 108.86406287988152 L 632.9022337962963 108.8595563407846 L 633.6200231481481 108.85508178369929 L 634.3378125 108.8506389816556 L 635.0556018518519 108.84622770929437 L 635.7733912037037 108.84184774285569 L 636.4911805555555 108.83749886016773 L 637.2089699074074 108.83318084063526 L 637.9267592592593 108.82889346522862 L 638.6445486111111 108.82463651647245 L 639.362337962963 108.82040977843488 L 640.0801273148148 108.8162130367165 L 640.7979166666667 108.81204607843932 L 641.5157060185185 108.80790869223623 L 642.2334953703704 108.80380066824003 L 642.9512847222222 108.79972179807308 L 643.669074074074 108.79567187483647 L 644.3868634259259 108.79165069309948 L 645.1046527777778 108.78765804888943 L 645.8224421296296 108.78369373968121 L 646.5402314814814 108.7797575643869 L 647.2580208333334 108.77584932334571 L 647.9758101851852 108.77196881831387 L 648.693599537037 108.76811585245432 L 649.4113888888888 108.76429023032719 L 650.1291782407408 108.76049175787935 L 650.8469675925926 108.75672024243502 L 651.5647569444444 108.75297549268572 L 652.2825462962962 108.74925731868055 L 653.0003356481482 108.74556553181685 L 653.718125 108.74189994483021 L 654.4359143518518 108.73826037178529 L 655.1537037037037 108.73464662806634 L 655.8714930555556 108.73105853036776 L 656.5892824074074 108.72749589668487 L 657.3070717592592 108.7239585463046 L 658.0248611111111 108.72044629979632 L 658.742650462963 108.71695897900295 L 659.4604398148148 108.71349640703164 L 660.1782291666666 108.71005840824498 L 660.8960185185185 108.70664480825187 L 661.6138078703704 108.70325543389893 L 662.3315972222222 108.69989011326166 L 663.0493865740741 108.69654867563557 L 663.7671759259259 108.69323095152768 L 664.4849652777777 108.68993677264785 L 665.2027546296296 108.68666597190037 L 665.9205439814815 108.68341838337537 L 666.6383333333333 108.68019384234023 L 667.3561226851851 108.67699218523154 L 668.0739120370371 108.67381324964668 L 668.7917013888889 108.67065687433535 L 669.5094907407407 108.66752289919188 L 670.2272800925925 108.66441116524658 L 670.9450694444445 108.66132151465814 L 671.6628587962963 108.65825379070526 L 672.3806481481481 108.65520783777902 L 673.0984374999999 108.65218350137476 L 673.8162268518519 108.64918062808434 L 674.5340162037037 108.64619906558829 L 675.2518055555555 108.64323866264817 L 675.9695949074074 108.64029926909893 L 676.6873842592593 108.63738073584108 L 677.4051736111111 108.63448291483331 L 678.1229629629629 108.63160565908487 L 678.8407523148148 108.62874882264833 L 679.5585416666667 108.62591226061181 L 680.2763310185185 108.62309582909202 L 680.9941203703703 108.62029938522662 L 681.7119097222222 108.61752278716719 L 682.429699074074 108.6147658940719 L 683.1474884259259 108.61202856609856 L 683.8652777777778 108.60931066439733 L 684.5830671296296 108.60661205110378 L 685.3008564814814 108.603932589332 L 686.0186458333333 108.60127214316748 L 686.7364351851852 108.59863057766017 L 687.454224537037 108.59600775881788 L 688.1720138888888 108.59340355359922 L 688.8898032407407 108.59081782990705 L 689.6075925925926 108.58825045658159 L 690.3253819444444 108.58570130339407 L 691.0431712962962 108.58317024103965 L 691.7609606481482 108.58065714113141 L 692.47875 108.57816187619338 L 693.1965393518518 108.57568431965419 L 693.9143287037036 108.57322434584091 L 694.6321180555556 108.57078182997247 L 695.3499074074074 108.56835664815324 L 696.0676967592592 108.56594867736698 L 696.785486111111 108.5635577954705 L 697.503275462963 108.56118388118733 L 698.2210648148148 108.55882681410168 L 698.9388541666666 108.55648647465236 L 699.6566435185185 108.55416274412673 L 700.3744328703704 108.5518555046545 L 701.0922222222222 108.54956463920192 L 701.810011574074 108.54729003156584 L 702.5278009259259 108.54503156636778 L 703.2455902777778 108.54278912904806 L 703.9633796296296 108.54056260585995 L 704.6811689814815 108.53835188386404 L 705.3989583333333 108.5361568509224 L 706.1167476851851 108.53397739569292 L 706.834537037037 108.53181340762364 L 707.5523263888889 108.52966477694733 L 708.2701157407407 108.52753139467552 L 708.9879050925925 108.52541315259333 L 709.7056944444444 108.52330994325385 L 710.4234837962963 108.5212216599727 L 711.1412731481481 108.51914819682261 L 711.8590624999999 108.51708944862813 L 712.5768518518519 108.51504531096009 L 713.2946412037037 108.51301568013062 L 714.0124305555555 108.51100045318745 L 714.7302199074073 108.50899952790911 L 715.4480092592593 108.50701280279947 L 716.1657986111111 108.50504017708278 L 716.8835879629629 108.50308155069845 L 717.6013773148147 108.50113682429594 L 718.3191666666667 108.49920589922996 L 719.0369560185185 108.49728867755505 L 719.7547453703703 108.49538506202097 L 720.4725347222222 108.4934949560677 L 721.190324074074 108.49161826382038 L 721.9081134259259 108.48975489008467 L 722.6259027777777 108.48790474034175 L 723.3436921296296 108.48606772074356 L 724.0614814814815 108.48424373810806 L 724.7792708333333 108.48243269991457 L 725.4970601851851 108.48063451429891 L 726.214849537037 108.47884909004887 L 726.9326388888888 108.4770763365996 L 727.6504282407407 108.47531616402892 L 728.3682175925926 108.47356848305296 L 729.0860069444444 108.47183320502134 L 729.8037962962962 108.4701102419128 L 730.5215856481481 108.4683995063308 L 731.239375 108.466700911499 L 731.9571643518518 108.46501437125696 L 732.6749537037036 108.46333980005559 L 733.3927430555555 108.46167711295308 L 734.1105324074074 108.46002622561028 L 734.8283217592592 108.45838705428653 L 735.546111111111 108.45675951583564 L 736.263900462963 108.4551435277013 L 736.9816898148148 108.45353900791324 L 737.6994791666666 108.45194587508291 L 738.4172685185184 108.45036404839936 L 739.1350578703704 108.44879344762509 L 739.8528472222222 108.44723399309208 L 740.570636574074 108.44568560569778 L 741.2884259259259 108.44414820690085 L 742.0062152777778 108.44262171871745 L 742.7240046296296 108.441106063717 L 743.4417939814814 108.43960116501864 L 744.1595833333333 108.43810694628698 L 744.8773726851852 108.43662333172841 L 745.595162037037 108.43515024608726 L 746.3129513888888 108.43368761464188 L 747.0307407407407 108.43223536320099 L 747.7485300925925 108.43079341809968 L 748.4663194444444 108.429361706196 L 749.1841087962963 108.427940154867 L 749.9018981481481 108.42652869200509 L 750.6196874999999 108.42512724601443 L 751.3374768518518 108.42373574580725 L 752.0552662037037 108.42235412080032 L 752.7730555555555 108.42098230091125 L 753.4908449074073 108.41962021655516 L 754.2086342592592 108.41826779864087 L 754.9264236111111 108.4169249785675 L 755.6442129629629 108.41559168822116 L 756.3620023148147 108.41426785997123 L 757.0797916666667 108.41295342666706 L 757.7975810185185 108.41164832163449 L 758.5153703703703 108.41035247867262 L 759.2331597222221 108.4090658320504 L 759.9509490740741 108.40778831650331 L 760.6687384259259 108.40651986722997 L 761.3865277777777 108.40526041988892 L 762.1043171296295 108.40400991059519 L 762.8221064814815 108.40276827591725 L 763.5398958333333 108.40153545287373 L 764.2576851851851 108.4003113789301 L 764.975474537037 108.39909599199584 L 765.6932638888889 108.39788923042084 L 766.4110532407407 108.39669103299263 L 767.1288425925925 108.39550133893317 L 767.8466319444444 108.39432008789578 L 768.5644212962962 108.39314721996212 L 769.2822106481481 108.39198267563887 L 770 108.39082639585513" stroke-opacity="0.9" stroke-miterlimit="10" stroke-width="2"/></g><g><path fill="none" stroke="none"/><path fill="none" stroke="rgb(102,180,211)" paint-order="fill stroke markers" d=" M 52.92843750000001 238.53571428571428 L 53.64622685185186 238.52987432002692 L 54.36401620370371 238.5124941969704 L 55.08180555555556 238.48378153855504 L 55.79959490740742 238.44394127216623 L 56.517384259259266 238.3931756603666 L 57.23517361111112 238.3316843304045 L 57.95296296296297 238.25966430343055 L 58.67075231481482 238.17731002342592 L 59.388541666666676 238.08481338584392 L 60.106331018518524 237.98236376596822 L 60.82412037037038 237.87014804698987 L 61.54190972222223 237.74835064780552 L 62.259699074074085 237.61715355053965 L 62.977488425925934 237.47673632779316 L 63.69527777777779 237.32727616962055 L 64.41306712962964 237.16894791023844 L 65.13085648148149 237.00192405446776 L 65.84864583333334 236.82637480391173 L 66.56643518518518 236.64246808287263 L 67.28422453703705 236.45036956400878 L 68.0020138888889 236.25024269373506 L 68.71980324074075 236.04224871736866 L 69.43759259259261 235.82654670402246 L 70.15538194444446 235.60329357124846 L 70.8731712962963 235.37264410943345 L 71.59096064814815 235.13475100594923 L 72.30875 234.8897648690592 L 73.02653935185185 234.6378342515846 L 73.74432870370372 234.3791056743309 L 74.46211805555556 234.11372364927826 L 75.17990740740741 233.841830702537 L 75.89769675925926 233.56356739707084 L 76.61548611111112 233.27907235518967 L 77.33327546296297 232.98848228081425 L 78.05106481481482 232.69193198151476 L 78.76885416666667 232.38955439032515 L 79.48664351851852 232.08148058733582 L 80.20443287037037 231.76783982106588 L 80.92222222222223 231.44875952961786 L 81.64001157407408 231.12436536161624 L 82.35780092592594 230.79478119693218 L 83.07559027777779 230.460129167196 L 83.79337962962964 230.12052967609986 L 84.51116898148149 229.77610141949236 L 85.22895833333334 229.42696140526667 L 85.94674768518519 229.07322497304463 L 86.66453703703704 228.71500581365837 L 87.3823263888889 228.35241598843143 L 88.10011574074075 227.98556594826113 L 88.81790509259261 227.61456455250425 L 89.53569444444446 227.2395190876677 L 90.25348379629631 226.86053528590588 L 90.97127314814816 226.47771734332673 L 91.6890625 226.09116793810819 L 92.40685185185185 225.7009882484269 L 93.1246412037037 225.30727797020063 L 93.84243055555557 224.91013533464644 L 94.56021990740742 224.50965712565625 L 95.27800925925926 224.10593869699147 L 95.99579861111113 223.6990739892985 L 96.71358796296298 223.2891555469464 L 97.43137731481482 222.876274534689 L 98.14916666666667 222.46052075415253 L 98.86695601851852 222.04198266015095 L 99.58474537037037 221.62074737683 L 100.30253472222222 221.1969007136421 L 101.02032407407408 220.77052718115334 L 101.73811342592593 220.34171000668454 L 102.45590277777778 219.91053114978735 L 103.17369212962964 219.4770713175576 L 103.89148148148149 219.041409979787 L 104.60927083333334 218.6036253839549 L 105.32706018518519 218.1637945700615 L 106.04484953703704 217.7219933853043 L 106.76263888888889 217.27829649859888 L 107.48042824074074 216.8327774149458 L 108.19821759259258 216.38550848964496 L 108.91600694444445 215.93656094235882 L 109.6337962962963 215.48600487102607 L 110.35158564814816 215.03390926562722 L 111.06937500000001 214.580342021803 L 111.78716435185186 214.12536995432788 L 112.5049537037037 213.66905881043928 L 113.22274305555555 213.2114732830242 L 113.94053240740742 212.75267702366475 L 114.65832175925927 212.29273265554366 L 115.37611111111113 211.8317017862114 L 116.09390046296298 211.36964502021584 L 116.81168981481483 210.90662197159622 L 117.52947916666668 210.44269127624267 L 118.24726851851852 209.97791060412203 L 118.96505787037037 209.5123366713721 L 119.68284722222222 209.04602525226503 L 120.40063657407407 208.57903119104103 L 121.11842592592592 208.11140841361436 L 121.8362152777778 207.64320993915192 L 122.55400462962965 207.1744878915264 L 123.2717939814815 206.70529351064482 L 123.98958333333334 206.23567716365372 L 124.70737268518519 205.7656883560224 L 125.42516203703704 205.29537574250517 L 126.14295138888889 204.82478713798398 L 126.86074074074074 204.3539695281923 L 127.57853009259262 203.88296908032186 L 128.29631944444446 203.41183115351294 L 129.0141087962963 202.94060030922964 L 129.73189814814816 202.46932032152125 L 130.4496875 201.99803418717053 L 131.16747685185186 201.52678413573054 L 131.8852662037037 201.05561163945058 L 132.60305555555556 200.5845574230926 L 133.3208449074074 200.11366147363935 L 134.03863425925925 199.64296304989477 L 134.75642361111113 199.1725006919782 L 135.47421296296298 198.70231223071346 L 136.19200231481483 198.23243479691325 L 136.90979166666668 197.76290483056073 L 137.62758101851853 197.29375808988863 L 138.34537037037038 196.82502966035725 L 139.06315972222222 196.35675396353236 L 139.78094907407407 195.88896476586368 L 140.49873842592592 195.42169518736546 L 141.21652777777777 194.9549777101995 L 141.93431712962965 194.48884418716216 L 142.6521064814815 194.02332585007593 L 143.36989583333335 193.55845331808675 L 144.0876851851852 193.09425660586783 L 144.80547453703704 192.6307651317311 L 145.5232638888889 192.168007725647 L 146.24105324074074 191.70601263717373 L 146.9588425925926 191.2448075432967 L 147.67663194444444 190.78441955617936 L 148.3944212962963 190.32487523082585 L 149.11221064814816 189.86620057265677 L 149.83 189.4084210449987 L 150.54778935185186 188.9515615764886 L 151.2655787037037 188.4956465683935 L 151.98336805555556 188.04069990184698 L 152.7011574074074 187.58674494500252 L 153.41894675925926 187.1338045601052 L 154.1367361111111 186.68190111048244 L 154.85452546296295 186.2310564674541 L 155.5723148148148 185.78129201716365 L 156.29010416666668 185.33262866733034 L 157.00789351851853 184.88508685392367 L 157.72568287037038 184.438686547761 L 158.44347222222223 183.99344726102862 L 159.16126157407408 183.54938805372774 L 159.87905092592592 183.1065275400453 L 160.59684027777777 182.66488389465138 L 161.31462962962962 182.22447485892306 L 162.03241898148147 181.78531774709606 L 162.75020833333332 181.34742945234467 L 163.46799768518517 180.91082645279064 L 164.18578703703704 180.47552481744202 L 164.9035763888889 180.04154021206247 L 165.62136574074074 179.6088879049717 L 166.3391550925926 179.177582772778 L 167.05694444444444 178.7476393060433 L 167.7747337962963 178.3190716148816 L 168.49252314814817 177.8918934344916 L 169.21031250000001 177.46611813062367 L 169.92810185185186 177.0417587049826 L 170.6458912037037 176.61882780056624 L 171.36368055555556 176.1973377069408 L 172.0814699074074 175.7773003654537 L 172.79925925925926 175.35872737438427 L 173.5170486111111 174.94162999403335 L 174.23483796296298 174.52601915175205 L 174.95262731481483 174.11190544691058 L 175.67041666666668 173.69929915580747 L 176.38820601851853 173.28821023652029 L 177.10599537037038 172.8786483336979 L 177.82378472222223 172.47062278329545 L 178.54157407407408 172.06414261725212 L 179.25936342592593 171.65921656811264 L 179.97715277777777 171.25585307359313 L 180.69494212962962 170.8540602810914 L 181.41273148148147 170.45384605214332 L 182.13052083333332 170.05521796682444 L 182.84831018518517 169.65818332809852 L 183.56609953703705 169.26274916611334 L 184.2838888888889 168.86892224244374 L 185.00167824074074 168.47670905428333 L 185.7194675925926 168.08611583858465 L 186.43725694444444 167.6971485761489 L 187.1550462962963 167.30981299566537 L 187.87283564814814 166.92411457770135 L 188.590625 166.540058558643 L 189.30841435185184 166.15764993458757 L 190.0262037037037 165.77689346518758 L 190.74399305555556 165.39779367744774 L 191.4617824074074 165.0203548694745 L 192.17957175925926 164.64458111417937 L 192.8973611111111 164.27047626293617 L 193.61515046296296 163.89804394919258 L 194.3329398148148 163.5272875920371 L 195.05072916666666 163.158210399721 L 195.7685185185185 162.7908153731366 L 196.48630787037038 162.42510530925168 L 197.20409722222223 162.06108280450098 L 197.92188657407408 161.69875025813508 L 198.63967592592593 161.33810987552687 L 199.35746527777778 160.97916367143657 L 200.07525462962963 160.62191347323537 L 200.79304398148147 160.2663609240882 L 201.51083333333335 159.91250748609622 L 202.2286226851852 159.56035444339938 L 202.94641203703705 159.20990290523937 L 203.6642013888889 158.86115380898363 L 204.38199074074075 158.51410792311066 L 205.0997800925926 158.16876585015717 L 205.81756944444444 157.82512802962736 L 206.5353587962963 157.48319474086486 L 207.25314814814814 157.14296610588772 L 207.9709375 156.80444209218678 L 208.68872685185187 156.46762251548796 L 209.40651620370372 156.13250704247866 L 210.12430555555557 155.79909519349903 L 210.84209490740741 155.46738634519795 L 211.55988425925926 155.1373797331547 L 212.2776736111111 154.80907445446624 L 212.99546296296296 154.48246947030077 L 213.7132523148148 154.15756360841786 L 214.43104166666666 153.8343555656553 L 215.1488310185185 153.5128439103835 L 215.86662037037038 153.1930270849275 L 216.58440972222223 152.87490340795677 L 217.30219907407408 152.5584710768436 L 218.01998842592593 152.24372816999036 L 218.73777777777778 151.9306726491253 L 219.45556712962963 151.61930236156846 L 220.17335648148148 151.3096150424667 L 220.89114583333333 151.00160831699947 L 221.60893518518517 150.69527970255436 L 222.32672453703702 150.39062661087414 L 223.04451388888887 150.08764635017428 L 223.76230324074075 149.78633612723223 L 224.4800925925926 149.4866930494485 L 225.19788194444445 149.18871412687957 L 225.9156712962963 148.89239627424348 L 226.63346064814814 148.5977363128979 L 227.35125 148.30473097279133 L 228.06903935185184 148.01337689438776 L 228.7868287037037 147.72367063056453 L 229.50461805555554 147.43560864848462 L 230.2224074074074 147.149187331443 L 230.94019675925927 146.86440298068726 L 231.65798611111111 146.58125181721346 L 232.37577546296296 146.29972998353674 L 233.0935648148148 146.01983354543765 L 233.81135416666666 145.7415584936838 L 234.5291435185185 145.46490074572782 L 235.24693287037036 145.18985614738125 L 235.9647222222222 144.9164204744651 L 236.68251157407406 144.6445894344373 L 237.4003009259259 144.37435866799694 L 238.11809027777778 144.10572375066602 L 238.83587962962963 143.83868019434857 L 239.55366898148148 143.57322344886808 L 240.27145833333333 143.3093489034824 L 240.98924768518518 143.04705188837747 L 241.70703703703703 142.78632767613942 L 242.42482638888887 142.52717148320573 L 243.14261574074072 142.26957847129526 L 243.86040509259257 142.0135437488177 L 244.57819444444442 141.75906237226292 L 245.2959837962963 141.5061293475695 L 246.01377314814815 141.2547396314742 L 246.7315625 141.00488813284085 L 247.44935185185184 140.75656971397046 L 248.1671412037037 140.50977919189177 L 248.88493055555554 140.26451133963283 L 249.6027199074074 140.02076088747395 L 250.32050925925924 139.77852252418194 L 251.0382986111111 139.53779089822598 L 251.75608796296294 139.29856061897567 L 252.4738773148148 139.06082625788088 L 253.19166666666666 138.82458234963403 L 253.9094560185185 138.58982339331493 L 254.62724537037036 138.35654385351833 L 255.3450347222222 138.1247381614644 L 256.06282407407406 137.8944007160923 L 256.78061342592594 137.66552588513744 L 257.49840277777776 137.43810800619178 L 258.21619212962963 137.21214138774826 L 258.93398148148145 136.98762031022906 L 259.65177083333333 136.76453902699808 L 260.3695601851852 136.54289176535758 L 261.087349537037 136.32267272752955 L 261.8051388888889 136.10387609162171 L 262.5229282407407 135.88649601257845 L 263.2407175925926 135.67052662311679 L 263.9585069444444 135.4559620346476 L 264.6762962962963 135.24279633818256 L 265.3940856481481 135.03102360522618 L 266.111875 134.8206378886543 L 266.8296643518518 134.611633223578 L 267.5474537037037 134.4040036281941 L 268.2652430555556 134.19774310462162 L 268.9830324074074 133.99284563972515 L 269.70082175925927 133.78930520592434 L 270.4186111111111 133.58711576199084 L 271.13640046296297 133.3862712538317 L 271.8541898148148 133.1867656152603 L 272.57197916666667 132.9885927687544 L 273.2897685185185 132.79174662620164 L 274.00755787037036 132.5962210896329 L 274.72534722222224 132.4020100519432 L 275.44313657407406 132.20910739760063 L 276.16092592592594 132.01750700334347 L 276.87871527777776 131.82720273886534 L 277.59650462962964 131.638188467489 L 278.31429398148146 131.4504580468285 L 279.03208333333333 131.26400532944 L 279.74987268518515 131.07882416346172 L 280.46766203703703 130.8949083932424 L 281.18545138888885 130.71225185995917 L 281.9032407407407 130.53084840222465 L 282.6210300925926 130.3506918566835 L 283.3388194444445 130.17177605859814 L 284.0566087962963 129.99409484242463 L 284.7743981481482 129.81764204237794 L 285.4921875 129.64241149298738 L 286.2099768518519 129.46839702964195 L 286.9277662037037 129.29559248912605 L 287.6455555555556 129.12399171014522 L 288.36334490740745 128.95358853384263 L 289.0811342592593 128.78437680430585 L 289.79892361111115 128.6163503690646 L 290.51671296296297 128.4495030795789 L 291.23450231481485 128.2838287917187 L 291.95229166666667 128.11932136623398 L 292.67008101851854 127.95597466921646 L 293.38787037037036 127.79378257255229 L 294.10565972222224 127.63273895436637 L 294.82344907407406 127.47283769945804 L 295.54123842592594 127.31407269972834 L 296.2590277777778 127.15643785459926 L 296.97681712962964 126.99992707142445 L 297.6946064814815 126.84453426589229 L 298.41239583333333 126.69025336242069 L 299.1301851851852 126.5370782945443 L 299.84797453703703 126.38500300529381 L 300.5657638888889 126.23402144756778 L 301.28355324074073 126.08412758449677 L 302.0013425925926 125.93531538980028 L 302.7191319444445 125.78757884813609 L 303.4369212962963 125.64091195544282 L 304.1547106481482 125.4953087192747 L 304.8725 125.35076315913005 L 305.5902893518519 125.20726930677233 L 306.3080787037037 125.06482120654454 L 307.0258680555556 124.9234129156768 L 307.7436574074074 124.7830385045875 L 308.4614467592593 124.64369205717765 L 309.17923611111115 124.50536767111873 L 309.897025462963 124.36805945813467 L 310.61481481481485 124.23176154427668 L 311.33260416666667 124.09646807019274 L 312.05039351851855 123.96217319139055 L 312.76818287037037 123.82887107849433 L 313.48597222222224 123.69655591749611 L 314.2037615740741 123.56522191000079 L 314.92155092592594 123.43486327346562 L 315.6393402777778 123.30547424143384 L 316.35712962962964 123.17704906376292 L 317.0749189814815 123.049582006847 L 317.79270833333334 122.92306735383423 L 318.5104976851852 122.79749940483828 L 319.22828703703703 122.67287247714495 L 319.9460763888889 122.54918090541344 L 320.66386574074073 122.42641904187238 L 321.3816550925926 122.30458125651074 L 322.0994444444445 122.18366193726416 L 322.8172337962963 122.06365549019569 L 323.5350231481482 121.94455633967223 L 324.2528125 121.82635892853605 L 324.9706018518519 121.70905771827137 L 325.6883912037037 121.59264718916657 L 326.4061805555556 121.47712184047163 L 327.1239699074074 121.36247619055135 L 327.8417592592593 121.24870477703365 L 328.55954861111115 121.13580215695396 L 329.277337962963 121.02376290689517 L 329.99512731481485 120.91258162312297 L 330.7129166666667 120.80225292171778 L 331.43070601851855 120.6927714387017 L 332.14849537037037 120.584131830162 L 332.86628472222225 120.47632877237041 L 333.58407407407407 120.3693569618984 L 334.30186342592594 120.26321111572878 L 335.01965277777776 120.15788597136327 L 335.73744212962964 120.05337628692655 L 336.4552314814815 119.94967684126635 L 337.17302083333334 119.84678243405011 L 337.8908101851852 119.7446878858579 L 338.60859953703704 119.64338803827195 L 339.3263888888889 119.54287775396273 L 340.0441782407408 119.44315191677128 L 340.7619675925926 119.34420543178857 L 341.4797569444445 119.2460332254314 L 342.19754629629637 119.14863024551497 L 342.9153356481482 119.05199146132236 L 343.63312500000006 118.95611186367074 L 344.3509143518519 118.86098646497456 L 345.06870370370376 118.76661029930554 L 345.7864930555556 118.67297842244992 L 346.50428240740746 118.58008591196247 L 347.2220717592593 118.48792786721782 L 347.93986111111116 118.39649940945861 L 348.657650462963 118.30579568184123 L 349.37543981481485 118.21581184947848 L 350.09322916666673 118.1265430994797 L 350.81101851851855 118.03798464098787 L 351.52880787037043 117.95013170521463 L 352.24659722222225 117.86297954547229 L 352.9643865740741 117.77652343720334 L 353.68217592592595 117.69075867800757 L 354.3999652777778 117.60568058766677 L 355.11775462962964 117.52128450816676 L 355.8355439814815 117.43756580371726 L 356.55333333333334 117.35451986076941 L 357.2711226851852 117.2721420880309 L 357.9889120370371 117.19042791647877 L 358.7067013888889 117.1093727993703 L 359.4244907407408 117.02897221225129 L 360.1422800925926 116.94922165296265 L 360.8600694444445 116.87011664164439 L 361.5778587962963 116.79165272073806 L 362.2956481481482 116.71382545498676 L 363.0134375 116.63663043143333 L 363.7312268518519 116.56006325941652 L 364.44901620370376 116.48411957056527 L 365.1668055555556 116.40879501879112 L 365.88459490740746 116.33408528027877 L 366.6023842592593 116.25998605347462 L 367.32017361111116 116.18649305907394 L 368.037962962963 116.11360204000576 L 368.75575231481486 116.04130876141653 L 369.4735416666667 115.96960901065177 L 370.19133101851855 115.89849859723611 L 370.9091203703704 115.82797335285193 L 371.62690972222225 115.75802913131605 L 372.34469907407413 115.68866180855508 L 373.06248842592595 115.61986728257926 L 373.7802777777778 115.55164147345471 L 374.49806712962965 115.48398032327407 L 375.2158564814815 115.41687979612607 L 375.93364583333334 115.35033587806328 L 376.6514351851852 115.28434457706868 L 377.36922453703704 115.21890192302098 L 378.0870138888889 115.15400396765813 L 378.8048032407408 115.08964678454024 L 379.5225925925926 115.02582646901044 L 380.2403819444445 114.96253913815525 L 380.9581712962963 114.89978093076303 L 381.6759606481482 114.83754800728173 L 382.39375 114.77583654977514 L 383.1115393518519 114.71464276187822 L 383.8293287037037 114.65396286875122 L 384.5471180555556 114.59379311703256 L 385.2649074074074 114.53412977479078 L 385.9826967592593 114.47496913147552 L 386.70048611111116 114.4163074978672 L 387.418275462963 114.35814120602586 L 388.13606481481486 114.30046660923907 L 388.8538541666667 114.24328008196863 L 389.57164351851856 114.1865780197968 L 390.2894328703704 114.1303568393709 L 391.00722222222225 114.07461297834772 L 391.7250115740741 114.01934289533654 L 392.44280092592595 113.96454306984157 L 393.16059027777777 113.91021000220354 L 393.87837962962965 113.85634021354028 L 394.5961689814815 113.80293024568664 L 395.31395833333335 113.7499766611337 L 396.0317476851852 113.69747604296703 L 396.74953703703704 113.6454249948045 L 397.4673263888889 113.59382014073282 L 398.18511574074074 113.54265812524423 L 398.9029050925926 113.49193561317162 L 399.62069444444444 113.44164928962357 L 400.3384837962963 113.39179585991852 L 401.0562731481482 113.34237204951827 L 401.7740625 113.29337460396115 L 402.4918518518519 113.24480028879407 L 403.2096412037037 113.19664588950457 L 403.9274305555556 113.14890821145184 L 404.6452199074074 113.10158407979753 L 405.3630092592593 113.05467033943586 L 406.0807986111111 113.0081638549232 L 406.798587962963 112.96206151040712 L 407.5163773148148 112.91636020955531 L 408.2341666666667 112.8710568754833 L 408.95195601851856 112.82614845068258 L 409.6697453703704 112.78163189694766 L 410.38753472222226 112.73750419530296 L 411.1053240740741 112.6937623459292 L 411.82311342592595 112.65040336808951 L 412.5409027777778 112.60742430005502 L 413.25869212962965 112.56482219903012 L 413.97648148148147 112.52259414107749 L 414.69427083333335 112.48073722104249 L 415.4120601851852 112.43924855247758 L 416.12984953703705 112.39812526756612 L 416.8476388888889 112.35736451704611 L 417.56542824074074 112.31696347013332 L 418.2832175925926 112.27691931444448 L 419.00100694444444 112.23722925592011 L 419.7187962962963 112.19789051874676 L 420.43658564814814 112.15890034527962 L 421.154375 112.12025599596427 L 421.87216435185184 112.08195474925861 L 422.5899537037037 112.04399390155447 L 423.3077430555556 112.0063707670989 L 424.0255324074074 111.96908267791542 L 424.7433217592593 111.93212698372511 L 425.4611111111111 111.89550105186731 L 426.178900462963 111.85920226722033 L 426.8966898148148 111.82322803212219 L 427.6144791666667 111.78757576629064 L 428.3322685185185 111.75224290674376 L 429.0500578703704 111.71722690771989 L 429.76784722222226 111.68252524059773 L 430.4856365740741 111.64813539381623 L 431.20342592592596 111.61405487279444 L 431.9212152777778 111.58028119985124 L 432.63900462962965 111.54681191412504 L 433.3567939814815 111.51364457149316 L 434.07458333333335 111.48077674449178 L 434.79237268518517 111.44820602223493 L 435.51016203703705 111.41593001033436 L 436.22795138888887 111.38394633081862 L 436.94574074074075 111.35225262205262 L 437.6635300925926 111.32084653865695 L 438.38131944444444 111.28972575142706 L 439.0991087962963 111.2588879472529 L 439.81689814814814 111.22833082903799 L 440.5346875 111.19805211561882 L 441.25247685185184 111.16804954168435 L 441.9702662037037 111.13832085769519 L 442.68805555555554 111.10886382980323 L 443.4058449074074 111.07967623977095 L 444.12363425925923 111.0507558848908 L 444.8414236111111 111.02210057790512 L 445.559212962963 110.9937081469254 L 446.2770023148148 110.96557643535203 L 446.9947916666667 110.93770330179407 L 447.7125810185185 110.91008661998907 L 448.4303703703704 110.88272427872292 L 449.1481597222222 110.85561418174979 L 449.8659490740741 110.82875424771225 L 450.5837384259259 110.80214241006138 L 451.3015277777778 110.77577661697708 L 452.01931712962966 110.74965483128841 L 452.7371064814815 110.72377503039402 L 453.45489583333335 110.69813520618291 L 454.1726851851852 110.67273336495495 L 454.89047453703705 110.64756752734183 L 455.60826388888887 110.62263572822809 L 456.32605324074075 110.59793601667218 L 457.04384259259257 110.5734664558276 L 457.76163194444445 110.54922512286464 L 458.47942129629627 110.52521010889151 L 459.19721064814814 110.50141951887645 L 459.915 110.47785147156932 L 460.63278935185184 110.45450409942381 L 461.3505787037037 110.4313755485195 L 462.06836805555554 110.40846397848432 L 462.7861574074074 110.38576756241713 L 463.50394675925924 110.36328448681039 L 464.2217361111111 110.34101295147306 L 464.93952546296293 110.31895116945375 L 465.6573148148148 110.29709736696398 L 466.3751041666667 110.27544978330167 L 467.0928935185185 110.2540066707748 L 467.8106828703704 110.23276629462529 L 468.5284722222222 110.2117269329531 L 469.2462615740741 110.19088687664058 L 469.9640509259259 110.17024442927672 L 470.6818402777778 110.14979790708225 L 471.3996296296296 110.1295456388342 L 472.1174189814815 110.10948596579132 L 472.8352083333333 110.08961724161921 L 473.5529976851852 110.06993783231604 L 474.27078703703705 110.05044611613843 L 474.9885763888889 110.03114048352737 L 475.70636574074075 110.0120193370345 L 476.42415509259257 109.99308109124874 L 477.14194444444445 109.97432417272285 L 477.85973379629627 109.95574701990063 L 478.57752314814815 109.93734808304399 L 479.29531249999997 109.91912582416046 L 480.01310185185184 109.90107871693098 L 480.73089120370366 109.88320524663774 L 481.44868055555554 109.86550391009246 L 482.1664699074074 109.84797321556482 L 482.88425925925924 109.8306116827113 L 483.6020486111111 109.81341784250398 L 484.31983796296294 109.79639023715984 L 485.0376273148148 109.77952742007028 L 485.75541666666663 109.76282795573087 L 486.4732060185185 109.74629041967128 L 487.19099537037033 109.72991339838566 L 487.9087847222222 109.71369548926313 L 488.6265740740741 109.69763530051856 L 489.3443634259259 109.68173145112362 L 490.0621527777778 109.6659825707383 L 490.7799421296296 109.65038729964229 L 491.4977314814815 109.63494428866701 L 492.2155208333333 109.61965219912776 L 492.9333101851852 109.6045097027561 L 493.651099537037 109.58951548163262 L 494.3688888888889 109.57466822811986 L 495.0866782407407 109.5599666447956 L 495.8044675925926 109.54540944438645 L 496.52225694444445 109.53099534970161 L 497.24004629629627 109.51672309356707 L 497.95783564814815 109.5025914187598 L 498.67562499999997 109.48859907794267 L 499.39341435185185 109.47474483359917 L 500.11120370370367 109.46102745796875 L 500.82899305555554 109.4474457329824 L 501.54678240740736 109.43399845019837 L 502.26457175925924 109.42068441073823 L 502.9823611111111 109.40750242522338 L 503.70015046296294 109.39445131371153 L 504.4179398148148 109.38152990563378 L 505.13572916666664 109.36873703973185 L 505.8535185185185 109.35607156399558 L 506.57130787037033 109.34353233560071 L 507.2890972222222 109.33111822084712 L 508.00688657407403 109.31882809509705 L 508.7246759259259 109.30666084271388 L 509.4424652777777 109.2946153570011 L 510.1602546296296 109.28269054014166 L 510.8780439814815 109.2708853031373 L 511.5958333333333 109.25919856574865 L 512.3136226851851 109.2476292564352 L 513.0314120370371 109.23617631229584 L 513.7492013888889 109.22483867900951 L 514.4669907407407 109.21361531077622 L 515.1847800925926 109.20250517025846 L 515.9025694444445 109.19150722852262 L 516.6203587962963 109.18062046498105 L 517.3381481481482 109.16984386733412 L 518.0559375 109.1591764315128 L 518.7737268518518 109.14861716162133 L 519.4915162037037 109.13816506988039 L 520.2093055555556 109.1278191765702 L 520.9270949074074 109.11757850997455 L 521.6448842592592 109.10744210632438 L 522.3626736111111 109.0974090097422 L 523.080462962963 109.08747827218647 L 523.7982523148148 109.07764895339665 L 524.5160416666666 109.06792012083787 L 525.2338310185186 109.05829084964674 L 525.9516203703704 109.04876022257682 L 526.6694097222222 109.03932732994451 L 527.387199074074 109.02999126957556 L 528.104988425926 109.02075114675131 L 528.8227777777778 109.01160607415571 L 529.5405671296296 109.00255517182237 L 530.2583564814814 108.99359756708202 L 530.9761458333334 108.98473239451008 L 531.6939351851852 108.97595879587479 L 532.411724537037 108.96727592008537 L 533.1295138888889 108.95868292314063 L 533.8473032407408 108.9501789680777 L 534.5650925925926 108.94176322492126 L 535.2828819444444 108.93343487063294 L 536.0006712962963 108.92519308906088 L 536.7184606481482 108.91703707088988 L 537.43625 108.90896601359151 L 538.1540393518519 108.90097912137477 L 538.8718287037037 108.89307560513674 L 539.5896180555555 108.88525468241374 L 540.3074074074074 108.87751557733287 L 541.0251967592593 108.86985752056344 L 541.7429861111111 108.86227974926894 L 542.4607754629629 108.85478150705939 L 543.1785648148148 108.84736204394369 L 543.8963541666667 108.84002061628246 L 544.6141435185185 108.832756486741 L 545.3319328703703 108.8255689242427 L 546.0497222222223 108.81845720392258 L 546.7675115740741 108.8114206070812 L 547.4853009259259 108.80445842113869 L 548.2030902777777 108.79756993958924 L 548.9208796296297 108.7907544619558 L 549.6386689814815 108.78401129374498 L 550.3564583333333 108.77733974640228 L 551.0742476851851 108.77073913726761 L 551.7920370370371 108.76420878953098 L 552.5098263888889 108.75774803218857 L 553.2276157407407 108.75135619999907 L 553.9454050925926 108.74503263344013 L 554.6631944444445 108.7387766786652 L 555.3809837962963 108.73258768746075 L 556.0987731481481 108.72646501720345 L 556.8165625 108.7204080308178 L 557.5343518518519 108.71441609673411 L 558.2521412037037 108.70848858884654 L 558.9699305555555 108.70262488647148 L 559.6877199074074 108.69682437430629 L 560.4055092592592 108.69108644238813 L 561.1232986111111 108.68541048605306 L 561.841087962963 108.67979590589567 L 562.5588773148148 108.67424210772853 L 563.2766666666666 108.6687485025422 L 563.9944560185185 108.66331450646553 L 564.7122453703704 108.6579395407258 L 565.4300347222222 108.65262303160969 L 566.147824074074 108.6473644104241 L 566.8656134259259 108.64216311345726 L 567.5834027777778 108.63701858194031 L 568.3011921296296 108.63193026200884 L 569.0189814814814 108.62689760466492 L 569.7367708333333 108.62192006573912 L 570.4545601851852 108.61699710585319 L 571.172349537037 108.61212819038232 L 571.8901388888888 108.60731278941839 L 572.6079282407406 108.602550377733 L 573.3257175925926 108.5978404347407 L 574.0435069444444 108.59318244446277 L 574.7612962962962 108.58857589549112 L 575.4790856481482 108.58402028095219 L 576.196875 108.5795150984714 L 576.9146643518518 108.57505985013765 L 577.6324537037036 108.57065404246828 L 578.3502430555556 108.56629718637382 L 579.0680324074074 108.56198879712349 L 579.7858217592592 108.55772839431066 L 580.503611111111 108.55351550181842 L 581.221400462963 108.54934964778559 L 581.9391898148148 108.54523036457306 L 582.6569791666666 108.54115718872998 L 583.3747685185185 108.53712966096055 L 584.0925578703703 108.53314732609067 L 584.8103472222222 108.52920973303529 L 585.528136574074 108.52531643476544 L 586.2459259259259 108.52146698827602 L 586.9637152777777 108.51766095455332 L 587.6815046296296 108.51389789854306 L 588.3992939814814 108.51017738911861 L 589.1170833333333 108.50649899904928 L 589.8348726851851 108.50286230496911 L 590.552662037037 108.4992668873455 L 591.2704513888889 108.49571233044838 L 591.9882407407407 108.49219822231939 L 592.7060300925925 108.48872415474145 L 593.4238194444443 108.48528972320835 L 594.1416087962963 108.48189452689459 L 594.8593981481481 108.47853816862559 L 595.5771874999999 108.47522025484798 L 596.2949768518519 108.47194039560009 L 597.0127662037037 108.46869820448254 L 597.7305555555555 108.46549329862938 L 598.4483449074073 108.46232529867913 L 599.1661342592593 108.45919382874601 L 599.8839236111111 108.45609851639156 L 600.6017129629629 108.45303899259636 L 601.3195023148147 108.45001489173197 L 602.0372916666666 108.44702585153303 L 602.7550810185185 108.44407151306956 L 603.4728703703703 108.44115152071956 L 604.1906597222222 108.43826552214162 L 604.908449074074 108.43541316824786 L 605.6262384259259 108.43259411317715 L 606.3440277777777 108.42980801426822 L 607.0618171296296 108.42705453203325 L 607.7796064814814 108.42433333013153 L 608.4973958333333 108.42164407534327 L 609.2151851851851 108.4189864375438 L 609.932974537037 108.4163600896776 L 610.6507638888888 108.41376470773284 L 611.3685532407407 108.41119997071601 L 612.0863425925926 108.40866556062667 L 612.8041319444444 108.4061611624324 L 613.5219212962962 108.403686464044 L 614.239710648148 108.40124115629084 L 614.9575 108.39882493289628 L 615.6752893518518 108.39643749045348 L 616.3930787037036 108.39407852840125 L 617.1108680555554 108.39174774899996 L 617.8286574074074 108.38944485730798 L 618.5464467592592 108.38716956115792 L 619.264236111111 108.3849215711333 L 619.982025462963 108.3827006005452 L 620.6998148148148 108.3805063654093 L 621.4176041666666 108.37833858442278 L 622.1353935185184 108.37619697894175 L 622.8531828703703 108.37408127295868 L 623.5709722222222 108.37199119307977 L 624.288761574074 108.369926468503 L 625.0065509259258 108.36788683099587 L 625.7243402777777 108.36587201487353 L 626.4421296296296 108.36388175697704 L 627.1599189814815 108.36191579665174 L 627.8777083333333 108.35997387572598 L 628.5954976851851 108.35805573848958 L 629.3132870370371 108.35616113167313 L 630.0310763888889 108.35428980442654 L 630.7488657407407 108.35244150829871 L 631.4666550925926 108.35061599721664 L 632.1844444444445 108.34881302746504 L 632.9022337962963 108.34703235766597 L 633.6200231481481 108.34527374875876 L 634.3378125 108.34353696397989 L 635.0556018518519 108.3418217688432 L 635.7733912037037 108.34012793112018 L 636.4911805555555 108.33845522082035 L 637.2089699074074 108.33680341017191 L 637.9267592592593 108.33517227360247 L 638.6445486111111 108.33356158771991 L 639.362337962963 108.33197113129341 L 640.0801273148148 108.33040068523474 L 640.7979166666667 108.3288500325794 L 641.5157060185185 108.32731895846817 L 642.2334953703704 108.32580725012878 L 642.9512847222222 108.32431469685758 L 643.669074074074 108.32284109000142 L 644.3868634259259 108.3213862229398 L 645.1046527777778 108.31994989106684 L 645.8224421296296 108.31853189177392 L 646.5402314814814 108.31713202443166 L 647.2580208333334 108.31575009037292 L 647.9758101851852 108.31438589287535 L 648.693599537037 108.31303923714418 L 649.4113888888888 108.31170993029534 L 650.1291782407408 108.31039778133848 L 650.8469675925926 108.30910260116033 L 651.5647569444444 108.30782420250796 L 652.2825462962962 108.30656239997239 L 653.0003356481482 108.30531700997216 L 653.718125 108.30408785073718 L 654.4359143518518 108.30287474229257 L 655.1537037037037 108.3016775064427 L 655.8714930555556 108.30049596675536 L 656.5892824074074 108.29932994854607 L 657.3070717592592 108.29817927886239 L 658.0248611111111 108.29704378646855 L 658.742650462963 108.29592330182999 L 659.4604398148148 108.29481765709829 L 660.1782291666666 108.29372668609591 L 660.8960185185185 108.29265022430127 L 661.6138078703704 108.29158810883388 L 662.3315972222222 108.29054017843961 L 663.0493865740741 108.28950627347604 L 663.7671759259259 108.28848623589792 L 664.4849652777777 108.28747990924288 L 665.2027546296296 108.28648713861693 L 665.9205439814815 108.28550777068062 L 666.6383333333333 108.28454165363468 L 667.3561226851851 108.28358863720624 L 668.0739120370371 108.282648572635 L 668.7917013888889 108.28172131265944 L 669.5094907407407 108.28080671150329 L 670.2272800925925 108.27990462486201 L 670.9450694444445 108.2790149098895 L 671.6628587962963 108.27813742518458 L 672.3806481481481 108.27727203077805 L 673.0984374999999 108.27641858811958 L 673.8162268518519 108.27557696006468 L 674.5340162037037 108.274747010862 L 675.2518055555555 108.27392860614043 L 675.9695949074074 108.27312161289649 L 676.6873842592593 108.27232589948193 L 677.4051736111111 108.27154133559108 L 678.1229629629629 108.27076779224873 L 678.8407523148148 108.27000514179781 L 679.5585416666667 108.26925325788721 L 680.2763310185185 108.26851201545978 L 680.9941203703703 108.26778129074052 L 681.7119097222222 108.26706096122456 L 682.429699074074 108.26635090566558 L 683.1474884259259 108.26565100406404 L 683.8652777777778 108.2649611376558 L 684.5830671296296 108.26428118890053 L 685.3008564814814 108.26361104147037 L 686.0186458333333 108.26295058023885 L 686.7364351851852 108.2622996912695 L 687.454224537037 108.26165826180491 L 688.1720138888888 108.26102618025575 L 688.8898032407407 108.26040333618985 L 689.6075925925926 108.25978962032138 L 690.3253819444444 108.2591849245002 L 691.0431712962962 108.25858914170126 L 691.7609606481482 108.25800216601405 L 692.47875 108.25742389263212 L 693.1965393518518 108.25685421784277 L 693.9143287037036 108.25629303901681 L 694.6321180555556 108.25574025459841 L 695.3499074074074 108.2551957640949 L 696.0676967592592 108.25465946806682 L 696.785486111111 108.25413126811802 L 697.503275462963 108.25361106688584 L 698.2210648148148 108.25309876803135 L 698.9388541666666 108.25259427622962 L 699.6566435185185 108.25209749716018 L 700.3744328703704 108.25160833749752 L 701.0922222222222 108.2511267049016 L 701.810011574074 108.25065250800864 L 702.5278009259259 108.2501856564217 L 703.2455902777778 108.24972606070159 L 703.9633796296296 108.24927363235776 L 704.6811689814815 108.24882828383917 L 705.3989583333333 108.24838992852548 L 706.1167476851851 108.2479584807181 L 706.834537037037 108.24753385563133 L 707.5523263888889 108.24711596938374 L 708.2701157407407 108.24670473898954 L 708.9879050925925 108.24630008234985 L 709.7056944444444 108.24590191824433 L 710.4234837962963 108.2455101663227 L 711.1412731481481 108.24512474709641 L 711.8590624999999 108.24474558193035 L 712.5768518518519 108.2443725930346 L 713.2946412037037 108.2440057034564 L 714.0124305555555 108.24364483707188 L 714.7302199074073 108.24328991857831 L 715.4480092592593 108.2429408734859 L 716.1657986111111 108.2425976281103 L 716.8835879629629 108.24226010956431 L 717.6013773148147 108.2419282457507 L 718.3191666666667 108.24160196535402 L 719.0369560185185 108.2412811978335 L 719.7547453703703 108.24096587341518 L 720.4725347222222 108.2406559230846 L 721.190324074074 108.24035127857937 L 721.9081134259259 108.24005187238183 L 722.6259027777777 108.23975763771179 L 723.3436921296296 108.23946850851942 L 724.0614814814815 108.23918441947797 L 724.7792708333333 108.23890530597674 L 725.4970601851851 108.23863110411412 L 726.214849537037 108.23836175069067 L 726.9326388888888 108.23809718320203 L 727.6504282407407 108.23783733983231 L 728.3682175925926 108.23758215944724 L 729.0860069444444 108.23733158158748 L 729.8037962962962 108.23708554646188 L 730.5215856481481 108.2368439949411 L 731.239375 108.23660686855078 L 731.9571643518518 108.23637410946537 L 732.6749537037036 108.2361456605015 L 733.3927430555555 108.23592146511172 L 734.1105324074074 108.23570146737822 L 734.8283217592592 108.23548561200644 L 735.546111111111 108.2352738443191 L 736.263900462963 108.23506611024985 L 736.9816898148148 108.23486235633737 L 737.6994791666666 108.23466252971926 L 738.4172685185184 108.23446657812605 L 739.1350578703704 108.23427444987524 L 739.8528472222222 108.2340860938657 L 740.570636574074 108.23390145957146 L 741.2884259259259 108.23372049703622 L 742.0062152777778 108.23354315686763 L 742.7240046296296 108.23336939023156 L 743.4417939814814 108.23319914884652 L 744.1595833333333 108.23303238497815 L 744.8773726851852 108.23286905143351 L 745.595162037037 108.232709101556 L 746.3129513888888 108.23255248921964 L 747.0307407407407 108.2323991688238 L 747.7485300925925 108.23224909528804 L 748.4663194444444 108.23210222404657 L 749.1841087962963 108.2319585110433 L 749.9018981481481 108.23181791272657 L 750.6196874999999 108.23168038604399 L 751.3374768518518 108.23154588843747 L 752.0552662037037 108.23141437783815 L 752.7730555555555 108.23128581266141 L 753.4908449074073 108.23116015180199 L 754.2086342592592 108.23103735462897 L 754.9264236111111 108.23091738098117 L 755.6442129629629 108.23080019116205 L 756.3620023148147 108.23068574593526 L 757.0797916666667 108.23057400651973 L 757.7975810185185 108.23046493458511 L 758.5153703703703 108.23035849224703 L 759.2331597222221 108.23025464206262 L 759.9509490740741 108.230153347026 L 760.6687384259259 108.23005457056368 L 761.3865277777777 108.22995827653017 L 762.1043171296295 108.22986442920359 L 762.8221064814815 108.22977299328119 L 763.5398958333333 108.22968393387524 L 764.2576851851851 108.22959721650841 L 764.975474537037 108.22951280710981 L 765.6932638888889 108.22943067201072 L 766.4110532407407 108.22935077794028 L 767.1288425925925 108.22927309202151 L 767.8466319444444 108.22919758176712 L 768.5644212962962 108.2291242150755 L 769.2822106481481 108.22905296022674 L 770 108.22898378587851" stroke-opacity="0.9" stroke-miterlimit="10" stroke-width="2" stroke-dasharray="6"/></g></g><g><g/><g><path fill="#ffffff" stroke="#e5e5e5" paint-order="fill stroke markers" d=" M 661.25 177.2625 L 760 177.2625 L 760 240.2625 L 661.25 240.2625 L 661.25 177.2625 Z" fill-opacity="0.95" stroke-miterlimit="10" stroke-opacity="0.5"/><text fill="#444444" stroke="none" font-family="helvetica" font-size="10pt" font-style="normal" font-weight="normal" text-decoration="normal" x="696.25" y="197.2625" text-anchor="start" dominant-baseline="central">Model</text><g><path fill="none" stroke="rgb(225,109,0)" paint-order="fill stroke markers" d=" M 671.25 197.2625 L 691.25 197.2625" stroke-opacity="0.9" stroke-miterlimit="10" stroke-width="2"/></g><text fill="#444444" stroke="none" font-family="helvetica" font-size="10pt" font-style="normal" font-weight="normal" text-decoration="normal" x="696.25" y="220.2625" text-anchor="start" dominant-baseline="central">Original</text><g><path fill="none" stroke="rgb(102,180,211)" paint-order="fill stroke markers" d=" M 671.25 220.2625 L 691.25 220.2625" stroke-opacity="0.9" stroke-miterlimit="10" stroke-width="2" stroke-dasharray="6"/></g></g></g><g><g><path fill="none" stroke="black" paint-order="fill stroke markers" d=" M 53 250 L 770 250" stroke-miterlimit="10"/><path fill="none" stroke="black" paint-order="fill stroke markers" d=" M 53 256 L 53 248" stroke-miterlimit="10"/><path fill="none" stroke="black" paint-order="fill stroke markers" d=" M 196 256 L 196 248" stroke-miterlimit="10"/><path fill="none" stroke="black" paint-order="fill stroke markers" d=" M 340 256 L 340 248" stroke-miterlimit="10"/><path fill="none" stroke="black" paint-order="fill stroke markers" d=" M 483 256 L 483 248" stroke-miterlimit="10"/><path fill="none" stroke="black" paint-order="fill stroke markers" d=" M 627 256 L 627 248" stroke-miterlimit="10"/><path fill="none" stroke="black" paint-order="fill stroke markers" d=" M 770 256 L 770 248" stroke-miterlimit="10"/><path fill="none" stroke="black" paint-order="fill stroke markers" d=" M 53 254 L 53 250" stroke-miterlimit="10"/><path fill="none" stroke="black" paint-order="fill stroke markers" d=" M 82 254 L 82 250" stroke-miterlimit="10"/><path fill="none" stroke="black" paint-order="fill stroke markers" d=" M 110 254 L 110 250" stroke-miterlimit="10"/><path fill="none" stroke="black" paint-order="fill stroke markers" d=" M 139 254 L 139 250" stroke-miterlimit="10"/><path fill="none" stroke="black" paint-order="fill stroke markers" d=" M 168 254 L 168 250" stroke-miterlimit="10"/><path fill="none" stroke="black" paint-order="fill stroke markers" d=" M 196 254 L 196 250" stroke-miterlimit="10"/><path fill="none" stroke="black" paint-order="fill stroke markers" d=" M 225 254 L 225 250" stroke-miterlimit="10"/><path fill="none" stroke="black" paint-order="fill stroke markers" d=" M 254 254 L 254 250" stroke-miterlimit="10"/><path fill="none" stroke="black" paint-order="fill stroke markers" d=" M 282 254 L 282 250" stroke-miterlimit="10"/><path fill="none" stroke="black" paint-order="fill stroke markers" d=" M 311 254 L 311 250" stroke-miterlimit="10"/><path fill="none" stroke="black" paint-order="fill stroke markers" d=" M 340 254 L 340 250" stroke-miterlimit="10"/><path fill="none" stroke="black" paint-order="fill stroke markers" d=" M 368 254 L 368 250" stroke-miterlimit="10"/><path fill="none" stroke="black" paint-order="fill stroke markers" d=" M 397 254 L 397 250" stroke-miterlimit="10"/><path fill="none" stroke="black" paint-order="fill stroke markers" d=" M 426 254 L 426 250" stroke-miterlimit="10"/><path fill="none" stroke="black" paint-order="fill stroke markers" d=" M 454 254 L 454 250" stroke-miterlimit="10"/><path fill="none" stroke="black" paint-order="fill stroke markers" d=" M 483 254 L 483 250" stroke-miterlimit="10"/><path fill="none" stroke="black" paint-order="fill stroke markers" d=" M 512 254 L 512 250" stroke-miterlimit="10"/><path fill="none" stroke="black" paint-order="fill stroke markers" d=" M 541 254 L 541 250" stroke-miterlimit="10"/><path fill="none" stroke="black" paint-order="fill stroke markers" d=" M 569 254 L 569 250" stroke-miterlimit="10"/><path fill="none" stroke="black" paint-order="fill stroke markers" d=" M 598 254 L 598 250" stroke-miterlimit="10"/><path fill="none" stroke="black" paint-order="fill stroke markers" d=" M 627 254 L 627 250" stroke-miterlimit="10"/><path fill="none" stroke="black" paint-order="fill stroke markers" d=" M 655 254 L 655 250" stroke-miterlimit="10"/><path fill="none" stroke="black" paint-order="fill stroke markers" d=" M 684 254 L 684 250" stroke-miterlimit="10"/><path fill="none" stroke="black" paint-order="fill stroke markers" d=" M 713 254 L 713 250" stroke-miterlimit="10"/><path fill="none" stroke="black" paint-order="fill stroke markers" d=" M 741 254 L 741 250" stroke-miterlimit="10"/><path fill="none" stroke="black" paint-order="fill stroke markers" d=" M 770 254 L 770 250" stroke-miterlimit="10"/><text fill="#444444" stroke="none" font-family="helvetica" font-size="8pt" font-style="normal" font-weight="normal" text-decoration="normal" x="53" y="261" text-anchor="middle" dominant-baseline="hanging">0</text><text fill="#444444" stroke="none" font-family="helvetica" font-size="8pt" font-style="normal" font-weight="normal" text-decoration="normal" x="196" y="261" text-anchor="middle" dominant-baseline="hanging">2</text><text fill="#444444" stroke="none" font-family="helvetica" font-size="8pt" font-style="normal" font-weight="normal" text-decoration="normal" x="340" y="261" text-anchor="middle" dominant-baseline="hanging">4</text><text fill="#444444" stroke="none" font-family="helvetica" font-size="8pt" font-style="normal" font-weight="normal" text-decoration="normal" x="483" y="261" text-anchor="middle" dominant-baseline="hanging">6</text><text fill="#444444" stroke="none" font-family="helvetica" font-size="8pt" font-style="normal" font-weight="normal" text-decoration="normal" x="627" y="261" text-anchor="middle" dominant-baseline="hanging">8</text><text fill="#444444" stroke="none" font-family="helvetica" font-size="8pt" font-style="normal" font-weight="normal" text-decoration="normal" x="770" y="261" text-anchor="middle" dominant-baseline="hanging">10</text><text fill="#444444" stroke="none" font-family="helvetica" font-size="10pt" font-style="italic" font-weight="normal" text-decoration="normal" x="411.46421875" y="281.27" text-anchor="middle" dominant-baseline="hanging">Time [min]</text></g><g><path fill="none" stroke="black" paint-order="fill stroke markers" d=" M 53 250 L 53 4" stroke-miterlimit="10"/><path fill="none" stroke="black" paint-order="fill stroke markers" d=" M 47 239 L 55 239" stroke-miterlimit="10"/><path fill="none" stroke="black" paint-order="fill stroke markers" d=" M 47 180 L 55 180" stroke-miterlimit="10"/><path fill="none" stroke="black" paint-order="fill stroke markers" d=" M 47 121 L 55 121" stroke-miterlimit="10"/><path fill="none" stroke="black" paint-order="fill stroke markers" d=" M 47 63 L 55 63" stroke-miterlimit="10"/><path fill="none" stroke="black" paint-order="fill stroke markers" d=" M 47 4 L 55 4" stroke-miterlimit="10"/><path fill="none" stroke="black" paint-order="fill stroke markers" d=" M 49 250 L 53 250" stroke-miterlimit="10"/><path fill="none" stroke="black" paint-order="fill stroke markers" d=" M 49 239 L 53 239" stroke-miterlimit="10"/><path fill="none" stroke="black" paint-order="fill stroke markers" d=" M 49 227 L 53 227" stroke-miterlimit="10"/><path fill="none" stroke="black" paint-order="fill stroke markers" d=" M 49 215 L 53 215" stroke-miterlimit="10"/><path fill="none" stroke="black" paint-order="fill stroke markers" d=" M 49 203 L 53 203" stroke-miterlimit="10"/><path fill="none" stroke="black" paint-order="fill stroke markers" d=" M 49 192 L 53 192" stroke-miterlimit="10"/><path fill="none" stroke="black" paint-order="fill stroke markers" d=" M 49 180 L 53 180" stroke-miterlimit="10"/><path fill="none" stroke="black" paint-order="fill stroke markers" d=" M 49 168 L 53 168" stroke-miterlimit="10"/><path fill="none" stroke="black" paint-order="fill stroke markers" d=" M 49 156 L 53 156" stroke-miterlimit="10"/><path fill="none" stroke="black" paint-order="fill stroke markers" d=" M 49 145 L 53 145" stroke-miterlimit="10"/><path fill="none" stroke="black" paint-order="fill stroke markers" d=" M 49 133 L 53 133" stroke-miterlimit="10"/><path fill="none" stroke="black" paint-order="fill stroke markers" d=" M 49 121 L 53 121" stroke-miterlimit="10"/><path fill="none" stroke="black" paint-order="fill stroke markers" d=" M 49 110 L 53 110" stroke-miterlimit="10"/><path fill="none" stroke="black" paint-order="fill stroke markers" d=" M 49 98 L 53 98" stroke-miterlimit="10"/><path fill="none" stroke="black" paint-order="fill stroke markers" d=" M 49 86 L 53 86" stroke-miterlimit="10"/><path fill="none" stroke="black" paint-order="fill stroke markers" d=" M 49 74 L 53 74" stroke-miterlimit="10"/><path fill="none" stroke="black" paint-order="fill stroke markers" d=" M 49 63 L 53 63" stroke-miterlimit="10"/><path fill="none" stroke="black" paint-order="fill stroke markers" d=" M 49 51 L 53 51" stroke-miterlimit="10"/><path fill="none" stroke="black" paint-order="fill stroke markers" d=" M 49 39 L 53 39" stroke-miterlimit="10"/><path fill="none" stroke="black" paint-order="fill stroke markers" d=" M 49 27 L 53 27" stroke-miterlimit="10"/><path fill="none" stroke="black" paint-order="fill stroke markers" d=" M 49 16 L 53 16" stroke-miterlimit="10"/><path fill="none" stroke="black" paint-order="fill stroke markers" d=" M 49 4 L 53 4" stroke-miterlimit="10"/><text fill="#444444" stroke="none" font-family="helvetica" font-size="8pt" font-style="normal" font-weight="normal" text-decoration="normal" x="42" y="239" text-anchor="end" dominant-baseline="central">0</text><text fill="#444444" stroke="none" font-family="helvetica" font-size="8pt" font-style="normal" font-weight="normal" text-decoration="normal" x="42" y="180" text-anchor="end" dominant-baseline="central">0.5</text><text fill="#444444" stroke="none" font-family="helvetica" font-size="8pt" font-style="normal" font-weight="normal" text-decoration="normal" x="42" y="121" text-anchor="end" dominant-baseline="central">1</text><text fill="#444444" stroke="none" font-family="helvetica" font-size="8pt" font-style="normal" font-weight="normal" text-decoration="normal" x="42" y="63" text-anchor="end" dominant-baseline="central">1.5</text><text fill="#444444" stroke="none" font-family="helvetica" font-size="8pt" font-style="normal" font-weight="normal" text-decoration="normal" x="42" y="4" text-anchor="end" dominant-baseline="central">2</text><g transform="translate(17.73000000000001,127.13125) rotate(-90,0,0)"><text fill="#444444" stroke="none" font-family="helvetica" font-size="10pt" font-style="italic" font-weight="normal" text-decoration="normal" x="0" y="0" text-anchor="middle" dominant-baseline="alphabetic">Output</text><g transform="rotate(90,0,0) translate(-17.73000000000001,-127.13125)"/></g></g></g></g></g></svg>