<svg version="1.1" xmlns="http://www.w3.org/2000/svg" xmlns:xlink="http://www.w3.org/1999/xlink" width="800" height="300" style="width: 800px; height: 300px;"><defs/><g><g/><g transform="scale(1,1) translate(0.5,0.5)"><rect fill="#FFFFFF" stroke="none" x="0" y="0" width="800" height="300"/><rect fill="#ffffff" stroke="none" x="0" y="0" width="800" height="300"/><rect fill="#FFFFFF" stroke="none" x="48.34" y="5" width="721.66" height="251.64"/><rect fill="#ffffff" stroke="none" x="48.34" y="5" width="721.66" height="251.64"/><g><rect fill="none" stroke="#e5e5e5" x="48.34" y="5" width="721.66" height="251.64" stroke-miterlimit="10"/></g><g><g><path fill="none" stroke="#e5e5e5" paint-order="fill stroke markers" d=" M 193 257 L 193 5" stroke-miterlimit="10"/><path fill="none" stroke="#e5e5e5" paint-order="fill stroke markers" d=" M 337 257 L 337 5" stroke-miterlimit="10"/><path fill="none" stroke="#e5e5e5" paint-order="fill stroke markers" d=" M 481 257 L 481 5" stroke-miterlimit="10"/><path fill="none" stroke="#e5e5e5" paint-order="fill stroke markers" d=" M 626 257 L 626 5" stroke-miterlimit="10"/></g><g><path fill="none" stroke="#e5e5e5" paint-order="fill stroke markers" d=" M 48 245 L 770 245" stroke-miterlimit="10"/><path fill="none" stroke="#e5e5e5" paint-order="fill stroke markers" d=" M 48 185 L 770 185" stroke-miterlimit="10"/><path fill="none" stroke="#e5e5e5" paint-order="fill stroke markers" d=" M 48 125 L 770 125" stroke-miterlimit="10"/><path fill="none" stroke="#e5e5e5" paint-order="fill stroke markers" d=" M 48 65 L 770 65" stroke-miterlimit="10"/></g><g><path fill="none" stroke="none"/><path fill="none" stroke="rgb(225,109,0)" paint-order="fill stroke markers" d=" M 48.34 244.65714285714284 L 49.06238238238239 244.66021926662546 L 49.784764764764766 244.89278538704343 L 50.50714714714715 244.74104502060646 L 51.229529529529536 244.4797179722415 L 51.951911911911914 244.37107563145722 L 52.6742942942943 244.4696365785435 L 53.39667667667668 244.6835263613097 L 54.11905905905906 244.88261265063906 L 54.84144144144145 244.9740593638805 L 55.563823823823824 244.9304274316329 L 56.28620620620621 244.78195196096357 L 57.008588588588594 244.5910299299917 L 57.73097097097097 244.42413998647962 L 58.45335335335336 244.3305867135462 L 59.17573573573574 244.33180133120925 L 59.89811811811812 244.42077674903075 L 60.620500500500505 244.5688511754027 L 61.34288288288288 244.7362328450672 L 62.06526526526527 244.8829235494555 L 62.787647647647645 244.9775766525557 L 63.51003003003004 245.00291984104553 L 64.23241241241242 244.95740213122187 L 64.9547947947948 244.85352251197605 L 65.67717717717719 244.71379595218986 L 66.39955955955956 244.56551570907962 L 67.12194194194194 244.4354293267055 L 67.84432432432433 244.3452325441629 L 68.56670670670671 244.30847824083904 L 69.28908908908909 244.32916621907725 L 70.01147147147148 244.40197838614543 L 70.73385385385386 244.51388871870665 L 71.45623623623624 244.64672619557024 L 72.17861861861863 244.78020404667933 L 72.901001001001 244.89494075337103 L 73.62338338338338 244.97507014803955 L 74.34576576576576 245.01014890181375 L 75.06814814814815 244.99619853597952 L 75.79053053053053 244.9358469725158 L 76.51291291291291 244.83764661076634 L 77.23529529529529 244.71473181993423 L 77.95767767767768 244.58303331190282 L 78.68006006006007 244.45928931107755 L 79.40244244244245 244.35908661691013 L 80.12482482482483 244.2951340260355 L 80.84720720720722 244.27592314265866 L 81.56958958958958 244.30487487205437 L 82.29197197197198 244.3800110304391 L 83.01435435435435 244.49413568082468 L 83.73673673673673 244.63546475507167 L 84.45911911911912 244.7886083488119 L 85.18150150150151 244.9357892367213 L 85.90388388388388 245.05817361620777 L 86.62626626626627 245.137194583108 L 87.34864864864866 245.15576320765769 L 88.07103103103103 245.0992835984826 L 88.79341341341342 244.95641409274208 L 89.5157957957958 244.71954385561105 L 90.23817817817817 244.38498020007842 L 90.96056056056057 243.95286482706294 L 91.68294294294294 243.42685549892607 L 92.40532532532532 242.81362257038484 L 93.12770770770771 242.12221706361132 L 93.85009009009009 241.3633688480778 L 94.57247247247247 240.54877062964985 L 95.29485485485486 239.69039680607148 L 96.01723723723724 238.79989690184306 L 96.73961961961962 237.88809238990532 L 97.46200200200201 236.96459431789134 L 98.18438438438439 236.0375482252703 L 98.90676676676676 235.1135031187742 L 99.62914914914916 234.1973933047488 L 100.35153153153152 233.2926159733289 L 101.07391391391391 232.40118369523577 L 101.7962962962963 231.52392934922602 L 102.51867867867867 230.66074122260247 L 103.24106106106106 229.81080779083604 L 103.96344344344344 228.97285459669268 L 104.68582582582582 228.14535930536962 L 105.40820820820821 227.3267350155985 L 106.13059059059059 226.51547590517657 L 106.85297297297298 225.71026299232324 L 107.57535535535536 224.91003098398875 L 108.29773773773775 224.1139997177865 L 109.02012012012013 223.32167551838756 L 109.7425025025025 222.53282888055548 L 110.4648848848849 221.74745531215459 L 111.18726726726726 220.96572601446775 L 111.90964964964965 220.1879344630965 L 112.63203203203203 219.41444401199055 L 113.35441441441442 218.64564050731263 L 114.0767967967968 217.88189268858375 L 114.79917917917918 217.12352197634382 L 115.52156156156157 216.37078218089414 L 116.24394394394395 215.6238487739243 L 116.96632632632632 214.88281667825197 L 117.6887087087087 214.14770506263923 L 118.4110910910911 213.41846737188314 L 119.13347347347347 212.69500475546835 L 119.85585585585585 211.97718114898674 L 120.57823823823824 211.26483847329976 L 121.30062062062062 210.55781070715258 L 122.02300300300301 209.85593592128706 L 122.74538538538539 209.15906570186922 L 123.46776776776777 208.4670717101097 L 124.19015015015016 207.77984940222052 L 124.91253253253254 207.09731915557896 L 125.63491491491492 206.41942520640424 L 126.35729729729731 205.7461329008403 L 127.07967967967969 205.0774247995495 L 127.80206206206206 204.41329616396865 L 128.52444444444444 203.75375030082895 L 129.24682682682683 203.09879416206076 L 129.96920920920923 202.44843450141633 L 130.6915915915916 201.80267478773834 L 131.41397397397398 201.1615129768634 L 132.13635635635637 200.5249401567575 L 132.85873873873874 199.8929400085318 L 133.58112112112113 199.2654889722274 L 134.30350350350352 198.64255697147797 L 135.02588588588588 198.02410853450118 L 135.74826826826825 197.41010414820929 L 136.47065065065067 196.8005016945899 L 137.19303303303303 196.19525784044154 L 137.9154154154154 195.59432927951633 L 138.63779779779782 194.99767375677578 L 139.36018018018018 194.40525083487705 L 140.08256256256254 193.81702239082927 L 140.80494494494496 193.2329528542839 L 141.52732732732733 192.65300921711176 L 142.2497097097097 192.07716085634482 L 142.97209209209208 191.50537921933108 L 143.69447447447448 190.9376374216043 L 144.41685685685684 190.37390980533547 L 145.13923923923923 189.81417150033047 L 145.86162162162162 189.25839802144887 L 146.584004004004 188.70656492708505 L 147.30638638638638 188.15864755392582 L 148.02876876876877 187.61462083434571 L 148.75115115115113 187.07445919511974 L 149.47353353353353 186.53813652999753 L 150.19591591591592 186.00562623429087 L 150.91829829829828 185.47690128698994 L 151.64068068068067 184.95193436492136 L 152.36306306306307 184.43069797386278 L 153.08544544544543 183.9131645830392 L 153.80782782782782 183.39930675171723 L 154.5302102102102 182.88909723935922 L 155.25259259259258 182.38250909369526 L 155.97497497497497 181.87951571386907 L 156.69735735735736 181.3800908883014 L 157.41973973973973 180.88420880896786 L 158.14212212212212 180.39184406531635 L 158.8645045045045 179.90297162203981 L 159.58688688688687 179.4175667853917 L 160.30926926926927 178.93560516274678 L 161.03165165165166 178.4570626197544 L 161.75403403403402 177.98191523880064 L 162.4764164164164 177.51013928169309 L 163.1987987987988 177.04171115860274 L 163.92118118118117 176.5766074044229 L 164.6435635635636 176.11480466290632 L 165.36594594594595 175.65627967826345 L 166.08832832832832 175.20100929338065 L 166.8107107107107 174.74897045345753 L 167.5330930930931 174.30014021366395 L 168.25547547547546 173.85449574936786 L 168.97785785785786 173.41201436755642 L 169.70024024024025 172.9726735182406 L 170.4226226226226 172.53645080486336 L 171.145005005005 172.10332399299517 L 171.8673873873874 171.6732710168708 L 172.58976976976976 171.24626998357593 L 173.31215215215215 170.82229917491173 L 174.03453453453454 170.40133704714555 L 174.7569169169169 169.98336222898016 L 175.4792992992993 169.56835351815388 L 176.2016816816817 169.15628987711264 L 176.92406406406405 168.74715042818616 L 177.64644644644645 168.3409144486577 L 178.36882882882884 167.93756136605253 L 179.0912112112112 167.53707075389232 L 179.8135935935936 167.13942232808003 L 180.535975975976 166.7445959439999 L 181.25835835835835 166.3525715943454 L 181.98074074074074 165.96332940762937 L 182.70312312312313 165.5768496472863 L 183.4255055055055 165.19311271124707 L 184.1478878878879 164.81209913185356 L 184.87027027027025 164.43378957597886 L 185.59265265265265 164.05816484522828 L 186.31503503503504 163.68520587611485 L 187.0374174174174 163.31489374012523 L 187.7597997997998 162.94720964361662 L 188.48218218218219 162.582134927511 L 189.20456456456455 162.21965106677519 L 189.92694694694694 161.85973966969473 L 190.64932932932933 161.5023824769657 L 191.3717117117117 161.14756136063713 L 192.0940940940941 160.7952583229447 L 192.81647647647648 160.4454554950759 L 193.53885885885887 160.09813513590677 L 194.26124124124124 159.7532796307445 L 194.98362362362363 159.41087149010366 L 195.70600600600602 159.07089334853745 L 196.42838838838838 158.73332796353614 L 197.15077077077078 158.39815821449892 L 197.87315315315317 158.06536710177843 L 198.59553553553553 157.734937745792 L 199.31791791791792 157.40685338619022 L 200.04030030030032 157.08109738107166 L 200.76268268268268 156.75765320623012 L 201.48506506506507 156.43650445442333 L 202.20744744744746 156.1176348346506 L 202.92982982982983 155.80102817143128 L 203.65221221221222 155.4866684040758 L 204.3745945945946 155.17453958594513 L 205.09697697697698 154.864625883696 L 205.81935935935937 154.5569115765112 L 206.54174174174176 154.2513810553164 L 207.26412412412412 153.94801882198576 L 207.98650650650652 153.64680948854 L 208.70888888888888 153.34773777634 L 209.43127127127127 153.05078851528074 L 210.15365365365366 152.75594664298785 L 210.87603603603603 152.46319720402107 L 211.59841841841842 152.17252534908584 L 212.3208008008008 151.8839163342557 L 213.04318318318317 151.59735552020558 L 213.76556556556557 151.31282837145685 L 214.48794794794796 151.03032045563378 L 215.21033033033032 150.74981744273052 L 215.9327127127127 150.47130510438785 L 216.6550950950951 150.1947693131783 L 217.37747747747747 149.92019604189878 L 218.09985985985986 149.647571362869 L 218.82224224224225 149.37688144723538 L 219.54462462462462 149.1081125642789 L 220.267007007007 148.84125108072675 L 220.9893893893894 148.5762834600672 L 221.71177177177177 148.3131962618673 L 222.43415415415416 148.0519761410936 L 223.15653653653652 147.79260984743638 L 223.8789189189189 147.5350842246365 L 224.6013013013013 147.27938620981647 L 225.32368368368367 147.02550283281514 L 226.04606606606606 146.77342121552687 L 226.76844844844845 146.52312857124508 L 227.49083083083082 146.2746122040107 L 228.2132132132132 146.0278595079656 L 228.9355955955956 145.78285796671082 L 229.65797797797796 145.53959515267042 L 230.38036036036036 145.29805872645986 L 231.10274274274275 145.05823643625982 L 231.8251251251251 144.82011611719474 L 232.5475075075075 144.5836856907162 L 233.2698898898899 144.34893316399095 L 233.99227227227226 144.11584662929354 L 234.71465465465465 143.88441426340313 L 235.43703703703704 143.6546243270048 L 236.1594194194194 143.42646516409494 L 236.8818018018018 143.1999252013906 L 237.60418418418416 142.9749929477431 L 238.32656656656656 142.75165699355537 L 239.04894894894895 142.52990601020363 L 239.7713313313313 142.30972874946247 L 240.4937137137137 142.0911140429344 L 241.2160960960961 141.87405080148307 L 241.93847847847846 141.6585280146706 L 242.66086086086085 141.44453475019864 L 243.38324324324324 141.23206015335373 L 244.1056256256256 141.02109344645626 L 244.828008008008 140.81162392831365 L 245.5503903903904 140.6036409736773 L 246.27277277277275 140.39713403270358 L 246.99515515515515 140.19209263041847 L 247.71753753753754 139.98850636618636 L 248.4399199199199 139.78636491318238 L 249.1623023023023 139.58565801786878 L 249.8846846846847 139.38637549947467 L 250.60706706706705 139.1885072494798 L 251.32944944944944 138.99204323110206 L 252.0518318318318 138.79697347878815 L 252.7742142142142 138.60328809770837 L 253.4965965965966 138.41097726325478 L 254.21897897897895 138.2200312205427 L 254.94136136136134 138.0304402839161 L 255.66374374374374 137.84219483645631 L 256.3861261261261 137.65528532949415 L 257.1085085085085 137.46970228212552 L 257.8308908908909 137.2854362807306 L 258.55327327327325 137.10247797849615 L 259.27565565565567 136.9208180949416 L 259.99803803803803 136.740447415448 L 260.7204204204204 136.56135679079077 L 261.4428028028028 136.38353713667556 L 262.1651851851852 136.20697943327747 L 262.88756756756754 136.03167472478341 L 263.60994994994996 135.8576141189379 L 264.33233233233227 135.6847887865919 L 265.0547147147147 135.5131899612552 L 265.7770970970971 135.34280893865144 L 266.4994794794794 135.17363707627683 L 267.22186186186184 135.00566579296168 L 267.94424424424426 134.83888656843513 L 268.66662662662657 134.673290942893 L 269.389009009009 134.5088705165686 L 270.1113913913914 134.34561694930682 L 270.8337737737737 134.1835219601409 L 271.55615615615613 134.02257732687247 L 272.27853853853856 133.86277488565452 L 273.00092092092086 133.70410653057723 L 273.7233033033033 133.54656421325686 L 274.4456856856857 133.3901399424274 L 275.168068068068 133.23482578353529 L 275.89045045045043 133.0806138583369 L 276.61283283283285 132.92749634449902 L 277.33521521521516 132.77546547520194 L 278.0575975975976 132.62451353874542 L 278.77997997997994 132.47463287815776 L 279.5023623623623 132.3258158908072 L 280.2247447447447 132.17805502801636 L 280.94712712712715 132.0313427946793 L 281.6695095095095 131.88567174888132 L 282.3918918918919 131.7410345015216 L 283.1142742742743 131.59742371593822 L 283.83665665665666 131.45483210753613 L 284.559039039039 131.31325244341753 L 285.28142142142144 131.17267754201518 L 286.0038038038038 131.03310027272784 L 286.72618618618617 130.8945135555589 L 287.4485685685686 130.7569103607569 L 288.17095095095095 130.6202837084593 L 288.8933333333333 130.48462666833817 L 289.61571571571574 130.3499323592487 L 290.3380980980981 130.21619394888026 L 291.06048048048046 130.08340465340976 L 291.7828628628629 129.95155773715754 L 292.50524524524525 129.82064651224576 L 293.2276276276276 129.69066433825907 L 293.95001001001003 129.56160462190783 L 294.6723923923924 129.4334608166937 L 295.39477477477476 129.3062264225775 L 296.1171571571572 129.17989498564953 L 296.83953953953954 129.05446009780226 L 297.5619219219219 128.9299153964052 L 298.2843043043043 128.8062545639821 L 299.0066866866867 128.68347132789071 L 299.72906906906906 128.56155946000442 L 300.4514514514515 128.44051277639636 L 301.17383383383384 128.3203251370258 L 301.8962162162162 128.20099044542667 L 302.6185985985986 128.0825026483983 L 303.340980980981 127.96485573569831 L 304.06336336336335 127.84804373973793 L 304.78574574574577 127.73206073527905 L 305.5081281281281 127.61690083913393 L 306.2305105105105 127.50255820986658 L 306.9528928928929 127.38902704749651 L 307.6752752752752 127.27630159320455 L 308.39765765765765 127.16437612904068 L 309.12004004004007 127.05324497763414 L 309.8424224224224 126.94290250190525 L 310.5648048048048 126.83334310477963 L 311.2871871871872 126.72456122890415 L 312.0095695695695 126.61655135636516 L 312.73195195195194 126.50930800840854 L 313.45433433433436 126.40282574516175 L 314.17671671671667 126.29709916535802 L 314.8990990990991 126.19212290606225 L 315.6214814814815 126.08789164239903 L 316.3438638638638 125.98440008728255 L 317.06624624624624 125.88164299114837 L 317.78862862862866 125.77961514168717 L 318.51101101101096 125.67831136358038 L 319.2333933933934 125.57772651823757 L 319.9557757757758 125.47785550353598 L 320.6781581581581 125.37869325356144 L 321.40054054054053 125.28023473835174 L 322.12292292292295 125.18247496364111 L 322.84530530530526 125.08540897060735 L 323.5676876876877 124.98903183561981 L 324.2900700700701 124.89333866998993 L 325.0124524524524 124.7983246197233 L 325.7348348348348 124.70398486527321 L 326.45721721721725 124.61031462129634 L 327.17959959959956 124.51730913641009 L 327.901981981982 124.42496369295134 L 328.6243643643644 124.33327360673744 L 329.3467467467467 124.24223422682832 L 330.0691291291291 124.15184093529075 L 330.79151151151154 124.06208914696415 L 331.51389389389385 123.97297430922771 L 332.23627627627627 123.88449190176988 L 332.9586586586587 123.79663743635871 L 333.681041041041 123.7094064566144 L 334.4034234234234 123.6227945377832 L 335.12580580580584 123.5367972865129 L 335.84818818818815 123.45141034063008 L 336.57057057057057 123.36662936891881 L 337.292952952953 123.28245007090095 L 338.0153353353354 123.19886817661796 L 338.7377177177177 123.11587944641434 L 339.46010010010014 123.03347967072258 L 340.18248248248244 122.95166466984966 L 340.90486486486486 122.87043029376505 L 341.6272472472473 122.78977242189006 L 342.3496296296296 122.70968696288904 L 343.072012012012 122.6301698544616 L 343.79439439439443 122.55121706313679 L 344.51677677677674 122.47282458406843 L 345.23915915915916 122.39498844083181 L 345.9615415415416 122.3177046852222 L 346.6839239239239 122.2409693970545 L 347.4063063063063 122.16477868396436 L 348.1286886886887 122.08912868121075 L 348.85107107107103 122.01401555147996 L 349.57345345345345 121.93943548469099 L 350.2958358358359 121.86538469780209 L 351.0182182182182 121.79185943461914 L 351.7406006006006 121.71885596560486 L 352.462982982983 121.64637058768989 L 353.1853653653653 121.57439962408472 L 353.90774774774775 121.50293942409328 L 354.63013013013017 121.4319863629278 L 355.3525125125125 121.36153684152498 L 356.0748948948949 121.29158728636318 L 356.7972772772773 121.22213414928146 L 357.5196596596596 121.1531739072995 L 358.24204204204204 121.0847030624387 L 358.96442442442446 121.01671814154517 L 359.68680680680677 120.94921569611307 L 360.4091891891892 120.88219230210998 L 361.1315715715716 120.8156445598033 L 361.8539539539539 120.7495690935875 L 362.57633633633634 120.68396255181304 L 363.29871871871876 120.6188216066165 L 364.02110110110107 120.55414295375158 L 364.7434834834835 120.4899233124215 L 365.4658658658659 120.4261594251127 L 366.1882482482482 120.36284805742957 L 366.91063063063064 120.29998599793035 L 367.63301301301306 120.23757005796418 L 368.35539539539536 120.17559707150946 L 369.0777777777778 120.11406389501326 L 369.8001601601602 120.05296740723179 L 370.5225425425425 119.99230450907206 L 371.24492492492493 119.93207212343478 L 371.96730730730735 119.87226719505821 L 372.68968968968966 119.81288669036317 L 373.4120720720721 119.75392759729925 L 374.1344544544545 119.69538692519191 L 374.8568368368368 119.6372617045908 L 375.5792192192192 119.5795489871193 L 376.30160160160165 119.52224584532468 L 377.02398398398395 119.46534937252983 L 377.7463663663664 119.40885668268578 L 378.4687487487488 119.35276491022518 L 379.1911311311311 119.29707120991716 L 379.9135135135135 119.24177275672281 L 380.63589589589594 119.18686674565194 L 381.35827827827825 119.13235039162089 L 382.08066066066067 119.07822092931116 L 382.8030430430431 119.02447561302915 L 383.5254254254254 118.97111171656695 L 384.2478078078078 118.91812653306388 L 384.97019019019024 118.8655173748694 L 385.69257257257254 118.81328157340673 L 386.41495495495496 118.76141647903745 L 387.1373373373374 118.70991946092698 L 387.8597197197197 118.65878790691127 L 388.5821021021021 118.6080192233645 L 389.30448448448453 118.55761083506695 L 390.02686686686684 118.507560185075 L 390.74924924924926 118.457864734591 L 391.4716316316317 118.40852196283473 L 392.194014014014 118.35952936691535 L 392.9163963963964 118.31088446170466 L 393.6387787787788 118.26258477971083 L 394.36116116116114 118.21462787095334 L 395.08354354354356 118.16701130283877 L 395.80592592592586 118.11973266003716 L 396.5283083083083 118.07278954435986 L 397.2506906906907 118.02617957463758 L 397.973073073073 117.97990038659978 L 398.69545545545543 117.93394963275458 L 399.41783783783785 117.88832498226984 L 400.14022022022016 117.84302412085492 L 400.8626026026026 117.79804475064316 L 401.584984984985 117.75338459007546 L 402.3073673673673 117.70904137378443 L 403.0297497497497 117.66501285247958 L 403.75213213213215 117.62129679283322 L 404.47451451451445 117.5778909773671 L 405.1968968968969 117.53479320433996 L 405.9192792792793 117.4920012876359 L 406.6416616616616 117.44951305665342 L 407.364044044044 117.40732635619531 L 408.08642642642644 117.36543904635951 L 408.80880880880875 117.32384900243025 L 409.53119119119117 117.28255411477053 L 410.2535735735736 117.24155228871507 L 410.9759559559559 117.20084144446386 L 411.6983383383383 117.16041951697696 L 412.42072072072074 117.12028445586958 L 413.14310310310304 117.08043422530804 L 413.86548548548546 117.0408668039066 L 414.5878678678679 117.00158018462497 L 415.3102502502502 116.96257237466628 L 416.0326326326326 116.92384139537626 L 416.75501501501503 116.88538528214272 L 417.47739739739734 116.8472020842959 L 418.19977977977976 116.80928986500962 L 418.9221621621622 116.77164670120288 L 419.6445445445445 116.73427068344253 L 420.3669269269269 116.69715991584616 L 421.08930930930933 116.66031251598613 L 421.81169169169164 116.62372661479395 L 422.53407407407406 116.58740035646568 L 423.2564564564565 116.55133189836752 L 423.9788388388388 116.51551941094249 L 424.7012212212212 116.47996107761767 L 425.4236036036036 116.44465509471195 L 426.14598598598593 116.40959967134452 L 426.86836836836835 116.37479302934429 L 427.5907507507508 116.34023340315932 L 428.3131331331331 116.3059190397675 L 429.0355155155155 116.27184819858758 L 429.7578978978979 116.23801915139089 L 430.4802802802802 116.20443018221357 L 431.20266266266265 116.17107958726967 L 431.92504504504507 116.13796567486469 L 432.6474274274274 116.10508676530972 L 433.3698098098098 116.07244119083632 L 434.0921921921922 116.04002729551178 L 434.8145745745745 116.00784343515522 L 435.53695695695694 115.97588797725433 L 436.25933933933936 115.94415930088223 L 436.98172172172167 115.91265579661555 L 437.7041041041041 115.88137586645263 L 438.4264864864865 115.85031792373252 L 439.1488688688688 115.8194803930545 L 439.87125125125124 115.7888617101982 L 440.59363363363366 115.75846032204404 L 441.31601601601596 115.72827468649484 L 442.0383983983984 115.69830327239723 L 442.7607807807808 115.66854455946421 L 443.4831631631631 115.63899703819786 L 444.20554554554553 115.60965920981297 L 444.92792792792795 115.5805295861609 L 445.65031031031026 115.55160668965402 L 446.3726926926927 115.52288905319088 L 447.0950750750751 115.49437522008185 L 447.8174574574574 115.46606374397498 L 448.53983983983983 115.43795318878296 L 449.26222222222225 115.41004212861 L 449.98460460460456 115.38232914767954 L 450.706986986987 115.3548128402627 L 451.4293693693694 115.3274918106066 L 452.1517517517517 115.30036467286388 L 452.8741341341341 115.27343005102216 L 453.59651651651643 115.24668657883439 L 454.31889889889885 115.22013289974944 L 455.0412812812813 115.19376766684348 L 455.7636636636636 115.16758954275147 L 456.486046046046 115.14159719959932 L 457.2084284284284 115.1157893189366 L 457.9308108108107 115.09016459166986 L 458.65319319319315 115.06472171799581 L 459.37557557557557 115.03945940733561 L 460.0979579579579 115.01437637826956 L 460.8203403403403 114.98947135847177 L 461.5427227227227 114.96474308464593 L 462.265105105105 114.94019030246096 L 462.98748748748744 114.91581176648768 L 463.70986986986986 114.8916062401353 L 464.43225225225217 114.86757249558906 L 465.1546346346346 114.84370931374752 L 465.877017017017 114.82001548416116 L 466.5993993993993 114.79648980497069 L 467.32178178178174 114.77313108284622 L 468.04416416416416 114.74993813292659 L 468.76654654654646 114.72690977875956 L 469.4889289289289 114.70404485224171 L 470.2113113113113 114.68134219355952 L 470.9336936936936 114.65880065113049 L 471.65607607607603 114.63641908154457 L 472.37845845845845 114.61419634950633 L 473.10084084084076 114.59213132777728 L 473.8232232232232 114.57022289711875 L 474.5456056056056 114.54846994623503 L 475.2679879879879 114.52687137171708 L 475.99037037037033 114.50542607798656 L 476.71275275275275 114.4841329772402 L 477.43513513513506 114.46299098939468 L 478.1575175175175 114.44199904203177 L 478.8798998998999 114.42115607034401 L 479.6022822822822 114.40046101708066 L 480.3246646646646 114.37991283249411 L 481.04704704704704 114.35951047428657 L 481.76942942942935 114.33925290755724 L 482.4918118118118 114.31913910474975 L 483.2141941941942 114.29916804560014 L 483.9365765765765 114.27933871708512 L 484.6589589589589 114.25965011337055 L 485.38134134134134 114.2401012357605 L 486.10372372372365 114.22069109264655 L 486.82610610610607 114.20141869945769 L 487.5484884884885 114.18228307860997 L 488.2708708708708 114.16328325945739 L 488.9932532532532 114.14441827824226 L 489.71563563563564 114.1256871780466 L 490.43801801801794 114.10708900874346 L 491.16040040040036 114.0886228269487 L 491.8827827827828 114.0702876959732 L 492.6051651651651 114.05208268577542 L 493.3275475475475 114.03400687291403 L 494.04992992992993 114.0160593405013 L 494.77231231231224 113.9982391781563 L 495.49469469469466 113.9805454819591 L 496.2170770770771 113.96297735440456 L 496.9394594594594 113.94553390435695 L 497.6618418418418 113.92821424700489 L 498.3842242242242 113.91101750381614 L 499.10660660660653 113.8939428024934 L 499.82898898898895 113.87698927692983 L 500.5513713713714 113.86015606716512 L 501.2737537537537 113.84344231934202 L 501.9961361361361 113.82684718566287 L 502.7185185185185 113.81036982434668 L 503.44090090090083 113.7940093995864 L 504.16328328328325 113.7777650815066 L 504.88566566566567 113.76163604612125 L 505.608048048048 113.74562147529198 L 506.3304304304304 113.7297205566866 L 507.0528128128128 113.71393248373786 L 507.7751951951951 113.69825645560263 L 508.49757757757754 113.68269167712111 L 509.21995995995985 113.66723735877665 L 509.9423423423423 113.65189271665562 L 510.6647247247247 113.6366569724077 L 511.3871071071071 113.62152935320637 L 512.1094894894895 113.60650909170963 L 512.8318718718718 113.5915954260212 L 513.5542542542543 113.57678759965188 L 514.2766366366367 113.56208486148103 L 514.999019019019 113.5474864657186 L 515.7214014014014 113.53299167186731 L 516.4437837837838 113.51859974468496 L 517.1661661661661 113.50430995414729 L 517.8885485485486 113.49012157541085 L 518.610930930931 113.47603388877624 L 519.3333133133133 113.46204617965165 L 520.0556956956957 113.44815773851664 L 520.7780780780781 113.43436786088589 L 521.5004604604604 113.42067584727391 L 522.2228428428429 113.40708100315922 L 522.9452252252253 113.3935826389492 L 523.6676076076076 113.3801800699452 L 524.38998998999 113.36687261630763 L 525.1123723723724 113.35365960302167 L 525.8347547547547 113.34054035986298 L 526.5571371371371 113.32751422136357 L 527.2795195195196 113.31458052677823 L 528.0019019019019 113.30173862005083 L 528.7242842842843 113.28898784978125 L 529.4466666666667 113.27632756919218 L 530.169049049049 113.26375713609633 L 530.8914314314314 113.25127591286389 L 531.6138138138139 113.23888326639022 L 532.3361961961962 113.22657856806367 L 533.0585785785786 113.21436119373377 L 533.780960960961 113.20223052367948 L 534.5033433433433 113.19018594257778 L 535.2257257257257 113.1782268394725 L 535.9481081081082 113.16635260774333 L 536.6704904904905 113.15456264507492 L 537.3928728728729 113.1428563534266 L 538.1152552552553 113.13123313900172 L 538.8376376376376 113.11969241221777 L 539.56002002002 113.10823358767635 L 540.2824024024025 113.09685608413358 L 541.0047847847848 113.08555932447047 L 541.7271671671672 113.0743427356638 L 542.4495495495496 113.0632057487569 L 543.1719319319319 113.05214779883096 L 543.8943143143143 113.04116832497621 L 544.6166966966967 113.03026677026358 L 545.339079079079 113.01944258171648 L 546.0614614614615 113.00869521028255 L 546.7838438438439 112.99802411080606 L 547.5062262262262 112.9874287420001 L 548.2286086086086 112.97690856641913 L 548.9509909909909 112.9664630504318 L 549.6733733733734 112.95609166419382 L 550.3957557557558 112.94579388162111 L 551.1181381381381 112.93556918036316 L 551.8405205205205 112.92541704177631 L 552.5629029029029 112.91533695089774 L 553.2852852852852 112.90532839641926 L 554.0076676676676 112.89539087066117 L 554.7300500500501 112.88552386954683 L 555.4524324324324 112.87572689257692 L 556.1748148148148 112.86599944280391 L 556.8971971971972 112.85634102680714 L 557.6195795795795 112.84675115466769 L 558.3419619619619 112.8372293399434 L 559.0643443443444 112.82777509964433 L 559.7867267267267 112.81838795420822 L 560.5091091091091 112.80906742747615 L 561.2314914914915 112.7998130466685 L 561.9538738738739 112.7906243423607 L 562.6762562562562 112.78150084845979 L 563.3986386386387 112.77244210218043 L 564.1210210210211 112.76344764402162 L 564.8434034034034 112.75451701774344 L 565.5657857857858 112.74564977034359 L 566.2881681681682 112.73684545203488 L 567.0105505505505 112.72810361622203 L 567.732932932933 112.7194238194792 L 568.4553153153154 112.71080562152747 L 569.1776976976977 112.7022485852124 L 569.9000800800801 112.69375227648212 L 570.6224624624625 112.68531626436499 L 571.3448448448448 112.6769401209479 L 572.0672272272272 112.66862342135468 L 572.7896096096097 112.6603657437243 L 573.511991991992 112.65216666918957 L 574.2343743743744 112.64402578185607 L 574.9567567567568 112.63594266878073 L 575.6791391391391 112.62791691995116 L 576.4015215215215 112.61994812826475 L 577.123903903904 112.61203588950792 L 577.8462862862863 112.60417980233586 L 578.5686686686687 112.59637946825188 L 579.2910510510511 112.58863449158736 L 580.0134334334334 112.58094447948184 L 580.7358158158158 112.57330904186261 L 581.4581981981983 112.56572779142556 L 582.1805805805806 112.55820034361491 L 582.902962962963 112.5507263166042 L 583.6253453453454 112.5433053312766 L 584.3477277277277 112.53593701120582 L 585.0701101101101 112.52862098263705 L 585.7924924924926 112.52135687446793 L 586.5148748748749 112.51414431822963 L 587.2372572572573 112.50698294806836 L 587.9596396396397 112.49987240072673 L 588.682022022022 112.49281231552533 L 589.4044044044044 112.48580233434433 L 590.1267867867867 112.4788421016055 L 590.8491691691692 112.47193126425404 L 591.5715515515516 112.46506947174075 L 592.2939339339339 112.45825637600407 L 593.0163163163163 112.45149163145271 L 593.7386986986987 112.44477489494798 L 594.461081081081 112.43810582578627 L 595.1834634634635 112.43148408568186 L 595.9058458458459 112.42490933874996 L 596.6282282282282 112.41838125148931 L 597.3506106106106 112.41189949276557 L 598.072992992993 112.40546373379422 L 598.7953753753753 112.39907364812424 L 599.5177577577577 112.39272891162128 L 600.2401401401402 112.38642920245132 L 600.9625225225225 112.3801742010643 L 601.6849049049049 112.3739635901781 L 602.4072872872873 112.36779705476198 L 603.1296696696696 112.36167428202123 L 603.852052052052 112.35559496138083 L 604.5744344344345 112.34955878446982 L 605.2968168168168 112.34356544510575 L 606.0191991991992 112.33761463927908 L 606.7415815815816 112.33170606513775 L 607.4639639639639 112.32583942297194 L 608.1863463463463 112.32001441519867 L 608.9087287287288 112.314230746347 L 609.6311111111111 112.30848812304279 L 610.3534934934935 112.30278625399393 L 611.0758758758759 112.29712484997566 L 611.7982582582582 112.29150362381566 L 612.5206406406406 112.28592229037963 L 613.243023023023 112.28038056655689 L 613.9654054054054 112.27487817124586 L 614.6877877877878 112.26941482533996 L 615.4101701701702 112.26399025171332 L 616.1325525525525 112.25860417520673 L 616.8549349349349 112.25325632261382 L 617.5773173173174 112.2479464226671 L 618.2996996996997 112.24267420602416 L 619.0220820820821 112.2374394052541 L 619.7444644644645 112.23224175482389 L 620.4668468468468 112.22708099108502 L 621.1892292292292 112.2219568522599 L 621.9116116116116 112.21686907842886 L 622.633993993994 112.21181741151668 L 623.3563763763764 112.20680159527984 L 624.0787587587588 112.20182137529324 L 624.8011411411411 112.19687649893726 L 625.5235235235235 112.19196671538529 L 626.2459059059059 112.1870917755906 L 626.9682882882884 112.18225143227403 L 627.6906706706708 112.17744543991125 L 628.4130530530531 112.17267355472035 L 629.1354354354355 112.16793553464953 L 629.8578178178178 112.16323113936474 L 630.5802002002002 112.15856013023765 L 631.3025825825827 112.15392227033325 L 632.024964964965 112.14931732439808 L 632.7473473473474 112.14474505884832 L 633.4697297297298 112.14020524175777 L 634.1921121121121 112.13569764284611 L 634.9144944944945 112.13122203346737 L 635.636876876877 112.12677818659822 L 636.3592592592593 112.12236587682645 L 637.0816416416417 112.11798488033946 L 637.8040240240241 112.11363497491323 L 638.5264064064064 112.10931593990057 L 639.2487887887888 112.10502755622039 L 639.9711711711712 112.10076960634618 L 640.6935535535536 112.09654187429538 L 641.415935935936 112.09234414561803 L 642.1383183183184 112.08817620738617 L 642.8607007007007 112.08403784818293 L 643.5830830830831 112.07992885809188 L 644.3054654654655 112.0758490286862 L 645.0278478478479 112.07179815301834 L 645.7502302302303 112.06777602560939 L 646.4726126126127 112.06378244243865 L 647.194994994995 112.05981720093334 L 647.9173773773774 112.05588009995833 L 648.6397597597598 112.05197093980587 L 649.3621421421421 112.04808952218545 L 650.0845245245246 112.04423565021392 L 650.806906906907 112.04040912840523 L 651.5292892892893 112.0366097626607 L 652.2516716716717 112.03283736025918 L 652.9740540540541 112.02909172984718 L 653.6964364364364 112.02537268142922 L 654.4188188188189 112.02168002635813 L 655.1412012012013 112.01801357732563 L 655.8635835835836 112.01437314835266 L 656.585965965966 112.01075855478007 L 657.3083483483484 112.00716961325907 L 658.0307307307307 112.00360614174224 L 658.7531131131132 112.000067959474 L 659.4754954954956 111.99655488698158 L 660.1978778778779 111.99306674606586 L 660.9202602602603 111.98960335979243 L 661.6426426426427 111.98616455248256 L 662.365025025025 111.98275014970417 L 663.0874074074075 111.97935997826318 L 663.8097897897899 111.97599386619461 L 664.5321721721722 111.9726516427539 L 665.2545545545546 111.96933313840816 L 665.976936936937 111.96603818482771 L 666.6993193193193 111.96276661487747 L 667.4217017017017 111.95951826260841 L 668.1440840840842 111.95629296324933 L 668.8664664664665 111.95309055319828 L 669.5888488488489 111.94991087001446 L 670.3112312312313 111.94675375240968 L 671.0336136136136 111.94361904024066 L 671.755995995996 111.9405065745004 L 672.4783783783785 111.93741619731045 L 673.2007607607608 111.9343477519127 L 673.9231431431432 111.93130108266166 L 674.6455255255256 111.9282760350163 L 675.3679079079079 111.9252724555324 L 676.0902902902903 111.92229019185467 L 676.8126726726728 111.91932909270912 L 677.5350550550551 111.91638900789525 L 678.2574374374375 111.91346978827849 L 678.9798198198199 111.91057128578277 L 679.7022022022022 111.90769335338271 L 680.4245845845846 111.90483584509647 L 681.146966966967 111.90199861597821 L 681.8693493493494 111.8991815221107 L 682.5917317317318 111.89638442059803 L 683.3141141141142 111.89360716955844 L 684.0364964964965 111.89084962811711 L 684.7588788788789 111.88811165639888 L 685.4812612612612 111.88539311552137 L 686.2036436436437 111.88269386758776 L 686.9260260260261 111.88001377567986 L 687.6484084084084 111.87735270385116 L 688.3707907907908 111.87471051711995 L 689.0931731731732 111.87208708146247 L 689.8155555555555 111.86948226380596 L 690.537937937938 111.86689593202232 L 691.2603203203204 111.8643279549209 L 691.9827027027027 111.86177820224225 L 692.7050850850851 111.8592465446512 L 693.4274674674675 111.85673285373053 L 694.1498498498498 111.85423700197435 L 694.8722322322322 111.85175886278168 L 695.5946146146147 111.84929831044997 L 696.316996996997 111.84685522016872 L 697.0393793793794 111.84442946801329 L 697.7617617617618 111.84202093093839 L 698.4841441441441 111.83962948677208 L 699.2065265265265 111.8372550142094 L 699.928908908909 111.8348973928062 L 700.6512912912913 111.83255650297315 L 701.3736736736737 111.83023222596964 L 702.0960560560561 111.82792444389773 L 702.8184384384384 111.82563303969616 L 703.5408208208208 111.82335789713446 L 704.2632032032033 111.82109890080702 L 704.9855855855856 111.81885593612719 L 705.707967967968 111.81662888932158 L 706.4303503503504 111.81441764742416 L 707.1527327327327 111.8122220982707 L 707.8751151151151 111.81004213049289 L 708.5974974974976 111.80787763351279 L 709.3198798798799 111.80572849753725 L 710.0422622622623 111.80359461355226 L 710.7646446446447 111.80147587331749 L 711.487027027027 111.79937216936071 L 712.2094094094094 111.79728339497254 L 712.9317917917919 111.79520944420074 L 713.6541741741742 111.79315021184507 L 714.3765565565566 111.79110559345182 L 715.098938938939 111.78907548530864 L 715.8213213213213 111.78705978443918 L 716.5437037037037 111.78505838859786 L 717.2660860860861 111.78307119626473 L 717.9884684684685 111.78109810664037 L 718.7108508508509 111.77913901964064 L 719.4332332332333 111.77719383589167 L 720.1556156156156 111.77526245672485 L 720.877997997998 111.77334478417185 L 721.6003803803804 111.77144072095956 L 722.3227627627627 111.76955017050514 L 723.0451451451452 111.76767303691128 L 723.7675275275276 111.7658092249612 L 724.4899099099099 111.7639586401138 L 725.2122922922923 111.76212118849895 L 725.9346746746747 111.76029677691275 L 726.657057057057 111.75848531281272 L 727.3794394394395 111.75668670431313 L 728.1018218218219 111.75490086018027 L 728.8242042042042 111.75312768982806 L 729.5465865865866 111.75136710331313 L 730.268968968969 111.74961901133051 L 730.9913513513513 111.74788332520902 L 731.7137337337338 111.7461599569067 L 732.4361161161162 111.74444881900644 L 733.1584984984985 111.74274982471155 L 733.8808808808809 111.7410628878412 L 734.6032632632633 111.73938792282632 L 735.3256456456456 111.73772484470496 L 736.048028028028 111.73607356911828 L 736.7704104104105 111.734434012306 L 737.4927927927928 111.73280609110228 L 738.2151751751752 111.73118972293156 L 738.9375575575576 111.7295848258043 L 739.6599399399399 111.72799131831269 L 740.3823223223224 111.72640911962682 L 741.1047047047048 111.7248381494903 L 741.8270870870871 111.7232783282164 L 742.5494694694695 111.72172957668383 L 743.2718518518518 111.72019181633283 L 743.9942342342342 111.71866496916118 L 744.7166166166166 111.71714895772024 L 745.438998998999 111.71564370511095 L 746.1613813813814 111.71414913498006 L 746.8837637637638 111.71266517151611 L 747.6061461461461 111.7111917394457 L 748.3285285285285 111.70972876402962 L 749.0509109109109 111.70827617105908 L 749.7732932932932 111.70683388685194 L 750.4956756756757 111.70540183824892 L 751.2180580580581 111.70397995261001 L 751.9404404404404 111.7025681578107 L 752.6628228228228 111.70116638223828 L 753.3852052052052 111.69977455478829 L 754.1075875875875 111.69839260486086 L 754.82996996997 111.69702046235722 L 755.5523523523524 111.69565805767596 L 756.2747347347347 111.69430532170978 L 756.9971171171171 111.69296218584168 L 757.7194994994995 111.6916285819417 L 758.4418818818818 111.6903044423633 L 759.1642642642643 111.68898969994018 L 759.8866466466467 111.68768428798253 L 760.609029029029 111.68638814027389 L 761.3314114114114 111.68510119106773 L 762.0537937937938 111.6838233750841 L 762.7761761761761 111.68255462750636 L 763.4985585585586 111.68129488397784 L 764.220940940941 111.68004408059858 L 764.9433233233233 111.6788021539221 L 765.6657057057057 111.67756904095222 L 766.3880880880881 111.67634467913985 L 767.1104704704704 111.67512900637973 L 767.8328528528529 111.67392196100738 L 768.5552352352353 111.67272348179597 L 769.2776176176176 111.67153350795314 L 770 111.67035197911801" stroke-opacity="0.9" stroke-miterlimit="10" stroke-width="2"/></g><g><path fill="none" stroke="none"/><path fill="none" stroke="rgb(102,180,211)" paint-order="fill stroke markers" d=" M 48.34 244.65714285714284 L 49.06238238238239 244.65117536730753 L 49.784764764764766 244.633415723976 L 50.50714714714715 244.60407608288713 L 51.229529529529536 244.563365846314 L 51.951911911911914 244.5114916935167 L 52.6742942942943 244.44865761089483 L 53.39667667667668 244.3750649218426 L 54.11905905905906 244.2909123163084 L 54.84144144144145 244.19639588006197 L 55.563823823823824 244.09170912367188 L 56.28620620620621 243.9770430111955 L 57.008588588588594 243.85258598858445 L 57.73097097097097 243.71852401180772 L 58.45335335335336 243.57504057469518 L 59.17573573573574 243.422316736504 L 59.89811811811812 243.2605311492103 L 60.620500500500505 243.08986008452877 L 61.34288288288288 242.91047746066232 L 62.06526526526527 242.7225548687846 L 62.787647647647645 242.52626159925757 L 63.51003003003004 242.32176466758636 L 64.23241241241242 242.10922884011433 L 64.9547947947948 241.88881665945976 L 65.67717717717719 241.66068846969785 L 66.39955955955956 241.4250024412886 L 67.12194194194194 241.18191459575476 L 67.84432432432433 240.9315788301104 L 68.56670670670671 240.6741469410436 L 69.28908908908909 240.40976864885488 L 70.01147147147148 240.13859162115375 L 70.73385385385386 239.86076149631555 L 71.45623623623624 239.57642190670077 L 72.17861861861863 239.28571450163918 L 72.901001001001 238.98877897018056 L 73.62338338338338 238.6857530636145 L 74.34576576576576 238.37677261776122 L 75.06814814814815 238.0619715750355 L 75.79053053053053 237.74148200628602 L 76.51291291291291 237.4154341324117 L 77.23529529529529 237.0839563457575 L 77.95767767767768 236.74717523129183 L 78.68006006006007 236.4052155875669 L 79.40244244244245 236.05820044746463 L 80.12482482482483 235.7062510987302 L 80.84720720720722 235.34948710429438 L 81.56958958958958 234.98802632238747 L 82.29197197197198 234.62198492644632 L 83.01435435435435 234.2514774248165 L 83.73673673673673 233.87661668025143 L 84.45911911911912 233.49751392921033 L 85.18150150150151 233.11427880095707 L 85.90388388388388 232.72701933646147 L 86.62626626626627 232.3358420071051 L 87.34864864864866 231.94085173319337 L 88.07103103103103 231.54215190227555 L 88.79341341341342 231.13984438727485 L 89.5157957957958 230.73402956442987 L 90.23817817817817 230.32480633104967 L 90.96056056056057 229.91227212308377 L 91.68294294294294 229.49652293250927 L 92.40532532532532 229.07765332453613 L 93.12770770770771 228.65575645463323 L 93.85009009009009 228.23092408537605 L 94.57247247247247 227.80324660311805 L 95.29485485485486 227.37281303448748 L 96.01723723723724 226.939711062711 L 96.73961961961962 226.50402704376592 L 97.46200200200201 226.06584602236262 L 98.18438438438439 225.62525174775885 L 98.90676676676676 225.18232668940732 L 99.62914914914916 224.73715205243826 L 100.35153153153152 224.28980779297854 L 101.07391391391391 223.84037263330896 L 101.7962962962963 223.38892407686083 L 102.51867867867867 222.93553842305423 L 103.24106106106106 222.48029078197828 L 103.96344344344344 222.0232550889162 L 104.68582582582582 221.56450411871532 L 105.40820820820821 221.10410950000494 L 106.13059059059059 220.64214172926205 L 106.85297297297298 220.17867018472754 L 107.57535535535536 219.7137631401737 L 108.29773773773775 219.24748777852452 L 109.02012012012013 218.77991020533034 L 109.7425025025025 218.31109546209814 L 110.4648848848849 217.84110753947905 L 111.18726726726726 217.37000939031395 L 111.90964964964965 216.89786294253918 L 112.63203203203203 216.42472911195338 L 113.35441441441442 215.95066781484655 L 114.0767967967968 215.4757379804932 L 114.79917917917918 214.99999756351056 L 115.52156156156157 214.52350355608309 L 116.24394394394395 214.0463120000548 L 116.96632632632632 213.5684779988908 L 117.6887087087087 213.09005572950863 L 118.4110910910911 212.61109845398158 L 119.13347347347347 212.13165853111457 L 119.85585585585585 211.65178742789402 L 120.57823823823824 211.17153573081328 L 121.30062062062062 210.69095315707398 L 122.02300300300301 210.21008856566556 L 122.74538538538539 209.7289899683234 L 123.46776776776777 209.24770454036695 L 124.19015015015016 208.7662786314194 L 124.91253253253254 208.28475777600923 L 125.63491491491492 207.80318670405575 L 126.35729729729731 207.3216093512391 L 127.07967967967969 206.840068869256 L 127.80206206206206 206.35860763596267 L 128.52444444444444 205.87726726540558 L 129.24682682682683 205.39608861774133 L 129.96920920920923 204.91511180904695 L 130.6915915915916 204.4343762210215 L 131.41397397397398 203.95392051057974 L 132.13635635635637 203.47378261933974 L 132.85873873873874 202.99399978300474 L 133.58112112112113 202.51460854064044 L 134.30350350350352 202.0356447438493 L 135.02588588588588 201.557143565842 L 135.74826826826825 201.0791395104079 L 136.47065065065067 200.60166642078488 L 137.19303303303303 200.12475748843002 L 137.9154154154154 199.6484452616918 L 138.63779779779782 199.17276165438503 L 139.36018018018018 198.69773795426926 L 140.08256256256254 198.22340483143176 L 140.80494494494496 197.7497923465761 L 141.52732732732733 197.27692995921706 L 142.2497097097097 196.80484653578304 L 142.97209209209208 196.33357035762674 L 143.69447447447448 195.86312912894513 L 144.41685685685684 195.39354998460948 L 145.13923923923923 194.92485949790657 L 145.86162162162162 194.45708368819183 L 146.584004004004 193.99024802845523 L 147.30638638638638 193.524377452801 L 148.02876876876877 193.059496363842 L 148.75115115115113 192.5956286400093 L 149.47353353353353 192.13279764277848 L 150.19591591591592 191.67102622381265 L 150.91829829829828 191.2103367320238 L 151.64068068068067 190.75075102055294 L 152.36306306306307 190.2922904536698 L 153.08544544544543 189.834975913593 L 153.80782782782782 189.3788278072318 L 154.5302102102102 188.92386607284948 L 155.25259259259258 188.47011018664998 L 155.97497497497497 188.01757916928824 L 156.69735735735736 187.5662915923046 L 157.41973973973973 187.116265584485 L 158.14212212212212 186.66751883814666 L 158.8645045045045 186.2200686153509 L 159.58688688688687 185.77393175404322 L 160.30926926926927 185.32912467412189 L 161.03165165165166 184.8856633834353 L 161.75403403403402 184.44356348370908 L 162.4764164164164 184.00284017640396 L 163.1987987987988 183.56350826850436 L 163.92118118118117 183.1255821782392 L 164.6435635635636 182.6890759407351 L 165.36594594594595 182.25400321360317 L 166.08832832832832 181.8203772824593 L 166.8107107107107 181.38821106637957 L 167.5330930930931 180.95751712329076 L 168.25547547547546 180.52830765529697 L 168.97785785785786 180.10059451394287 L 169.70024024024025 179.67438920541434 L 170.4226226226226 179.2497028956771 L 171.145005005005 178.82654641555402 L 171.8673873873874 178.40493026574157 L 172.58976976976976 177.9848646217664 L 173.31215215215215 177.5663593388824 L 174.03453453453454 177.14942395690878 L 174.7569169169169 176.73406770501032 L 175.4792992992993 176.32029950641956 L 176.2016816816817 175.90812798310236 L 176.92406406406405 175.49756146036697 L 177.64644644644645 175.0886079714172 L 178.36882882882884 174.68127526185054 L 179.0912112112112 174.27557079410175 L 179.8135935935936 173.871501751832 L 180.535975975976 173.469075044265 L 181.25835835835835 173.06829731047 L 181.98074074074074 172.66917492359252 L 182.70312312312313 172.2717139950332 L 183.4255055055055 171.87592037857564 L 184.1478878878879 171.4817996744633 L 184.87027027027025 171.08935723342643 L 185.59265265265265 170.6985981606593 L 186.31503503503504 170.3095273197484 L 187.0374174174174 169.9221493365522 L 187.7597997997998 169.53646860303252 L 188.48218218218219 169.15248928103887 L 189.20456456456455 168.77021530604532 L 189.92694694694694 168.38965039084127 L 190.64932932932933 168.01079802917596 L 191.3717117117117 167.6336614993575 L 192.0940940940941 167.258243867807 L 192.81647647647648 166.88454799256817 L 193.53885885885887 166.51257652677268 L 194.26124124124124 166.14233192206217 L 194.98362362362363 165.7738164319671 L 195.70600600600602 165.40703211524297 L 196.42838838838838 165.04198083916418 L 197.15077077077078 164.67866428277662 L 197.87315315315317 164.31708394010852 L 198.59553553553553 163.9572411233409 L 199.31791791791792 163.59913696593736 L 200.04030030030032 163.24277242573416 L 200.76268268268268 162.8881482879906 L 201.48506506506507 162.53526516840066 L 202.20744744744746 162.18412351606577 L 202.92982982982983 161.83472361642941 L 203.65221221221222 161.48706559417408 L 204.3745945945946 161.14114941608076 L 205.09697697697698 160.79697489385146 L 205.81935935935937 160.45454168689523 L 206.54174174174176 160.1138493050781 L 207.26412412412412 159.77489711143724 L 207.98650650650652 159.43768432485965 L 208.70888888888888 159.1022100227261 L 209.43127127127127 158.76847314352037 L 210.15365365365366 158.43647248940448 L 210.87603603603603 158.10620672875973 L 211.59841841841842 157.7776743986949 L 212.3208008008008 157.45087390752084 L 213.04318318318317 157.12580353719275 L 213.76556556556557 156.80246144572 L 214.48794794794796 156.48084566954398 L 215.21033033033032 156.16095412588436 L 215.9327127127127 155.8427846150542 L 216.6550950950951 155.5263348227441 L 217.37747747747747 155.21160232227578 L 218.09985985985986 154.89858457682544 L 218.82224224224225 154.58727894161743 L 219.54462462462462 154.2776826660882 L 220.267007007007 153.96979289602115 L 220.9893893893894 153.66360667565263 L 221.71177177177177 153.3591209497494 L 222.43415415415416 153.05633256565784 L 223.15653653653652 152.75523827532535 L 223.8789189189189 152.45583473729414 L 224.6013013013013 152.15811851866775 L 225.32368368368367 151.86208609705065 L 226.04606606606606 151.5677338624612 L 226.76844844844845 151.2750581192183 L 227.49083083083082 150.98405508780192 L 228.2132132132132 150.69472090668808 L 228.9355955955956 150.4070516341581 L 229.65797797797796 150.12104325008318 L 230.38036036036036 149.83669165768345 L 231.10274274274275 149.55399268526318 L 231.8251251251251 149.27294208792117 L 232.5475075075075 148.9935355492374 L 233.2698898898899 148.71576868293582 L 233.99227227227226 148.43963703452386 L 234.71465465465465 148.16513608290856 L 235.43703703703704 147.89226124198998 L 236.1594194194194 147.62100786223175 L 236.8818018018018 147.35137123220952 L 237.60418418418416 147.083346580137 L 238.32656656656656 146.81692907537044 L 239.04894894894895 146.5521138298912 L 239.7713313313313 146.2888958997672 L 240.4937137137137 146.02727028659328 L 241.2160960960961 145.76723193891038 L 241.93847847847846 145.50877575360468 L 242.66086086086085 145.25189657728583 L 243.38324324324324 144.99658920764531 L 244.1056256256256 144.74284839479503 L 244.828008008008 144.490668842586 L 245.5503903903904 144.24004520990772 L 246.27277277277275 143.9909721119685 L 246.99515515515515 143.7434441215566 L 247.71753753753754 143.4974557702828 L 248.4399199199199 143.25300154980448 L 249.1623023023023 143.01007591303116 L 249.8846846846847 142.76867327531232 L 250.60706706706705 142.52878801560718 L 251.32944944944944 142.29041447763686 L 252.0518318318318 142.0535469710191 L 252.7742142142142 141.8181797723858 L 253.4965965965966 141.58430712648365 L 254.21897897897895 141.35192324725767 L 254.94136136136134 141.12102231891848 L 255.66374374374374 140.89159849699297 L 256.3861261261261 140.66364590935885 L 257.1085085085085 140.43715865726315 L 257.8308908908909 140.21213081632493 L 258.55327327327325 139.98855643752245 L 259.27565565565567 139.76642954816478 L 259.99803803803803 139.54574415284824 L 260.7204204204204 139.3264942343979 L 261.4428028028028 139.10867375479395 L 262.1651851851852 138.89227665608365 L 262.88756756756754 138.6772968612787 L 263.60994994994996 138.4637282752382 L 264.33233233233227 138.25156478553754 L 265.0547147147147 138.04080026332335 L 265.7770970970971 137.83142856415458 L 266.4994794794794 137.62344352882994 L 267.22186186186184 137.41683898420203 L 267.94424424424426 137.21160874397802 L 268.66662662662657 137.00774660950725 L 269.389009009009 136.80524637055592 L 270.1113913913914 136.60410180606894 L 270.8337737737737 136.4043066849191 L 271.55615615615613 136.20585476664394 L 272.27853853853856 136.00873980217 L 273.00092092092086 135.8129555345252 L 273.7233033033033 135.61849569953907 L 274.4456856856857 135.425354026531 L 275.168068068068 135.23352423898717 L 275.89045045045043 135.0430000552254 L 276.61283283283285 134.85377518904895 L 277.33521521521516 134.665843350389 L 278.0575975975976 134.47919824593583 L 278.77997997997994 134.29383357975928 L 279.5023623623623 134.10974305391804 L 280.2247447447447 133.9269203690586 L 280.94712712712715 133.74535922500334 L 281.6695095095095 133.5650533213284 L 282.3918918918919 133.38599635793105 L 283.1142742742743 133.20818203558704 L 283.83665665665666 133.03160405649797 L 284.559039039039 132.85625612482858 L 285.28142142142144 132.6821319472344 L 286.0038038038038 132.50922523337977 L 286.72618618618617 132.33752969644615 L 287.4485685685686 132.16703905363136 L 288.17095095095095 131.99774702663925 L 288.8933333333333 131.82964734216037 L 289.61571571571574 131.66273373234364 L 290.3380980980981 131.49699993525897 L 291.06048048048046 131.33243969535113 L 291.7828628628629 131.16904676388518 L 292.50524524524525 131.00681489938296 L 293.2276276276276 130.84573786805143 L 293.95001001001003 130.68580944420245 L 294.6723923923924 130.52702341066458 L 295.39477477477476 130.3693735591866 L 296.1171571571572 130.21285369083307 L 296.83953953953954 130.05745761637192 L 297.5619219219219 129.9031791566544 L 298.2843043043043 129.75001214298734 L 299.0066866866867 129.59795041749754 L 299.72906906906906 129.44698783348915 L 300.4514514514515 129.29711825579324 L 301.17383383383384 129.14833556111034 L 301.8962162162162 129.00063363834582 L 302.6185985985986 128.854006388938 L 303.340980980981 128.70844772717936 L 304.06336336336335 128.56395158053115 L 304.78574574574577 128.42051188993062 L 305.5081281281281 128.27812261009214 L 306.2305105105105 128.13677770980138 L 306.9528928928929 127.99647117220303 L 307.6752752752752 127.85719699508218 L 308.39765765765765 127.7189491911393 L 309.12004004004007 127.58172178825907 L 309.8424224224224 127.4455088297729 L 310.5648048048048 127.31030437471543 L 311.2871871871872 127.17610249807518 L 312.0095695695695 127.04289729103911 L 312.73195195195194 126.91068286123158 L 313.45433433433436 126.77945333294727 L 314.17671671671667 126.64920284737875 L 314.8990990990991 126.51992556283832 L 315.6214814814815 126.39161565497437 L 316.3438638638638 126.26426731698243 L 317.06624624624624 126.13787475981064 L 317.78862862862866 126.01243221236038 L 318.51101101101096 125.88793392168114 L 319.2333933933934 125.7643741531609 L 319.9557757757758 125.64174719071102 L 320.6781581581581 125.52004733694636 L 321.40054054054053 125.39926891336052 L 322.12292292292295 125.27940626049616 L 322.84530530530526 125.16045373811079 L 323.5676876876877 125.04240572533746 L 324.2900700700701 124.92525662084148 L 325.0124524524524 124.80900084297193 L 325.7348348348348 124.69363282990926 L 326.45721721721725 124.57914703980799 L 327.17959959959956 124.46553795093564 L 327.901981981982 124.35280006180676 L 328.6243643643644 124.24092789131319 L 329.3467467467467 124.12991597885016 L 330.0691291291291 124.019758884438 L 330.79151151151154 123.91045118884011 L 331.51389389389385 123.8019874936769 L 332.23627627627627 123.69436242153589 L 332.9586586586587 123.58757061607764 L 333.681041041041 123.48160674213852 L 334.4034234234234 123.3764654858291 L 335.12580580580584 123.27214155462931 L 335.84818818818815 123.16862967747986 L 336.57057057057057 123.06592460487002 L 337.292952952953 122.96402110892217 L 338.0153353353354 122.86291398347248 L 338.7377177177177 122.76259804414869 L 339.46010010010014 122.66306812844422 L 340.18248248248244 122.56431909578913 L 340.90486486486486 122.46634582761774 L 341.6272472472473 122.36914322743331 L 342.3496296296296 122.27270622086937 L 343.072012012012 122.17702975574798 L 343.79439439439443 122.08210880213525 L 344.51677677677674 121.9879383523934 L 345.23915915915916 121.89451342123044 L 345.9615415415416 121.80182904574644 L 346.6839239239239 121.70988028547742 L 347.4063063063063 121.61866222243614 L 348.1286886886887 121.52816996115038 L 348.85107107107103 121.43839862869831 L 349.57345345345345 121.34934337474141 L 350.2958358358359 121.26099937155456 L 351.0182182182182 121.17336181405383 L 351.7406006006006 121.08642591982164 L 352.462982982983 121.00018692912926 L 353.1853653653653 120.91464010495721 L 353.90774774774775 120.82978073301308 L 354.63013013013017 120.74560412174696 L 355.3525125125125 120.66210560236468 L 356.0748948948949 120.57928052883875 L 356.7972772772773 120.49712427791695 L 357.5196596596596 120.41563224912898 L 358.24204204204204 120.3347998647906 L 358.96442442442446 120.25462257000612 L 359.68680680680677 120.17509583266832 L 360.4091891891892 120.09621514345665 L 361.1315715715716 120.01797601583343 L 361.8539539539539 119.94037398603788 L 362.57633633633634 119.86340461307833 L 363.29871871871876 119.78706347872273 L 364.02110110110107 119.71134618748678 L 364.7434834834835 119.63624836662086 L 365.4658658658659 119.56176566609471 L 366.1882482482482 119.48789375858061 L 366.91063063063064 119.41462833943459 L 367.63301301301306 119.3419651266762 L 368.35539539539536 119.26989986096649 L 369.0777777777778 119.19842830558434 L 369.8001601601602 119.1275462464013 L 370.5225425425425 119.05724949185463 L 371.24492492492493 118.98753387291913 L 371.96730730730735 118.91839524307719 L 372.68968968968966 118.84982947828749 L 373.4120720720721 118.78183247695222 L 374.1344544544545 118.71440015988296 L 374.8568368368368 118.64752847026489 L 375.5792192192192 118.58121337362005 L 376.30160160160165 118.51545085776891 L 377.02398398398395 118.4502369327908 L 377.7463663663664 118.38556763098319 L 378.4687487487488 118.32143900681925 L 379.1911311311311 118.25784713690467 L 379.9135135135135 118.19478811993312 L 380.63589589589594 118.1322580766404 L 381.35827827827825 118.0702531497576 L 382.08066066066067 118.00876950396307 L 382.8030430430431 117.94780332583318 L 383.5254254254254 117.88735082379227 L 384.2478078078078 117.82740822806127 L 384.97019019019024 117.76797179060549 L 385.69257257257254 117.70903778508114 L 386.41495495495496 117.65060250678127 L 387.1373373373374 117.59266227258024 L 387.8597197197197 117.53521342087782 L 388.5821021021021 117.47825231154175 L 389.30448448448453 117.4217753258499 L 390.02686686686684 117.36577886643138 L 390.74924924924926 117.31025935720675 L 391.4716316316317 117.25521324332735 L 392.194014014014 117.20063699111401 L 392.9163963963964 117.14652708799477 L 393.6387787787788 117.09288004244195 L 394.36116116116114 117.03969238390837 L 395.08354354354356 116.9869606627629 L 395.80592592592586 116.93468145022527 L 396.5283083083083 116.88285133830018 L 397.2506906906907 116.83146693971077 L 397.973073073073 116.78052488783123 L 398.69545545545543 116.73002183661916 L 399.41783783783785 116.6799544605469 L 400.14022022022016 116.63031945453241 L 400.8626026026026 116.58111353386963 L 401.584984984985 116.53233343415818 L 402.3073673673673 116.48397591123248 L 403.0297497497497 116.43603774109044 L 403.75213213213215 116.38851571982138 L 404.47451451451445 116.34140666353383 L 405.1968968968969 116.29470740828239 L 405.9192792792793 116.24841480999447 L 406.6416616616616 116.20252574439641 L 407.364044044044 116.15703710693901 L 408.08642642642644 116.11194581272301 L 408.80880880880875 116.06724879642366 L 409.53119119119117 116.02294301221542 L 410.2535735735736 115.97902543369574 L 410.9759559559559 115.93549305380881 L 411.6983383383383 115.89234288476888 L 412.42072072072074 115.84957195798299 L 413.14310310310304 115.80717732397389 L 413.86548548548546 115.7651560523019 L 414.5878678678679 115.72350523148731 L 415.3102502502502 115.68222196893154 L 416.0326326326326 115.64130339083891 L 416.75501501501503 115.60074664213752 L 417.47739739739734 115.56054888640006 L 418.19977977977976 115.52070730576446 L 418.9221621621622 115.48121910085419 L 419.6445445445445 115.44208149069829 L 420.3669269269269 115.40329171265142 L 421.08930930930933 115.36484702231326 L 421.81169169169164 115.3267446934482 L 422.53407407407406 115.28898201790463 L 423.2564564564565 115.25155630553388 L 423.9788388388388 115.21446488410936 L 424.7012212212212 115.17770509924523 L 425.4236036036036 115.14127431431513 L 426.14598598598593 115.10516991037065 L 426.86836836836835 115.06938928605973 L 427.5907507507508 115.03392985754499 L 428.3131331331331 114.99878905842169 L 429.0355155155155 114.96396433963619 L 429.7578978978979 114.92945316940353 L 430.4802802802802 114.89525303312558 L 431.20266266266265 114.86136143330882 L 431.92504504504507 114.82777588948207 L 432.6474274274274 114.7944939381143 L 433.3698098098098 114.7615131325322 L 434.0921921921922 114.72883104283792 L 434.8145745745745 114.6964452558266 L 435.53695695695694 114.66435337490407 L 436.25933933933936 114.6325530200042 L 436.98172172172167 114.6010418275068 L 437.7041041041041 114.56981745015497 L 438.4264864864865 114.53887755697272 L 439.1488688688688 114.50821983318255 L 439.87125125125124 114.4778419801232 L 440.59363363363366 114.44774171516718 L 441.31601601601596 114.41791677163849 L 442.0383983983984 114.3883648987304 L 442.7607807807808 114.35908386142316 L 443.4831631631631 114.33007144040192 L 444.20554554554553 114.30132543197465 L 444.92792792792795 114.27284364798999 L 445.65031031031026 114.24462391575543 L 446.3726926926927 114.21666407795547 L 447.0950750750751 114.18896199256966 L 447.8174574574574 114.16151553279113 L 448.53983983983983 114.13432258694488 L 449.26222222222225 114.10738105840628 L 449.98460460460456 114.08068886551982 L 450.706986986987 114.05424394151777 L 451.4293693693694 114.028044234439 L 452.1517517517517 114.00208770704808 L 452.8741341341341 113.97637233675437 L 453.59651651651643 113.95089611553115 L 454.31889889889885 113.92565704983525 L 455.0412812812813 113.90065316052642 L 455.7636636636636 113.87588248278695 L 456.486046046046 113.85134306604186 L 457.2084284284284 113.82703297387846 L 457.9308108108107 113.80295028396682 L 458.65319319319315 113.77909308798002 L 459.37557557557557 113.75545949151461 L 460.0979579579579 113.73204761401132 L 460.8203403403403 113.70885558867599 L 461.5427227227227 113.68588156240045 L 462.265105105105 113.66312369568388 L 462.98748748748744 113.64058016255424 L 463.70986986986986 113.61824915048979 L 464.43225225225217 113.59612886034088 L 465.1546346346346 113.57421750625221 L 465.877017017017 113.55251331558466 L 466.5993993993993 113.53101452883803 L 467.32178178178174 113.50971939957358 L 468.04416416416416 113.48862619433675 L 468.76654654654646 113.46773319258043 L 469.4889289289289 113.44703868658812 L 470.2113113113113 113.42654098139744 L 470.9336936936936 113.40623839472397 L 471.65607607607603 113.38612925688511 L 472.37845845845845 113.3662119107243 L 473.10084084084076 113.34648471153545 L 473.8232232232232 113.32694602698763 L 474.5456056056056 113.30759423704993 L 475.2679879879879 113.2884277339167 L 475.99037037037033 113.2694449219328 L 476.71275275275275 113.25064421751941 L 477.43513513513506 113.23202404909975 L 478.1575175175175 113.21358285702533 L 478.8798998998999 113.19531909350226 L 479.6022822822822 113.17723122251803 L 480.3246646646646 113.15931771976818 L 481.04704704704704 113.14157707258369 L 481.76942942942935 113.12400777985835 L 482.4918118118118 113.10660835197629 L 483.2141941941942 113.08937731074016 L 483.9365765765765 113.07231318929914 L 484.6589589589589 113.05541453207755 L 485.38134134134134 113.03867989470359 L 486.10372372372365 113.02210784393827 L 486.82610610610607 113.00569695760484 L 487.5484884884885 112.98944582451824 L 488.2708708708708 112.97335304441503 L 488.9932532532532 112.95741722788347 L 489.71563563563564 112.94163699629394 L 490.43801801801794 112.92601098172958 L 491.16040040040036 112.91053782691728 L 491.8827827827828 112.89521618515892 L 492.6051651651651 112.8800447202629 L 493.3275475475475 112.86502210647592 L 494.04992992992993 112.85014702841508 L 494.77231231231224 112.83541818100028 L 495.49469469469466 112.82083426938686 L 496.2170770770771 112.8063940088986 L 496.9394594594594 112.79209612496078 L 497.6618418418418 112.77793935303407 L 498.3842242242242 112.76392243854798 L 499.10660660660653 112.75004413683513 L 499.82898898898895 112.7363032130657 L 500.5513713713714 112.72269844218204 L 501.2737537537537 112.70922860883363 L 501.9961361361361 112.6958925073125 L 502.7185185185185 112.68268894148869 L 503.44090090090083 112.66961672474613 L 504.16328328328325 112.65667467991886 L 504.88566566566567 112.6438616392274 L 505.608048048048 112.63117644421558 L 506.3304304304304 112.61861794568756 L 507.0528128128128 112.60618500364524 L 507.7751951951951 112.59387648722574 L 508.49757757757754 112.58169127463952 L 509.21995995995985 112.56962825310853 L 509.9423423423423 112.55768631880477 L 510.6647247247247 112.5458643767891 L 511.3871071071071 112.53416134095042 L 512.1094894894895 112.52257613394497 L 512.8318718718718 112.5111076871363 L 513.5542542542543 112.49975494053504 L 514.2766366366367 112.48851684273936 L 514.999019019019 112.47739235087556 L 515.7214014014014 112.46638043053909 L 516.4437837837838 112.45548005573548 L 517.1661661661661 112.44469020882215 L 517.8885485485486 112.43400988045022 L 518.610930930931 112.42343806950629 L 519.3333133133133 112.41297378305535 L 520.0556956956957 112.40261603628298 L 520.7780780780781 112.39236385243873 L 521.5004604604604 112.38221626277925 L 522.2228428428429 112.37217230651197 L 522.9452252252253 112.3622310307388 L 523.6676076076076 112.3523914904006 L 524.38998998999 112.3426527482215 L 525.1123723723724 112.33301387465372 L 525.8347547547547 112.3234739478226 L 526.5571371371371 112.31403205347209 L 527.2795195195196 112.30468728491024 L 528.0019019019019 112.29543874295538 L 528.7242842842843 112.28628553588217 L 529.4466666666667 112.2772267793683 L 530.169049049049 112.26826159644119 L 530.8914314314314 112.25938911742531 L 531.6138138138139 112.25060847988945 L 532.3361961961962 112.24191882859444 L 533.0585785785786 112.23331931544124 L 533.780960960961 112.22480909941925 L 534.5033433433433 112.21638734655474 L 535.2257257257257 112.20805322985998 L 535.9481081081082 112.19980592928212 L 536.6704904904905 112.19164463165285 L 537.3928728728729 112.1835685306381 L 538.1152552552553 112.175576826688 L 538.8376376376376 112.16766872698727 L 539.56002002002 112.15984344540578 L 540.2824024024025 112.15210020244939 L 541.0047847847848 112.14443822521125 L 541.7271671671672 112.13685674732307 L 542.4495495495496 112.129355008907 L 543.1719319319319 112.12193225652769 L 543.8943143143143 112.11458774314431 L 544.6166966966967 112.10732072806346 L 545.339079079079 112.10013047689176 L 546.0614614614615 112.09301626148917 L 546.7838438438439 112.08597735992234 L 547.5062262262262 112.07901305641823 L 548.2286086086086 112.0721226413182 L 548.9509909909909 112.06530541103217 L 549.6733733733734 112.05856066799313 L 550.3957557557558 112.051887720612 L 551.1181381381381 112.04528588323262 L 551.8405205205205 112.03875447608712 L 552.5629029029029 112.03229282525155 L 553.2852852852852 112.02590026260174 L 554.0076676676676 112.01957612576933 L 554.7300500500501 112.01331975809845 L 555.4524324324324 112.00713050860213 L 556.1748148148148 112.00100773191943 L 556.8971971971972 111.99495078827258 L 557.6195795795795 111.98895904342447 L 558.3419619619619 111.9830318686364 L 559.0643443443444 111.97716864062608 L 559.7867267267267 111.97136874152591 L 560.5091091091091 111.96563155884158 L 561.2314914914915 111.95995648541066 L 561.9538738738739 111.95434291936192 L 562.6762562562562 111.9487902640744 L 563.3986386386387 111.94329792813713 L 564.1210210210211 111.93786532530893 L 564.8434034034034 111.93249187447842 L 565.5657857857858 111.92717699962441 L 566.2881681681682 111.92192012977645 L 567.0105505505505 111.91672069897578 L 567.732932932933 111.91157814623622 L 568.4553153153154 111.90649191550565 L 569.1776976976977 111.90146145562767 L 569.9000800800801 111.89648622030322 L 570.6224624624625 111.89156566805283 L 571.3448448448448 111.88669926217895 L 572.0672272272272 111.8818864707284 L 572.7896096096097 111.87712676645538 L 573.511991991992 111.87241962678436 L 574.2343743743744 111.86776453377354 L 574.9567567567568 111.8631609740782 L 575.6791391391391 111.85860843891473 L 576.4015215215215 111.85410642402442 L 577.123903903904 111.84965442963792 L 577.8462862862863 111.84525196043967 L 578.5686686686687 111.84089852553251 L 579.2910510510511 111.83659363840289 L 580.0134334334334 111.83233681688594 L 580.7358158158158 111.82812758313094 L 581.4581981981983 111.82396546356685 L 582.1805805805806 111.81984998886844 L 582.902962962963 111.81578069392239 L 583.6253453453454 111.8117571177934 L 584.3477277277277 111.8077788036911 L 585.0701101101101 111.80384529893664 L 585.7924924924926 111.79995615492982 L 586.5148748748749 111.79611092711633 L 587.2372572572573 111.79230917495522 L 587.9596396396397 111.78855046188667 L 588.682022022022 111.78483435529986 L 589.4044044044044 111.78116042650109 L 590.1267867867867 111.77752825068222 L 590.8491691691692 111.77393740688922 L 591.5715515515516 111.77038747799094 L 592.2939339339339 111.76687805064816 L 593.0163163163163 111.76340871528285 L 593.7386986986987 111.75997906604755 L 594.461081081081 111.75658870079502 L 595.1834634634635 111.75323722104821 L 595.9058458458459 111.74992423197023 L 596.6282282282282 111.74664934233465 L 597.3506106106106 111.743412164496 L 598.072992992993 111.7402123143606 L 598.7953753753753 111.73704941135719 L 599.5177577577577 111.73392307840834 L 600.2401401401402 111.73083294190153 L 600.9625225225225 111.72777863166078 L 601.6849049049049 111.72475978091839 L 602.4072872872873 111.72177602628685 L 603.1296696696696 111.71882700773082 L 603.852052052052 111.71591236853968 L 604.5744344344345 111.71303175529977 L 605.2968168168168 111.7101848178674 L 606.0191991991992 111.70737120934152 L 606.7415815815816 111.70459058603691 L 607.4639639639639 111.70184260745751 L 608.1863463463463 111.6991269362698 L 608.9087287287288 111.6964432382766 L 609.6311111111111 111.69379118239081 L 610.3534934934935 111.69117044060948 L 611.0758758758759 111.68858068798826 L 611.7982582582582 111.68602160261551 L 612.5206406406406 111.68349286558714 L 613.243023023023 111.68099416098127 L 613.9654054054054 111.67852517583327 L 614.6877877877878 111.67608560011101 L 615.4101701701702 111.67367512669003 L 616.1325525525525 111.6712934513292 L 616.8549349349349 111.66894027264641 L 617.5773173173174 111.66661529209438 L 618.2996996996997 111.66431821393675 L 619.0220820820821 111.66204874522435 L 619.7444644644645 111.65980659577161 L 620.4668468468468 111.65759147813316 L 621.1892292292292 111.65540310758041 L 621.9116116116116 111.65324120207885 L 622.633993993994 111.65110548226474 L 623.3563763763764 111.64899567142265 L 624.0787587587588 111.64691149546289 L 624.8011411411411 111.64485268289897 L 625.5235235235235 111.64281896482547 L 626.2459059059059 111.64081007489602 L 626.9682882882884 111.63882574930133 L 627.6906706706708 111.63686572674752 L 628.4130530530531 111.63492974843456 L 629.1354354354355 111.63301755803474 L 629.8578178178178 111.63112890167167 L 630.5802002002002 111.62926352789898 L 631.3025825825827 111.62742118767952 L 632.024964964965 111.62560163436453 L 632.7473473473474 111.62380462367304 L 633.4697297297298 111.6220299136715 L 634.1921121121121 111.62027726475338 L 634.9144944944945 111.61854643961914 L 635.636876876877 111.6168372032561 L 636.3592592592593 111.61514932291877 L 637.0816416416417 111.61348256810905 L 637.8040240240241 111.61183671055667 L 638.5264064064064 111.61021152420003 L 639.2487887887888 111.60860678516664 L 639.9711711711712 111.60702227175437 L 640.6935535535536 111.6054577644122 L 641.415935935936 111.60391304572167 L 642.1383183183184 111.60238790037812 L 642.8607007007007 111.60088211517217 L 643.5830830830831 111.59939547897139 L 644.3054654654655 111.59792778270219 L 645.0278478478479 111.59647881933148 L 645.7502302302303 111.59504838384902 L 646.4726126126127 111.59363627324939 L 647.194994994995 111.59224228651453 L 647.9173773773774 111.59086622459606 L 648.6397597597598 111.58950789039801 L 649.3621421421421 111.58816708875949 L 650.0845245245246 111.58684362643766 L 650.806906906907 111.58553731209062 L 651.5292892892893 111.58424795626078 L 652.2516716716717 111.58297537135786 L 652.9740540540541 111.58171937164255 L 653.6964364364364 111.58047977320999 L 654.4188188188189 111.57925639397337 L 655.1412012012013 111.57804905364782 L 655.8635835835836 111.57685757373437 L 656.585965965966 111.57568177750392 L 657.3083483483484 111.57452148998149 L 658.0307307307307 111.57337653793056 L 658.7531131131132 111.57224674983743 L 659.4754954954956 111.57113195589585 L 660.1978778778779 111.57003198799165 L 660.9202602602603 111.56894667968768 L 661.6426426426427 111.56787586620851 L 662.365025025025 111.56681938442571 L 663.0874074074075 111.56577707284293 L 663.8097897897899 111.56474877158118 L 664.5321721721722 111.56373432236416 L 665.2545545545546 111.56273356850394 L 665.976936936937 111.56174635488662 L 666.6993193193193 111.56077252795782 L 667.4217017017017 111.55981193570884 L 668.1440840840842 111.55886442766251 L 668.8664664664665 111.55792985485937 L 669.5888488488489 111.55700806984376 L 670.3112312312313 111.55609892665026 L 671.0336136136136 111.55520228079007 L 671.755995995996 111.55431798923749 L 672.4783783783785 111.55344591041683 L 673.2007607607608 111.55258590418882 L 673.9231431431432 111.55173783183773 L 674.6455255255256 111.55090155605828 L 675.3679079079079 111.55007694094266 L 676.0902902902903 111.54926385196791 L 676.8126726726728 111.54846215598297 L 677.5350550550551 111.54767172119625 L 678.2574374374375 111.5468924171631 L 678.9798198198199 111.54612411477328 L 679.7022022022022 111.54536668623896 L 680.4245845845846 111.54462000508227 L 681.146966966967 111.54388394612323 L 681.8693493493494 111.54315838546799 L 682.5917317317318 111.54244320049665 L 683.3141141141142 111.5417382698516 L 684.0364964964965 111.54104347342593 L 684.7588788788789 111.54035869235159 L 685.4812612612612 111.53968380898809 L 686.2036436436437 111.53901870691107 L 686.9260260260261 111.53836327090087 L 687.6484084084084 111.53771738693143 L 688.3707907907908 111.53708094215906 L 689.0931731731732 111.53645382491166 L 689.8155555555555 111.53583592467737 L 690.537937937938 111.53522713209418 L 691.2603203203204 111.5346273389388 L 691.9827027027027 111.53403643811617 L 692.7050850850851 111.53345432364893 L 693.4274674674675 111.53288089066683 L 694.1498498498498 111.53231603539635 L 694.8722322322322 111.53175965515044 L 695.5946146146147 111.53121164831828 L 696.316996996997 111.53067191435505 L 697.0393793793794 111.53014035377214 L 697.7617617617618 111.52961686812677 L 698.4841441441441 111.52910136001248 L 699.2065265265265 111.52859373304923 L 699.928908908909 111.5280938918736 L 700.6512912912913 111.5276017421292 L 701.3736736736737 111.52711719045712 L 702.0960560560561 111.52664014448649 L 702.8184384384384 111.5261705128251 L 703.5408208208208 111.52570820505008 L 704.2632032032033 111.5252531316986 L 704.9855855855856 111.52480520425883 L 705.707967967968 111.52436433516081 L 706.4303503503504 111.52393043776746 L 707.1527327327327 111.52350342636566 L 707.8751151151151 111.52308321615746 L 708.5974974974976 111.52266972325125 L 709.3198798798799 111.52226286465316 L 710.0422622622623 111.52186255825833 L 710.7646446446447 111.52146872284243 L 711.487027027027 111.52108127805329 L 712.2094094094094 111.5207001444023 L 712.9317917917919 111.52032524325631 L 713.6541741741742 111.51995649682922 L 714.3765565565566 111.51959382817395 L 715.098938938939 111.51923716117415 L 715.8213213213213 111.51888642053632 L 716.5437037037037 111.5185415317818 L 717.2660860860861 111.51820242123893 L 717.9884684684685 111.51786901603506 L 718.7108508508509 111.51754124408905 L 719.4332332332333 111.51721903410328 L 720.1556156156156 111.51690231555625 L 720.877997997998 111.51659101869498 L 721.6003803803804 111.51628507452747 L 722.3227627627627 111.51598441481534 L 723.0451451451452 111.51568897206639 L 723.7675275275276 111.51539867952738 L 724.4899099099099 111.51511347117676 L 725.2122922922923 111.51483328171753 L 725.9346746746747 111.51455804657016 L 726.657057057057 111.51428770186544 L 727.3794394394395 111.51402218443769 L 728.1018218218219 111.51376143181764 L 728.8242042042042 111.51350538222573 L 729.5465865865866 111.5132539745652 L 730.268968968969 111.51300714841551 L 730.9913513513513 111.51276484402547 L 731.7137337337338 111.51252700230677 L 732.4361161161162 111.51229356482739 L 733.1584984984985 111.51206447380505 L 733.8808808808809 111.51183967210093 L 734.6032632632633 111.51161910321306 L 735.3256456456456 111.51140271127014 L 736.048028028028 111.51119044102526 L 736.7704104104105 111.51098223784965 L 737.4927927927928 111.51077804772657 L 738.2151751751752 111.5105778172452 L 738.9375575575576 111.51038149359451 L 739.6599399399399 111.5101890245574 L 740.3823223223224 111.5100003585047 L 741.1047047047048 111.5098154443892 L 741.8270870870871 111.50963423174002 L 742.5494694694695 111.50945667065665 L 743.2718518518518 111.50928271180325 L 743.9942342342342 111.50911230640313 L 744.7166166166166 111.50894540623293 L 745.438998998999 111.50878196361714 L 746.1613813813814 111.50862193142254 L 746.8837637637638 111.50846526305281 L 747.6061461461461 111.50831191244302 L 748.3285285285285 111.5081618340543 L 749.0509109109109 111.5080149828685 L 749.7732932932932 111.50787131438295 L 750.4956756756757 111.50773078460517 L 751.2180580580581 111.50759335004773 L 751.9404404404404 111.50745896772315 L 752.6628228228228 111.50732759513875 L 753.3852052052052 111.5071991902916 L 754.1075875875875 111.50707371166365 L 754.82996996997 111.50695111821668 L 755.5523523523524 111.50683136938738 L 756.2747347347347 111.50671442508258 L 756.9971171171171 111.50660024567435 L 757.7194994994995 111.50648879199531 L 758.4418818818818 111.5063800253339 L 759.1642642642643 111.50627390742963 L 759.8866466466467 111.5061704004685 L 760.609029029029 111.50606946707839 L 761.3314114114114 111.50597107032456 L 762.0537937937938 111.50587517370508 L 762.7761761761761 111.50578174114628 L 763.4985585585586 111.50569073699859 L 764.220940940941 111.50560212603187 L 764.9433233233233 111.50551587343128 L 765.6657057057057 111.5054319447928 L 766.3880880880881 111.50535030611911 L 767.1104704704704 111.50527092381526 L 767.8328528528529 111.50519376468458 L 768.5552352352353 111.50511879592452 L 769.2776176176176 111.50504598512245 L 770 111.50497530025169" stroke-opacity="0.9" stroke-miterlimit="10" stroke-width="2" stroke-dasharray="6"/></g></g><g><g/><g><path fill="#ffffff" stroke="#e5e5e5" paint-order="fill stroke markers" d=" M 671 183.64 L 760 183.64 L 760 246.64 L 671 246.64 L 671 183.64 Z" fill-opacity="0.95" stroke-miterlimit="10" stroke-opacity="0.5"/><text fill="#444444" stroke="none" font-family="helvetica" font-size="10pt" font-style="normal" font-weight="normal" text-decoration="normal" x="706" y="203.64" text-anchor="start" dominant-baseline="central">Model</text><g><path fill="none" stroke="rgb(225,109,0)" paint-order="fill stroke markers" d=" M 681 203.64 L 701 203.64" stroke-opacity="0.9" stroke-miterlimit="10" stroke-width="2"/></g><text fill="#444444" stroke="none" font-family="helvetica" font-size="10pt" font-style="normal" font-weight="normal" text-decoration="normal" x="706" y="226.64" text-anchor="start" dominant-baseline="central">Original</text><g><path fill="none" stroke="rgb(102,180,211)" paint-order="fill stroke markers" d=" M 681 226.64 L 701 226.64" stroke-opacity="0.9" stroke-miterlimit="10" stroke-width="2" stroke-dasharray="6"/></g></g></g><g><g fill="#444444"><path fill="none" stroke="black" paint-order="fill stroke markers" d=" M 48 257 L 770 257" stroke-miterlimit="10"/><path fill="none" stroke="black" paint-order="fill stroke markers" d=" M 48 263 L 48 255" stroke-miterlimit="10"/><path fill="none" stroke="black" paint-order="fill stroke markers" d=" M 193 263 L 193 255" stroke-miterlimit="10"/><path fill="none" stroke="black" paint-order="fill stroke markers" d=" M 337 263 L 337 255" stroke-miterlimit="10"/><path fill="none" stroke="black" paint-order="fill stroke markers" d=" M 481 263 L 481 255" stroke-miterlimit="10"/><path fill="none" stroke="black" paint-order="fill stroke markers" d=" M 626 263 L 626 255" stroke-miterlimit="10"/><path fill="none" stroke="black" paint-order="fill stroke markers" d=" M 770 263 L 770 255" stroke-miterlimit="10"/><path fill="none" stroke="black" paint-order="fill stroke markers" d=" M 48 261 L 48 257" stroke-miterlimit="10"/><path fill="none" stroke="black" paint-order="fill stroke markers" d=" M 77 261 L 77 257" stroke-miterlimit="10"/><path fill="none" stroke="black" paint-order="fill stroke markers" d=" M 106 261 L 106 257" stroke-miterlimit="10"/><path fill="none" stroke="black" paint-order="fill stroke markers" d=" M 135 261 L 135 257" stroke-miterlimit="10"/><path fill="none" stroke="black" paint-order="fill stroke markers" d=" M 164 261 L 164 257" stroke-miterlimit="10"/><path fill="none" stroke="black" paint-order="fill stroke markers" d=" M 193 261 L 193 257" stroke-miterlimit="10"/><path fill="none" stroke="black" paint-order="fill stroke markers" d=" M 222 261 L 222 257" stroke-miterlimit="10"/><path fill="none" stroke="black" paint-order="fill stroke markers" d=" M 250 261 L 250 257" stroke-miterlimit="10"/><path fill="none" stroke="black" paint-order="fill stroke markers" d=" M 279 261 L 279 257" stroke-miterlimit="10"/><path fill="none" stroke="black" paint-order="fill stroke markers" d=" M 308 261 L 308 257" stroke-miterlimit="10"/><path fill="none" stroke="black" paint-order="fill stroke markers" d=" M 337 261 L 337 257" stroke-miterlimit="10"/><path fill="none" stroke="black" paint-order="fill stroke markers" d=" M 366 261 L 366 257" stroke-miterlimit="10"/><path fill="none" stroke="black" paint-order="fill stroke markers" d=" M 395 261 L 395 257" stroke-miterlimit="10"/><path fill="none" stroke="black" paint-order="fill stroke markers" d=" M 424 261 L 424 257" stroke-miterlimit="10"/><path fill="none" stroke="black" paint-order="fill stroke markers" d=" M 452 261 L 452 257" stroke-miterlimit="10"/><path fill="none" stroke="black" paint-order="fill stroke markers" d=" M 481 261 L 481 257" stroke-miterlimit="10"/><path fill="none" stroke="black" paint-order="fill stroke markers" d=" M 510 261 L 510 257" stroke-miterlimit="10"/><path fill="none" stroke="black" paint-order="fill stroke markers" d=" M 539 261 L 539 257" stroke-miterlimit="10"/><path fill="none" stroke="black" paint-order="fill stroke markers" d=" M 568 261 L 568 257" stroke-miterlimit="10"/><path fill="none" stroke="black" paint-order="fill stroke markers" d=" M 597 261 L 597 257" stroke-miterlimit="10"/><path fill="none" stroke="black" paint-order="fill stroke markers" d=" M 626 261 L 626 257" stroke-miterlimit="10"/><path fill="none" stroke="black" paint-order="fill stroke markers" d=" M 655 261 L 655 257" stroke-miterlimit="10"/><path fill="none" stroke="black" paint-order="fill stroke markers" d=" M 683 261 L 683 257" stroke-miterlimit="10"/><path fill="none" stroke="black" paint-order="fill stroke markers" d=" M 712 261 L 712 257" stroke-miterlimit="10"/><path fill="none" stroke="black" paint-order="fill stroke markers" d=" M 741 261 L 741 257" stroke-miterlimit="10"/><path fill="" stroke="black" paint-order="fill stroke markers" d=" M 770 261 L 770 257" stroke-miterlimit="10"/><g transform="translate(48,268) rotate(0,0,0)"><text fill="" stroke="none" font-family="helvetica" font-size="8pt" font-style="normal" font-weight="normal" text-decoration="normal" x="0" y="0" text-anchor="middle" dominant-baseline="hanging">0</text><g transform="rotate(0,0,0) translate(-48,-268) translate(193,268) rotate(0,0,0)"><text fill="" stroke="none" font-family="helvetica" font-size="8pt" font-style="normal" font-weight="normal" text-decoration="normal" x="0" y="0" text-anchor="middle" dominant-baseline="hanging">2</text><g transform="rotate(0,0,0) translate(-193,-268) translate(337,268) rotate(0,0,0)"><text fill="" stroke="none" font-family="helvetica" font-size="8pt" font-style="normal" font-weight="normal" text-decoration="normal" x="0" y="0" text-anchor="middle" dominant-baseline="hanging">4</text><g transform="rotate(0,0,0) translate(-337,-268) translate(481,268) rotate(0,0,0)"><text fill="" stroke="none" font-family="helvetica" font-size="8pt" font-style="normal" font-weight="normal" text-decoration="normal" x="0" y="0" text-anchor="middle" dominant-baseline="hanging">6</text><g transform="rotate(0,0,0) translate(-481,-268) translate(626,268) rotate(0,0,0)"><text fill="" stroke="none" font-family="helvetica" font-size="8pt" font-style="normal" font-weight="normal" text-decoration="normal" x="0" y="0" text-anchor="middle" dominant-baseline="hanging">8</text><g transform="rotate(0,0,0) translate(-626,-268) translate(770,268) rotate(0,0,0)"><text fill="" stroke="none" font-family="helvetica" font-size="8pt" font-style="normal" font-weight="normal" text-decoration="normal" x="0" y="0" text-anchor="middle" dominant-baseline="hanging">10</text><g transform="rotate(0,0,0) translate(-770,-268) translate(409,284) rotate(0,0,0)"><text fill="" stroke="none" font-family="helvetica" font-size="10pt" font-style="italic" font-weight="normal" text-decoration="normal" x="0" y="0" text-anchor="middle" dominant-baseline="hanging">Time [min]</text><g transform="rotate(0,0,0) translate(-409,-284)"/></g></g></g></g></g></g></g></g><g fill="#444444"><path fill="none" stroke="black" paint-order="fill stroke markers" d=" M 48 257 L 48 5" stroke-miterlimit="10"/><path fill="none" stroke="black" paint-order="fill stroke markers" d=" M 42 245 L 50 245" stroke-miterlimit="10"/><path fill="none" stroke="black" paint-order="fill stroke markers" d=" M 42 185 L 50 185" stroke-miterlimit="10"/><path fill="none" stroke="black" paint-order="fill stroke markers" d=" M 42 125 L 50 125" stroke-miterlimit="10"/><path fill="none" stroke="black" paint-order="fill stroke markers" d=" M 42 65 L 50 65" stroke-miterlimit="10"/><path fill="none" stroke="black" paint-order="fill stroke markers" d=" M 42 5 L 50 5" stroke-miterlimit="10"/><path fill="none" stroke="black" paint-order="fill stroke markers" d=" M 44 257 L 48 257" stroke-miterlimit="10"/><path fill="none" stroke="black" paint-order="fill stroke markers" d=" M 44 245 L 48 245" stroke-miterlimit="10"/><path fill="none" stroke="black" paint-order="fill stroke markers" d=" M 44 233 L 48 233" stroke-miterlimit="10"/><path fill="none" stroke="black" paint-order="fill stroke markers" d=" M 44 221 L 48 221" stroke-miterlimit="10"/><path fill="none" stroke="black" paint-order="fill stroke markers" d=" M 44 209 L 48 209" stroke-miterlimit="10"/><path fill="none" stroke="black" paint-order="fill stroke markers" d=" M 44 197 L 48 197" stroke-miterlimit="10"/><path fill="none" stroke="black" paint-order="fill stroke markers" d=" M 44 185 L 48 185" stroke-miterlimit="10"/><path fill="none" stroke="black" paint-order="fill stroke markers" d=" M 44 173 L 48 173" stroke-miterlimit="10"/><path fill="none" stroke="black" paint-order="fill stroke markers" d=" M 44 161 L 48 161" stroke-miterlimit="10"/><path fill="none" stroke="black" paint-order="fill stroke markers" d=" M 44 149 L 48 149" stroke-miterlimit="10"/><path fill="none" stroke="black" paint-order="fill stroke markers" d=" M 44 137 L 48 137" stroke-miterlimit="10"/><path fill="none" stroke="black" paint-order="fill stroke markers" d=" M 44 125 L 48 125" stroke-miterlimit="10"/><path fill="none" stroke="black" paint-order="fill stroke markers" d=" M 44 113 L 48 113" stroke-miterlimit="10"/><path fill="none" stroke="black" paint-order="fill stroke markers" d=" M 44 101 L 48 101" stroke-miterlimit="10"/><path fill="none" stroke="black" paint-order="fill stroke markers" d=" M 44 89 L 48 89" stroke-miterlimit="10"/><path fill="none" stroke="black" paint-order="fill stroke markers" d=" M 44 77 L 48 77" stroke-miterlimit="10"/><path fill="none" stroke="black" paint-order="fill stroke markers" d=" M 44 65 L 48 65" stroke-miterlimit="10"/><path fill="none" stroke="black" paint-order="fill stroke markers" d=" M 44 53 L 48 53" stroke-miterlimit="10"/><path fill="none" stroke="black" paint-order="fill stroke markers" d=" M 44 41 L 48 41" stroke-miterlimit="10"/><path fill="none" stroke="black" paint-order="fill stroke markers" d=" M 44 29 L 48 29" stroke-miterlimit="10"/><path fill="none" stroke="black" paint-order="fill stroke markers" d=" M 44 17 L 48 17" stroke-miterlimit="10"/><path fill="" stroke="black" paint-order="fill stroke markers" d=" M 44 5 L 48 5" stroke-miterlimit="10"/><g transform="translate(37,245) rotate(0,0,0)"><text fill="" stroke="none" font-family="helvetica" font-size="8pt" font-style="normal" font-weight="normal" text-decoration="normal" x="0" y="0" text-anchor="end" dominant-baseline="central">0</text><g transform="rotate(0,0,0) translate(-37,-245) translate(37,185) rotate(0,0,0)"><text fill="" stroke="none" font-family="helvetica" font-size="8pt" font-style="normal" font-weight="normal" text-decoration="normal" x="0" y="0" text-anchor="end" dominant-baseline="central">0.5</text><g transform="rotate(0,0,0) translate(-37,-185) translate(37,125) rotate(0,0,0)"><text fill="" stroke="none" font-family="helvetica" font-size="8pt" font-style="normal" font-weight="normal" text-decoration="normal" x="0" y="0" text-anchor="end" dominant-baseline="central">1</text><g transform="rotate(0,0,0) translate(-37,-125) translate(37,65) rotate(0,0,0)"><text fill="" stroke="none" font-family="helvetica" font-size="8pt" font-style="normal" font-weight="normal" text-decoration="normal" x="0" y="0" text-anchor="end" dominant-baseline="central">1.5</text><g transform="rotate(0,0,0) translate(-37,-65) translate(37,5) rotate(0,0,0)"><text fill="" stroke="none" font-family="helvetica" font-size="8pt" font-style="normal" font-weight="normal" text-decoration="normal" x="0" y="0" text-anchor="end" dominant-baseline="central">2</text><g transform="rotate(0,0,0) translate(-37,-5) translate(16,131) rotate(-90,0,0)"><text fill="" stroke="none" font-family="helvetica" font-size="10pt" font-style="italic" font-weight="normal" text-decoration="normal" x="0" y="0" text-anchor="middle" dominant-baseline="alphabetic">Output</text><g transform="rotate(90,0,0) translate(-16,-131)"/></g></g></g></g></g></g></g></g></g></g></svg>