<svg version="1.1" xmlns="http://www.w3.org/2000/svg" xmlns:xlink="http://www.w3.org/1999/xlink" width="800" height="300" style="width: 800px; height: 300px;"><defs/><g><g/><g transform="scale(1,1) translate(0.5,0.5)"><rect fill="#FFFFFF" stroke="none" x="0" y="0" width="800" height="300"/><rect fill="#ffffff" stroke="none" x="0" y="0" width="800" height="300"/><rect fill="#FFFFFF" stroke="none" x="78.65812500000001" y="4" width="711.341875" height="246.2625"/><rect fill="#ffffff" stroke="none" x="78.65812500000001" y="4" width="711.341875" height="246.2625"/><g/><g><g><path fill="none" stroke="#e5e5e5" paint-order="fill stroke markers" d=" M 111 250 L 111 4" stroke-miterlimit="10"/><path fill="none" stroke="#e5e5e5" paint-order="fill stroke markers" d=" M 240 250 L 240 4" stroke-miterlimit="10"/><path fill="none" stroke="#e5e5e5" paint-order="fill stroke markers" d=" M 370 250 L 370 4" stroke-miterlimit="10"/><path fill="none" stroke="#e5e5e5" paint-order="fill stroke markers" d=" M 499 250 L 499 4" stroke-miterlimit="10"/><path fill="none" stroke="#e5e5e5" paint-order="fill stroke markers" d=" M 628 250 L 628 4" stroke-miterlimit="10"/><path fill="none" stroke="#e5e5e5" paint-order="fill stroke markers" d=" M 758 250 L 758 4" stroke-miterlimit="10"/></g><g><path fill="none" stroke="#e5e5e5" paint-order="fill stroke markers" d=" M 79 239 L 790 239" stroke-miterlimit="10"/><path fill="none" stroke="#e5e5e5" paint-order="fill stroke markers" d=" M 79 194 L 790 194" stroke-miterlimit="10"/><path fill="none" stroke="#e5e5e5" paint-order="fill stroke markers" d=" M 79 150 L 790 150" stroke-miterlimit="10"/><path fill="none" stroke="#e5e5e5" paint-order="fill stroke markers" d=" M 79 105 L 790 105" stroke-miterlimit="10"/><path fill="none" stroke="#e5e5e5" paint-order="fill stroke markers" d=" M 79 61 L 790 61" stroke-miterlimit="10"/><path fill="none" stroke="#e5e5e5" paint-order="fill stroke markers" d=" M 79 16 L 790 16" stroke-miterlimit="10"/></g><g><path fill="none" stroke="none"/><path fill="none" stroke="rgb(225,109,0)" paint-order="fill stroke markers" d=" M 110.99184659090912 15.193750000000023 L 111.63916834448088 15.1937500000451 L 112.28649009805261 15.193750000092336 L 112.93381185162438 15.19375000014179 L 113.58113360519616 15.193750000193575 L 114.22845535876787 15.193750000247803 L 114.87577711233965 15.19375000030459 L 115.52309886591141 15.193750000364048 L 116.17042061948314 15.193750000426348 L 116.81774237305491 15.193750000491548 L 117.46506412662663 15.193750000559817 L 118.1123858801984 15.193750000631326 L 118.75970763377018 15.193750000706245 L 119.40702938734191 15.193750000784632 L 120.05435114091367 15.193750000866714 L 120.70167289448544 15.193750000952718 L 121.34899464805716 15.193750001042758 L 121.99631640162895 15.193750001137062 L 122.64363815520065 15.193750001235856 L 123.29095990877244 15.193750001339254 L 123.9382816623442 15.193750001447484 L 124.58560341591593 15.19375000156083 L 125.23292516948769 15.193750001679632 L 125.88024692305946 15.193750001803949 L 126.52756867663119 15.19375000193412 L 127.17489043020296 15.193750002070487 L 127.82221218377472 15.193750002213278 L 128.46953393734645 15.193750002362776 L 129.11685569091821 15.193750002519323 L 129.76417744448995 15.193750002683316 L 130.41149919806173 15.193750002854983 L 131.0588209516335 15.19375000303478 L 131.70614270520522 15.193750003223045 L 132.35346445877698 15.193750003420178 L 133.00078621234874 15.193750003626633 L 133.64810796592047 15.193750003842865 L 134.29542971949223 15.193750004069216 L 134.94275147306396 15.19375000430631 L 135.59007322663575 15.193750004554545 L 136.2373949802075 15.193750004814547 L 136.88471673377924 15.19375000508677 L 137.532038487351 15.19375000537184 L 138.1793602409228 15.193750005670381 L 138.8266819944945 15.193750005982963 L 139.47400374806625 15.193750006310324 L 140.121325501638 15.19375000665309 L 140.76864725520977 15.193750007012056 L 141.41596900878153 15.193750007387962 L 142.06329076235326 15.193750007781603 L 142.71061251592502 15.193750008193831 L 143.3579342694968 15.1937500086255 L 144.0052560230685 15.193750009077519 L 144.65257777664027 15.193750009550854 L 145.2998995302121 15.193750010046529 L 145.9472212837838 15.193750010565566 L 146.59454303735555 15.193750011109103 L 147.24186479092728 15.193750011678333 L 147.88918654449907 15.193750012274336 L 148.53650829807083 15.193750012898533 L 149.18383005164253 15.193750013552176 L 149.83115180521432 15.19375001423657 L 150.4784735587861 15.19375001495331 L 151.1257953123578 15.19375001570387 L 151.77311706592957 15.193750016489844 L 152.4204388195013 15.19375001731288 L 153.0677605730731 15.19375001817474 L 153.71508232664485 15.193750019077243 L 154.36240408021655 15.193750020022378 L 155.00972583378837 15.193750021012022 L 155.65704758736013 15.193750022048391 L 156.30436934093183 15.193750023133703 L 156.95169109450362 15.193750024270116 L 157.59901284807538 15.193750025460247 L 158.2463346016471 15.193750026706482 L 158.89365635521887 15.193750028011493 L 159.5409781087906 15.193750029378123 L 160.18829986236238 15.193750030809156 L 160.83562161593414 15.193750032307719 L 161.48294336950585 15.193750033876995 L 162.13026512307763 15.193750035520281 L 162.7775868766494 15.19375003724116 L 163.42490863022113 15.193750039043152 L 164.07223038379288 15.193750040930183 L 164.71955213736464 15.193750042906231 L 165.3668738909364 15.193750044975559 L 166.01419564450816 15.19375004714243 L 166.6615173980799 15.193750049411562 L 167.30883915165165 15.193750051787731 L 167.95616090522344 15.193750054275995 L 168.60348265879514 15.19375005688164 L 169.2508044123669 15.193750059610238 L 169.89812616593866 15.193750062467586 L 170.54544791951042 15.19375006545971 L 171.19276967308218 15.193750068592976 L 171.8400914266539 15.193750071874035 L 172.48741318022567 15.193750075309936 L 173.13473493379746 15.193750078907954 L 173.78205668736916 15.193750082675649 L 174.42937844094092 15.19375008662115 L 175.0767001945127 15.193750090752758 L 175.7240219480845 15.193750095079281 L 176.3713437016562 15.193750099609929 L 177.01866545522796 15.193750104354251 L 177.66598720879978 15.19375010932248 L 178.31330896237148 15.193750114525074 L 178.96063071594324 15.193750119973117 L 179.60795246951503 15.19375012567815 L 180.25527422308673 15.193750131652337 L 180.90259597665852 15.19375013790841 L 181.54991773023022 15.1937501444595 L 182.19723948380198 15.193750151319762 L 182.8445612373738 15.193750158503633 L 183.4918829909455 15.193750166026462 L 184.13920474451726 15.193750173904164 L 184.78652649808905 15.193750182153508 L 185.43384825166075 15.193750190792002 L 186.08117000523254 15.193750199838064 L 186.7284917588043 15.193750209310906 L 187.37581351237606 15.193750219230651 L 188.02313526594781 15.193750229618331 L 188.67045701951952 15.193750240496058 L 189.3177787730913 15.193750251887025 L 189.96510052666306 15.193750263815332 L 190.6124222802348 15.193750276306446 L 191.25974403380656 15.193750289386742 L 191.90706578737831 15.193750303084244 L 192.55438754095007 15.193750317427885 L 193.20170929452183 15.19375033244819 L 193.84903104809354 15.193750348177105 L 194.49635280166532 15.19375036464811 L 195.1436745552371 15.193750381896166 L 195.79099630880881 15.193750399957878 L 196.43831806238057 15.19375041887173 L 197.08563981595236 15.193750438677853 L 197.7329615695241 15.193750459418368 L 198.38028332309585 15.193750481137386 L 199.02760507666758 15.193750503881006 L 199.67492683023934 15.193750527697603 L 200.32224858381113 15.193750552637766 L 200.96957033738283 15.193750578754589 L 201.6168920909546 15.193750606103436 L 202.26421384452638 15.193750634742628 L 202.9115355980981 15.193750664732818 L 203.55885735166987 15.193750696137954 L 204.20617910524163 15.1937507290246 L 204.8535008588134 15.193750763462731 L 205.50082261238515 15.193750799525617 L 206.14814436595685 15.19375083728977 L 206.79546611952864 15.193750876835566 L 207.4427878731004 15.193750918246963 L 208.09010962667213 15.193750961611954 L 208.7374313802439 15.193751007022854 L 209.38475313381568 15.193751054576126 L 210.03207488738738 15.19375110437278 L 210.67939664095917 15.193751156518658 L 211.3267183945309 15.193751211124606 L 211.97404014810266 15.193751268306698 L 212.6213619016744 15.193751328186465 L 213.26868365524618 15.193751390891123 L 213.9160054088179 15.193751456554082 L 214.56332716238967 15.193751525314724 L 215.21064891596146 15.193751597319306 L 215.85797066953322 15.19375167272085 L 216.50529242310495 15.193751751679542 L 217.1526141766767 15.193751834363354 L 217.79993593024847 15.193751920947875 L 218.44725768382023 15.193752011617164 L 219.09457943739196 15.19375210656392 L 219.74190119096372 15.193752205989995 L 220.38922294453548 15.193752310106674 L 221.03654469810724 15.193752419135194 L 221.68386645167897 15.19375253330736 L 222.33118820525073 15.19375265286584 L 222.97850995882249 15.193752778064663 L 223.62583171239424 15.193752909169973 L 224.27315346596598 15.193753046460415 L 224.92047521953776 15.193753190227767 L 225.5677969731095 15.193753340777619 L 226.21511872668125 15.193753498429942 L 226.86244048025299 15.193753663519715 L 227.50976223382477 15.193753836398002 L 228.15708398739653 15.19375401743207 L 228.80440574096826 15.193754207006748 L 229.45172749454 15.193754405524942 L 230.09904924811178 15.1937546134086 L 230.74637100168354 15.193754831099511 L 231.39369275525527 15.193755059060436 L 232.04101450882703 15.193755297775738 L 232.68833626239882 15.193755547752914 L 233.33565801597055 15.193755809523225 L 233.98297976954228 15.193756083642995 L 234.63030152311404 15.193756370694814 L 235.27762327668583 15.193756671288781 L 235.92494503025756 15.193756986063875 L 236.57226678382932 15.193757315689027 L 237.21958853740108 15.193757660864776 L 237.86691029097284 15.1937580223248 L 238.51423204454457 15.19375840083734 L 239.16155379811633 15.19375879720684 L 239.8088755516881 15.193759212275836 L 240.45619730525985 15.193759646926367 L 241.10351905883158 15.193760102082251 L 241.75084081240334 15.193760578710908 L 242.3981625659751 15.1937610778254 L 243.04548431954686 15.193761600486482 L 243.6928060731186 15.193762147804875 L 244.34012782669035 15.19376272094405 L 244.9874495802621 15.193763321122049 L 245.63477133383387 15.193763949614379 L 246.2820930874056 15.193764607756918 L 246.92941484097736 15.193765296948413 L 247.57673659454912 15.193766018653719 L 248.22405834812088 15.19376677440664 L 248.87138010169264 15.19376756581346 L 249.5187018552644 15.193768394556173 L 250.16602360883613 15.193769262396188 L 250.8133453624079 15.193770171178016 L 251.46066711597965 15.193771122833027 L 252.1079888695514 15.193772119383937 L 252.75531062312314 15.19377316294873 L 253.4026323766949 15.193774255745325 L 254.04995413026666 15.193775400096342 L 254.69727588383842 15.193776598433942 L 255.34459763741017 15.193777853304937 L 255.9919193909819 15.193779167376363 L 256.63924114455364 15.193780543441221 L 257.2865628981254 15.193781984423936 L 257.9338846516972 15.19378349338723 L 258.5812064052689 15.193785073538095 L 259.2285281588407 15.19378672823484 L 259.87584991241243 15.193788460994426 L 260.52317166598414 15.193790275499339 L 261.1704934195559 15.19379217560612 L 261.81781517312766 15.193794165353097 L 262.4651369266995 15.193796248969079 L 263.1124586802712 15.193798430882566 L 263.75978043384293 15.193800715730674 L 264.4071021874147 15.193803108369536 L 265.05442394098645 15.193805613884194 L 265.7017456945582 15.193808237599626 L 266.34906744813 15.19381098509217 L 266.99638920170173 15.193813862200955 L 267.6437109552735 15.193816875040795 L 268.29103270884525 15.193820030014763 L 268.93835446241695 15.19382333382822 L 269.58567621598877 15.193826793502637 L 270.2329979695605 15.193830416390824 L 270.8803197231323 15.193834210192449 L 271.527641476704 15.19383818297041 L 272.17496323027575 15.193842343167887 L 272.8222849838475 15.193846699626476 L 273.4696067374192 15.193851261604607 L 274.116928490991 15.193856038797833 L 274.7642502445628 15.19386104135873 L 275.4115719981345 15.193866279919064 L 276.05889375170625 15.193871765611846 L 276.706215505278 15.193877510095547 L 277.35353725884977 15.193883525578485 L 278.00085901242153 15.193889824844632 L 278.6481807659933 15.193896421281408 L 279.29550251956505 15.193903328907425 L 279.9428242731368 15.19391056240272 L 280.59014602670857 15.19391813713969 L 281.2374677802803 15.19392606921599 L 281.8847895338521 15.193934375488482 L 282.5321112874238 15.193943073609205 L 283.17943304099555 15.193952182062844 L 283.82675479456725 15.193961720205948 L 284.47407654813907 15.19397170830814 L 285.1213983017108 15.193982167595209 L 285.76872005528253 15.193993120293896 L 286.4160418088543 15.19400458967948 L 287.06336356242605 15.19401660012511 L 287.7106853159978 15.194029177153368 L 288.35800706956957 15.194042347490836 L 289.0053288231413 15.194056139124484 L 289.6526505767131 15.194070581361416 L 290.29997233028485 15.194085704890938 L 290.9472940838566 15.194101541849818 L 291.59461583742836 15.194118125890554 L 292.2419375910001 15.194135492252599 L 292.8892593445718 15.194153677837619 L 293.53658109814364 15.19417272128743 L 294.1839028517154 15.194192663066303 L 294.8312246052871 15.194213545546745 L 295.47854635885886 15.194235413099705 L 296.12586811243057 15.19425831218831 L 296.7731898660023 15.194282291466891 L 297.42051161957414 15.19430740188426 L 298.06783337314585 15.194333696791603 L 298.7151551267176 15.194361232055826 L 299.36247688028936 15.194390066178357 L 300.0097986338611 15.194420260418951 L 300.6571203874329 15.194451878925804 L 301.30444214100464 15.194484988871807 L 301.9517638945764 15.194519660596939 L 302.59908564814816 15.194555967757537 L 303.2464074017199 15.194593987482506 L 303.8937291552917 15.19463380053702 L 304.54105090886344 15.19467549149374 L 305.1883726624352 15.194719148912156 L 305.8356944160069 15.194764865526622 L 306.4830161695787 15.194812738442636 L 307.1303379231504 15.194862869342842 L 307.7776596767222 15.194915364702922 L 308.42498143029394 15.194970336016752 L 309.0723031838657 15.195027900032983 L 309.7196249374374 15.195088179002369 L 310.36694669100916 15.195151300937141 L 311.0142684445809 15.195217399881471 L 311.6615901981527 15.195286616196029 L 312.30891195172444 15.195359096854986 L 312.9562337052962 15.195434995757296 L 313.60355545886796 15.195514474052516 L 314.2508772124397 15.195597700481699 L 314.8981989660115 15.195684851734995 L 315.54552071958324 15.195776112824888 L 316.192842473155 15.19587167747801 L 316.84016422672676 15.195971748544707 L 317.48748598029846 15.19607653842803 L 318.1348077338702 15.196186269532518 L 318.782129487442 15.196301174734515 L 319.4294512410138 15.196421497874155 L 320.07677299458555 15.196547494270021 L 320.72409474815726 15.196679431258985 L 321.371416501729 15.196817588759927 L 322.0187382553007 15.196962259864563 L 322.6660600088725 15.197113751456016 L 323.3133817624443 15.197272384855808 L 323.960703516016 15.197438496501206 L 324.60802526958776 15.197612438654119 L 325.2553470231595 15.197794580143182 L 325.9026687767313 15.197985307140414 L 326.54999053030303 15.198185023973622 L 327.1973122838748 15.19839415397746 L 327.84463403744655 15.19861314038286 L 328.4919557910183 15.198842447248865 L 329.1392775445901 15.199082560437432 L 329.78659929816183 15.199333988632873 L 330.4339210517336 15.19959726440942 L 331.0812428053053 15.199872945347636 L 331.7285645588771 15.200161615202887 L 332.37588631244876 15.200463885127476 L 333.0232080660206 15.20078039494939 L 333.67052981959233 15.201111814510284 L 334.3178515731641 15.201458845064565 L 334.9651733267358 15.201822220743622 L 335.61249508030755 15.202202710086794 L 336.2598168338793 15.202601117642814 L 336.9071385874511 15.203018285645214 L 337.55446034102283 15.203455095763502 L 338.2017820945946 15.203912470935336 L 338.84910384816635 15.204391377282093 L 339.4964256017381 15.204892826111404 L 340.14374735530987 15.20541787601178 L 340.79106910888163 15.205967635041418 L 341.4383908624534 15.206543263016954 L 342.08571261602515 15.207145973905881 L 342.7330343695969 15.207777038326583 L 343.38035612316855 15.20843778616154 L 344.0276778767404 15.209129609288311 L 344.6749996303122 15.209853964432284 L 345.32232138388383 15.210612376148276 L 345.9696431374556 15.211406439934592 L 346.61696489102735 15.212237825485772 L 347.2642866445991 15.213108280090466 L 347.91160839817087 15.214019632179031 L 348.55893015174263 15.214973795028527 L 349.2062519053144 15.215972770630003 L 349.85357365888615 15.217018653725859 L 350.5008954124579 15.218113636023588 L 351.14821716602967 15.219260010592677 L 351.7955389196014 15.22046017645215 L 352.4428606731732 15.221716643356274 L 353.09018242674495 15.223032036785753 L 353.7375041803167 15.224409103152198 L 354.38482593388846 15.22585071522434 L 355.0321476874602 15.227359877783613 L 355.67946944103187 15.228939733517507 L 356.32679119460374 15.230593569160135 L 356.9741129481754 15.232324821887119 L 357.62143470174715 15.234137085975078 L 358.2687564553189 15.236034119734143 L 358.91607820889067 15.238019852722118 L 359.5633999624624 15.240098393250435 L 360.2107217160342 15.242274036189883 L 360.85804346960595 15.244551271086891 L 361.5053652231777 15.246934790597606 L 362.15268697674946 15.249429499251221 L 362.8000087303212 15.252040522549805 L 363.447330483893 15.254773216414321 L 364.09465223746474 15.257633176986303 L 364.7419739910365 15.260626250791859 L 365.38929574460826 15.263758545278847 L 366.03661749818 15.267036439732635 L 366.6839392517518 15.270466596579183 L 367.33126100532354 15.274055973081829 L 367.9785827588952 15.277811833438761 L 368.62590451246695 15.281741761284707 L 369.2732262660388 15.285853672604048 L 369.9205480196106 15.29015582905646 L 370.5678697731822 15.294656851719196 L 371.2151915267541 15.299365735246454 L 371.86251328032574 15.304291862445268 L 372.5098350338975 15.309445019267343 L 373.1571567874694 15.31483541021106 L 373.80447854104114 15.320473674130142 L 374.4518002946128 15.326370900439315 L 375.09912204818454 15.332538645707416 L 375.7464438017563 15.338988950625208 L 376.39376555532806 15.345734357330628 L 377.0410873088998 15.352787927073734 L 377.6884090624716 15.360163258197304 L 378.33573081604334 15.367874504407268 L 378.9830525696151 15.375936393301572 L 379.63037432318686 15.384364245123265 L 380.2776960767586 15.393173991696074 L 380.9250178303304 15.402382195498944 L 381.57233958390214 15.412006068827452 L 382.2196613374739 15.422063492985956 L 382.86698309104565 15.43257303744673 L 383.5143048446174 15.443553978907687 L 384.1616265981892 15.455026320169452 L 384.8089483517608 15.467010808750103 L 385.4562701053327 15.47952895514328 L 386.10359185890434 15.492603050620517 L 386.7509136124761 15.506256184468327 L 387.39823536604786 15.520512260543057 L 388.0455571196196 15.53539601301594 L 388.6928788731914 15.550933021173535 L 389.34020062676314 15.567149723126931 L 389.9875223803349 15.584073428276326 L 390.63484413390665 15.601732328365529 L 391.2821658874784 15.620155506953438 L 391.9294876410502 15.639372947119512 L 392.57680939462193 15.659415537211203 L 393.2241311481937 15.680315074433736 L 393.87145290176545 15.702104266073775 L 394.5187746553372 15.724816728142912 L 395.16609640890897 15.74848698121832 L 395.81341816248073 15.773150443256554 L 396.4607399160525 15.798843419148454 L 397.10806166962413 15.825603086786202 L 397.7553834231959 15.853467479407527 L 398.40270517676777 15.88247546398867 L 399.0500269303394 15.912666715459977 L 399.6973486839112 15.944081686521656 L 400.34467043748293 15.976761572852922 L 400.9919921910547 16.010748273512547 L 401.63931394462645 16.046084346349573 L 402.2866356981982 16.082812958259524 L 402.93395745176997 16.120977830143715 L 403.58127920534173 16.160623176456056 L 404.2286009589135 16.201793639250297 L 404.87592271248525 16.244534216676186 L 405.523244466057 16.28889018590877 L 406.17056621962877 16.334907020536946 L 406.8178879732005 16.382630302482937 L 407.4652097267722 16.432105628571662 L 408.11253148034405 16.483378511921103 L 408.7598532339158 16.536494278379507 L 409.40717498748745 16.59149795828978 L 410.0544967410592 16.648434173922965 L 410.70181849463097 16.70734702297824 L 411.34914024820273 16.76827995861015 L 411.9964620017745 16.83127566649904 L 412.64378375534625 16.89637593954251 L 413.291105508918 16.96362155079703 L 413.93842726248977 17.03305212535423 L 414.5857490160615 17.104706011881717 L 415.2330707696333 17.178620154601276 L 415.88039252320505 17.254829966514194 L 416.5277142767768 17.33336920470947 L 417.17503603034856 17.414269848614765 L 417.8223577839203 17.497561982056595 L 418.4696795374921 17.583273680002435 L 419.11700129106384 17.671430900845053 L 419.7643230446355 17.76205738507298 L 420.41164479820725 17.855174561138654 L 421.0589665517791 17.950801459296656 L 421.70628830535077 18.048954634132883 L 422.3536100589225 18.14964809644283 L 423.0009318124943 18.252893255048093 L 423.64825356606605 18.358698869059538 L 424.2955753196378 18.46707101100901 L 424.94289707320956 18.578013041177314 L 425.5902188267813 18.691525593349866 L 426.2375405803531 18.807606572126815 L 426.88486233392484 18.92625116181216 L 427.5321840874966 19.047451846802062 L 428.17950584106836 19.171198443289768 L 428.8268275946401 19.29747814200283 L 429.4741493482119 19.426275561594082 L 430.1214711017835 19.5575728122177 L 430.7687928553554 19.691349568736427 L 431.41611460892716 19.82758315293495 L 432.0634363624988 19.966248624043374 L 432.71075811607056 20.107318876824195 L 433.3580798696423 20.250764746425773 L 434.0054016232141 20.39655511917323 L 434.65272337678584 20.544657048442218 L 435.3000451303576 20.695035874747816 L 435.94736688392936 20.847655349177558 L 436.59468863750124 21.002477759304384 L 437.2420103910729 21.15946405673219 L 437.88933214464464 21.31857398544986 L 438.5366538982164 21.4797662102049 L 439.18397565178805 21.642998444144098 L 439.8312974053599 21.808227575016417 L 440.4786191589317 21.97540978928197 L 441.12594091250344 22.1445006935258 L 441.7732626660752 22.315455432630927 L 442.42058441964684 22.488228804224775 L 443.0679061732187 22.662775368971154 L 443.7152279267905 22.83904955634165 L 444.3625496803621 23.017005765556064 L 445.0098714339339 23.196598461442704 L 445.65719318750564 23.377782265020528 L 446.3045149410774 23.560512038661955 L 446.9518366946493 23.74474296574192 L 447.5991584482209 23.930430624727364 L 448.2464802017927 24.117531057702763 L 448.89380195536444 24.306000833368046 L 449.5411237089362 24.49579710457988 L 450.18844546250796 24.686877660538755 L 450.8357672160797 24.879200973752177 L 451.4830889696515 25.0727262419295 L 452.13041072322324 25.26741342498144 L 452.777732476795 25.463223277317866 L 453.42505423036675 25.660117375648042 L 454.0723759839385 25.8580581425 L 454.71969773751016 26.057008865681667 L 455.3670194910819 26.256933713914407 L 456.0143412446537 26.457797748868074 L 456.66166299822555 26.659566933832025 L 457.3089847517973 26.862208139251265 L 457.95630650536907 27.06568914535677 L 458.6036282589407 27.269978642112335 L 459.2509500125125 27.475046226697657 L 459.89827176608424 27.68086239873685 L 460.545593519656 27.887398553477908 L 461.19291527322775 28.09462697311824 L 461.8402370267995 28.302520816462334 L 462.4875587803713 28.511054107091752 L 463.13488053394303 28.720201720213367 L 463.7822022875148 28.929939368347107 L 464.42952404108655 29.140243586002157 L 465.0768457946583 29.35109171348165 L 465.72416754822996 29.562461879947477 L 466.37148930180183 29.774332985865783 L 467.0188110553736 29.98668468494799 L 467.66613280894535 30.19949736568958 L 468.3134545625171 30.41275213260377 L 468.96077631608875 30.626430787237666 L 469.6080980696605 30.840515809051226 L 470.2554198232323 31.054990336232038 L 470.90274157680403 31.269838146512427 L 471.5500633303758 31.485043638047728 L 472.19738508394755 31.70059181041006 L 472.8447068375193 31.916468245745705 L 473.49202859109107 32.13265909013694 L 474.13935034466283 32.349151035208024 L 474.7866720982346 32.5659313000059 L 475.43399385180635 32.78298761318615 L 476.0813156053781 33.00030819552711 L 476.72863735894987 33.21788174279396 L 477.3759591125216 33.43569740896993 L 478.0232808660934 33.653744789869336 L 478.67060261966515 33.87201390714313 L 479.3179243732368 34.09049519268768 L 479.96524612680855 34.30917947346143 L 480.6125678803803 34.52805795671611 L 481.25988963395207 34.74712221564329 L 481.90721138752394 34.96636417543897 L 482.5545331410957 35.185776099784164 L 483.20185489466735 35.40535057774122 L 483.8491766482391 35.6250805110613 L 484.49649840181087 35.84495910189963 L 485.1438201553826 36.06497984093397 L 485.7911419089544 36.285136495879215 L 486.43846366252615 36.50542310039248 L 487.0857854160979 36.725833943361295 L 487.73310716966967 36.946363558567555 L 488.3804289232414 37.167006714718354 L 489.0277506768132 37.387758405835996 L 489.67507243038494 37.60861384199842 L 490.3223941839566 37.829568440420985 L 490.96971593752835 38.05061781687061 L 491.6170376911002 38.27175777740291 L 492.264359444672 38.49298431041342 L 492.91168119824374 38.71429357899393 L 493.5590029518154 38.93568191358355 L 494.20632470538715 39.15714580490692 L 494.8536464589589 39.378681897188756 L 495.50096821253067 39.60028698163745 L 496.1482899661024 39.821957990187514 L 496.7956117196742 40.04369198949223 L 497.44293347324594 40.26548617515908 L 498.0902552268177 40.48733786621773 L 498.73757698038946 40.70924449981402 L 499.3848987339612 40.93120362612024 L 500.032220487533 41.15321290345537 L 500.6795422411046 41.37527009360622 L 501.3268639946765 41.59737305734308 L 501.97418574824826 41.819519750121515 L 502.62150750182 42.04170821796458 L 503.2688292553918 42.263936593516576 L 503.9161510089634 42.486203092264304 L 504.5634727625352 42.70850600891646 L 505.21079451610694 42.930843713937634 L 505.8581162696787 43.15321465022839 L 506.50543802325046 43.375617329947886 L 507.1527597768222 43.5980503314712 L 507.800081530394 43.82051229647743 L 508.44740328396574 44.043001927163004 L 509.0947250375375 44.26551798357431 L 509.74204679110926 44.48805928105568 L 510.389368544681 44.71062468780735 L 511.0366902982528 44.9332131225496 L 511.68401205182454 45.155823552287615 L 512.3313338053963 45.37845499017391 L 512.9786555589681 45.60110649346345 L 513.6259773125398 45.82377716155801 L 514.2732990661116 46.046466134136125 L 514.9206208196832 46.26917258936422 L 515.567942573255 46.49189574218687 L 516.2152643268267 46.71463484269114 L 516.8625860803985 46.9373891745434 L 517.5099078339704 47.16015805349451 L 518.157229587542 47.3829408259507 L 518.8045513411138 47.605736867607646 L 519.4518730946855 47.82854558214461 L 520.0991948482573 48.05136639997616 L 520.7465166018291 48.27419877705924 L 521.3938383554008 48.49704219375266 L 522.0411601089726 48.71989615372749 L 522.6884818625443 48.94276018292504 L 523.3358036161161 49.16563382856205 L 523.9831253696879 49.3885166581789 L 524.6304471232596 49.611408258730705 L 525.2777688768313 49.83430823571882 L 525.9250906304031 50.05721621236063 L 526.5724123839749 50.280131828796215 L 527.2197341375467 50.50305474133086 L 527.8670558911184 50.72598462171072 L 528.5143776446902 50.94892115643108 L 529.1616993982619 51.17186404607514 L 529.8090211518337 51.3948130046829 L 530.4563429054054 51.617767759147114 L 531.1036646589771 51.8407280486376 L 531.7509864125489 52.063693624050046 L 532.3983081661206 52.28666424748002 L 533.0456299196924 52.50963969172051 L 533.6929516732642 52.73261973978174 L 534.340273426836 52.95560418443239 L 534.9875951804077 53.17859282776175 L 535.6349169339794 53.4015854807609 L 536.2822386875512 53.62458196292306 L 536.9295604411229 53.84758210186172 L 537.5768821946947 54.07058573294589 L 538.2242039482664 54.293592698951386 L 538.8715257018382 54.516602849728486 L 539.51884745541 54.73961604188341 L 540.1661692089817 54.96263213847533 L 540.8134909625535 55.18565100872573 L 541.4608127161252 55.408672527741714 L 542.1081344696969 55.631696576251386 L 542.7554562232687 55.85472304035093 L 543.4027779768405 56.07775181126348 L 544.0500997304123 56.30078278510828 L 544.697421483984 56.52381586268078 L 545.3447432375557 56.746850949241974 L 545.9920649911274 56.96988795431787 L 546.6393867446992 57.19292679150752 L 547.286708498271 57.41596737829954 L 547.9340302518427 57.63900963589754 L 548.5813520054145 57.86205348905261 L 549.2286737589862 58.085098865904 L 549.875995512558 58.30814569782643 L 550.5233172661298 58.53119391928453 L 551.1706390197015 58.754243467693954 L 551.8179607732732 58.9772942832883 L 552.465282526845 59.20034630899261 L 553.1126042804168 59.423399490301875 L 553.7599260339886 59.64645377516564 L 554.4072477875603 59.86950911387737 L 555.0545695411321 60.092565458969005 L 555.7018912947038 60.31562276511016 L 556.3492130482755 60.53868098901194 L 556.9965348018472 60.76174008933489 L 557.643856555419 60.98480002660145 L 558.2911783089908 61.207860763111995 L 558.9385000625626 61.43092226286478 L 559.5858218161343 61.653984491479434 L 560.233143569706 61.87704741612424 L 560.8804653232778 62.10011100544608 L 561.5277870768496 62.32317522950393 L 562.1751088304213 62.54624005970544 L 562.8224305839931 62.76930546874607 L 563.4697523375648 62.99237143055103 L 564.1170740911366 63.21543792022007 L 564.7643958447084 63.4385049139745 L 565.4117175982801 63.66157238910668 L 566.0590393518518 63.88464032393179 L 566.7063611054235 64.10770869774177 L 567.3536828589953 64.3307774907613 L 568.001004612567 64.55384668410593 L 568.6483263661388 64.77691625974171 L 569.2956481197106 64.99998620044715 L 569.9429698732824 65.22305648977641 L 570.5902916268541 65.44612711202458 L 571.2376133804258 65.66919805219402 L 571.8849351339976 65.89226929596279 L 572.5322568875694 66.11534082965409 L 573.1795786411411 66.3384126402072 L 573.8269003947129 66.56148471514976 L 574.4742221482846 66.78455704257121 L 575.1215439018564 67.00762961109749 L 575.7688656554282 67.23070240986706 L 576.4161874089999 67.45377542850753 L 577.0635091625716 67.67684865711382 L 577.7108309161433 67.89992208622701 L 578.3581526697151 68.12299570681435 L 579.005474423287 68.34606951024992 L 579.6527961768587 68.56914348829648 L 580.3001179304304 68.79221763308774 L 580.9474396840021 69.01529193711193 L 581.5947614375739 69.23836639319546 L 582.2420831911456 69.46144099448816 L 582.8894049447174 69.68451573444827 L 583.5367266982892 69.90759060682879 L 584.1840484518609 70.13066560566412 L 584.8313702054327 70.3537407252575 L 585.4786919590044 70.57681596016857 L 586.1260137125762 70.79989130520241 L 586.7733354661478 71.02296675539782 L 587.4206572197197 71.24604230601719 L 588.0679789732914 71.46911795253641 L 588.7153007268632 71.69219369063515 L 589.362622480435 71.91526951618764 L 590.0099442340068 72.13834542525404 L 590.6572659875785 72.36142141407203 L 591.3045877411502 72.58449747904868 L 591.9519094947219 72.80757361675302 L 592.5992312482938 73.03064982390862 L 593.2465530018655 73.25372609738659 L 593.8938747554373 73.47680243419904 L 594.541196509009 73.69987883149278 L 595.1885182625807 73.92295528654299 L 595.8358400161525 74.14603179674774 L 596.4831617697242 74.36910835962223 L 597.130483523296 74.59218497279366 L 597.7778052768678 74.81526163399607 L 598.4251270304395 75.03833834106567 L 599.0724487840113 75.26141509193602 L 599.719770537583 75.48449188463388 L 600.3670922911548 75.70756871727494 L 601.0144140447264 75.9306455880596 L 601.6617357982983 76.1537224952695 L 602.3090575518701 76.37679943726371 L 602.9563793054418 76.59987641247503 L 603.6037010590136 76.8229534194071 L 604.2510228125852 77.0460304566308 L 604.8983445661571 77.2691075227815 L 605.5456663197288 77.49218461655596 L 606.1929880733005 77.71526173670969 L 606.8403098268723 77.93833888205432 L 607.487631580444 78.16141605145495 L 608.1349533340159 78.38449324382779 L 608.7822750875875 78.60757045813799 L 609.4295968411593 78.83064769339717 L 610.0769185947311 79.05372494866162 L 610.7242403483028 79.27680222303005 L 611.3715621018746 79.49987951564177 L 612.0188838554463 79.72295682567488 L 612.6662056090181 79.9460341523446 L 613.3135273625899 80.16911149490141 L 613.9608491161616 80.39218885262954 L 614.6081708697334 80.6152662248455 L 615.255492623305 80.83834361089666 L 615.9028143768768 81.06142101015965 L 616.5501361304485 81.28449842203929 L 617.1974578840203 81.50757584596712 L 617.8447796375921 81.73065328140049 L 618.4921013911638 81.95373072782098 L 619.1394231447357 82.1768081847336 L 619.7867448983073 82.3998856516657 L 620.4340666518791 82.62296312816582 L 621.0813884054509 82.84604061380298 L 621.7287101590226 83.06911810816555 L 622.3760319125944 83.29219561086032 L 623.0233536661661 83.51527312151208 L 623.6706754197379 83.73835063976225 L 624.3179971733097 83.96142816526853 L 624.9653189268814 84.18450569770403 L 625.6126406804532 84.40758323675658 L 626.2599624340248 84.63066078212805 L 626.9072841875966 84.85373833353381 L 627.5546059411683 85.07681589070197 L 628.2019276947402 85.29989345337293 L 628.849249448312 85.52297102129882 L 629.4965712018837 85.74604859424286 L 630.1438929554555 85.96912617197896 L 630.7912147090274 86.19220375429126 L 631.4385364625991 86.41528134097359 L 632.0858582161707 86.63835893182909 L 632.7331799697424 86.8614365266697 L 633.3805017233143 87.08451412531593 L 634.027823476886 87.30759172759633 L 634.6751452304578 87.53066933334719 L 635.3224669840295 87.7537469424121 L 635.9697887376012 87.97682455464178 L 636.6171104911731 88.1999021698937 L 637.2644322447449 88.42297978803168 L 637.9117539983166 88.64605740892569 L 638.5590757518883 88.8691350324516 L 639.20639750546 89.09221265849075 L 639.8537192590318 89.31529028692998 L 640.5010410126037 89.53836791766116 L 641.1483627661754 89.76144555058104 L 641.7956845197469 89.984523185591 L 642.4430062733187 90.2076008225969 L 643.0903280268906 90.43067846150879 L 643.7376497804623 90.6537561022408 L 644.3849715340341 90.876833744711 L 645.0322932876057 91.09991138884098 L 645.6796150411775 91.32298903455603 L 646.3269367947494 91.54606668178474 L 646.9742585483211 91.76914433045889 L 647.6215803018929 91.99222198051336 L 648.2689020554647 92.21529963188598 L 648.9162238090364 92.43837728451737 L 649.563545562608 92.66145493835083 L 650.2108673161799 92.88453259333218 L 650.8581890697517 93.1076102494097 L 651.5055108233234 93.33068790653405 L 652.1528325768952 93.553765564658 L 652.8001543304667 93.77684322373662 L 653.4474760840386 93.99992088372679 L 654.0947978376104 94.22299854458748 L 654.7421195911821 94.44607620627949 L 655.3894413447539 94.66915386876539 L 656.0367630983255 94.89223153200936 L 656.6840848518974 95.11530919597729 L 657.3314066054692 95.33838686063655 L 657.9787283590409 95.56146452595596 L 658.6260501126127 95.78454219190581 L 659.2733718661843 96.00761985845773 L 659.9206936197562 96.23069752558456 L 660.568015373328 96.45377519326038 L 661.2153371268997 96.67685286146047 L 661.8626588804715 96.89993053016127 L 662.509980634043 97.12300819934015 L 663.157302387615 97.34608586897562 L 663.8046241411867 97.56916353904705 L 664.4519458947584 97.79224120953486 L 665.0992676483302 98.01531888042024 L 665.7465894019018 98.23839655168533 L 666.3939111554738 98.46147422331299 L 667.0412329090454 98.68455189528689 L 667.6885546626172 98.90762956759147 L 668.335876416189 99.13070724021176 L 668.9831981697606 99.35378491313358 L 669.6305199233325 99.57686258634334 L 670.2778416769042 99.7999402598281 L 670.925163430476 100.02301793357543 L 671.5724851840478 100.2460956075735 L 672.2198069376195 100.46917328181101 L 672.8671286911913 100.69225095627718 L 673.5144504447629 100.91532863096177 L 674.1617721983348 101.13840630585486 L 674.8090939519064 101.36148398094704 L 675.4564157054782 101.58456165622943 L 676.1037374590501 101.8076393316934 L 676.7510592126217 102.03071700733082 L 677.3983809661936 102.2537946831338 L 678.0457027197652 102.4768723590949 L 678.693024473337 102.69995003520705 L 679.3403462269088 102.92302771146342 L 679.9876679804805 103.14610538785749 L 680.6349897340523 103.3691830643831 L 681.282311487624 103.59226074103427 L 681.9296332411958 103.81533841780535 L 682.5769549947676 104.03841609469097 L 683.2242767483392 104.26149377168596 L 683.8715985019111 104.4845714487854 L 684.5189202554827 104.70764912598457 L 685.1662420090545 104.93072680327899 L 685.8135637626264 105.15380448066435 L 686.4608855161981 105.37688215813654 L 687.1082072697699 105.59995983569169 L 687.7555290233415 105.82303751332603 L 688.4028507769133 106.04611519103605 L 689.050172530485 106.26919286881821 L 689.6974942840568 106.49227054666943 L 690.3448160376286 106.71534822458648 L 690.9921377912003 106.93842590256645 L 691.6394595447722 107.16150358060645 L 692.2867812983438 107.38458125870383 L 692.9341030519156 107.60765893685598 L 693.5814248054874 107.83073661506043 L 694.228746559059 108.05381429331484 L 694.8760683126309 108.27689197161698 L 695.5233900662026 108.49996964996461 L 696.1707118197744 108.72304732835579 L 696.8180335733462 108.94612500678849 L 697.4653553269178 109.16920268526087 L 698.1126770804897 109.3922803637711 L 698.7599988340613 109.61535804231752 L 699.4073205876331 109.8384357208985 L 700.0546423412048 110.06151339951248 L 700.7019640947766 110.28459107815792 L 701.3492858483485 110.50766875683345 L 701.9966076019201 110.73074643553772 L 702.6439293554919 110.95382411426942 L 703.2912511090636 111.17690179302735 L 703.9385728626354 111.39997947181027 L 704.5858946162072 111.62305715061706 L 705.2332163697789 111.8461348294467 L 705.8805381233507 112.06921250829814 L 706.5278598769224 112.29229018717032 L 707.1751816304942 112.5153678660624 L 707.822503384066 112.73844554497347 L 708.4698251376376 112.96152322390265 L 709.1171468912095 113.18460090284913 L 709.7644686447811 113.40767858181212 L 710.4117903983529 113.63075626079089 L 711.0591121519248 113.85383393978472 L 711.7064339054964 114.07691161879293 L 712.3537556590683 114.29998929781493 L 713.0010774126399 114.52306697685 L 713.6483991662117 114.74614465589764 L 714.2957209197834 114.96922233495724 L 714.9430426733552 115.1923000140282 L 715.590364426927 115.41537769311017 L 716.2376861804987 115.63845537220251 L 716.8850079340705 115.86153305130478 L 717.5323296876422 116.08461073041659 L 718.1796514412139 116.30768840953743 L 718.8269731947858 116.53076608866698 L 719.4742949483574 116.7538437678048 L 720.1216167019292 116.97692144695051 L 720.768938455501 117.19999912610376 L 721.4162602090728 117.4230768052642 L 722.0635819626445 117.64615448443158 L 722.7109037162162 117.86923216360546 L 723.358225469788 118.09230984278568 L 724.0055472233597 118.31538752197184 L 724.6528689769315 118.53846520116377 L 725.3001907305032 118.76154288036116 L 725.947512484075 118.98462055956372 L 726.5948342376468 119.20769823877131 L 727.2421559912185 119.43077591798365 L 727.8894777447903 119.65385359720051 L 728.536799498362 119.87693127642171 L 729.1841212519337 120.1000089556471 L 729.8314430055055 120.32308663487643 L 730.4787647590772 120.54616431410952 L 731.1260865126491 120.76924199334624 L 731.7734082662208 120.99231967258638 L 732.4207300197925 121.21539735182984 L 733.0680517733643 121.43847503107642 L 733.715373526936 121.66155271032602 L 734.3626952805078 121.88463038957849 L 735.0100170340795 122.10770806883366 L 735.6573387876513 122.33078574809147 L 736.304660541223 122.55386342735179 L 736.9519822947948 122.77694110661449 L 737.5993040483665 123.0000187858794 L 738.2466258019383 123.22309646514657 L 738.8939475555101 123.44617414441578 L 739.5412693090818 123.66925182368695 L 740.1885910626535 123.89232950296005 L 740.8359128162253 124.11540718223495 L 741.4832345697971 124.33848486151157 L 742.1305563233689 124.56156254078985 L 742.7778780769406 124.78464022006969 L 743.4251998305123 125.00771789935104 L 744.0725215840841 125.23079557863383 L 744.7198433376558 125.45387325791796 L 745.3671650912275 125.67695093720343 L 746.0144868447993 125.90002861649018 L 746.6618085983711 126.12310629577806 L 747.3091303519429 126.3461839750671 L 747.9564521055146 126.56926165435726 L 748.6037738590863 126.79233933364841 L 749.2510956126581 127.01541701294056 L 749.8984173662298 127.2384946922337 L 750.5457391198016 127.46157237152772 L 751.1930608733734 127.6846500508226 L 751.8403826269451 127.90772773011832 L 752.4877043805169 128.13080540941482 L 753.1350261340885 128.35388308871205 L 753.7823478876604 128.57696076801003 L 754.4296696412321 128.80003844730868 L 755.0769913948038 129.023116126608 L 755.7243131483756 129.24619380590795 L 756.3716349019475 129.46927148520848 L 757.0189566555192 129.69234916450958 L 757.6662784090909 129.91542684381125" stroke-opacity="0.9" stroke-miterlimit="10" stroke-width="2"/></g><g><path fill="none" stroke="none"/><path fill="none" stroke="rgb(102,180,211)" paint-order="fill stroke markers" d=" M 110.99184659090912 15.19442163319934 L 111.63916834448088 15.194421633239926 L 112.28649009805261 15.194421633282445 L 112.93381185162438 15.194421633326897 L 113.58113360519616 15.194421633373565 L 114.22845535876787 15.194421633422337 L 114.87577711233965 15.19442163347344 L 115.52309886591141 15.194421633526929 L 116.17042061948314 15.194421633582976 L 116.81774237305491 15.194421633641696 L 117.46506412662663 15.194421633703143 L 118.1123858801984 15.194421633767547 L 118.75970763377018 15.19442163383485 L 119.40702938734191 15.19442163390545 L 120.05435114091367 15.194421633979346 L 120.70167289448544 15.194421634056766 L 121.34899464805716 15.194421634137768 L 121.99631640162895 15.194421634222635 L 122.64363815520065 15.194421634311539 L 123.29095990877244 15.194421634404591 L 123.9382816623442 15.19442163450202 L 124.58560341591593 15.194421634604055 L 125.23292516948769 15.194421634710864 L 125.88024692305946 15.194421634822845 L 126.52756867663119 15.19442163494 L 127.17489043020296 15.194421635062668 L 127.82221218377472 15.19442163519119 L 128.46953393734645 15.194421635325739 L 129.11685569091821 15.194421635466654 L 129.76417744448995 15.19442163561422 L 130.41149919806173 15.19442163576872 L 131.0588209516335 15.194421635930553 L 131.70614270520522 15.194421636099946 L 132.35346445877698 15.194421636277355 L 133.00078621234874 15.194421636463176 L 133.64810796592047 15.19442163665775 L 134.29542971949223 15.19442163686142 L 134.94275147306396 15.19442163707481 L 135.59007322663575 15.194421637298262 L 136.2373949802075 15.194421637532173 L 136.88471673377924 15.194421637777225 L 137.532038487351 15.19442163803376 L 138.1793602409228 15.194421638302458 L 138.8266819944945 15.194421638583776 L 139.47400374806625 15.194421638878339 L 140.121325501638 15.194421639186885 L 140.76864725520977 15.194421639509926 L 141.41596900878153 15.194421639848201 L 142.06329076235326 15.194421640202506 L 142.71061251592502 15.194421640573466 L 143.3579342694968 15.194421640961934 L 144.0052560230685 15.194421641368763 L 144.65257777664027 15.194421641794747 L 145.2998995302121 15.194421642240798 L 145.9472212837838 15.194421642707994 L 146.59454303735555 15.194421643197131 L 147.24186479092728 15.194421643709404 L 147.88918654449907 15.194421644245779 L 148.53650829807083 15.194421644807562 L 149.18383005164253 15.194421645395778 L 149.83115180521432 15.194421646011733 L 150.4784735587861 15.194421646656792 L 151.1257953123578 15.194421647332263 L 151.77311706592957 15.194421648039565 L 152.4204388195013 15.194421648780292 L 153.0677605730731 15.19442164955592 L 153.71508232664485 15.194421650368156 L 154.36240408021655 15.194421651218704 L 155.00972583378837 15.194421652109384 L 155.65704758736013 15.19442165304207 L 156.30436934093183 15.19442165401881 L 156.95169109450362 15.194421655041594 L 157.59901284807538 15.194421656112638 L 158.2463346016471 15.194421657234216 L 158.89365635521887 15.194421658408658 L 159.5409781087906 15.194421659638522 L 160.18829986236238 15.194421660926423 L 160.83562161593414 15.19442166227509 L 161.48294336950585 15.194421663687365 L 162.13026512307763 15.194421665166317 L 162.7775868766494 15.194421666715016 L 163.42490863022113 15.194421668336759 L 164.07223038379288 15.194421670034956 L 164.71955213736464 15.194421671813359 L 165.3668738909364 15.194421673675663 L 166.01419564450816 15.19442167562579 L 166.6615173980799 15.194421677667947 L 167.30883915165165 15.194421679806396 L 167.95616090522344 15.1944216820458 L 168.60348265879514 15.194421684390761 L 169.2508044123669 15.194421686846397 L 169.89812616593866 15.19442168941788 L 170.54544791951042 15.194421692110666 L 171.19276967308218 15.194421694930497 L 171.8400914266539 15.1944216978834 L 172.48741318022567 15.194421700975568 L 173.13473493379746 15.194421704213596 L 173.78205668736916 15.19442170760442 L 174.42937844094092 15.1944217111552 L 175.0767001945127 15.1944217148735 L 175.7240219480845 15.194421718767217 L 176.3713437016562 15.194421722844652 L 177.01866545522796 15.194421727114388 L 177.66598720879978 15.194421731585578 L 178.31330896237148 15.194421736267714 L 178.96063071594324 15.194421741170743 L 179.60795246951503 15.194421746305068 L 180.25527422308673 15.194421751681602 L 180.90259597665852 15.19442175731183 L 181.54991773023022 15.194421763207629 L 182.19723948380198 15.19442176938162 L 182.8445612373738 15.194421775846877 L 183.4918829909455 15.194421782617098 L 184.13920474451726 15.194421789706723 L 184.78652649808905 15.194421797130872 L 185.43384825166075 15.194421804905176 L 186.08117000523254 15.194421813046347 L 186.7284917588043 15.194421821571495 L 187.37581351237606 15.194421830498925 L 188.02313526594781 15.19442183984745 L 188.67045701951952 15.19442184963708 L 189.3177787730913 15.19442185988845 L 189.96510052666306 15.194421870623557 L 190.6124222802348 15.194421881865026 L 191.25974403380656 15.1944218936369 L 191.90706578737831 15.194421905964134 L 192.55438754095007 15.194421918872877 L 193.20170929452183 15.194421932390583 L 193.84903104809354 15.194421946546129 L 194.49635280166532 15.194421961369358 L 195.1436745552371 15.194421976891988 L 195.79099630880881 15.194421993146875 L 196.43831806238057 15.194422010168694 L 197.08563981595236 15.194422027993483 L 197.7329615695241 15.194422046659156 L 198.38028332309585 15.194422066205505 L 199.02760507666758 15.194422086673967 L 199.67492683023934 15.194422108108029 L 200.32224858381113 15.194422130553278 L 200.96957033738283 15.194422154057463 L 201.6168920909546 15.194422178670436 L 202.26421384452638 15.194422204444663 L 202.9115355980981 15.194422231434771 L 203.55885735166987 15.194422259698229 L 204.20617910524163 15.194422289295005 L 204.8535008588134 15.194422320288083 L 205.50082261238515 15.194422352743345 L 206.14814436595685 15.194422386729741 L 206.79546611952864 15.19442242231952 L 207.4427878731004 15.194422459588282 L 208.09010962667213 15.194422498615268 L 208.7374313802439 15.194422539483412 L 209.38475313381568 15.194422582279572 L 210.03207488738738 15.194422627094752 L 210.67939664095917 15.194422674024167 L 211.3267183945309 15.194422723167577 L 211.97404014810266 15.194422774629345 L 212.6213619016744 15.19442282851901 L 213.26868365524618 15.194422884950995 L 213.9160054088179 15.194422944045186 L 214.56332716238967 15.19442300592732 L 215.21064891596146 15.194423070728874 L 215.85797066953322 15.194423138587524 L 216.50529242310495 15.194423209647539 L 217.1526141766767 15.194423284059894 L 217.79993593024847 15.194423361982842 L 218.44725768382023 15.194423443581911 L 219.09457943739196 15.194423529030644 L 219.74190119096372 15.194423618510484 L 220.38922294453548 15.194423712211744 L 221.03654469810724 15.19442381033349 L 221.68386645167897 15.194423913084336 L 222.33118820525073 15.194424020682675 L 222.97850995882249 15.194424133357074 L 223.62583171239424 15.194424251347186 L 224.27315346596598 15.194424374903633 L 224.92047521953776 15.194424504289145 L 225.5677969731095 15.19442463977856 L 226.21511872668125 15.194424781660018 L 226.86244048025299 15.194424930234959 L 227.50976223382477 15.194425085819205 L 228.15708398739653 15.194425248743357 L 228.80440574096826 15.19442541935382 L 229.45172749454 15.19442559801314 L 230.09904924811178 15.194425785100975 L 230.74637100168354 15.194425981015058 L 231.39369275525527 15.194426186171768 L 232.04101450882703 15.194426401007092 L 232.68833626239882 15.194426625977655 L 233.33565801597055 15.194426861561624 L 233.98297976954228 15.194427108259617 L 234.63030152311404 15.19442736659613 L 235.27762327668583 15.1944276371201 L 235.92494503025756 15.194427920406554 L 236.57226678382932 15.19442821705752 L 237.21958853740108 15.194428527703565 L 237.86691029097284 15.194428853004865 L 238.51423204454457 15.194429193652866 L 239.16155379811633 15.194429550371524 L 239.8088755516881 15.194429923919074 L 240.45619730525985 15.194430315089335 L 241.10351905883158 15.194430724713811 L 241.75084081240334 15.19443115366306 L 242.3981625659751 15.194431602848738 L 243.04548431954686 15.194432073225585 L 243.6928060731186 15.194432565793306 L 244.34012782669035 15.194433081598731 L 244.9874495802621 15.194433621738256 L 245.63477133383387 15.194434187359832 L 246.2820930874056 15.194434779665585 L 246.92941484097736 15.194435399914425 L 247.57673659454912 15.19443604942461 L 248.22405834812088 15.194436729576637 L 248.87138010169264 15.194437441816092 L 249.5187018552644 15.194438187656658 L 250.16602360883613 15.194438968683528 L 250.8133453624079 15.194439786556813 L 251.46066711597965 15.194440643014673 L 252.1079888695514 15.194441539877516 L 252.75531062312314 15.194442479051418 L 253.4026323766949 15.194443462532547 L 254.04995413026666 15.194444492411094 L 254.69727588383842 15.194445570875985 L 255.34459763741017 15.194446700219373 L 255.9919193909819 15.19444788284153 L 256.63924114455364 15.194449121256014 L 257.2865628981254 15.194450418094846 L 257.9338846516972 15.194451776114306 L 258.5812064052689 15.19445319820079 L 259.2285281588407 15.194454687376606 L 259.87584991241243 15.194456246806908 L 260.52317166598414 15.194457879806066 L 261.1704934195559 15.194459589844826 L 261.81781517312766 15.194461380557641 L 262.4651369266995 15.194463255750406 L 263.1124586802712 15.194465219408585 L 263.75978043384293 15.19446727570579 L 264.4071021874147 15.194469429012372 L 265.05442394098645 15.194471683904851 L 265.7017456945582 15.194474045175753 L 266.34906744813 15.194476517843611 L 266.99638920170173 15.194479107163772 L 267.6437109552735 15.194481818639474 L 268.29103270884525 15.194484658033673 L 268.93835446241695 15.194487631381094 L 269.58567621598877 15.194490745001133 L 270.2329979695605 15.19449400551133 L 270.8803197231323 15.194497419841582 L 271.527641476704 15.194500995248518 L 272.17496323027575 15.19450473933108 L 272.8222849838475 15.19450866004695 L 273.4696067374192 15.194512765728973 L 274.116928490991 15.194517065103184 L 274.7642502445628 15.194521567307333 L 275.4115719981345 15.1945262819101 L 276.05889375170625 15.194531218931843 L 276.706215505278 15.194536388865345 L 277.35353725884977 15.194541802698552 L 278.00085901242153 15.194547471937767 L 278.6481807659933 15.194553408632146 L 279.29550251956505 15.194559625399108 L 279.9428242731368 15.194566135451566 L 280.59014602670857 15.194572952625492 L 281.2374677802803 15.194580091409762 L 281.8847895338521 15.194587566976736 L 282.5321112874238 15.194595395214435 L 283.17943304099555 15.194603592760473 L 283.82675479456725 15.19461217703747 L 284.47407654813907 15.194621166289778 L 285.1213983017108 15.194630579622526 L 285.76872005528253 15.19464043704204 L 286.4160418088543 15.194650759498586 L 287.06336356242605 15.194661568930599 L 287.7106853159978 15.194672888311572 L 288.35800706956957 15.194684741698723 L 289.0053288231413 15.1946971542842 L 289.6526505767131 15.194710152448522 L 290.29997233028485 15.194723763816683 L 290.9472940838566 15.194738017316922 L 291.59461583742836 15.194752943242122 L 292.2419375910001 15.194768573314207 L 292.8892593445718 15.19478494075156 L 293.53658109814364 15.194802080339514 L 294.1839028517154 15.194820028504523 L 294.8312246052871 15.194838823391308 L 295.47854635885886 15.194858504943909 L 296.12586811243057 15.194879114990783 L 296.7731898660023 15.194900697333594 L 297.42051161957414 15.194923297840035 L 298.06783337314585 15.19494696454177 L 298.7151551267176 15.194971747736076 L 299.36247688028936 15.19499770009287 L 300.0097986338611 15.195024876766752 L 300.6571203874329 15.195053335513819 L 301.30444214100464 15.195083136814844 L 301.9517638945764 15.1951143440034 L 302.59908564814816 15.195147023400636 L 303.2464074017199 15.195181244456137 L 303.8937291552917 15.195217079895485 L 304.54105090886344 15.195254605874595 L 305.1883726624352 15.195293902141827 L 305.8356944160069 15.1953350522071 L 306.4830161695787 15.195378143519463 L 307.1303379231504 15.195423267652927 L 307.7776596767222 15.195470520500805 L 308.42498143029394 15.195520002479498 L 309.0723031838657 15.195571818741882 L 309.7196249374374 15.195626079400597 L 310.36694669100916 15.195682899761835 L 311.0142684445809 15.19574240057051 L 311.6615901981527 15.195804708266508 L 312.30891195172444 15.195869955253158 L 312.9562337052962 15.195938280178723 L 313.60355545886796 15.196009828230615 L 314.2508772124397 15.196084751443891 L 314.8981989660115 15.196163209023894 L 315.54552071958324 15.196245367684526 L 316.192842473155 15.196331402002158 L 316.84016422672676 15.196421494786307 L 317.48748598029846 15.19651583746787 L 318.1348077338702 15.19661463050545 L 318.782129487442 15.19671808381105 L 319.4294512410138 15.196826417195496 L 320.07677299458555 15.196939860835244 L 320.72409474815726 15.197058655760884 L 321.371416501729 15.197183054368793 L 322.0187382553007 15.19731332095671 L 322.6660600088725 15.197449732284724 L 323.3133817624443 15.197592578162585 L 323.960703516016 15.197742162064685 L 324.60802526958776 15.197898801773931 L 325.2553470231595 15.198062830055846 L 325.9026687767313 15.198234595364909 L 326.54999053030303 15.198414462583116 L 327.1973122838748 15.19860281379448 L 327.84463403744655 15.198800049095098 L 328.4919557910183 15.199006587441602 L 329.1392775445901 15.199222867539504 L 329.78659929816183 15.199449348773612 L 330.4339210517336 15.199686512181586 L 331.0812428053053 15.199934861473594 L 331.7285645588771 15.20019492410006 L 332.37588631244876 15.200467252369378 L 333.0232080660206 15.200752424617917 L 333.67052981959233 15.201051046435566 L 334.3178515731641 15.201363751948179 L 334.9651733267358 15.201691205160841 L 335.61249508030755 15.202034101363608 L 336.2598168338793 15.202393168603805 L 336.9071385874511 15.202769169226883 L 337.55446034102283 15.203162901489804 L 338.2017820945946 15.203575201250203 L 338.84910384816635 15.204006943734328 L 339.4964256017381 15.204459045388319 L 340.14374735530987 15.204932465815887 L 340.79106910888163 15.205428209806996 L 341.4383908624534 15.205947329460912 L 342.08571261602515 15.2064909264098 L 342.7330343695969 15.20706015414487 L 343.38035612316855 15.207656220452634 L 344.0276778767404 15.208280389964216 L 344.6749996303122 15.208933986823752 L 345.32232138388383 15.209618397482188 L 345.9696431374556 15.210335073620513 L 346.61696489102735 15.211085535210088 L 347.2642866445991 15.211871373715212 L 347.91160839817087 15.212694255445115 L 348.55893015174263 15.213555925062053 L 349.2062519053144 15.214458209252882 L 349.85357365888615 15.215403020570761 L 350.5008954124579 15.216392361456144 L 351.14821716602967 15.2174283284441 L 351.7955389196014 15.21851311656701 L 352.4428606731732 15.219649023961267 L 353.09018242674495 15.220838456687659 L 353.7375041803167 15.222083933774627 L 354.38482593388846 15.223388092494872 L 355.0321476874602 15.224753693885702 L 355.67946944103187 15.226183628523927 L 356.32679119460374 15.227680922567231 L 356.9741129481754 15.2292487440738 L 357.62143470174715 15.230890409611675 L 358.2687564553189 15.232609391172957 L 358.91607820889067 15.234409323403781 L 359.5633999624624 15.236294011166535 L 360.2107217160342 15.238267437446666 L 360.85804346960595 15.240333771621465 L 361.5053652231777 15.242497378104872 L 362.15268697674946 15.244762825385806 L 362.8000087303212 15.24713489547679 L 363.447330483893 15.249618593790672 L 364.09465223746474 15.252219159463664 L 364.7419739910365 15.254942076144118 L 365.38929574460826 15.257793083266506 L 366.03661749818 15.260778187831932 L 366.6839392517518 15.263903676715131 L 367.33126100532354 15.267176129521204 L 367.9785827588952 15.27060243201413 L 368.62590451246695 15.274189790140952 L 369.2732262660388 15.277945744675492 L 369.9205480196106 15.281878186506901 L 370.5678697731822 15.285995372599132 L 371.2151915267541 15.290305942646569 L 371.86251328032574 15.294818936454703 L 372.5098350338975 15.299543812072557 L 373.1571567874694 15.304490464705907 L 373.80447854104114 15.309669246440308 L 374.4518002946128 15.315090986804364 L 375.09912204818454 15.320767014202431 L 375.7464438017563 15.326709178248848 L 376.39376555532806 15.332929873034004 L 377.0410873088998 15.339442061354305 L 377.6884090624716 15.346259299937344 L 378.33573081604334 15.353395765694756 L 378.9830525696151 15.36086628303309 L 379.63037432318686 15.368686352256304 L 380.2776960767586 15.376872179088707 L 380.9250178303304 15.385440705350277 L 381.57233958390214 15.394409640813137 L 382.2196613374739 15.403797496267828 L 382.86698309104565 15.413623617825749 L 383.5143048446174 15.423908222483476 L 384.1616265981892 15.43467243497048 L 384.8089483517608 15.445938325901523 L 385.4562701053327 15.457728951249408 L 386.10359185890434 15.470068393151337 L 386.7509136124761 15.482981802057566 L 387.39823536604786 15.496495440225601 L 388.0455571196196 15.510636726556754 L 388.6928788731914 15.525434282767094 L 389.34020062676314 15.540917980874156 L 389.9875223803349 15.55711899197496 L 390.63484413390665 15.574069836278397 L 391.2821658874784 15.591804434346273 L 391.9294876410502 15.610358159482757 L 392.57680939462193 15.629767891199322 L 393.2241311481937 15.650072069666066 L 393.87145290176545 15.671310751043166 L 394.5187746553372 15.69352566356713 L 395.16609640890897 15.716760264245295 L 395.81341816248073 15.741059795988292 L 396.4607399160525 15.766471344986257 L 397.10806166962413 15.793043898104315 L 397.7553834231959 15.820828400045059 L 398.40270517676777 15.849877809991824 L 399.0500269303394 15.88024715741011 L 399.6973486839112 15.911993596649268 L 400.34467043748293 15.945176459943013 L 400.9919921910547 15.979857308365979 L 401.63931394462645 16.0160999802564 L 402.2866356981982 16.05397063656926 L 402.93395745176997 16.09353780257004 L 403.58127920534173 16.134872405231874 L 404.2286009589135 16.178047805641256 L 404.87592271248525 16.22313982566635 L 405.523244466057 16.270226768085138 L 406.17056621962877 16.319389429317994 L 406.8178879732005 16.370711103855683 L 407.4652097267722 16.42427757942454 L 408.11253148034405 16.480177121883344 L 408.7598532339158 16.538500448807042 L 409.40717498748745 16.599340690675433 L 410.0544967410592 16.662793338562096 L 410.70181849463097 16.728956177201496 L 411.34914024820273 16.79792920231108 L 411.9964620017745 16.869814521055332 L 412.64378375534625 16.94471623457042 L 413.291105508918 17.022740301514375 L 413.93842726248977 17.103994381678433 L 414.5857490160615 17.188587658789515 L 415.2330707696333 17.276630641753002 L 415.88039252320505 17.368234943732375 L 416.5277142767768 17.4635130386377 L 417.17503603034856 17.56257799480187 L 417.8223577839203 17.66554318585787 L 418.4696795374921 17.772521979097235 L 419.11700129106384 17.883627401881142 L 419.7643230446355 17.99897178699615 L 420.41164479820725 18.1186663981876 L 421.0589665517791 18.242821037463216 L 421.70628830535077 18.371543636131207 L 422.3536100589225 18.50493983191575 L 423.0009318124943 18.643112534866418 L 423.64825356606605 18.786161485146806 L 424.2955753196378 18.93418280612866 L 424.94289707320956 19.087268556536287 L 425.5902188267813 19.245506285660156 L 426.2375405803531 19.408978595883582 L 426.88486233392484 19.577762716932796 L 427.5321840874966 19.75193009635791 L 428.17950584106836 19.931546010774696 L 428.8268275946401 20.116669202337107 L 429.4741493482119 20.30735154476679 L 430.1214711017835 20.50363774303571 L 430.7687928553554 20.705565070480475 L 431.41611460892716 20.913163146732643 L 432.0634363624988 21.12645375937319 L 432.71075811607056 21.34545073168482 L 433.3580798696423 21.57015983827938 L 434.0054016232141 21.800578769744504 L 434.65272337678584 22.036697146789777 L 435.3000451303576 22.278496583700473 L 435.94736688392936 22.525950800236842 L 436.59468863750124 22.779025780468373 L 437.2420103910729 23.037679976419952 L 437.88933214464464 23.30186455384296 L 438.5366538982164 23.571523676922254 L 439.18397565178805 23.84659482830068 L 439.8312974053599 24.127009160449745 L 440.4786191589317 24.412691874149402 L 441.12594091250344 24.703562619657646 L 441.7732626660752 24.99953591605498 L 442.42058441964684 25.300521584238197 L 443.0679061732187 25.6064251891014 L 443.7152279267905 25.917148486582107 L 444.3625496803621 26.232589871450045 L 445.0098714339339 26.55264482197066 L 445.65719318750564 26.877206337876203 L 446.3045149410774 27.206165368410552 L 446.9518366946493 27.539411227570042 L 447.5991584482209 27.876831994037843 L 448.2464802017927 28.21831489368418 L 448.89380195536444 28.563746662882863 L 449.5411237089362 28.913013891257663 L 450.18844546250796 29.266003342823808 L 450.8357672160797 29.62260225481799 L 451.4830889696515 29.982698613815558 L 452.13041072322324 30.34618140901017 L 452.777732476795 30.712940862780954 L 453.42505423036675 31.082868638889636 L 454.0723759839385 31.4558580288396 L 454.71969773751016 31.831804117087074 L 455.3670194910819 32.210603925928694 L 456.0143412446537 32.592156540990345 L 456.66166299822555 32.976363218325616 L 457.3089847517973 33.363127474188275 L 457.95630650536907 33.75235515857918 L 458.6036282589407 34.14395451369063 L 459.2509500125125 34.537836218369364 L 459.89827176608424 34.93391341971454 L 460.545593519656 35.332101752902076 L 461.19291527322775 35.73231935029668 L 461.8402370267995 36.13448684087638 L 462.4875587803713 36.53852734094647 L 463.13488053394303 36.944366437075075 L 463.7822022875148 37.35193216212798 L 464.42952404108655 37.76115496522863 L 465.0768457946583 38.17196767641343 L 465.72416754822996 38.58430546669882 L 466.37148930180183 38.998105804222746 L 467.0188110553736 39.413308407069565 L 467.66613280894535 39.82985519333721 L 468.3134545625171 40.24769022895629 L 468.96077631608875 40.6667596737239 L 469.6080980696605 41.087011725969944 L 470.2554198232323 41.50839656623344 L 470.90274157680403 41.93086630028574 L 471.5500633303758 42.35437490180203 L 472.19738508394755 42.77887815494779 L 472.8447068375193 43.204333597116374 L 473.49202859109107 43.63070046202449 L 474.13935034466283 44.05793962334573 L 474.7866720982346 44.486013539038964 L 475.43399385180635 44.91488619650568 L 476.0813156053781 45.34452305868987 L 476.72863735894987 45.77489101121779 L 477.3759591125216 46.20595831065634 L 478.0232808660934 46.63769453395574 L 478.67060261966515 47.070070529128856 L 479.3179243732368 47.50305836720702 L 479.96524612680855 47.936631295502025 L 480.6125678803803 48.370763692196164 L 481.25988963395207 48.80543102227128 L 481.90721138752394 49.24060979478347 L 482.5545331410957 49.676277521481865 L 483.20185489466735 50.11241267676519 L 483.8491766482391 50.548994658965 L 484.49649840181087 50.98600375294106 L 485.1438201553826 51.42342109396881 L 485.7911419089544 51.861228632899184 L 486.43846366252615 52.299409102564994 L 487.0857854160979 52.73794598540951 L 487.73310716966967 53.17682348230787 L 488.3804289232414 53.61602648255359 L 489.0277506768132 54.05554053497957 L 489.67507243038494 54.49535182018295 L 490.3223941839566 54.9354471238222 L 490.96971593752835 55.375813810955265 L 491.6170376911002 55.81643980138679 L 492.264359444672 56.2573135459925 L 492.91168119824374 56.69842400398926 L 493.5590029518154 57.13976062111948 L 494.20632470538715 57.58131330871896 L 494.8536464589589 58.023072423636876 L 495.50096821253067 58.46502874897942 L 496.1482899661024 58.90717347564549 L 496.7956117196742 59.349498184627635 L 497.44293347324594 59.791994830048566 L 498.0902552268177 60.23465572290644 L 498.73757698038946 60.67747351550207 L 499.3848987339612 61.12044118652145 L 500.032220487533 61.563552026749136 L 500.6795422411046 62.00679962538709 L 501.3268639946765 62.45017785695583 L 501.97418574824826 62.89368086875399 L 502.62150750182 63.33730306885511 L 503.2688292553918 63.78103911461869 L 503.9161510089634 64.2248839016961 L 504.5634727625352 64.66883255350996 L 505.21079451610694 65.11288041118837 L 505.8581162696787 65.55702302393505 L 506.50543802325046 66.00125613981714 L 507.1527597768222 66.44557569695348 L 507.800081530394 66.88997781508695 L 508.44740328396574 67.33445878752397 L 509.0947250375375 67.77901507342659 L 509.74204679110926 68.22364329044154 L 510.389368544681 68.66834020765262 L 511.0366902982528 69.11310273884203 L 511.68401205182454 69.55792793604803 L 512.3313338053963 70.00281298340576 L 512.9786555589681 70.44775519125969 L 513.6259773125398 70.89275199053526 L 514.2732990661116 71.33780092735915 L 514.9206208196832 71.7828996579172 L 515.567942573255 72.22804594353966 L 516.2152643268267 72.67323764600411 L 516.8625860803985 73.11847272304627 L 517.5099078339704 73.56374922406994 L 518.157229587542 74.00906528604736 L 518.8045513411138 74.45441912960132 L 519.4518730946855 74.89980905526167 L 520.0991948482573 75.34523343988809 L 520.7465166018291 75.79069073325186 L 521.3938383554008 76.23617945477028 L 522.0411601089726 76.68169819038584 L 522.6884818625443 77.12724558958516 L 523.3358036161161 77.57282036255023 L 523.9831253696879 78.0184212774372 L 524.6304471232596 78.46404715777638 L 525.2777688768313 78.90969687998825 L 525.9250906304031 79.35536937101077 L 526.5724123839749 79.80106360603205 L 527.2197341375467 80.24677860632534 L 527.8670558911184 80.69251343717991 L 528.5143776446902 81.1382672059249 L 529.1616993982619 81.58403906004165 L 529.8090211518337 82.02982818536043 L 530.4563429054054 82.47563380433792 L 531.1036646589771 82.92145517441173 L 531.7509864125489 83.36729158642876 L 532.3983081661206 83.81314236314418 L 533.0456299196924 84.25900685778711 L 533.6929516732642 84.70488445269126 L 534.340273426836 85.15077455798652 L 534.9875951804077 85.59667661034956 L 535.6349169339794 86.04259007181005 L 536.2822386875512 86.48851442861098 L 536.9295604411229 86.93444919011966 L 537.5768821946947 87.38039388778799 L 538.2242039482664 87.82634807415894 L 538.8715257018382 88.27231132191827 L 539.51884745541 88.7182832229881 L 540.1661692089817 89.16426338766189 L 540.8134909625535 89.61025144377774 L 541.4608127161252 90.05624703592912 L 542.1081344696969 90.50224982471113 L 542.7554562232687 90.94825948600015 L 543.4027779768405 91.39427571026664 L 544.0500997304123 91.84029820191802 L 544.697421483984 92.28632667867163 L 545.3447432375557 92.73236087095577 L 545.9920649911274 93.17840052133752 L 546.6393867446992 93.62444538397634 L 547.286708498271 94.07049522410242 L 547.9340302518427 94.51654981751818 L 548.5813520054145 94.96260895012261 L 549.2286737589862 95.40867241745644 L 549.875995512558 95.85474002426841 L 550.5233172661298 96.30081158410047 L 551.1706390197015 96.74688691889205 L 551.8179607732732 97.19296585860187 L 552.465282526845 97.63904824084705 L 553.1126042804168 98.08513391055814 L 553.7599260339886 98.53122271964992 L 554.4072477875603 98.9773145267068 L 555.0545695411321 99.42340919668266 L 555.7018912947038 99.86950660061382 L 556.3492130482755 100.3156066153455 L 556.9965348018472 100.76170912326981 L 557.643856555419 101.20781401207623 L 558.2911783089908 101.65392117451296 L 558.9385000625626 102.1000305081592 L 559.5858218161343 102.54614191520747 L 560.233143569706 102.99225530225593 L 560.8804653232778 103.43837058010988 L 561.5277870768496 103.88448766359238 L 562.1751088304213 104.33060647136324 L 562.8224305839931 104.7767269257462 L 563.4697523375648 105.2228489525641 L 564.1170740911366 105.6689724809809 L 564.7643958447084 106.11509744335163 L 565.4117175982801 106.5612237750783 L 566.0590393518518 107.00735141447294 L 566.7063611054235 107.45348030262633 L 567.3536828589953 107.899610383283 L 568.001004612567 108.34574160272152 L 568.6483263661388 108.79187390964054 L 569.2956481197106 109.23800725504964 L 569.9429698732824 109.68414159216533 L 570.5902916268541 110.13027687631163 L 571.2376133804258 110.57641306482512 L 571.8849351339976 111.02255011696417 L 572.5322568875694 111.46868799382261 L 573.1795786411411 111.91482665824697 L 573.8269003947129 112.36096607475727 L 574.4742221482846 112.80710620947212 L 575.1215439018564 113.25324703003622 L 575.7688656554282 113.69938850555201 L 576.4161874089999 114.14553060651377 L 577.0635091625716 114.59167330474489 L 577.7108309161433 115.03781657333829 L 578.3581526697151 115.48396038659885 L 579.005474423287 115.93010471998906 L 579.6527961768587 116.37624955007689 L 580.3001179304304 116.82239485448585 L 580.9474396840021 117.26854061184741 L 581.5947614375739 117.71468680175593 L 582.2420831911456 118.16083340472477 L 582.8894049447174 118.60698040214533 L 583.5367266982892 119.0531277762473 L 584.1840484518609 119.49927551006081 L 584.8313702054327 119.94542358738067 L 585.4786919590044 120.3915719927316 L 586.1260137125762 120.83772071133555 L 586.7733354661478 121.28386972908018 L 587.4206572197197 121.73001903248894 L 588.0679789732914 122.17616860869242 L 588.7153007268632 122.62231844540094 L 589.362622480435 123.0684685308785 L 590.0099442340068 123.51461885391782 L 590.6572659875785 123.9607694038165 L 591.3045877411502 124.40692017035425 L 591.9519094947219 124.85307114377136 L 592.5992312482938 125.29922231474762 L 593.2465530018655 125.74537367438282 L 593.8938747554373 126.1915252141776 L 594.541196509009 126.63767692601562 L 595.1885182625807 127.08382880214612 L 595.8358400161525 127.52998083516758 L 596.4831617697242 127.97613301801184 L 597.130483523296 128.42228534392922 L 597.7778052768678 128.8684378064741 L 598.4251270304395 129.31459039949127 L 599.0724487840113 129.76074311710278 L 599.719770537583 130.20689595369552 L 600.3670922911548 130.65304890390922 L 601.0144140447264 131.09920196262513 L 601.6617357982983 131.5453551249551 L 602.3090575518701 131.99150838623117 L 602.9563793054418 132.4376617419957 L 603.6037010590136 132.88381518799187 L 604.2510228125852 133.3299687201546 L 604.8983445661571 133.776122334602 L 605.5456663197288 134.2222760276271 L 606.1929880733005 134.66842979568975 L 606.8403098268723 135.1145836354095 L 607.487631580444 135.56073754355808 L 608.1349533340159 136.00689151705268 L 608.7822750875875 136.4530455529494 L 609.4295968411593 136.89919964843688 L 610.0769185947311 137.3453538008305 L 610.7242403483028 137.79150800756662 L 611.3715621018746 138.237662266197 L 612.0188838554463 138.68381657438368 L 612.6662056090181 139.12997092989417 L 613.3135273625899 139.57612533059645 L 613.9608491161616 140.02227977445452 L 614.6081708697334 140.4684342595242 L 615.255492623305 140.9145887839488 L 615.9028143768768 141.3607433459554 L 616.5501361304485 141.80689794385083 L 617.1974578840203 142.25305257601823 L 617.8447796375921 142.69920724091367 L 618.4921013911638 143.14536193706266 L 619.1394231447357 143.59151666305718 L 619.7867448983073 144.03767141755264 L 620.4340666518791 144.48382619926508 L 621.0813884054509 144.92998100696832 L 621.7287101590226 145.37613583949138 L 622.3760319125944 145.82229069571616 L 623.0233536661661 146.26844557457486 L 623.6706754197379 146.71460047504777 L 624.3179971733097 147.16075539616114 L 624.9653189268814 147.6069103369851 L 625.6126406804532 148.05306529663164 L 626.2599624340248 148.49922027425282 L 626.9072841875966 148.94537526903878 L 627.5546059411683 149.3915302802163 L 628.2019276947402 149.8376853070469 L 628.849249448312 150.2838403488254 L 629.4965712018837 150.7299954048783 L 630.1438929554555 151.17615047456258 L 630.7912147090274 151.6223055572641 L 631.4385364625991 152.06846065239645 L 632.0858582161707 152.51461575939956 L 632.7331799697424 152.96077087773867 L 633.3805017233143 153.40692600690306 L 634.027823476886 153.85308114640506 L 634.6751452304578 154.29923629577894 L 635.3224669840295 154.74539145457993 L 635.9697887376012 155.19154662238333 L 636.6171104911731 155.63770179878358 L 637.2644322447449 156.0838569833934 L 637.9117539983166 156.5300121758429 L 638.5590757518883 156.97616737577889 L 639.20639750546 157.42232258286413 L 639.8537192590318 157.86847779677652 L 640.5010410126037 158.31463301720848 L 641.1483627661754 158.7607882438663 L 641.7956845197469 159.20694347646946 L 642.4430062733187 159.6530987147502 L 643.0903280268906 160.09925395845266 L 643.7376497804623 160.54540920733263 L 644.3849715340341 160.9915644611568 L 645.0322932876057 161.4377197197025 L 645.6796150411775 161.88387498275694 L 646.3269367947494 162.33003025011706 L 646.9742585483211 162.77618552158887 L 647.6215803018929 163.22234079698708 L 648.2689020554647 163.66849607613486 L 648.9162238090364 164.11465135886328 L 649.563545562608 164.560806645011 L 650.2108673161799 165.006961934424 L 650.8581890697517 165.45311722695516 L 651.5055108233234 165.899272522464 L 652.1528325768952 166.34542782081638 L 652.8001543304667 166.7915831218842 L 653.4474760840386 167.2377384255451 L 654.0947978376104 167.6838937316823 L 654.7421195911821 168.1300490401842 L 655.3894413447539 168.57620435094427 L 656.0367630983255 169.0223596638608 L 656.6840848518974 169.46851497883662 L 657.3314066054692 169.91467029577896 L 657.9787283590409 170.36082561459924 L 658.6260501126127 170.80698093521286 L 659.2733718661843 171.25313625753898 L 659.9206936197562 171.6992915815005 L 660.568015373328 172.1454469070237 L 661.2153371268997 172.59160223403825 L 661.8626588804715 173.037757562477 L 662.509980634043 173.48391289227573 L 663.157302387615 173.93006822337315 L 663.8046241411867 174.3762235557108 L 664.4519458947584 174.82237888923282 L 665.0992676483302 175.26853422388587 L 665.7465894019018 175.71468955961888 L 666.3939111554738 176.1608448963833 L 667.0412329090454 176.60700023413264 L 667.6885546626172 177.0531555728225 L 668.335876416189 177.49931091241058 L 668.9831981697606 177.94546625285633 L 669.6305199233325 178.39162159412115 L 670.2778416769042 178.83777693616815 L 670.925163430476 179.28393227896203 L 671.5724851840478 179.73008762246926 L 672.2198069376195 180.17624296665755 L 672.8671286911913 180.62239831149634 L 673.5144504447629 181.0685536569563 L 674.1617721983348 181.5147090030094 L 674.8090939519064 181.960864349629 L 675.4564157054782 182.40701969678943 L 676.1037374590501 182.85317504446647 L 676.7510592126217 183.29933039263682 L 677.3983809661936 183.74548574127817 L 678.0457027197652 184.19164109036942 L 678.693024473337 184.6377964398902 L 679.3403462269088 185.08395178982127 L 679.9876679804805 185.530107140144 L 680.6349897340523 185.97626249084087 L 681.282311487624 186.42241784189494 L 681.9296332411958 186.8685731932902 L 682.5769549947676 187.3147285450112 L 683.2242767483392 187.76088389704333 L 683.8715985019111 188.20703924937249 L 684.5189202554827 188.6531946019854 L 685.1662420090545 189.0993499548692 L 685.8135637626264 189.54550530801174 L 686.4608855161981 189.99166066140134 L 687.1082072697699 190.43781601502684 L 687.7555290233415 190.88397136887764 L 688.4028507769133 191.3301267229436 L 689.050172530485 191.776282077215 L 689.6974942840568 192.2224374316826 L 690.3448160376286 192.66859278633757 L 690.9921377912003 193.11474814117148 L 691.6394595447722 193.56090349617622 L 692.2867812983438 194.00705885134414 L 692.9341030519156 194.45321420666784 L 693.5814248054874 194.89936956214038 L 694.228746559059 195.34552491775497 L 694.8760683126309 195.79168027350525 L 695.5233900662026 196.23783562938513 L 696.1707118197744 196.68399098538873 L 696.8180335733462 197.13014634151048 L 697.4653553269178 197.57630169774507 L 698.1126770804897 198.02245705408743 L 698.7599988340613 198.4686124105327 L 699.4073205876331 198.91476776707623 L 700.0546423412048 199.36092312371355 L 700.7019640947766 199.80707848044054 L 701.3492858483485 200.25323383725308 L 701.9966076019201 200.69938919414733 L 702.6439293554919 201.14554455111963 L 703.2912511090636 201.59169990816642 L 703.9385728626354 202.03785526528443 L 704.5858946162072 202.48401062247035 L 705.2332163697789 202.93016597972118 L 705.8805381233507 203.37632133703397 L 706.5278598769224 203.82247669440596 L 707.1751816304942 204.26863205183446 L 707.822503384066 204.71478740931695 L 708.4698251376376 205.16094276685095 L 709.1171468912095 205.60709812443417 L 709.7644686447811 206.05325348206438 L 710.4117903983529 206.4994088397395 L 711.0591121519248 206.94556419745746 L 711.7064339054964 207.39171955521633 L 712.3537556590683 207.83787491301428 L 713.0010774126399 208.28403027084957 L 713.6483991662117 208.7301856287205 L 714.2957209197834 209.17634098662546 L 714.9430426733552 209.62249634456293 L 715.590364426927 210.06865170253144 L 716.2376861804987 210.51480706052962 L 716.8850079340705 210.96096241855605 L 717.5323296876422 211.40711777660954 L 718.1796514412139 211.85327313468883 L 718.8269731947858 212.29942849279277 L 719.4742949483574 212.74558385092024 L 720.1216167019292 213.1917392090702 L 720.768938455501 213.63789456724163 L 721.4162602090728 214.0840499254336 L 722.0635819626445 214.53020528364505 L 722.7109037162162 214.97636064187523 L 723.358225469788 215.42251600012332 L 724.0055472233597 215.86867135838838 L 724.6528689769315 216.31482671666976 L 725.3001907305032 216.76098207496665 L 725.947512484075 217.2071374332784 L 726.5948342376468 217.65329279160434 L 727.2421559912185 218.0994481499438 L 727.8894777447903 218.54560350829624 L 728.536799498362 218.99175886666097 L 729.1841212519337 219.4379142250375 L 729.8314430055055 219.8840695834253 L 730.4787647590772 220.33022494182381 L 731.1260865126491 220.77638030023263 L 731.7734082662208 221.22253565865125 L 732.4207300197925 221.6686910170792 L 733.0680517733643 222.11484637551612 L 733.715373526936 222.56100173396158 L 734.3626952805078 223.00715709241518 L 735.0100170340795 223.45331245087655 L 735.6573387876513 223.89946780934542 L 736.304660541223 224.34562316782132 L 736.9519822947948 224.791778526304 L 737.5993040483665 225.23793388479322 L 738.2466258019383 225.68408924328855 L 738.8939475555101 226.13024460178985 L 739.5412693090818 226.57639996029673 L 740.1885910626535 227.02255531880905 L 740.8359128162253 227.46871067732647 L 741.4832345697971 227.91486603584877 L 742.1305563233689 228.36102139437583 L 742.7778780769406 228.80717675290737 L 743.4251998305123 229.25333211144311 L 744.0725215840841 229.699487469983 L 744.7198433376558 230.14564282852677 L 745.3671650912275 230.59179818707426 L 746.0144868447993 231.03795354562527 L 746.6618085983711 231.48410890417975 L 747.3091303519429 231.9302642627374 L 747.9564521055146 232.37641962129823 L 748.6037738590863 232.82257497986194 L 749.2510956126581 233.2687303384285 L 749.8984173662298 233.71488569699775 L 750.5457391198016 234.16104105556957 L 751.1930608733734 234.60719641414389 L 751.8403826269451 235.05335177272053 L 752.4877043805169 235.49950713129942 L 753.1350261340885 235.94566248988045 L 753.7823478876604 236.39181784846352 L 754.4296696412321 236.83797320704855 L 755.0769913948038 237.28412856563543 L 755.7243131483756 237.7302839242241 L 756.3716349019475 238.17643928281447 L 757.0189566555192 238.62259464140647 L 757.6662784090909 239.06875000000002" stroke-opacity="0.9" stroke-miterlimit="10" stroke-width="2" stroke-dasharray="6"/></g></g><g><g/><g><path fill="#ffffff" stroke="#e5e5e5" paint-order="fill stroke markers" d=" M 681.25 14 L 780 14 L 780 77 L 681.25 77 L 681.25 14 Z" fill-opacity="0.8" stroke-miterlimit="10" stroke-opacity="0.5"/><text fill="#444444" stroke="none" font-family="helvetica" font-size="10pt" font-style="normal" font-weight="normal" text-decoration="normal" x="716.25" y="34" text-anchor="start" dominant-baseline="central">Model</text><g><path fill="none" stroke="rgb(225,109,0)" paint-order="fill stroke markers" d=" M 691.25 34 L 711.25 34" stroke-opacity="0.9" stroke-miterlimit="10" stroke-width="2"/></g><text fill="#444444" stroke="none" font-family="helvetica" font-size="10pt" font-style="normal" font-weight="normal" text-decoration="normal" x="716.25" y="57" text-anchor="start" dominant-baseline="central">Original</text><g><path fill="none" stroke="rgb(102,180,211)" paint-order="fill stroke markers" d=" M 691.25 57 L 711.25 57" stroke-opacity="0.9" stroke-miterlimit="10" stroke-width="2" stroke-dasharray="6"/></g></g></g><g><g><path fill="none" stroke="#CAC6B6" paint-order="fill stroke markers" d=" M 79 250 L 790 250" stroke-miterlimit="10"/><path fill="none" stroke="#CAC6B6" paint-order="fill stroke markers" d=" M 111 256 L 111 250" stroke-miterlimit="10"/><path fill="none" stroke="#CAC6B6" paint-order="fill stroke markers" d=" M 240 256 L 240 250" stroke-miterlimit="10"/><path fill="none" stroke="#CAC6B6" paint-order="fill stroke markers" d=" M 370 256 L 370 250" stroke-miterlimit="10"/><path fill="none" stroke="#CAC6B6" paint-order="fill stroke markers" d=" M 499 256 L 499 250" stroke-miterlimit="10"/><path fill="none" stroke="#CAC6B6" paint-order="fill stroke markers" d=" M 628 256 L 628 250" stroke-miterlimit="10"/><path fill="none" stroke="#CAC6B6" paint-order="fill stroke markers" d=" M 758 256 L 758 250" stroke-miterlimit="10"/><path fill="none" stroke="black" paint-order="fill stroke markers" d=" M 111 250 L 111 250" stroke-miterlimit="10"/><path fill="none" stroke="black" paint-order="fill stroke markers" d=" M 176 250 L 176 250" stroke-miterlimit="10"/><path fill="none" stroke="black" paint-order="fill stroke markers" d=" M 195 250 L 195 250" stroke-miterlimit="10"/><path fill="none" stroke="black" paint-order="fill stroke markers" d=" M 207 250 L 207 250" stroke-miterlimit="10"/><path fill="none" stroke="black" paint-order="fill stroke markers" d=" M 215 250 L 215 250" stroke-miterlimit="10"/><path fill="none" stroke="black" paint-order="fill stroke markers" d=" M 221 250 L 221 250" stroke-miterlimit="10"/><path fill="none" stroke="black" paint-order="fill stroke markers" d=" M 226 250 L 226 250" stroke-miterlimit="10"/><path fill="none" stroke="black" paint-order="fill stroke markers" d=" M 230 250 L 230 250" stroke-miterlimit="10"/><path fill="none" stroke="black" paint-order="fill stroke markers" d=" M 234 250 L 234 250" stroke-miterlimit="10"/><path fill="none" stroke="black" paint-order="fill stroke markers" d=" M 237 250 L 237 250" stroke-miterlimit="10"/><path fill="none" stroke="black" paint-order="fill stroke markers" d=" M 240 250 L 240 250" stroke-miterlimit="10"/><path fill="none" stroke="black" paint-order="fill stroke markers" d=" M 305 250 L 305 250" stroke-miterlimit="10"/><path fill="none" stroke="black" paint-order="fill stroke markers" d=" M 324 250 L 324 250" stroke-miterlimit="10"/><path fill="none" stroke="black" paint-order="fill stroke markers" d=" M 336 250 L 336 250" stroke-miterlimit="10"/><path fill="none" stroke="black" paint-order="fill stroke markers" d=" M 344 250 L 344 250" stroke-miterlimit="10"/><path fill="none" stroke="black" paint-order="fill stroke markers" d=" M 350 250 L 350 250" stroke-miterlimit="10"/><path fill="none" stroke="black" paint-order="fill stroke markers" d=" M 355 250 L 355 250" stroke-miterlimit="10"/><path fill="none" stroke="black" paint-order="fill stroke markers" d=" M 360 250 L 360 250" stroke-miterlimit="10"/><path fill="none" stroke="black" paint-order="fill stroke markers" d=" M 363 250 L 363 250" stroke-miterlimit="10"/><path fill="none" stroke="black" paint-order="fill stroke markers" d=" M 367 250 L 367 250" stroke-miterlimit="10"/><path fill="none" stroke="black" paint-order="fill stroke markers" d=" M 370 250 L 370 250" stroke-miterlimit="10"/><path fill="none" stroke="black" paint-order="fill stroke markers" d=" M 434 250 L 434 250" stroke-miterlimit="10"/><path fill="none" stroke="black" paint-order="fill stroke markers" d=" M 454 250 L 454 250" stroke-miterlimit="10"/><path fill="none" stroke="black" paint-order="fill stroke markers" d=" M 465 250 L 465 250" stroke-miterlimit="10"/><path fill="none" stroke="black" paint-order="fill stroke markers" d=" M 473 250 L 473 250" stroke-miterlimit="10"/><path fill="none" stroke="black" paint-order="fill stroke markers" d=" M 480 250 L 480 250" stroke-miterlimit="10"/><path fill="none" stroke="black" paint-order="fill stroke markers" d=" M 485 250 L 485 250" stroke-miterlimit="10"/><path fill="none" stroke="black" paint-order="fill stroke markers" d=" M 489 250 L 489 250" stroke-miterlimit="10"/><path fill="none" stroke="black" paint-order="fill stroke markers" d=" M 493 250 L 493 250" stroke-miterlimit="10"/><path fill="none" stroke="black" paint-order="fill stroke markers" d=" M 496 250 L 496 250" stroke-miterlimit="10"/><path fill="none" stroke="black" paint-order="fill stroke markers" d=" M 499 250 L 499 250" stroke-miterlimit="10"/><path fill="none" stroke="black" paint-order="fill stroke markers" d=" M 564 250 L 564 250" stroke-miterlimit="10"/><path fill="none" stroke="black" paint-order="fill stroke markers" d=" M 583 250 L 583 250" stroke-miterlimit="10"/><path fill="none" stroke="black" paint-order="fill stroke markers" d=" M 595 250 L 595 250" stroke-miterlimit="10"/><path fill="none" stroke="black" paint-order="fill stroke markers" d=" M 603 250 L 603 250" stroke-miterlimit="10"/><path fill="none" stroke="black" paint-order="fill stroke markers" d=" M 609 250 L 609 250" stroke-miterlimit="10"/><path fill="none" stroke="black" paint-order="fill stroke markers" d=" M 614 250 L 614 250" stroke-miterlimit="10"/><path fill="none" stroke="black" paint-order="fill stroke markers" d=" M 618 250 L 618 250" stroke-miterlimit="10"/><path fill="none" stroke="black" paint-order="fill stroke markers" d=" M 622 250 L 622 250" stroke-miterlimit="10"/><path fill="none" stroke="black" paint-order="fill stroke markers" d=" M 625 250 L 625 250" stroke-miterlimit="10"/><path fill="none" stroke="black" paint-order="fill stroke markers" d=" M 628 250 L 628 250" stroke-miterlimit="10"/><path fill="none" stroke="black" paint-order="fill stroke markers" d=" M 693 250 L 693 250" stroke-miterlimit="10"/><path fill="none" stroke="black" paint-order="fill stroke markers" d=" M 712 250 L 712 250" stroke-miterlimit="10"/><path fill="none" stroke="black" paint-order="fill stroke markers" d=" M 724 250 L 724 250" stroke-miterlimit="10"/><path fill="none" stroke="black" paint-order="fill stroke markers" d=" M 732 250 L 732 250" stroke-miterlimit="10"/><path fill="none" stroke="black" paint-order="fill stroke markers" d=" M 738 250 L 738 250" stroke-miterlimit="10"/><path fill="none" stroke="black" paint-order="fill stroke markers" d=" M 743 250 L 743 250" stroke-miterlimit="10"/><path fill="none" stroke="black" paint-order="fill stroke markers" d=" M 748 250 L 748 250" stroke-miterlimit="10"/><path fill="none" stroke="black" paint-order="fill stroke markers" d=" M 751 250 L 751 250" stroke-miterlimit="10"/><path fill="none" stroke="black" paint-order="fill stroke markers" d=" M 755 250 L 755 250" stroke-miterlimit="10"/><path fill="none" stroke="black" paint-order="fill stroke markers" d=" M 758 250 L 758 250" stroke-miterlimit="10"/><text fill="#444444" stroke="none" font-family="helvetica" font-size="8pt" font-style="normal" font-weight="normal" text-decoration="normal" x="111" y="261" text-anchor="middle" dominant-baseline="hanging">10^-5</text><text fill="#444444" stroke="none" font-family="helvetica" font-size="8pt" font-style="normal" font-weight="normal" text-decoration="normal" x="240" y="261" text-anchor="middle" dominant-baseline="hanging">10^-3</text><text fill="#444444" stroke="none" font-family="helvetica" font-size="8pt" font-style="normal" font-weight="normal" text-decoration="normal" x="370" y="261" text-anchor="middle" dominant-baseline="hanging">10^-1</text><text fill="#444444" stroke="none" font-family="helvetica" font-size="8pt" font-style="normal" font-weight="normal" text-decoration="normal" x="499" y="261" text-anchor="middle" dominant-baseline="hanging">10^1</text><text fill="#444444" stroke="none" font-family="helvetica" font-size="8pt" font-style="normal" font-weight="normal" text-decoration="normal" x="628" y="261" text-anchor="middle" dominant-baseline="hanging">10^3</text><text fill="#444444" stroke="none" font-family="helvetica" font-size="8pt" font-style="normal" font-weight="normal" text-decoration="normal" x="758" y="261" text-anchor="middle" dominant-baseline="hanging">10^5</text><text fill="#444444" stroke="none" font-family="helvetica" font-size="10pt" font-style="italic" font-weight="normal" text-decoration="normal" x="434.3290625" y="281.27" text-anchor="middle" dominant-baseline="hanging">Frequency [rad/s]</text></g><g><path fill="none" stroke="#CAC6B6" paint-order="fill stroke markers" d=" M 79 250 L 79 4" stroke-miterlimit="10"/><path fill="none" stroke="#CAC6B6" paint-order="fill stroke markers" d=" M 73 239 L 79 239" stroke-miterlimit="10"/><path fill="none" stroke="#CAC6B6" paint-order="fill stroke markers" d=" M 73 194 L 79 194" stroke-miterlimit="10"/><path fill="none" stroke="#CAC6B6" paint-order="fill stroke markers" d=" M 73 150 L 79 150" stroke-miterlimit="10"/><path fill="none" stroke="#CAC6B6" paint-order="fill stroke markers" d=" M 73 105 L 79 105" stroke-miterlimit="10"/><path fill="none" stroke="#CAC6B6" paint-order="fill stroke markers" d=" M 73 61 L 79 61" stroke-miterlimit="10"/><path fill="none" stroke="#CAC6B6" paint-order="fill stroke markers" d=" M 73 16 L 79 16" stroke-miterlimit="10"/><path fill="none" stroke="black" paint-order="fill stroke markers" d=" M 79 239 L 79 239" stroke-miterlimit="10"/><path fill="none" stroke="black" paint-order="fill stroke markers" d=" M 79 217 L 79 217" stroke-miterlimit="10"/><path fill="none" stroke="black" paint-order="fill stroke markers" d=" M 79 210 L 79 210" stroke-miterlimit="10"/><path fill="none" stroke="black" paint-order="fill stroke markers" d=" M 79 206 L 79 206" stroke-miterlimit="10"/><path fill="none" stroke="black" paint-order="fill stroke markers" d=" M 79 203 L 79 203" stroke-miterlimit="10"/><path fill="none" stroke="black" paint-order="fill stroke markers" d=" M 79 201 L 79 201" stroke-miterlimit="10"/><path fill="none" stroke="black" paint-order="fill stroke markers" d=" M 79 199 L 79 199" stroke-miterlimit="10"/><path fill="none" stroke="black" paint-order="fill stroke markers" d=" M 79 198 L 79 198" stroke-miterlimit="10"/><path fill="none" stroke="black" paint-order="fill stroke markers" d=" M 79 197 L 79 197" stroke-miterlimit="10"/><path fill="none" stroke="black" paint-order="fill stroke markers" d=" M 79 196 L 79 196" stroke-miterlimit="10"/><path fill="none" stroke="black" paint-order="fill stroke markers" d=" M 79 194 L 79 194" stroke-miterlimit="10"/><path fill="none" stroke="black" paint-order="fill stroke markers" d=" M 79 172 L 79 172" stroke-miterlimit="10"/><path fill="none" stroke="black" paint-order="fill stroke markers" d=" M 79 166 L 79 166" stroke-miterlimit="10"/><path fill="none" stroke="black" paint-order="fill stroke markers" d=" M 79 162 L 79 162" stroke-miterlimit="10"/><path fill="none" stroke="black" paint-order="fill stroke markers" d=" M 79 159 L 79 159" stroke-miterlimit="10"/><path fill="none" stroke="black" paint-order="fill stroke markers" d=" M 79 157 L 79 157" stroke-miterlimit="10"/><path fill="none" stroke="black" paint-order="fill stroke markers" d=" M 79 155 L 79 155" stroke-miterlimit="10"/><path fill="none" stroke="black" paint-order="fill stroke markers" d=" M 79 153 L 79 153" stroke-miterlimit="10"/><path fill="none" stroke="black" paint-order="fill stroke markers" d=" M 79 152 L 79 152" stroke-miterlimit="10"/><path fill="none" stroke="black" paint-order="fill stroke markers" d=" M 79 151 L 79 151" stroke-miterlimit="10"/><path fill="none" stroke="black" paint-order="fill stroke markers" d=" M 79 150 L 79 150" stroke-miterlimit="10"/><path fill="none" stroke="black" paint-order="fill stroke markers" d=" M 79 128 L 79 128" stroke-miterlimit="10"/><path fill="none" stroke="black" paint-order="fill stroke markers" d=" M 79 121 L 79 121" stroke-miterlimit="10"/><path fill="none" stroke="black" paint-order="fill stroke markers" d=" M 79 117 L 79 117" stroke-miterlimit="10"/><path fill="none" stroke="black" paint-order="fill stroke markers" d=" M 79 114 L 79 114" stroke-miterlimit="10"/><path fill="none" stroke="black" paint-order="fill stroke markers" d=" M 79 112 L 79 112" stroke-miterlimit="10"/><path fill="none" stroke="black" paint-order="fill stroke markers" d=" M 79 110 L 79 110" stroke-miterlimit="10"/><path fill="none" stroke="black" paint-order="fill stroke markers" d=" M 79 109 L 79 109" stroke-miterlimit="10"/><path fill="none" stroke="black" paint-order="fill stroke markers" d=" M 79 108 L 79 108" stroke-miterlimit="10"/><path fill="none" stroke="black" paint-order="fill stroke markers" d=" M 79 106 L 79 106" stroke-miterlimit="10"/><path fill="none" stroke="black" paint-order="fill stroke markers" d=" M 79 105 L 79 105" stroke-miterlimit="10"/><path fill="none" stroke="black" paint-order="fill stroke markers" d=" M 79 83 L 79 83" stroke-miterlimit="10"/><path fill="none" stroke="black" paint-order="fill stroke markers" d=" M 79 76 L 79 76" stroke-miterlimit="10"/><path fill="none" stroke="black" paint-order="fill stroke markers" d=" M 79 72 L 79 72" stroke-miterlimit="10"/><path fill="none" stroke="black" paint-order="fill stroke markers" d=" M 79 70 L 79 70" stroke-miterlimit="10"/><path fill="none" stroke="black" paint-order="fill stroke markers" d=" M 79 67 L 79 67" stroke-miterlimit="10"/><path fill="none" stroke="black" paint-order="fill stroke markers" d=" M 79 66 L 79 66" stroke-miterlimit="10"/><path fill="none" stroke="black" paint-order="fill stroke markers" d=" M 79 64 L 79 64" stroke-miterlimit="10"/><path fill="none" stroke="black" paint-order="fill stroke markers" d=" M 79 63 L 79 63" stroke-miterlimit="10"/><path fill="none" stroke="black" paint-order="fill stroke markers" d=" M 79 62 L 79 62" stroke-miterlimit="10"/><path fill="none" stroke="black" paint-order="fill stroke markers" d=" M 79 61 L 79 61" stroke-miterlimit="10"/><path fill="none" stroke="black" paint-order="fill stroke markers" d=" M 79 38 L 79 38" stroke-miterlimit="10"/><path fill="none" stroke="black" paint-order="fill stroke markers" d=" M 79 32 L 79 32" stroke-miterlimit="10"/><path fill="none" stroke="black" paint-order="fill stroke markers" d=" M 79 28 L 79 28" stroke-miterlimit="10"/><path fill="none" stroke="black" paint-order="fill stroke markers" d=" M 79 25 L 79 25" stroke-miterlimit="10"/><path fill="none" stroke="black" paint-order="fill stroke markers" d=" M 79 23 L 79 23" stroke-miterlimit="10"/><path fill="none" stroke="black" paint-order="fill stroke markers" d=" M 79 21 L 79 21" stroke-miterlimit="10"/><path fill="none" stroke="black" paint-order="fill stroke markers" d=" M 79 20 L 79 20" stroke-miterlimit="10"/><path fill="none" stroke="black" paint-order="fill stroke markers" d=" M 79 18 L 79 18" stroke-miterlimit="10"/><path fill="none" stroke="black" paint-order="fill stroke markers" d=" M 79 17 L 79 17" stroke-miterlimit="10"/><path fill="none" stroke="black" paint-order="fill stroke markers" d=" M 79 16 L 79 16" stroke-miterlimit="10"/><text fill="#444444" stroke="none" font-family="helvetica" font-size="8pt" font-style="normal" font-weight="normal" text-decoration="normal" x="68" y="239" text-anchor="end" dominant-baseline="central">10^-10</text><text fill="#444444" stroke="none" font-family="helvetica" font-size="8pt" font-style="normal" font-weight="normal" text-decoration="normal" x="68" y="194" text-anchor="end" dominant-baseline="central">10^-8</text><text fill="#444444" stroke="none" font-family="helvetica" font-size="8pt" font-style="normal" font-weight="normal" text-decoration="normal" x="68" y="150" text-anchor="end" dominant-baseline="central">10^-6</text><text fill="#444444" stroke="none" font-family="helvetica" font-size="8pt" font-style="normal" font-weight="normal" text-decoration="normal" x="68" y="105" text-anchor="end" dominant-baseline="central">10^-4</text><text fill="#444444" stroke="none" font-family="helvetica" font-size="8pt" font-style="normal" font-weight="normal" text-decoration="normal" x="68" y="61" text-anchor="end" dominant-baseline="central">10^-2</text><text fill="#444444" stroke="none" font-family="helvetica" font-size="8pt" font-style="normal" font-weight="normal" text-decoration="normal" x="68" y="16" text-anchor="end" dominant-baseline="central">10^0</text><g transform="translate(17.73000000000001,127.13125) rotate(-90,0,0)"><text fill="#444444" stroke="none" font-family="helvetica" font-size="10pt" font-style="italic" font-weight="normal" text-decoration="normal" x="0" y="0" text-anchor="middle" dominant-baseline="alphabetic">Gain [dB]</text><g transform="rotate(90,0,0) translate(-17.73000000000001,-127.13125)"/></g></g></g></g></g></svg>