<svg version="1.1" xmlns="http://www.w3.org/2000/svg" xmlns:xlink="http://www.w3.org/1999/xlink" width="800" height="300" style="width: 800px; height: 300px;"><defs/><g><g/><g transform="scale(1,1) translate(0.5,0.5)"><rect fill="#FFFFFF" stroke="none" x="0" y="0" width="800" height="300"/><rect fill="#ffffff" stroke="none" x="0" y="0" width="800" height="300"/><rect fill="#FFFFFF" stroke="none" x="60.85187500000001" y="4" width="729.1481249999999" height="246.2625"/><rect fill="#ffffff" stroke="none" x="60.85187500000001" y="4" width="729.1481249999999" height="246.2625"/><g/><g><g><path fill="none" stroke="#e5e5e5" paint-order="fill stroke markers" d=" M 94 250 L 94 4" stroke-miterlimit="10"/><path fill="none" stroke="#e5e5e5" paint-order="fill stroke markers" d=" M 227 250 L 227 4" stroke-miterlimit="10"/><path fill="none" stroke="#e5e5e5" paint-order="fill stroke markers" d=" M 359 250 L 359 4" stroke-miterlimit="10"/><path fill="none" stroke="#e5e5e5" paint-order="fill stroke markers" d=" M 492 250 L 492 4" stroke-miterlimit="10"/><path fill="none" stroke="#e5e5e5" paint-order="fill stroke markers" d=" M 624 250 L 624 4" stroke-miterlimit="10"/><path fill="none" stroke="#e5e5e5" paint-order="fill stroke markers" d=" M 757 250 L 757 4" stroke-miterlimit="10"/></g><g><path fill="none" stroke="#e5e5e5" paint-order="fill stroke markers" d=" M 61 243 L 790 243" stroke-miterlimit="10"/><path fill="none" stroke="#e5e5e5" paint-order="fill stroke markers" d=" M 61 209 L 790 209" stroke-miterlimit="10"/><path fill="none" stroke="#e5e5e5" paint-order="fill stroke markers" d=" M 61 175 L 790 175" stroke-miterlimit="10"/><path fill="none" stroke="#e5e5e5" paint-order="fill stroke markers" d=" M 61 141 L 790 141" stroke-miterlimit="10"/><path fill="none" stroke="#e5e5e5" paint-order="fill stroke markers" d=" M 61 107 L 790 107" stroke-miterlimit="10"/><path fill="none" stroke="#e5e5e5" paint-order="fill stroke markers" d=" M 61 72 L 790 72" stroke-miterlimit="10"/><path fill="none" stroke="#e5e5e5" paint-order="fill stroke markers" d=" M 61 38 L 790 38" stroke-miterlimit="10"/></g><g><path fill="none" stroke="none"/><path fill="none" stroke="rgb(225,109,0)" paint-order="fill stroke markers" d=" M 93.9949715909091 4.000784173027114 L 94.65849704818459 4.000802457258885 L 95.32202250546001 4.0008211678164685 L 95.9855479627355 4.000840314640129 L 96.64907342001096 4.0008599079022815 L 97.31259887728638 4.000879958012263 L 97.97612433456186 4.000900475622132 L 98.63964979183734 4.000921471632523 L 99.30317524911277 4.000942957198049 L 99.96670070638824 4.000964943733379 L 100.63022616366366 4.000987442919552 L 101.29375162093913 4.001010466709715 L 101.95727707821462 4.001034027335891 L 102.62080253549004 4.001058137315283 L 103.28432799276551 4.001082809456875 L 103.94785345004098 4.001108056868361 L 104.6113789073164 4.001133892963139 L 105.27490436459189 4.00116033146719 L 105.93842982186732 4.00118738642675 L 106.6019552791428 4.001215072215359 L 107.26548073641827 4.001243403541878 L 107.92900619369368 4.0012723954579315 L 108.59253165096916 4.001302063366268 L 109.25605710824465 4.001332423028771 L 109.91958256552007 4.001363490574647 L 110.58310802279554 4.001395282509407 L 111.24663348007101 4.001427815723332 L 111.91015893734644 4.001461107500518 L 112.57368439462192 4.001495175527964 L 113.23720985189735 4.0015300379052405 L 113.90073530917283 4.001565713153923 L 114.56426076644829 4.001602220227312 L 115.22778622372373 4.001639578520724 L 115.8913116809992 4.00167780788172 L 116.55483713827468 4.001716928620567 L 117.2183625955501 4.0017569615212665 L 117.88188805282557 4.001797927852181 L 118.545413510101 4.001839849377745 L 119.20893896737647 4.001882748369837 L 119.87246442465195 4.001926647619655 L 120.53598988192738 4.0019715704497685 L 121.19951533920285 4.00201754072657 L 121.86304079647833 4.002064582872947 L 122.52656625375374 4.00211272188119 L 123.19009171102923 4.002161983326346 L 123.85361716830465 4.002212393379921 L 124.51714262558014 4.002263978823407 L 125.1806680828556 4.0023167670629505 L 125.84419354013103 4.002370786143615 L 126.5077189974065 4.002426064764336 L 127.17124445468198 4.002482632293436 L 127.83476991195741 4.0025405187836895 L 128.4982953692329 4.002599754988864 L 129.16182082650835 4.002660372379637 L 129.82534628378377 4.002722403160533 L 130.48887174105926 4.0027858802870355 L 131.15239719833468 4.0028508374828675 L 131.81592265561017 4.002917309258237 L 132.47944811288562 4.002985330928027 L 133.14297357016108 4.003054938630328 L 133.80649902743653 4.003126169346103 L 134.470024484712 4.003199060918405 L 135.13354994198744 4.003273652072778 L 135.7970753992629 4.003349982437612 L 136.46060085653835 4.0034280925654 L 137.1241263138138 4.003508023954112 L 137.7876517710893 4.003589819069248 L 138.4511772283647 4.003673521366579 L 139.1147026856402 4.0037591753151105 L 139.77822814291568 4.003846826420613 L 140.44175360019108 4.003936521249955 L 141.10527905746656 4.004028307455826 L 141.76880451474204 4.0041222338019224 L 142.43232997201747 4.004218350188978 L 143.09585542929295 4.004316707681312 L 143.75938088656835 4.0044173585338285 L 144.42290634384386 4.004520356219757 L 145.08643180111932 4.004625755459301 L 145.74995725839474 4.004733612248458 L 146.41348271567023 4.004843983888861 L 147.07700817294568 4.004956929018192 L 147.74053363022114 4.005072507641501 L 148.4040590874966 4.005190781162753 L 149.06758454477205 4.005311812417858 L 149.7311100020475 4.005435665707637 L 150.39463545932296 4.005562406832269 L 151.0581609165984 4.0056921031262505 L 151.72168637387387 4.005824823493981 L 152.38521183114932 4.005960638446538 L 153.04873728842477 4.006099620139025 L 153.71226274570023 4.00624184240894 L 154.37578820297568 4.006387380815511 L 155.03931366025114 4.006536312679657 L 155.70283911752662 4.006688717125257 L 156.36636457480205 4.006844675120931 L 157.0298900320775 4.00700426952335 L 157.693415489353 4.007167585121124 L 158.3569409466284 4.007334708679707 L 159.0204664039039 4.007505728987724 L 159.68399186117938 4.007680736904035 L 160.34751731845486 4.007859825406058 L 161.0110427757303 4.008043089639045 L 161.67456823300574 4.008230626966736 L 162.33809369028126 4.00842253702308 L 163.00161914755665 4.008618921765162 L 163.66514460483214 4.008819885527316 L 164.32867006210762 4.009025535076546 L 164.99219551938302 4.009235979669484 L 165.65572097665853 4.009451331110029 L 166.31924643393393 4.009671703809147 L 166.98277189120938 4.009897214845296 L 167.6462973484849 4.010127984026951 L 168.3098228057603 4.010364133956102 L 168.9733482630358 4.010605790093223 L 169.63687372031126 4.010853080824404 L 170.30039917758666 4.011106137528884 L 170.96392463486217 4.011365094649591 L 171.62745009213762 4.011630089763855 L 172.29097554941308 4.011901263657137 L 172.95450100668853 4.012178760397262 L 173.61802646396393 4.012462727411503 L 174.28155192123944 4.012753315564339 L 174.9450773785149 4.013050679238177 L 175.60860283579032 4.013354976414803 L 176.2721282930658 4.013666368759857 L 176.9356537503413 4.013985021708265 L 177.59917920761671 4.014311104552405 L 178.26270466489217 4.014644790532088 L 178.9262301221676 4.0149862569262496 L 179.58975557944308 4.015335685147534 L 180.25328103671856 4.015693260838418 L 180.916806493994 4.01605917396995 L 181.58033195126947 4.016433618942699 L 182.24385740854495 4.01681679468993 L 182.90738286582035 4.017208904783274 L 183.57090832309584 4.017610157541128 L 184.23443378037126 4.0180207661390455 L 184.89795923764675 4.0184409487230255 L 185.56148469492223 4.018870928525644 L 186.22501015219765 4.0193109339844 L 186.88853560947314 4.01976119886308 L 187.5520610667486 4.02022196237624 L 188.21558652402402 4.020693469315972 L 188.8791119812995 4.021175970182014 L 189.54263743857496 4.021669721314993 L 190.2061628958504 4.022174985032507 L 190.86968835312587 4.022692029768393 L 191.5332138104013 4.023221130215518 L 192.19673926767678 4.0237625674716355 L 192.86026472495223 4.024316629188661 L 193.52379018222769 4.024883609725691 L 194.18731563950314 4.025463810305041 L 194.85084109677862 4.026057539172655 L 195.51436655405405 4.026665111761588 L 196.17789201132953 4.027286850859809 L 196.84141746860496 4.02792308678147 L 197.5049429258804 4.028574157542607 L 198.16846838315587 4.029240409040426 L 198.83199384043135 4.029922195237475 L 199.4955192977068 4.030619878349228 L 200.15904475498226 4.031333829036953 L 200.82257021225774 4.032064426604393 L 201.4860956695332 4.032812059199216 L 202.14962112680865 4.033577124019416 L 202.8131465840841 4.034360027524258 L 203.47667204135956 4.035161185650111 L 204.14019749863502 4.035981024031685 L 204.80372295591047 4.036819978227754 L 205.46724841318593 4.03767849395291 L 206.13077387046138 4.038557027314312 L 206.79429932773684 4.039456045053726 L 207.4578247850123 4.040376024795762 L 208.12135024228775 4.04131745530151 L 208.78487569956323 4.04228083672831 L 209.44840115683868 4.043266680895272 L 210.1119266141141 4.044275511555327 L 210.77545207138962 4.045307864673475 L 211.43897752866505 4.046364288711345 L 212.1025029859405 4.047445344918856 L 212.76602844321596 4.048551607632248 L 213.42955390049144 4.0496836645790495 L 214.0930793577669 4.050842117190541 L 214.75660481504232 4.052027580921219 L 215.42013027231778 4.053240685575702 L 216.08365572959326 4.05448207564325 L 216.74718118686872 4.055752410640309 L 217.41070664414414 4.057052365460777 L 218.0742321014196 4.058382630734627 L 218.73775755869508 4.059743913194609 L 219.40128301597053 4.06113693605198 L 220.064808473246 4.062562439380486 L 220.72833393052142 4.064021180509542 L 221.39185938779693 4.065513934426804 L 222.05538484507238 4.067041494189482 L 222.71891030234784 4.068604671345895 L 223.3824357596233 4.070204296366569 L 224.04596121689875 4.0718412190854 L 224.7094866741742 4.073516309151046 L 225.37301213144966 4.0752304564890665 L 226.0365375887251 4.076984571774403 L 226.70006304600057 4.078779586915573 L 227.36358850327602 4.080616455549205 L 228.02711396055147 4.082496153547083 L 228.69063941782696 4.084419679534392 L 229.35416487510238 4.086388055420116 L 230.01769033237784 4.0884023269398995 L 230.6812157896533 4.0904635642117455 L 231.34474124692878 4.09257286230428 L 232.00826670420423 4.0947313418185445 L 232.6717921614797 4.096940149483203 L 233.33531761875514 4.099200458763846 L 233.9988430760306 4.101513470485941 L 234.66236853330605 4.103880413473291 L 235.3258939905815 4.106302545200208 L 235.98941944785696 4.108781152459869 L 236.65294490513241 4.111317552047524 L 237.31647036240787 4.11391309146012 L 237.97999581968332 4.1165691496121894 L 238.6435212769588 4.119287137567881 L 239.30704673423426 4.122068499290833 L 239.9705721915097 4.124914712410941 L 240.63409764878514 4.12782728900936 L 241.29762310606063 4.13080777642142 L 241.96114856333608 4.133857758058639 L 242.62467402061154 4.136978854249719 L 243.28819947788696 4.1401727231010454 L 243.95172493516245 4.143441061377473 L 244.6152503924379 4.146785605403238 L 245.27877584971333 4.150208131984471 L 245.9423013069888 4.153710459352567 L 246.60582676426426 4.15729444812996 L 247.26935222153972 4.160962002318286 L 247.93287767881517 4.164715070309285 L 248.5964031360906 4.1685556459198665 L 249.2599285933661 4.172485769450702 L 249.92345405064157 4.176507528769605 L 250.586979507917 4.180623060420601 L 251.2505049651925 4.184834550758012 L 251.91403042246793 4.189144237107769 L 252.57755587974336 4.193554408955151 L 253.24108133701884 4.198067409160615 L 253.9046067942943 4.202685635203693 L 254.56813225156978 4.207411540455951 L 255.2316577088452 4.212247635483379 L 255.89518316612063 4.217196489379546 L 256.5587086233961 4.222260731129438 L 257.22223408067157 4.227443051004968 L 257.885759537947 4.232746201993336 L 258.5492849952225 4.238173001258247 L 259.21281045249793 4.243726331635401 L 259.8763359097734 4.249409143162836 L 260.53986136704884 4.2552244546463385 L 261.2033868243243 4.261175355262139 L 261.8669122815998 4.267265006196112 L 262.5304377388752 4.2734966423213905 L 263.1939631961507 4.279873573915324 L 263.8574886534262 4.286399188415714 L 264.52101411070157 4.293076952218428 L 265.1845395679771 4.299910412516567 L 265.8480650252525 4.3069031991825 L 266.511590482528 4.314059026693371 L 267.17511593980345 4.321381696101753 L 267.83864139707885 4.328875097051878 L 268.50216685435436 4.336543209842432 L 269.16569231162987 4.344390107538118 L 269.82921776890527 4.352419958129019 L 270.4927432261807 4.360637026741244 L 271.1562686834562 4.3690456778983275 L 271.81979414073163 4.377650377834982 L 272.48331959800714 4.386455696865028 L 273.14684505528254 4.39546631180383 L 273.81037051255805 4.404687008447127 L 274.4738959698335 4.414122684107326 L 275.1374214271089 4.423778350208465 L 275.8009468843844 4.433659134941422 L 276.46447234165987 4.4437702859806905 L 277.1279977989353 4.454117173263967 L 277.7915232562108 4.464705291836083 L 278.4550487134862 4.4755402647589335 L 279.1185741707617 4.486627846088595 L 279.78209962803714 4.4979739239211085 L 280.4456250853126 4.509584523509261 L 281.10915054258805 4.5214658104507635 L 281.7726759998635 4.533624093950607 L 282.43620145713896 4.546065830158227 L 283.0997269144144 4.558797625582201 L 283.7632523716899 4.571826240583334 L 284.4267778289653 4.585158592948574 L 285.0903032862408 4.598801761547122 L 285.75382874351624 4.612762990070735 L 286.4173542007917 4.627049690860304 L 287.08087965806715 4.64166944882038 L 287.7444051153426 4.65663002542334 L 288.40793057261806 4.671939362806427 L 289.0714560298935 4.687605587961798 L 289.73498148716897 4.703637017023652 L 290.3985069444444 4.720042159652735 L 291.0620324017199 4.736829723522192 L 291.72555785899533 4.754008618905402 L 292.3890833162708 4.7715879633689156 L 293.0526087735463 4.7895770865728196 L 293.7161342308217 4.807985535180194 L 294.37965968809715 4.826823077879169 L 295.0431851453726 4.846099710518558 L 295.70671060264806 4.8658256613609865 L 296.37023605992357 4.8860113964550465 L 297.033761517199 4.906667625129387 L 297.6972869744744 4.9278053056114 L 298.3608124317499 4.949435650773125 L 299.02433788902533 4.971570134006583 L 299.68786334630084 4.9942204952325255 L 300.3513888035763 5.017398747043444 L 301.01491426085175 5.041117180985964 L 301.67843971812715 5.065388373983183 L 302.3419651754026 5.090225194901791 L 303.0054906326781 5.115640811265337 L 303.66901608995363 5.141648696118239 L 304.332541547229 5.168262635041685 L 304.9960670045045 5.1954967333263085 L 305.65959246177994 5.223365423303392 L 306.3231179190554 5.2518834718384255 L 306.9866433763309 5.281065987989848 L 307.65016883360636 5.310928430836384 L 308.3136942908818 5.341486617476107 L 308.97721974815727 5.372756731200184 L 309.6407452054327 5.404755329845216 L 310.3042706627082 5.437499354326462 L 310.96779611998363 5.4710061373565395 L 311.6313215772591 5.505293412351421 L 312.29484703453454 5.540379322528452 L 312.95837249181 5.576282430198262 L 313.62189794908545 5.613021726255283 L 314.2854234063609 5.65061663986927 L 314.94894886363636 5.689087048381111 L 315.6124743209118 5.72845328740641 L 316.27599977818727 5.768736161150514 L 316.9395252354627 5.80995695293683 L 317.6030506927382 5.852137435953011 L 318.26657615001363 5.895299884217366 L 318.9301016072891 5.939467083768022 L 319.59362706456454 5.984662344079084 L 320.25715252184 6.030909509705339 L 320.92067797911545 6.07823297215873 L 321.5842034363909 6.126657682019186 L 322.2477288936664 6.176209161282486 L 322.9112543509419 6.226913515946762 L 323.5747798082173 6.2787974488407485 L 324.2383052654928 6.331888272694755 L 324.9018307227682 6.386213923456808 L 325.5653561800437 6.44180297385509 L 326.22888163731915 6.498684647208165 L 326.89240709459455 6.556888831483434 L 327.55593255187006 6.616446093605532 L 328.21945800914546 6.677387694013362 L 328.88298346642097 6.739745601467462 L 329.5465089236964 6.803552508106009 L 330.2100343809719 6.868841844748829 L 330.87355983824733 6.935647796448279 L 331.5370852955228 7.004005318284953 L 332.20061075279824 7.073950151405484 L 332.8641362100737 7.145518839299768 L 333.52766166734915 7.218748744313416 L 334.1911871246246 7.293678064391031 L 334.85471258190006 7.370345850045396 L 335.5182380391755 7.448792021546012 L 336.18176349645097 7.529057386320005 L 336.8452889537264 7.611183656557557 L 337.5088144110019 7.695213467012934 L 338.17233986827733 7.781190392990652 L 338.83586532555285 7.869158968505133 L 339.49939078282824 7.95916470460196 L 340.1629162401037 8.051254107825798 L 340.8264416973792 8.145474698819896 L 341.4899671546546 8.241875031039683 L 342.1534926119301 8.340504709561571 L 342.8170180692055 8.441414409966285 L 343.48054352648103 8.544655897274197 L 344.1440689837565 8.650282044907158 L 344.8075944410319 8.758346853650778 L 345.4711198983074 8.86890547058681 L 346.1346453555828 8.982014207964369 L 346.7981708128583 9.09773056197514 L 347.46169627013376 9.216113231394786 L 348.1252217274092 9.337222136050798 L 348.78874718468467 9.461118435072194 L 349.4522726419601 9.587864544874833 L 350.1157980992356 9.717524156830791 L 350.77932355651103 9.85016225456826 L 351.4428490137865 9.985845130842222 L 352.10637447106194 10.124640403914839 L 352.7698999283374 10.266617033376292 L 353.43342538561285 10.411845335336523 L 354.0969508428883 10.560396996908992 L 354.76047630016376 10.712345089905966 L 355.42400175743927 10.867764083657505 L 356.08752721471467 11.026729856861095 L 356.7510526719901 11.189319708363598 L 357.4145781292656 11.355612366770004 L 358.07810358654103 11.525687998768262 L 358.74162904381654 11.699628216052247 L 359.40515450109206 11.877516080718294 L 360.06867995836745 12.059436109003286 L 360.73220541564297 12.245474273226534 L 361.3957308729183 12.435718001788416 L 362.0592563301938 12.630256177072567 L 362.72278178746933 12.82917913109037 L 363.3863072447448 13.032578638699192 L 364.04983270202024 13.240547908217422 L 364.7133581592957 13.453181569251512 L 365.3768836165711 13.670575657544475 L 366.0404090738466 13.892827596644793 L 366.70393453112206 14.120036176189956 L 367.3674599883975 14.352301526589997 L 368.03098544567297 14.589725089891147 L 368.6945109029484 14.832409586592462 L 369.3580363602239 15.080458978182719 L 370.02156181749933 15.333978425161092 L 370.6850872747748 15.59307424029953 L 371.34861273205024 15.85785383690262 L 372.0121381893257 16.12842567181923 L 372.67566364660115 16.404899182957934 L 373.3391891038766 16.687384721061676 L 374.0027145611521 16.9759934754984 L 374.6662400184275 17.2708373938288 L 375.32976547570297 17.572029094921334 L 375.9932909329784 17.879681775391816 L 376.6568163902539 18.193909109158824 L 377.3203418475294 18.514825139921015 L 377.9838673048048 18.84254416638055 L 378.64739276208024 19.177180620060426 L 379.31091821935576 19.51884893558747 L 379.97444367663115 19.867663413346293 L 380.63796913390667 20.223738074440917 L 381.3014945911821 20.58718650794367 L 381.9650200484576 20.958121710453554 L 382.62854550573303 21.336655918037707 L 383.2920709630084 21.722900430684433 L 383.95559642028394 22.11696542945856 L 384.6191218775594 22.518959786616335 L 385.28264733483485 22.92899086901116 L 385.9461727921103 23.347164335199977 L 386.60969824938576 23.773583926745175 L 387.2732237066612 24.20835125429926 L 387.93674916393667 24.651565579153214 L 388.6002746212121 25.103323591033643 L 389.2638000784876 25.563719183037392 L 389.92732553576303 26.032843224704663 L 390.5908509930385 26.510783334342364 L 391.25437645031394 26.99762365182687 L 391.9179019075894 27.4934446132296 L 392.58142736486485 27.99832272872783 L 393.2449528221403 28.512330365374225 L 393.90847827941576 29.035535536412794 L 394.5720037366912 29.5680016989333 L 395.2355291939667 30.10978756175632 L 395.8990546512421 30.660946905530125 L 396.5625801085176 31.221528417100842 L 397.2261055657931 31.791575540281258 L 397.8896310230685 32.37112634519417 L 398.553156480344 32.960213418396904 L 399.21668193761946 33.55886377600541 L 399.88020739489485 34.167098802024384 L 400.54373285217036 34.784934214054545 L 401.20725830944576 35.41238005848487 L 401.8707837667213 36.049440737189855 L 402.53430922399673 36.6961150676301 L 403.1978346812722 37.35239637810861 L 403.86136013854764 38.018272639755196 L 404.5248855958231 38.6937266366034 L 405.18841105309855 39.37873617488776 L 405.851936510374 40.07327433242398 L 406.51546196764946 40.77730974864488 L 407.1789874249249 41.49080695555199 L 407.84251288220037 42.213726749510045 L 408.5060383394758 42.94602660346419 L 409.1695637967513 43.687661118799326 L 409.83308925402673 44.43858251569637 L 410.4966147113022 45.19874116047265 L 411.16014016857764 45.96808612803244 L 411.82366562585315 46.74656579720033 L 412.48719108312855 47.534128476375685 L 413.150716540404 48.33072305663188 L 413.8142419976795 49.13629968909717 L 414.4777674549549 49.95081048320128 L 415.1412929122304 50.77421022215327 L 415.8048183695058 51.6064570918428 L 416.46834382678134 52.44751341922412 L 417.1318692840568 53.297346416160394 L 417.7953947413322 54.1559289246693 L 418.4589201986077 55.023240159526864 L 419.1224456558831 55.899266444249264 L 419.7859711131586 56.78400193658484 L 420.44949657043406 57.67744933980583 L 421.11302202770946 58.57962059629054 L 421.776547484985 59.490537560125944 L 422.44007294226043 60.410232645735675 L 423.1035983995359 61.33874944984325 L 423.76712385681134 62.276143344408865 L 424.4306493140868 63.22248203852604 L 425.09417477136225 64.17784610762578 L 425.7577002286377 65.14232948870327 L 426.4212256859131 66.11603994065209 L 427.08475114318856 67.09909946915698 L 427.7482766004641 68.09164471595193 L 428.4118020577395 69.09382731259416 L 429.075327515015 70.10581419923 L 429.7388529722905 71.12778790913126 L 430.40237842956583 72.15994682006209 L 431.0659038868414 73.202505373788 L 431.7294293441168 74.2556942652638 L 432.39295480139225 75.3197606032328 L 433.05648025866776 76.39496804413494 L 433.7200057159431 77.48159690135674 L 434.38353117321867 78.57994423196283 L 435.0470566304941 79.69032390312651 L 435.7105820877695 80.81306664052812 L 436.37410754504504 81.94852006101499 L 437.0376330023205 83.0970486918198 L 437.70115845959594 84.25903397861552 L 438.36468391687146 85.43487428464493 L 439.0282093741468 86.62498488311101 L 439.6917348314223 87.82979794494184 L 440.35526028869776 89.04976252396443 L 441.0187857459732 90.28534454142863 L 441.68231120324873 91.53702677172379 L 442.3458366605242 92.80530883102455 L 443.0093621177996 94.09070717049315 L 443.67288757507504 95.39375507555351 L 444.3364130323505 96.71500267263991 L 444.999938489626 98.05501694471076 L 445.66346394690146 99.41438175670811 L 446.32698940417686 100.79369789203508 L 446.9905148614523 102.19358310102066 L 447.65404031872777 103.61467216224139 L 448.3175657760033 105.05761695747421 L 448.98109123327873 106.52308656096699 L 449.6446166905542 108.01176734362866 L 450.3081421478296 109.52436309266386 L 450.9716676051051 111.06159514710566 L 451.63519306238055 112.62420254963382 L 452.298718519656 114.21294221500767 L 452.96224397693146 115.82858911538807 L 453.62576943420686 117.47193648277567 L 454.28929489148237 119.14379602875056 L 454.9528203487578 120.84499818166123 L 455.6163458060333 122.57639234137847 L 456.27987126330873 124.3388471517033 L 456.94339672058425 126.13325079049525 L 457.60692217785964 127.96051127756795 L 458.2704476351351 129.82155680038565 L 458.93397309241055 131.717336057582 L 459.59749854968607 133.6488186203154 L 460.2610240069615 135.6169953114702 L 460.9245494642369 137.62287860271073 L 461.5880749215124 139.66750302939656 L 462.2516003787878 141.75192562336815 L 462.91512583606334 143.87722636361923 L 463.5786512933388 146.04450864487646 L 464.2421767506142 148.25489976411637 L 464.90570220788965 150.5095514250587 L 465.5692276651651 152.80964026068534 L 466.2327531224406 155.15636837384727 L 466.89627857971607 157.55096389603244 L 467.5598040369915 159.99468156438394 L 468.2233294942669 162.4888033170686 L 468.8868549515424 165.0346389071144 L 469.5503804088179 167.63352653484725 L 470.21390586609334 170.28683349907593 L 470.8774313233688 172.9959568671884 L 471.5409567806442 175.76232416433973 L 472.2044822379197 178.5873940819278 L 472.86800769519516 181.47265720557067 L 473.5315331524706 184.41963676281574 L 474.19505860974607 187.42988939082704 L 474.8585840670216 190.50500592431592 L 475.522109524297 193.64661220399572 L 476.18563498157243 196.8563699058587 L 476.8491604388479 200.13597739159155 L 477.51268589612334 203.4871705804614 L 478.17621135339886 206.91172384302257 L 478.83973681067425 210.41145091701173 L 479.5032622679497 213.98820584581486 L 480.16678772522516 217.6438839399086 L 480.8303131825007 221.38042276169423 L 481.49383863977613 225.1998031341608 L 482.1573640970516 229.10405017383036 L 482.820889554327 233.09523434845715 L 483.48441501160244 237.1754725599673 L 484.14794046887795 241.3469292531461 L 484.8114659261534 245.611817550595 L 485.47499138342886 249.97240041449913" stroke-opacity="0.9" stroke-miterlimit="10" stroke-width="2"/></g><g><path fill="none" stroke="none"/><path fill="none" stroke="rgb(102,180,211)" paint-order="fill stroke markers" d=" M 93.9949715909091 4.000783877883464 L 94.65849704818459 4.0008021552335435 L 95.32202250546001 4.0008208587488525 L 95.9855479627355 4.000839998366189 L 96.64907342001096 4.000859584253874 L 97.31259887728638 4.0008796268174365 L 97.97612433456186 4.000900136705013 L 98.63964979183734 4.000921124813033 L 99.30317524911277 4.0009426022919 L 99.96670070638824 4.000964580552079 L 100.63022616366366 4.00098707127006 L 101.29375162093913 4.001010086394615 L 101.95727707821462 4.00103363815316 L 102.62080253549004 4.001057739058126 L 103.28432799276551 4.00108240191372 L 103.94785345004098 4.001107639822749 L 104.6113789073164 4.001133466193437 L 105.27490436459189 4.001159894746706 L 105.93842982186732 4.00118693952345 L 106.6019552791428 4.001214614891808 L 107.26548073641827 4.001242935555069 L 107.92900619369368 4.00127191655929 L 108.59253165096916 4.001301573301362 L 109.25605710824465 4.001331921537201 L 109.91958256552007 4.001362977390045 L 110.58310802279554 4.001394757359094 L 111.24663348007101 4.001427278328322 L 111.91015893734644 4.0014605575752284 L 112.57368439462192 4.001494612780334 L 113.23720985189735 4.001529462036331 L 113.90073530917283 4.001565123857688 L 114.56426076644829 4.001601617190715 L 115.22778622372373 4.001638961423396 L 115.8913116809992 4.001677176395788 L 116.55483713827468 4.001716282410598 L 117.2183625955501 4.001756300243812 L 117.88188805282557 4.001797251156006 L 118.545413510101 4.001839156903372 L 119.20893896737647 4.0018820397493755 L 119.87246442465195 4.001925922476573 L 120.53598988192738 4.001970828398839 L 121.19951533920285 4.002016781373584 L 121.86304079647833 4.00206380581443 L 122.52656625375374 4.002111926704345 L 123.19009171102923 4.002161169608769 L 123.85361716830465 4.002211560689204 L 124.51714262558014 4.002263126717253 L 125.1806680828556 4.0023158950886 L 125.84419354013103 4.002369893837795 L 126.5077189974065 4.002425151653085 L 127.17124445468198 4.00248169789154 L 127.83476991195741 4.002539562594791 L 128.4982953692329 4.0025987765049535 L 129.16182082650835 4.002659371080881 L 129.82534628378377 4.002721378514934 L 130.48887174105926 4.002784831750205 L 131.15239719833468 4.002849764497796 L 131.81592265561017 4.002916211254899 L 132.47944811288562 4.002984207323038 L 133.14297357016108 4.003053788826776 L 133.80649902743653 4.003124992733092 L 134.470024484712 4.003197856870884 L 135.13354994198744 4.003272419951088 L 135.7970753992629 4.003348721587145 L 136.46060085653835 4.003426802316255 L 137.1241263138138 4.003506703620815 L 137.7876517710893 4.003588467950408 L 138.4511772283647 4.003672138744378 L 139.1147026856402 4.00375776045496 L 139.77822814291568 4.003845378570816 L 140.44175360019108 4.003935039641419 L 141.10527905746656 4.004026791301328 L 141.76880451474204 4.004120682295991 L 142.43232997201747 4.00421676250744 L 143.09585542929295 4.004315082980611 L 143.75938088656835 4.00441569595074 L 144.42290634384386 4.004518654871106 L 145.08643180111932 4.0046240144412195 L 145.74995725839474 4.00473183063599 L 146.41348271567023 4.00484216073545 L 147.07700817294568 4.0049550633553395 L 147.74053363022114 4.005070598477971 L 148.4040590874966 4.005188827484346 L 149.06758454477205 4.005309813186557 L 149.7311100020475 4.005433619861378 L 150.39463545932296 4.005560313284207 L 151.0581609165984 4.005689960764187 L 151.72168637387387 4.005822631179683 L 152.38521183114932 4.005958395015341 L 153.04873728842477 4.006097324399093 L 153.71226274570023 4.00623949314064 L 154.37578820297568 4.0063849767707325 L 155.03931366025114 4.006533852581299 L 155.70283911752662 4.006686199666319 L 156.36636457480205 4.006842098964057 L 157.0298900320775 4.0070016332999785 L 157.693415489353 4.007164887430633 L 158.3569409466284 4.007331948089018 L 159.0204664039039 4.007502904030218 L 159.68399186117938 4.007677846079048 L 160.34751731845486 4.007856867177736 L 161.0110427757303 4.008040062435896 L 161.67456823300574 4.0082275291805445 L 162.33809369028126 4.008419367008173 L 163.00161914755665 4.00861567783744 L 163.66514460483214 4.008816565963514 L 164.32867006210762 4.00902213811321 L 164.99219551938302 4.0092325035019485 L 165.65572097665853 4.009447773891679 L 166.31924643393393 4.009668063650167 L 166.98277189120938 4.0098934898119865 L 167.6462973484849 4.010124172140479 L 168.3098228057603 4.01036023319142 L 168.9733482630358 4.010601798378161 L 169.63687372031126 4.010848996038419 L 170.30039917758666 4.011101957502149 L 170.96392463486217 4.01136081716146 L 171.62745009213762 4.011625712542127 L 172.29097554941308 4.011896784376518 L 172.95450100668853 4.0121741766784 L 173.61802646396393 4.012458036819339 L 174.28155192123944 4.0127485156073135 L 174.9450773785149 4.013045767366464 L 175.60860283579032 4.01334995001929 L 176.2721282930658 4.013661225170438 L 176.9356537503413 4.013979758192761 L 177.59917920761671 4.014305718314915 L 178.26270466489217 4.014639278711456 L 178.9262301221676 4.014980616594755 L 179.58975557944308 4.015329913309188 L 180.25328103671856 4.015687354427371 L 180.916806493994 4.016053129848899 L 181.58033195126947 4.016427433901242 L 182.24385740854495 4.016810465442859 L 182.90738286582035 4.017202427968812 L 183.57090832309584 4.017603529719111 L 184.23443378037126 4.018013983789217 L 184.89795923764675 4.018434008243048 L 185.56148469492223 4.018863826229278 L 186.22501015219765 4.019303666099404 L 186.88853560947314 4.0197537615295005 L 187.5520610667486 4.020214351644086 L 188.21558652402402 4.0206856811431635 L 188.8791119812995 4.021168000432397 L 189.54263743857496 4.0216615657560055 L 190.2061628958504 4.022166639332966 L 190.86968835312587 4.0226834894962735 L 191.5332138104013 4.0232123908355675 L 192.19673926767678 4.0237536243428735 L 192.86026472495223 4.024307477562104 L 193.52379018222769 4.024874244741568 L 194.18731563950314 4.025454226990632 L 194.85084109677862 4.026047732439338 L 195.51436655405405 4.026655076402221 L 196.17789201132953 4.027276581545948 L 196.84141746860496 4.02791257806075 L 197.5049429258804 4.028563403835506 L 198.16846838315587 4.029229404637761 L 198.83199384043135 4.029910934296936 L 199.4955192977068 4.0306083548926495 L 200.15904475498226 4.031322036947017 L 200.82257021225774 4.032052359621332 L 201.4860956695332 4.032799710917573 L 202.14962112680865 4.033564487884803 L 202.8131465840841 4.034347096829663 L 203.47667204135956 4.035147953532544 L 204.14019749863502 4.035967483468426 L 204.80372295591047 4.036806122032829 L 205.46724841318593 4.037664314773224 L 206.13077387046138 4.038542517625558 L 206.79429932773684 4.039441197156862 L 207.4578247850123 4.040360830812688 L 208.12135024228775 4.041301907171032 L 208.78487569956323 4.042264926201767 L 209.44840115683868 4.043250399532326 L 210.1119266141141 4.0442588507195865 L 210.77545207138962 4.045290815527835 L 211.43897752866505 4.046346842213552 L 212.1025029859405 4.047427491816563 L 212.76602844321596 4.048533338458242 L 213.42955390049144 4.049664969646415 L 214.0930793577669 4.050822986587605 L 214.75660481504232 4.052008004506149 L 215.42013027231778 4.05322065297139 L 216.08365572959326 4.054461576231972 L 216.74718118686872 4.055731433558151 L 217.41070664414414 4.05703089959195 L 218.0742321014196 4.058360664705674 L 218.73775755869508 4.059721435368658 L 219.40128301597053 4.061113934522496 L 220.064808473246 4.062538901965354 L 220.72833393052142 4.06399709474465 L 221.39185938779693 4.065489287559558 L 222.05538484507238 4.067016273172328 L 222.71891030234784 4.068578862829668 L 223.3824357596233 4.0701778866935 L 224.04596121689875 4.07181419428224 L 224.7094866741742 4.073488654921789 L 225.37301213144966 4.0752021582077305 L 226.0365375887251 4.07695561447764 L 226.70006304600057 4.078749955294882 L 227.36358850327602 4.080586133943314 L 228.02711396055147 4.08246512593405 L 228.69063941782696 4.0843879295232455 L 229.35416487510238 4.086355566242901 L 230.01769033237784 4.088369081443091 L 230.6812157896533 4.090429544847666 L 231.34474124692878 4.092538051122403 L 232.00826670420423 4.0946957204564 L 232.6717921614797 4.0969036991573375 L 233.33531761875514 4.0991631602605025 L 233.9988430760306 4.101475304151734 L 234.66236853330605 4.103841359205205 L 235.3258939905815 4.106262582436045 L 235.98941944785696 4.1087402601680765 L 236.65294490513241 4.111275708717017 L 237.31647036240787 4.11387027508988 L 237.97999581968332 4.1165253377006366 L 238.6435212769588 4.1192423071021835 L 239.30704673423426 4.122022626735827 L 239.9705721915097 4.124867773698043 L 240.63409764878514 4.127779259525141 L 241.29762310606063 4.13075863099624 L 241.96114856333608 4.133807470954821 L 242.62467402061154 4.13692739914967 L 243.28819947788696 4.140120073095204 L 243.95172493516245 4.143387188951976 L 244.6152503924379 4.1467304824276425 L 245.27877584971333 4.150151729699019 L 245.9423013069888 4.153652748355512 L 246.60582676426426 4.1572353983645485 L 247.26935222153972 4.16090158305974 L 247.93287767881517 4.164653250151673 L 248.5964031360906 4.168492392762516 L 249.2599285933661 4.172421050484729 L 249.92345405064157 4.176441310464611 L 250.586979507917 4.180555308510463 L 251.2505049651925 4.184765230227356 L 251.91403042246793 4.189073312178039 L 252.57755587974336 4.193481843070515 L 253.24108133701884 4.19799316497398 L 253.9046067942943 4.202609674562609 L 254.56813225156978 4.207333824388513 L 255.2316577088452 4.212168124184188 L 255.89518316612063 4.2171151421956665 L 256.5587086233961 4.222177506546245 L 257.22223408067157 4.2273579066325055 L 257.885759537947 4.2326590945522184 L 258.5492849952225 4.238083886566244 L 259.21281045249793 4.243635164593968 L 259.8763359097734 4.249315877743754 L 260.53986136704884 4.255129043878981 L 261.2033868243243 4.261077751220569 L 261.8669122815998 4.267165159987087 L 262.5304377388752 4.273394504072542 L 263.1939631961507 4.279769092763615 L 263.8574886534262 4.286292312496926 L 264.52101411070157 4.292967628656925 L 265.1845395679771 4.299798587415864 L 265.8480650252525 4.306788817616621 L 266.511590482528 4.313942032699231 L 267.17511593980345 4.32126203267228 L 267.83864139707885 4.328752706130331 L 268.50216685435436 4.336418032318193 L 269.16569231162987 4.344262083243166 L 269.82921776890527 4.352289025836626 L 270.4927432261807 4.360503124165746 L 271.1562686834562 4.368908741696771 L 271.81979414073163 4.377510343610879 L 272.48331959800714 4.386312499173982 L 273.14684505528254 4.395319884161722 L 273.81037051255805 4.404537283340517 L 274.4738959698335 4.413969593006755 L 275.1374214271089 4.423621823584767 L 275.8009468843844 4.433499102285339 L 276.46447234165987 4.443606675825663 L 277.1279977989353 4.453949913213137 L 277.7915232562108 4.464534308593272 L 278.4550487134862 4.475365484164001 L 279.1185741707617 4.486449193157853 L 279.78209962803714 4.497791322893022 L 280.4456250853126 4.509397897895724 L 281.10915054258805 4.521275083094508 L 281.7726759998635 4.5334291870892685 L 282.43620145713896 4.545866665496021 L 283.0997269144144 4.558594124368597 L 283.7632523716899 4.5716183237010455 L 284.4267778289653 4.584946181009741 L 285.0903032862408 4.598584774999949 L 285.75382874351624 4.612541349316189 L 286.4173542007917 4.6268233163805235 L 287.08087965806715 4.641438261318967 L 287.7444051153426 4.656393945979346 L 288.40793057261806 4.671698313041929 L 289.0714560298935 4.687359490225333 L 289.73498148716897 4.703385794589678 L 290.3985069444444 4.719785736939286 L 291.0620324017199 4.7365680263270065 L 291.72555785899533 4.7537415746630245 L 292.3890833162708 4.771315501429797 L 293.0526087735463 4.789299138505896 L 293.7161342308217 4.807702035101443 L 294.37965968809715 4.826533962806877 L 295.0431851453726 4.845804920758894 L 295.70671060264806 4.865525140924603 L 296.37023605992357 4.885705093507909 L 297.033761517199 4.906355492480429 L 297.6972869744744 4.9274873012390685 L 298.3608124317499 4.949111738394151 L 299.02433788902533 4.971240283690463 L 299.68786334630084 4.993884684063971 L 300.3513888035763 5.0170569598378165 L 301.01491426085175 5.040769411060069 L 301.67843971812715 5.065034623986719 L 302.3419651754026 5.089865477713033 L 303.0054906326781 5.115275150956677 L 303.66901608995363 5.141277128995284 L 304.332541547229 5.167885210763018 L 304.9960670045045 5.195113516108393 L 305.65959246177994 5.222976493217345 L 306.3231179190554 5.251488926205639 L 306.9866433763309 5.280665942883047 L 307.65016883360636 5.3105230226942695 L 308.3136942908818 5.341076004839408 L 308.97721974815727 5.372341096578225 L 309.6407452054327 5.404334881722434 L 310.3042706627082 5.437074329318762 L 310.96779611998363 5.470576802528399 L 311.6313215772591 5.504860067705465 L 312.29484703453454 5.539942303679766 L 312.95837249181 5.575842111246914 L 313.62189794908545 5.612578522871104 L 314.2854234063609 5.650171012604176 L 314.94894886363636 5.688639506225456 L 315.6124743209118 5.728004391607044 L 316.27599977818727 5.7682865293085115 L 316.9395252354627 5.809507263405976 L 317.6030506927382 5.851688432559627 L 318.26657615001363 5.894852381325052 L 318.9301016072891 5.939021971711782 L 319.59362706456454 5.9842205949950085 L 320.25715252184 6.030472183784241 L 320.92067797911545 6.077801224353777 L 321.5842034363909 6.126232769240005 L 322.2477288936664 6.175792450110237 L 322.9112543509419 6.2265064909069565 L 323.5747798082173 6.278401721273724 L 324.2383052654928 6.3315055902659765 L 324.9018307227682 6.385846180352303 L 325.5653561800437 6.441452221710392 L 326.22888163731915 6.498353106822776 L 326.89240709459455 6.556578905375943 L 327.55593255187006 6.616160379468909 L 328.21945800914546 6.677128999133686 L 328.88298346642097 6.739516958173795 L 329.5465089236964 6.803357190323595 L 330.2100343809719 6.868683385733505 L 330.87355983824733 6.935530007784337 L 331.5370852955228 7.0039323102352 L 332.20061075279824 7.0739263547072255 L 332.8641362100737 7.1455490285084124 L 333.52766166734915 7.218838062800728 L 334.1911871246246 7.29383205111327 L 334.85471258190006 7.370570468204278 L 335.5182380391755 7.4490936892729 L 336.18176349645097 7.52944300952413 L 336.8452889537264 7.611660664086685 L 337.5088144110019 7.69578984828604 L 338.17233986827733 7.7818747382721085 L 338.83586532555285 7.869960512001683 L 339.49939078282824 7.960093370575521 L 340.1629162401037 8.052320559927239 L 340.8264416973792 8.146690392863434 L 341.4899671546546 8.243252271450501 L 342.1534926119301 8.342056709746146 L 342.8170180692055 8.443155356869 L 343.48054352648103 8.546601020401681 L 344.1440689837565 8.652447690120198 L 344.8075944410319 8.760750562041324 L 345.4711198983074 8.871566062778697 L 346.1346453555828 8.984951874196724 L 346.7981708128583 9.100966958350114 L 347.46169627013376 9.219671582694389 L 348.1252217274092 9.341127345552138 L 348.78874718468467 9.465397201816813 L 349.4522726419601 9.59254548887401 L 350.1157980992356 9.7226379527184 L 350.77932355651103 9.85574177424104 L 351.4428490137865 9.991925595660177 L 352.10637447106194 10.131259547064587 L 352.7698999283374 10.273815273037144 L 353.43342538561285 10.419665959320639 L 354.0969508428883 10.568886359486385 L 354.76047630016376 10.72155282156126 L 355.42400175743927 10.877743314564384 L 356.08752721471467 11.037537454900871 L 356.7510526719901 11.201016532555002 L 357.4145781292656 11.368263537019516 L 358.07810358654103 11.539363182892941 L 358.74162904381654 11.7144019350701 L 359.40515450109206 11.893468033444776 L 360.06867995836745 12.076651517036908 L 360.73220541564297 12.264044247448794 L 361.3957308729183 12.455739931547043 L 362.0592563301938 12.651834143258327 L 362.72278178746933 12.852424344358042 L 363.3863072447448 13.057609904121023 L 364.04983270202024 13.267492117692939 L 364.7133581592957 13.48217422303037 L 365.3768836165711 13.701761416243869 L 366.0404090738466 13.926360865168135 L 366.70393453112206 14.156081720967222 L 367.3674599883975 14.391035127569694 L 368.03098544567297 14.631334228712149 L 368.6945109029484 14.877094172353793 L 369.3580363602239 15.128432112206553 L 370.02156181749933 15.385467206106341 L 370.6850872747748 15.648320610931705 L 371.34861273205024 15.917115473754336 L 372.0121381893257 16.191976918884734 L 372.67566364660115 16.473032030450554 L 373.3391891038766 16.76040983012257 L 374.0027145611521 17.054241249575284 L 374.6662400184275 17.354659097241722 L 375.32976547570297 17.66179801889342 L 375.9932909329784 17.975794451545312 L 376.6568163902539 18.29678657015438 L 377.3203418475294 18.624914226546082 L 377.9838673048048 18.960318879970316 L 378.64739276208024 19.303143518650245 L 379.31091821935576 19.653532571653386 L 379.97444367663115 20.011631810374126 L 380.63796913390667 20.37758823887964 L 381.3014945911821 20.751549972332043 L 381.9650200484576 21.133666102659504 L 382.62854550573303 21.524086550610946 L 383.2920709630084 21.92296190328915 L 383.95559642028394 22.330443236219594 L 384.6191218775594 22.746681918977174 L 385.28264733483485 23.17182940335738 L 385.9461727921103 23.60603699304852 L 386.60969824938576 24.049455593734763 L 387.2732237066612 24.502235442536858 L 387.93674916393667 24.964525815681952 L 388.6002746212121 25.436474713285293 L 389.2638000784876 25.918228520126092 L 389.92732553576303 26.409931641311857 L 390.5908509930385 26.91172611174693 L 391.25437645031394 27.423751178358998 L 391.9179019075894 27.94614285409068 L 392.58142736486485 28.4790334427355 L 393.2449528221403 29.022551033789796 L 393.90847827941576 29.57681896661063 L 394.5720037366912 30.141955263310933 L 395.2355291939667 30.71807202999696 L 395.8990546512421 31.30527482615537 L 396.5625801085176 31.90366200223707 L 397.2261055657931 32.513324005759046 L 397.8896310230685 33.134342656561614 L 398.553156480344 33.76679039221415 L 399.21668193761946 34.41072948496111 L 399.88020739489485 35.0662112320457 L 400.54373285217036 35.73327512173506 L 401.20725830944576 36.41194797790388 L 401.8707837667213 37.10224308660696 L 402.53430922399673 37.80415930868543 L 403.1978346812722 38.51768018310031 L 403.86136013854764 39.242773026363864 L 404.5248855958231 39.979388034138594 L 405.18841105309855 40.72745739178441 L 405.851936510374 41.48689440134473 L 406.51546196764946 42.2575926331578 L 407.1789874249249 43.03942511094738 L 407.84251288220037 43.832243539864976 L 408.5060383394758 44.63587758750833 L 409.1695637967513 45.45013422840441 L 409.83308925402673 46.2747971627993 L 410.4966147113022 47.10962632081845 L 411.16014016857764 47.954357463127394 L 411.82366562585315 48.80870188911268 L 412.48719108312855 49.67234626329676 L 413.150716540404 50.54495257018149 L 413.8142419976795 51.426158206970285 L 414.4777674549549 52.31557622263813 L 415.1412929122304 53.21279571060248 L 415.8048183695058 54.11738236079668 L 416.46834382678134 55.028879175273204 L 417.1318692840568 55.946807349586265 L 417.7953947413322 56.8706673201462 L 418.4589201986077 57.799939975537455 L 419.1224456558831 58.73408802748693 L 419.7859711131586 59.67255753481123 L 420.44949657043406 60.614779571307 L 421.11302202770946 61.560172026239655 L 421.776547484985 62.50814152388688 L 422.44007294226043 63.4580854465637 L 423.1035983995359 64.40939404374953 L 423.76712385681134 65.36145260840695 L 424.4306493140868 66.31364370036891 L 425.09417477136225 67.26534939581302 L 425.7577002286377 68.21595354136136 L 426.4212256859131 69.16484399126131 L 427.08475114318856 70.11141480641112 L 427.7482766004641 71.0550683946953 L 428.4118020577395 71.99521757315676 L 429.075327515015 72.93128753393435 L 429.7388529722905 73.86271769758702 L 430.40237842956583 74.78896343936671 L 431.0659038868414 75.70949767613521 L 431.7294293441168 76.62381230388962 L 432.39295480139225 77.53141947820768 L 433.05648025866776 78.43185273229258 L 433.7200057159431 79.32466792963058 L 434.38353117321867 80.2094440505258 L 435.0470566304941 81.0857838138991 L 435.7105820877695 81.95331413769725 L 436.37410754504504 82.81168644302221 L 437.0376330023205 83.66057680863955 L 437.70115845959594 84.49968598384231 L 438.36468391687146 85.32873926872941 L 439.0282093741468 86.1474862718012 L 439.6917348314223 86.95570055539164 L 440.35526028869776 87.75317917984944 L 441.0187857459732 88.53974215757452 L 441.68231120324873 89.31523182802181 L 442.3458366605242 90.07951216462703 L 443.0093621177996 90.83246802430955 L 443.67288757507504 91.57400434978791 L 444.3364130323505 92.30404533442623 L 444.999938489626 93.02253355873796 L 445.66346394690146 93.72942910702389 L 446.32698940417686 94.42470867193657 L 446.9905148614523 95.1083646540566 L 447.65404031872777 95.78040426285452 L 448.3175657760033 96.440848624707 L 448.98109123327873 97.0897319029479 L 449.6446166905542 97.72710043427315 L 450.3081421478296 98.35301188518872 L 450.9716676051051 98.9675344315998 L 451.63519306238055 99.57074596408819 L 452.298718519656 100.16273332091825 L 452.96224397693146 100.74359155034904 L 453.62576943420686 101.31342320341142 L 454.28929489148237 101.87233765793479 L 454.9528203487578 102.42045047427519 L 455.6163458060333 102.9578827829047 L 456.27987126330873 103.48476070376853 L 456.94339672058425 104.00121479709662 L 457.60692217785964 104.50737954517251 L 458.2704476351351 105.00339286440669 L 458.93397309241055 105.48939564693299 L 459.59749854968607 105.96553133084541 L 460.2610240069615 106.43194549810966 L 460.9245494642369 106.88878549912516 L 461.5880749215124 107.33620010286683 L 462.2516003787878 107.77433917150876 L 462.91512583606334 108.20335335841628 L 463.5786512933388 108.62339382838707 L 464.2421767506142 109.03461199902841 L 464.90570220788965 109.43715930217053 L 465.5692276651651 109.83118696423404 L 466.2327531224406 110.21684580449738 L 466.89627857971607 110.59428605023669 L 467.5598040369915 110.96365716774483 L 468.2233294942669 111.32510770827216 L 468.8868549515424 111.67878516796665 L 469.5503804088179 112.02483586093174 L 470.21390586609334 112.36340480455772 L 470.8774313233688 112.69463561632236 L 471.5409567806442 113.01867042129658 L 472.2044822379197 113.33564976962725 L 472.86800769519516 113.64571256331098 L 473.5315331524706 113.94899599160635 L 474.19505860974607 114.24563547447082 L 474.8585840670216 114.5357646134423 L 475.522109524297 114.81951514942006 L 476.18563498157243 115.09701692683052 L 476.8491604388479 115.36839786369677 L 477.51268589612334 115.63378392715859 L 478.17621135339886 115.8932991140191 L 478.83973681067425 116.14706543591996 L 479.5032622679497 116.39520290877448 L 480.16678772522516 116.63782954611037 L 480.8303131825007 116.8750613559975 L 481.49383863977613 117.10701234125824 L 482.1573640970516 117.33379450267725 L 482.820889554327 117.55551784494793 L 483.48441501160244 117.77229038511001 L 484.14794046887795 117.98421816325029 L 484.8114659261534 118.19140525525404 L 485.47499138342886 118.3939537874108 L 486.13851684070426 118.59196395269024 L 486.8020422979797 118.78553402851912 L 487.4655677552552 118.97476039590134 L 488.1290932125307 119.15973755973528 L 488.79261866980613 119.3405581701931 L 489.45614412708153 119.51731304503681 L 490.119669584357 119.6900911927556 L 490.7831950416325 119.85897983641735 L 491.44672049890795 120.02406443813595 L 492.1102459561834 120.18542872406263 L 492.7737714134589 120.34315470981858 L 493.43729687073426 120.49732272629029 L 494.10082232800977 120.64801144571805 L 494.7643477852852 120.79529790801058 L 495.4278732425607 120.9392575472275 L 496.0913986998362 121.0799642181737 L 496.7549241571116 121.21749022305568 L 497.41844961438704 121.35190633815395 L 498.0819750716625 121.48328184046909 L 498.74550052893795 121.61168453430412 L 499.40902598621346 121.7371807777472 L 500.0725514434889 121.8598355090241 L 500.7360769007643 121.97971227269139 L 501.3996023580398 122.09687324564436 L 502.0631278153153 122.21137926291686 L 502.72665327259074 122.32328984325142 L 503.3901787298662 122.43266321442192 L 504.0537041871416 122.53955633829074 L 504.71722964441705 122.644024935587 L 505.38075510169256 122.74612351039164 L 506.044280558968 122.84590537431859 L 506.70780601624347 122.94342267038144 L 507.3713314735189 123.03872639653741 L 508.0348569307943 123.13186642890082 L 508.69838238806983 123.22289154462004 L 509.3619078453453 123.31184944441281 L 510.02543330262074 123.39878677475537 L 510.68895875989625 123.48374914972231 L 511.3524842171716 123.5667811724748 L 512.0160096744471 123.64792645639497 L 512.6795351317226 123.72722764586615 L 513.343060588998 123.80472643669765 L 514.0065860462735 123.88046359619517 L 514.6701115035489 123.95447898287654 L 515.3336369608244 124.02681156583523 L 515.9971624180998 124.09749944375164 L 516.6606878753753 124.16657986355585 L 517.3242133326507 124.23408923874283 L 517.9877387899262 124.30006316734332 L 518.6512642472017 124.36453644955401 L 519.3147897044772 124.42754310502846 L 519.9783151617527 124.48911638983452 L 520.641840619028 124.54928881307984 L 521.3053660763036 124.60809215321069 L 521.9688915335789 124.66555747398743 L 522.6324169908545 124.72171514014087 L 523.29594244813 124.77659483271415 L 523.9594679054054 124.83022556409378 L 524.6229933626807 124.88263569273516 L 525.2865188199562 124.93385293758641 L 525.9500442772318 124.98390439221546 L 526.6135697345072 125.03281653864488 L 527.2770951917827 125.08061526089932 L 527.9406206490582 125.12732585827001 L 528.6041461063335 125.17297305830104 L 529.267671563609 125.21758102950264 L 529.9311970208845 125.26117339379533 L 530.59472247816 125.30377323869067 L 531.2582479354355 125.34540312921189 L 531.9217733927109 125.38608511956119 L 532.5852988499863 125.42584076453596 L 533.2488243072618 125.4646911307006 L 533.9123497645372 125.5026568073171 L 534.5758752218128 125.5397579170398 L 535.2394006790882 125.57601412637854 L 535.9029261363636 125.61144465593455 L 536.566451593639 125.64606829041367 L 537.2299770509146 125.6799033884214 L 537.8935025081901 125.71296789204354 L 538.5570279654655 125.7452793362175 L 539.2205534227409 125.77685485789797 L 539.8840788800163 125.8077112050209 L 540.5476043372919 125.83786474527054 L 541.2111297945673 125.86733147465293 L 541.8746552518428 125.89612702588033 L 542.5381807091181 125.92426667657014 L 543.2017061663936 125.9517653572621 L 543.8652316236692 125.97863765925814 L 544.5287570809446 126.00489784228773 L 545.1922825382201 126.0305598420033 L 545.8558079954954 126.0556372773083 L 546.519333452771 126.0801434575227 L 547.1828589100464 126.1040913893882 L 547.8463843673219 126.12749378391723 L 548.5099098245973 126.15036306308889 L 549.1734352818728 126.17271136639522 L 549.8369607391483 126.19455055724097 L 550.5004861964237 126.21589222919982 L 551.1640116536992 126.23674771213055 L 551.8275371109746 126.25712807815586 L 552.4910625682501 126.27704414750713 L 553.1545880255255 126.29650649423766 L 553.818113482801 126.31552545180764 L 554.4816389400764 126.3341111185434 L 555.1451643973519 126.35227336297385 L 555.8086898546273 126.3700218290466 L 556.4722153119028 126.38736594122679 L 557.1357407691783 126.40431490948083 L 557.7992662264537 126.4208777341477 L 558.4627916837292 126.4370632107003 L 559.1263171410046 126.45287993439962 L 559.7898425982801 126.46833630484332 L 560.4533680555555 126.48344053041194 L 561.116893512831 126.4982006326145 L 561.7804189701064 126.51262445033566 L 562.4439444273819 126.52671964398706 L 563.1074698846573 126.54049369956459 L 563.7709953419328 126.55395393261404 L 564.4345207992083 126.56710749210657 L 565.0980462564837 126.57996136422685 L 565.7615717137592 126.59252237607507 L 566.4250971710346 126.60479719928526 L 567.0886226283101 126.61679235356144 L 567.7521480855855 126.62851421013386 L 568.415673542861 126.63996899513643 L 569.0791990001364 126.65116279290817 L 569.7427244574119 126.66210154921919 L 570.4062499146874 126.67279107442369 L 571.0697753719628 126.68323704654156 L 571.7333008292383 126.69344501426986 L 572.3968262865137 126.70342039992579 L 573.0603517437892 126.71316850232341 L 573.7238772010646 126.72269449958407 L 574.3874026583401 126.73200345188417 L 575.0509281156155 126.74110030413956 L 575.714453572891 126.74998988862933 L 576.3779790301664 126.75867692756009 L 577.0415044874419 126.76716603557168 L 577.7050299447174 126.77546172218618 L 578.3685554019928 126.78356839420121 L 579.0320808592683 126.79149035802871 L 579.6956063165437 126.79923182198064 L 580.3591317738192 126.80679689850263 L 581.0226572310946 126.81418960635699 L 581.6861826883701 126.82141387275595 L 582.3497081456455 126.82847353544634 L 583.013233602921 126.83537234474704 L 583.6767590601964 126.84211396553994 L 584.3402845174719 126.84870197921543 L 585.0038099747474 126.85513988557432 L 585.6673354320228 126.86143110468532 L 586.3308608892983 126.86757897870166 L 586.9943863465737 126.87358677363511 L 587.6579118038492 126.87945768109046 L 588.3214372611246 126.88519481996002 L 588.9849627184001 126.89080123808009 L 589.6484881756755 126.89627991384899 L 590.312013632951 126.90163375780907 L 590.9755390902264 126.90686561419216 L 591.6390645475019 126.91197826242995 L 592.3025900047774 126.91697441863013 L 592.9661154620528 126.92185673701877 L 593.6296409193283 126.92662781134999 L 594.2931663766037 126.93129017628337 L 594.9566918338792 126.93584630873036 L 595.6202172911546 126.94029862916932 L 596.2837427484301 126.94464950293161 L 596.9472682057058 126.94890124145738 L 597.610793662981 126.95305610352364 L 598.2743191202565 126.95711629644364 L 598.9378445775321 126.96108397723947 L 599.6013700348074 126.96496125378775 L 600.264895492083 126.96875018593911 L 600.9284209493583 126.97245278661237 L 601.5919464066337 126.97607102286372 L 602.2554718639094 126.97960681693166 L 602.9189973211849 126.98306204725779 L 603.5825227784603 126.98643854948483 L 604.2460482357355 126.98973811743167 L 604.909573693011 126.99296250404598 L 605.5730991502867 126.99611342233561 L 606.2366246075621 126.99919254627855 L 606.9001500648376 127.00220151171189 L 607.5636755221128 127.005141917201 L 608.2272009793883 127.00801532488867 L 608.890726436664 127.01082326132473 L 609.5542518939394 127.01356721827733 L 610.2177773512149 127.01624865352503 L 610.8813028084901 127.01886899163145 L 611.5448282657655 127.02142962470185 L 612.2083537230412 127.02393191312282 L 612.8718791803167 127.02637718628469 L 613.5354046375921 127.02876674328809 L 614.1989300948674 127.03110185363374 L 614.862455552143 127.03338375789707 L 615.5259810094185 127.03561366838716 L 616.189506466694 127.03779276979066 L 616.8530319239694 127.03992221980144 L 617.5165573812449 127.04200314973528 L 618.1800828385203 127.04403666513099 L 618.8436082957958 127.04602384633785 L 619.5071337530712 127.04796574908926 L 620.1706592103467 127.04986340506392 L 620.8341846676221 127.0517178224336 L 621.4977101248976 127.05352998639887 L 622.161235582173 127.05530085971264 L 622.8247610394485 127.0570313831912 L 623.488286496724 127.0587224762146 L 624.1518119539994 127.06037503721444 L 624.8153374112749 127.06198994415172 L 625.4788628685503 127.06356805498291 L 626.1423883258258 127.06511020811598 L 626.8059137831012 127.06661722285554 L 627.4694392403769 127.06808989983841 L 628.1329646976521 127.06952902145872 L 628.7964901549276 127.07093535228353 L 629.460015612203 127.07230963945943 L 630.1235410694787 127.07365261310886 L 630.7870665267542 127.07496498671856 L 631.4505919840294 127.07624745751815 L 632.1141174413049 127.07750070685097 L 632.7776428985803 127.07872540053563 L 633.441168355856 127.0799221892201 L 634.1046938131315 127.08109170872717 L 634.7682192704067 127.08223458039222 L 635.4317447276821 127.08335141139355 L 636.0952701849576 127.08444279507455 L 636.7587956422333 127.08550931125933 L 637.4223210995087 127.08655152656064 L 638.085846556784 127.08756999468062 L 638.7493720140594 127.08856525670535 L 639.4128974713349 127.08953784139214 L 640.0764229286106 127.0904882654504 L 640.739948385886 127.09141703381621 L 641.4034738431612 127.0923246399206 L 642.0669993004367 127.09321156595155 L 642.7305247577124 127.09407828311038 L 643.3940502149878 127.09492525186198 L 644.0575756722633 127.09575292217937 L 644.7211011295387 127.09656173378289 L 645.3846265868142 127.09735211637371 L 646.0481520440894 127.09812448986207 L 646.7116775013651 127.09887926459066 L 647.3752029586406 127.09961684155218 L 648.038728415916 127.10033761260274 L 648.7022538731915 127.10104196066985 L 649.3657793304667 127.10173025995596 L 650.0293047877424 127.10240287613718 L 650.6928302450178 127.10306016655767 L 651.3563557022933 127.10370248041926 L 652.0198811595687 127.10433015896729 L 652.683406616844 127.10494353567162 L 653.3469320741196 127.10554293640391 L 654.0104575313951 127.10612867961086 L 654.6739829886706 127.10670107648312 L 655.337508445946 127.10726043112089 L 656.0010339032212 127.10780704069535 L 656.6645593604969 127.10834119560644 L 657.3280848177724 127.10886317963735 L 657.9916102750478 127.10937327010532 L 658.6551357323233 127.10987173800856 L 659.3186611895985 127.11035884817068 L 659.9821866468742 127.11083485938116 L 660.6457121041497 127.11130002453297 L 661.3092375614251 127.11175459075673 L 661.9727630187006 127.11219879955217 L 662.6362884759758 127.11263288691643 L 663.2998139332515 127.11305708346924 L 663.9633393905269 127.11347161457576 L 664.6268648478024 127.11387670046605 L 665.2903903050778 127.1142725563522 L 665.9539157623531 127.11465939254253 L 666.6174412196287 127.11503741455357 L 667.2809666769042 127.11540682321908 L 667.9444921341797 127.11576781479658 L 668.6080175914551 127.1161205810721 L 669.2715430487306 127.11646530946146 L 669.935068506006 127.1168021831104 L 670.5985939632815 127.11713138099151 L 671.2621194205569 127.11745307799947 L 671.9256448778324 127.11776744504391 L 672.5891703351078 127.11807464914025 L 673.2526957923833 127.11837485349847 L 673.9162212496587 127.11866821760964 L 674.5797467069342 127.11895489733087 L 675.2432721642097 127.11923504496795 L 675.9067976214851 127.11950880935649 L 676.5703230787606 127.1197763359406 L 677.233848536036 127.1200377668506 L 677.8973739933115 127.1202932409783 L 678.5608994505869 127.12054289405074 L 679.2244249078624 127.12078685870236 L 679.8879503651378 127.12102526454561 L 680.5514758224133 127.12125823823962 L 681.2150012796887 127.12148590355753 L 681.8785267369642 127.12170838145227 L 682.5420521942397 127.12192579012086 L 683.2055776515151 127.12213824506716 L 683.8691031087906 127.12234585916323 L 684.532628566066 127.12254874270928 L 685.1961540233415 127.1227470034923 L 685.8596794806169 127.1229407468434 L 686.5232049378924 127.12313007569358 L 687.1867303951678 127.12331509062864 L 687.8502558524433 127.12349588994232 L 688.5137813097188 127.12367256968898 L 689.1773067669942 127.12384522373412 L 689.8408322242697 127.12401394380453 L 690.5043576815451 127.12417881953706 L 691.1678831388206 127.1243399385261 L 691.831408596096 127.1244973863702 L 692.4949340533715 127.12465124671746 L 693.1584595106469 127.12480160131014 L 693.8219849679224 127.12494853002792 L 694.4855104251978 127.12509211093038 L 695.1490358824733 127.12523242029846 L 695.8125613397488 127.12536953267511 L 696.4760867970242 127.12550352090472 L 697.1396122542997 127.12563445617195 L 697.8031377115751 127.12576240803946 L 698.4666631688506 127.12588744448487 L 699.1301886261263 127.12600963193705 L 699.7937140834015 127.12612903531112 L 700.4572395406769 127.12624571804312 L 701.1207649979524 127.12635974212375 L 701.7842904552278 127.12647116813116 L 702.4478159125035 127.12658005526325 L 703.1113413697788 127.12668646136905 L 703.7748668270542 127.12679044297946 L 704.4383922843297 127.12689205533741 L 705.1019177416051 127.12699135242698 L 705.7654431988808 127.12708838700229 L 706.428968656156 127.12718321061541 L 707.0924941134317 127.12727587364378 L 707.7560195707069 127.12736642531698 L 708.4195450279824 127.12745491374287 L 709.0830704852581 127.12754138593317 L 709.7465959425333 127.1276258878284 L 710.410121399809 127.12770846432238 L 711.0736468570842 127.1277891592859 L 711.7371723143597 127.12786801559022 L 712.4006977716354 127.12794507512979 L 713.0642232289106 127.12802037884438 L 713.7277486861863 127.12809396674103 L 714.3912741434615 127.12816587791514 L 715.0547996007372 127.12823615057135 L 715.7183250580126 127.12830482204384 L 716.3818505152879 127.12837192881597 L 717.0453759725635 127.12843750654002 L 717.7089014298388 127.12850159005575 L 718.3724268871144 127.1285642134091 L 719.0359523443899 127.12862540987044 L 719.6994778016654 127.12868521195182 L 720.3630032589408 127.12874365142466 L 721.026528716216 127.12880075933646 L 721.6900541734917 127.12885656602714 L 722.3535796307672 127.12891110114543 L 723.0171050880426 127.1289643936646 L 723.6806305453181 127.1290164718975 L 724.3441560025933 127.12906736351215 L 725.007681459869 127.1291170955459 L 725.6712069171444 127.12916569442018 L 726.3347323744199 127.12921318595443 L 726.9982578316954 127.12925959537964 L 727.6617832889708 127.12930494735207 L 728.3253087462463 127.12934926596603 L 728.9888342035217 127.12939257476694 L 729.6523596607972 127.12943489676371 L 730.3158851180726 127.12947625444096 L 730.9794105753481 127.12951666977102 L 731.6429360326235 127.1295561642255 L 732.306461489899 127.12959475878694 L 732.9699869471744 127.12963247395953 L 733.6335124044499 127.12966932978054 L 734.2970378617254 127.12970534583047 L 734.9605633190008 127.12974054124379 L 735.6240887762763 127.12977493471891 L 736.2876142335517 127.12980854452837 L 736.9511396908272 127.12984138852806 L 737.6146651481026 127.12987348416726 L 738.2781906053781 127.12990484849766 L 738.9417160626535 127.12993549818225 L 739.605241519929 127.12996544950454 L 740.2687669772045 127.12999471837682 L 740.9322924344799 127.13002332034898 L 741.5958178917554 127.13005127061655 L 742.2593433490308 127.13007858402881 L 742.9228688063063 127.13010527509664 L 743.5863942635817 127.13013135800045 L 744.2499197208572 127.1301568465974 L 744.9134451781326 127.13018175442892 L 745.5769706354081 127.13020609472795 L 746.2404960926835 127.1302298804259 L 746.904021549959 127.13025312415954 L 747.5675470072345 127.13027583827761 L 748.2310724645099 127.13029803484767 L 748.8945979217854 127.13031972566216 L 749.5581233790608 127.13034092224484 L 750.2216488363363 127.13036163585696 L 750.8851742936117 127.13038187750317 L 751.5486997508872 127.13040165793731 L 752.2122252081626 127.13042098766829 L 752.8757506654381 127.13043987696545 L 753.5392761227135 127.13045833586432 L 754.202801579989 127.13047637417151 L 754.8663270372645 127.13049400147048 L 755.5298524945399 127.13051122712602 L 756.1933779518154 127.1305280602898 L 756.8569034090908 127.1305445099049" stroke-opacity="0.9" stroke-miterlimit="10" stroke-width="2" stroke-dasharray="6"/></g></g><g><g/><g><path fill="#ffffff" stroke="#e5e5e5" paint-order="fill stroke markers" d=" M 681.25 14 L 780 14 L 780 77 L 681.25 77 L 681.25 14 Z" fill-opacity="0.8" stroke-miterlimit="10" stroke-opacity="0.5"/><text fill="#444444" stroke="none" font-family="helvetica" font-size="10pt" font-style="normal" font-weight="normal" text-decoration="normal" x="716.25" y="34" text-anchor="start" dominant-baseline="central">Model</text><g><path fill="none" stroke="rgb(225,109,0)" paint-order="fill stroke markers" d=" M 691.25 34 L 711.25 34" stroke-opacity="0.9" stroke-miterlimit="10" stroke-width="2"/></g><text fill="#444444" stroke="none" font-family="helvetica" font-size="10pt" font-style="normal" font-weight="normal" text-decoration="normal" x="716.25" y="57" text-anchor="start" dominant-baseline="central">Original</text><g><path fill="none" stroke="rgb(102,180,211)" paint-order="fill stroke markers" d=" M 691.25 57 L 711.25 57" stroke-opacity="0.9" stroke-miterlimit="10" stroke-width="2" stroke-dasharray="6"/></g></g></g><g><g><path fill="none" stroke="#CAC6B6" paint-order="fill stroke markers" d=" M 61 250 L 790 250" stroke-miterlimit="10"/><path fill="none" stroke="#CAC6B6" paint-order="fill stroke markers" d=" M 94 256 L 94 250" stroke-miterlimit="10"/><path fill="none" stroke="#CAC6B6" paint-order="fill stroke markers" d=" M 227 256 L 227 250" stroke-miterlimit="10"/><path fill="none" stroke="#CAC6B6" paint-order="fill stroke markers" d=" M 359 256 L 359 250" stroke-miterlimit="10"/><path fill="none" stroke="#CAC6B6" paint-order="fill stroke markers" d=" M 492 256 L 492 250" stroke-miterlimit="10"/><path fill="none" stroke="#CAC6B6" paint-order="fill stroke markers" d=" M 624 256 L 624 250" stroke-miterlimit="10"/><path fill="none" stroke="#CAC6B6" paint-order="fill stroke markers" d=" M 757 256 L 757 250" stroke-miterlimit="10"/><path fill="none" stroke="black" paint-order="fill stroke markers" d=" M 94 250 L 94 250" stroke-miterlimit="10"/><path fill="none" stroke="black" paint-order="fill stroke markers" d=" M 160 250 L 160 250" stroke-miterlimit="10"/><path fill="none" stroke="black" paint-order="fill stroke markers" d=" M 180 250 L 180 250" stroke-miterlimit="10"/><path fill="none" stroke="black" paint-order="fill stroke markers" d=" M 192 250 L 192 250" stroke-miterlimit="10"/><path fill="none" stroke="black" paint-order="fill stroke markers" d=" M 200 250 L 200 250" stroke-miterlimit="10"/><path fill="none" stroke="black" paint-order="fill stroke markers" d=" M 207 250 L 207 250" stroke-miterlimit="10"/><path fill="none" stroke="black" paint-order="fill stroke markers" d=" M 212 250 L 212 250" stroke-miterlimit="10"/><path fill="none" stroke="black" paint-order="fill stroke markers" d=" M 216 250 L 216 250" stroke-miterlimit="10"/><path fill="none" stroke="black" paint-order="fill stroke markers" d=" M 220 250 L 220 250" stroke-miterlimit="10"/><path fill="none" stroke="black" paint-order="fill stroke markers" d=" M 224 250 L 224 250" stroke-miterlimit="10"/><path fill="none" stroke="black" paint-order="fill stroke markers" d=" M 227 250 L 227 250" stroke-miterlimit="10"/><path fill="none" stroke="black" paint-order="fill stroke markers" d=" M 293 250 L 293 250" stroke-miterlimit="10"/><path fill="none" stroke="black" paint-order="fill stroke markers" d=" M 313 250 L 313 250" stroke-miterlimit="10"/><path fill="none" stroke="black" paint-order="fill stroke markers" d=" M 324 250 L 324 250" stroke-miterlimit="10"/><path fill="none" stroke="black" paint-order="fill stroke markers" d=" M 333 250 L 333 250" stroke-miterlimit="10"/><path fill="none" stroke="black" paint-order="fill stroke markers" d=" M 339 250 L 339 250" stroke-miterlimit="10"/><path fill="none" stroke="black" paint-order="fill stroke markers" d=" M 344 250 L 344 250" stroke-miterlimit="10"/><path fill="none" stroke="black" paint-order="fill stroke markers" d=" M 349 250 L 349 250" stroke-miterlimit="10"/><path fill="none" stroke="black" paint-order="fill stroke markers" d=" M 353 250 L 353 250" stroke-miterlimit="10"/><path fill="none" stroke="black" paint-order="fill stroke markers" d=" M 356 250 L 356 250" stroke-miterlimit="10"/><path fill="none" stroke="black" paint-order="fill stroke markers" d=" M 359 250 L 359 250" stroke-miterlimit="10"/><path fill="none" stroke="black" paint-order="fill stroke markers" d=" M 425 250 L 425 250" stroke-miterlimit="10"/><path fill="none" stroke="black" paint-order="fill stroke markers" d=" M 445 250 L 445 250" stroke-miterlimit="10"/><path fill="none" stroke="black" paint-order="fill stroke markers" d=" M 457 250 L 457 250" stroke-miterlimit="10"/><path fill="none" stroke="black" paint-order="fill stroke markers" d=" M 465 250 L 465 250" stroke-miterlimit="10"/><path fill="none" stroke="black" paint-order="fill stroke markers" d=" M 472 250 L 472 250" stroke-miterlimit="10"/><path fill="none" stroke="black" paint-order="fill stroke markers" d=" M 477 250 L 477 250" stroke-miterlimit="10"/><path fill="none" stroke="black" paint-order="fill stroke markers" d=" M 481 250 L 481 250" stroke-miterlimit="10"/><path fill="none" stroke="black" paint-order="fill stroke markers" d=" M 485 250 L 485 250" stroke-miterlimit="10"/><path fill="none" stroke="black" paint-order="fill stroke markers" d=" M 489 250 L 489 250" stroke-miterlimit="10"/><path fill="none" stroke="black" paint-order="fill stroke markers" d=" M 492 250 L 492 250" stroke-miterlimit="10"/><path fill="none" stroke="black" paint-order="fill stroke markers" d=" M 558 250 L 558 250" stroke-miterlimit="10"/><path fill="none" stroke="black" paint-order="fill stroke markers" d=" M 578 250 L 578 250" stroke-miterlimit="10"/><path fill="none" stroke="black" paint-order="fill stroke markers" d=" M 590 250 L 590 250" stroke-miterlimit="10"/><path fill="none" stroke="black" paint-order="fill stroke markers" d=" M 598 250 L 598 250" stroke-miterlimit="10"/><path fill="none" stroke="black" paint-order="fill stroke markers" d=" M 604 250 L 604 250" stroke-miterlimit="10"/><path fill="none" stroke="black" paint-order="fill stroke markers" d=" M 610 250 L 610 250" stroke-miterlimit="10"/><path fill="none" stroke="black" paint-order="fill stroke markers" d=" M 614 250 L 614 250" stroke-miterlimit="10"/><path fill="none" stroke="black" paint-order="fill stroke markers" d=" M 618 250 L 618 250" stroke-miterlimit="10"/><path fill="none" stroke="black" paint-order="fill stroke markers" d=" M 621 250 L 621 250" stroke-miterlimit="10"/><path fill="none" stroke="black" paint-order="fill stroke markers" d=" M 624 250 L 624 250" stroke-miterlimit="10"/><path fill="none" stroke="black" paint-order="fill stroke markers" d=" M 691 250 L 691 250" stroke-miterlimit="10"/><path fill="none" stroke="black" paint-order="fill stroke markers" d=" M 711 250 L 711 250" stroke-miterlimit="10"/><path fill="none" stroke="black" paint-order="fill stroke markers" d=" M 722 250 L 722 250" stroke-miterlimit="10"/><path fill="none" stroke="black" paint-order="fill stroke markers" d=" M 730 250 L 730 250" stroke-miterlimit="10"/><path fill="none" stroke="black" paint-order="fill stroke markers" d=" M 737 250 L 737 250" stroke-miterlimit="10"/><path fill="none" stroke="black" paint-order="fill stroke markers" d=" M 742 250 L 742 250" stroke-miterlimit="10"/><path fill="none" stroke="black" paint-order="fill stroke markers" d=" M 747 250 L 747 250" stroke-miterlimit="10"/><path fill="none" stroke="black" paint-order="fill stroke markers" d=" M 750 250 L 750 250" stroke-miterlimit="10"/><path fill="none" stroke="black" paint-order="fill stroke markers" d=" M 754 250 L 754 250" stroke-miterlimit="10"/><path fill="none" stroke="black" paint-order="fill stroke markers" d=" M 757 250 L 757 250" stroke-miterlimit="10"/><text fill="#444444" stroke="none" font-family="helvetica" font-size="8pt" font-style="normal" font-weight="normal" text-decoration="normal" x="94" y="261" text-anchor="middle" dominant-baseline="hanging">10^-5</text><text fill="#444444" stroke="none" font-family="helvetica" font-size="8pt" font-style="normal" font-weight="normal" text-decoration="normal" x="227" y="261" text-anchor="middle" dominant-baseline="hanging">10^-3</text><text fill="#444444" stroke="none" font-family="helvetica" font-size="8pt" font-style="normal" font-weight="normal" text-decoration="normal" x="359" y="261" text-anchor="middle" dominant-baseline="hanging">10^-1</text><text fill="#444444" stroke="none" font-family="helvetica" font-size="8pt" font-style="normal" font-weight="normal" text-decoration="normal" x="492" y="261" text-anchor="middle" dominant-baseline="hanging">10^1</text><text fill="#444444" stroke="none" font-family="helvetica" font-size="8pt" font-style="normal" font-weight="normal" text-decoration="normal" x="624" y="261" text-anchor="middle" dominant-baseline="hanging">10^3</text><text fill="#444444" stroke="none" font-family="helvetica" font-size="8pt" font-style="normal" font-weight="normal" text-decoration="normal" x="757" y="261" text-anchor="middle" dominant-baseline="hanging">10^5</text><text fill="#444444" stroke="none" font-family="helvetica" font-size="10pt" font-style="italic" font-weight="normal" text-decoration="normal" x="425.42593750000003" y="281.27000000000004" text-anchor="middle" dominant-baseline="hanging">Frequency [rad/s]</text></g><g><path fill="none" stroke="#CAC6B6" paint-order="fill stroke markers" d=" M 61 250 L 61 4" stroke-miterlimit="10"/><path fill="none" stroke="#CAC6B6" paint-order="fill stroke markers" d=" M 55 243 L 61 243" stroke-miterlimit="10"/><path fill="none" stroke="#CAC6B6" paint-order="fill stroke markers" d=" M 55 209 L 61 209" stroke-miterlimit="10"/><path fill="none" stroke="#CAC6B6" paint-order="fill stroke markers" d=" M 55 175 L 61 175" stroke-miterlimit="10"/><path fill="none" stroke="#CAC6B6" paint-order="fill stroke markers" d=" M 55 141 L 61 141" stroke-miterlimit="10"/><path fill="none" stroke="#CAC6B6" paint-order="fill stroke markers" d=" M 55 107 L 61 107" stroke-miterlimit="10"/><path fill="none" stroke="#CAC6B6" paint-order="fill stroke markers" d=" M 55 72 L 61 72" stroke-miterlimit="10"/><path fill="none" stroke="#CAC6B6" paint-order="fill stroke markers" d=" M 55 38 L 61 38" stroke-miterlimit="10"/><path fill="none" stroke="#CAC6B6" paint-order="fill stroke markers" d=" M 55 4 L 61 4" stroke-miterlimit="10"/><path fill="none" stroke="black" paint-order="fill stroke markers" d=" M 61 250 L 61 250" stroke-miterlimit="10"/><path fill="none" stroke="black" paint-order="fill stroke markers" d=" M 61 243 L 61 243" stroke-miterlimit="10"/><path fill="none" stroke="black" paint-order="fill stroke markers" d=" M 61 237 L 61 237" stroke-miterlimit="10"/><path fill="none" stroke="black" paint-order="fill stroke markers" d=" M 61 230 L 61 230" stroke-miterlimit="10"/><path fill="none" stroke="black" paint-order="fill stroke markers" d=" M 61 223 L 61 223" stroke-miterlimit="10"/><path fill="none" stroke="black" paint-order="fill stroke markers" d=" M 61 216 L 61 216" stroke-miterlimit="10"/><path fill="none" stroke="black" paint-order="fill stroke markers" d=" M 61 209 L 61 209" stroke-miterlimit="10"/><path fill="none" stroke="black" paint-order="fill stroke markers" d=" M 61 202 L 61 202" stroke-miterlimit="10"/><path fill="none" stroke="black" paint-order="fill stroke markers" d=" M 61 196 L 61 196" stroke-miterlimit="10"/><path fill="none" stroke="black" paint-order="fill stroke markers" d=" M 61 189 L 61 189" stroke-miterlimit="10"/><path fill="none" stroke="black" paint-order="fill stroke markers" d=" M 61 182 L 61 182" stroke-miterlimit="10"/><path fill="none" stroke="black" paint-order="fill stroke markers" d=" M 61 175 L 61 175" stroke-miterlimit="10"/><path fill="none" stroke="black" paint-order="fill stroke markers" d=" M 61 168 L 61 168" stroke-miterlimit="10"/><path fill="none" stroke="black" paint-order="fill stroke markers" d=" M 61 161 L 61 161" stroke-miterlimit="10"/><path fill="none" stroke="black" paint-order="fill stroke markers" d=" M 61 154 L 61 154" stroke-miterlimit="10"/><path fill="none" stroke="black" paint-order="fill stroke markers" d=" M 61 148 L 61 148" stroke-miterlimit="10"/><path fill="none" stroke="black" paint-order="fill stroke markers" d=" M 61 141 L 61 141" stroke-miterlimit="10"/><path fill="none" stroke="black" paint-order="fill stroke markers" d=" M 61 134 L 61 134" stroke-miterlimit="10"/><path fill="none" stroke="black" paint-order="fill stroke markers" d=" M 61 127 L 61 127" stroke-miterlimit="10"/><path fill="none" stroke="black" paint-order="fill stroke markers" d=" M 61 120 L 61 120" stroke-miterlimit="10"/><path fill="none" stroke="black" paint-order="fill stroke markers" d=" M 61 113 L 61 113" stroke-miterlimit="10"/><path fill="none" stroke="black" paint-order="fill stroke markers" d=" M 61 107 L 61 107" stroke-miterlimit="10"/><path fill="none" stroke="black" paint-order="fill stroke markers" d=" M 61 100 L 61 100" stroke-miterlimit="10"/><path fill="none" stroke="black" paint-order="fill stroke markers" d=" M 61 93 L 61 93" stroke-miterlimit="10"/><path fill="none" stroke="black" paint-order="fill stroke markers" d=" M 61 86 L 61 86" stroke-miterlimit="10"/><path fill="none" stroke="black" paint-order="fill stroke markers" d=" M 61 79 L 61 79" stroke-miterlimit="10"/><path fill="none" stroke="black" paint-order="fill stroke markers" d=" M 61 72 L 61 72" stroke-miterlimit="10"/><path fill="none" stroke="black" paint-order="fill stroke markers" d=" M 61 66 L 61 66" stroke-miterlimit="10"/><path fill="none" stroke="black" paint-order="fill stroke markers" d=" M 61 59 L 61 59" stroke-miterlimit="10"/><path fill="none" stroke="black" paint-order="fill stroke markers" d=" M 61 52 L 61 52" stroke-miterlimit="10"/><path fill="none" stroke="black" paint-order="fill stroke markers" d=" M 61 45 L 61 45" stroke-miterlimit="10"/><path fill="none" stroke="black" paint-order="fill stroke markers" d=" M 61 38 L 61 38" stroke-miterlimit="10"/><path fill="none" stroke="black" paint-order="fill stroke markers" d=" M 61 31 L 61 31" stroke-miterlimit="10"/><path fill="none" stroke="black" paint-order="fill stroke markers" d=" M 61 25 L 61 25" stroke-miterlimit="10"/><path fill="none" stroke="black" paint-order="fill stroke markers" d=" M 61 18 L 61 18" stroke-miterlimit="10"/><path fill="none" stroke="black" paint-order="fill stroke markers" d=" M 61 11 L 61 11" stroke-miterlimit="10"/><path fill="none" stroke="black" paint-order="fill stroke markers" d=" M 61 4 L 61 4" stroke-miterlimit="10"/><text fill="#444444" stroke="none" font-family="helvetica" font-size="8pt" font-style="normal" font-weight="normal" text-decoration="normal" x="50" y="243" text-anchor="end" dominant-baseline="central">-350</text><text fill="#444444" stroke="none" font-family="helvetica" font-size="8pt" font-style="normal" font-weight="normal" text-decoration="normal" x="50" y="209" text-anchor="end" dominant-baseline="central">-300</text><text fill="#444444" stroke="none" font-family="helvetica" font-size="8pt" font-style="normal" font-weight="normal" text-decoration="normal" x="50" y="175" text-anchor="end" dominant-baseline="central">-250</text><text fill="#444444" stroke="none" font-family="helvetica" font-size="8pt" font-style="normal" font-weight="normal" text-decoration="normal" x="50" y="141" text-anchor="end" dominant-baseline="central">-200</text><text fill="#444444" stroke="none" font-family="helvetica" font-size="8pt" font-style="normal" font-weight="normal" text-decoration="normal" x="50" y="107" text-anchor="end" dominant-baseline="central">-150</text><text fill="#444444" stroke="none" font-family="helvetica" font-size="8pt" font-style="normal" font-weight="normal" text-decoration="normal" x="50" y="72" text-anchor="end" dominant-baseline="central">-100</text><text fill="#444444" stroke="none" font-family="helvetica" font-size="8pt" font-style="normal" font-weight="normal" text-decoration="normal" x="50" y="38" text-anchor="end" dominant-baseline="central">-50</text><text fill="#444444" stroke="none" font-family="helvetica" font-size="8pt" font-style="normal" font-weight="normal" text-decoration="normal" x="50" y="4" text-anchor="end" dominant-baseline="central">0</text><g transform="translate(17.730000000000004,127.13125000000001) rotate(-90,0,0)"><text fill="#444444" stroke="none" font-family="helvetica" font-size="10pt" font-style="italic" font-weight="normal" text-decoration="normal" x="0" y="0" text-anchor="middle" dominant-baseline="alphabetic">Phase [rad]</text><g transform="rotate(90,0,0) translate(-17.730000000000004,-127.13125000000001)"/></g></g></g></g></g></svg>