<svg version="1.1" xmlns="http://www.w3.org/2000/svg" xmlns:xlink="http://www.w3.org/1999/xlink" width="800" height="300" style="width: 800px; height: 300px;"><defs/><g><g/><g transform="scale(1,1) translate(0.5,0.5)"><rect fill="#FFFFFF" stroke="none" x="0" y="0" width="800" height="300"/><rect fill="#ffffff" stroke="none" x="0" y="0" width="800" height="300"/><rect fill="#FFFFFF" stroke="none" x="57.001875000000005" y="4" width="732.998125" height="246.2625"/><rect fill="#ffffff" stroke="none" x="57.001875000000005" y="4" width="732.998125" height="246.2625"/><g/><g><g><path fill="none" stroke="#e5e5e5" paint-order="fill stroke markers" d=" M 132 250 L 132 4" stroke-miterlimit="10"/><path fill="none" stroke="#e5e5e5" paint-order="fill stroke markers" d=" M 227 250 L 227 4" stroke-miterlimit="10"/><path fill="none" stroke="#e5e5e5" paint-order="fill stroke markers" d=" M 323 250 L 323 4" stroke-miterlimit="10"/><path fill="none" stroke="#e5e5e5" paint-order="fill stroke markers" d=" M 418 250 L 418 4" stroke-miterlimit="10"/><path fill="none" stroke="#e5e5e5" paint-order="fill stroke markers" d=" M 513 250 L 513 4" stroke-miterlimit="10"/><path fill="none" stroke="#e5e5e5" paint-order="fill stroke markers" d=" M 608 250 L 608 4" stroke-miterlimit="10"/><path fill="none" stroke="#e5e5e5" paint-order="fill stroke markers" d=" M 704 250 L 704 4" stroke-miterlimit="10"/></g><g><path fill="none" stroke="#e5e5e5" paint-order="fill stroke markers" d=" M 57 203 L 790 203" stroke-miterlimit="10"/><path fill="none" stroke="#e5e5e5" paint-order="fill stroke markers" d=" M 57 153 L 790 153" stroke-miterlimit="10"/><path fill="none" stroke="#e5e5e5" paint-order="fill stroke markers" d=" M 57 103 L 790 103" stroke-miterlimit="10"/><path fill="none" stroke="#e5e5e5" paint-order="fill stroke markers" d=" M 57 53 L 790 53" stroke-miterlimit="10"/></g><g><path fill="none" stroke="none"/><path fill="none" stroke="rgb(225,109,0)" paint-order="fill stroke markers" d=" M 756.6819034090909 52.692248495582845 L 756.6819034016273 52.69237876413467 L 756.6819033938118 52.69251207010342 L 756.6819033856273 52.69264848431118 L 756.6819033770569 52.69278807923152 L 756.681903368082 52.69293092902774 L 756.6819033586837 52.69307710959242 L 756.6819033488423 52.693226698587694 L 756.6819033385364 52.69337977548648 L 756.6819033277443 52.693536421614766 L 756.6819033164431 52.69369672019474 L 756.6819033046088 52.693860756389114 L 756.681903292216 52.69402861734628 L 756.6819032792387 52.69420039224656 L 756.6819032656492 52.69437617234976 L 756.6819032514186 52.69455605104352 L 756.6819032365167 52.6947401238929 L 756.6819032209114 52.69492848869126 L 756.6819032045703 52.69512124551221 L 756.6819031874581 52.69531849676267 L 756.6819031695388 52.695520347237306 L 756.6819031507739 52.695726904174364 L 756.6819031311238 52.69593827731239 L 756.6819031105465 52.69615457894875 L 756.6819030889988 52.69637592399911 L 756.6819030664342 52.696602430058675 L 756.6819030428055 52.6968342174645 L 756.6819030180616 52.697071409359495 L 756.6819029921505 52.69731413175788 L 756.6819029650169 52.69756251361204 L 756.6819029366038 52.69781668688114 L 756.6819029068495 52.69807678660115 L 756.6819028756918 52.6983429509566 L 756.6819028430643 52.69861532135408 L 756.6819028088976 52.698894042497216 L 756.681902773119 52.69917926246367 L 756.6819027356521 52.6994711327838 L 756.6819026964179 52.69976980852104 L 756.6819026553328 52.700075448354454 L 756.6819026123094 52.70038821466295 L 756.681902567256 52.700708273611525 L 756.6819025200775 52.70103579523956 L 756.6819024706731 52.70137095355125 L 756.6819024189381 52.70171392660788 L 756.6819023647622 52.70206489662257 L 756.6819023080307 52.70242405005703 L 756.6819022486225 52.702791577720575 L 756.6819021864119 52.703167674871594 L 756.6819021212661 52.703552541321216 L 756.6819020530472 52.703946381539424 L 756.6819019816098 52.70434940476383 L 756.6819019068023 52.704761825110694 L 756.6819018284655 52.70518386168877 L 756.6819017464331 52.70561573871561 L 756.6819016605307 52.706057685636836 L 756.6819015705757 52.706509937247915 L 756.6819014763769 52.70697273381893 L 756.6819013777342 52.70744632122225 L 756.6819012744375 52.70793095106316 L 756.6819011662678 52.70842688081353 L 756.681901052995 52.70893437394852 L 756.6819009343785 52.709453700086726 L 756.6819008101659 52.70998513513325 L 756.6819006800933 52.71052896142638 L 756.6819005438845 52.71108546788756 L 756.6819004012495 52.71165495017493 L 756.6819002518855 52.71223771084033 L 756.6819000954752 52.712834059490035 L 756.6818999316858 52.71344431294938 L 756.6818997601692 52.714068795430876 L 756.6818995805613 52.71470783870663 L 756.6818993924801 52.715361782284475 L 756.6818991955256 52.71603097358846 L 756.6818989892795 52.71671576814336 L 756.6818987733031 52.71741652976357 L 756.681898547138 52.71813363074631 L 756.681898310303 52.71886745206962 L 756.681898062295 52.719618383594565 L 756.6818978025865 52.72038682427245 L 756.681897530626 52.72117318235675 L 756.681897245835 52.72197787562001 L 756.6818969476087 52.72280133157582 L 756.681896635313 52.72364398770591 L 756.6818963082844 52.724506291692535 L 756.6818959658274 52.72538870165644 L 756.6818956072141 52.72629168640009 L 756.681895231683 52.72721572565692 L 756.6818948384353 52.72816131034597 L 756.6818944266356 52.72912894283294 L 756.6818939954082 52.73011913719691 L 756.6818935438373 52.731132419503524 L 756.6818930709624 52.732169328084495 L 756.6818925757789 52.73323041382358 L 756.6818920572341 52.734316240449175 L 756.6818915142262 52.73542738483397 L 756.6818909456008 52.736564437301325 L 756.6818903501496 52.737728001938876 L 756.6818897266066 52.73891869691951 L 756.681889073647 52.740137154829824 L 756.6818883898829 52.741384023006106 L 756.681887673861 52.74265996387828 L 756.681886924059 52.743965655321915 L 756.6818861388845 52.74530179101828 L 756.6818853166676 52.74666908082281 L 756.681884455661 52.748068251142456 L 756.6818835540348 52.74950004532141 L 756.6818826098729 52.75096522403604 L 756.6818816211685 52.75246456569914 L 756.6818805858202 52.75399886687333 L 756.6818795016272 52.75556894269434 L 756.6818783662859 52.757175627304065 L 756.6818771773824 52.75881977429367 L 756.6818759323903 52.76050225715713 L 756.6818746286635 52.76222396975524 L 756.681873263431 52.76398582679059 L 756.6818718337911 52.765788764293376 L 756.6818703367055 52.76763374011884 L 756.681868768992 52.76952173445602 L 756.681867127319 52.77145375034863 L 756.6818654081972 52.773430814227794 L 756.6818636079722 52.77545397645744 L 756.6818617228184 52.77752431189239 L 756.6818597487293 52.77964292044928 L 756.681857681509 52.78181092769094 L 756.6818555167638 52.78402948542441 L 756.6818532498928 52.78629977231287 L 756.6818508760778 52.788622994501736 L 756.6818483902741 52.79100038625958 L 756.681845787198 52.79343321063371 L 756.6818430613168 52.79592276012127 L 756.6818402068375 52.79847035735594 L 756.6818372176931 52.80107735581052 L 756.6818340875302 52.803745140515986 L 756.6818308096961 52.80647512879736 L 756.6818273772244 52.80926877102675 L 756.6818237828197 52.812127551393644 L 756.6818200188422 52.81505298869371 L 756.6818160772923 52.81804663713541 L 756.681811949793 52.82111008716586 L 756.6818076275713 52.824244966315774 L 756.6818031014407 52.82745294006392 L 756.6817983617818 52.8307357127222 L 756.6817933985212 52.83409502834087 L 756.6817882011096 52.83753267163519 L 756.6817827585007 52.8410504689335 L 756.681777059127 52.84465028914755 L 756.6817710908749 52.84833404476532 L 756.6817648410599 52.85210369286705 L 756.6817582963988 52.855961236164944 L 756.6817514429813 52.85990872406711 L 756.6817442662414 52.86394825376641 L 756.6817367509259 52.86808197135443 L 756.6817288810619 52.87231207296176 L 756.6817206399232 52.876640805924524 L 756.6817120099936 52.88107046997848 L 756.6817029729316 52.88560341848057 L 756.6816935095301 52.890242059659215 L 756.6816835996756 52.89498885789362 L 756.681673222306 52.89984633502306 L 756.6816623553655 52.904817071686495 L 756.6816509757575 52.90990370869352 L 756.6816390592962 52.91510894842736 L 756.6816265806544 52.920435556280296 L 756.6816135133104 52.92588636212295 L 756.6815998294912 52.93146426180746 L 756.6815855001137 52.93717221870591 L 756.6815704947219 52.94301326528449 L 756.681554781424 52.94899050471457 L 756.6815383268236 52.955107112521034 L 756.6815210959483 52.9613663382693 L 756.6815030521755 52.96777150729142 L 756.6814841571563 52.97432602245274 L 756.681464370731 52.981033365959405 L 756.6814436508457 52.987897101208205 L 756.6814219534638 52.99492087467948 L 756.6813992324694 53.00210841787418 L 756.6813754395723 53.009463549296015 L 756.6813505242033 53.01699017647982 L 756.6813244334085 53.02469229806729 L 756.6812971117345 53.03257400593097 L 756.681268501113 53.04063948734782 L 756.6812385407354 53.04889302722347 L 756.6812071669251 53.057339010368196 L 756.6811743130008 53.06598192382614 L 756.6811399091357 53.074826359258594 L 756.6811038822088 53.08387701538294 L 756.6810661556499 53.0931387004685 L 756.6810266492755 53.1026163348904 L 756.6809852791203 53.112314953743066 L 756.6809419572573 53.12223970951453 L 756.6808965916116 53.1323958748232 L 756.680849085765 53.142788845218234 L 756.6807993387492 53.153424142045196 L 756.6807472448347 53.164307415378744 L 756.6806926933018 53.17544444702315 L 756.6806355682095 53.18684115358329 L 756.6805757481457 53.19850358960676 L 756.6805131059709 53.21043795079939 L 756.6804475085487 53.22265057731562 L 756.68037881646 53.235147957125605 L 756.6803068837098 53.247936729460605 L 756.6802315574155 53.26102368833881 L 756.6801526774811 53.27441578617308 L 756.6800700762594 53.28812013746304 L 756.6799835781931 53.302144022572804 L 756.6798929994432 53.31649489159685 L 756.6797981474983 53.33118036831601 L 756.679698820765 53.34620825424548 L 756.6795948081383 53.36158653277701 L 756.6794858885564 53.37732337341777 L 756.6793718305269 53.393427136127656 L 756.6792523916374 53.40990637575777 L 756.6791273180397 53.42676984659215 L 756.6789963439096 53.44402650699513 L 756.6788591908828 53.46168552416705 L 756.6787155674635 53.47975627901059 L 756.6785651684038 53.49824837111015 L 756.6784076740557 53.517171623827494 L 756.6782427496923 53.53653608951555 L 756.6780700447955 53.55635205485379 L 756.6778891923116 53.576630046307656 L 756.677699807871 53.59738083571486 L 756.6775014889718 53.61861544600177 L 756.6772938141237 53.64034515703261 L 756.6770763419536 53.66258151159474 L 756.6768486102656 53.685336321523096 L 756.6766101350613 53.70862167396683 L 756.6763604095086 53.732449937801874 L 756.6760989028676 53.75683377019237 L 756.6758250593591 53.78178612330444 L 756.675538296988 53.80732025117621 L 756.6752380063022 53.83344971674711 L 756.6749235491006 53.86018839905071 L 756.6745942570753 53.887550500574264 L 756.6742494303928 53.91555055478932 L 756.6738883362052 53.94420343385704 L 756.6735102070945 53.973524356512286 L 756.6731142394415 54.003528896130575 L 756.6726995917177 54.034232988982325 L 756.6722653826971 54.06565294267821 L 756.6718106895855 54.097805444810604 L 756.6713345460576 54.13070757179486 L 756.6708359402048 54.16437679791599 L 756.6703138123858 54.198831004584406 L 756.6697670529729 54.234088489806055 L 756.6691944999975 54.27016797787206 L 756.6685949366797 54.30708862927216 L 756.6679670888423 54.34487005083761 L 756.667309622206 54.38353230611867 L 756.6666211395527 54.42309592600185 L 756.6659001777577 54.463581919572334 L 756.6651452046831 54.50501178522748 L 756.6643546159196 54.547407522046626 L 756.6635267313814 54.59079164142318 L 756.6626597917355 54.63518717896511 L 756.6617519546646 54.68061770666958 L 756.6608012909551 54.727107345377846 L 756.6598057803967 54.774680777517176 L 756.6587633074937 54.823363260135665 L 756.6576716569712 54.87318063823682 L 756.656528509068 54.92415935842038 L 756.6553314346133 54.97632648283664 L 756.6540778898645 55.02970970346044 L 756.6527652111067 55.08433735669283 L 756.6513906089954 55.14023843829682 L 756.649951162633 55.19744261867521 L 756.6484438133675 55.25598025849763 L 756.646865358296 55.31588242468462 L 756.6452124434661 55.37718090675634 L 756.6434815567527 55.439908233554206 L 756.6416690204032 55.50409769034323 L 756.6397709832297 55.569783336303345 L 756.6377834124319 55.63700002241819 L 756.635702085038 55.705783409769765 L 756.6335225789412 55.77616998824777 L 756.6312402635124 55.84819709568231 L 756.6288502897735 55.92190293740879 L 756.6263475801072 55.9973266062745 L 756.6237268174812 56.07450810309575 L 756.6209824341663 56.15348835757504 L 756.6181085999237 56.23430924968801 L 756.6150992096354 56.317013631549315 L 756.6119478703529 56.40164534976779 L 756.6086478877371 56.48824926830045 L 756.6051922518595 56.576871291815394 L 756.6015736223346 56.66755838957394 L 756.5977843127569 56.76035861984215 L 756.5938162744001 56.85532115484207 L 756.5896610791553 56.95249630625332 L 756.5853099016635 57.05193555127548 L 756.5807535006102 57.15369155926203 L 756.5759821991396 57.25781821893651 L 756.5709858643502 57.36437066620172 L 756.565753885825 57.473405312552984 L 756.5602751531542 57.58497987410601 L 756.5545380324043 57.699153401250726 L 756.5485303414775 57.81598630894166 L 756.5422393243211 57.9355404076361 L 756.5356516239201 58.05787893489068 L 756.5287532540281 58.18306658762742 L 756.521529569568 58.31116955508014 L 756.5139652356477 58.442255552431476 L 756.5060441951223 58.576393855151935 L 756.4977496346364 58.71365533405054 L 756.4890639490732 58.85411249104777 L 756.4799687043442 58.997839495681205 L 756.4704445984312 59.1449122223529 L 756.4604714206071 59.295408288328645 L 756.4500280087507 59.44940709249818 L 756.4390922046625 59.60698985490495 L 756.4276408072947 59.76823965705421 L 756.4156495237921 59.93324148300687 L 756.4030929182522 60.102082261266986 L 756.3899443580881 60.2748509074693 L 756.3761759578911 60.45163836787313 L 756.3617585206769 60.63253766366779 L 756.346661476392 60.817643936094214 L 756.3308528175562 61.007054492386175 L 756.3142990319088 61.20086885253406 L 756.2969650319242 61.39918879687224 L 756.2788140810469 61.60211841449072 L 756.259807716503 61.8097641524696 L 756.2399056685272 62.02223486593425 L 756.2190657758445 62.23964186892675 L 756.1972438972314 62.46209898608794 L 756.1743938189868 62.68972260514238 L 756.1504671581179 62.92263173017619 L 756.1254132610525 63.16094803569595 L 756.0991790976755 63.40479592145442 L 756.0717091504753 63.65430256802543 L 756.0429452985836 63.90959799310852 L 756.0128266964773 64.17081510854015 L 755.9812896471046 64.4380897779852 L 755.9482674691862 64.71156087527848 L 755.9136903584304 64.99137034338295 L 755.8774852423946 65.27766325392611 L 755.8395756287116 65.57058786727208 L 755.7998814463824 65.87029569308203 L 755.7583188798412 66.17694155130988 L 755.7148001954649 66.490683633575 L 755.6692335602036 66.8116835648473 L 755.6215228519895 67.14010646537344 L 755.5715674615635 67.4761210127659 L 755.5192620853559 67.81989950416926 L 755.464496509031 68.17161791840917 L 755.4071553813044 68.53145597802177 L 755.34711797761 68.89959721105097 L 755.2842579532005 69.2762290124912 L 755.2184430852246 69.66154270524265 L 755.1495350033338 70.05573360043405 L 755.0773889083309 70.45900105695603 L 755.0018532783815 70.87154854003398 L 754.9227695622667 71.29358367865618 L 754.8399718591643 71.7253183216568 L 754.7532865844098 72.16696859223754 L 754.6625321206818 72.618754940694 L 754.5675184540369 73.08090219509461 L 754.4680467942023 73.55363960963948 L 754.3639091785217 74.03720091040617 L 754.2548880589254 74.53182433816556 L 754.1407558712938 75.03775268792839 L 754.0212745865515 75.55523334485576 L 753.8961952428301 76.08451831614076 L 753.7652574580168 76.62586425843836 L 753.6281889219897 77.17953250039056 L 753.4847048678421 77.74578905975989 L 753.3345075213724 78.32490465464983 L 753.1772855281201 78.91715470825415 L 753.012713357216 79.52281934653618 L 752.8404506813113 80.14218338819893 L 752.6601417318507 80.77553632626126 L 752.471414628953 81.42317230050952 L 752.2738806851673 82.0853900600435 L 752.0671336823832 82.76249291508415 L 751.8507491211826 83.45478867715397 L 751.6242834419397 84.16258958668385 L 751.3872732169943 84.88621222703773 L 751.139234313255 85.62597742388198 L 750.8796610246186 86.38221012875891 L 750.6080251736371 87.15523928565142 L 750.3237751819081 87.94539767925176 L 750.0263351087231 88.75302176356854 L 749.7151036575788 89.57845146942472 L 749.3894531502274 90.42202998931282 L 749.0487284680326 91.28410353798597 L 748.692245960505 92.16502108706973 L 748.3192923209956 93.06513407188453 L 747.9291234296668 93.98479606856807 L 747.5209631639943 94.92436243948677 L 747.0940021772349 95.88418994481725 L 746.6473966454571 96.86463631807297 L 746.1802669839578 97.86605980323941 L 745.6916965340988 98.88881865106927 L 745.1807302218556 99.93327057197504 L 744.6463731896524 100.99977214284138 L 744.0875894033529 102.08867816496456 L 743.5033002366231 103.20034097021235 L 742.8923830352471 104.33510967238334 L 742.2536696643772 105.49332936063504 L 741.585945042146 106.67534023174363 L 740.8879456635423 107.8814766578547 L 740.1583581189732 109.11206618629117 L 739.3958176125032 110.3674284678975 L 738.5989064853621 111.64787411032128 L 737.7661527509805 112.95370345257285 L 736.8960286485061 114.28520525715183 L 735.9869492225255 115.64265531600148 L 735.0372709375158 117.02631496654016 L 734.0452903364228 118.43642951403405 L 733.0092427536789 119.87322655661839 L 731.9273010939546 121.3369142093469 L 730.7975746889673 122.82767922376021 L 729.6181082457574 124.34568499961466 L 728.3868809009878 125.89106948560945 L 727.101805397011 127.46394296619772 L 725.760727396698 129.0643857318713 L 724.3614249552961 130.69244563067758 L 722.9016081689243 132.34813549916106 L 721.3789190206594 134.0314304714372 L 719.7909314465528 135.74226516569848 L 718.1351516453079 137.48053074813862 L 716.4090186567438 139.2460718750612 L 714.6099052355531 141.03868351482407 L 712.7351190482032 142.8581076522654 L 710.7819042221383 144.7040298793715 L 708.7474432776628 146.5760758771814 L 706.6288594740117 148.47380779529118 L 704.4232196021273 150.39672053681875 L 702.1275372575001 152.34423795833163 L 699.7387766270958 154.3157089960177 L 697.2538568248166 156.31040373130332 L 694.6696568101042 158.3275094111836 L 691.9830209241451 160.36612644073602 L 689.1907650776197 162.4252643676189 L 686.2896836230282 164.5038378808186 L 683.2765569432374 166.60066284847983 L 680.1481597860134 168.71445242232082 L 676.9012703718433 170.84381323888104 L 673.5326802992844 172.98724175064638 L 670.039205268331 175.14312072291477 L 666.4176966378343 177.30971593507502 L 662.6650538277826 179.48517312772609 L 658.7782375712181 181.667515239721 L 654.7542840137038 183.85463998172872 L 650.5903196505192 186.0443177952036 L 646.2835770831693 188.2341902476861 L 641.8314115673174 190.421768917045 L 637.2313183139256 192.60443481855359 L 632.4809504942549 194.77943842948264 L 627.5781378874719 196.94390036611975 L 622.5209060970317 199.09481276770163 L 617.3074962488608 201.2290414405983 L 611.9363850707689 203.34332881413567 L 606.4063052386387 205.4342977566096 L 600.7162658609808 207.49845629627404 L 594.8655729595814 209.53220328730416 L 588.853849790489 211.53183505491597 L 582.6810568367296 213.4935530469258 L 576.3475112922083 215.41347251104713 L 569.8539058455514 217.28763220816177 L 563.2013265635044 219.1120051616981 L 556.3912696662337 220.88251043216016 L 549.4256569818422 222.59502589386966 L 542.3068498648893 224.2454019782216 L 535.0376613640407 225.82947633436447 L 527.6213664274015 227.34308934437487 L 520.0617099408696 228.78210041590918 L 512.3629124051504 230.1424049612195 L 504.5296730710315 231.41995195756974 L 496.5671703701751 232.61076197076235 L 488.4810595000227 233.71094551097056 L 480.27746704630465 234.71672157866908 L 471.9629825549144 235.62443624845636 L 463.54464699622673 236.4305811302596 L 455.02993809894303 237.13181154107335 L 446.4267525667432 237.72496421624956 L 437.74338522884364 238.20707438763998 L 428.98850521439255 238.57539205675897 L 420.1711292797446 238.82739729468983 L 411.30059245634845 238.96081440677128 L 402.3865162244523 238.97362480915783 L 393.4387744533326 238.86407847607745 L 384.46745738152345 238.63070383088618 L 375.4828339398474 238.27231597062726 L 366.49531274527203 237.78802313249264 L 357.51540211416386 237.17723133103078 L 348.5536694589082 236.43964711678615 L 339.62070044174243 235.57527842988426 L 330.72705826378694 234.5844335454713 L 321.8832434655319 233.46771813140825 L 313.09965460750857 232.22603046179066 L 304.3865501866837 230.86055485224196 L 295.7540121255918 229.37275340411662 L 287.21191114776616 227.76435616435262 L 278.76987432517564 226.0373498253944 L 270.43725505174785 224.1939651050737 L 262.2231056623266 222.23666295936616 L 254.136152879328 220.16811979135304 L 246.1847762306707 217.99121182742894 L 238.37698954303454 215.70899883675116 L 230.72042557489624 213.32470737216727 L 223.22232381481552 210.84171371046548 L 215.88952143275446 208.26352666690536 L 208.72844733640687 205.5937704538005 L 201.74511925110437 202.8361677456565 L 194.94514371127198 199.99452310428336 L 188.33371882397032 197.07270690667116 L 181.91563964101886 194.07463990654034 L 175.69530595569313 191.00427854763885 L 169.67673232308476 187.8656011333572 L 163.8635600898865 184.66259494334113 L 158.2590712095092 181.39924437376794 L 152.8662036118914 178.07952016405255 L 147.68756789391034 174.70736975918078 L 142.7254650956669 171.2867088438108 L 137.98190532981278 167.8214140718975 L 133.45862703518776 164.31531700400154 L 129.15711663199647 160.772199253733 L 125.07862836325417 157.19578883501765 L 121.22420411592135 153.5897576930897 L 117.59469302470661 149.95772039431856 L 114.19077067164571 146.30323394315175 L 111.0129577049699 142.62979868856445 L 108.06163771120059 138.94086027738774 L 105.33707418462826 135.23981260767943 L 102.83942644813133 131.5300017318067 L 100.56876438852194 127.81473065604666 L 98.5250818781073 124.09726498116552 L 96.70830876183535 120.38083932650704 L 95.1183212961742 116.6686644784944 L 93.75495093169934 112.9639352030062 L 92.61799133622512 109.26983865972048 L 91.70720355921853 105.5895633551072 L 91.02231924120773 101.92630856918265 L 90.56304177401313 98.28329418930329 L 90.3290453189619 94.66377088206454 L 90.31997159090915 91.07103053167612 L 90.53542431601898 87.50841686990742 L 90.97496127100655 83.97933621873668 L 91.6380838110926 80.48726826210122 L 92.52422379349011 77.03577675754369 L 93.63272780305363 73.62852009200213 L 94.96283858705098 70.26926157841507 L 96.5136736071552 66.96187938114235 L 98.28420061903628 63.71037594837935 L 100.27321019372083 60.51888681870807 L 102.47928510059664 57.39168865665687 L 104.90076648001138 54.33320635860059 L 107.53571674434734 51.348019055530216 L 110.38187916079903 48.44086482317027 L 113.43663408741473 45.616643892676336 L 116.6969518569548 42.8804201367858 L 120.15934233145462 40.23742058694444 L 123.81980118482058 37.69303271676165 L 127.67375301214176 35.25279920638479 L 131.7159914135205 32.92240988132352 L 135.94061625801328 30.70769049826697 L 140.34096840066331 28.614588029985327 L 144.90956220354542 26.64915208205184 L 149.6380163011946 24.817512056547173 L 154.51698315267828 23.1258496629286 L 159.53607803779124 21.580366364824954 L 164.68380828418753 20.18724534478389 L 169.94750365638203 18.952607568265137 L 175.31324899691313 17.882461534950664 L 180.76582038476738 16.982646321456173 L 186.28862626627534 16.258767546724187 L 191.86365521851502 15.716125931948 L 197.4714322236487 15.359638183232505 L 203.09098556274466 15.193750000000023 L 208.69982667681194 15.222341108274179 L 214.27394558731805 15.448622338485734 L 219.7878247134874 15.875024915561937 L 225.2144741628984 16.503082308096964 L 230.52549179741578 17.333305196659467 L 235.69115157854515 18.365050371978384 L 240.68052386305985 19.59638466479032 L 245.46163143707503 21.02394534301294 L 250.00164512798597 22.64279879041601 L 254.26712279951244 24.44629970489592 L 258.22429539336525 26.425953523300734 L 261.8394034068274 28.57128529121161 L 265.0790867611257 30.869718745681325 L 267.9108303906968 33.30646995936729 L 270.30346703612116 35.86446049513643 L 272.22773762011116 38.52425562633357 L 273.6569081927349 41.264033770022536 L 274.5674407164615 44.05959383365004 L 274.9397128941614 46.88440765855262 L 274.7587797999771 49.709725118461506 L 274.0151672387478 52.504739652197316 L 272.7056835315823 55.2368220238954 L 270.8342328173027 57.871829850455214 L 268.4126090080273 60.374499846251496 L 265.4612453064175 62.70892873502251 L 262.0098897809569 64.83914728934579 L 258.09817304451144 66.72978989865192 L 253.77602977935928 68.34685935906552 L 249.10393194318368 69.65858315197963 L 244.1528882804452 70.63635327742043 L 239.00416262212832 71.25573670081803 L 233.74866281979558 71.49753766005139 L 228.48595352516185 71.34888651296987 L 223.32284994494702 70.8043225949794 L 218.37155675941878 69.86683089007792 L 213.74732718769758 68.54878447915439 L 209.5656322798559 66.87273710848794 L 205.93885039929313 64.87200333499482 L 202.97251186304666 62.590958202003264 L 200.76116393289593 60.08498506515352 L 199.38395656302455 57.41999993507471 L 198.90008883075905 54.67148454924478 L 199.34429855781494 51.922969409934524 L 200.72262133381008 49.263923304645004 L 203.00868724721545 46.78702833754471 L 206.1408605010725 44.584849997037765 L 210.02055423014 42.74595063173189 L 214.5120648857624 41.35054169301975 L 219.444261482277 40.46582422157098 L 224.61442841464878 40.14122628038831 L 229.79449021485544 40.40380710433675 L 234.73973711980332 41.2541559697882 L 239.20001806217172 42.66316301306716 L 242.93317197000044 44.570071815938775 L 245.7202325859964 46.8822306956325 L 247.38167548411258 49.47693174258518 L 247.7936945206031 52.20565429877652 L 246.90322242864312 54.90090457772291 L 244.74017881414608 57.38566007749512 L 241.4252786058085 59.48518552421859 L 237.17171176166062 61.04069221085686 L 232.27916104747888 61.92397963671425 L 227.11900810458815 62.05185340500003 L 222.1102295926344 61.39879577157251 L 217.68642704832834 60.006129165935306 L 214.2556552138511 57.98582738130628 L 212.15615008626722 55.51727498230869 L 211.61256843205737 52.83573746779675 L 212.69869045396484 50.21215287689745 L 215.31334430194497 47.92511264561929 L 219.17612481198486 46.22749310974609 L 223.8478289537681 45.311906669844035 L 228.77712136401715 45.280556955828814 L 233.369922890677 46.12564879102686 L 237.0722303632606 47.72566440539546 L 239.452121938093 49.86028572390762 L 240.26455453411836 52.242802102299606 L 239.48475203433296 54.56447955539943 L 237.30264943220865 56.54203967451147 L 234.08025223503793 57.95843055243648 L 230.28276711597064 58.68896929254797 L 226.39984429020785 58.70903655506808 L 222.8736271168452 58.084278894470316 L 220.0460643017788 56.94808165422489 L 218.13126713702914 55.472897405073496 L 217.21214442083746 53.84176451832778 L 217.25594872245594 52.22466408311644 L 218.14135293228793 50.76213848731919 L 219.6898784812411 49.55657867562073 L 221.6960591725721 48.67018400503622 L 223.95277435363542 48.12788656667024 L 226.27009780908935 47.92338329374701 L 228.48746617744752 48.026631136852075 L 230.47989733725902 48.39154292607904 L 232.15945218546707 48.96303657623139 L 233.47325664562933 49.68295786512036 L 234.39931118085588 50.49468263604663 L 234.94111554146403 51.34640302005414 L 235.12189931398535 52.193224896538624 L 234.97901868058756 52.998267107531774 L 234.55888011086574 53.73297409081678 L 233.91259162828558 54.37684742036856 L 233.09242225289324 54.916779774875835 L 232.14906601174255 55.34614540053673 L 231.12965235227114 55.66376975559487 L 230.07641335357368 55.87287115593233 L 229.0259037745601 55.98004077180451 L 228.00866757407593 55.994305083284786 L 227.04924996223815 55.92629702946135 L 226.166464132142 55.7875483179927 L 225.3738342548176 55.589905214512925 L 224.68014946934557 55.345063034142555 L 224.09007638333486 55.06420993083384 L 223.6047893517204 54.757767884977426 L 223.22258816447172 54.43521755034408 L 222.93948160203672 54.10499343644679 L 222.7497226118906 53.77443644399784 L 222.64628671285502 53.449791779961544 L 222.62128979092068 53.13624155576832 L 222.66634488094905 52.837962769746895 L 222.77286000841647 52.55820278700989 L 222.93228086333602 52.29936578479797 L 223.13628314972846 52.063104882725725 L 223.3769200357867 51.85041579939397 L 223.64673034020274 51.66172885791096 L 223.9388130279543 51.496997001809774 L 224.24687333525782 51.355778185457524 L 224.56524546335962 51.237311079534294 L 224.88889632523941 51.14058349523094 L 225.21341433701588 51.06439329426365 L 225.534986745729 51.00740182953484 L 225.8503684978922 50.96818016661177 L 226.1568451928709 50.94524848150084 L 226.4521922407019 50.937109126597306 L 226.73463196042545 50.94227391400679 L 227.00279001438616 50.95928619214621 L 227.25565227615206 50.98673829485884 L 227.49252297306944 51.02328492824421 L 227.71298472638878 51.06765303397782 L 227.91686092912968 51.118648633093045 L 228.10418075086093 51.175161114221225 L 228.27514693573093 51.23616538763491 L 228.4301064618292 51.300722283022935 L 228.56952405290858 51.36797752617167 L 228.69395847450525 51.43715958865141 L 228.80404150269538 51.50757666591906 L 228.90045942255637 51.57861300338669 L 228.9839368925918 51.649724757222714 L 229.05522299895026 51.72043554703825 L 229.1150793175182 51.79033183114964 L 229.16426980143478 51.85905821169433 L 229.2035523150416 51.926312756354776 L 229.23367164171003 51.99184240561709 L 229.255353801546 52.05543851914089 L 229.26930152495854 52.11693260171583 L 229.27619073894678 52.17619223820472 L 229.27666793426172 52.233117257595865 L 229.27134829299732 52.28763613860269 L 229.26081446739207 52.33970266295336 L 229.24561591148586 52.38929281742787 L 229.22626867763336 52.4364019416559 L 229.20325559963405 52.48104211553442 L 229.17702679333567 52.523239777726076 L 229.14800041397547 52.56303356493703 L 229.11656361723016 52.60047236043903 L 229.0830736779617 52.63561353950723 L 229.04785922698983 52.668521399007346 L 229.01122157192478 52.69926575821725 L 228.9734360731911 52.72792071805094 L 228.93475355090268 52.75456356611204 L 228.89540170225598 52.779273815404 L 228.85558651263113 52.8021323650226 L 228.81549364667467 52.82322077172884 L 228.7752898083208 52.84262062191988 L 228.73512406103333 52.86041299416348 L 228.69512910155046 52.87667800312056 L 228.65542248212742 52.89149441633987 L 228.6161077777289 52.90493933605654 L 228.5772756958527 52.91708793875651 L 228.5390051276974 52.928013265874 L 228.50136414024243 52.937786059568026 L 228.4644109095127 52.94647463806959 L 228.42819459587207 52.95414480560706 L 228.39275616264592 52.960859792397 L 228.35812913973294 52.96668022063645 L 228.32434033414032 52.97166409284682 L 228.29141048958004 52.97586679930254 L 228.259354897406 52.97934114162848 L 228.22818396126448 52.98213736997266 L 228.1979037178788 52.984303231454334 L 228.16851631640475 52.9858840278543 L 228.14002045877822 52.98692268075757 L 228.1124118034398 52.98745980257681 L 228.08568333476597 52.987533772083225 L 228.05982570046572 52.98718081324958 L 228.0348275191219 52.98643507636888 L 228.01067565996698 52.98532872055594 L 227.98735549688948 52.983891996865566 L 227.96485113856954 52.98215333137546 L 227.9431456365424 52.980139407681435 L 227.9222211728895 52.977875248343224 L 227.90205922915771 52.975384294895804 L 227.88264073800977 52.97268848611259 L 227.86394621901417 52.96980833426568 L 227.84595589989152 52.96676299918283 L 227.828649824445 52.96357035994609 L 227.81200794831796 52.96024708411775 L 227.79601022364133 52.95680869441409 L 227.78063667355556 52.95326963277631 L 227.76586745751965 52.94964332181479 L 227.7516829282507 52.94594222362335 L 227.7380636810726 52.94217789597957 L 227.7249905963916 52.93836104596147 L 227.71244487595942 52.93450158102425 L 227.70040807353112 52.93060865759119 L 227.6888621204755 52.9266907272208 L 227.67778934684915 52.92275558041911 L 227.66717249840215 52.91881038817135 L 227.6569947499435 52.914861741270755 L 227.6472397154574 52.91091568752475 L 227.63789145532732 52.9069777669211 L 227.628934480992 52.90305304483692 L 227.62035375733026 52.89914614337326 L 227.61213470304241 52.8952612708986 L 227.60426318927273 52.89140224988279 L 227.59672553669395 52.88757254310164 L 227.58950851125365 52.88377527829107 L 227.5825993187638 52.880013271327584 L 227.57598559849623 52.876289048009625 L 227.56965541593135 52.87260486451183 L 227.5635972547924 52.86896272658245 L 227.5578000084839 52.86536440755046 L 227.55225297104062 52.86181146520772 L 227.54694582768275 52.85830525762765 L 227.5418686450616 52.8548469579799 L 227.5370118612722 52.85143756839818 L 227.53236627569916 52.84807793295454 L 227.52792303875643 52.84476874979276 L 227.5236736415721 52.841510582469084 L 227.51960990566567 52.83830387054758 L 227.51572397265787 52.83514893949413 L 227.51200829404772 52.83204600991138 L 227.50845562108887 52.828995206154275 L 227.5050589947902 52.82599656436395 L 227.5018117360644 52.823050039955916 L 227.49870743604342 52.820155514595854 L 227.4957399465768 52.81731280269523 L 227.49290337092697 52.814521657456595 L 227.49019205467164 52.81178177649704 L 227.48760057682318 52.80909280707644 L 227.48512374117104 52.806454350955704 L 227.48275656785273 52.80386596890878 L 227.4804942851571 52.80132718491052 L 227.47833232156205 52.798837490021725 L 227.4762662980076 52.79639634599067 L 227.47429202040487 52.794003188590096 L 227.47240547237962 52.79165743070649 L 227.4706028082487 52.789358465198575 L 227.46888034622762 52.78710566753992 L 227.46723456186527 52.78489839826037 L 227.46566208170358 52.78273600519938 L 227.464159677157 52.780617825584244 L 227.46272425860852 52.77854318794502 L 227.46135286971696 52.77651141387696 L 227.46004268193138 52.77452181966129 L 227.45879098920702 52.7725737177536 L 227.4575952029179 52.77066641814929 L 227.45645284696116 52.76879922963448 L 227.45536155304703 52.76697146093028 L 227.45431905616977 52.76518242173805 L 227.453323190254 52.76343142369237 L 227.4523718839706 52.76171778122844 L 227.45146315671772 52.76004081237008 L 227.45059511476038 52.75839983944351 L 227.44976594752458 52.75679418972297 L 227.44897392403996 52.75522319601251 L 227.44821738952612 52.75368619716883 L 227.44749476211766 52.752182538569656 L 227.44680452972284 52.75071157253123 L 227.44614524701134 52.74927265867922 L 227.44551553252606 52.74786516427602 L 227.4449140659146 52.74648846450833 L 227.44433958527577 52.745141942737376 L 227.4437908846173 52.74382499071507 L 227.4432668114196 52.74253700876869 L 227.44276626430235 52.741277405956566 L 227.44228819078947 52.74004560019665 L 227.44183158516873 52.73884101837089 L 227.44139548644225 52.737663096406635 L 227.4409789763644 52.73651127933746 L 227.44058117756333 52.73538502134474 L 227.4402012517432 52.734283785781884 L 227.43983839796317 52.73320704518261 L 227.43949185099086 52.732154281254424 L 227.43916087972667 52.73112498485895 L 227.43884478569595 52.73011865598028 L 227.43854290160678 52.72913480368183 L 227.43825458997023 52.7281729460538 L 227.43797924178043 52.727232610151134 L 227.43771627525217 52.72631333192362 L 227.4374651346137 52.7254146561385 L 227.43722528895196 52.72453613629651 L 227.43699623110862 52.72367733454223 L 227.43677747662414 52.722837821569016 L 227.4365685627284 52.72201717651936 L 227.43636904737556 52.72121498688122 L 227.43617850832123 52.72043084838083 L 227.43599654224053 52.719664364872386 L 227.4358227638846 52.718915148224994 L 227.4356568052748 52.718182818207595 L 227.43549831493198 52.71746700237196 L 227.4353469571402 52.716767335933895 L 227.43520241124295 52.71608346165371 L 227.43506437097014 52.715415029715274 L 227.4349325437955 52.714761697604786 L 227.43480665032203 52.71412312998899 L 227.43468642369484 52.713498998592996 L 227.43457160904023 52.71288898207857 L 227.43446196292933 52.712292765922115 L 227.43435725286594 52.71171004229333 L 227.43425725679697 52.711140509934296 L 227.4341617626447 52.71058387403909 L 227.4340705678599 52.71003984613441 L 227.4339834789948 52.70950814396093 L 227.4339003112952 52.7089884913556 L 227.43382088831058 52.70848061813524 L 227.43374504152197 52.70798425998095 L 227.43367260998596 52.7074991583242 L 227.433603439995 52.70702506023383 L 227.4335373847527 52.70656171830467 L 227.4334743040636 52.70610889054731 L 227.43341406403698 52.70566634027969 L 227.4333565368037 52.7052338360198 L 227.43330160024604 52.704811151380085 L 227.43324913773912 52.70439806496347 L 227.43319903790444 52.703994360260765 L 227.43315119437415 52.703599825549816 L 227.43310550556586 52.70321425379615 L 227.43306187446768 52.70283744255525 L 227.43302020843285 52.70246919387665 L 227.4329804189836 52.702109314209196 L 227.4329424216236 52.70175761430846 L 227.43290613565918 52.7014139091454 L 227.43287148402825 52.70107801781677 L 227.4328383931371 52.70074976345711 L 227.43280679270438 52.7004289731525 L 227.4327766156122 52.70011547785552 L 227.4327477977638 52.69980911230235 L 227.4327202779478 52.6995097149308 L 227.43269399770818 52.699217127800495 L 227.43266890122064 52.698931196514195 L 227.43264493517395 52.69865177014077 L 227.43262204865704 52.698378701139774 L 227.43260019305097 52.698111845287315 L 227.43257932192577 52.69785106160356 L 227.432559390942 52.69759621228161 L 227.4325403577566 52.69734716261789 L 227.43252218193317 52.69710378094382 L 227.432504824856 52.696865938558915 L 227.4324882496483 52.69663350966542 L 227.43247242109376 52.69640637130408 L 227.432457305562 52.696184403291284 L 227.43244287093702 52.69596748815766 L 227.43242908654915 52.695755511087754 L 227.43241592310983 52.695548359861164 L 227.43240335264957 52.69534592479471 L 227.43239134845845 52.69514809868599 L 227.43237988502946 52.694954776758124 L 227.43236893800437 52.69476585660564 L 227.43235848412198 52.69458123814135 L 227.4323485011687 52.694400823544754 L 227.43233896793143 52.694224517211126 L 227.4323298641525 52.69405222570208 L 227.43232117048663 52.69388385769682 L 227.43231286845986 52.69371932394483 L 227.43230494043033 52.693558537219275 L 227.43229736955072 52.69340141227164 L 227.4322901397327 52.693247865787185 L 227.4322832356124 52.69309781634158 L 227.43227664251813 52.692951184358236 L 227.43227034643897 52.69280789206675 L 227.43226433399516 52.69266786346225 L 227.43225859240954 52.692531024265605 L 227.43225310948057 52.6923973018844 L 227.43224787355626 52.69226662537503 L 227.4322428735095 52.69213892540543 L 227.4322380987144 52.692014134218624 L 227.43223353902374 52.691892185597226 L 227.43222918474737 52.69177301482864 L 227.4322250266316 52.69165655867096 L 227.43222105583968 52.6915427553198 L 227.4322172639328 52.691431544375774 L 227.43221364285242 52.69132286681264 L 227.4322101849029 52.69121666494621 L 227.43220688273533 52.69111288240404 L 227.43220372933183 52.69101146409568 L 227.43220071799067 52.69091235618359 L 227.43219784231198 52.690815506054804 L 227.43219509618422 52.69072086229315 L 227.43219247377118 52.69062837465208 L 227.4321899694995 52.690537994028205 L 227.43218757804695 52.690449672435335 L 227.43218529433102 52.69036336297913 L 227.43218311349818 52.69027901983233 L 227.43218103091357 52.69019659821052 L 227.43217904215103 52.69011605434852 L 227.43217714298393 52.69003734547712 L 227.43217532937592 52.68996042980058 L 227.43217359747254 52.68988526647453 L 227.432171943593 52.68981181558422 L 227.43217036422226 52.689740038123546 L 227.4321688560037 52.68966989597433 L 227.43216741573184 52.68960135188624 L 227.43216604034566 52.68953436945682 L 227.43216472692203 52.68946891311259 L 227.43216347266952 52.68940494808987 L 227.43216227492238 52.68934244041654 L 227.43216113113502 52.689281356894014 L 227.43216003887656 52.6892216650796 L 227.43215899582552 52.68916333326942 L 227.4321579997651 52.68910633048151 L 227.43215704857835 52.68905062643938 L 227.43215614024365 52.68899619155607 L 227.43215527283047 52.68894299691843 L 227.43215444449527 52.68889101427172 L 227.43215365347754 52.68884021600468 L 227.43215289809612 52.68879057513496 L 227.43215217674555 52.68874206529466 L 227.4321514878927 52.688694660716465 L 227.4321508300735 52.688648336219956" stroke-opacity="0.9" stroke-miterlimit="10" stroke-width="2"/></g><g><path fill="none" stroke="none"/><path fill="none" stroke="rgb(102,180,211)" paint-order="fill stroke markers" d=" M 756.6451775601565 52.69224600524558 L 756.6451775529438 52.69237621573129 L 756.6451775453909 52.69250946227996 L 756.6451775374819 52.692645815682226 L 756.6451775291996 52.69278534837929 L 756.6451775205267 52.692928134501386 L 756.6451775114444 52.69307424990728 L 756.6451775019336 52.693223772224485 L 756.6451774919747 52.69337678089053 L 756.645177481545 52.69353335719509 L 756.645177470624 52.69369358432331 L 756.6451774591876 52.693857547399915 L 756.6451774472116 52.69402533353443 L 756.6451774346706 52.6941970318675 L 756.6451774215379 52.69437273361817 L 756.6451774077862 52.69455253213249 L 756.645177393385 52.694736522932914 L 756.6451773783047 52.694924803769254 L 756.6451773625129 52.69511747467047 L 756.645177345976 52.695314637997825 L 756.6451773286594 52.69551639849931 L 756.6451773105255 52.69572286336535 L 756.6451772915361 52.69593414228558 L 756.6451772716507 52.696150347507285 L 756.6451772508276 52.69637159389498 L 756.6451772290218 52.696597998991365 L 756.6451772061873 52.696829683079926 L 756.6451771822756 52.697066769248636 L 756.6451771572358 52.697309383455575 L 756.6451771310149 52.69755765459564 L 756.6451771035565 52.697811714569156 L 756.6451770748033 52.698071698351924 L 756.6451770446931 52.69833774406692 L 756.6451770131628 52.6986099930576 L 756.6451769801447 52.69888858996319 L 756.6451769455691 52.69917368279533 L 756.6451769093624 52.69946542301676 L 756.6451768714471 52.69976396562191 L 756.6451768317436 52.70006946921902 L 756.6451767901667 52.70038209611465 L 756.6451767466285 52.700702012399745 L 756.6451767010365 52.70102938803791 L 756.6451766532932 52.70136439695571 L 756.6451766032976 52.70170721713515 L 756.6451765509435 52.70205803070809 L 756.6451764961196 52.70241702405309 L 756.6451764387091 52.702784387894496 L 756.6451763785901 52.70316031740359 L 756.6451763156351 52.70354501230244 L 756.64517624971 52.70393867696998 L 756.6451761806748 52.70434152055046 L 756.6451761083824 52.704753757064736 L 756.64517603268 52.70517560552386 L 756.6451759534059 52.70560729004555 L 756.6451758703915 52.70604903997304 L 756.6451757834616 52.706501089997204 L 756.6451756924303 52.70696368028101 L 756.6451755971043 52.70743705658725 L 756.6451754972811 52.707921470409076 L 756.6451753927488 52.70841717910352 L 756.6451752832845 52.70892444602839 L 756.6451751686566 52.70944354068203 L 756.6451750486206 52.709974738846626 L 756.6451749229218 52.71051832273457 L 756.6451747912929 52.711074581138604 L 756.6451746534542 52.711643809584984 L 756.6451745091126 52.71222631049076 L 756.6451743579614 52.71282239332422 L 756.6451741996796 52.71343237476944 L 756.6451740339303 52.71405657889443 L 756.6451738603616 52.714695337323434 L 756.6451736786046 52.71534898941297 L 756.6451734882726 52.716017882432226 L 756.6451732889616 52.71670237174749 L 756.6451730802476 52.71740282101101 L 756.6451728616873 52.71811960235408 L 756.645172632816 52.71885309658492 L 756.645172393147 52.71960369339084 L 756.6451721421713 52.72037179154532 L 756.6451718793555 52.72115779911988 L 756.6451716041408 52.721962133700885 L 756.6451713159424 52.72278522261132 L 756.6451710141475 52.72362750313795 L 756.6451706981152 52.724489422763526 L 756.6451703671733 52.72537143940457 L 756.6451700206187 52.72627402165463 L 756.6451696577146 52.727197649033315 L 756.64516927769 52.72814281224086 L 756.645168879737 52.729110013419074 L 756.6451684630099 52.730099766417936 L 756.645168026623 52.731112597068574 L 756.6451675696485 52.73214904346284 L 756.6451670911156 52.73320965623887 L 756.645166590007 52.73429499887396 L 756.6451660652576 52.73540564798361 L 756.6451655157523 52.73654219362808 L 756.645164940323 52.737705239625825 L 756.645164337747 52.73889540387424 L 756.645163706743 52.74011331867794 L 756.6451630459705 52.74135963108478 L 756.6451623540249 52.742635003229424 L 756.6451616294353 52.74394011268538 L 756.645160870662 52.745275652824745 L 756.6451600760922 52.746642333186685 L 756.6451592440371 52.74804087985436 L 756.6451583727285 52.74947203584071 L 756.6451574603138 52.75093656148317 L 756.6451565048549 52.75243523484761 L 756.6451555043202 52.753968852141696 L 756.6451544565834 52.75553822813794 L 756.6451533594177 52.75714419660653 L 756.6451522104912 52.758787610758276 L 756.6451510073623 52.760469343697906 L 756.6451497474734 52.76219028888798 L 756.6451484281467 52.76395136062345 L 756.6451470465788 52.7657534945175 L 756.6451455998326 52.76759764799857 L 756.6451440848336 52.76948480081896 L 756.6451424983618 52.77141595557546 L 756.6451408370453 52.773392138241945 L 756.6451390973534 52.77541439871436 L 756.6451372755882 52.777483811368626 L 756.6451353678779 52.77960147563135 L 756.645133370168 52.781768516564 L 756.6451312782124 52.78398608546047 L 756.6451290875648 52.78625536045888 L 756.6451267935697 52.788577547167364 L 756.6451243913511 52.79095387930468 L 756.6451218758036 52.79338561935555 L 756.6451192415805 52.79587405924144 L 756.645116483083 52.7984205210069 L 756.6451135944487 52.80102635752192 L 756.6451105695376 52.80369295320068 L 756.6451074019208 52.806421724736964 L 756.645104084866 52.80921412185691 L 756.6451006113232 52.81207162808923 L 756.6450969739096 52.81499576155318 L 756.6450931648947 52.817988075765214 L 756.6450891761824 52.821050160464296 L 756.6450849992952 52.82418364245652 L 756.6450806253561 52.82739018647925 L 756.6450760450684 52.830671496085586 L 756.6450712486971 52.8340293145495 L 756.6450662260486 52.83746542579178 L 756.6450609664475 52.84098165532794 L 756.6450554587152 52.844579871237926 L 756.6450496911457 52.84826198515864 L 756.6450436514806 52.85202995329939 L 756.6450373268833 52.85588577748129 L 756.6450307039117 52.85983150620066 L 756.6450237684896 52.86386923571732 L 756.6450165058764 52.86800111116821 L 756.6450089006364 52.87222932770706 L 756.6450009366051 52.876556131670526 L 756.6449925968566 52.88098382177165 L 756.6449838636654 52.88551475032091 L 756.6449747184699 52.89015132447602 L 756.6449651418336 52.894896007520686 L 756.6449551134021 52.89975132017318 L 756.6449446118613 52.904719841925555 L 756.6449336148917 52.90980421241392 L 756.6449220991199 52.91500713282073 L 756.644910040071 52.92033136730987 L 756.6448974121147 52.92577974449492 L 756.6448841884119 52.93135515894198 L 756.6448703408573 52.93706057270737 L 756.6448558400193 52.94289901691104 L 756.6448406550785 52.948873593346974 L 756.644824753761 52.954987476130896 L 756.6448081022702 52.961243913386454 L 756.6447906652154 52.96764622897069 L 756.6447724055367 52.974197824239866 L 756.644753284425 52.98090217985623 L 756.6447332612406 52.98776285763708 L 756.6447122934269 52.99478350244689 L 756.6446903364194 53.001967844133475 L 756.6446673435507 53.009319699509376 L 756.6446432659529 53.016842974379415 L 756.6446180524517 53.02454166561543 L 756.6445916494586 53.03241986327944 L 756.644564000858 53.04048175279638 L 756.6445350478855 53.04873161717734 L 756.6445047290056 53.05717383929462 L 756.6444729797788 53.06581290420996 L 756.6444397327268 53.07465340155696 L 756.6444049171864 53.08370002797892 L 756.644368459162 53.092957589623694 L 756.6443302811665 53.10243100469654 L 756.6442903020572 53.1121253060725 L 756.644248436864 53.122045643969784 L 756.6442045966073 53.13219728868529 L 756.6441586881101 53.14258563339385 L 756.6441106138004 53.15321619701305 L 756.644060271502 53.16409462713429 L 756.6440075542184 53.175226703022645 L 756.6439523499068 53.1866183386862 L 756.6438945412369 53.19827558601733 L 756.6438340053444 53.21020463800676 L 756.6437706135678 53.222411832032805 L 756.6437042311763 53.23490365322718 L 756.6436347170832 53.24768673791911 L 756.6435619235453 53.26076787715985 L 756.6434856958499 53.274154020329206 L 756.6434058719854 53.28785227882602 L 756.6433222822968 53.30186992984491 L 756.6432347491257 53.31621442024061 L 756.6431430864325 53.330893370482556 L 756.643047099401 53.34591457870144 L 756.642946584024 53.36128602483029 L 756.6428413266704 53.37701587484159 L 756.6427311036307 53.39311248508338 L 756.6426156806413 53.40958440671619 L 756.6424948123877 53.42644039025339 L 756.6423682419822 53.44368939020711 L 756.6422357004176 53.46134056984246 L 756.642096905997 53.47940330604243 L 756.6419515637335 53.49788719428591 L 756.641799364724 53.51680205374171 L 756.6416399854934 53.53615793248113 L 756.6414730873057 53.555965112811805 L 756.641298315445 53.576234116735634 L 756.6411152984617 53.5969757115339 L 756.6409236473826 53.618200915482106 L 756.6407229548845 53.63992100369788 L 756.6405127944292 53.66214751412494 L 756.6402927193558 53.68489225365619 L 756.6400622619319 53.70816730439921 L 756.6398209323604 53.73198503008757 L 756.6395682177372 53.75635808264104 L 756.6393035809631 53.7812994088784 L 756.6390264596 53.80682225738633 L 756.6387362646781 53.83294018554781 L 756.6384323794423 53.85966706673406 L 756.6381141580421 53.887017097663346 L 756.6377809241603 53.91500480593095 L 756.6374319695742 53.94364505771375 L 756.6370665526508 53.97295306565417 L 756.6366838967724 54.00294439692658 L 756.6362831886838 54.03363498149153 L 756.635863576766 54.065041120541196 L 756.6354241692261 54.09717949514075 L 756.6349640322017 54.130067175070536 L 756.6344821877765 54.16372162787289 L 756.6339776119037 54.19816072810909 L 756.6334492322283 54.23340276683052 L 756.632895925809 54.26946646126967 L 756.6323165167321 54.30637096475547 L 756.6317097736137 54.34413587685816 L 756.6310744069817 54.38278125376917 L 756.6304090665374 54.42232761892137 L 756.6297123382853 54.46279597385467 L 756.6289827415294 54.504207809333195 L 756.628218725727 54.546585116719484 L 756.6274186671944 54.589950399611325 L 756.6265808656569 54.634326685747624 L 756.6257035406368 54.679737539189034 L 756.62478482767 54.726207072779715 L 756.6238227743459 54.773759960896655 L 756.6228153361583 54.82242145249279 L 756.6217603721632 54.87221738444077 L 756.6206556404297 54.92317419518392 L 756.6194987932777 54.97531893870166 L 756.6182873722908 55.028679298795765 L 756.6170188030935 55.08328360370538 L 756.6156903898836 55.139160841057674 L 756.6142993097055 55.196340673161416 L 756.6128426064533 55.2548534526519 L 756.6113171845932 55.314730238493894 L 756.6097198025877 55.3760028123514 L 756.6080470660117 55.43870369533201 L 756.6062954203433 55.502866165113716 L 756.6044611434133 55.56852427346334 L 756.6025403375036 55.6357128641543 L 756.600528921067 55.70446759129294 L 756.5984226200619 55.774824938062096 L 756.5962169588761 55.84682223589084 L 756.5939072508238 55.9204976840598 L 756.5914885881944 55.995890369750924 L 756.5889558318329 56.07304028855188 L 756.5863036002302 56.151988365424046 L 756.5835262580972 56.23277647614421 L 756.5806179044039 56.315447469229895 L 756.5775723598522 56.400045188358604 L 756.5743831537607 56.48661449529078 L 756.5710435103315 56.57520129330737 L 756.5675463342689 56.66585255117221 L 756.563884195725 56.75861632763025 L 756.5600493145312 56.853541796452134 L 756.5560335436912 56.950679272036325 L 756.5518283520967 57.0500802355798 L 756.5474248064286 57.15179736182856 L 756.5428135522066 57.25588454641934 L 756.5379847939485 57.362396933823845 L 756.5329282743946 57.471390945907274 L 756.527633252756 57.582924311112606 L 756.5220884819391 57.697056094282345 L 756.5162821847007 57.81384672712974 L 756.5102020286783 57.9333580393712 L 756.5038351002522 58.05565329053164 L 756.497167877174 58.180797202434945 L 756.4901861999115 58.30885599239144 L 756.482875241647 58.43989740709401 L 756.4752194768655 58.57399075723515 L 756.4672026484684 58.7112069528564 L 756.4588077333433 58.851618539442285 L 756.450016906316 58.99529973477004 L 756.4408115024132 59.14232646652698 L 756.4311719773516 59.29277641070641 L 756.421077866175 59.44672903079393 L 756.4105077399531 59.60426561775404 L 756.3994391604481 59.76546933082878 L 756.3878486326555 59.930425239157586 L 756.3757115551259 60.099220364229325 L 756.3630021679546 60.27194372317501 L 756.3496934983389 60.448686372911055 L 756.3357573035869 60.62954145514098 L 756.3211640114584 60.81460424222362 L 756.3058826577178 61.00397218391478 L 756.2898808207638 61.19774495498936 L 756.2731245532091 61.396024503748464 L 756.2555783102596 61.59891510141736 L 756.2372048747532 61.806523392436645 L 756.2179652786981 62.018958445649986 L 756.1978187211539 62.236331806389416 L 756.176722482282 62.45875754945757 L 756.1546318333947 62.686352333005914 L 756.1314999428143 62.919235453304964 L 756.1072777773518 63.1575289004021 L 756.0819139992059 63.4013574146592 L 756.0553548580683 63.65084854416162 L 756.0275440782234 63.90613270298621 L 755.9984227404043 64.1673432303154 L 755.9679291581758 64.43461645037937 L 755.9359987485891 64.70809173320777 L 755.902563896851 64.98791155616709 L 755.8675538147347 65.27422156625795 L 755.830894392451 65.56717064314148 L 755.7925080436833 65.86691096286123 L 755.7523135434787 66.17359806222115 L 755.7102258586763 66.4873909037768 L 755.6661559705346 66.80845194139073 L 755.6200106892129 67.13694718629813 L 755.5716924597405 67.47304627362237 L 755.5210991590989 67.81692252927425 L 755.4681238840187 68.1687530371606 L 755.4126547290871 68.52871870662196 L 755.3545745547315 68.8970043400098 L 755.2937607446424 69.27379870030532 L 755.230084952171 69.65929457867327 L 755.1634128352202 70.05368886183274 L 755.093603779133 70.45718259911786 L 755.0205106070589 70.86998106908817 L 754.9439792772607 71.29229384553699 L 754.863848566803 71.72433486273249 L 754.7799497410438 72.16632247971171 L 754.6921062083309 72.61847954343236 L 754.6001331592772 73.08103345057137 L 754.5038371899757 73.55421620774052 L 754.4030159084821 74.0382644898715 L 754.2974575238832 74.53341969650205 L 754.1869404172321 75.03992800567283 L 754.0712326936198 75.55804042512247 L 753.9500917146217 76.08801284044225 L 753.8232636103398 76.63010605982606 L 753.6904827702324 77.18458585502285 L 753.5514713119085 77.751722998068 L 753.4059385270291 78.33179329333825 L 753.2535803034502 78.9250776044397 L 753.0940785227065 79.53186187540214 L 752.9271004319237 80.15243714561248 L 752.7522979892265 80.78709955787957 L 752.5693071816816 81.4361503589765 L 752.3777473148139 82.09989589195982 L 752.1772202727034 82.77864757951352 L 751.9673097476666 83.47272189751232 L 751.7475804385117 84.18244033794102 L 751.5175772163532 84.90812936024514 L 751.2768242569584 85.65012033012371 L 751.0248241386096 86.40874944470613 L 750.7610569044573 87.1843576429811 L 750.4849790883577 87.97729050026913 L 750.1960227031971 88.78789810544669 L 749.8935941907259 89.61653491954402 L 749.5770733319555 90.46355961424592 L 749.2458121172019 91.32933488872743 L 748.899133574911 92.2142272631535 L 748.5363305584449 93.11860684706375 L 748.1566644900824 94.04284708074749 L 747.7593640615623 94.98732444759582 L 747.3436238905817 95.95241815528846 L 746.9086031327784 96.93850978354226 L 746.4534240488413 97.94598289600702 L 745.9771705265368 98.97522261374831 L 745.4788865575999 100.02661514760533 L 744.95757466962 101.1005472865499 L 744.4121943132657 102.1974058390091 L 743.8416602054169 103.31757702393872 L 743.2448406290512 104.46144580825714 L 742.6205556910143 105.62939518706247 L 741.9675755391429 106.82180540286507 L 741.2846185405804 108.03905309987053 L 740.5703494235311 109.28151040914511 L 739.8233773851593 110.54954396029217 L 739.0422541688515 111.84351381505493 L 738.2254721146057 113.16377231805288 L 737.3714621869444 114.51066285964257 L 736.4785919854198 115.88451854568393 L 735.5451637435282 117.2856607687803 L 734.5694123226672 118.7143976753552 L 733.5495032086742 120.17102252272832 L 732.4835305194556 121.65581192016279 L 731.3695150332887 123.16902394767646 L 730.2054022485406 124.7108961462483 L 728.9890604868127 126.28164337290809 L 727.7182790528864 127.88145551407911 L 726.3907664663295 129.51049505045677 L 725.0041487812202 131.1688944666535 L 723.5559680121712 132.85675349883132 L 722.0436806866835 134.57413621358273 L 720.4646565458497 136.32106791142277 L 718.8161774175469 138.0975318484195 L 717.0954362885176 139.9034657697357 L 715.2995366041541 141.7387582491907 L 713.4254918273398 143.60324482938572 L 711.4702252903987 145.49670395748927 L 709.4305703770394 147.41885271246204 L 707.3032710741409 149.36934232033047 L 705.0849829363226 151.34775345511133 L 702.7722745094538 153.3535913241684 L 700.3616292625596 155.3862805381639 L 697.8494480809674 157.44515976737085 L 695.2320523769856 159.5294761879705 L 692.5056878778635 161.63837972408135 L 689.6665291542267 163.7709170936896 L 686.7106849555851 165.9260256693944 L 683.6342044227549 168.10252716796975 L 680.433084250152 170.29912118621064 L 677.1032768737314 172.51437860438836 L 673.6406997628466 174.7467348829236 L 670.0412458963502 176.99448328260928 L 666.3007955047588 179.25576804390124 L 662.4152291611076 181.52857756645614 L 658.3804423031215 183.81073763624508 L 654.1923612683192 186.09990475420616 L 649.8469609215192 188.39355962751964 L 645.3402839507029 190.68900089217368 L 640.6684619021285 192.98333914351412 L 635.827738018738 195.27349135989007 L 630.8144919370441 197.5561758132627 L 625.6252662865668 199.82790756965468 L 620.2567952222598 202.08499469147628 L 614.7060349039853 204.3235352629547 L 608.970195917698 206.53941536893893 L 603.0467776103637 208.7283081660897 L 596.9336042845389 210.88567419364676 L 590.6288631688076 213.00676307835832 L 584.1311440467541 215.08661679445225 L 577.439480389792 217.12007464439662 L 570.5533917979471 219.10178012927938 L 563.4729275077182 221.02618987851798 L 556.1987106776044 222.88758480686676 L 548.7319831101536 224.6800836618617 L 541.0746500149176 226.39765911645608 L 533.2293243602093 228.03415654918018 L 525.1993703038581 229.5833156372316 L 516.9889451353715 231.03879486603878 L 508.6030391052848 232.3941990316307 L 500.0475124635555 233.64310977928938 L 491.32912897936285 234.77911918321712 L 482.4555851715485 235.79586632724175 L 473.4355344443144 236.6870767959603 L 464.27860529895486 237.4466049294506 L 454.9954127817054 238.06847863322864 L 445.5975623326345 238.5469464692203 L 436.0976452232234 238.87652668413966 L 426.509224813032 239.05205776009115 L 416.8468129205262 239.06875 L 407.1258356912498 238.92223758946824 L 397.3625884589816 238.6086305089348 L 387.5741792326472 238.1245656079188 L 377.77846060302295 237.46725609910303 L 367.9939500472808 236.63453868663964 L 358.2397388137788 235.62491751288138 L 348.5353897907793 234.4376040931938 L 338.90082499649156 233.0725524117939 L 329.3562035685357 231.5304883745224 L 319.92179137222547 229.8129328584438 L 310.61782358189794 227.92221766391543 L 301.4643618102556 225.86149376230819 L 292.48114755950445 223.63473134110947 L 283.6874539372319 221.24671127609707 L 275.10193771215165 218.7030078051492 L 266.74249387357946 216.00996233677176 L 258.6261148984435 213.17464849453418 L 250.76875691694573 210.2048286716648 L 243.18521490060206 207.1089025429664 L 235.88900887415937 203.89584814863133 L 228.89228297776543 200.57515632111546 L 222.2057189817317 197.15675936683468 L 215.83846558922053 193.65095503442473 L 209.79808455986677 190.0683268966711 L 204.09051435878058 186.41966234087684 L 198.7200516906782 182.71586940031543 L 193.6893509286959 178.96789366655253 L 188.99944110253708 175.18663649901535 L 184.64975978133117 171.38287569554916 L 180.63820288249744 167.5671897082018 L 176.96118916730768 163.74988638537582 L 173.61373795350806 159.9409370987899 L 170.58955839029417 156.14991697591705 L 167.88114850426712 152.38595181054097 L 165.47990213795154 148.65767207070428 L 163.37622186443411 144.9731742693792 L 161.5596359704034 141.33998981313266 L 160.01891765164768 137.76506130184882 L 158.74220465501787 134.25472612159172 L 157.7171177232698 130.81470705562873 L 156.9308763477997 127.45010953746282 L 156.37041050257358 124.16542508569552 L 156.02246721406115 120.96454039421593 L 155.87371101055157 117.8507515025197 L 155.91081748414996 114.82678243927458 L 156.1205593849869 111.89480771649497 L 156.4898848453996 109.0564780504142 L 157.00598749854703 106.31294869666272 L 157.65636840839858 103.66490980981081 L 158.42888986435977 101.11261826878763 L 159.3118212128026 98.6559304482249 L 160.29387699892197 96.29433545953853 L 161.3642477757209 94.02698843283198 L 162.51262400307877 91.85274345990914 L 163.72921350971035 89.7701858684429 L 165.004753025625 87.77766354647298 L 166.33051431385707 85.87331708392554 L 167.69830543934108 84.05510854297214 L 169.10046771145204 82.32084871118616 L 170.52986882653917 80.66822273018798 L 171.9798927193173 79.09481402752726 L 173.44442660871619 77.59812651080182 L 174.91784569609726 76.17560501043462 L 176.39499594285726 74.82465398119854 L 177.87117532145555 73.5426544926392 L 179.34211389976838 72.32697955520354 L 180.80395308421203 71.17500784237643 L 182.25322431295558 70.08413587973374 L 183.6868274573174 69.05178877981524 L 185.10200915753765 68.07542960739923 L 186.49634128887092 67.15256746340282 L 187.86769972558483 66.28076437751423 L 189.2142435441365 65.45764110004671 L 190.53439478261723 64.68088188263152 L 191.82681885153795 63.94823833546039 L 193.09040567115656 63.25753244605232 L 194.3242515927717 62.60665884113254 L 195.52764214564363 61.99358636933579 L 196.70003563734966 61.41635907822035 L 197.84104762332134 60.87309665462314 L 198.95043625091438 60.36199439280432 L 200.02808847450143 59.88132275020561 L 201.07400713061483 59.42942654605298 L 202.0882988559703 59.004723853528844 L 203.07116282614473 58.60570463186531 L 204.0228802886384 58.230929140507186 L 204.943804860905 57.87902617348385 L 205.83435356157634 57.54869114833414 L 206.69499854143538 57.23868408035975 L 207.52625947961565 56.94782746964381 L 208.3286966099312 56.67500412516989 L 209.1029043421045 56.41915494750464 L 209.84950544287844 56.17927668886523 L 210.56914574252053 55.95441970696976 L 211.2624893329908 55.743685726859496 L 211.9302142250054 55.54622562287216 L 212.57300843234066 55.36123723112948 L 213.1915664529515 55.18796320126367 L 213.78658611779068 55.025688894637796 L 214.35876577958655 54.8737403350012 L 214.90880181523815 54.73148221635188 L 215.43738641690558 54.59831597174062 L 215.94520564828613 54.47367790583871 L 216.4329377439661 54.35703739328673 L 216.90125163110838 54.247895144142234 L 217.35080565407125 54.14578153713407 L 217.7822464838457 54.05025502090578 L 218.19620819544303 53.96090058297983 L 218.59331149755602 53.87732828579115 L 218.9741630999549 53.799171868814625 L 219.33935520516044 53.72608741554288 L 219.68946511196125 53.65775208384838 L 220.0250549193096 53.59386289808387 L 220.3466713200416 53.53413560113455 L 220.65484547472275 53.47830356452377 L 220.95009295672293 53.426116754595085 L 221.23291376037275 53.37734075273593 L 221.50379236475374 53.33175582757451 L 221.76319784632508 53.28915605706521 L 222.01158403419464 53.24934849837794 L 222.24938970240237 53.21215240351981 L 222.47703879410457 53.17739847864294 L 222.69494067302594 53.14492818502586 L 222.90349039799113 53.114593079758066 L 223.10306901675418 53.086254194206106 L 223.29404387572077 53.059781448392584 L 223.47676894250299 53.03505309947687 L 223.6515851385625 53.01195522258652 L 223.8188206794892 52.99038122231161 L 223.97879142072588 52.9702313732364 L 224.13180120679408 52.95141238794875 L 224.27814222229514 52.93383701103161 L 224.41809534316417 52.917423637605225 L 224.55193048683591 52.902095955052744 L 224.67990696014957 52.8877826066246 L 224.80227380396963 52.87441687567849 L 224.91927013363681 52.86193638937192 L 225.03112547448737 52.850282840682326 L 225.13806009178984 52.83940172768732 L 225.24028531454934 52.82924210909155 L 225.3380038527204 52.819756375039844 L 225.43141010744952 52.810900032307416 L 225.52069047404285 52.80263150300652 L 225.60602363741774 52.794911935996 L 225.6875808598569 52.78770503022474 L 225.7655262609337 52.78097686928325 L 225.84001708952425 52.77469576647826 L 225.9112039878614 52.76883211978446 L 225.97923124762255 52.763358276063826 L 226.04423705807338 52.75824840397951 L 226.10635374631744 52.75347837506348 L 226.16570800972556 52.74902565242954 L 226.22242114063937 52.7448691866534 L 226.27660924346048 52.740989318369714 L 226.3283834442528 52.73736768716313 L 226.3778500929971 52.733987146355986 L 226.42511095864856 52.73083168331905 L 226.47026341715562 52.72788634495481 L 226.5134006326067 52.725137168023934 L 226.5546117316754 52.72257111400617 L 226.59398197154013 52.720176008205584 L 226.63159290145663 52.717940482828055 L 226.6675225181633 52.71585392377651 L 226.70184541530134 52.71390642092419 L 226.7346329270304 52.71208872164223 L 226.765953266021 52.71039218737138 L 226.79587165600378 52.708808753040955 L 226.8244504590526 52.70733088915085 L 226.85174929777827 52.7059515663438 L 226.87782517260536 52.70466422230598 L 226.90273257430263 52.70346273084522 L 226.92652359193426 52.70234137300409 L 226.94924801639482 52.701294810076064 L 226.97095343968869 52.700318058400086 L 226.99168535010918 52.69940646581745 L 227.01148722347014 52.69855568968248 L 227.030400610538 52.697761676324916 L 227.04846522080797 52.69702064186933 L 227.06571900276475 52.696329054322064 L 227.0821982207634 52.69568361684307 L 227.09793752866173 52.695081252124254 L 227.1129700403321 52.69451908780195 L 227.12732739717575 52.693994442835304 L 227.14103983275905 52.693504814787076 L 227.15413623468723 52.69304786794734 L 227.16664420382642 52.69262142224457 L 227.17859011098236 52.69222344289199 L 227.18999915113855 52.69185203072098 L 227.2008953953546 52.691505413155824 L 227.2113018404207 52.69118193578771 L 227.22124045636127 52.6908800545082 L 227.23073223187683 52.69059832816501 L 227.23979721781043 52.690335411706116 L 227.24845456872112 52.69009004977903 L 227.25672258264416 52.68986107075591 L 227.26461873911433 52.68964738115568 L 227.27215973552575 52.68944796043712 L 227.2793615218989 52.689261856138415 L 227.2862393341228 52.68908817933999 L 227.29280772573702 52.68892610042914 L 227.2990805983162 52.68877484514681 L 227.30507123051723 52.68863369089718 L 227.31079230584606 52.68850196330317 L 227.31625593920006 52.68837903299138 L 227.321473702238 52.688264312590775 L 227.32645664762887 52.688157253931735 L 227.33121533222825 52.68805734543133 L 227.3357598392282 52.687964109652995 L 227.340099799326 52.687877101028704 L 227.3442444109542 52.687795903733075 L 227.34820245961276 52.68772012969902 L 227.351982336343 52.68764941676565 L 227.35559205538047 52.68758342694986 L 227.35903927102294 52.68752184483293 L 227.36233129374796 52.68746437605478 L 227.365475105613 52.68741074590852 L 227.36847737496964 52.68736069802907 L 227.3713444705219 52.687313993168715 L 227.37408247475796 52.68727040805484 L 227.37669719678263 52.687229734323495 L 227.37919418457733 52.687191777524276 L 227.38157873671236 52.68715635619159 L 227.38385591353642 52.68712330097779 L 227.38603054786594 52.6870924538442 L 227.38810725519664 52.68706366730615 L 227.39009044345863 52.68703680372835 L 227.39198432233488 52.68701173466732 L 227.39379291216306 52.68698834025764 L 227.3955200524387 52.68696650863927 L 227.3971694099378 52.686946135422914 L 227.39874448647555 52.68692712319125 L 227.4002486263177 52.68690938103347 L 227.40168502325952 52.68689282411057 L 227.40305672738776 52.68687737325013 L 227.40436665153945 52.686862954567744 L 227.40561757747082 52.686849499113976 L 227.40681216174994 52.686836942544744 L 227.4079529413848 52.686825224813816 L 227.4090423391988 52.68681428988569 L 227.4100826689653 52.686804085467855 L 227.41107614031134 52.686794562760696 L 227.41202486340165 52.686785676224275 L 227.41293085341192 52.686777383360635 L 227.41379603480155 52.68676964451055 L 227.41462224539433 52.68676242266403 L 227.41541124027586 52.68675568328328 L 227.41616469551582 52.68674939413768 L 227.41688421172316 52.686743525149524 L 227.4175713174414 52.68673804825039 L 227.41822747239135 52.68673293724686 L 227.41885407056813 52.68672816769521 L 227.419452443199 52.686723716784655 L 227.42002386156807 52.686719563228195 L 227.42056953971434 52.6867156871609 L 227.42109063700798 52.68671207004482 L 227.42158826061114 52.6867086945804 L 227.42206346782797 52.686705544623834 L 227.4225172683487 52.6867026051097 L 227.4229506263934 52.686699861979065 L 227.42336446275854 52.68669730211212 L 227.42375965677212 52.6866949132656 L 227.42413704816047 52.68669268401413 L 227.42449743883128 52.68669060369558 L 227.42484159457624 52.686688662360154 L 227.4251702466971 52.68668685072274 L 227.42548409355874 52.68668516011846 L 227.42578380207206 52.68668358246143 L 227.42607000911042 52.68668211020582 L 227.42634332286207 52.686680736310024 L 227.4266043241219 52.68667945420282 L 227.42685356752506 52.68667825775191 L 227.42709158272478 52.68667714123481 L 227.42731887551759 52.686676099311256 L 227.42753592891756 52.686675126997756 L 227.4277432041823 52.68667421964378 L 227.4279411417928 52.68667337290944 L 227.42813016238904 52.686672582744876 L 227.42831066766374 52.68667184537068 L 227.42848304121543 52.68667115726001 L 227.42864764936363 52.68667051512165 L 227.4288048419269 52.68666991588418 L 227.4289549529661 52.68666935668148 L 227.42909830149412 52.686668834838855 L 227.42923519215356 52.68666834786032 L 227.4293659158641 52.686667893416626 L 227.4294907504405 52.68666746933414 L 227.4296099611829 52.68666707358446 L 227.42972380144053 52.6866667042747 L 227.42983251314993 52.686666359638394 L 227.4299363273491 52.68666603802717 L 227.4300354646684 52.6866657379027 L 227.43013013579923 52.68666545782946 L 227.43022054194188 52.686665196467885 L 227.43030687523293 52.68666495256781 L 227.43038931915362 52.68666472496267 L 227.4304680489196 52.686664512563794 L 227.43054323185345 52.686664314355255 L 227.43061502774 52.686664129389015 L 227.43068358916605 52.686663956780336 L 227.43074906184452 52.68666379570362 L 227.4308115849241 52.68666364538845 L 227.43087129128503 52.6866635051158 L 227.43092830782135 52.68666337421479 L 227.43098275571066 52.68666325205925 L 227.43103475067156 52.686663138064944 L 227.43108440320958 52.68666303168658 L 227.4311318188521 52.686662932415345 L 227.43117709837244 52.68666283977643 L 227.43122033800418 52.686662753326715 L 227.43126162964555 52.686662672652716 L 227.43130106105482 52.68666259736855 L 227.43133871603675 52.68666252711412 L 227.43137467462068 52.6866624615534 L 227.43140901323062 52.686662400372796 L 227.43144180484768 52.686662343279664 L 227.4314731191652 52.68666229000095 L 227.43150302273668 52.68666224028178 L 227.43153157911757 52.68666219388433 L 227.43155884899994 52.68666215058673 L 227.4315848903418 52.68666211018183 L 227.43160975849003 52.686662072476395 L 227.43163350629814 52.686662037290034 L 227.43165618423856 52.68666200445452 L 227.4316778405099 52.68666197381273 L 227.43169852113945 52.686661945218106 L 227.43171827008084 52.68666191853393 L 227.43173712930763 52.686661893632504 L 227.43175513890247 52.686661870394744 L 227.43177233714215 52.68666184870952 L 227.43178876057914 52.68666182847306 L 227.4318044441192 52.68666180958863 L 227.43181942109553 52.68666179196586 L 227.4318337233396 52.68666177552046 L 227.4318473812489 52.68666176017379 L 227.4318604238515 52.68666174585243 L 227.4318728788677 52.68666173248789 L 227.43188477276894 52.68666172001625 L 227.43189613083416 52.68666170837781 L 227.4319069772034 52.68666169751697 L 227.4319173349292 52.6866616873817 L 227.43192722602558 52.68666167792361 L 227.43193667151476 52.68666166909739 L 227.4319456914719 52.686661660860864 L 227.43195430506776 52.68666165317464 L 227.43196253060947 52.68666164600191 L 227.4319703855793 52.6866616393084 L 227.43197788667203 52.68666163306207 L 227.4319850498303 52.686661627233065 L 227.43199189027845 52.68666162179352 L 227.43199842255504 52.68666161671737 L 227.43200466054356 52.686661611980355 L 227.4320106175021 52.68666160755984 L 227.4320163060914 52.68666160343463 L 227.43202173840194 52.68666159958505 L 227.43202692597933 52.68666159599266 L 227.43203187984915 52.68666159264029 L 227.43203661054025 52.68666158951186 L 227.43204112810713 52.686661586592464 L 227.43204544215132 52.6866615838681 L 227.4320495618418 52.68666158132578 L 227.43205349593447 52.68666157895328 L 227.43205725279074 52.68666157673931 L 227.43206084039537 52.686661574673224 L 227.4320642663734 52.68666157274521 L 227.4320675380063 52.686661570946 L 227.43207066224753 52.68666156926699 L 227.4320736457373 52.68666156770013 L 227.43207649481664 52.68666156623797 L 227.43207921554094 52.6866615648735 L 227.43208181369278 52.68666156360021 L 227.4320842947942 52.686661562411956 L 227.43208666411851 52.68666156130311 L 227.4320889267014 52.686661560268334 L 227.43209108735175 52.686661559302706 L 227.4320931506617 52.686661558401596 L 227.43209512101666 52.68666155756068 L 227.4320970026043 52.68666155677593 L 227.43209879942376 52.68666155604362 L 227.43210051529394 52.686661555360246 L 227.43210215386176 52.68666155472252 L 227.43210371860974 52.6866615541274 L 227.43210521286363 52.68666155357204 L 227.43210663979923 52.686661553053796 L 227.43210800244935 52.68666155257017 L 227.43210930371018 52.686661552118835 L 227.4321105463473 52.68666155169768 L 227.4321117330019 52.68666155130464 L 227.43211286619598 52.686661550937885 L 227.43211394833807 52.6866615505956 L 227.43211498172812 52.68666155027623 L 227.43211596856247 52.68666154997817 L 227.43211691093853 52.686661549700005 L 227.43211781085918 52.68666154944046 L 227.43211867023714 52.68666154919822 L 227.43211949089888 52.68666154897218 L 227.43212027458867 52.686661548761236 L 227.43212102297207 52.686661548564416 L 227.43212173763976 52.6866615483807 L 227.43212242011063 52.68666154820929 L 227.43212307183524 52.68666154804933 L 227.4321236941987 52.68666154790003 L 227.4321242885238 52.686661547760735 L 227.4321248560737 52.686661547630735 L 227.43212539805467 52.68666154750943 L 227.43212591561863 52.6866615473962 L 227.4321264098656 52.686661547290555 L 227.432126881846 52.68666154719199 L 227.43212733256303 52.68666154709999 L 227.4321277629746 52.686661547014126 L 227.43212817399552 52.686661546934005 L 227.4321285664994 52.68666154685923 L 227.43212894132034 52.68666154678948 L 227.4321292992551 52.686661546724366 L 227.4321296410644 52.6866615466636 L 227.43212996747468 52.6866615466069 L 227.43213027917972 52.68666154655398 L 227.43213057684198 52.68666154650461 L 227.43213086109415 52.68666154645854 L 227.43213113254035 52.686661546415536 L 227.4321313917575 52.686661546375404 L 227.43213163929659 52.68666154633797 L 227.43213187568364 52.686661546303014 L 227.43213210142113 52.686661546270415 L 227.4321323169888 52.686661546239975 L 227.43213252284488 52.68666154621158 L 227.43213271942682 52.68666154618509 L 227.43213290715246 52.68666154616034 L 227.4321330864208 52.68666154613726 L 227.43213325761283 52.686661546115744 L 227.43213342109243 52.68666154609565 L 227.43213357720705 52.68666154607689 L 227.43213372628847 52.68666154605938 L 227.43213386865355 52.68666154604304 L 227.43213400460488 52.68666154602781 L 227.4321341344314 52.686661546013596 L 227.43213425840906 52.68666154600032 L 227.43213437680137 52.68666154598793 L 227.43213448985992 52.686661545976364 L 227.432134597825 52.68666154596559 L 227.43213470092613 52.68666154595553 L 227.43213479938237 52.68666154594612 L 227.43213489340303 52.68666154593737 L 227.43213498318795 52.686661545929184 L 227.4321350689279 52.68666154592154 L 227.43213515080515 52.68666154591443 L 227.43213522899373 52.68666154590778 L 227.43213530365978 52.686661545901586 L 227.43213537496203 52.68666154589579 L 227.432135443052 52.68666154589039 L 227.43213550807442 52.68666154588533 L 227.4321355701675 52.68666154588064 L 227.43213562946318 52.686661545876234 L 227.43213568608752 52.68666154587214 L 227.43213574016085 52.68666154586833 L 227.4321357917981 52.68666154586475 L 227.432135841109 52.686661545861426 L 227.4321358881984 52.68666154585833 L 227.43213593316634 52.68666154585543 L 227.43213597610838 52.68666154585273 L 227.43213601711585 52.6866615458502 L 227.43213605627588 52.68666154584784 L 227.4321360936717 52.68666154584565 L 227.43213612938277 52.68666154584358 L 227.432136163485 52.68666154584167 L 227.4321361960509 52.68666154583988 L 227.43213622714964 52.686661545838206 L 227.43213625684734 52.68666154583667 L 227.43213628520712 52.68666154583522 L 227.43213631228923 52.68666154583386 L 227.43213633815128 52.68666154583258 L 227.43213636284818 52.68666154583141 L 227.4321363864325 52.686661545830304 L 227.43213640895425 52.68666154582928 L 227.4321364304614 52.686661545828315 L 227.43213645099962 52.686661545827434 L 227.43213647061256 52.68666154582658 L 227.4321364893419 52.686661545825814 L 227.43213650722745 52.686661545825075 L 227.43213652430725 52.68666154582442 L 227.4321365406176 52.68666154582377 L 227.4321365561931 52.68666154582317 L 227.4321365710669 52.68666154582263 L 227.43213658527065 52.68666154582212 L 227.4321365988345 52.686661545821636 L 227.43213661178726 52.68666154582118 L 227.43213662415647 52.68666154582078 L 227.43213663596845 52.686661545820385 L 227.43213664724829 52.686661545820016 L 227.4321366580199 52.686661545819675 L 227.4321366683063 52.68666154581936 L 227.43213667812927 52.68666154581905 L 227.43213668750968 52.686661545818794 L 227.4321366964675 52.68666154581854 L 227.43213670502175 52.68666154581828 L 227.43213671319063 52.686661545818055 L 227.43213672099148 52.686661545817856 L 227.4321367284409 52.68666154581766 L 227.4321367355547 52.686661545817486 L 227.43213674234804 52.686661545817316 L 227.43213674883532 52.686661545817145 L 227.4321367550303 52.686661545817 L 227.43213676094624 52.68666154581686 L 227.43213676659565 52.68666154581672 L 227.4321367719905 52.686661545816605 L 227.43213677714235 52.68666154581649 L 227.4321367820621 52.686661545816406 L 227.4321367867602 52.68666154581629 L 227.43213679124662 52.68666154581621 L 227.43213679553097 52.68666154581612 L 227.43213679962227 52.68666154581604 L 227.43213680352926 52.68666154581595 L 227.4321368072602 52.686661545815895 L 227.4321368108231 52.68666154581584 L 227.4321368142255 52.68666154581578 L 227.43213681747457 52.686661545815724 L 227.43213682057728 52.68666154581567 L 227.43213682354022 52.68666154581561 L 227.43213682636966 52.686661545815554 L 227.43213682907165 52.686661545815525 L 227.4321368316519 52.6866615458155 L 227.4321368341159 52.68666154581544 L 227.43213683646889 52.68666154581541 L 227.43213683871588 52.68666154581538" stroke-opacity="0.9" stroke-miterlimit="10" stroke-width="2" stroke-dasharray="6"/></g></g><g><g/><g><path fill="#ffffff" stroke="#e5e5e5" paint-order="fill stroke markers" d=" M 681.25 14 L 780 14 L 780 77 L 681.25 77 L 681.25 14 Z" fill-opacity="0.8" stroke-miterlimit="10" stroke-opacity="0.5"/><text fill="#444444" stroke="none" font-family="helvetica" font-size="10pt" font-style="normal" font-weight="normal" text-decoration="normal" x="716.25" y="34" text-anchor="start" dominant-baseline="central">Model</text><g><path fill="none" stroke="rgb(225,109,0)" paint-order="fill stroke markers" d=" M 691.25 34 L 711.25 34" stroke-opacity="0.9" stroke-miterlimit="10" stroke-width="2"/></g><text fill="#444444" stroke="none" font-family="helvetica" font-size="10pt" font-style="normal" font-weight="normal" text-decoration="normal" x="716.25" y="57" text-anchor="start" dominant-baseline="central">Original</text><g><path fill="none" stroke="rgb(102,180,211)" paint-order="fill stroke markers" d=" M 691.25 57 L 711.25 57" stroke-opacity="0.9" stroke-miterlimit="10" stroke-width="2" stroke-dasharray="6"/></g></g></g><g><g><path fill="none" stroke="#CAC6B6" paint-order="fill stroke markers" d=" M 57 250 L 790 250" stroke-miterlimit="10"/><path fill="none" stroke="#CAC6B6" paint-order="fill stroke markers" d=" M 132 256 L 132 250" stroke-miterlimit="10"/><path fill="none" stroke="#CAC6B6" paint-order="fill stroke markers" d=" M 227 256 L 227 250" stroke-miterlimit="10"/><path fill="none" stroke="#CAC6B6" paint-order="fill stroke markers" d=" M 323 256 L 323 250" stroke-miterlimit="10"/><path fill="none" stroke="#CAC6B6" paint-order="fill stroke markers" d=" M 418 256 L 418 250" stroke-miterlimit="10"/><path fill="none" stroke="#CAC6B6" paint-order="fill stroke markers" d=" M 513 256 L 513 250" stroke-miterlimit="10"/><path fill="none" stroke="#CAC6B6" paint-order="fill stroke markers" d=" M 608 256 L 608 250" stroke-miterlimit="10"/><path fill="none" stroke="#CAC6B6" paint-order="fill stroke markers" d=" M 704 256 L 704 250" stroke-miterlimit="10"/><path fill="none" stroke="black" paint-order="fill stroke markers" d=" M 113 250 L 113 250" stroke-miterlimit="10"/><path fill="none" stroke="black" paint-order="fill stroke markers" d=" M 94 250 L 94 250" stroke-miterlimit="10"/><path fill="none" stroke="black" paint-order="fill stroke markers" d=" M 75 250 L 75 250" stroke-miterlimit="10"/><path fill="none" stroke="black" paint-order="fill stroke markers" d=" M 132 250 L 132 250" stroke-miterlimit="10"/><path fill="none" stroke="black" paint-order="fill stroke markers" d=" M 151 250 L 151 250" stroke-miterlimit="10"/><path fill="none" stroke="black" paint-order="fill stroke markers" d=" M 170 250 L 170 250" stroke-miterlimit="10"/><path fill="none" stroke="black" paint-order="fill stroke markers" d=" M 189 250 L 189 250" stroke-miterlimit="10"/><path fill="none" stroke="black" paint-order="fill stroke markers" d=" M 208 250 L 208 250" stroke-miterlimit="10"/><path fill="none" stroke="black" paint-order="fill stroke markers" d=" M 227 250 L 227 250" stroke-miterlimit="10"/><path fill="none" stroke="black" paint-order="fill stroke markers" d=" M 246 250 L 246 250" stroke-miterlimit="10"/><path fill="none" stroke="black" paint-order="fill stroke markers" d=" M 266 250 L 266 250" stroke-miterlimit="10"/><path fill="none" stroke="black" paint-order="fill stroke markers" d=" M 285 250 L 285 250" stroke-miterlimit="10"/><path fill="none" stroke="black" paint-order="fill stroke markers" d=" M 304 250 L 304 250" stroke-miterlimit="10"/><path fill="none" stroke="black" paint-order="fill stroke markers" d=" M 323 250 L 323 250" stroke-miterlimit="10"/><path fill="none" stroke="black" paint-order="fill stroke markers" d=" M 342 250 L 342 250" stroke-miterlimit="10"/><path fill="none" stroke="black" paint-order="fill stroke markers" d=" M 361 250 L 361 250" stroke-miterlimit="10"/><path fill="none" stroke="black" paint-order="fill stroke markers" d=" M 380 250 L 380 250" stroke-miterlimit="10"/><path fill="none" stroke="black" paint-order="fill stroke markers" d=" M 399 250 L 399 250" stroke-miterlimit="10"/><path fill="none" stroke="black" paint-order="fill stroke markers" d=" M 418 250 L 418 250" stroke-miterlimit="10"/><path fill="none" stroke="black" paint-order="fill stroke markers" d=" M 437 250 L 437 250" stroke-miterlimit="10"/><path fill="none" stroke="black" paint-order="fill stroke markers" d=" M 456 250 L 456 250" stroke-miterlimit="10"/><path fill="none" stroke="black" paint-order="fill stroke markers" d=" M 475 250 L 475 250" stroke-miterlimit="10"/><path fill="none" stroke="black" paint-order="fill stroke markers" d=" M 494 250 L 494 250" stroke-miterlimit="10"/><path fill="none" stroke="black" paint-order="fill stroke markers" d=" M 513 250 L 513 250" stroke-miterlimit="10"/><path fill="none" stroke="black" paint-order="fill stroke markers" d=" M 532 250 L 532 250" stroke-miterlimit="10"/><path fill="none" stroke="black" paint-order="fill stroke markers" d=" M 551 250 L 551 250" stroke-miterlimit="10"/><path fill="none" stroke="black" paint-order="fill stroke markers" d=" M 570 250 L 570 250" stroke-miterlimit="10"/><path fill="none" stroke="black" paint-order="fill stroke markers" d=" M 589 250 L 589 250" stroke-miterlimit="10"/><path fill="none" stroke="black" paint-order="fill stroke markers" d=" M 608 250 L 608 250" stroke-miterlimit="10"/><path fill="none" stroke="black" paint-order="fill stroke markers" d=" M 628 250 L 628 250" stroke-miterlimit="10"/><path fill="none" stroke="black" paint-order="fill stroke markers" d=" M 647 250 L 647 250" stroke-miterlimit="10"/><path fill="none" stroke="black" paint-order="fill stroke markers" d=" M 666 250 L 666 250" stroke-miterlimit="10"/><path fill="none" stroke="black" paint-order="fill stroke markers" d=" M 685 250 L 685 250" stroke-miterlimit="10"/><path fill="none" stroke="black" paint-order="fill stroke markers" d=" M 704 250 L 704 250" stroke-miterlimit="10"/><path fill="none" stroke="black" paint-order="fill stroke markers" d=" M 723 250 L 723 250" stroke-miterlimit="10"/><path fill="none" stroke="black" paint-order="fill stroke markers" d=" M 742 250 L 742 250" stroke-miterlimit="10"/><path fill="none" stroke="black" paint-order="fill stroke markers" d=" M 761 250 L 761 250" stroke-miterlimit="10"/><path fill="none" stroke="black" paint-order="fill stroke markers" d=" M 780 250 L 780 250" stroke-miterlimit="10"/><text fill="#444444" stroke="none" font-family="helvetica" font-size="8pt" font-style="normal" font-weight="normal" text-decoration="normal" x="132" y="261" text-anchor="middle" dominant-baseline="hanging">-0.2</text><text fill="#444444" stroke="none" font-family="helvetica" font-size="8pt" font-style="normal" font-weight="normal" text-decoration="normal" x="227" y="261" text-anchor="middle" dominant-baseline="hanging">0</text><text fill="#444444" stroke="none" font-family="helvetica" font-size="8pt" font-style="normal" font-weight="normal" text-decoration="normal" x="323" y="261" text-anchor="middle" dominant-baseline="hanging">0.2</text><text fill="#444444" stroke="none" font-family="helvetica" font-size="8pt" font-style="normal" font-weight="normal" text-decoration="normal" x="418" y="261" text-anchor="middle" dominant-baseline="hanging">0.4</text><text fill="#444444" stroke="none" font-family="helvetica" font-size="8pt" font-style="normal" font-weight="normal" text-decoration="normal" x="513" y="261" text-anchor="middle" dominant-baseline="hanging">0.6</text><text fill="#444444" stroke="none" font-family="helvetica" font-size="8pt" font-style="normal" font-weight="normal" text-decoration="normal" x="608" y="261" text-anchor="middle" dominant-baseline="hanging">0.8</text><text fill="#444444" stroke="none" font-family="helvetica" font-size="8pt" font-style="normal" font-weight="normal" text-decoration="normal" x="704" y="261" text-anchor="middle" dominant-baseline="hanging">1</text><text fill="#444444" stroke="none" font-family="helvetica" font-size="10pt" font-style="italic" font-weight="normal" text-decoration="normal" x="423.5009375" y="281.27" text-anchor="middle" dominant-baseline="hanging">Re</text></g><g><path fill="none" stroke="#CAC6B6" paint-order="fill stroke markers" d=" M 57 250 L 57 4" stroke-miterlimit="10"/><path fill="none" stroke="#CAC6B6" paint-order="fill stroke markers" d=" M 51 203 L 57 203" stroke-miterlimit="10"/><path fill="none" stroke="#CAC6B6" paint-order="fill stroke markers" d=" M 51 153 L 57 153" stroke-miterlimit="10"/><path fill="none" stroke="#CAC6B6" paint-order="fill stroke markers" d=" M 51 103 L 57 103" stroke-miterlimit="10"/><path fill="none" stroke="#CAC6B6" paint-order="fill stroke markers" d=" M 51 53 L 57 53" stroke-miterlimit="10"/><path fill="none" stroke="black" paint-order="fill stroke markers" d=" M 57 214 L 57 214" stroke-miterlimit="10"/><path fill="none" stroke="black" paint-order="fill stroke markers" d=" M 57 224 L 57 224" stroke-miterlimit="10"/><path fill="none" stroke="black" paint-order="fill stroke markers" d=" M 57 234 L 57 234" stroke-miterlimit="10"/><path fill="none" stroke="black" paint-order="fill stroke markers" d=" M 57 244 L 57 244" stroke-miterlimit="10"/><path fill="none" stroke="black" paint-order="fill stroke markers" d=" M 57 203 L 57 203" stroke-miterlimit="10"/><path fill="none" stroke="black" paint-order="fill stroke markers" d=" M 57 193 L 57 193" stroke-miterlimit="10"/><path fill="none" stroke="black" paint-order="fill stroke markers" d=" M 57 183 L 57 183" stroke-miterlimit="10"/><path fill="none" stroke="black" paint-order="fill stroke markers" d=" M 57 173 L 57 173" stroke-miterlimit="10"/><path fill="none" stroke="black" paint-order="fill stroke markers" d=" M 57 163 L 57 163" stroke-miterlimit="10"/><path fill="none" stroke="black" paint-order="fill stroke markers" d=" M 57 153 L 57 153" stroke-miterlimit="10"/><path fill="none" stroke="black" paint-order="fill stroke markers" d=" M 57 143 L 57 143" stroke-miterlimit="10"/><path fill="none" stroke="black" paint-order="fill stroke markers" d=" M 57 133 L 57 133" stroke-miterlimit="10"/><path fill="none" stroke="black" paint-order="fill stroke markers" d=" M 57 123 L 57 123" stroke-miterlimit="10"/><path fill="none" stroke="black" paint-order="fill stroke markers" d=" M 57 113 L 57 113" stroke-miterlimit="10"/><path fill="none" stroke="black" paint-order="fill stroke markers" d=" M 57 103 L 57 103" stroke-miterlimit="10"/><path fill="none" stroke="black" paint-order="fill stroke markers" d=" M 57 93 L 57 93" stroke-miterlimit="10"/><path fill="none" stroke="black" paint-order="fill stroke markers" d=" M 57 83 L 57 83" stroke-miterlimit="10"/><path fill="none" stroke="black" paint-order="fill stroke markers" d=" M 57 73 L 57 73" stroke-miterlimit="10"/><path fill="none" stroke="black" paint-order="fill stroke markers" d=" M 57 63 L 57 63" stroke-miterlimit="10"/><path fill="none" stroke="black" paint-order="fill stroke markers" d=" M 57 53 L 57 53" stroke-miterlimit="10"/><path fill="none" stroke="black" paint-order="fill stroke markers" d=" M 57 43 L 57 43" stroke-miterlimit="10"/><path fill="none" stroke="black" paint-order="fill stroke markers" d=" M 57 33 L 57 33" stroke-miterlimit="10"/><path fill="none" stroke="black" paint-order="fill stroke markers" d=" M 57 23 L 57 23" stroke-miterlimit="10"/><path fill="none" stroke="black" paint-order="fill stroke markers" d=" M 57 12 L 57 12" stroke-miterlimit="10"/><text fill="#444444" stroke="none" font-family="helvetica" font-size="8pt" font-style="normal" font-weight="normal" text-decoration="normal" x="46" y="203" text-anchor="end" dominant-baseline="central">-0.6</text><text fill="#444444" stroke="none" font-family="helvetica" font-size="8pt" font-style="normal" font-weight="normal" text-decoration="normal" x="46" y="153" text-anchor="end" dominant-baseline="central">-0.4</text><text fill="#444444" stroke="none" font-family="helvetica" font-size="8pt" font-style="normal" font-weight="normal" text-decoration="normal" x="46" y="103" text-anchor="end" dominant-baseline="central">-0.2</text><text fill="#444444" stroke="none" font-family="helvetica" font-size="8pt" font-style="normal" font-weight="normal" text-decoration="normal" x="46" y="53" text-anchor="end" dominant-baseline="central">0</text><g transform="translate(17.73000000000001,127.13125) rotate(-90,0,0)"><text fill="#444444" stroke="none" font-family="helvetica" font-size="10pt" font-style="italic" font-weight="normal" text-decoration="normal" x="0" y="0" text-anchor="middle" dominant-baseline="alphabetic">Im</text><g transform="rotate(90,0,0) translate(-17.73000000000001,-127.13125)"/></g></g></g></g></g></svg>