<svg version="1.1" xmlns="http://www.w3.org/2000/svg" xmlns:xlink="http://www.w3.org/1999/xlink" width="800" height="300" style="width: 800px; height: 300px;"><defs/><g><g/><g transform="scale(1,1) translate(0.5,0.5)"><rect fill="#FFFFFF" stroke="none" x="0" y="0" width="800" height="300"/><rect fill="#ffffff" stroke="none" x="0" y="0" width="800" height="300"/><rect fill="#FFFFFF" stroke="none" x="42.84" y="4" width="747.16" height="251.64"/><rect fill="#ffffff" stroke="none" x="42.84" y="4" width="747.16" height="251.64"/><g/><g><g><path fill="none" stroke="#e5e5e5" paint-order="fill stroke markers" d=" M 92 256 L 92 4" stroke-miterlimit="10"/><path fill="none" stroke="#e5e5e5" paint-order="fill stroke markers" d=" M 203 256 L 203 4" stroke-miterlimit="10"/><path fill="none" stroke="#e5e5e5" paint-order="fill stroke markers" d=" M 313 256 L 313 4" stroke-miterlimit="10"/><path fill="none" stroke="#e5e5e5" paint-order="fill stroke markers" d=" M 424 256 L 424 4" stroke-miterlimit="10"/><path fill="none" stroke="#e5e5e5" paint-order="fill stroke markers" d=" M 535 256 L 535 4" stroke-miterlimit="10"/><path fill="none" stroke="#e5e5e5" paint-order="fill stroke markers" d=" M 645 256 L 645 4" stroke-miterlimit="10"/><path fill="none" stroke="#e5e5e5" paint-order="fill stroke markers" d=" M 756 256 L 756 4" stroke-miterlimit="10"/></g><g><path fill="none" stroke="#e5e5e5" paint-order="fill stroke markers" d=" M 43 231 L 790 231" stroke-miterlimit="10"/><path fill="none" stroke="#e5e5e5" paint-order="fill stroke markers" d=" M 43 171 L 790 171" stroke-miterlimit="10"/><path fill="none" stroke="#e5e5e5" paint-order="fill stroke markers" d=" M 43 110 L 790 110" stroke-miterlimit="10"/><path fill="none" stroke="#e5e5e5" paint-order="fill stroke markers" d=" M 43 50 L 790 50" stroke-miterlimit="10"/></g><g><path fill="none" stroke="none"/><path fill="none" stroke="rgb(225,109,0)" paint-order="fill stroke markers" d=" M 753.6508441977502 50.01914592177434 L 753.6508437671904 50.02017199686938 L 753.6508433163178 50.02122199652288 L 753.6508428441748 50.022296478573566 L 753.6508423497577 50.023396013867 L 753.6508418320151 50.02452118655893 L 753.6508412898473 50.02567259442563 L 753.6508407221017 50.026850849181386 L 753.650840127572 50.028056576803635 L 753.6508395049938 50.02929041786541 L 753.6508388530444 50.030553027875726 L 753.6508381703384 50.031845077627764 L 753.6508374554244 50.03316725355532 L 753.650836706783 50.03452025809747 L 753.650835922823 50.03590481007174 L 753.6508351018783 50.03732164505601 L 753.6508342422042 50.038771515779246 L 753.6508333419732 50.04025519252153 L 753.6508323992723 50.04177346352316 L 753.6508314120979 50.04332713540347 L 753.6508303783514 50.0449170335894 L 753.6508292958362 50.04654400275402 L 753.6508281622514 50.04820890726515 L 753.6508269751878 50.04991263164479 L 753.6508257321218 50.05165608103883 L 753.6508244304126 50.05344018169811 L 753.6508230672924 50.05526588147035 L 753.6508216398647 50.057134150303824 L 753.6508201450957 50.059045980762676 L 753.6508185798081 50.06100238855413 L 753.6508169406752 50.06300441306814 L 753.6508152242131 50.06505311792975 L 753.650813426774 50.06714959156389 L 753.6508115445373 50.06929494777387 L 753.6508095735028 50.071490326332906 L 753.6508075094811 50.073736893589825 L 753.6508053480854 50.07603584308862 L 753.6508030847222 50.07838839620254 L 753.6508007145804 50.080795802782916 L 753.650798232623 50.08325934182338 L 753.6507956335748 50.085780322139016 L 753.6507929119115 50.08836008306204 L 753.6507900618492 50.09099999515308 L 753.6507870773299 50.093701460929424 L 753.6507839520104 50.09646591561017 L 753.6507806792484 50.099294827878566 L 753.6507772520879 50.10218970066242 L 753.6507736632449 50.10515207193242 L 753.6507699050918 50.108183515519386 L 753.6507659696409 50.111285641950104 L 753.6507618485281 50.11446009930327 L 753.6507575329942 50.11770857408479 L 753.6507530138674 50.121032792123856 L 753.6507482815424 50.12443451948988 L 753.6507433259616 50.12791556343058 L 753.650738136592 50.13147777333222 L 753.6507327024051 50.135123041702116 L 753.6507270118504 50.13885330517394 L 753.6507210528333 50.142670545536674 L 753.650714812689 50.14657679078738 L 753.6507082781545 50.15057411620862 L 753.6507014353418 50.154664645471 L 753.6506942697068 50.158850551761304 L 753.6506867660202 50.163134058936976 L 753.6506789083338 50.16751744270766 L 753.6506706799469 50.17200303184413 L 753.650662063371 50.17659320941536 L 753.6506530402925 50.1812904140547 L 753.6506435915344 50.186097141255146 L 753.650633697014 50.19101594469532 L 753.6506233357018 50.196049437595946 L 753.6506124855761 50.20120029410808 L 753.6506011235765 50.20647125073381 L 753.6505892255543 50.21186510778 L 753.6505767662214 50.21738473084582 L 753.6505637190975 50.22303305234516 L 753.650550056452 50.228813073064316 L 753.650535749247 50.23472786375626 L 753.6505207670741 50.240780566771775 L 753.6505050780904 50.24697439772876 L 753.6504886489513 50.25331264722058 L 753.6504714447383 50.25979868256391 L 753.650453428886 50.26643594958776 L 753.6504345631038 50.27322797446371 L 753.6504148072953 50.280178365579246 L 753.6503941194717 50.287290815454526 L 753.6503724556634 50.29456910270383 L 753.6503497698266 50.30201709404284 L 753.6503260137459 50.30963874634267 L 753.6503011369306 50.317438108731665 L 753.6502750865076 50.325419324746406 L 753.6502478071104 50.333586634532594 L 753.6502192407601 50.341944377097434 L 753.6501893267425 50.35049699261444 L 753.6501580014793 50.359249024782 L 753.6501251983922 50.368205123236805 L 753.6500908477632 50.37737004602363 L 753.6500548765835 50.38674866212267 L 753.6500172084018 50.396345954035695 L 753.649977763159 50.40616702043258 L 753.6499364570193 50.41621707885946 L 753.649893202192 50.42650146850997 L 753.6498479067445 50.437025653061056 L 753.6498004744077 50.447795223574985 L 753.6497508043702 50.458815901468824 L 753.6496987910652 50.47009354155324 L 753.6496443239453 50.481634135141974 L 753.6495872872479 50.49344381323385 L 753.6495275597497 50.50552884976901 L 753.6494650145077 50.51789566496072 L 753.649399518591 50.530550828705145 L 753.649330932797 50.54350106407034 L 753.6492591113563 50.55675325086659 L 753.6491839016229 50.570314429299856 L 753.6491051437486 50.584191803710496 L 753.6490226703455 50.59839274639873 L 753.6489363061282 50.61292480153966 L 753.6488458675425 50.62779568918904 L 753.6487511623743 50.64301330938264 L 753.6486519893423 50.658585746330886 L 753.6485481376687 50.67452127271119 L 753.6484393866333 50.690828354060415 L 753.6483255051025 50.70751565326941 L 753.6482062510391 50.72459203518213 L 753.648081370987 50.742066571302104 L 753.6479505995343 50.75994854460811 L 753.6478136587473 50.77824745448234 L 753.6476702575812 50.796973021752734 L 753.6475200912606 50.816135193853285 L 753.6473628406324 50.83574415010381 L 753.6471981714878 50.855810307113046 L 753.6470257338514 50.87634432430721 L 753.646845161237 50.897357109587176 L 753.646656069871 50.918859825117266 L 753.6464580578739 50.94086389324883 L 753.6462507044083 50.963381002581286 L 753.646033568784 50.986423114164324 L 753.645806189521 51.010002467844146 L 753.6455680833698 51.03413158875739 L 753.6453187442833 51.05882329397588 L 753.6450576423426 51.08409069930573 L 753.6447842226303 51.10994722624466 L 753.6444979040509 51.13640660910059 L 753.6441980780969 51.16348290227603 L 753.6438841075551 51.19119048772109 L 753.6435553251526 51.21954408256008 L 753.6432110321394 51.24855874689473 L 753.6428504968026 51.27824989178876 L 753.6424729529124 51.30863328743769 L 753.6420775980939 51.33972507152802 L 753.6416635921223 51.37154175779051 L 753.6412300551367 51.404100244751675 L 753.6407760657715 51.437417824688 L 753.6403006591985 51.47151219278808 L 753.6398028250768 51.50640145652656 L 753.6392815054056 51.542104145255394 L 753.6387355922772 51.57863922001735 L 753.6381639255231 51.61602608358626 L 753.6375652902477 51.65428459074002 L 753.6369384142491 51.69343505877072 L 753.6362819653145 51.73349827823827 L 753.6355945483916 51.77449552397218 L 753.6348747026233 51.81644856632761 L 753.6341208982454 51.85937968270147 L 753.633331533336 51.90331166931409 L 753.6325049304136 51.94826785326288 L 753.6316393328718 51.994272104853735 L 753.6307329012508 52.04134885021688 L 753.629783709327 52.089523084212914 L 753.6287897400232 52.138820383636414 L 753.6277488811246 52.18926692072276 L 753.6266589207912 52.240889476966004 L 753.6255175428612 52.29371545725377 L 753.6243223219311 52.34777290432689 L 753.6230707182054 52.40309051357076 L 753.6217600721021 52.459697648145635 L 753.6203875986058 52.51762435446369 L 753.6189503813522 52.57690137802004 L 753.6174453664369 52.637560179585904 L 753.6158693559304 52.69963295177166 L 753.6142190010877 52.76315263596766 L 753.6124907952383 52.82815293967164 L 753.6106810663425 52.89466835421035 L 753.6087859691952 52.96273417286446 L 753.6068014772628 53.032386509405285 L 753.6047233741373 53.10366231705191 L 753.6025472445854 53.17659940785822 L 753.6002684651784 53.25123647253827 L 753.5978821944794 53.327613100740024 L 753.5953833627698 53.40576980177619 L 753.5927666612902 53.485748025822204 L 753.5900265309773 53.567590185590916 L 753.5871571506686 53.6513396784938 L 753.5841524247533 53.7370409092986 L 753.5810059702417 53.82473931329403 L 753.5777111032254 53.914481379970965 L 753.5742608247024 54.006314677231444 L 753.5706478057336 54.100287876135184 L 753.5668643719018 54.196450776194894 L 753.5629024870408 54.294854331230795 L 753.5587537361978 54.39555067579522 L 753.5544093077963 54.49859315217833 L 753.5498599749599 54.6040363380061 L 753.5450960759586 54.71193607444141 L 753.5401074937362 54.82234949499971 L 753.5348836344765 54.93533505499039 L 753.5294134051622 55.05095256159515 L 753.5236851900808 55.169263204594586 L 753.5176868262258 55.290329587754684 L 753.5114055775465 55.414215760884076 L 753.504828107986 55.54098725257373 L 753.4979404532565 55.67071110362997 L 753.4907279912906 55.80345590121263 L 753.4831754113068 55.939291813688556 L 753.4752666814247 56.07829062621232 L 753.4669850147638 56.2205257770442 L 753.4583128339533 56.36607239461679 L 753.44923173398 56.51500733535991 L 753.4397224432979 56.667409222294594 L 753.4297647831172 56.8233584844057 L 753.4193376247897 56.982937396802754 L 753.4084188452005 57.146230121678116 L 753.3969852800758 57.313322750071166 L 753.385012675111 57.48430334444677 L 753.3724756348129 57.65926198209553 L 753.3593475689578 57.838290799362795 L 753.345600636551 58.02148403671299 L 753.3312056871727 58.208938084634326 L 753.316132199592 58.40075153038899 L 753.3003482175221 58.5970252056122 L 753.2838202823864 58.79786223476316 L 753.2665133629548 59.003368084428786 L 753.2483907817141 59.213650613481235 L 753.2294141378142 59.42882012408748 L 753.2095432264427 59.648989413568586 L 753.1887359544584 59.874273827104474 L 753.1669482521145 60.10479131127764 L 753.1441339806995 60.340662468448414 L 753.120244835902 60.58201061195098 L 753.0952302467122 60.828961822097995 L 753.0690372696582 61.08164500297886 L 753.0416104781616 61.340191940033435 L 753.0128918468001 61.604737358381044 L 752.9828206302435 61.87541898188064 L 752.9513332366275 62.15237759289468 L 752.9183630951147 62.43575709272562 L 752.8838405173876 62.72570456269017 L 752.8476925528012 63.022370325791314 L 752.8098428369157 63.32590800894437 L 752.7702114331197 63.63647460570735 L 752.7287146670367 63.95423053946118 L 752.6852649534011 64.27933972697886 L 752.639770615076 64.61196964231678 L 752.5921356938702 64.95229138095422 L 752.5422597528006 65.30047972409974 L 752.4900376694312 65.65671320307584 L 752.4353594199066 66.0211741636837 L 752.3781098532849 66.39404883044219 L 752.3181684557569 66.77552737058397 L 752.2554091043253 67.16580395768227 L 752.1896998095046 67.56507683477054 L 752.1209024465828 67.97354837680396 L 752.0488724749708 68.391425152301 L 751.9734586451552 68.81891798398729 L 751.8945026927445 69.25624200825092 L 751.8118390190897 69.70361673320141 L 751.7252943579423 70.16126609510849 L 751.6346874275935 70.62941851297825 L 751.5398285679273 71.10830694100534 L 751.4405193617976 71.59816891861902 L 751.3365522401289 72.099246617819 L 751.2277100701242 72.61178688747384 L 751.1137657259419 73.13604129422961 L 750.9944816411994 73.6722661596493 L 750.869609342639 74.22072259317656 L 750.7388889642823 74.78167652048563 L 750.6020487413841 75.35539870674864 L 750.4588044834949 75.94216477431632 L 750.308859025916 76.54225521427284 L 750.1519016588422 77.15595539128671 L 749.9876075334656 77.78355554113875 L 749.8156370443213 78.42535076026556 L 749.6356351871477 79.08164098661058 L 749.4472308915433 79.75273097102706 L 749.2500363276987 80.43893023842537 L 749.0436461864995 81.14055303780381 L 748.8276369323049 81.85791828024472 L 748.6015660277242 82.59134946389713 L 748.3649711297393 83.34117458490488 L 748.1173692565483 84.10772603317153 L 747.8582559245405 84.89134047178402 L 747.5871042548576 85.69235869884324 L 747.3033640490432 86.51112549037322 L 747.0064608333457 87.3479894228995 L 746.6957948713066 88.2033026742038 L 746.3707401443432 89.07742080067408 L 746.0306433001336 89.97070248957792 L 745.6748225687036 90.88350928449259 L 745.302566646247 91.81620528202706 L 744.9131335468326 92.76915679786902 L 744.5057494223029 93.74273200008699 L 744.0796073508451 94.73730050750811 L 743.6338660948884 95.75323295088421 L 743.1676488292011 96.79090049444449 L 742.6800418402869 97.85067431532096 L 742.1700931984333 98.93292503821561 L 741.6368114040524 100.03802212256338 L 741.0791640102584 101.16633319932873 L 740.4960762239725 102.3182233544581 L 739.8864294882119 103.49405435589779 L 739.2490600486353 104.69418382097618 L 738.582757507856 105.91896432084408 L 737.8862633715128 107.16874241856513 L 737.1582695906309 108.44385763735761 L 736.3974171053455 109.7446413554041 L 735.6022943956999 111.0714156235733 L 734.7714360458707 112.42449190234117 L 733.9033213288934 113.80416971415471 L 732.9963728197166 115.21073520746054 L 732.048955045229 116.64445962861885 L 731.0593731807619 118.10559769794833 L 730.0258718035024 119.59438588620384 L 728.9466337142153 121.11104058787555 L 727.8197788397066 122.65575618782725 L 726.6433632295451 124.22870301795894 L 725.4153781616873 125.83002520079953 L 724.1337493728431 127.45983837720652 L 722.7963364306382 129.11822731568014 L 721.4009322659116 130.80524340120007 L 719.9452628847833 132.5209020019593 L 718.4269872814666 134.26517971292208 L 716.8436975741481 136.03801147576556 L 715.1929193876239 137.83928757549543 L 713.4721125077272 139.66885051485238 L 711.6786718339287 141.52649176856403 L 709.8099286577786 143.4119484205466 L 707.8631522961065 145.32489968833218 L 705.8355521090471 147.26496334029588 L 703.7242799340241 149.23169201268837 L 701.5264329677336 151.22456943504807 L 699.2390571289258 153.24300657427546 L 696.8591509353372 155.28633770950506 L 694.383669928438 157.35381645190466 L 691.809531679689 159.44461172566852 L 689.1336214117209 161.55780372874568 L 686.3527982671789 163.69237989424835 L 683.4639022569071 165.84723087601185 L 680.4637619175923 168.0211465844091 L 677.3492027069195 170.21281230124538 L 674.1170561616573 172.4208049053483 L 670.7641698408113 174.6435892432986 L 667.2874180720611 176.87951468258672 L 663.6837135150209 179.12681188729098 L 659.9500195494479 181.3835898591141 L 656.0833634902933 183.64783328923295 L 652.080850624442 185.9174002688637 L 647.9396790560826 188.19002040865303 L 643.6571553389027 190.46329341891754 L 639.2307108637012 192.734688204291 L 634.6579189595961 195.0015425274315 L 629.93651265581 197.26106329700937 L 625.0644030391132 199.51032753515952 L 620.0396981294691 201.74628407885686 L 614.8607221833947 203.96575606819096 L 609.5260353211338 206.16544427217698 L 604.0344533601269 208.3419312995017 L 598.3850677236394 210.4916867373767 L 592.5772652799957 212.61107325642016 L 586.610747954916 214.69635371316414 L 580.4855519472312 216.7436992743742 L 574.2020663670577 218.7491985788542 L 567.7610511056398 220.70886794282978 L 561.1636537378669 222.61866260438546 L 554.4114252522211 224.47448899085816 L 547.5063343989666 226.2722179806567 L 540.4507804460502 228.0076991178176 L 533.2476041337084 229.6767757238824 L 525.9000966234605 231.27530083758336 L 518.4120062451778 232.79915389857157 L 510.78754285744503 234.24425807726152 L 503.03137965154383 235.60659813906554 L 495.1486522481255 236.8822387181374 L 487.14495495792414 238.06734286352886 L 479.0263341035717 239.15819070969124 L 470.79927832844544 240.15119811381797 L 462.47070585021015 241.0429350949071 L 454.04794865087615 241.83014390389434 L 445.5387336312746 242.50975655098546 L 436.9511607952967 243.07891161561247 L 428.2936785673727 243.5349701663798 L 419.5750563848173 243.87553062305912 L 410.804354744072 244.0984424001602 L 401.99089291581106 244.20181818181814 L 393.14421457757146 244.18404469060027 L 384.2740516433163 244.04379182817974 L 375.3902865964553 243.7800200834214 L 366.5029136557247 243.39198612299197 L 357.6219991214445 242.87924650079668 L 348.75764126260185 242.24165944497483 L 339.91993011266396 241.4793847044379 L 331.1189075438034 240.59288146056005 L 322.36452798530973 239.58290433318209 L 313.66662014241547 238.45049753311315 L 305.0348500568531 237.19698723537317 L 296.47868583046596 235.8239722681076 L 288.0073643086355 234.33331323104755 L 279.62985999167 232.72712017426804 L 271.35485641029015 231.0077389825366 L 263.1907201666133 229.17773662255343 L 255.14547780533377 227.2398854197021 L 247.22679564185526 225.1971465374996 L 239.4419626357096 223.0526528367382 L 231.79787635940727 220.80969129240245 L 224.3010320755927 218.4716851449403 L 216.9575148996412 216.04217595852293 L 209.77299499118598 213.52480575276056 L 202.75272568697076 210.92329936618387 L 195.90154445926802 208.24144719993492 L 189.22387655918004 205.48308847881387 L 182.7237411826394 202.65209515440768 L 176.40475997897065 199.75235656177307 L 170.27016770747642 196.78776492735616 L 164.32282483663 193.76220181178184 L 158.56523187296077 190.67952555709383 L 152.99954520243278 187.5435597942114 L 147.62759422580615 184.3580830529946 L 142.450899570864 181.12681950455627 L 137.47069216819054 177.8534308534766 L 132.68793298306872 174.541509386479 L 128.10333320371564 171.19457217399884 L 123.7173746951445 167.81605641198502 L 119.53033053812649 164.40931588323878 L 115.5422854837017 160.97761851062677 L 111.75315616516797 157.52414496858748 L 108.16271092119163 154.051988314448 L 104.77058909538106 150.5641545971249 L 101.57631968913155 147.06356439773805 L 98.5793392555898 143.55305525443964 L 95.7790089330412 140.03538492227108 L 93.17463052574765 136.5132354180111 L 90.76546154916238 132.98921779968398 L 88.55072916442074 129.46587763055066 L 86.52964293400892 125.9457010779214 L 84.70140633649453 122.4311215979007 L 83.06522698315334 118.92452715811663 L 81.62032548324773 115.42826795150276 L 80.36594290761393 111.94466455520288 L 79.30134680213729 108.4760164895707 L 78.42583570368194 105.0246111329599 L 77.7387421111457 101.59273294846054 L 77.23943386361533 98.18267297886581 L 76.92731387616921 94.79673856587075 L 76.80181818181818 91.43726324874788 L 76.86241222548276 88.10661679644025 L 77.10858535290218 84.8072153251023 L 77.53984343407187 81.54153145053277 L 78.15569955736146 78.31210442162734 L 78.95566272702133 75.12155017687016 L 79.9392244935125 71.97257126092302 L 81.10584344318988 68.86796653251193 L 82.45492747152218 65.81064058799228 L 83.98581376249697 62.80361281715693 L 85.697746396372 59.85002599898684 L 87.58985150879673 56.95315433509981 L 89.66110992684376 54.11641080759736 L 91.91032721202096 51.343353735829396 L 94.33610104726361 48.63769239328258 L 96.93678591466401 46.00329153136798 L 99.71045502375766 43.444174641366715 L 102.65485946706708 40.964525769250145 L 105.767384600873 38.56868968061349 L 109.04500367545221 36.261170154674005 L 112.48422877095305 34.04662616736687 L 116.08105913337826 31.92986570423642 L 119.83092705056471 29.915836924372115 L 123.7286414613658 28.009616377425175 L 127.76832955327967 26.216393957214564 L 131.9433766753349 24.541454258135616 L 136.24636497497906 22.990153985164966 L 140.66901126080455 21.567895055499207 L 145.20210469793065 20.280093020681363 L 149.83544506040226 19.132140433533095 L 154.5577823955671 18.12936478556361 L 159.3567590994012 17.276980649191614 L 164.21885555923063 16.58003567671608 L 169.12934069100226 16.043350136334652 L 174.07222888151284 15.671449706674252 L 179.03024504061818 15.468491307520821 L 183.98479967256955 15.438181818181818 L 188.915976086639 15.583689628831053 L 193.80253208154036 15.907549087097152 L 198.62191865116048 16.411558044995445 L 203.35031846483582 17.096668883065206 L 207.9627070664091 17.96287359222265 L 212.43293990345705 19.009083732198746 L 216.73386843039205 20.23300636102516 L 220.83748861352203 21.631017344916472 L 224.7151251872711 23.198033813418988 L 228.33765495089284 24.92738792120565 L 231.67577223397066 26.810704514439976 L 234.70029937414506 28.837785773520295 L 237.38254461686455 30.996506410407733 L 239.6947092374797 33.272723530107726 L 241.61034487205654 35.65020581142761 L 243.1048609953678 38.11058720721718 L 244.1560811732772 40.63335088973258 L 244.74484511434386 43.195849648173066 L 244.85565162751084 45.77336935263304 L 244.47733534045568 48.33924239511026 L 243.6037674364303 50.86501816042508 L 242.2345677281427 53.32069751752178 L 240.3758121236291 55.67503799732387 L 238.04071599034572 57.895935673424816 L 235.25027015551706 59.95088871752324 L 232.03380239102316 61.80754609047179 L 228.42943335614152 63.434342779449224 L 224.48439229216254 64.8012203329925 L 220.2551545103497 65.88042811823837 L 215.80736017470352 66.6473966843129 L 211.21547239667058 67.08166984230883 L 206.5621326305089 67.16787658032857 L 201.93717323822617 66.89671778296076 L 197.43625137696927 66.26593603986214 L 193.1590755694258 65.28122980417888 L 189.20720696736547 63.95706608437001 L 185.6814318886893 62.317339112218065 L 182.67872108857037 60.39581653019417 L 180.28881465156167 58.23631020962665 L 178.59049936907755 55.8925065955072 L 177.64767767896464 53.427392332719535 L 177.50536295195576 50.912215805059645 L 178.18577384625016 48.42493509612646 L 179.68473871794916 46.048118717153784 L 181.96865705507827 43.8662880792059 L 184.97229520557107 41.96272071378081 L 188.59771412431934 40.41577087509239 L 192.71463258966958 39.29480903291346 L 197.16251491087382 38.65593277264861 L 201.75463188972043 38.53765668686185 L 206.28427222663046 38.95684474935911 L 210.53317398635045 39.90520088344266 L 214.28209905929307 41.346676042023546 L 217.3232872327055 43.21617577349207 L 219.4743037173739 45.41995233770123 L 220.59254306649967 47.83803037600907 L 220.58938837136307 50.328934949749794 L 219.4427708775454 52.73685604236019 L 217.20666546631494 54.901187123215806 L 214.01593728149567 56.66811447468788 L 210.08498165085365 57.903614412043964 L 205.6988400965717 58.506856513269014 L 201.1959970719907 58.42265153469668 L 196.94291530526027 57.65128739947954 L 193.30155539902526 56.253957386872116 L 190.59256347265827 54.35211237748109 L 189.05828799376772 52.11956878900568 L 188.83094995077857 49.76712966115426 L 189.91168553573547 47.52077273987615 L 192.1653807506934 45.59591367433657 L 195.33402434702023 44.171496107289215 L 199.0679520512189 43.368254478501285 L 202.97058263015484 43.23509726909458 L 206.64914403114952 43.746108569289845 L 209.76249441503114 44.808485629638454 L 212.05798188207706 46.27944510164829 L 213.39209536906583 47.9884287001415 L 213.73348916856105 49.76028281403606 L 213.1506051829429 51.43554019145654 L 211.78860297011906 52.885185516341636 L 209.84122844743385 54.01884140556609 L 207.52276936249214 54.78670102175269 L 205.04387506976917 55.176473168872405 L 202.59334956287333 55.207024094298845 L 200.3265186525678 54.92038446175374 L 198.35967177535082 54.373499306260896 L 196.7694424954726 53.63069184175248 L 195.5957530770988 52.757406780277506 L 194.84698948239432 51.815462803801836 L 194.50627423388954 50.85980207652037 L 194.5379705770638 49.93657450587327 L 194.89381867984468 49.08231914259605 L 195.51833781611276 48.32398374413461 L 196.3533129954043 47.67953665787087 L 197.34131888552284 47.15895728358541 L 198.42832377311694 46.76543134000411 L 199.56547026628033 46.49661778910365 L 200.71015639467072 46.34589140106695 L 201.8265487156941 46.30349655776581 L 202.88565454930207 46.357573379818234 L 203.8650685713303 46.49503684409706 L 204.74849335097488 46.70230389837445 L 205.52511653820457 46.9658735232496 L 206.1889109213826 47.272771108985154 L 206.7379084556043 47.61087221357465 L 207.17348611135455 47.96912245017083 L 207.49969019526657 48.33767049975614 L 207.72261662816751 48.70793052503382 L 207.84985738448384 49.07258893521964 L 207.89001768969067 49.425568789797495 L 207.85230440030452 49.76196332899366 L 207.74618301412676 50.07794831677708 L 207.58109875147966 50.37068116926875 L 207.36625590824664 50.638193273039946 L 207.11044903243305 50.87928050346454 L 206.82193926878256 51.093395744097506 L 206.5083693278563 51.28054618229143 L 206.17671086778682 51.44119730393797 L 205.8332385504238 51.576184816362655 L 205.48352558845323 51.68663517546878 L 205.13245619092726 51.77389496282706 L 204.78425090838147 51.83946903244916 L 204.44250145210967 51.88496710843046 L 204.11021209975414 51.91205834795133 L 203.78984529170484 51.922433275460946 L 203.4833694649863 51.91777243117855 L 203.19230756178322 51.89972105002278 L 202.91778498934525 51.86986908704549 L 202.6605760991656 51.82973592521091 L 202.4211484995389 51.78075913506348 L 202.1997047209522 51.72428669876294 L 201.99622092259588 51.66157215942104 L 201.8104824649631 51.59377220777776 L 201.64211628227048 51.52194626983473 L 201.4906200732453 51.44705770952095 L 201.3553883933498 51.36997630866847 L 201.23573577904742 51.291481731766 L 201.13091706820373 51.21226772466645 L 201.0401451027315 51.13294683441171 L 200.9626060123757 51.054055471533246 L 200.89747228400793 50.976059166646024 L 200.84391382058865 50.899357900022665 L 200.80110718942672 50.824291406320356 L 200.76824325165458 50.75114437697874 L 200.74453335487527 50.68015150028171 L 200.7292142594807 50.61150229394809 L 200.72155195679863 50.54534569766179 L 200.72084452447058 50.48179440342889 L 200.72642415167175 50.420928910309186 L 200.73765845423426 50.362801297139725 L 200.75395118763393 50.30743871256678 L 200.77474245429786 50.254846586215564 L 200.7995084908801 50.205011568335834 L 200.82776111109752 50.15790420791504 L 200.85904687044606 50.1134813811895 L 200.89294601063085 50.071688483827415 L 200.9290712338352 50.03246140090991 L 200.96706634999035 49.995728269289884 L 201.00660483396143 49.96141104703892 L 201.0473883239872 49.929426904569965 L 201.08914508776186 49.89968945170031 L 201.13162847817586 49.87210981444733 L 201.17461539689154 49.84659757476507 L 201.21790478057335 49.823061585767874 L 201.26131612167313 49.80141067427408 L 201.30468803314707 49.78155424176143 L 201.34787686430928 49.76340277407195 L 201.39075537317186 49.746868269454694 L 201.43321145904352 49.73186459379755 L 201.47514695782965 49.71830777118552 L 201.51647650136348 49.706116217236485 L 201.55712644117435 49.69521092201242 L 201.59703383634204 49.68551558868626 L 201.63614550447116 49.67695673356394 L 201.6744171343294 49.669463752519675 L 201.71181245830974 49.662968958397215 L 201.7483024825829 49.657407593464455 L 201.78386477259127 49.65271782057809 L 201.81848279138472 49.64884069631992 L 201.8521452882025 49.64572012900561 L 201.88484573465612 49.64330282413695 L 201.9165818058544 49.64153821956842 L 201.94735490383093 49.64037841238843 L 201.97716972067568 49.63977807926889 L 202.00603383883643 49.639694391815766 L 202.03395736613174 49.64008692825473 L 202.06095260310715 49.64091758260682 L 202.08703374046368 49.64215047234953 L 202.11221658439118 49.64375184541714 L 202.13651830774512 49.645689987265854 L 202.15995722511508 49.64793512861851 L 202.18255258994117 49.65045935440321 L 202.2043244119432 49.65323651431234 L 202.2252932932325 49.65624213533195 L 202.24548028158063 49.6594533365232 L 202.2649067394178 49.6628487462784 L 202.2835942272318 49.66640842222259 L 202.30156440012863 49.670113773887664 L 202.31883891640504 49.67394748824603 L 202.33543935706683 49.67789345815888 L 202.3513871553049 49.6819367137652 L 202.36670353501694 49.686063356813264 L 202.38140945753176 49.69026049791708 L 202.3955255757606 49.69451619670164 L 202.40907219505996 49.698819404788395 L 202.42206924015005 49.70315991155965 L 202.43453622748532 49.70752829263182 L 202.44649224252478 49.71191586096003 L 202.45795592139592 49.71631462049115 L 202.46894543648963 49.72071722227733 L 202.4794784855635 49.72511692296075 L 202.48957228396813 49.72950754553645 L 202.49924355964487 49.73388344230128 L 202.50850855057632 49.73823945989503 L 202.51738300439828 49.74257090634191 L 202.52588217991044 49.74687352000035 L 202.53402085024666 49.75114344033156 L 202.54181330748867 49.755377180398625 L 202.54927336852836 49.759571601010634 L 202.55641438200172 49.76372388642801 L 202.56324923613624 49.767831521549 L 202.56979036736882 49.77189227049857 L 202.57604976960567 49.77590415654541 L 202.5820390040098 49.77986544327433 L 202.5877692092128 49.78377461694495 L 202.59325111185976 49.7876303699706 L 202.59849503740497 49.791431585453665 L 202.60351092108664 49.795177322717365 L 202.60830831901595 49.798866803775894 L 202.61289641932385 49.80249940068859 L 202.61728405331579 49.806074623745474 L 202.6214797065908 49.80959211043515 L 202.62549153008658 49.81305161514763 L 202.62932735101768 49.81645299956827 L 202.6329946836783 49.81979622371995 L 202.63650074008515 49.823081337614354 L 202.63985244043954 49.82630847347423 L 202.64305642339147 49.82947783849144 L 202.64611905609095 49.83258970808697 L 202.64904644401483 49.835644419641426 L 202.65184444055942 49.838642366666335 L 202.65451865639193 49.841583993387786 L 202.65707446855436 49.84446978971644 L 202.65951702931693 49.84730028657856 L 202.66185127477777 49.85007605158512 L 202.66408193320817 49.85279768501678 L 202.66621353314306 49.85546581610393 L 202.6682504112183 49.85808109958273 L 202.6701967197555 49.860644212508674 L 202.67205643409812 49.86315585131072 L 202.67383335970126 49.865616729069814 L 202.67553113897915 49.868027573007 L 202.67715325791468 49.87038912216681 L 202.67870305243528 49.87270212528273 L 202.68018371456037 49.87496733881261 L 202.6815982983253 49.87718552513215 L 202.68294972548753 49.87935745087569 L 202.68424079102007 49.8814838854143 L 202.68547416839854 49.883565599461576 L 202.68665241468696 49.885603363798 L 202.68777797542847 49.887597948106134 L 202.68885318934673 49.88955011990825 L 202.6898802928637 49.891460643599686 L 202.6908614244399 49.893330279570534 L 202.69179862874236 49.89515978341001 L 202.69269386064664 49.896949905187114 L 202.6935489890779 49.89870138880201 L 202.69436580069691 49.90041497140339 L 202.6951460034365 49.90209138286667 L 202.69589122989322 49.90373134532845 L 202.69660304058016 49.905335572773396 L 202.69728292704536 49.90690477066926 L 202.69793231486133 49.90843963564677 L 202.69855256648987 49.90994085522058 L 202.69914498402755 49.91140910754842 L 202.6997108118359 49.912845061225426 L 202.70025123906112 49.91424937511073 L 202.70076740204715 49.91562269818405 L 202.70126038664696 49.91696566942966 L 202.70173123043526 49.918278917745624 L 202.70218092482713 49.91956306187615 L 202.7026104171064 49.920818710365154 L 202.70302061236652 49.92204646152962 L 202.70341237536894 49.92324690345029 L 202.70378653232078 49.92442061397901 L 202.70414387257637 49.92556816076066 L 202.704485150265 49.92669010126883 L 202.70481108584818 49.92778698285355 L 202.7051223676096 49.92885934280031 L 202.70541965307993 49.929907708399014 L 202.70570357040003 49.93093259702215 L 202.70597471962444 49.93193451621099 L 202.70623367396797 49.93291396376924 L 202.70648098099792 49.93387142786324 L 202.7067171637739 49.934807387127705 L 202.70694272193788 49.93572231077712 L 202.70715813275615 49.93661665872111 L 202.7073638521157 49.93749088168414 L 202.70756031547646 49.93834542132859 L 202.70774793878198 49.939180710380555 L 202.70792711932955 49.93999717275841 L 202.7080982366022 49.94079522370333 L 202.70826165306377 49.94157526991148 L 202.7084177149188 49.94233770966753 L 202.708566752839 49.94308293297948 L 202.70870908265726 49.943811321713696 L 202.70884500603105 49.94452324973096 L 202.70897481107636 49.945219083022465 L 202.7090987729735 49.94589917984561 L 202.7092171545459 49.94656389086015 L 202.70933020681335 49.947213559263275 L 202.70943816952035 49.94784852092471 L 202.7095412716414 49.94846910452057 L 202.70963973186318 49.94907563166689 L 202.70973375904583 49.949668417051555 L 202.70982355266324 49.95024776856576 L 202.70990930322392 49.95081398743372 L 202.7099911926731 49.951367368341465 L 202.71006939477672 49.951908199564 L 202.7101440754884 49.95243676309116 L 202.71021539329993 49.95295333475195 L 202.71028349957632 49.953458184337165 L 202.71034853887545 49.95395157572065 L 202.71041064925384 49.95443376697858 L 202.71046996255856 49.95490501050739 L 202.7105266047059 49.95536555313964 L 202.71058069594798 49.95581563625842 L 202.7106323511271 49.9562554959098 L 202.71068167991865 49.956685362913476 L 202.71072878706354 49.957105462971896 L 202.71077377258968 49.95751601677722 L 202.71081673202391 49.95791724011664 L 202.71085775659435 49.95830934397597 L 202.71089693342356 49.95869253464133 L 202.7109343457131 49.959067013798915 L 202.71097007291996 49.95943297863326 L 202.71100419092477 49.959790621923474 L 202.71103677219264 49.96014013213778 L 202.71106788592692 49.960481693526276 L 202.71109759821576 49.96081548621203 L 202.7111259721722 49.96114168628017 L 202.71115306806814 49.96146046586577 L 202.71117894346207 49.96177199323944 L 202.71120365332112 49.96207643289159 L 202.71122725013765 49.96237394561513 L 202.7112497840407 49.962664688586045 L 202.71127130290222 49.962948815442985 L 202.71129185243865 49.96322647636475 L 202.71131147630803 49.96349781814641 L 202.71133021620247 49.9637629842739 L 202.71134811193676 49.96402211499708 L 202.7113652015328 49.9642753474011 L 202.71138152130032 49.964522815476585 L 202.711397105914 49.96476465018819 L 202.71141198848687 49.9650009795416 L 202.71142620064091 49.9652319286495 L 202.71143977257395 49.96545761979573 L 202.71145273312385 49.96567817249834 L 202.71146510982973 49.96589370357128 L 202.71147692899038 49.96610432718467 L 202.71148821572027 49.96631015492389 L 202.71149899400268 49.96651129584737 L 202.71150928674075 49.966707856543024 L 202.71151911580603 49.96689994118381 L 202.71152850208506 49.96708765158155 L 202.71153746552355 49.967271087240135 L 202.71154602516893 49.96745034540717 L 202.71155419921064 49.967625521124745 L 202.71156200501886 49.96779670727895 L 202.7115694591814 49.96796399464833 L 202.71157657753886 49.96812747195142 L 202.7115833752184 49.96828722589305 L 202.71158986666572 49.96844334120965 L 202.7115960656759 49.96859590071378 L 202.7116019854226 49.96874498533731 L 202.7116076384861 49.96889067417405 L 202.71161303687995 49.96903304452107 L 202.71161819207666 49.96917217191941 L 202.7116231150318 49.96930813019361 L 202.71162781620762 49.969440991490586 L 202.71163230559492 49.96957082631761 L 202.71163659273455 49.96969770357924 L 202.71164068673758 49.96982169061371 L 202.7116445963046 49.969942853228275 L 202.71164832974435 49.97006125573398 L 202.7116518949912 49.97017696097947 L 202.71165529962212 49.970290030384064 L 202.7116585508728 49.970400523970255 L 202.71166165565296 49.97050850039531 L 202.71166462056104 49.970614016982154 L 202.71166745189822 49.97071712974977 L 202.71167015568184 49.970817893442614 L 202.7116727376582 49.9709163615596 L 202.7116752033147 49.971012586382415 L 202.71167755789156 49.971106619003024 L 202.71167980639288 49.97119850935073 L 202.71168195359743 49.971288306218554 L 202.71168400406864 49.97137605728909 L 202.71168596216435 49.97146180915965 L 202.71168783204612 49.97154560736689 L 202.71168961768802 49.97162749641103 L 202.7116913228851 49.971707519779244 L 202.7116929512614 49.97178571996878 L 202.71169450627775 49.97186213850941 L 202.71169599123908 49.97193681598549 L 202.7116974093014 49.97200979205732 L 202.71169876347852 49.97208110548223 L 202.71170005664854 49.97215079413513 L 202.71170129155985 49.972218895028504 L 202.71170247083708 49.97228544433213 L 202.71170359698658 49.9723504773921 L 202.71170467240177 49.9724140287496 L 202.71170569936828 49.97247613215933 L 202.7117066800688 49.972536820607274 L 202.7117076165876 49.97259612632817 L 202.71170851091514 49.97265408082271 L 202.71170936495216 49.972710714874125 L 202.7117101805138 49.972766058564645 L 202.7117109593334 49.972820141291265 L 202.71171170306621 49.97287299178154 L 202.71171241329296 49.97292463810865 L 202.71171309152314 49.97297510770639 L 202.71171373919816 49.973024427383706 L 202.71171435769466 49.97307262333891 L 202.71171494832709 49.97311972117356 L 202.71171551235076 49.97316574590607 L 202.71171605096447 49.97321072198497 L 202.7117165653129 49.97325467330185 L 202.7117170564893 49.97329762320419 L 202.71171752553758 49.97333959450748 L 202.7117179734546 49.973380609507615 L 202.7117184011924 49.97342068999248 L 202.71171880966003 49.973459857253744 L 202.71171919972565 49.973498132097944 L 202.7117195722183 49.97353553485772 L 202.71171992792966 49.973572085402424 L 202.71172026761573 49.973607803148866 L 202.7117205919985 49.97364270707146 L 202.71172090176742 49.973676815712395 L 202.7117211975808 49.973710147191355 L 202.71172148006738 49.97374271921535 L 202.71172174982757 49.97377454908792 L 202.7117220074347 49.97380565371839 L 202.71172225343628 49.973836049630876 L 202.71172248835515 49.97386575297304 L 202.7117227126906 49.97389477952464 L 202.71172292691944 49.97392314470599 L 202.71172313149697 49.973950863586 L 202.711723326858 49.973977950890344 L 202.71172351341772 49.97400442100914 L 202.7117236915727 49.974030288004684 L 202.71172386170153 49.974055565618926 L 202.71172402416585 49.97408026728067 L 202.7117241793109 49.974104406112815 L 202.71172432746644 49.97412799493924 L 202.7117244689474 49.97415104629167 L 202.71172460405444 49.97417357241628 L 202.7117247330747 49.974195585280285 L 202.71172485628242 49.97421709657823 L 202.71172497393945 49.974238117738196 L 202.7117250862959 49.9742586599279 L 202.7117251935905 49.97427873406056 L 202.71172529605136 49.974298350800865 L 202.7117253938962 49.97431752057042 L 202.71172548733296 49.97433625355339 L 202.7117255765603 49.974354559701965 L 202.71172566176782 49.97437244874155 L 202.7117257431366 49.9743899301759 L 202.7117258208396 49.974407013292335 L 202.711725895042 49.97442370716652 L 202.71172596590145 49.974440020667345 L 202.7117260335686 49.974455962461604 L 202.71172609818726 49.97447154101869 L 202.71172615989474 49.97448676461491 L 202.7117262188222 49.97450164133812 L 202.7117262750949 49.97451617909181 L 202.71172632883244 49.97453038559945 L 202.71172638014903 49.97454426840852 L 202.7117264291537 49.97455783489451 L 202.71172647595068 49.97457109226485 L 202.7117265206394 49.974584047562814 L 202.7117265633148 49.97459670767114 L 202.71172660406762 49.97460907931577 L 202.71172664298447 49.974621169069366 L 202.71172668014808 49.974632983354894 L 202.71172671563738 49.97464452844892 L 202.71172674952786 49.97465581048502 L 202.7117267818915 49.974666835456986 L 202.71172681279714 49.97467760922211 L 202.71172684231044 49.97468813750416 L 202.71172687049412 49.97469842589652 L 202.71172689740806 49.974708479865114 L 202.7117269231095 49.97471830475135 L 202.71172694765306 49.9747279057749 L 202.7117269710909 49.97473728803652 L 202.71172699347284 49.97474645652076 L 202.71172701484642 49.97475541609859 L 202.7117270352571 49.974764171529955 L 202.71172705474825 49.97477272746639 L 202.7117270733613 49.974781088453454 L 202.7117270911358 49.97478925893307 L 202.71172710810953 49.97479724324606 L 202.71172712431857 49.97480504563421 L 202.71172713979738 49.974812670242756 L 202.71172715457882 49.974820121122434 L 202.71172716869435 49.97482740223171 L 202.71172718217397 49.974834517438836 L 202.7117271950463 49.974841470523955 L 202.71172720733873 49.97484826518101 L 202.71172721907735 49.97485490501987 L 202.71172723028712 49.97486139356809" stroke-opacity="0.9" stroke-miterlimit="10" stroke-width="2"/></g><g><path fill="none" stroke="none"/><path fill="none" stroke="rgb(102,180,211)" paint-order="fill stroke markers" d=" M 756.0381818181818 50.02005235309065 L 756.0381813731317 50.02109956306256 L 756.0381809070852 50.02217119038596 L 756.0381804190527 50.023267804389775 L 756.0381799079959 50.02438998767781 L 756.0381793728292 50.025538336438075 L 756.0381788124151 50.02671346075971 L 756.0381782255624 50.02791598495702 L 756.0381776110238 50.02914654790115 L 756.0381769674931 50.03040580335957 L 756.038176293603 50.03169442034326 L 756.0381755879206 50.03301308346235 L 756.0381748489465 50.03436249328962 L 756.0381740751101 50.03574336673287 L 756.0381732647663 50.03715643741566 L 756.0381724161933 50.03860245606717 L 756.0381715275873 50.04008219092091 L 756.0381705970594 50.04159642812306 L 756.0381696226324 50.043145972149915 L 756.0381686022349 50.04473164623545 L 756.0381675336985 50.04635429280853 L 756.0381664147519 50.04801477394065 L 756.0381652430168 50.049713971803726 L 756.0381640160032 50.05145278913898 L 756.0381627311027 50.05323214973629 L 756.0381613855849 50.05505299892525 L 756.0381599765898 50.05691630407719 L 756.0381585011227 50.058823055119205 L 756.0381569560479 50.06077426506002 L 756.0381553380814 50.06277097052825 L 756.0381536437844 50.06481423232307 L 756.0381518695558 50.06690513597778 L 756.0381500116246 50.06904479233654 L 756.0381480660424 50.07123433814456 L 756.0381460286736 50.07347493665196 L 756.0381438951886 50.07576777823175 L 756.0381416610522 50.07811408101236 L 756.0381393215163 50.08051509152463 L 756.0381368716088 50.08297208536422 L 756.0381343061223 50.08548636786912 L 756.0381316196044 50.088059274813304 L 756.0381288063453 50.09069217311625 L 756.0381258603654 50.09338646156917 L 756.0381227754037 50.09614357157824 L 756.0381195449032 50.0989649679249 L 756.0381161619981 50.10185214954416 L 756.0381126194982 50.10480665032088 L 756.0381089098746 50.107830039904684 L 756.0381050252427 50.11092392454384 L 756.038100957346 50.11408994793865 L 756.0380966975393 50.11732979211462 L 756.0380922367685 50.120645178316096 L 756.0380875655527 50.12403786792069 L 756.0380826739639 50.127509663375065 L 756.0380775516054 50.131062409152435 L 756.0380721875905 50.13469799273247 L 756.0380665705185 50.13841834560412 L 756.0380606884509 50.142225444291654 L 756.038054528886 50.14612131140473 L 756.0380480787328 50.15010801671286 L 756.038041324282 50.15418767824514 L 756.0380342511774 50.15836246341527 L 756.0380268443868 50.162634590173184 L 756.0380190881673 50.16700632818319 L 756.0380109660342 50.171480000029845 L 756.038002460725 50.17605798245174 L 756.0379935541623 50.180742707604196 L 756.0379842274167 50.18553666435136 L 756.0379744606649 50.19044239958836 L 756.0379642331491 50.19546251959437 L 756.0379535231319 50.20059969141715 L 756.0379423078505 50.20585664428987 L 756.0379305634682 50.21123617108108 L 756.0379182650233 50.21674112977837 L 756.0379053863775 50.22237444500652 L 756.0378919001585 50.22813910958138 L 756.0378777777025 50.234038186099525 L 756.0378629889952 50.240074808565424 L 756.0378475026041 50.246252184056175 L 756.0378312856146 50.2525735944252 L 756.0378143035599 50.25904239804578 L 756.0377965203465 50.26566203159493 L 756.0377778981784 50.272436011879165 L 756.0377583974766 50.27936793770263 L 756.0377379767946 50.28646149177888 L 756.0377165927306 50.293720442687174 L 756.0376941998356 50.30114864687437 L 756.0376707505164 50.30875005070351 L 756.037646194934 50.31652869255018 L 756.0376204808989 50.32448870494767 L 756.037593553759 50.33263431678208 L 756.037565356284 50.340969855538845 L 756.0375358285436 50.34949974960139 L 756.0375049077805 50.35822853060333 L 756.0374725282765 50.36716083583576 L 756.0374386212129 50.37630141071028 L 756.0374031145245 50.385655111279846 L 756.0373659327468 50.39522690681801 L 756.0373269968542 50.40502188245841 L 756.0372862240936 50.415045241895854 L 756.0372435278078 50.42530231015027 L 756.0371988172517 50.43579853639497 L 756.0371519973982 50.44653949685102 L 756.0371029687382 50.457530897748995 L 756.0370516270679 50.468778578359576 L 756.0369978632668 50.48028851409501 L 756.0369415630679 50.49206681968272 L 756.036882606812 50.50411975241289 L 756.0368208691958 50.51645371546155 L 756.0367562190042 50.52907526129147 L 756.0366885188323 50.541991095131834 L 756.0366176247928 50.55520807853932 L 756.0365433862097 50.56873323304191 L 756.0364656452997 50.58257374386781 L 756.036384236835 50.59673696376095 L 756.0362989877941 50.61123041688563 L 756.0362097169916 50.62606180282191 L 756.0361162346958 50.641239000654195 L 756.0360183422235 50.656770073154945 L 756.0359158315185 50.67266327106577 L 756.0358084847094 50.688927037478464 L 756.035696073647 50.705570012317736 L 756.0355783594187 50.72260103692847 L 756.0354550918399 50.74002915876983 L 756.0353260089256 50.757863636218616 L 756.03519083633 50.77611394348423 L 756.0350492867644 50.794789775638435 L 756.0349010593886 50.81390105376187 L 756.0347458391691 50.83345793021036 L 756.0345832962108 50.85347079400404 L 756.0344130850561 50.87395027634156 L 756.0342348439495 50.894907256242675 L 756.0340481940702 50.91635286632231 L 756.0338527387268 50.93829849869866 L 756.033648062513 50.96075581103878 L 756.0334337304266 50.98373673274497 L 756.0332092869436 51.00725347128471 L 756.0329742550515 51.031318518668 L 756.0327281352342 51.055944658075134 L 756.0324704044115 51.08114497063866 L 756.032200514827 51.10693284238286 L 756.0319178928843 51.13332197132448 L 756.0316219379279 51.16032637473853 L 756.0313120209673 51.18796039659273 L 756.0309874833398 51.21623871515473 L 756.030647635311 51.24517635077595 L 756.0302917546088 51.27478867385611 L 756.0299190848898 51.30509141299254 L 756.0295288341305 51.33610066331889 L 756.0291201729456 51.36783289503691 L 756.0286922328246 51.40030496214655 L 756.0282441042875 51.43353411137818 L 756.027774834951 51.46753799133202 L 756.027283427506 51.50233466182951 L 756.0267688375975 51.53794260348121 L 756.0262299716068 51.574380727476296 L 756.0256656843261 51.61166838559902 L 756.0250747765273 51.64982538047681 L 756.0244559924122 51.68887197606551 L 756.0238080169454 51.72882890837741 L 756.0231294730603 51.76971739645717 L 756.0224189187328 51.811559153611455 L 756.0216748439186 51.85437639889818 L 756.020895667344 51.89819186888113 L 756.0200797331478 51.94302882965559 L 756.0192253073617 51.988911089152055 L 756.0183305742289 52.035863009723215 L 756.0173936323458 52.0839095210213 L 756.016412490622 52.133076133172096 L 756.0153850640526 52.183388950252265 L 756.0143091692875 52.23487468407694 L 756.0131825199952 52.28756066830408 L 756.0120027220057 52.341474872863444 L 756.0107672682255 52.39664591871653 L 756.0094735333123 52.45310309295547 L 756.0081187681003 52.51087636424822 L 756.0067000937597 52.56999639863747 L 756.0052144956853 52.630494575701505 L 756.0036588170922 52.69240300508457 L 756.0020297523139 52.755754543405175 L 756.0003238397818 52.82058281155031 L 755.998537454676 52.886922212364226 L 755.996666801228 52.95480794874024 L 755.9947079046616 53.024276042124285 L 755.9926566027548 53.09536335143909 L 755.990508537003 53.168107592438076 L 755.9882591433667 53.24254735749821 L 755.9859036425834 53.31872213586075 L 755.983437030023 53.39667233433025 L 755.9808540650654 53.476439298440255 L 755.9781492599789 53.55806533409691 L 755.9753168682734 53.641593729709115 L 755.9723508725057 53.72706877881623 L 755.9692449715126 53.81453580322318 L 755.9659925670405 53.904041176653465 L 755.9625867497474 53.995632348930684 L 755.9590202845455 54.08935787069893 L 755.9552855952537 54.1852674186934 L 755.9513747485299 54.28341182157152 L 755.9472794370454 54.38384308631615 L 755.9429909618684 54.4866144252218 L 755.9385002140211 54.591780283475 L 755.933797655166 54.69939636734054 L 755.9288732973863 54.809519672964626 L 755.923716682018 54.9222085158068 L 755.9183168574821 55.03752256071195 L 755.9126623560793 55.155522852634306 L 755.9067411696941 55.27627184802495 L 755.9005407243548 55.39983344689432 L 755.8940478536023 55.526273025562006 L 755.8872487706075 55.655657470104956 L 755.8801290389786 55.78805521051578 L 755.8726735421997 55.923536255583315 L 755.8648664516362 56.06217222850606 L 755.8566911930379 56.2040364032508 L 755.8481304114721 56.34920374166683 L 755.8391659346136 56.49775093136748 L 755.8297787343133 56.64975642438961 L 755.819948886367 56.805300476641435 L 755.8096555284003 56.96446518814952 L 755.7988768157804 57.12733454411449 L 755.7875898754673 57.293994456785356 L 755.7757707577025 57.464532808161636 L 755.7633943854426 57.6390394935317 L 755.7504345014253 57.81760646585593 L 755.7368636127665 58.00032778100194 L 755.7226529329641 58.18729964383857 L 755.7077723212034 58.378620455195374 L 755.6921902188209 58.5743908596919 L 755.6758735828131 58.77471379444208 L 755.6587878162433 58.979694538636096 L 755.6408966954069 59.18944076400254 L 755.6221622936074 59.4040625861513 L 755.6025449013869 59.62367261679702 L 755.582002943047 59.84838601686084 L 755.560492889293 60.07832055044713 L 755.5379691658226 60.313596639689365 L 755.5143840576759 60.55433742045852 L 755.4896876091494 60.80066879892354 L 755.4638275190792 61.05271950895292 L 755.4367490312776 61.31062117034273 L 755.4083948199061 61.57450834785419 L 755.3787048695542 61.844518611040684 L 755.3476163497899 62.12079259484136 L 755.3150634839258 62.40347406091425 L 755.2809774117483 62.692709959679206 L 755.2452860459359 62.98865049303552 L 755.207913921884 63.291449177716174 L 755.1687820406466 63.60126290923455 L 755.1278077046837 63.918252026375654 L 755.0849043461027 64.24258037617753 L 755.0399813470549 64.57441537934255 L 754.9929438519495 64.91392809601311 L 754.9436925711218 65.26129329183757 L 754.8921235755836 65.61668950424658 L 754.8381280824699 65.98029910885089 L 754.7815922307765 66.35230838586392 L 754.7223968469723 66.73290758644248 L 754.6604172000519 67.12229099883027 L 754.5955227455753 67.52065701417669 L 754.5275768582302 67.92820819189407 L 754.4564365524312 68.34515132440208 L 754.3819521904549 68.77169750109744 L 754.303967177588 69.2080621713709 L 754.2223176437558 69.65446520647984 L 754.1368321110696 70.11113096006872 L 754.0473311467233 70.57828832711158 L 753.9536270006436 71.05617080103363 L 753.8555232272786 71.54501652874862 L 753.7528142909044 72.04506836332803 L 753.6452851537875 72.5565739139953 L 753.5327108465444 73.07978559311528 L 753.4148560200096 73.61496065982254 L 753.2914744779052 74.1623612599061 L 753.1623086895971 74.72225446153746 L 753.0270892821903 75.29491228640003 L 752.8855345112186 75.88061173574329 L 752.7373497091523 76.4796348108508 L 752.5822267109436 77.0922685273735 L 752.4198432558147 77.71880492294062 L 752.2498623644784 78.35954105741735 L 752.0719316909799 79.01477900513461 L 751.8856828483347 79.684825838368 L 751.6907307071368 80.36999360129275 L 751.4866726663092 81.07059927358821 L 751.2730878951702 81.78696472280839 L 751.0495365459971 82.51941664457539 L 750.8155589362752 83.26828648958897 L 750.5706746998366 84.03391037637874 L 750.3143819061142 84.81662898865423 L 750.0461561467619 85.6167874560345 L 749.7654495889216 86.43473521685908 L 749.4716899944642 87.27082586170087 L 749.1642797045723 88.12541695611321 L 748.8425945890967 88.99886984105359 L 748.5059829601821 89.89154940933048 L 748.153764449738 90.80382385631884 L 747.7852288504203 91.73606440308691 L 747.3996349198953 92.68864498996723 L 746.9962091482778 93.66194193849088 L 746.5741444887632 94.65633357948713 L 746.1325990516409 95.67219984502779 L 745.6706947620322 96.7099218217692 L 745.187515981903 97.76988126311522 L 744.682108097108 98.85246005748957 L 744.1534760704747 99.9580396498693 L 743.6005829621907 101.08700041359089 L 743.0223484190694 102.23972096929748 L 742.4176471345847 103.41657744775179 L 741.7853072819382 104.617942693094 L 741.1241089228156 105.84418540297821 L 740.432782394927 107.09566920187743 L 739.7100066819103 108.37275164370374 L 738.9544077696928 109.67578313975304 L 738.1645569939866 111.00510580784959 L 737.33896938421 112.36105223843953 L 736.4761020098002 113.74394417326516 L 735.5743523356215 115.15409109214681 L 734.6320565939576 116.59178870330652 L 733.6474881814283 118.05731733259461 L 732.6188560900924 119.55094020692437 L 731.5443033829806 121.07290162719198 L 730.4219057253516 122.62342502595573 L 729.249669984097 124.20271090517986 L 728.0255329089068 125.81093464941549 L 726.7473599100911 127.44824420990386 L 725.4129439492833 129.1147576552455 L 724.0200045606797 130.81056058449417 L 722.5661870219548 132.53570339881156 L 721.0490616955483 134.29019842816354 L 719.4661235626515 136.074016909963 L 717.8147919738996 137.88708581707112 L 716.0924106425203 139.72928453317297 L 714.2962479074731 141.6004413742477 L 712.4234972959308 143.50032995567256 L 710.4712784163025 145.4286654054427 L 708.436638214835 147.38510042506084 L 706.316552630676 149.3692212008709 L 704.1079286860744 151.38054316997912 L 701.8076070501406 153.41850664644014 L 699.4123651162428 155.48247231509436 L 696.9189206346492 157.57171660232933 L 694.3239359434062 159.68542693511938 L 691.624022841619 161.8226969019711 L 688.8157481502407 163.98252133188123 L 685.8956400061159 166.16379131009717 L 682.8601949353199 168.36528915235786 L 679.70588575172 170.5856833623902 L 676.4291703261006 172.82352360072662 L 673.0265012700659 175.07723569639572 L 669.4943365771987 177.34511673669638 L 665.829151261532 179.6253302740858 L 662.0274500302038 181.915901693161 L 658.0857810231392 184.21471378476906 L 654.0007506476655 186.51950257839803 L 649.7690395300225 188.82785348813843 L 645.38741959873 191.13719783160815 L 640.8527723066445 193.44480978523958 L 636.1621079891897 195.74780384316958 L 631.3125863457016 198.04313285056418 L 626.301538018961 200.32758668547083 L 621.1264872348663 202.59779166611875 L 615.785175449764 204.8502107628767 L 610.275585937258 207.0811446957222 L 604.5959692294252 209.28673399894885 L 598.7448693093197 211.46296213482634 L 592.7211504326077 213.60565973689506 L 586.5240244362752 215.71051006140868 L 580.1530783717798 217.77305572200484 L 573.6083022790345 219.7887067778729 L 566.8901168964607 221.7527502393837 L 559.9994010813903 223.66036104727473 L 552.937518694656 225.50661457194312 L 545.7063446837291 227.28650066816198 L 538.3082900806423 228.99493930755665 L 530.7463256146852 230.62679779647735 L 523.0240036259398 232.17690957051337 L 515.1454779546634 233.640094538906 L 507.115521473836 235.0111809326458 L 498.93954092836 236.2850285892688 L 490.6235887449402 237.4565535855043 L 482.17437148200077 238.5207541062523 L 473.5992545995231 239.47273741518393 L 464.9062632447392 240.30774776894 L 456.1040787714139 241.02119509382726 L 447.2020307381524 241.60868422153823 L 438.21008416479475 242.06604445918973 L 429.13882186539706 242.3893592493738 L 419.99942172132467 242.57499565842758 L 410.80362880820974 242.6196334162303 L 401.5637223454298 242.5202932189862 L 392.29247749567753 242.2743639980853 L 383.0031221043337 241.87962885362145 L 373.709288532762 241.33428935081764 L 364.4249608053334 240.63698788171374 L 355.1644173558017 239.78682780317266 L 345.94216972342974 238.78339107564088 L 336.7728976117926 237.62675314513714 L 327.671380782231 236.317494833507 L 318.65242830831323 234.85671102885516 L 309.73080576624625 233.2460159989235 L 300.92116097791734 231.4875451845914 L 292.23794895720476 229.5839533681383 L 283.6953567356236 227.53840915084282 L 275.3072287595903 225.35458571624338 L 267.08699355823137 223.03664789827425 L 259.047592377421 220.58923561679208 L 251.20141046260795 218.017443785986 L 243.56021165010537 215.3267988430969 L 236.13507689423187 212.52323208505547 L 228.9363473165211 209.61305003840852 L 221.9735723138569 206.6029021226372 L 215.2554632056752 203.49974589811958 L 208.78985283726965 200.3108102170857 L 202.58366148779587 197.0435566185619 L 196.64286935893776 193.7056393261971 L 190.97249584455392 190.30486422080048 L 185.57658570417874 186.8491471672625 L 180.45820218521732 183.34647207826845 L 175.6194270612347 179.80484909487598 L 171.06136747804584 176.23227325677493 L 166.784169426446 172.6366840230816 L 162.78703759138938 169.02592598812308 L 159.06826126315212 165.40771111619824 L 155.62524593731123 161.78958279514808 L 152.45455017795283 158.17888198118385 L 149.55192727296352 154.58271567729363 L 146.91237117204054 151.00792795518362 L 144.53016616749687 147.46107369665023 L 142.39893975525996 143.94839519506397 L 140.51171809873264 140.47580172182688 L 138.86098351135766 137.04885212678118 L 137.43873337462512 133.6727405061231 L 136.23653991659276 130.3522849369178 L 135.24561029134054 127.09191924428532 L 134.45684642165884 123.8956877361677 L 133.86090409505863 120.76724281167651 L 133.44825083623374 117.70984532269176 L 133.20922211665112 114.72636754491435 L 133.1340755032151 111.81929859417653 L 133.21304239213265 108.99075210664591 L 133.43637702037046 106.24247598770441 L 133.7944024946171 103.57586402376927 L 134.27755362565256 100.99196914411789 L 134.87641640370202 98.49151811578793 L 135.5817639970174 96.07492745370453 L 136.3845892009176 93.74232033014826 L 137.27613330726626 91.493544272289 L 138.24791140436204 89.32818944351229 L 139.29173415406018 87.24560731336342 L 140.39972612630848 85.24492953183415 L 141.56434080093067 83.32508683609626 L 142.77837237228246 81.48482783133966 L 144.0349645142755 79.72273750178354 L 145.32761628122427 78.03725532290744 L 146.65018533410557 76.42669286120923 L 147.9968886922752 74.88925076308351 L 149.36230121765686 73.42303504949328 L 150.74135204214633 72.02607264777043 L 152.129319149733 70.6963261059536 L 153.52182232292532 69.43170744840148 L 154.9148146587933 68.23009114389478 L 156.30457285362422 67.08932616896024 L 157.6876864471488 66.007247159663 L 159.06104620784168 64.98168465457155 L 160.42183183023508 64.01047443999246 L 161.76749910378118 63.09146601590365 L 163.09576670082853 62.222530207304175 L 164.4046027189657 61.40156595098776 L 165.6922111005528 60.6265062920792 L 166.95701803989243 59.89532362811042 L 168.19765847634415 59.20603424101995 L 169.4129627599042 58.556702159305104 L 170.60194356445643 57.94544239371447 L 171.76378311315128 57.370423590413395 L 172.8978207702446 56.82987014555812 L 174.00354104428524 56.322063824749705 L 175.08056203880096 55.84534492997321 L 176.12862437862162 55.398113055425085 L 177.14758063269215 54.97882747215732 L 178.13738524766183 54.58600717976964 L 179.09808500066865 54.2182306615197 L 180.0298099745471 53.87413537723424 L 180.9327650541392 53.55241702633907 L 181.80722193844773 53.25182861121348 L 182.6535116599985 52.97117932894923 L 183.47201759993337 52.709333317481736 L 184.26316898499496 52.46520827998302 L 185.0274348506466 52.237774009382065 L 185.76531845305436 52.026050832923715 L 186.47735211149978 51.82910799480169 L 187.16409246195784 51.6460619931168 L 187.82611610201968 51.47607488572251 L 188.46401560703714 51.31835257792994 L 189.07839589727627 51.17214310355834 L 189.66987093596362 51.03673490943302 L 190.23906073836287 50.911455152151035 L 190.78658867240344 50.79566801475363 L 191.3130790318769 50.688773049861084 L 191.819154863798 50.590203554835966 L 192.30543603217666 50.499424983641205 L 192.77253750115074 50.415933399246086 L 193.2210678211695 50.3392539696996 L 193.6516278026842 50.26893951033429 L 194.0648093625827 50.2045690739771 L 194.46119452939007 50.145746590524055 L 194.84135459404018 50.092099556776276 L 195.20584939379523 50.04327777703176 L 195.55522671764814 49.998952154576784 L 195.89002182227867 49.958813533915105 L 196.21075704834925 49.92257159331254 L 196.51794152761292 49.889953787011166 L 196.81207097196375 49.860704336278616 L 197.0936275361901 49.834583268301856 L 197.36307974678755 49.81136550180449 L 197.62088248975436 49.79083997816292 L 197.86747705082715 49.77280883671327 L 198.10329120211736 49.75708663287776 L 198.3287393295812 49.743499597691425 L 198.54422259619815 49.73188493727835 L 198.75012913614648 49.722090170804904 L 198.9468342756493 49.713972505428956 L 199.13470077652406 49.70739824676184 L 199.3140790988018 49.70224224336698 L 199.48530767909287 49.698387363830705 L 199.64871322166277 49.69572400495892 L 199.8046109994511 49.694149629673234 L 199.95330516251238 49.69356833320538 L 200.09508905158992 49.69389043621484 L 200.23024551474867 49.69503210348225 L 200.3590472251916 49.696914986861884 L 200.4817569985733 49.69946589120565 L 200.5986281082976 49.702616462002624 L 200.70990459745212 49.70630289351024 L 200.81582158618633 49.71046565618403 L 200.91660557348686 49.71504924224618 L 201.01247473244158 49.72000192826596 L 201.1036391982163 49.72527555365758 L 201.19030134809222 49.73082531403665 L 201.27265607303156 49.73660956840976 L 201.35089104035194 49.7425896592091 L 201.42518694719755 49.74872974421959 L 201.4957177645969 49.754996639486336 L 201.56265097199363 49.761359672327586 L 201.6261477822264 49.767790543622 L 201.686363357019 49.774263198579604 L 201.74344701311836 49.780753705251556 L 201.79754241929052 49.78724014007807 L 201.84878778444684 49.79370247982121 L 201.89731603722998 49.80012249927631 L 201.94325499743726 49.806483674204685 L 201.98672753969984 49.81277108897797 L 202.0278517498675 49.81897134847381 L 202.06674107457388 49.82507249381092 L 202.10350446447256 49.83106392155787 L 202.13824651164165 49.836936306097556 L 202.17106758165548 49.84268152487272 L 202.20206394081478 49.84829258628068 L 202.23132787901196 49.85376356002547 L 202.25894782868946 49.859089509772474 L 202.2850084803223 49.86426642798452 L 202.3095908948269 49.8692911728499 L 202.33277261326398 49.87416140723846 L 202.35462776416608 49.87887553964703 L 202.37522716878263 49.88343266711411 L 202.394638444494 49.88783252010043 L 202.41292610660682 49.89207540934484 L 202.43015166870245 49.89616217471365 L 202.4463737416717 49.900094136068276 L 202.4616481315321 49.903873046178575 L 202.4760279360897 49.90750104571026 L 202.4895636404755 49.910980620312245 L 202.50230321155718 49.91431455982655 L 202.51429219120396 49.91750591963719 L 202.52557378835775 49.920557984167885 L 202.5361889698485 49.92347423253048 L 202.54617654987607 49.92625830631695 L 202.55557327807017 49.92891397951942 L 202.56441392603318 49.93144513055299 L 202.57273137226574 49.93385571634707 L 202.5805566853745 49.93614974846281 L 202.58791920546162 49.938331271185234 L 202.59484662360066 49.94040434153132 L 202.60136505930745 49.94237301110908 L 202.6074991359236 49.94424130975574 L 202.61327205383688 49.946013230878634 L 202.61870566147437 49.94769271841807 L 202.62382052401287 49.94928365534864 L 202.6286359897631 49.950789853632074 L 202.63317025419448 49.95221504553467 L 202.63744042157867 49.95356287622033 L 202.6414625642411 49.95483689753161 L 202.64525177941914 49.95604056287118 L 202.6488222437372 49.95717722309806 L 202.652187265317 49.9582501233545 L 202.65535933355056 49.959262400742915 L 202.65835016657144 49.960217082773994 L 202.66117075646687 49.96111708651114 L 202.66383141227968 49.96196521833991 L 202.66634180085464 49.96276417429431 L 202.66871098558872 49.963516540876356 L 202.67094746314808 49.96422479630877 L 202.6730591982192 49.96489131216475 L 202.67505365636245 49.96551835532284 L 202.67693783503975 49.966108090198844 L 202.6787182928882 49.9666625812103 L 202.6804011773128 49.96718379543307 L 202.68199225047172 49.96767360541301 L 202.68349691372634 49.96813379209897 L 202.68492023062916 49.96856604786714 L 202.6862669485202 49.968971979609506 L 202.6875415188019 49.96935311186155 L 202.6887481159612 49.969710889948516 L 202.68989065540444 49.97004668313062 L 202.69097281017048 49.97036178773061 L 202.69199802658375 49.97065743022955 L 202.69296953890748 49.97093477031794 L 202.69389038305502 49.97119490389167 L 202.69476340941407 49.9714388659842 L 202.6955912948376 49.971667633626964 L 202.69637655385117 49.9718821286323 L 202.69712154912503 49.97208322029408 L 202.6978285012572 49.972271728002 L 202.69849949790978 49.97244842376742 L 202.69913650234096 49.97261403465805 L 202.69974136137017 49.97276924514114 L 202.7003158128142 49.9729146993343 L 202.70086149242812 49.97305100316436 L 202.70137994038362 49.97317872643475 L 202.70187260731603 49.97329840480262 L 202.7023408599677 49.973410541667135 L 202.70278598645584 49.97351560997092 L 202.70320920118908 49.97361405391615 L 202.7036116494574 49.9737062905983 L 202.7039944117169 49.97379271155933 L 202.70435850759057 49.97387368426314 L 202.70470489960405 49.973949553495885 L 202.70503449667495 49.974020642693915 L 202.70534815737233 49.97408725520191 L 202.70564669296195 49.97414967546399 L 202.7059308702525 49.974208170151 L 202.70620141425582 49.974262989225934 L 202.70645901067442 49.974314366950836 L 202.70670430822793 49.974362522837595 L 202.70693792082952 49.974407662545275 L 202.70716042962238 49.97444997872651 L 202.70737238488655 49.97448965182545 L 202.7075743078239 49.97452685082979 L 202.70776669223048 49.9745617339789 L 202.70795000606344 49.97459444943067 L 202.70812469290973 49.97462513588897 L 202.7082911733634 49.974653923193955 L 202.70844984631728 49.97468093287719 L 202.70860109017548 49.97470627868327 L 202.70874526399112 49.97473006706042 L 202.708882708535 49.97475239762079 L 202.7090137472995 49.97477336357329 L 202.70913868744213 49.974793052129485 L 202.70925782067226 49.974811544884915 L 202.7093714240856 49.974828918176684 L 202.70947976094888 49.974845243419026 L 202.70958308143875 49.974860587417936 L 202.70968162333733 49.974875012666274 L 202.70977561268754 49.97488857762039 L 202.70986526441044 49.97490133695939 L 202.7099507828873 49.97491334182811 L 202.7100323625086 49.97492464006464 L 202.71011018819166 49.97493527641382 L 202.7101844358694 49.97494529272663 L 202.71025527295163 49.97495472814754 L 202.71032285876072 49.97496361928938 L 202.71038734494311 49.974972000397514 L 202.71044887585836 49.97497990350308 L 202.71050758894677 49.97498735856681 L 202.71056361507715 49.974994393613315 L 202.71061707887569 49.975001034856916 L 202.71066809903732 49.97500730681938 L 202.71071678862035 49.97501323243989 L 202.71076325532528 49.97501883317807 L 202.71080760175923 49.975024129110324 L 202.71084992568623 49.97502913901994 L 202.71089032026433 49.97503388048122 L 202.71092887427065 49.97503836993843 L 202.71096567231456 49.97504262277931 L 202.7110007950399 49.97504665340398 L 202.7110343193168 49.975050475289294 L 202.71106631842392 49.97505410104915 L 202.711096862221 49.97505754249062 L 202.7111260173132 49.97506081066652 L 202.7111538472066 49.975063915924665 L 202.7111804124563 49.975066867953785 L 202.71120577080697 49.975069675826376 L 202.71122997732638 49.97507234803885 L 202.71125308453233 49.975074892549145 L 202.7112751425133 49.975077316811564 L 202.7112961990431 49.97507962780966 L 202.71131629968994 49.97508183208669 L 202.7113354879203 49.97508393577439 L 202.7113538051974 49.97508594461942 L 202.71137129107518 49.97508786400854 L 202.7113879832876 49.97508969899175 L 202.71140391783362 49.97509145430416 L 202.71141912905816 49.97509313438621 L 202.71143364972906 49.97509474340285 L 202.71144751111044 49.97509628526106 L 202.71146074303252 49.97509776362662 L 202.71147337395814 49.97509918193944 L 202.71148543104601 49.97510054342814 L 202.71149694021125 49.97510185112341 L 202.7115079261826 49.97510310787084 L 202.7115184125574 49.975104316342396 L 202.71152842185373 49.97510547904773 L 202.7115379755601 49.97510659834424 L 202.71154709418295 49.975107676446754 L 202.71155579729182 49.97510871543648 L 202.71156410356247 49.97510971726928 L 202.71157203081793 49.97511068378367 L 202.71157959606776 49.97511161670795 L 202.7115868155454 49.9751125176671 L 202.7115937047438 49.97511338818907 L 202.71160027844954 49.97511422971087 L 202.71160655077517 49.97511504358394 L 202.7116125351903 49.975115831079506 L 202.7116182445511 49.97511659339327 L 202.71162369112847 49.9751173316501 L 202.71162888663508 49.97511804690819 L 202.71163384225113 49.97511874016294 L 202.71163856864874 49.97511941235089 L 202.71164307601552 49.97512006435292 L 202.71164737407696 49.97512069699769 L 202.71165147211784 49.97512131106467 L 202.71165537900268 49.975121907286876 L 202.71165910319516 49.97512248635368 L 202.711662652777 49.975123048913304 L 202.71166603546553 49.975123595575155 L 202.711669258631 49.97512412691208 L 202.7116723293126 49.97512464346249 L 202.71167525423428 49.97512514573231 L 202.7116780398194 49.97512563419687 L 202.71168069220502 49.975126109302806 L 202.7116832172556 49.97512657146959 L 202.71168562057574 49.975127021091225 L 202.71168790752267 49.9751274585378 L 202.71169008321814 49.975127884156905 L 202.7116921525596 49.97512829827511 L 202.71169412023102 49.97512870119925 L 202.71169599071314 49.97512909321776 L 202.71169776829322 49.97512947460194 L 202.7116994570745 49.975129845607114 L 202.7117010609849 49.97513020647378 L 202.71170258378555 49.97513055742883 L 202.71170402907885 49.97513089868647 L 202.711705400316 49.97513123044945 L 202.71170670080429 49.975131552909914 L 202.71170793371394 49.975131866250535 L 202.7117091020846 49.97513217064528 L 202.71171020883145 49.97513246626045 L 202.711711256751 49.97513275325548 L 202.7117122485265 49.97513303178388 L 202.7117131867333 49.97513330199385 L 202.7117140738434 49.97513356402919 L 202.71171491223024 49.975133818029946 L 202.71171570417278 49.97513406413319 L 202.71171645185967 49.975134302473435 L 202.711717157393 49.97513453318348 L 202.71171782279166 49.97513475639474 L 202.71171844999478 49.975134972237896 L 202.7117190408648 49.97513518084324 L 202.71171959719032 49.97513538234111 L 202.7117201206888 49.97513557686224 L 202.71172061300908 49.97513576453804 L 202.7117210757338 49.97513594550085 L 202.71172151038166 49.975136119884155 L 202.71172191840944 49.97513628782275 L 202.71172230121402 49.97513644945272 L 202.7117226601343 49.97513660491171 L 202.71172299645295 49.97513675433876 L 202.71172331139817 49.975136897874336 L 202.71172360614526 49.97513703566034 L 202.7117238818183 49.975137167839904 L 202.7117241394916 49.97513729455733 L 202.71172438019116 49.975137415957875 L 202.71172460489626 49.97513753218766 L 202.71172481454073 49.97513764339337 L 202.7117250100144 49.975137749722165 L 202.71172519216447 49.97513785132122 L 202.7117253617969 49.97513794833776 L 202.7117255196777 49.97513804091858 L 202.71172566653425 49.97513812920991 L 202.71172580305668 49.975138213357155 L 202.7117259298991 49.975138293504585 L 202.711726047681 49.975138369795104 L 202.7117261569884 49.97513844237008 L 202.71172625837525 49.97513851136901 L 202.71172635236465 49.975138576929396 L 202.71172643945008 49.97513863918641 L 202.71172652009662 49.97513869827284 L 202.71172659474226 49.97513875431886 L 202.71172666379903 49.97513880745183 L 202.7117267276541 49.975138857796196 L 202.71172678667114 49.97513890547336 L 202.71172684119122 49.97513895060155 L 202.7117268915341 49.97513899329573 L 202.71172693799923 49.97513903366752 L 202.71172698086676 49.97513907182517 L 202.71172702039857 49.975139107873446 L 202.71172705683935 49.9751391419137 L 202.7117270904174 49.97513917404373 L 202.71172712134572 49.9751392043579 L 202.71172714982268 49.97513923294704 L 202.71172717603304 49.97513925989858 L 202.71172720014872 49.97513928529648 L 202.71172722232953 49.97513930922133 L 202.71172724272398 49.97513933175037 L 202.71172726146995 49.97513935295757 L 202.7117272786953 49.9751393729137 L 202.71172729451868 49.97513939168644 L 202.71172730905 49.9751394093403 L 202.71172732239103 49.97513942593693 L 202.71172733463595 49.975139441534964 L 202.7117273458719 49.975139456190334 L 202.71172735617944 49.97513946995625 L 202.711727365633 49.97513948288318 L 202.71172737430132 49.97513949501922 L 202.7117273822478 49.97513950640993 L 202.711727389531 49.97513951709854 L 202.7117273962049 49.97513952712603 L 202.71172740231927 49.97513953653123 L 202.71172740791988 49.975139545350885 L 202.71172741304898 49.97513955361978 L 202.71172741774544 49.97513956137078 L 202.71172742204502 49.97513956863497 L 202.7117274259806 49.97513957544169 L 202.7117274295824 49.97513958181861 L 202.71172743287826 49.97513958779194 L 202.71172743589372 49.975139593386274 L 202.71172743865228 49.97513959862488 L 202.7117274411754 49.97513960352961 L 202.711727443483 49.97513960812117 L 202.7117274455931 49.97513961241893 L 202.7117274475225 49.97513961644114 L 202.71172744928637 49.975139620205056 L 202.7117274508988 49.97513962372682 L 202.7117274523726 49.975139627021605 L 202.71172745371956 49.97513963010374 L 202.7117274549505 49.97513963298661 L 202.71172745607532 49.975139635682865 L 202.71172745710302 49.9751396382043 L 202.71172745804196 49.97513964056208 L 202.71172745889973 49.97513964276658 L 202.71172745968326 49.975139644827635 L 202.71172746039895 49.9751396467544 L 202.7117274610526 49.97513964855548 L 202.7117274616496 49.97513965023896 L 202.71172746219474 49.97513965181241 L 202.71172746269255 49.975139653282895 L 202.71172746314713 49.97513965465711 L 202.71172746356217 49.975139655941234 L 202.7117274639411 49.97513965714111 L 202.71172746428704 49.97513965826221 L 202.71172746460286 49.97513965930966 L 202.71172746489117 49.97513966028822 L 202.71172746515433 49.97513966120238 L 202.71172746539455 49.975139662056364 L 202.7117274656138 49.975139662854076 L 202.7117274658139 49.97513966359918 L 202.71172746599655 49.97513966429514 L 202.71172746616324 49.97513966494515 L 202.71172746631535 49.97513966555226 L 202.7117274664542 49.97513966611922 L 202.71172746658087 49.975139666648715 L 202.71172746669646 49.975139667143196 L 202.71172746680196 49.975139667604935 L 202.7117274668982 49.97513966803612 L 202.71172746698602 49.97513966843877 L 202.71172746706617 49.975139668814705 L 202.71172746713927 49.97513966916574 L 202.71172746720598 49.9751396694935 L 202.71172746726685 49.975139669799546 L 202.71172746732236 49.97513967008527 L 202.71172746737304 49.97513967035201 L 202.71172746741925 49.97513967060107 L 202.7117274674614 49.975139670833585 L 202.71172746749988 49.97513967105064 L 202.71172746753496 49.97513967125329 L 202.71172746756696 49.97513967144246 L 202.71172746759618 49.975139671619075 L 202.7117274676228 49.97513967178392 L 202.7117274676471 49.975139671937825 L 202.71172746766925 49.97513967208147 L 202.71172746768949 49.97513967221559 L 202.71172746770793 49.97513967234076 L 202.71172746772476 49.9751396724576 L 202.71172746774008 49.975139672566684 L 202.7117274677541 49.97513967266849 L 202.71172746776685 49.975139672763504 L 202.7117274677785 49.97513967285221 L 202.7117274677891 49.975139672935 L 202.7117274677988 49.97513967301228 L 202.71172746780763 49.97513967308441 L 202.71172746781568 49.975139673151745 L 202.71172746782304 49.97513967321456 L 202.71172746782975 49.97513967327322 L 202.71172746783586 49.97513967332796 L 202.71172746784143 49.97513967337903 L 202.71172746784652 49.975139673426725 L 202.71172746785115 49.97513967347123 L 202.71172746785538 49.97513967351276 L 202.71172746785925 49.975139673551524 L 202.71172746786277 49.975139673587705 L 202.71172746786598 49.97513967362147 L 202.7117274678689 49.97513967365299 L 202.71172746787158 49.975139673682406 L 202.711727467874 49.97513967370986 L 202.71172746787624 49.97513967373547 L 202.71172746787826 49.9751396737594 L 202.7117274678801 49.97513967378171 L 202.7117274678818 49.975139673802545 L 202.71172746788332 49.97513967382196 L 202.7117274678847 49.97513967384012 L 202.711727467886 49.97513967385703 L 202.71172746788716 49.97513967387283 L 202.71172746788824 49.97513967388758 L 202.7117274678892 49.97513967390134 L 202.71172746789009 49.975139673914185 L 202.71172746789088 49.97513967392615 L 202.71172746789162 49.97513967393735 L 202.7117274678923 49.97513967394778 L 202.7117274678929 49.97513967395753 L 202.71172746789347 49.97513967396662 L 202.71172746789398 49.97513967397509 L 202.71172746789443 49.97513967398302 L 202.71172746789486 49.97513967399041 L 202.71172746789523 49.97513967399729 L 202.7117274678956 49.97513967400374 L 202.7117274678959 49.97513967400974 L 202.7117274678962 49.97513967401534 L 202.71172746789648 49.97513967402057 L 202.7117274678967 49.975139674025456 L 202.71172746789694 49.975139674030004 L 202.71172746789713 49.97513967403427 L 202.71172746789733 49.97513967403822 L 202.7117274678975 49.97513967404191 L 202.71172746789765 49.97513967404538 L 202.7117274678978 49.97513967404859 L 202.71172746789793 49.975139674051604 L 202.71172746789804 49.97513967405442 L 202.71172746789813 49.97513967405703 L 202.71172746789824 49.97513967405948 L 202.71172746789833 49.97513967406175 L 202.7117274678984 49.97513967406388 L 202.71172746789847 49.97513967406587 L 202.71172746789856 49.97513967406775 L 202.7117274678986 49.97513967406945 L 202.71172746789867 49.97513967407107 L 202.71172746789873 49.97513967407258 L 202.71172746789875 49.975139674074 L 202.7117274678988 49.97513967407531 L 202.71172746789884 49.97513967407653 L 202.71172746789887 49.97513967407767 L 202.7117274678989 49.97513967407875 L 202.71172746789892 49.97513967407974 L 202.71172746789895 49.97513967408065 L 202.71172746789898 49.97513967408153 L 202.711727467899 49.97513967408233 L 202.71172746789904 49.975139674083096 L 202.71172746789904 49.975139674083806 L 202.71172746789907 49.97513967408446 L 202.71172746789907 49.97513967408506 L 202.7117274678991 49.97513967408565 L 202.7117274678991 49.975139674086165 L 202.71172746789912 49.97513967408668 L 202.71172746789912 49.97513967408713 L 202.71172746789912 49.975139674087586 L 202.71172746789915 49.975139674087984 L 202.71172746789915 49.975139674088354 L 202.71172746789915 49.97513967408872 L 202.71172746789918 49.975139674089036 L 202.71172746789918 49.97513967408935 L 202.71172746789918 49.97513967408963 L 202.71172746789918 49.97513967408989 L 202.71172746789918 49.975139674090144 L 202.71172746789918 49.97513967409037 L 202.7117274678992 49.9751396740906 L 202.7117274678992 49.9751396740908 L 202.7117274678992 49.975139674091 L 202.7117274678992 49.97513967409117 L 202.7117274678992 49.97513967409134 L 202.7117274678992 49.97513967409148 L 202.7117274678992 49.97513967409162 L 202.7117274678992 49.975139674091764 L 202.7117274678992 49.975139674091906 L 202.7117274678992 49.97513967409202 L 202.7117274678992 49.975139674092105 L 202.7117274678992 49.97513967409222 L 202.71172746789924 49.975139674092304 L 202.71172746789924 49.97513967409242 L 202.71172746789924 49.975139674092475 L 202.71172746789924 49.97513967409256 L 202.71172746789924 49.975139674092645" stroke-opacity="0.9" stroke-miterlimit="10" stroke-width="2" stroke-dasharray="6"/></g></g><g><g/><g><path fill="#ffffff" stroke="#e5e5e5" paint-order="fill stroke markers" d=" M 52.84 182.64 L 141.84 182.64 L 141.84 245.64 L 52.84 245.64 L 52.84 182.64 Z" fill-opacity="0.8" stroke-miterlimit="10" stroke-opacity="0.5"/><text fill="#444444" stroke="none" font-family="helvetica" font-size="10pt" font-style="normal" font-weight="normal" text-decoration="normal" x="87.84" y="202.64" text-anchor="start" dominant-baseline="central">Model</text><g><path fill="none" stroke="rgb(225,109,0)" paint-order="fill stroke markers" d=" M 62.84 202.64 L 82.84 202.64" stroke-opacity="0.9" stroke-miterlimit="10" stroke-width="2"/></g><text fill="#444444" stroke="none" font-family="helvetica" font-size="10pt" font-style="normal" font-weight="normal" text-decoration="normal" x="87.84" y="225.64" text-anchor="start" dominant-baseline="central">Original</text><g><path fill="none" stroke="rgb(102,180,211)" paint-order="fill stroke markers" d=" M 62.84 225.64 L 82.84 225.64" stroke-opacity="0.9" stroke-miterlimit="10" stroke-width="2" stroke-dasharray="6"/></g></g></g><g><g><path fill="none" stroke="#CAC6B6" paint-order="fill stroke markers" d=" M 43 256 L 790 256" stroke-miterlimit="10"/><path fill="none" stroke="#CAC6B6" paint-order="fill stroke markers" d=" M 92 262 L 92 256" stroke-miterlimit="10"/><path fill="none" stroke="#CAC6B6" paint-order="fill stroke markers" d=" M 203 262 L 203 256" stroke-miterlimit="10"/><path fill="none" stroke="#CAC6B6" paint-order="fill stroke markers" d=" M 313 262 L 313 256" stroke-miterlimit="10"/><path fill="none" stroke="#CAC6B6" paint-order="fill stroke markers" d=" M 424 262 L 424 256" stroke-miterlimit="10"/><path fill="none" stroke="#CAC6B6" paint-order="fill stroke markers" d=" M 535 262 L 535 256" stroke-miterlimit="10"/><path fill="none" stroke="#CAC6B6" paint-order="fill stroke markers" d=" M 645 262 L 645 256" stroke-miterlimit="10"/><path fill="none" stroke="#CAC6B6" paint-order="fill stroke markers" d=" M 756 262 L 756 256" stroke-miterlimit="10"/><path fill="none" stroke="black" paint-order="fill stroke markers" d=" M 70 256 L 70 256" stroke-miterlimit="10"/><path fill="none" stroke="black" paint-order="fill stroke markers" d=" M 48 256 L 48 256" stroke-miterlimit="10"/><path fill="none" stroke="black" paint-order="fill stroke markers" d=" M 92 256 L 92 256" stroke-miterlimit="10"/><path fill="none" stroke="black" paint-order="fill stroke markers" d=" M 114 256 L 114 256" stroke-miterlimit="10"/><path fill="none" stroke="black" paint-order="fill stroke markers" d=" M 136 256 L 136 256" stroke-miterlimit="10"/><path fill="none" stroke="black" paint-order="fill stroke markers" d=" M 158 256 L 158 256" stroke-miterlimit="10"/><path fill="none" stroke="black" paint-order="fill stroke markers" d=" M 181 256 L 181 256" stroke-miterlimit="10"/><path fill="none" stroke="black" paint-order="fill stroke markers" d=" M 203 256 L 203 256" stroke-miterlimit="10"/><path fill="none" stroke="black" paint-order="fill stroke markers" d=" M 225 256 L 225 256" stroke-miterlimit="10"/><path fill="none" stroke="black" paint-order="fill stroke markers" d=" M 247 256 L 247 256" stroke-miterlimit="10"/><path fill="none" stroke="black" paint-order="fill stroke markers" d=" M 269 256 L 269 256" stroke-miterlimit="10"/><path fill="none" stroke="black" paint-order="fill stroke markers" d=" M 291 256 L 291 256" stroke-miterlimit="10"/><path fill="none" stroke="black" paint-order="fill stroke markers" d=" M 313 256 L 313 256" stroke-miterlimit="10"/><path fill="none" stroke="black" paint-order="fill stroke markers" d=" M 336 256 L 336 256" stroke-miterlimit="10"/><path fill="none" stroke="black" paint-order="fill stroke markers" d=" M 358 256 L 358 256" stroke-miterlimit="10"/><path fill="none" stroke="black" paint-order="fill stroke markers" d=" M 380 256 L 380 256" stroke-miterlimit="10"/><path fill="none" stroke="black" paint-order="fill stroke markers" d=" M 402 256 L 402 256" stroke-miterlimit="10"/><path fill="none" stroke="black" paint-order="fill stroke markers" d=" M 424 256 L 424 256" stroke-miterlimit="10"/><path fill="none" stroke="black" paint-order="fill stroke markers" d=" M 446 256 L 446 256" stroke-miterlimit="10"/><path fill="none" stroke="black" paint-order="fill stroke markers" d=" M 468 256 L 468 256" stroke-miterlimit="10"/><path fill="none" stroke="black" paint-order="fill stroke markers" d=" M 490 256 L 490 256" stroke-miterlimit="10"/><path fill="none" stroke="black" paint-order="fill stroke markers" d=" M 513 256 L 513 256" stroke-miterlimit="10"/><path fill="none" stroke="black" paint-order="fill stroke markers" d=" M 535 256 L 535 256" stroke-miterlimit="10"/><path fill="none" stroke="black" paint-order="fill stroke markers" d=" M 557 256 L 557 256" stroke-miterlimit="10"/><path fill="none" stroke="black" paint-order="fill stroke markers" d=" M 579 256 L 579 256" stroke-miterlimit="10"/><path fill="none" stroke="black" paint-order="fill stroke markers" d=" M 601 256 L 601 256" stroke-miterlimit="10"/><path fill="none" stroke="black" paint-order="fill stroke markers" d=" M 623 256 L 623 256" stroke-miterlimit="10"/><path fill="none" stroke="black" paint-order="fill stroke markers" d=" M 645 256 L 645 256" stroke-miterlimit="10"/><path fill="none" stroke="black" paint-order="fill stroke markers" d=" M 668 256 L 668 256" stroke-miterlimit="10"/><path fill="none" stroke="black" paint-order="fill stroke markers" d=" M 690 256 L 690 256" stroke-miterlimit="10"/><path fill="none" stroke="black" paint-order="fill stroke markers" d=" M 712 256 L 712 256" stroke-miterlimit="10"/><path fill="none" stroke="black" paint-order="fill stroke markers" d=" M 734 256 L 734 256" stroke-miterlimit="10"/><path fill="none" stroke="black" paint-order="fill stroke markers" d=" M 756 256 L 756 256" stroke-miterlimit="10"/><path fill="none" stroke="black" paint-order="fill stroke markers" d=" M 778 256 L 778 256" stroke-miterlimit="10"/><text fill="#444444" stroke="none" font-family="helvetica" font-size="8pt" font-style="normal" font-weight="normal" text-decoration="normal" x="92" y="267" text-anchor="middle" dominant-baseline="hanging">-2</text><text fill="#444444" stroke="none" font-family="helvetica" font-size="8pt" font-style="normal" font-weight="normal" text-decoration="normal" x="203" y="267" text-anchor="middle" dominant-baseline="hanging">0</text><text fill="#444444" stroke="none" font-family="helvetica" font-size="8pt" font-style="normal" font-weight="normal" text-decoration="normal" x="313" y="267" text-anchor="middle" dominant-baseline="hanging">2</text><text fill="#444444" stroke="none" font-family="helvetica" font-size="8pt" font-style="normal" font-weight="normal" text-decoration="normal" x="424" y="267" text-anchor="middle" dominant-baseline="hanging">4</text><text fill="#444444" stroke="none" font-family="helvetica" font-size="8pt" font-style="normal" font-weight="normal" text-decoration="normal" x="535" y="267" text-anchor="middle" dominant-baseline="hanging">6</text><text fill="#444444" stroke="none" font-family="helvetica" font-size="8pt" font-style="normal" font-weight="normal" text-decoration="normal" x="645" y="267" text-anchor="middle" dominant-baseline="hanging">8</text><text fill="#444444" stroke="none" font-family="helvetica" font-size="8pt" font-style="normal" font-weight="normal" text-decoration="normal" x="756" y="267" text-anchor="middle" dominant-baseline="hanging">10</text><text fill="#444444" stroke="none" font-family="helvetica" font-size="10pt" font-style="italic" font-weight="normal" text-decoration="normal" x="416.42" y="283.15999999999997" text-anchor="middle" dominant-baseline="hanging">Re</text></g><g><path fill="none" stroke="#CAC6B6" paint-order="fill stroke markers" d=" M 43 256 L 43 4" stroke-miterlimit="10"/><path fill="none" stroke="#CAC6B6" paint-order="fill stroke markers" d=" M 37 231 L 43 231" stroke-miterlimit="10"/><path fill="none" stroke="#CAC6B6" paint-order="fill stroke markers" d=" M 37 171 L 43 171" stroke-miterlimit="10"/><path fill="none" stroke="#CAC6B6" paint-order="fill stroke markers" d=" M 37 110 L 43 110" stroke-miterlimit="10"/><path fill="none" stroke="#CAC6B6" paint-order="fill stroke markers" d=" M 37 50 L 43 50" stroke-miterlimit="10"/><path fill="none" stroke="black" paint-order="fill stroke markers" d=" M 43 243 L 43 243" stroke-miterlimit="10"/><path fill="none" stroke="black" paint-order="fill stroke markers" d=" M 43 255 L 43 255" stroke-miterlimit="10"/><path fill="none" stroke="black" paint-order="fill stroke markers" d=" M 43 231 L 43 231" stroke-miterlimit="10"/><path fill="none" stroke="black" paint-order="fill stroke markers" d=" M 43 219 L 43 219" stroke-miterlimit="10"/><path fill="none" stroke="black" paint-order="fill stroke markers" d=" M 43 207 L 43 207" stroke-miterlimit="10"/><path fill="none" stroke="black" paint-order="fill stroke markers" d=" M 43 195 L 43 195" stroke-miterlimit="10"/><path fill="none" stroke="black" paint-order="fill stroke markers" d=" M 43 183 L 43 183" stroke-miterlimit="10"/><path fill="none" stroke="black" paint-order="fill stroke markers" d=" M 43 171 L 43 171" stroke-miterlimit="10"/><path fill="none" stroke="black" paint-order="fill stroke markers" d=" M 43 158 L 43 158" stroke-miterlimit="10"/><path fill="none" stroke="black" paint-order="fill stroke markers" d=" M 43 146 L 43 146" stroke-miterlimit="10"/><path fill="none" stroke="black" paint-order="fill stroke markers" d=" M 43 134 L 43 134" stroke-miterlimit="10"/><path fill="none" stroke="black" paint-order="fill stroke markers" d=" M 43 122 L 43 122" stroke-miterlimit="10"/><path fill="none" stroke="black" paint-order="fill stroke markers" d=" M 43 110 L 43 110" stroke-miterlimit="10"/><path fill="none" stroke="black" paint-order="fill stroke markers" d=" M 43 98 L 43 98" stroke-miterlimit="10"/><path fill="none" stroke="black" paint-order="fill stroke markers" d=" M 43 86 L 43 86" stroke-miterlimit="10"/><path fill="none" stroke="black" paint-order="fill stroke markers" d=" M 43 74 L 43 74" stroke-miterlimit="10"/><path fill="none" stroke="black" paint-order="fill stroke markers" d=" M 43 62 L 43 62" stroke-miterlimit="10"/><path fill="none" stroke="black" paint-order="fill stroke markers" d=" M 43 50 L 43 50" stroke-miterlimit="10"/><path fill="none" stroke="black" paint-order="fill stroke markers" d=" M 43 38 L 43 38" stroke-miterlimit="10"/><path fill="none" stroke="black" paint-order="fill stroke markers" d=" M 43 26 L 43 26" stroke-miterlimit="10"/><path fill="none" stroke="black" paint-order="fill stroke markers" d=" M 43 14 L 43 14" stroke-miterlimit="10"/><text fill="#444444" stroke="none" font-family="helvetica" font-size="8pt" font-style="normal" font-weight="normal" text-decoration="normal" x="32" y="231" text-anchor="end" dominant-baseline="central">-6</text><text fill="#444444" stroke="none" font-family="helvetica" font-size="8pt" font-style="normal" font-weight="normal" text-decoration="normal" x="32" y="171" text-anchor="end" dominant-baseline="central">-4</text><text fill="#444444" stroke="none" font-family="helvetica" font-size="8pt" font-style="normal" font-weight="normal" text-decoration="normal" x="32" y="110" text-anchor="end" dominant-baseline="central">-2</text><text fill="#444444" stroke="none" font-family="helvetica" font-size="8pt" font-style="normal" font-weight="normal" text-decoration="normal" x="32" y="50" text-anchor="end" dominant-baseline="central">0</text><g transform="translate(15.840000000000003,129.82) rotate(-90,0,0)"><text fill="#444444" stroke="none" font-family="helvetica" font-size="10pt" font-style="italic" font-weight="normal" text-decoration="normal" x="0" y="0" text-anchor="middle" dominant-baseline="alphabetic">Im</text><g transform="rotate(90,0,0) translate(-15.840000000000003,-129.82)"/></g></g></g></g></g></svg>