<svg version="1.1" xmlns="http://www.w3.org/2000/svg" xmlns:xlink="http://www.w3.org/1999/xlink" width="800" height="300" style="width: 800px; height: 300px;"><defs/><g><g/><g transform="scale(1,1) translate(0.5,0.5)"><rect fill="#FFFFFF" stroke="none" x="0" y="0" width="800" height="300"/><rect fill="#ffffff" stroke="none" x="0" y="0" width="800" height="300"/><rect fill="#FFFFFF" stroke="none" x="45.040000000000006" y="4" width="744.96" height="251.64"/><rect fill="#ffffff" stroke="none" x="45.040000000000006" y="4" width="744.96" height="251.64"/><g/><g><g><path fill="none" stroke="#e5e5e5" paint-order="fill stroke markers" d=" M 169 256 L 169 4" stroke-miterlimit="10"/><path fill="none" stroke="#e5e5e5" paint-order="fill stroke markers" d=" M 293 256 L 293 4" stroke-miterlimit="10"/><path fill="none" stroke="#e5e5e5" paint-order="fill stroke markers" d=" M 418 256 L 418 4" stroke-miterlimit="10"/><path fill="none" stroke="#e5e5e5" paint-order="fill stroke markers" d=" M 542 256 L 542 4" stroke-miterlimit="10"/><path fill="none" stroke="#e5e5e5" paint-order="fill stroke markers" d=" M 666 256 L 666 4" stroke-miterlimit="10"/></g><g><path fill="none" stroke="#e5e5e5" paint-order="fill stroke markers" d=" M 45 235 L 790 235" stroke-miterlimit="10"/><path fill="none" stroke="#e5e5e5" paint-order="fill stroke markers" d=" M 45 193 L 790 193" stroke-miterlimit="10"/><path fill="none" stroke="#e5e5e5" paint-order="fill stroke markers" d=" M 45 151 L 790 151" stroke-miterlimit="10"/><path fill="none" stroke="#e5e5e5" paint-order="fill stroke markers" d=" M 45 109 L 790 109" stroke-miterlimit="10"/><path fill="none" stroke="#e5e5e5" paint-order="fill stroke markers" d=" M 45 67 L 790 67" stroke-miterlimit="10"/><path fill="none" stroke="#e5e5e5" paint-order="fill stroke markers" d=" M 45 25 L 790 25" stroke-miterlimit="10"/></g><g><path fill="none" stroke="none"/><path fill="none" stroke="rgb(225,109,0)" paint-order="fill stroke markers" d=" M 45.040000000000006 234.67 L 46.283672787979974 234.51321380590036 L 47.52734557595994 234.3569130122193 L 48.77101836393991 234.87329785584663 L 50.01469115191988 235.130320739417 L 51.25836393989984 234.87749477709025 L 52.502036727879805 234.4324566899644 L 53.74570951585977 234.17297562091974 L 54.98938230383974 234.25258372722186 L 56.23305509181971 234.58297297455243 L 57.476727879799675 234.95588084266632 L 58.72040066777964 235.18022243304176 L 59.9640734557596 235.16594981199574 L 61.20774624373958 234.93959030433373 L 62.45141903171954 234.60916240515678 L 63.695091819699506 234.30769439064744 L 64.93876460767947 234.14139937619245 L 66.18243739565943 234.15831945103605 L 67.42611018363941 234.34196696553602 L 68.66978297161937 234.6257822014385 L 69.91345575959934 234.91950613669633 L 71.1571285475793 235.13766661870602 L 72.40080133555927 235.22224827078244 L 73.64447412353924 235.15492598025858 L 74.88814691151921 234.95777633859552 L 76.13181969949918 234.6842726695067 L 77.37549248747914 234.40415996340562 L 78.6191652754591 234.18640882602705 L 79.86283806343907 234.0840448762347 L 81.10651085141905 234.12357479965286 L 82.350183639399 234.30035642151086 L 83.59385642737897 234.57991981971907 L 84.83752921535894 234.90417998219533 L 86.08120200333892 235.20081877334243 L 87.32487479131888 235.3938810007166 L 88.56854757929884 235.41377097102963 L 89.81222036727881 235.2052461851973 L 91.05589315525877 234.73255791947432 L 92.29956594323875 233.98146454327627 L 93.54323873121871 232.958346812986 L 94.78691151919867 231.6870229427464 L 96.03058430717864 230.20406816097687 L 97.2742570951586 228.5534928397584 L 98.51792988313858 226.78155212865738 L 99.76160267111854 224.932288607636 L 101.0052754590985 223.04419210963033 L 102.24894824707847 221.1481383489736 L 103.49262103505843 219.26657244083893 L 104.73629382303841 217.4137556350771 L 105.97996661101837 215.59680284894776 L 107.22363939899834 213.8172039699735 L 108.4673121869783 212.07253495160415 L 109.71098497495828 210.35811243776948 L 110.95465776293824 208.66841340731702 L 112.1983305509182 206.99815531829955 L 113.44200333889818 205.34300117372663 L 114.68567612687814 203.69991000180008 L 115.92934891485811 202.0671922965838 L 117.17302170283807 200.44435117642485 L 118.41669449081805 198.83179516629997 L 119.660367278798 197.23050107747065 L 120.90404006677798 195.64168971924101 L 122.14771285475794 194.06655741889963 L 123.39138564273792 192.50608625704155 L 124.63505843071788 190.96093832485346 L 125.87873121869784 189.43142588859348 L 127.12240400667781 187.91754079391214 L 128.36607679465777 186.41902260121714 L 129.60974958263773 184.93544505345463 L 130.8534223706177 183.46630344176265 L 132.09709515859768 182.01109005744382 L 133.34076794657764 180.56935009899348 L 134.58444073455763 179.1407152595736 L 135.8281135225376 177.72491615607174 L 137.07178631051755 176.32177746898554 L 138.3154590984975 174.93120109135086 L 139.55913188647747 173.55314287714899 L 140.80280467445743 172.18758799930225 L 142.0464774624374 170.8345287907654 L 143.29015025041735 169.49394755927085 L 144.53382303839734 168.1658054986769 L 145.7774958263773 166.8500376571162 L 147.0211686143573 165.5465530741963 L 148.26484140233725 164.25523870250015 L 149.50851419031721 162.9759655595077 L 150.75218697829717 161.70859565157053 L 151.99585976627714 160.45298848793942 L 153.2395325542571 159.20900637302603 L 154.48320534223706 157.97651805191566 L 155.72687813021702 156.75540062861216 L 156.97055091819698 155.54553994121022 L 158.214223706177 154.34682974693288 L 159.45789649415696 153.15917014436417 L 160.70156928213692 151.98246565473056 L 161.94524207011688 150.8166233206544 L 163.18891485809684 149.66155108368136 L 164.4325876460768 148.51715659366525 L 165.67626043405676 147.38334650194616 L 166.91993322203672 146.26002620854638 L 168.16360601001668 145.14709997768955 L 169.4072787979967 144.04447130686614 L 170.65095158597666 142.9520434294082 L 171.89462437395662 141.869719843545 L 173.13829716193658 140.79740478551545 L 174.38196994991654 139.73500359399287 L 175.6256427378965 138.68242294231385 L 176.86931552587646 137.63957093980525 L 178.11298831385642 136.60635712155778 L 179.35666110183638 135.5826923565517 L 180.6003338898164 134.5684887075978 L 181.84400667779636 133.56365927447553 L 183.08767946577632 132.56811804570333 L 184.33135225375628 131.58177977643834 L 185.57502504173624 130.60455990170254 L 186.8186978297162 129.6363744867427 L 188.06237061769616 128.6771402106429 L 189.30604340567612 127.7267743756743 L 190.54971619365614 126.78519493325007 L 191.7933889816361 125.85232051745004 L 193.03706176961606 124.92807047841814 L 194.28073455759602 124.01236491000435 L 195.52440734557598 123.10512466833086 L 196.76808013355594 122.20627138012844 L 198.0117529215359 121.3157274414402 L 199.25542570951586 120.43341600849578 L 200.49909849749582 119.55926098318969 L 201.74277128547584 118.69318699571971 L 202.9864440734558 117.83511938667223 L 204.23011686143576 116.98498419032029 L 205.47378964941572 116.1427081202711 L 206.71746243739568 115.30821855797569 L 207.96113522537564 114.48144354408356 L 209.2048080133556 113.6623117722379 L 210.44848080133556 112.85075258467805 L 211.69215358931552 112.04669596893967 L 212.93582637729554 111.25007255498184 L 214.1794991652755 110.46081361219822 L 215.42317195325546 109.6788510459358 L 216.66684474123542 108.9041173933224 L 217.91051752921538 108.13654581836036 L 219.15419031719534 107.3760701063674 L 220.3978631051753 106.62262465792153 L 221.64153589315526 105.8761444825042 L 222.88520868113523 105.13656519203303 L 224.12888146911524 104.40382299444747 L 225.3725542570952 103.6778546874682 L 226.61622704507516 102.9585976526007 L 227.85989983305512 102.24598984940769 L 229.10357262103508 101.53996981003809 L 230.34724540901504 100.84047663397416 L 231.590918196995 100.1474499829445 L 232.83459098497497 99.46083007594817 L 234.07826377295493 98.78055768434083 L 235.3219365609349 98.10657412694451 L 236.5656093489149 97.43882126515626 L 237.80928213689486 96.7772414980441 L 239.05295492487483 96.12177775743001 L 240.2966277128548 95.47237350296788 L 241.54030050083475 94.82897271722968 L 242.7839732888147 94.19151990081428 L 244.02764607679467 93.55996006749263 L 245.27131886477463 92.93423873940102 L 246.5149916527546 92.31430194228946 L 247.75866444073455 91.70009620082934 L 249.00233722871457 91.09156853398108 L 250.24601001669453 90.48866645041929 L 251.4896828046745 89.89133794401207 L 252.73335559265445 89.29953148934962 L 253.9770283806344 88.71319603731803 L 255.22070116861437 88.13228101071425 L 256.46437395659433 87.55673629989886 L 257.7080467445743 86.98651225848528 L 258.95171953255425 86.42155969906449 L 260.1953923205342 85.86182988896462 L 261.4390651085142 85.30727454604627 L 262.68273789649413 84.75784583453432 L 263.92641068447415 84.21349636088672 L 265.1700834724541 83.67417916970109 L 266.41375626043407 83.1398477396599 L 267.65742904841403 82.61045597951366 L 268.901101836394 82.08595822410285 L 270.14477462437395 81.5663092304178 L 271.38844741235397 81.05146417369585 L 272.6321202003339 80.54137864355576 L 273.8757929883139 80.03600864016789 L 275.1194657762938 79.53531057046035 L 276.3631385642738 79.03924124436017 L 277.60681135225377 78.54775787106846 L 278.85048414023373 78.0608180553705 L 280.0941569282137 77.57837979397902 L 281.3378297161937 77.10040147191091 L 282.5815025041736 76.62684185889768 L 283.82517529215363 76.1576601058284 L 285.06884808013353 75.6928157412259 L 286.31252086811355 75.23226866775514 L 287.5561936560935 74.7759791587641 L 288.7998664440735 74.32390785485686 L 290.04353923205343 73.8760157604982 L 291.2872120200334 73.43226424064991 L 292.53088480801335 72.99261501743791 L 293.7745575959934 72.55703016685081 L 295.0182303839733 72.12547211546857 L 296.2619031719533 71.69790363722137 L 297.5055759599332 71.27428785017887 L 298.7492487479132 70.85458821336874 L 299.9929215358932 70.43876852362462 L 301.23659432387313 70.0267929124634 L 302.48026711185315 69.61862584299115 L 303.7239398998331 69.21423210683784 L 304.9676126878131 68.81357682111997 L 306.21128547579303 68.4166254254317 L 307.454958263773 68.0233436788638 L 308.69863105175295 67.63369765704977 L 309.9423038397329 67.24765374923967 L 311.1859766277129 66.86517865540083 L 312.42964941569284 66.48623938334532 L 313.6733222036728 66.11080324588411 L 314.91699499165276 65.7388378580076 L 316.1606677796328 65.37031113409188 L 317.40434056761273 65.00519128513122 L 318.6480133555927 64.64344681599596 L 319.89168614357266 64.28504652271559 L 321.1353589315526 63.92995948978731 L 322.3790317195326 63.578155087509145 L 323.62270450751254 63.22960296933795 L 324.8663772954925 62.88427306927147 L 326.1100500834725 62.54213559925526 L 327.3537228714524 62.203161046612706 L 328.59739565943244 61.86732017149973 L 329.8410684474124 61.53458400438225 L 331.08474123539236 61.20492384353736 L 332.3284140233723 60.87831125257753 L 333.5720868113523 60.55471805799769 L 334.81575959933224 60.23411634674508 L 336.05943238731226 59.91647846381136 L 337.30310517529216 59.6017770098471 L 338.5467779632722 59.289984838798404 L 339.7904507512521 58.98107505556521 L 341.0341235392321 58.67502101368143 L 342.27779632721206 58.371796313016404 L 343.521469115192 58.0713747974975 L 344.765141903172 57.773730552854005 L 346.00881469115194 57.47883790438189 L 347.2524874791319 57.18667141472898 L 348.4961602671119 56.897205881700586 L 349.7398330550918 56.610416336085905 L 350.98350584307184 56.32627803950393 L 352.22717863105174 56.044766482269694 L 353.47085141903176 55.76585738127977 L 354.7145242070117 55.48952667791812 L 355.9581969949917 55.215750535980334 L 357.20186978297164 54.944505339617734 L 358.44554257095166 54.67576769130039 L 359.68921535893156 54.40951440979853 L 360.9328881469116 54.14572252818314 L 362.1765609348915 53.88436929184505 L 363.4202337228715 53.62543215653167 L 364.66390651085146 53.368888786402636 L 365.9075792988314 53.11471705210312 L 367.1512520868114 52.86289502885475 L 368.39492487479134 52.613400994564785 L 369.6385976627713 52.366213427951834 L 370.8822704507513 52.12131100668992 L 372.1259432387312 51.87867260556894 L 373.36961602671124 51.63827729467246 L 374.6132888146912 51.400104337572486 L 375.85696160267116 51.16413318954045 L 377.1006343906511 50.930343495775276 L 378.3443071786311 50.698715089647436 L 379.58797996661104 50.46922799095941 L 380.83165275459106 50.24186240422233 L 382.07532554257097 50.01659871694821 L 383.318998330551 49.79341749795836 L 384.5626711185309 49.57229949570703 L 385.8063439065109 49.35322563662112 L 387.05001669449086 49.13617702345471 L 388.2936894824708 48.921134933658834 L 389.5373622704508 48.708080817766756 L 390.78103505843075 48.49699629779374 L 392.0247078464107 48.28786316565183 L 393.2683806343907 48.08066338157917 L 394.5120534223706 47.875379072584025 L 395.75572621035064 47.67199253090283 L 396.9993989983306 47.470486212472935 L 398.24307178631057 47.270842735419194 L 399.4867445742905 47.07304487855464 L 400.7304173622705 46.877075579894836 L 401.97409015025045 46.682917935186424 L 403.21776293823046 46.49055519644861 L 404.46143572621037 46.29997077052863 L 405.7051085141904 46.11114821767066 L 406.9487813021703 45.92407125009737 L 408.1924540901503 45.7387237306051 L 409.43612687813027 45.55508967117186 L 410.6797996661102 45.3731532315783 L 411.9234724540902 45.19289871804122 L 413.16714524207015 45.014310581859746 L 414.4108180300501 44.83737341807449 L 415.6544908180301 44.662071964138136 L 416.89816360601003 44.48839109859935 L 418.14183639399005 44.31631583979839 L 419.38550918197 44.1458313445745 L 420.62918196994997 43.976922906985806 L 421.87285475792993 43.809575957040636 L 423.1165275459099 43.643776059440825 L 424.36020033388985 43.479508912336485 L 425.6038731218698 43.31676034609228 L 426.84754590984977 43.155516322065296 L 428.0912186978298 42.99576293139398 L 429.33489148580975 42.8374863937982 L 430.5785642737897 42.68067305639096 L 431.82223706176967 42.525309392500276 L 433.06590984974963 42.37138200050276 L 434.3095826377296 42.21887760266725 L 435.55325542570955 42.067783044009786 L 436.7969282136895 41.91808529115849 L 438.0406010016695 41.769771431229856 L 439.28427378964943 41.62282867071423 L 440.52794657762945 41.47724433437293 L 441.7716193656094 41.333005864144184 L 443.01529215358937 41.190100818060614 L 444.25896494156933 41.04851686917527 L 445.5026377295493 40.90824180449874 L 446.7463105175293 40.76926352394577 L 447.9899833055092 40.63157003929109 L 449.2336560934892 40.495149473135655 L 450.47732888146913 40.35999005788199 L 451.72100166944915 40.226080134718984 L 452.9646744574291 40.093408152616576 L 454.208347245409 39.961962667328976 L 455.45202003338903 39.83173234040771 L 456.695692821369 39.70270593822346 L 457.93936560934895 39.574872330997096 L 459.18303839732897 39.44822049183955 L 460.4267111853089 39.32273949580099 L 461.67038397328884 39.19841851892795 L 462.9140567612688 39.07524683732987 L 464.1577295492488 38.95321382625406 L 465.4014023372288 38.83230895916927 L 466.6450751252087 38.71252180685758 L 467.8887479131887 38.59384203651484 L 469.13242070116866 38.47625941085937 L 470.3760934891486 38.35976378724871 L 471.61976627712863 38.24434511680511 L 472.86343906510854 38.1299934435483 L 474.1071118530885 38.01669890353685 L 475.35078464106846 37.90445172401752 L 476.5944574290485 37.79324222258191 L 477.83813021702844 37.68306080633147 L 479.08180300500845 37.57389797105003 L 480.3254757929883 37.46574430038373 L 481.5691485809683 37.35859046502924 L 482.8128213689483 37.25242722192843 L 484.0564941569283 37.14724541347152 L 485.30016694490826 37.043035966707066 L 486.54383973288816 36.939789892558906 L 487.7875125208681 36.83749828505171 L 489.03118530884814 36.73615232054158 L 490.2748580968281 36.63574325695578 L 491.5185308848081 36.53626243303836 L 492.76220367278796 36.43770126760296 L 494.005876460768 36.340051258792755 L 495.24954924874794 36.24330398334689 L 496.49322203672796 36.14745109587443 L 497.7368948247079 36.05248432813352 L 498.9805676126878 35.95839548831907 L 500.2242404006678 35.86517646035577 L 501.4679131886478 35.772819203197855 L 502.71158597662776 35.68131575013581 L 503.9552587646078 35.59065820810906 L 505.1989315525876 35.50083875702478 L 506.44260434056764 35.41184964908405 L 507.6862771285476 35.32368320811264 L 508.9299499165276 35.236331828899665 L 510.1736227045076 35.14978797654112 L 511.4172954924875 35.06404418578995 L 512.6609682804674 34.97909306041231 L 513.9046410684474 34.89492727254935 L 515.1483138564274 34.81153956208516 L 516.3919866444074 34.72892273602065 L 517.6356594323873 34.647069667852975 L 518.8793322203672 34.56597329696086 L 520.1230050083473 34.485626627995316 L 521.3666777963273 34.40602273027662 L 522.6103505843072 34.32715473719611 L 523.8540233722872 34.24901584562434 L 525.0976961602671 34.17159931532353 L 526.3413689482471 34.09489846836698 L 527.585041736227 34.018906688562254 L 528.828714524207 33.943617420881196 L 530.0723873121871 33.86902417089368 L 531.316060100167 33.79512050420834 L 532.5597328881469 33.721900045916755 L 533.8034056761269 33.64935648004405 L 535.0470784641069 33.57748354900366 L 536.2907512520868 33.506275053058005 L 537.5344240400667 33.4357248497833 L 538.7780968280467 33.36582685354006 L 540.0217696160267 33.296575034947864 L 541.2654424040068 33.22796342036537 L 542.5091151919867 33.15998609137512 L 543.7527879799666 33.092637184272974 L 544.9964607679466 33.02591088956228 L 546.2401335559266 32.95980145145245 L 547.4838063439065 32.89430316736315 L 548.7274791318865 32.829410387431835 L 549.9711519198664 32.76511751402654 L 551.2148247078464 32.701419001263275 L 552.4584974958264 32.638309354526996 L 553.7021702838064 32.57578312999863 L 554.9458430717864 32.51383493418439 L 556.1895158597663 32.452459423451444 L 557.4331886477462 32.39165130356639 L 558.6768614357262 32.33140532923892 L 559.9205342237062 32.27171630366911 L 561.1642070116861 32.212579078099566 L 562.4078797996661 32.1539885513705 L 563.651552587646 32.095939669480686 L 564.8952253756261 32.03842742515076 L 566.138898163606 31.98144685739169 L 567.382570951586 31.924993051076513 L 568.626243739566 31.869061136516734 L 569.8699165275459 31.813646289041912 L 571.1135893155258 31.75874372858391 L 572.3572621035058 31.704348719264146 L 573.6009348914858 31.65045656898525 L 574.8446076794658 31.597062629026425 L 576.0882804674457 31.54416229364216 L 577.3319532554257 31.491750999665328 L 578.5756260434057 31.439824226113217 L 579.8192988313856 31.38837749379792 L 581.0629716193656 31.337406364939397 L 582.3066444073455 31.286906442783334 L 583.5503171953255 31.23687337122135 L 584.7939899833054 31.187302834415732 L 586.0376627712855 31.138190556426594 L 587.2813355592655 31.08953230084353 L 588.5250083472455 31.041323870419717 L 589.7686811352254 30.993561106710274 L 591.0123539232053 30.94623988971358 L 592.2560267111853 30.899356137515383 L 593.4996994991653 30.852905805937098 L 594.7433722871452 30.806884888187028 L 595.9870450751251 30.761289414514522 L 597.2307178631052 30.716115451867495 L 598.4743906510852 30.6713591035533 L 599.7180634390651 30.62701650890267 L 600.9617362270451 30.583083842936617 L 602.205409015025 30.539557316036394 L 603.449081803005 30.496433173616765 L 604.6927545909849 30.45370769580188 L 605.9364273789649 30.411377197104912 L 607.180100166945 30.369438026109492 L 608.4237729549249 30.327886565155268 L 609.6674457429048 30.28671923002554 L 610.9111185308848 30.24593246963815 L 612.1547913188648 30.205522765739374 L 613.3984641068448 30.16548663260005 L 614.6421368948247 30.12582061671526 L 615.8858096828046 30.086521296506362 L 617.1294824707846 30.04758528202558 L 618.3731552587647 30.009009214663934 L 619.6168280467446 29.970789766861174 L 620.8605008347245 29.93292364181923 L 622.1041736227045 29.89540757321737 L 623.3478464106845 29.858238324930653 L 624.5915191986644 29.821412690750776 L 625.8351919866444 29.784927494109525 L 627.0788647746244 29.74877958780462 L 628.3225375626043 29.712965853728292 L 629.5662103505842 29.677483202598694 L 630.8098831385643 29.642328573692794 L 632.0535559265443 29.607498934582736 L 633.2972287145243 29.57299128087425 L 634.5409015025041 29.538802635947263 L 635.7845742904841 29.504930050699556 L 637.0282470784641 29.471370603291916 L 638.2719198664441 29.438121398896442 L 639.515592654424 29.405179569446545 L 640.759265442404 29.372542273389854 L 642.002938230384 29.340206695442987 L 643.246611018364 29.30817004634855 L 644.4902838063439 29.276429562634576 L 645.7339565943239 29.244982506376573 L 646.9776293823038 29.21382616496072 L 648.2213021702838 29.182957850850244 L 649.4649749582637 29.152374901353653 L 650.7086477462437 29.12207467839471 L 651.9523205342238 29.092054568285107 L 653.1959933222037 29.062311981499192 L 654.4396661101836 29.032844352450297 L 655.6833388981636 29.003649139269385 L 656.9270116861436 28.974723823586146 L 658.1706844741236 28.946065910311347 L 659.4143572621034 28.917672927421904 L 660.6580300500834 28.889542425747777 L 661.9017028380634 28.861671978759887 L 663.1453756260435 28.83405918236207 L 664.3890484140234 28.806701654682513 L 665.6327212020034 28.779597035869074 L 666.8763939899833 28.752742987885426 L 668.1200667779633 28.72613719430933 L 669.3637395659432 28.69977736013294 L 670.6074123539232 28.673661211564763 L 671.8510851419032 28.647786495833714 L 673.0947579298831 28.62215098099432 L 674.338430717863 28.596752455734872 L 675.5821035058431 28.57158872918592 L 676.8257762938231 28.546657630732057 L 678.069449081803 28.521957009824064 L 679.3131218697829 28.49748473579382 L 680.5567946577629 28.473238697670013 L 681.8004674457429 28.449216803996933 L 683.0441402337228 28.425416982652848 L 684.2878130217028 28.40183718067243 L 685.5314858096827 28.37847536406889 L 686.7751585976628 28.3553295176589 L 688.0188313856428 28.3323976448886 L 689.2625041736227 28.309677767661526 L 690.5061769616027 28.28716792616774 L 691.7498497495826 28.264866178715067 L 692.9935225375626 28.242770601561347 L 694.2371953255425 28.220879288748677 L 695.4808681135225 28.19919035193891 L 696.7245409015026 28.177701920250854 L 697.9682136894825 28.156412140098723 L 699.2118864774624 28.13531917503235 L 700.4555592654424 28.114421205578992 L 701.6992320534224 28.09371642908593 L 702.9429048414023 28.073203059565287 L 704.1865776293823 28.05287932753987 L 705.4302504173622 28.032743479890655 L 706.6739232053422 28.01279377970542 L 707.9175959933222 27.993028506128894 L 709.1612687813022 27.973445954214526 L 710.4049415692822 27.954044434777074 L 711.6486143572621 27.93482227424738 L 712.8922871452421 27.91577781452753 L 714.135959933222 27.89690941284806 L 715.379632721202 27.878215441626253 L 716.623305509182 27.859694288325784 L 717.866978297162 27.841344355317403 L 719.1106510851419 27.82316405974143 L 720.3543238731219 27.805151833370815 L 721.5979966611019 27.78730612247631 L 722.8416694490818 27.76962538769226 L 724.0853422370617 27.752108103883756 L 725.3290150250417 27.734752760015 L 726.5726878130217 27.717557859019223 L 727.8163606010016 27.700521917669505 L 729.0600333889817 27.683643466450405 L 730.3037061769616 27.666921049431892 L 731.5473789649416 27.650353224143146 L 732.7910517529215 27.633938561448474 L 734.0347245409015 27.617675645424015 L 735.2783973288815 27.601563073235468 L 736.5220701168614 27.585599455017075 L 737.7657429048414 27.569783413751907 L 739.0094156928213 27.554113585153004 L 740.2530884808014 27.538588617545543 L 741.4967612687814 27.523207171750414 L 742.7404340567613 27.50796792096878 L 743.9841068447412 27.49286955066725 L 745.2277796327212 27.477910758464873 L 746.4714524207012 27.463090254020926 L 747.7151252086811 27.44840675892283 L 748.9587979966611 27.43385900657671 L 750.202470784641 27.419445742097935 L 751.446143572621 27.40516572220247 L 752.689816360601 27.391017715100077 L 753.933489148581 27.377000500387794 L 755.177161936561 27.36311286894494 L 756.4208347245409 27.349353622828517 L 757.6645075125208 27.33572157517 L 758.9081803005008 27.32221555007311 L 760.1518530884808 27.308834382511975 L 761.3955258764609 27.295576918231177 L 762.6391986644406 27.282442013645777 L 763.8828714524207 27.26942853574286 L 765.1265442404007 27.256535361983595 L 766.3702170283807 27.243761380206706 L 767.6138898163606 27.231105488532194 L 768.8575626043405 27.218566595266793 L 770.1012353923205 27.206143618809165 L 771.3449081803005 27.193835487557067 L 772.5885809682804 27.181641139814815 L 773.8322537562605 27.169559523701537 L 775.0759265442404 27.15758959706062 L 776.3195993322204 27.14573032736979 L 777.5632721202003 27.13398069165197 L 778.8069449081803 27.122339676387014 L 780.0506176961603 27.110806277424444 L 781.2942904841402 27.099379499896713 L 782.5379632721201 27.088058358133367 L 783.7816360601001 27.076841875576065 L 785.0253088480802 27.06572908469434 L 786.2689816360602 27.054719026902262 L 787.5126544240401 27.043810752475338 L 788.75632721202 27.03300332046922 L 790 27.02229579863797" stroke-opacity="0.9" stroke-miterlimit="10" stroke-width="2"/></g><g><path fill="none" stroke="none"/><path fill="none" stroke="rgb(102,180,211)" paint-order="fill stroke markers" d=" M 45.040000000000006 234.67 L 46.283672787979974 234.66195237235326 L 47.52734557595994 234.63262787091122 L 48.77101836393991 234.57678602112648 L 50.01469115191988 234.49097868173692 L 51.25836393989984 234.37304263219602 L 52.502036727879805 234.22173659130817 L 53.74570951585977 234.03647874066445 L 54.98938230383974 233.81715696724606 L 56.23305509181971 233.5639917203173 L 57.476727879799675 233.2774369353192 L 58.72040066777964 232.95810849879683 L 59.9640734557596 232.60673263811526 L 61.20774624373958 232.22410872511557 L 62.45141903171954 231.81108250626863 L 63.695091819699506 231.36852687418167 L 64.93876460767947 230.8973280929033 L 66.18243739565943 230.39837596658685 L 67.42611018363941 229.87255685865605 L 68.66978297161937 229.32074877076786 L 69.91345575959934 228.74381790949553 L 71.1571285475793 228.14261632684585 L 72.40080133555927 227.51798033518813 L 73.64447412353924 226.87072947999235 L 74.88814691151921 226.20166591370088 L 76.13181969949918 225.511574057417 L 77.37549248747914 224.80122046846708 L 78.6191652754591 224.07135385459293 L 79.86283806343907 223.3227051919544 L 81.10651085141905 222.55598791600545 L 82.350183639399 221.77189816290442 L 83.59385642737897 220.9711150453387 L 84.83752921535894 220.15430095114374 L 86.08120200333892 219.32210185635128 L 87.32487479131888 218.47514764665607 L 88.56854757929884 217.61405244299294 L 89.81222036727881 216.73941492814714 L 91.05589315525877 215.85181867221127 L 92.29956594323875 214.9518324553449 L 93.54323873121871 214.04001058675823 L 94.78691151919867 213.11689321917524 L 96.03058430717864 212.18300665827627 L 97.2742570951586 211.23886366679102 L 98.51792988313858 210.28496376304128 L 99.76160267111854 209.3217935138213 L 101.0052754590985 208.34982682156812 L 102.24894824707847 207.369525205821 L 103.49262103505843 206.381338079001 L 104.73629382303841 205.38570301656495 L 105.97996661101837 204.38304602160355 L 107.22363939899834 203.37378178396597 L 108.4673121869783 202.35831393399752 L 109.71098497495828 201.33703529098503 L 110.95465776293824 200.3103281064051 L 112.1983305509182 199.27856430207254 L 113.44200333889818 198.2421057032871 L 114.68567612687814 197.20130426707595 L 115.92934891485811 196.1565023056287 L 117.17302170283807 195.10803270502134 L 118.41669449081805 194.0562191393231 L 119.660367278798 193.00137628018007 L 120.90404006677798 191.94381000196685 L 122.14771285475794 190.88381758259658 L 123.39138564273792 189.8216879000777 L 124.63505843071788 188.75770162490423 L 125.87873121869784 187.69213140836493 L 127.12240400667781 186.6252420668547 L 128.36607679465777 185.55729076227 L 129.60974958263773 184.4885271785688 L 130.8534223706177 183.4191936945737 L 132.09709515859768 182.34952555309508 L 133.34076794657764 181.27975102645004 L 134.58444073455763 180.21009157845123 L 135.8281135225376 179.14076202293802 L 137.07178631051755 178.071970678921 L 138.3154590984975 177.00391952240975 L 139.55913188647747 175.93680433499193 L 140.80280467445743 174.87081484923067 L 142.0464774624374 173.8061348909456 L 143.29015025041735 172.7429425184421 L 144.53382303839734 171.68141015875136 L 145.7774958263773 170.62170474094282 L 147.0211686143573 169.56398782656996 L 148.26484140233725 168.50841573730767 L 149.50851419031721 167.45513967984016 L 150.75218697829717 166.40430586805542 L 151.99585976627714 165.35605564260243 L 153.2395325542571 164.31052558786524 L 154.48320534223706 163.26784764640757 L 155.72687813021702 162.22814923094035 L 156.97055091819698 161.19155333386317 L 158.214223706177 160.15817863442996 L 159.45789649415696 159.1281396035884 L 160.70156928213692 158.10154660654112 L 161.94524207011688 157.07850600307552 L 163.18891485809684 156.05912024570924 L 164.4325876460768 155.0434879756961 L 165.67626043405676 154.03170411693708 L 166.91993322203672 153.02385996783983 L 168.16360601001668 152.02004329116932 L 169.4072787979967 151.0203384019318 L 170.65095158597666 150.02482625333226 L 171.89462437395662 149.03358452084586 L 173.13829716193658 148.04668768444316 L 174.38196994991654 147.06420710900636 L 175.6256427378965 146.0862111229756 L 176.86931552587646 145.11276509526124 L 178.11298831385642 144.1439315104589 L 179.35666110183638 143.17977004240242 L 180.6003338898164 142.22033762608947 L 181.84400667779636 141.26568852801398 L 183.08767946577632 140.31587441493872 L 184.33135225375628 139.3709444211402 L 185.57502504173624 138.43094521415887 L 186.8186978297162 137.49592105908457 L 188.06237061769616 136.5659138814093 L 189.30604340567612 135.64096332847626 L 190.54971619365614 134.72110682955554 L 191.7933889816361 133.80637965457458 L 193.03706176961606 132.8968149715318 L 194.28073455759602 131.99244390262152 L 195.52440734557598 131.093295579097 L 196.76808013355594 130.19939719489778 L 198.0117529215359 129.31077405906802 L 199.25542570951586 128.42744964699096 L 200.49909849749582 127.54944565046458 L 201.74277128547584 126.67678202664246 L 202.9864440734558 125.8094770458651 L 204.23011686143576 124.94754733840296 L 205.47378964941572 124.09100794013679 L 206.71746243739568 123.23987233719578 L 207.96113522537564 122.39415250957623 L 209.2048080133556 121.55385897376289 L 210.44848080133556 120.71900082437321 L 211.69215358931552 119.88958577484584 L 212.93582637729554 119.06562019719343 L 214.1794991652755 118.24710916083978 L 215.42317195325546 117.43405647056062 L 216.66684474123542 116.62646470354719 L 217.91051752921538 115.8243352456114 L 219.15419031719534 115.02766832655061 L 220.3978631051753 114.2364630546906 L 221.64153589315526 113.45071745062288 L 222.88520868113523 112.67042848015541 L 224.12888146911524 111.89559208649223 L 225.3725542570952 111.12620322165873 L 226.61622704507516 110.36225587718911 L 227.85989983305512 109.60374311409166 L 229.10357262103508 108.85065709210704 L 230.34724540901504 108.10298909827517 L 231.590918196995 107.3607295748256 L 232.83459098497497 106.62386814640533 L 234.07826377295493 105.89239364665914 L 235.3219365609349 105.16629414417585 L 236.5656093489149 104.44555696781424 L 237.80928213689486 103.73016873142237 L 239.05295492487483 103.02011535796291 L 240.2966277128548 102.31538210305769 L 241.54030050083475 101.61595357796395 L 242.7839732888147 100.92181377199458 L 244.02764607679467 100.23294607439433 L 245.27131886477463 99.54933329568408 L 246.5149916527546 98.87095768848428 L 247.75866444073455 98.19780096782947 L 249.00233722871457 97.52984433098442 L 250.24601001669453 96.86706847677308 L 251.4896828046745 96.20945362443084 L 252.73335559265445 95.55697953199058 L 253.9770283806344 94.90962551421288 L 255.22070116861437 94.2673704600698 L 256.46437395659433 93.63019284979279 L 257.7080467445743 92.99807077149347 L 258.95171953255425 92.37098193736767 L 260.1953923205342 91.74890369949077 L 261.4390651085142 91.13181306521432 L 262.68273789649413 90.51968671217193 L 263.92641068447415 89.91250100290395 L 265.1700834724541 89.31023199910825 L 266.41375626043407 88.71285547552654 L 267.65742904841403 88.1203469334732 L 268.901101836394 87.53268161401573 L 270.14477462437395 86.94983451081328 L 271.38844741235397 86.37178038262203 L 272.6321202003339 85.79849376547409 L 273.8757929883139 85.2299489845372 L 275.1194657762938 84.6661201656633 L 276.3631385642738 84.10698124663142 L 277.60681135225377 83.552505988093 L 278.85048414023373 83.0026679842259 L 280.0941569282137 82.45744067310324 L 281.3378297161937 81.91679734678414 L 282.5815025041736 81.38071116113224 L 283.82517529215363 80.84915514536829 L 285.06884808013353 80.32210221136259 L 286.31252086811355 79.7995251626734 L 287.5561936560935 79.28139670333724 L 288.7998664440735 78.76768944641594 L 290.04353923205343 78.25837592230727 L 291.2872120200334 77.75342858682302 L 292.53088480801335 77.2528198290411 L 293.7745575959934 76.75652197893604 L 295.0182303839733 76.26450731479343 L 296.2619031719533 75.77674807041282 L 297.5055759599332 75.29321644210455 L 298.7492487479132 74.81388459548432 L 299.9929215358932 74.33872467207141 L 301.23659432387313 73.86770879569369 L 302.48026711185315 73.4008090787051 L 303.7239398998331 72.9379976280193 L 304.9676126878131 72.47924655096367 L 306.21128547579303 72.02452796095841 L 307.454958263773 71.57381398302431 L 308.69863105175295 71.12707675912321 L 309.9423038397329 70.6842884533356 L 311.1859766277129 70.24542125687822 L 312.42964941569284 69.81044739296667 L 313.6733222036728 69.37933912152533 L 314.91699499165276 68.95206874374932 L 316.1606677796328 68.5286086065214 L 317.40434056761273 68.10893110668732 L 318.6480133555927 67.69300869519313 L 319.89168614357266 67.28081388108757 L 321.1353589315526 66.87231923539309 L 322.3790317195326 66.46749739484798 L 323.62270450751254 66.06632106552354 L 324.8663772954925 65.66876302631863 L 326.1100500834725 65.27479613233496 L 327.3537228714524 64.88439331813544 L 328.59739565943244 64.49752760088961 L 329.8410684474124 64.11417208340714 L 331.08474123539236 63.7342999570638 L 332.3284140233723 63.357884504621666 L 333.5720868113523 62.98489910294583 L 334.81575959933224 62.61531722562154 L 336.05943238731226 62.249112445472065 L 337.30310517529216 61.88625843698239 L 338.5467779632722 61.52672897862834 L 339.7904507512521 61.17049795511568 L 341.0341235392321 60.817539359530116 L 342.27779632721206 60.46782729540098 L 343.521469115192 60.121335978680634 L 344.765141903172 59.77803973964163 L 346.00881469115194 59.43791302469401 L 347.2524874791319 59.10093039812415 L 348.4961602671119 58.76706654375792 L 349.7398330550918 58.436296266549334 L 350.98350584307184 58.108594494097304 L 352.22717863105174 57.7839362780916 L 353.47085141903176 57.462296795690605 L 354.7145242070117 57.143651350832044 L 355.9581969949917 56.82797537547847 L 357.20186978297164 56.515244430799925 L 358.44554257095166 56.205434208293894 L 359.68921535893156 55.89852053084627 L 360.9328881469116 55.594479353732964 L 362.1765609348915 55.293286765564915 L 363.4202337228715 54.994918989177194 L 364.66390651085146 54.69935238246484 L 365.9075792988314 54.40656343916538 L 367.1512520868114 54.116528789590774 L 368.39492487479134 53.82922520130913 L 369.6385976627713 53.544629579778444 L 370.8822704507513 53.262718968932944 L 372.1259432387312 52.98347055172374 L 373.36961602671124 52.70686165061497 L 374.6132888146912 52.432869728036536 L 375.85696160267116 52.16147238679483 L 377.1006343906511 51.89264737044249 L 378.3443071786311 51.62637256360827 L 379.58797996661104 51.36262599228854 L 380.83165275459106 51.1013858241009 L 382.07532554257097 50.842630368501375 L 383.318998330551 50.5863380769664 L 384.5626711185309 50.33248754314016 L 385.8063439065109 50.08105750294854 L 387.05001669449086 49.83202683468062 L 388.2936894824708 49.585374559039025 L 389.5373622704508 49.34107983915888 L 390.78103505843075 49.09912198059811 L 392.0247078464107 48.85948043129838 L 393.2683806343907 48.622134781518355 L 394.5120534223706 48.38706476373963 L 395.75572621035064 48.154250252547115 L 396.9993989983306 47.92367126448315 L 398.24307178631057 47.695307957877674 L 399.4867445742905 47.46914063265433 L 400.7304173622705 47.24514973011327 L 401.97409015025045 47.023315832692106 L 403.21776293823046 46.80361966370461 L 404.46143572621037 46.58604208705901 L 405.7051085141904 46.37056410695587 L 406.9487813021703 46.157166867565905 L 408.1924540901503 45.945831652689805 L 409.43612687813027 45.736539885399054 L 410.6797996661102 45.52927312765911 L 411.9234724540902 45.32401307993587 L 413.16714524207015 45.12074158078539 L 414.4108180300501 44.919440606427884 L 415.6544908180301 44.72009227030583 L 416.89816360601003 44.52267882262848 L 418.14183639399005 44.32718264990055 L 419.38550918197 44.133586274438585 L 420.62918196994997 43.94187235387324 L 421.87285475792993 43.75202368063913 L 423.1165275459099 43.5640231814524 L 424.36020033388985 43.37785391677653 L 425.6038731218698 43.193499080277036 L 426.84754590984977 43.0109419982648 L 428.0912186978298 42.83016612912945 L 429.33489148580975 42.651155062762655 L 430.5785642737897 42.47389251997174 L 431.82223706176967 42.298362351884066 L 433.06590984974963 42.124548539342754 L 434.3095826377296 41.952435192294615 L 435.55325542570955 41.78200654916844 L 436.7969282136895 41.61324697624747 L 438.0406010016695 41.44614096703344 L 439.28427378964943 41.28067314160421 L 440.52794657762945 41.116828245964484 L 441.7716193656094 40.95459115139039 L 443.01529215358937 40.79394685376826 L 444.25896494156933 40.634880472927534 L 445.5026377295493 40.47737725196828 L 446.7463105175293 40.32142255658391 L 447.9899833055092 40.16700187437931 L 449.2336560934892 40.01410081418385 L 450.47732888146913 39.86270510536093 L 451.72100166944915 39.71280059711296 L 452.9646744574291 39.56437325778336 L 454.208347245409 39.4174091741545 L 455.45202003338903 39.27189455074284 L 456.695692821369 39.12781570909107 L 457.93936560934895 38.985159087057355 L 459.18303839732897 38.843911238102805 L 460.4267111853089 38.70405883057538 L 461.67038397328884 38.565588646993206 L 462.9140567612688 38.428487583325136 L 464.1577295492488 38.292742648270064 L 465.4014023372288 38.15834096253434 L 466.6450751252087 38.02526975810872 L 467.8887479131887 37.89351637754373 L 469.13242070116866 37.76306827322412 L 470.3760934891486 37.6339130066425 L 471.61976627712863 37.506038247673246 L 472.86343906510854 37.37943177384534 L 474.1071118530885 37.25408146961445 L 475.35078464106846 37.12997532563645 L 476.5944574290485 37.007101438040024 L 477.83813021702844 36.88544800769921 L 479.08180300500845 36.76500333950736 L 480.3254757929883 36.64575584165084 L 481.5691485809683 36.527694024883544 L 482.8128213689483 36.410806501802426 L 484.0564941569283 36.295081986123535 L 485.30016694490826 36.18050929195937 L 486.54383973288816 36.067077333097416 L 487.7875125208681 35.95477512227956 L 489.03118530884814 35.84359177048344 L 490.2748580968281 35.73351648620462 L 491.5185308848081 35.62453857474088 L 492.76220367278796 35.51664743747773 L 494.005876460768 35.40983257117625 L 495.24954924874794 35.30408356726218 L 496.49322203672796 35.19939011111717 L 497.7368948247079 35.09574198137244 L 498.9805676126878 34.993129049204015 L 500.2242404006678 34.89154127763038 L 501.4679131886478 34.790968720812316 L 502.71158597662776 34.69140152335558 L 503.9552587646078 34.592829919615156 L 505.1989315525876 34.49524423300272 L 506.44260434056764 34.39863487529635 L 507.6862771285476 34.3029923459527 L 508.9299499165276 34.20830723142228 L 510.1736227045076 34.114570204467384 L 511.4172954924875 34.0217720234823 L 512.6609682804674 33.92990353181699 L 513.9046410684474 33.83895565710367 L 515.1483138564274 33.7489194105857 L 516.3919866444074 33.65978588645021 L 517.6356594323873 33.57154626116346 L 518.8793322203672 33.484191792809156 L 520.1230050083473 33.39771382043034 L 521.3666777963273 33.31210376337401 L 522.6103505843072 33.22735312063918 L 523.8540233722872 33.14345347022822 L 525.0976961602671 33.06039646850127 L 526.3413689482471 32.9781738495343 L 527.585041736227 32.89677742448032 L 528.828714524207 32.816199080933984 L 530.0723873121871 32.73643078229975 L 531.316060100167 32.65746456716295 L 532.5597328881469 32.579292548665535 L 533.8034056761269 32.5019069138836 L 535.0470784641069 32.42529992321005 L 536.2907512520868 32.349463909739654 L 537.5344240400667 32.27439127865847 L 538.7780968280467 32.2000745066361 L 540.0217696160267 32.12650614122208 L 541.2654424040068 32.05367880024539 L 542.5091151919867 31.981585171218626 L 543.7527879799666 31.910218010744188 L 544.9964607679466 31.8395701439253 L 546.2401335559266 31.769634463780562 L 547.4838063439065 31.700403930661878 L 548.7274791318865 31.6318715716759 L 549.9711519198664 31.56403048010975 L 551.2148247078464 31.49687381485984 L 552.4584974958264 31.430394799864644 L 553.7021702838064 31.364586723541493 L 554.9458430717864 31.299442938226207 L 556.1895158597663 31.23495685961757 L 557.4331886477462 31.171121966224405 L 558.6768614357262 31.107931798816935 L 559.9205342237062 31.045379959882325 L 561.1642070116861 30.983460113082742 L 562.4078797996661 30.922165982718184 L 563.651552587646 30.861491353192605 L 564.8952253756261 30.80143006848357 L 566.138898163606 30.741976031616048 L 567.382570951586 30.683123204139633 L 568.626243739566 30.624865605609386 L 569.8699165275459 30.56719731307078 L 571.1135893155258 30.510112460547703 L 572.3572621035058 30.453605238534692 L 573.6009348914858 30.39766989349289 L 574.8446076794658 30.342300727348743 L 576.0882804674457 30.28749209699788 L 577.3319532554257 30.23323841381125 L 578.5756260434057 30.179534143145418 L 579.8192988313856 30.126373803857177 L 581.0629716193656 30.073751967820385 L 582.3066444073455 30.021663259447678 L 583.5503171953255 29.970102355215204 L 584.7939899833054 29.91906398319088 L 586.0376627712855 29.868542922566576 L 587.2813355592655 29.81853400319369 L 588.5250083472455 29.76903210512205 L 589.7686811352254 29.720032158143 L 591.0123539232053 29.67152914133527 L 592.2560267111853 29.623518082614737 L 593.4996994991653 29.57599405828796 L 594.7433722871452 29.528952192608585 L 595.9870450751251 29.482387657337767 L 597.2307178631052 29.436295671307903 L 598.4743906510852 29.390671499989594 L 599.7180634390651 29.345510455062083 L 600.9617362270451 29.30080789398778 L 602.205409015025 29.25655921958912 L 603.449081803005 29.212759879629516 L 604.6927545909849 29.16940536639777 L 605.9364273789649 29.12649121629522 L 607.180100166945 29.08401300942677 L 608.4237729549249 29.041966369194995 L 609.6674457429048 29.000346961897947 L 610.9111185308848 28.95915049632947 L 612.1547913188648 28.918372723383413 L 613.3984641068448 28.878009435661284 L 614.6421368948247 28.83805646708214 L 615.8858096828046 28.798509692497078 L 617.1294824707846 28.759365027305876 L 618.3731552587647 28.720618427076715 L 619.6168280467446 28.682265887170388 L 620.8605008347245 28.644303442366265 L 622.1041736227045 28.60672716649202 L 623.3478464106845 28.569533172056254 L 624.5915191986644 28.532717609884457 L 625.8351919866444 28.4962766687579 L 627.0788647746244 28.460206575055622 L 628.3225375626043 28.424503592399333 L 629.5662103505842 28.38916402130144 L 630.8098831385643 28.354184198816256 L 632.0535559265443 28.319560498193937 L 633.2972287145243 28.285289328537374 L 634.5409015025041 28.251367134462328 L 635.7845742904841 28.21779039575995 L 637.0282470784641 28.184555627063048 L 638.2719198664441 28.151659377514306 L 639.515592654424 28.119098230438 L 640.759265442404 28.086868803014397 L 642.002938230384 28.05496774595713 L 643.246611018364 28.02339174319286 L 644.4902838063439 27.99213751154457 L 645.7339565943239 27.961201800416575 L 646.9776293823038 27.93058139148377 L 648.2213021702838 27.90027309838183 L 649.4649749582637 27.870273766401624 L 650.7086477462437 27.840580272185775 L 651.9523205342238 27.811189523427288 L 653.1959933222037 27.78209845857225 L 654.4396661101836 27.753304046523624 L 655.6833388981636 27.7248032863489 L 656.9270116861436 27.696593206989803 L 658.1706844741236 27.668670866974253 L 659.4143572621034 27.64103335413165 L 660.6580300500834 27.613677785310472 L 661.9017028380634 27.58660130609792 L 663.1453756260435 27.559801090542464 L 664.3890484140234 27.533274340879302 L 665.6327212020034 27.507018287257097 L 666.8763939899833 27.48103018746872 L 668.1200667779633 27.45530732668317 L 669.3637395659432 27.42984701718052 L 670.6074123539232 27.40464659808896 L 671.8510851419032 27.379703435124725 L 673.0947579298831 27.3550149203337 L 674.338430717863 27.330578471836134 L 675.5821035058431 27.30639153357282 L 676.8257762938231 27.28245157505438 L 678.069449081803 27.25875609111256 L 679.3131218697829 27.235302601653302 L 680.5567946577629 27.21208865141307 L 681.8004674457429 27.189111809716678 L 683.0441402337228 27.166369670237373 L 684.2878130217028 27.143859850759554 L 685.5314858096827 27.12157999294317 L 686.7751585976628 27.099527762090588 L 688.0188313856428 27.07770084691589 L 689.2625041736227 27.05609695931537 L 690.5061769616027 27.03471383414137 L 691.7498497495826 27.013549228977126 L 692.9935225375626 26.992600923914438 L 694.2371953255425 26.971866721333072 L 695.4808681135225 26.951344445682253 L 696.7245409015026 26.931031943264315 L 697.9682136894825 26.910927082020237 L 699.2118864774624 26.891027751316983 L 700.4555592654424 26.871331861737644 L 701.6992320534224 26.85183734487225 L 702.9429048414023 26.83254215311183 L 704.1865776293823 26.813444259443486 L 705.4302504173622 26.79454165724792 L 706.6739232053422 26.775832360098434 L 707.9175959933222 26.757314401562326 L 709.1612687813022 26.73898583500386 L 710.4049415692822 26.72084473338873 L 711.6486143572621 26.70288918909148 L 712.8922871452421 26.68511731370313 L 714.135959933222 26.667527237842137 L 715.379632721202 26.650117110966505 L 716.623305509182 26.632885101187185 L 717.866978297162 26.61582939508412 L 719.1106510851419 26.598948197523725 L 720.3543238731219 26.582239731477728 L 721.5979966611019 26.56570223784405 L 722.8416694490818 26.549333975269633 L 724.0853422370617 26.53313321997456 L 725.3290150250417 26.517098265577772 L 726.5726878130217 26.501227422924842 L 727.8163606010016 26.48551901991715 L 729.0600333889817 26.46997140134272 L 730.3037061769616 26.454582928708817 L 731.5473789649416 26.439351980075685 L 732.7910517529215 26.424276949892544 L 734.0347245409015 26.409356248834683 L 735.2783973288815 26.394588303642024 L 736.5220701168614 26.379971556960015 L 737.7657429048414 26.365504467180926 L 739.0094156928213 26.351185508287415 L 740.2530884808014 26.33701316969757 L 741.4967612687814 26.32298595611121 L 742.7404340567613 26.309102387357598 L 743.9841068447412 26.295360998244917 L 745.2277796327212 26.28176033841089 L 746.4714524207012 26.26829897217533 L 747.7151252086811 26.254975478393476 L 748.9587979966611 26.241788450310935 L 750.202470784641 26.22873649542055 L 751.446143572621 26.215818235319887 L 752.689816360601 26.203032305570673 L 753.933489148581 26.19037735555935 L 755.177161936561 26.177852048358716 L 756.4208347245409 26.165455060591512 L 757.6645075125208 26.15318508229518 L 758.9081803005008 26.141040816787267 L 760.1518530884808 26.129020980532857 L 761.3955258764609 26.117124303013384 L 762.6391986644406 26.105349526595774 L 763.8828714524207 26.093695406404265 L 765.1265442404007 26.082160710192056 L 766.3702170283807 26.070744218215054 L 767.6138898163606 26.05944472310705 L 768.8575626043405 26.048261029755167 L 770.1012353923205 26.037191955177207 L 771.3449081803005 26.026236328400273 L 772.5885809682804 26.015392990340274 L 773.8322537562605 26.004660793682604 L 775.0759265442404 25.994038602764192 L 776.3195993322204 25.98352529345641 L 777.5632721202003 25.973119753049787 L 778.8069449081803 25.962820880138565 L 780.0506176961603 25.952627584508264 L 781.2942904841402 25.94253878702216 L 782.5379632721201 25.932553419511066 L 783.7816360601001 25.922670424662215 L 785.0253088480802 25.912888755910785 L 786.2689816360602 25.903207377331455 L 787.5126544240401 25.89362526353193 L 788.75632721202 25.884141399546365 L 790 25.874754780730882" stroke-opacity="0.9" stroke-miterlimit="10" stroke-width="2" stroke-dasharray="6"/></g></g><g><g/><g><path fill="#ffffff" stroke="#e5e5e5" paint-order="fill stroke markers" d=" M 691 182.64 L 780 182.64 L 780 245.64 L 691 245.64 L 691 182.64 Z" fill-opacity="0.8" stroke-miterlimit="10" stroke-opacity="0.5"/><text fill="#444444" stroke="none" font-family="helvetica" font-size="10pt" font-style="normal" font-weight="normal" text-decoration="normal" x="726" y="202.64" text-anchor="start" dominant-baseline="central">Model</text><g><path fill="none" stroke="rgb(225,109,0)" paint-order="fill stroke markers" d=" M 701 202.64 L 721 202.64" stroke-opacity="0.9" stroke-miterlimit="10" stroke-width="2"/></g><text fill="#444444" stroke="none" font-family="helvetica" font-size="10pt" font-style="normal" font-weight="normal" text-decoration="normal" x="726" y="225.64" text-anchor="start" dominant-baseline="central">Original</text><g><path fill="none" stroke="rgb(102,180,211)" paint-order="fill stroke markers" d=" M 701 225.64 L 721 225.64" stroke-opacity="0.9" stroke-miterlimit="10" stroke-width="2" stroke-dasharray="6"/></g></g></g><g><g><path fill="none" stroke="#CAC6B6" paint-order="fill stroke markers" d=" M 45 256 L 790 256" stroke-miterlimit="10"/><path fill="none" stroke="#CAC6B6" paint-order="fill stroke markers" d=" M 45 262 L 45 256" stroke-miterlimit="10"/><path fill="none" stroke="#CAC6B6" paint-order="fill stroke markers" d=" M 169 262 L 169 256" stroke-miterlimit="10"/><path fill="none" stroke="#CAC6B6" paint-order="fill stroke markers" d=" M 293 262 L 293 256" stroke-miterlimit="10"/><path fill="none" stroke="#CAC6B6" paint-order="fill stroke markers" d=" M 418 262 L 418 256" stroke-miterlimit="10"/><path fill="none" stroke="#CAC6B6" paint-order="fill stroke markers" d=" M 542 262 L 542 256" stroke-miterlimit="10"/><path fill="none" stroke="#CAC6B6" paint-order="fill stroke markers" d=" M 666 262 L 666 256" stroke-miterlimit="10"/><path fill="none" stroke="#CAC6B6" paint-order="fill stroke markers" d=" M 790 262 L 790 256" stroke-miterlimit="10"/><path fill="none" stroke="black" paint-order="fill stroke markers" d=" M 45 256 L 45 256" stroke-miterlimit="10"/><path fill="none" stroke="black" paint-order="fill stroke markers" d=" M 70 256 L 70 256" stroke-miterlimit="10"/><path fill="none" stroke="black" paint-order="fill stroke markers" d=" M 95 256 L 95 256" stroke-miterlimit="10"/><path fill="none" stroke="black" paint-order="fill stroke markers" d=" M 120 256 L 120 256" stroke-miterlimit="10"/><path fill="none" stroke="black" paint-order="fill stroke markers" d=" M 144 256 L 144 256" stroke-miterlimit="10"/><path fill="none" stroke="black" paint-order="fill stroke markers" d=" M 169 256 L 169 256" stroke-miterlimit="10"/><path fill="none" stroke="black" paint-order="fill stroke markers" d=" M 194 256 L 194 256" stroke-miterlimit="10"/><path fill="none" stroke="black" paint-order="fill stroke markers" d=" M 219 256 L 219 256" stroke-miterlimit="10"/><path fill="none" stroke="black" paint-order="fill stroke markers" d=" M 244 256 L 244 256" stroke-miterlimit="10"/><path fill="none" stroke="black" paint-order="fill stroke markers" d=" M 269 256 L 269 256" stroke-miterlimit="10"/><path fill="none" stroke="black" paint-order="fill stroke markers" d=" M 293 256 L 293 256" stroke-miterlimit="10"/><path fill="none" stroke="black" paint-order="fill stroke markers" d=" M 318 256 L 318 256" stroke-miterlimit="10"/><path fill="none" stroke="black" paint-order="fill stroke markers" d=" M 343 256 L 343 256" stroke-miterlimit="10"/><path fill="none" stroke="black" paint-order="fill stroke markers" d=" M 368 256 L 368 256" stroke-miterlimit="10"/><path fill="none" stroke="black" paint-order="fill stroke markers" d=" M 393 256 L 393 256" stroke-miterlimit="10"/><path fill="none" stroke="black" paint-order="fill stroke markers" d=" M 418 256 L 418 256" stroke-miterlimit="10"/><path fill="none" stroke="black" paint-order="fill stroke markers" d=" M 442 256 L 442 256" stroke-miterlimit="10"/><path fill="none" stroke="black" paint-order="fill stroke markers" d=" M 467 256 L 467 256" stroke-miterlimit="10"/><path fill="none" stroke="black" paint-order="fill stroke markers" d=" M 492 256 L 492 256" stroke-miterlimit="10"/><path fill="none" stroke="black" paint-order="fill stroke markers" d=" M 517 256 L 517 256" stroke-miterlimit="10"/><path fill="none" stroke="black" paint-order="fill stroke markers" d=" M 542 256 L 542 256" stroke-miterlimit="10"/><path fill="none" stroke="black" paint-order="fill stroke markers" d=" M 567 256 L 567 256" stroke-miterlimit="10"/><path fill="none" stroke="black" paint-order="fill stroke markers" d=" M 591 256 L 591 256" stroke-miterlimit="10"/><path fill="none" stroke="black" paint-order="fill stroke markers" d=" M 616 256 L 616 256" stroke-miterlimit="10"/><path fill="none" stroke="black" paint-order="fill stroke markers" d=" M 641 256 L 641 256" stroke-miterlimit="10"/><path fill="none" stroke="black" paint-order="fill stroke markers" d=" M 666 256 L 666 256" stroke-miterlimit="10"/><path fill="none" stroke="black" paint-order="fill stroke markers" d=" M 691 256 L 691 256" stroke-miterlimit="10"/><path fill="none" stroke="black" paint-order="fill stroke markers" d=" M 716 256 L 716 256" stroke-miterlimit="10"/><path fill="none" stroke="black" paint-order="fill stroke markers" d=" M 740 256 L 740 256" stroke-miterlimit="10"/><path fill="none" stroke="black" paint-order="fill stroke markers" d=" M 765 256 L 765 256" stroke-miterlimit="10"/><path fill="none" stroke="black" paint-order="fill stroke markers" d=" M 790 256 L 790 256" stroke-miterlimit="10"/><text fill="#444444" stroke="none" font-family="helvetica" font-size="8pt" font-style="normal" font-weight="normal" text-decoration="normal" x="45" y="267" text-anchor="middle" dominant-baseline="hanging">0</text><text fill="#444444" stroke="none" font-family="helvetica" font-size="8pt" font-style="normal" font-weight="normal" text-decoration="normal" x="169" y="267" text-anchor="middle" dominant-baseline="hanging">10</text><text fill="#444444" stroke="none" font-family="helvetica" font-size="8pt" font-style="normal" font-weight="normal" text-decoration="normal" x="293" y="267" text-anchor="middle" dominant-baseline="hanging">20</text><text fill="#444444" stroke="none" font-family="helvetica" font-size="8pt" font-style="normal" font-weight="normal" text-decoration="normal" x="418" y="267" text-anchor="middle" dominant-baseline="hanging">30</text><text fill="#444444" stroke="none" font-family="helvetica" font-size="8pt" font-style="normal" font-weight="normal" text-decoration="normal" x="542" y="267" text-anchor="middle" dominant-baseline="hanging">40</text><text fill="#444444" stroke="none" font-family="helvetica" font-size="8pt" font-style="normal" font-weight="normal" text-decoration="normal" x="666" y="267" text-anchor="middle" dominant-baseline="hanging">50</text><text fill="#444444" stroke="none" font-family="helvetica" font-size="8pt" font-style="normal" font-weight="normal" text-decoration="normal" x="790" y="267" text-anchor="middle" dominant-baseline="hanging">60</text><text fill="#444444" stroke="none" font-family="helvetica" font-size="10pt" font-style="italic" font-weight="normal" text-decoration="normal" x="417.52" y="283.15999999999997" text-anchor="middle" dominant-baseline="hanging">Time [min]</text></g><g><path fill="none" stroke="#CAC6B6" paint-order="fill stroke markers" d=" M 45 256 L 45 4" stroke-miterlimit="10"/><path fill="none" stroke="#CAC6B6" paint-order="fill stroke markers" d=" M 39 235 L 45 235" stroke-miterlimit="10"/><path fill="none" stroke="#CAC6B6" paint-order="fill stroke markers" d=" M 39 193 L 45 193" stroke-miterlimit="10"/><path fill="none" stroke="#CAC6B6" paint-order="fill stroke markers" d=" M 39 151 L 45 151" stroke-miterlimit="10"/><path fill="none" stroke="#CAC6B6" paint-order="fill stroke markers" d=" M 39 109 L 45 109" stroke-miterlimit="10"/><path fill="none" stroke="#CAC6B6" paint-order="fill stroke markers" d=" M 39 67 L 45 67" stroke-miterlimit="10"/><path fill="none" stroke="#CAC6B6" paint-order="fill stroke markers" d=" M 39 25 L 45 25" stroke-miterlimit="10"/><path fill="none" stroke="black" paint-order="fill stroke markers" d=" M 45 243 L 45 243" stroke-miterlimit="10"/><path fill="none" stroke="black" paint-order="fill stroke markers" d=" M 45 251 L 45 251" stroke-miterlimit="10"/><path fill="none" stroke="black" paint-order="fill stroke markers" d=" M 45 235 L 45 235" stroke-miterlimit="10"/><path fill="none" stroke="black" paint-order="fill stroke markers" d=" M 45 226 L 45 226" stroke-miterlimit="10"/><path fill="none" stroke="black" paint-order="fill stroke markers" d=" M 45 218 L 45 218" stroke-miterlimit="10"/><path fill="none" stroke="black" paint-order="fill stroke markers" d=" M 45 210 L 45 210" stroke-miterlimit="10"/><path fill="none" stroke="black" paint-order="fill stroke markers" d=" M 45 201 L 45 201" stroke-miterlimit="10"/><path fill="none" stroke="black" paint-order="fill stroke markers" d=" M 45 193 L 45 193" stroke-miterlimit="10"/><path fill="none" stroke="black" paint-order="fill stroke markers" d=" M 45 184 L 45 184" stroke-miterlimit="10"/><path fill="none" stroke="black" paint-order="fill stroke markers" d=" M 45 176 L 45 176" stroke-miterlimit="10"/><path fill="none" stroke="black" paint-order="fill stroke markers" d=" M 45 168 L 45 168" stroke-miterlimit="10"/><path fill="none" stroke="black" paint-order="fill stroke markers" d=" M 45 159 L 45 159" stroke-miterlimit="10"/><path fill="none" stroke="black" paint-order="fill stroke markers" d=" M 45 151 L 45 151" stroke-miterlimit="10"/><path fill="none" stroke="black" paint-order="fill stroke markers" d=" M 45 142 L 45 142" stroke-miterlimit="10"/><path fill="none" stroke="black" paint-order="fill stroke markers" d=" M 45 134 L 45 134" stroke-miterlimit="10"/><path fill="none" stroke="black" paint-order="fill stroke markers" d=" M 45 126 L 45 126" stroke-miterlimit="10"/><path fill="none" stroke="black" paint-order="fill stroke markers" d=" M 45 117 L 45 117" stroke-miterlimit="10"/><path fill="none" stroke="black" paint-order="fill stroke markers" d=" M 45 109 L 45 109" stroke-miterlimit="10"/><path fill="none" stroke="black" paint-order="fill stroke markers" d=" M 45 100 L 45 100" stroke-miterlimit="10"/><path fill="none" stroke="black" paint-order="fill stroke markers" d=" M 45 92 L 45 92" stroke-miterlimit="10"/><path fill="none" stroke="black" paint-order="fill stroke markers" d=" M 45 84 L 45 84" stroke-miterlimit="10"/><path fill="none" stroke="black" paint-order="fill stroke markers" d=" M 45 75 L 45 75" stroke-miterlimit="10"/><path fill="none" stroke="black" paint-order="fill stroke markers" d=" M 45 67 L 45 67" stroke-miterlimit="10"/><path fill="none" stroke="black" paint-order="fill stroke markers" d=" M 45 59 L 45 59" stroke-miterlimit="10"/><path fill="none" stroke="black" paint-order="fill stroke markers" d=" M 45 50 L 45 50" stroke-miterlimit="10"/><path fill="none" stroke="black" paint-order="fill stroke markers" d=" M 45 42 L 45 42" stroke-miterlimit="10"/><path fill="none" stroke="black" paint-order="fill stroke markers" d=" M 45 33 L 45 33" stroke-miterlimit="10"/><path fill="none" stroke="black" paint-order="fill stroke markers" d=" M 45 25 L 45 25" stroke-miterlimit="10"/><path fill="none" stroke="black" paint-order="fill stroke markers" d=" M 45 17 L 45 17" stroke-miterlimit="10"/><path fill="none" stroke="black" paint-order="fill stroke markers" d=" M 45 8 L 45 8" stroke-miterlimit="10"/><text fill="#444444" stroke="none" font-family="helvetica" font-size="8pt" font-style="normal" font-weight="normal" text-decoration="normal" x="34" y="235" text-anchor="end" dominant-baseline="central">0</text><text fill="#444444" stroke="none" font-family="helvetica" font-size="8pt" font-style="normal" font-weight="normal" text-decoration="normal" x="34" y="193" text-anchor="end" dominant-baseline="central">2</text><text fill="#444444" stroke="none" font-family="helvetica" font-size="8pt" font-style="normal" font-weight="normal" text-decoration="normal" x="34" y="151" text-anchor="end" dominant-baseline="central">4</text><text fill="#444444" stroke="none" font-family="helvetica" font-size="8pt" font-style="normal" font-weight="normal" text-decoration="normal" x="34" y="109" text-anchor="end" dominant-baseline="central">6</text><text fill="#444444" stroke="none" font-family="helvetica" font-size="8pt" font-style="normal" font-weight="normal" text-decoration="normal" x="34" y="67" text-anchor="end" dominant-baseline="central">8</text><text fill="#444444" stroke="none" font-family="helvetica" font-size="8pt" font-style="normal" font-weight="normal" text-decoration="normal" x="34" y="25" text-anchor="end" dominant-baseline="central">10</text><g transform="translate(15.840000000000003,129.82) rotate(-90,0,0)"><text fill="#444444" stroke="none" font-family="helvetica" font-size="10pt" font-style="italic" font-weight="normal" text-decoration="normal" x="0" y="0" text-anchor="middle" dominant-baseline="alphabetic">Output</text><g transform="rotate(90,0,0) translate(-15.840000000000003,-129.82)"/></g></g></g></g></g></svg>