<?xml version="1.0" encoding="utf-8" standalone="no"?>
<!DOCTYPE svg PUBLIC "-//W3C//DTD SVG 1.1//EN"
  "http://www.w3.org/Graphics/SVG/1.1/DTD/svg11.dtd">
<!-- Created with matplotlib (http://matplotlib.org/) -->
<svg height="432pt" version="1.1" viewBox="0 0 720 432" width="720pt" xmlns="http://www.w3.org/2000/svg" xmlns:xlink="http://www.w3.org/1999/xlink">
 <defs>
  <style type="text/css">
*{stroke-linecap:butt;stroke-linejoin:round;}
  </style>
 </defs>
 <g id="figure_1">
  <g id="patch_1">
   <path d="M 0 432 
L 720 432 
L 720 0 
L 0 0 
z
" style="fill:#ffffff;"/>
  </g>
  <g id="axes_1">
   <g id="patch_2">
    <path d="M 90 200.094545 
L 648 200.094545 
L 648 51.84 
L 90 51.84 
z
" style="fill:#ffffff;"/>
   </g>
   <g id="matplotlib.axis_1">
    <g id="xtick_1">
     <g id="line2d_1">
      <path clip-path="url(#p0e208b10e3)" d="M 166.04525 200.094545 
L 166.04525 51.84 
" style="fill:none;stroke:#cccccc;stroke-linecap:round;stroke-width:0.8;"/>
     </g>
     <g id="line2d_2"/>
    </g>
    <g id="xtick_2">
     <g id="line2d_3">
      <path clip-path="url(#p0e208b10e3)" d="M 267.509942 200.094545 
L 267.509942 51.84 
" style="fill:none;stroke:#cccccc;stroke-linecap:round;stroke-width:0.8;"/>
     </g>
     <g id="line2d_4"/>
    </g>
    <g id="xtick_3">
     <g id="line2d_5">
      <path clip-path="url(#p0e208b10e3)" d="M 368.974634 200.094545 
L 368.974634 51.84 
" style="fill:none;stroke:#cccccc;stroke-linecap:round;stroke-width:0.8;"/>
     </g>
     <g id="line2d_6"/>
    </g>
    <g id="xtick_4">
     <g id="line2d_7">
      <path clip-path="url(#p0e208b10e3)" d="M 470.439326 200.094545 
L 470.439326 51.84 
" style="fill:none;stroke:#cccccc;stroke-linecap:round;stroke-width:0.8;"/>
     </g>
     <g id="line2d_8"/>
    </g>
    <g id="xtick_5">
     <g id="line2d_9">
      <path clip-path="url(#p0e208b10e3)" d="M 571.904018 200.094545 
L 571.904018 51.84 
" style="fill:none;stroke:#cccccc;stroke-linecap:round;stroke-width:0.8;"/>
     </g>
     <g id="line2d_10"/>
    </g>
   </g>
   <g id="matplotlib.axis_2">
    <g id="ytick_1">
     <g id="line2d_11">
      <path clip-path="url(#p0e208b10e3)" d="M 90 200.570318 
L 648 200.570318 
" style="fill:none;stroke:#cccccc;stroke-linecap:round;stroke-width:0.8;"/>
     </g>
     <g id="line2d_12"/>
     <g id="text_1">
      <text style="fill:#262626;font-family:Arial;font-size:10px;font-style:normal;font-weight:400;text-anchor:end;" transform="rotate(-0, 86.5, 204.149224)" x="86.5" y="204.149224">297.75</text>
     </g>
    </g>
    <g id="ytick_2">
     <g id="line2d_13">
      <path clip-path="url(#p0e208b10e3)" d="M 90 174.442138 
L 648 174.442138 
" style="fill:none;stroke:#cccccc;stroke-linecap:round;stroke-width:0.8;"/>
     </g>
     <g id="line2d_14"/>
     <g id="text_2">
      <text style="fill:#262626;font-family:Arial;font-size:10px;font-style:normal;font-weight:400;text-anchor:end;" transform="rotate(-0, 86.5, 178.021044)" x="86.5" y="178.021044">298.00</text>
     </g>
    </g>
    <g id="ytick_3">
     <g id="line2d_15">
      <path clip-path="url(#p0e208b10e3)" d="M 90 148.313958 
L 648 148.313958 
" style="fill:none;stroke:#cccccc;stroke-linecap:round;stroke-width:0.8;"/>
     </g>
     <g id="line2d_16"/>
     <g id="text_3">
      <text style="fill:#262626;font-family:Arial;font-size:10px;font-style:normal;font-weight:400;text-anchor:end;" transform="rotate(-0, 86.5, 151.892865)" x="86.5" y="151.892865">298.25</text>
     </g>
    </g>
    <g id="ytick_4">
     <g id="line2d_17">
      <path clip-path="url(#p0e208b10e3)" d="M 90 122.185779 
L 648 122.185779 
" style="fill:none;stroke:#cccccc;stroke-linecap:round;stroke-width:0.8;"/>
     </g>
     <g id="line2d_18"/>
     <g id="text_4">
      <text style="fill:#262626;font-family:Arial;font-size:10px;font-style:normal;font-weight:400;text-anchor:end;" transform="rotate(-0, 86.5, 125.764685)" x="86.5" y="125.764685">298.50</text>
     </g>
    </g>
    <g id="ytick_5">
     <g id="line2d_19">
      <path clip-path="url(#p0e208b10e3)" d="M 90 96.057599 
L 648 96.057599 
" style="fill:none;stroke:#cccccc;stroke-linecap:round;stroke-width:0.8;"/>
     </g>
     <g id="line2d_20"/>
     <g id="text_5">
      <text style="fill:#262626;font-family:Arial;font-size:10px;font-style:normal;font-weight:400;text-anchor:end;" transform="rotate(-0, 86.5, 99.636505)" x="86.5" y="99.636505">298.75</text>
     </g>
    </g>
    <g id="ytick_6">
     <g id="line2d_21">
      <path clip-path="url(#p0e208b10e3)" d="M 90 69.929419 
L 648 69.929419 
" style="fill:none;stroke:#cccccc;stroke-linecap:round;stroke-width:0.8;"/>
     </g>
     <g id="line2d_22"/>
     <g id="text_6">
      <text style="fill:#262626;font-family:Arial;font-size:10px;font-style:normal;font-weight:400;text-anchor:end;" transform="rotate(-0, 86.5, 73.508326)" x="86.5" y="73.508326">299.00</text>
     </g>
    </g>
    <g id="text_7">
     <text style="fill:#262626;font-family:Arial;font-size:10px;font-style:normal;font-weight:400;text-anchor:middle;" transform="rotate(-90, 49.929687, 125.967273)" x="49.929687" y="125.967273">Temperature [K]</text>
    </g>
   </g>
   <g id="line2d_23">
    <path clip-path="url(#p0e208b10e3)" d="M 115.363636 172.855917 
L 119.016365 171.554072 
L 122.516897 170.541492 
L 125.966697 169.774535 
L 127.33647 169.564679 
L 127.437935 170.276803 
L 127.539399 171.363206 
L 127.590132 171.25202 
L 127.691596 170.907869 
L 127.793061 171.763583 
L 127.843793 171.606613 
L 128.046723 170.471061 
L 128.300385 170.135275 
L 128.604779 169.769561 
L 128.807708 169.808195 
L 129.06137 170.160486 
L 129.873087 171.507806 
L 130.177481 171.611918 
L 130.481875 171.483309 
L 130.938467 170.988779 
L 132.917028 168.450823 
L 133.576549 168.097435 
L 134.286801 167.980278 
L 135.199984 168.077362 
L 140.374683 169.002754 
L 150.724081 170.088853 
L 160.819818 171.41006 
L 166.451109 172.285687 
L 166.755503 172.660722 
L 167.110629 173.523994 
L 167.516488 175.16196 
L 168.074544 178.443839 
L 170.002373 190.695925 
L 170.509696 192.391359 
L 170.915555 193.127275 
L 171.270682 193.352767 
L 171.575076 193.270664 
L 171.930202 192.901444 
L 172.437526 191.972852 
L 173.198511 190.016677 
L 173.60437 188.639407 
L 173.705834 188.158098 
L 173.807299 189.53 
L 173.959496 192.741135 
L 174.010228 192.404166 
L 174.162425 185.645907 
L 174.213158 183.3099 
L 174.26389 183.537153 
L 174.365355 191.259459 
L 174.416087 189.434525 
L 174.568284 185.896514 
L 174.669749 186.187831 
L 174.720481 186.105161 
L 175.075608 185.214421 
L 175.532199 184.851712 
L 175.98879 184.437647 
L 176.445381 183.642824 
L 177.155634 181.830855 
L 178.37321 178.748782 
L 179.083463 177.539141 
L 179.742983 176.824889 
L 180.453236 176.379129 
L 181.366418 176.093309 
L 183.040586 175.860128 
L 186.896244 175.547159 
L 189.83872 175.565476 
L 198.970543 175.989309 
L 206.326733 176.161875 
L 213.885852 176.110828 
L 222.865477 175.817958 
L 237.324196 175.086316 
L 253.862941 174.315433 
L 265.480648 174.004049 
L 277.402749 173.911245 
L 292.165862 174.033183 
L 340.818182 174.599705 
L 367.148269 174.535813 
L 369.076099 174.442938 
L 369.279028 173.748138 
L 369.583422 171.565406 
L 369.989281 166.724431 
L 370.496604 157.782012 
L 371.156125 141.862569 
L 372.424433 103.999918 
L 373.337616 80.177337 
L 373.997136 68.363985 
L 374.50446 62.662331 
L 374.961051 59.781292 
L 375.316177 58.767765 
L 375.569839 58.578843 
L 375.772768 58.69169 
L 376.077162 59.214661 
L 376.533753 60.567149 
L 377.599133 64.73417 
L 378.512315 67.828778 
L 379.171835 69.327021 
L 379.729891 70.089669 
L 380.237215 70.439181 
L 380.744538 70.537729 
L 381.404059 70.422034 
L 384.295802 69.613269 
L 385.462646 69.688334 
L 389.774896 70.172756 
L 393.021766 70.084606 
L 402.914573 69.789085 
L 403.06677 69.991709 
L 403.117503 69.951212 
L 403.320432 69.830699 
L 403.726291 69.785176 
L 404.385811 69.805016 
L 405.806317 69.976693 
L 407.074626 69.814686 
L 409.459046 69.512605 
L 411.843466 69.498199 
L 418.235742 69.505745 
L 434.571557 69.516641 
L 463.133868 69.778525 
L 496.515752 70.007369 
L 531.115212 69.991951 
L 612.642091 69.902593 
L 622.636364 69.909878 
L 622.636364 69.909878 
" style="fill:none;stroke:#be1e3c;stroke-linecap:round;stroke-width:1.5;"/>
   </g>
   <g id="line2d_24">
    <path clip-path="url(#p0e208b10e3)" d="M 115.363636 174.531476 
L 124.596923 174.942646 
L 126.778414 175.023713 
L 126.879879 175.699253 
L 126.981344 176.831355 
L 127.032076 176.710585 
L 127.133541 176.278574 
L 127.235005 177.015686 
L 127.285738 176.772367 
L 127.539399 175.125641 
L 128.300385 173.049246 
L 128.503314 173.11428 
L 128.807708 173.548527 
L 129.670158 174.87664 
L 130.177481 175.224212 
L 130.837002 175.373497 
L 132.663366 175.432335 
L 134.641928 175.288411 
L 137.28001 175.155883 
L 166.603306 174.789165 
L 167.161362 175.010892 
L 167.617953 175.454722 
L 168.226741 176.415481 
L 169.139923 177.810831 
L 169.596514 178.144434 
L 170.002373 178.190574 
L 170.256035 178.089194 
L 170.408232 177.685049 
L 170.509696 178.508349 
L 170.712626 180.799389 
L 170.81409 177.864567 
L 170.915555 172.859707 
L 170.966288 173.275935 
L 171.067752 178.915962 
L 171.118485 178.31705 
L 171.270682 176.178861 
L 171.473611 176.687947 
L 171.67654 176.684494 
L 172.031667 176.979185 
L 172.285329 176.936766 
L 172.74192 176.520847 
L 173.553637 175.818279 
L 174.26389 175.508378 
L 175.582931 175.233099 
L 178.119548 174.917869 
L 183.700106 174.579727 
L 191.208494 174.370008 
L 204.906227 174.23397 
L 225.249898 174.263865 
L 288.766795 174.503063 
L 369.025366 174.405738 
L 369.126831 173.849501 
L 369.380493 170.407794 
L 369.735619 161.859794 
L 370.242942 142.952254 
L 371.815645 78.073883 
L 372.272236 69.143038 
L 372.627363 65.624121 
L 372.931757 64.417369 
L 373.134686 64.288203 
L 373.337616 64.542638 
L 373.692742 65.562989 
L 374.961051 69.746663 
L 375.417642 70.452743 
L 375.823501 70.708924 
L 376.229359 70.717349 
L 376.88888 70.459803 
L 378.258653 69.892189 
L 379.2733 69.756779 
L 381.556256 69.77369 
L 401.595532 70.052149 
L 401.696997 70.16044 
L 401.747729 70.125681 
L 402.001391 69.998106 
L 402.508715 69.83946 
L 403.117503 69.773018 
L 409.459046 69.996672 
L 522.541445 69.913825 
L 622.636364 69.933273 
L 622.636364 69.933273 
" style="fill:none;stroke:#00709b;stroke-linecap:round;stroke-width:1.5;"/>
   </g>
   <g id="patch_3">
    <path d="M 90 200.094545 
L 90 51.84 
" style="fill:none;stroke:#cccccc;stroke-linecap:square;stroke-linejoin:miter;"/>
   </g>
   <g id="patch_4">
    <path d="M 648 200.094545 
L 648 51.84 
" style="fill:none;stroke:#cccccc;stroke-linecap:square;stroke-linejoin:miter;"/>
   </g>
   <g id="patch_5">
    <path d="M 90 200.094545 
L 648 200.094545 
" style="fill:none;stroke:#cccccc;stroke-linecap:square;stroke-linejoin:miter;"/>
   </g>
   <g id="patch_6">
    <path d="M 90 51.84 
L 648 51.84 
" style="fill:none;stroke:#cccccc;stroke-linecap:square;stroke-linejoin:miter;"/>
   </g>
   <g id="text_8">
    <text style="fill:#262626;font-family:Arial;font-size:12px;font-style:normal;font-weight:400;text-anchor:start;" transform="rotate(-0, 90, 45.84)" x="90" y="45.84">T_{amb}=290 K, Q_C = -60 kW</text>
   </g>
   <g id="legend_1">
    <g id="line2d_25">
     <path d="M 514.848438 171.461733 
L 534.848438 171.461733 
" style="fill:none;stroke:#be1e3c;stroke-linecap:round;stroke-width:1.5;"/>
    </g>
    <g id="line2d_26"/>
    <g id="text_9">
     <text style="fill:#262626;font-family:Arial;font-size:10px;font-style:normal;font-weight:400;text-anchor:start;" transform="rotate(-0, 542.848438, 174.961733)" x="542.848438" y="174.961733">Decentralized Control</text>
    </g>
    <g id="line2d_27">
     <path d="M 514.848438 185.607045 
L 534.848438 185.607045 
" style="fill:none;stroke:#00709b;stroke-linecap:round;stroke-width:1.5;"/>
    </g>
    <g id="line2d_28"/>
    <g id="text_10">
     <text style="fill:#262626;font-family:Arial;font-size:10px;font-style:normal;font-weight:400;text-anchor:start;" transform="rotate(-0, 542.848438, 189.107045)" x="542.848438" y="189.107045">R2D2</text>
    </g>
   </g>
  </g>
  <g id="axes_2">
   <g id="patch_7">
    <path d="M 90 378 
L 648 378 
L 648 229.745455 
L 90 229.745455 
z
" style="fill:#ffffff;"/>
   </g>
   <g id="matplotlib.axis_3">
    <g id="xtick_6">
     <g id="line2d_29">
      <path clip-path="url(#p226b190382)" d="M 166.04525 378 
L 166.04525 229.745455 
" style="fill:none;stroke:#cccccc;stroke-linecap:round;stroke-width:0.8;"/>
     </g>
     <g id="line2d_30"/>
     <g id="text_11">
      <text style="fill:#262626;font-family:Arial;font-size:10px;font-style:normal;font-weight:400;text-anchor:middle;" transform="rotate(-0, 166.04525, 388.657812)" x="166.04525" y="388.657812">6000</text>
     </g>
    </g>
    <g id="xtick_7">
     <g id="line2d_31">
      <path clip-path="url(#p226b190382)" d="M 267.509942 378 
L 267.509942 229.745455 
" style="fill:none;stroke:#cccccc;stroke-linecap:round;stroke-width:0.8;"/>
     </g>
     <g id="line2d_32"/>
     <g id="text_12">
      <text style="fill:#262626;font-family:Arial;font-size:10px;font-style:normal;font-weight:400;text-anchor:middle;" transform="rotate(-0, 267.509942, 388.657812)" x="267.509942" y="388.657812">8000</text>
     </g>
    </g>
    <g id="xtick_8">
     <g id="line2d_33">
      <path clip-path="url(#p226b190382)" d="M 368.974634 378 
L 368.974634 229.745455 
" style="fill:none;stroke:#cccccc;stroke-linecap:round;stroke-width:0.8;"/>
     </g>
     <g id="line2d_34"/>
     <g id="text_13">
      <text style="fill:#262626;font-family:Arial;font-size:10px;font-style:normal;font-weight:400;text-anchor:middle;" transform="rotate(-0, 368.974634, 388.657812)" x="368.974634" y="388.657812">10000</text>
     </g>
    </g>
    <g id="xtick_9">
     <g id="line2d_35">
      <path clip-path="url(#p226b190382)" d="M 470.439326 378 
L 470.439326 229.745455 
" style="fill:none;stroke:#cccccc;stroke-linecap:round;stroke-width:0.8;"/>
     </g>
     <g id="line2d_36"/>
     <g id="text_14">
      <text style="fill:#262626;font-family:Arial;font-size:10px;font-style:normal;font-weight:400;text-anchor:middle;" transform="rotate(-0, 470.439326, 388.657812)" x="470.439326" y="388.657812">12000</text>
     </g>
    </g>
    <g id="xtick_10">
     <g id="line2d_37">
      <path clip-path="url(#p226b190382)" d="M 571.904018 378 
L 571.904018 229.745455 
" style="fill:none;stroke:#cccccc;stroke-linecap:round;stroke-width:0.8;"/>
     </g>
     <g id="line2d_38"/>
     <g id="text_15">
      <text style="fill:#262626;font-family:Arial;font-size:10px;font-style:normal;font-weight:400;text-anchor:middle;" transform="rotate(-0, 571.904018, 388.657812)" x="571.904018" y="388.657812">14000</text>
     </g>
    </g>
    <g id="text_16">
     <text style="fill:#262626;font-family:Arial;font-size:10px;font-style:normal;font-weight:400;text-anchor:middle;" transform="rotate(-0, 369, 401.803125)" x="369" y="401.803125">Time [s]</text>
    </g>
   </g>
   <g id="matplotlib.axis_4">
    <g id="ytick_7">
     <g id="line2d_39">
      <path clip-path="url(#p226b190382)" d="M 90 366.318553 
L 648 366.318553 
" style="fill:none;stroke:#cccccc;stroke-linecap:round;stroke-width:0.8;"/>
     </g>
     <g id="line2d_40"/>
     <g id="text_17">
      <text style="fill:#262626;font-family:Arial;font-size:10px;font-style:normal;font-weight:400;text-anchor:end;" transform="rotate(-0, 86.5, 369.89746)" x="86.5" y="369.89746">76.5</text>
     </g>
    </g>
    <g id="ytick_8">
     <g id="line2d_41">
      <path clip-path="url(#p226b190382)" d="M 90 326.914741 
L 648 326.914741 
" style="fill:none;stroke:#cccccc;stroke-linecap:round;stroke-width:0.8;"/>
     </g>
     <g id="line2d_42"/>
     <g id="text_18">
      <text style="fill:#262626;font-family:Arial;font-size:10px;font-style:normal;font-weight:400;text-anchor:end;" transform="rotate(-0, 86.5, 330.493647)" x="86.5" y="330.493647">77.0</text>
     </g>
    </g>
    <g id="ytick_9">
     <g id="line2d_43">
      <path clip-path="url(#p226b190382)" d="M 90 287.510929 
L 648 287.510929 
" style="fill:none;stroke:#cccccc;stroke-linecap:round;stroke-width:0.8;"/>
     </g>
     <g id="line2d_44"/>
     <g id="text_19">
      <text style="fill:#262626;font-family:Arial;font-size:10px;font-style:normal;font-weight:400;text-anchor:end;" transform="rotate(-0, 86.5, 291.089835)" x="86.5" y="291.089835">77.5</text>
     </g>
    </g>
    <g id="ytick_10">
     <g id="line2d_45">
      <path clip-path="url(#p226b190382)" d="M 90 248.107116 
L 648 248.107116 
" style="fill:none;stroke:#cccccc;stroke-linecap:round;stroke-width:0.8;"/>
     </g>
     <g id="line2d_46"/>
     <g id="text_20">
      <text style="fill:#262626;font-family:Arial;font-size:10px;font-style:normal;font-weight:400;text-anchor:end;" transform="rotate(-0, 86.5, 251.686023)" x="86.5" y="251.686023">78.0</text>
     </g>
    </g>
    <g id="text_21">
     <text style="fill:#262626;font-family:Arial;font-size:10px;font-style:normal;font-weight:400;text-anchor:middle;" transform="rotate(-90, 61.051562, 303.872727)" x="61.051562" y="303.872727">Pressure [bar]</text>
    </g>
   </g>
   <g id="line2d_47">
    <path clip-path="url(#p226b190382)" d="M 115.363636 356.543493 
L 118.407577 354.98683 
L 121.350053 353.729373 
L 124.241797 352.735771 
L 127.082808 351.993118 
L 127.285738 351.948786 
L 127.33647 352.114758 
L 127.437935 356.557758 
L 127.590132 366.420406 
L 127.640864 365.403998 
L 127.691596 365.437974 
L 127.843793 371.261157 
L 128.148188 362.423788 
L 129.162834 351.79476 
L 129.619426 349.588518 
L 130.025284 348.615764 
L 130.380411 348.279707 
L 130.735537 348.255608 
L 131.192128 348.495616 
L 132.105311 349.317501 
L 133.272154 350.275827 
L 134.236069 350.772014 
L 135.301448 351.056673 
L 136.975616 351.232105 
L 140.780542 351.608392 
L 147.22355 352.581255 
L 154.275346 353.854602 
L 166.501841 356.14348 
L 166.755503 355.784023 
L 167.059897 354.836884 
L 167.415023 352.877547 
L 167.871614 349.002364 
L 168.531135 341.284145 
L 171.219949 307.403887 
L 172.031667 300.756031 
L 172.843384 295.868077 
L 173.553637 292.459332 
L 173.705834 289.073531 
L 173.807299 298.654106 
L 174.010228 332.292562 
L 174.111693 313.117631 
L 174.26389 266.809216 
L 174.365355 315.656823 
L 174.416087 314.286679 
L 174.568284 292.253174 
L 174.619016 293.017406 
L 174.720481 294.151206 
L 174.923411 291.542559 
L 175.380002 287.030774 
L 175.836593 284.237244 
L 176.242452 282.882795 
L 176.64831 282.241778 
L 177.003437 282.046301 
L 177.460028 282.065638 
L 179.742983 282.528602 
L 180.909827 282.32413 
L 183.446445 281.827152 
L 185.171344 281.766589 
L 187.809426 281.931514 
L 200.796907 282.952542 
L 206.631127 283.101876 
L 212.871205 283.035318 
L 220.024466 282.730088 
L 229.460682 282.087958 
L 253.507814 280.358476 
L 263.045495 279.958681 
L 272.633909 279.78226 
L 283.389166 279.814141 
L 298.304476 280.103383 
L 327.982898 280.705846 
L 345.485558 280.797088 
L 368.974634 280.679346 
L 369.076099 280.357734 
L 369.279028 277.842083 
L 369.684887 268.557897 
L 370.699534 244.537485 
L 371.156125 238.742656 
L 371.511251 236.748594 
L 371.714181 236.484298 
L 371.866378 236.652553 
L 372.069307 237.308154 
L 372.424433 239.442774 
L 372.982489 244.596006 
L 374.352262 260.440403 
L 375.265445 269.477206 
L 375.975698 274.448355 
L 376.584486 277.199399 
L 377.091809 278.566035 
L 377.5484 279.228319 
L 378.004991 279.498595 
L 378.512315 279.502902 
L 379.374765 279.212599 
L 380.338679 278.958545 
L 381.099665 278.993075 
L 381.962114 279.274251 
L 383.687014 280.160058 
L 385.056787 280.72215 
L 386.274364 280.979919 
L 387.796334 281.05795 
L 391.347598 280.928744 
L 398.855986 280.506785 
L 402.863841 280.300583 
L 402.965306 281.120245 
L 403.06677 282.137368 
L 403.117503 282.095221 
L 403.320432 281.346585 
L 403.371164 281.363175 
L 403.523361 281.36158 
L 404.284347 280.778193 
L 405.197529 280.295077 
L 406.212176 280.023604 
L 407.531217 279.919607 
L 421.685541 279.845638 
L 436.296457 279.8903 
L 457.908436 280.215224 
L 488.449309 280.633468 
L 512.090582 280.712545 
L 552.372064 280.572168 
L 599.705343 280.501426 
L 622.636364 280.525309 
L 622.636364 280.525309 
" style="fill:none;stroke:#be1e3c;stroke-linecap:round;stroke-width:1.5;"/>
   </g>
   <g id="line2d_48">
    <path clip-path="url(#p226b190382)" d="M 115.363636 356.511751 
L 118.610507 355.196653 
L 121.70518 354.179616 
L 124.799853 353.396625 
L 126.727682 353.005398 
L 126.778414 353.111546 
L 126.879879 357.138843 
L 127.032076 367.182331 
L 127.133541 365.895753 
L 127.235005 371.221541 
L 127.285738 371.024317 
L 127.640864 359.985434 
L 128.19892 352.285099 
L 128.554046 350.075566 
L 128.807708 349.502456 
L 129.010637 349.460056 
L 129.264299 349.738458 
L 130.735537 351.995379 
L 131.192128 352.134482 
L 131.953113 352.079479 
L 133.119957 352.034604 
L 135.504378 352.325089 
L 143.469356 353.246621 
L 151.028476 354.382857 
L 162.899845 356.434564 
L 166.248179 356.943514 
L 166.451109 356.664839 
L 166.70477 355.725576 
L 167.009165 353.589626 
L 167.465756 348.567152 
L 169.647247 321.579091 
L 170.306767 315.71326 
L 170.408232 313.157507 
L 170.458964 314.042711 
L 170.611161 329.779405 
L 170.712626 338.467981 
L 170.763358 335.382387 
L 170.966288 280.753348 
L 171.01702 294.313291 
L 171.118485 316.452492 
L 171.169217 311.385011 
L 171.270682 304.471423 
L 171.321414 304.940909 
L 171.473611 307.319303 
L 171.524343 307.274174 
L 171.727273 306.593808 
L 171.87947 306.630736 
L 172.183864 305.994821 
L 172.53899 304.833263 
L 173.249243 301.637175 
L 174.365355 296.839533 
L 175.227805 294.116531 
L 176.242452 291.659558 
L 177.409295 289.402158 
L 178.525407 287.697358 
L 179.641519 286.380796 
L 180.859095 285.290948 
L 182.178136 284.41629 
L 183.598642 283.74243 
L 185.222077 283.222743 
L 187.149906 282.847077 
L 189.585059 282.611283 
L 193.034858 282.521829 
L 200.949104 282.61633 
L 209.117012 282.597799 
L 217.132722 282.347645 
L 227.482121 281.784079 
L 252.087309 280.368419 
L 262.639637 280.040268 
L 273.496359 279.929949 
L 286.483839 280.032741 
L 342.390885 280.746973 
L 368.974634 280.636198 
L 369.076099 281.203673 
L 369.126831 281.143662 
L 369.431225 279.696226 
L 369.583422 279.643213 
L 369.735619 280.162735 
L 369.989281 282.275665 
L 370.547337 289.79328 
L 371.105392 296.164756 
L 371.460519 298.145432 
L 371.714181 298.543033 
L 371.866378 298.431942 
L 372.120039 297.779209 
L 372.525898 295.911146 
L 373.946404 288.710131 
L 374.453727 287.310285 
L 374.961051 286.515031 
L 375.519106 286.066258 
L 380.693806 283.299418 
L 382.570903 282.647635 
L 385.056787 282.027909 
L 388.202193 281.486528 
L 392.514442 280.987459 
L 398.754521 280.506074 
L 401.494068 280.378518 
L 401.595532 281.030653 
L 401.696997 281.934895 
L 401.747729 281.907842 
L 402.001391 281.206651 
L 402.153588 281.154519 
L 402.813109 280.545608 
L 403.421897 280.264361 
L 404.182882 280.195311 
L 407.581949 280.131045 
L 414.785942 280.02309 
L 430.31004 280.001948 
L 451.05957 280.219356 
L 489.971279 280.63894 
L 517.569675 280.66929 
L 622.636364 280.535464 
L 622.636364 280.535464 
" style="fill:none;stroke:#00709b;stroke-linecap:round;stroke-width:1.5;"/>
   </g>
   <g id="patch_8">
    <path d="M 90 378 
L 90 229.745455 
" style="fill:none;stroke:#cccccc;stroke-linecap:square;stroke-linejoin:miter;"/>
   </g>
   <g id="patch_9">
    <path d="M 648 378 
L 648 229.745455 
" style="fill:none;stroke:#cccccc;stroke-linecap:square;stroke-linejoin:miter;"/>
   </g>
   <g id="patch_10">
    <path d="M 90 378 
L 648 378 
" style="fill:none;stroke:#cccccc;stroke-linecap:square;stroke-linejoin:miter;"/>
   </g>
   <g id="patch_11">
    <path d="M 90 229.745455 
L 648 229.745455 
" style="fill:none;stroke:#cccccc;stroke-linecap:square;stroke-linejoin:miter;"/>
   </g>
  </g>
 </g>
 <defs>
  <clipPath id="p0e208b10e3">
   <rect height="148.254545" width="558" x="90" y="51.84"/>
  </clipPath>
  <clipPath id="p226b190382">
   <rect height="148.254545" width="558" x="90" y="229.745455"/>
  </clipPath>
 </defs>
</svg>
