<?xml version="1.0" encoding="utf-8" standalone="no"?>
<!DOCTYPE svg PUBLIC "-//W3C//DTD SVG 1.1//EN"
  "http://www.w3.org/Graphics/SVG/1.1/DTD/svg11.dtd">
<!-- Created with matplotlib (http://matplotlib.org/) -->
<svg height="425pt" version="1.1" viewBox="0 0 538 425" width="538pt" xmlns="http://www.w3.org/2000/svg" xmlns:xlink="http://www.w3.org/1999/xlink">
 <defs>
  <style type="text/css">
*{stroke-linecap:butt;stroke-linejoin:round;}
  </style>
 </defs>
 <g id="figure_1">
  <g id="patch_1">
   <path d="M 0 425.19685 
L 538.582677 425.19685 
L 538.582677 0 
L 0 0 
z
" style="fill:#ffffff;"/>
  </g>
  <g id="axes_1">
   <g id="patch_2">
    <path d="M 67.322835 196.94345 
L 484.724409 196.94345 
L 484.724409 51.023622 
L 67.322835 51.023622 
z
" style="fill:#ffffff;"/>
   </g>
   <g id="matplotlib.axis_1">
    <g id="xtick_1">
     <g id="line2d_1">
      <path clip-path="url(#pf5f5ca799b)" d="M 90.424235 196.94345 
L 90.424235 51.023622 
" style="fill:none;stroke:#cccccc;stroke-linecap:round;stroke-width:0.8;"/>
     </g>
     <g id="line2d_2"/>
    </g>
    <g id="xtick_2">
     <g id="line2d_3">
      <path clip-path="url(#pf5f5ca799b)" d="M 173.830318 196.94345 
L 173.830318 51.023622 
" style="fill:none;stroke:#cccccc;stroke-linecap:round;stroke-width:0.8;"/>
     </g>
     <g id="line2d_4"/>
    </g>
    <g id="xtick_3">
     <g id="line2d_5">
      <path clip-path="url(#pf5f5ca799b)" d="M 257.236402 196.94345 
L 257.236402 51.023622 
" style="fill:none;stroke:#cccccc;stroke-linecap:round;stroke-width:0.8;"/>
     </g>
     <g id="line2d_6"/>
    </g>
    <g id="xtick_4">
     <g id="line2d_7">
      <path clip-path="url(#pf5f5ca799b)" d="M 340.642485 196.94345 
L 340.642485 51.023622 
" style="fill:none;stroke:#cccccc;stroke-linecap:round;stroke-width:0.8;"/>
     </g>
     <g id="line2d_8"/>
    </g>
    <g id="xtick_5">
     <g id="line2d_9">
      <path clip-path="url(#pf5f5ca799b)" d="M 424.048569 196.94345 
L 424.048569 51.023622 
" style="fill:none;stroke:#cccccc;stroke-linecap:round;stroke-width:0.8;"/>
     </g>
     <g id="line2d_10"/>
    </g>
   </g>
   <g id="matplotlib.axis_2">
    <g id="ytick_1">
     <g id="line2d_11">
      <path clip-path="url(#pf5f5ca799b)" d="M 67.322835 190.55451 
L 484.724409 190.55451 
" style="fill:none;stroke:#cccccc;stroke-linecap:round;stroke-width:0.8;"/>
     </g>
     <g id="line2d_12"/>
     <g id="text_1">
      <text style="fill:#262626;font-family:Arial;font-size:10px;font-style:normal;font-weight:400;text-anchor:end;" transform="rotate(-0, 63.822835, 194.133416)" x="63.822835" y="194.133416">292.50</text>
     </g>
    </g>
    <g id="ytick_2">
     <g id="line2d_13">
      <path clip-path="url(#pf5f5ca799b)" d="M 67.322835 169.25457 
L 484.724409 169.25457 
" style="fill:none;stroke:#cccccc;stroke-linecap:round;stroke-width:0.8;"/>
     </g>
     <g id="line2d_14"/>
     <g id="text_2">
      <text style="fill:#262626;font-family:Arial;font-size:10px;font-style:normal;font-weight:400;text-anchor:end;" transform="rotate(-0, 63.822835, 172.833476)" x="63.822835" y="172.833476">292.75</text>
     </g>
    </g>
    <g id="ytick_3">
     <g id="line2d_15">
      <path clip-path="url(#pf5f5ca799b)" d="M 67.322835 147.95463 
L 484.724409 147.95463 
" style="fill:none;stroke:#cccccc;stroke-linecap:round;stroke-width:0.8;"/>
     </g>
     <g id="line2d_16"/>
     <g id="text_3">
      <text style="fill:#262626;font-family:Arial;font-size:10px;font-style:normal;font-weight:400;text-anchor:end;" transform="rotate(-0, 63.822835, 151.533536)" x="63.822835" y="151.533536">293.00</text>
     </g>
    </g>
    <g id="ytick_4">
     <g id="line2d_17">
      <path clip-path="url(#pf5f5ca799b)" d="M 67.322835 126.65469 
L 484.724409 126.65469 
" style="fill:none;stroke:#cccccc;stroke-linecap:round;stroke-width:0.8;"/>
     </g>
     <g id="line2d_18"/>
     <g id="text_4">
      <text style="fill:#262626;font-family:Arial;font-size:10px;font-style:normal;font-weight:400;text-anchor:end;" transform="rotate(-0, 63.822835, 130.233596)" x="63.822835" y="130.233596">293.25</text>
     </g>
    </g>
    <g id="ytick_5">
     <g id="line2d_19">
      <path clip-path="url(#pf5f5ca799b)" d="M 67.322835 105.35475 
L 484.724409 105.35475 
" style="fill:none;stroke:#cccccc;stroke-linecap:round;stroke-width:0.8;"/>
     </g>
     <g id="line2d_20"/>
     <g id="text_5">
      <text style="fill:#262626;font-family:Arial;font-size:10px;font-style:normal;font-weight:400;text-anchor:end;" transform="rotate(-0, 63.822835, 108.933656)" x="63.822835" y="108.933656">293.50</text>
     </g>
    </g>
    <g id="ytick_6">
     <g id="line2d_21">
      <path clip-path="url(#pf5f5ca799b)" d="M 67.322835 84.054809 
L 484.724409 84.054809 
" style="fill:none;stroke:#cccccc;stroke-linecap:round;stroke-width:0.8;"/>
     </g>
     <g id="line2d_22"/>
     <g id="text_6">
      <text style="fill:#262626;font-family:Arial;font-size:10px;font-style:normal;font-weight:400;text-anchor:end;" transform="rotate(-0, 63.822835, 87.633716)" x="63.822835" y="87.633716">293.75</text>
     </g>
    </g>
    <g id="ytick_7">
     <g id="line2d_23">
      <path clip-path="url(#pf5f5ca799b)" d="M 67.322835 62.754869 
L 484.724409 62.754869 
" style="fill:none;stroke:#cccccc;stroke-linecap:round;stroke-width:0.8;"/>
     </g>
     <g id="line2d_24"/>
     <g id="text_7">
      <text style="fill:#262626;font-family:Arial;font-size:10px;font-style:normal;font-weight:400;text-anchor:end;" transform="rotate(-0, 63.822835, 66.333775)" x="63.822835" y="66.333775">294.00</text>
     </g>
    </g>
    <g id="text_8">
     <text style="fill:#262626;font-family:Arial;font-size:10px;font-style:normal;font-weight:400;text-anchor:middle;" transform="rotate(-90, 27.252522, 123.983536)" x="27.252522" y="123.983536">Temperature [K]</text>
    </g>
   </g>
   <g id="line2d_25">
    <path clip-path="url(#pf5f5ca799b)" d="M 86.295634 139.043097 
L 88.631004 138.980836 
L 90.465938 139.126721 
L 90.591047 139.896944 
L 90.882968 143.576135 
L 91.466811 154.571331 
L 92.342575 170.838061 
L 92.717902 174.412856 
L 92.96812 175.202739 
L 93.093229 175.11438 
L 93.260041 174.512522 
L 93.51026 172.637982 
L 93.885587 167.925227 
L 94.46943 157.292736 
L 96.38777 119.847679 
L 96.929909 114.164022 
L 97.34694 111.786145 
L 97.638861 111.096373 
L 97.847376 111.06118 
L 98.055891 111.378429 
L 98.347813 112.357488 
L 98.764843 114.674452 
L 99.390389 119.609262 
L 102.184492 143.586193 
L 102.851741 146.780172 
L 103.393881 148.389914 
L 103.852614 149.111606 
L 104.227941 149.314654 
L 104.561566 149.242262 
L 104.936893 148.92319 
L 105.479033 148.125372 
L 106.3965 146.289589 
L 107.647591 143.888332 
L 108.356543 142.987295 
L 108.940385 142.585119 
L 109.440822 142.486203 
L 109.982961 142.611556 
L 110.608507 143.003691 
L 111.484271 143.853953 
L 114.278375 146.77081 
L 115.279248 147.392194 
L 116.280121 147.754292 
L 117.572915 147.966959 
L 121.07597 148.423099 
L 123.244529 149.039871 
L 126.747584 150.033849 
L 129.29147 150.488378 
L 133.461774 150.967802 
L 137.79889 151.274605 
L 141.593867 151.311703 
L 146.056092 151.125224 
L 151.10216 150.688857 
L 157.524429 149.891868 
L 175.248222 147.57806 
L 181.461975 147.066623 
L 187.508916 146.793935 
L 193.847778 146.735034 
L 201.145811 146.898539 
L 211.571571 147.379727 
L 228.753224 148.166284 
L 238.84536 148.381554 
L 249.604745 148.38078 
L 257.278105 148.261995 
L 257.403214 147.925542 
L 257.611729 146.466334 
L 257.945353 142.168266 
L 258.404087 132.823139 
L 259.071336 113.83021 
L 260.614348 68.320578 
L 261.114785 60.296376 
L 261.448409 57.924379 
L 261.615221 57.656342 
L 261.74033 57.837583 
L 261.948845 58.869138 
L 262.240767 61.721358 
L 262.657797 68.27557 
L 263.325046 83.045953 
L 265.994041 147.052443 
L 266.702992 157.239056 
L 267.245132 162.255995 
L 267.703865 164.711139 
L 268.03749 165.561259 
L 268.287708 165.714133 
L 268.496223 165.547623 
L 268.788144 164.911705 
L 269.205175 163.322179 
L 269.83072 159.896265 
L 272.040982 146.912917 
L 272.70823 144.554297 
L 273.25037 143.342873 
L 273.709103 142.784607 
L 274.084431 142.619049 
L 274.459758 142.684597 
L 274.918491 143.027171 
L 275.502334 143.774806 
L 276.586613 145.617827 
L 277.837704 147.612836 
L 278.630062 148.474141 
L 279.297311 148.891796 
L 279.922856 149.037028 
L 280.590105 148.96885 
L 281.424166 148.651222 
L 284.843815 147.085407 
L 285.886391 146.99244 
L 287.137483 147.112207 
L 291.76652 147.764586 
L 294.393812 147.702269 
L 297.980274 147.669776 
L 316.996861 148.065173 
L 333.594671 148.133937 
L 360.076103 147.962051 
L 387.266486 147.891246 
L 465.751611 147.953483 
L 465.751611 147.953483 
" style="fill:none;stroke:#be1e3c;stroke-linecap:round;stroke-width:1.5;"/>
   </g>
   <g id="line2d_26">
    <path clip-path="url(#pf5f5ca799b)" d="M 86.295634 149.142303 
L 90.465938 149.173563 
L 90.591047 149.912088 
L 90.924671 154.007047 
L 91.508514 164.86221 
L 92.55109 184.61922 
L 92.96812 188.8333 
L 93.260041 190.13807 
L 93.426854 190.310731 
L 93.551963 190.186834 
L 93.760478 189.536666 
L 94.094102 187.489908 
L 94.594539 182.646384 
L 95.512006 170.965682 
L 96.721394 156.286166 
L 97.430346 150.203601 
L 98.014188 146.939496 
L 98.514625 145.2435 
L 98.931655 144.484402 
L 99.306983 144.215956 
L 99.640607 144.239303 
L 100.057637 144.527867 
L 100.683183 145.300771 
L 102.810038 148.188065 
L 103.560693 148.756605 
L 104.311348 149.047527 
L 105.145408 149.116867 
L 106.271391 148.957632 
L 109.982961 148.279729 
L 112.651956 148.159619 
L 122.076843 147.818008 
L 132.794525 147.570645 
L 143.887534 147.540222 
L 158.650411 147.745307 
L 183.505424 148.089525 
L 201.729653 148.075551 
L 253.608237 147.912017 
L 257.319808 147.842245 
L 257.48662 147.118939 
L 257.778541 144.383814 
L 258.278978 136.914341 
L 259.40496 119.355369 
L 259.82199 116.07105 
L 260.113912 115.148289 
L 260.280724 115.102938 
L 260.447536 115.379229 
L 260.697754 116.332105 
L 261.073082 118.750646 
L 261.698627 124.464249 
L 263.450155 141.173852 
L 264.159107 145.725971 
L 264.784652 148.405104 
L 265.326792 149.822998 
L 265.785525 150.478209 
L 266.202556 150.727443 
L 266.619586 150.72225 
L 267.120023 150.476692 
L 267.91238 149.792315 
L 269.622205 148.270031 
L 270.497969 147.809958 
L 271.373733 147.596988 
L 272.458012 147.580861 
L 274.62657 147.848149 
L 276.920237 148.017892 
L 280.464996 147.997775 
L 289.597962 147.985435 
L 465.751611 147.954452 
L 465.751611 147.954452 
" style="fill:none;stroke:#00709b;stroke-linecap:round;stroke-width:1.5;"/>
   </g>
   <g id="patch_3">
    <path d="M 67.322835 196.94345 
L 67.322835 51.023622 
" style="fill:none;stroke:#cccccc;stroke-linecap:square;stroke-linejoin:miter;"/>
   </g>
   <g id="patch_4">
    <path d="M 484.724409 196.94345 
L 484.724409 51.023622 
" style="fill:none;stroke:#cccccc;stroke-linecap:square;stroke-linejoin:miter;"/>
   </g>
   <g id="patch_5">
    <path d="M 67.322835 196.94345 
L 484.724409 196.94345 
" style="fill:none;stroke:#cccccc;stroke-linecap:square;stroke-linejoin:miter;"/>
   </g>
   <g id="patch_6">
    <path d="M 67.322835 51.023622 
L 484.724409 51.023622 
" style="fill:none;stroke:#cccccc;stroke-linecap:square;stroke-linejoin:miter;"/>
   </g>
   <g id="text_9">
    <text style="fill:#262626;font-family:Arial;font-size:12px;font-style:normal;font-weight:400;text-anchor:start;" transform="rotate(-0, 67.322835, 45.023622)" x="67.322835" y="45.023622">T_{amb}=290 K, Q_C = -50000 W</text>
   </g>
   <g id="legend_1">
    <g id="line2d_27">
     <path d="M 351.572847 168.310638 
L 371.572847 168.310638 
" style="fill:none;stroke:#be1e3c;stroke-linecap:round;stroke-width:1.5;"/>
    </g>
    <g id="line2d_28"/>
    <g id="text_10">
     <text style="fill:#262626;font-family:Arial;font-size:10px;font-style:normal;font-weight:400;text-anchor:start;" transform="rotate(-0, 379.572847, 171.810638)" x="379.572847" y="171.810638">Decentralized Control</text>
    </g>
    <g id="line2d_29">
     <path d="M 351.572847 182.45595 
L 371.572847 182.45595 
" style="fill:none;stroke:#00709b;stroke-linecap:round;stroke-width:1.5;"/>
    </g>
    <g id="line2d_30"/>
    <g id="text_11">
     <text style="fill:#262626;font-family:Arial;font-size:10px;font-style:normal;font-weight:400;text-anchor:start;" transform="rotate(-0, 379.572847, 185.95595)" x="379.572847" y="185.95595">R2D2</text>
    </g>
   </g>
  </g>
  <g id="axes_2">
   <g id="patch_7">
    <path d="M 67.322835 372.047244 
L 484.724409 372.047244 
L 484.724409 226.127416 
L 67.322835 226.127416 
z
" style="fill:#ffffff;"/>
   </g>
   <g id="matplotlib.axis_3">
    <g id="xtick_6">
     <g id="line2d_31">
      <path clip-path="url(#p1771e5954d)" d="M 90.424235 372.047244 
L 90.424235 226.127416 
" style="fill:none;stroke:#cccccc;stroke-linecap:round;stroke-width:0.8;"/>
     </g>
     <g id="line2d_32"/>
     <g id="text_12">
      <text style="fill:#262626;font-family:Arial;font-size:10px;font-style:normal;font-weight:400;text-anchor:middle;" transform="rotate(-0, 90.424235, 382.705057)" x="90.424235" y="382.705057">6000</text>
     </g>
    </g>
    <g id="xtick_7">
     <g id="line2d_33">
      <path clip-path="url(#p1771e5954d)" d="M 173.830318 372.047244 
L 173.830318 226.127416 
" style="fill:none;stroke:#cccccc;stroke-linecap:round;stroke-width:0.8;"/>
     </g>
     <g id="line2d_34"/>
     <g id="text_13">
      <text style="fill:#262626;font-family:Arial;font-size:10px;font-style:normal;font-weight:400;text-anchor:middle;" transform="rotate(-0, 173.830318, 382.705057)" x="173.830318" y="382.705057">8000</text>
     </g>
    </g>
    <g id="xtick_8">
     <g id="line2d_35">
      <path clip-path="url(#p1771e5954d)" d="M 257.236402 372.047244 
L 257.236402 226.127416 
" style="fill:none;stroke:#cccccc;stroke-linecap:round;stroke-width:0.8;"/>
     </g>
     <g id="line2d_36"/>
     <g id="text_14">
      <text style="fill:#262626;font-family:Arial;font-size:10px;font-style:normal;font-weight:400;text-anchor:middle;" transform="rotate(-0, 257.236402, 382.705057)" x="257.236402" y="382.705057">10000</text>
     </g>
    </g>
    <g id="xtick_9">
     <g id="line2d_37">
      <path clip-path="url(#p1771e5954d)" d="M 340.642485 372.047244 
L 340.642485 226.127416 
" style="fill:none;stroke:#cccccc;stroke-linecap:round;stroke-width:0.8;"/>
     </g>
     <g id="line2d_38"/>
     <g id="text_15">
      <text style="fill:#262626;font-family:Arial;font-size:10px;font-style:normal;font-weight:400;text-anchor:middle;" transform="rotate(-0, 340.642485, 382.705057)" x="340.642485" y="382.705057">12000</text>
     </g>
    </g>
    <g id="xtick_10">
     <g id="line2d_39">
      <path clip-path="url(#p1771e5954d)" d="M 424.048569 372.047244 
L 424.048569 226.127416 
" style="fill:none;stroke:#cccccc;stroke-linecap:round;stroke-width:0.8;"/>
     </g>
     <g id="line2d_40"/>
     <g id="text_16">
      <text style="fill:#262626;font-family:Arial;font-size:10px;font-style:normal;font-weight:400;text-anchor:middle;" transform="rotate(-0, 424.048569, 382.705057)" x="424.048569" y="382.705057">14000</text>
     </g>
    </g>
    <g id="text_17">
     <text style="fill:#262626;font-family:Arial;font-size:10px;font-style:normal;font-weight:400;text-anchor:middle;" transform="rotate(-0, 276.023622, 395.850369)" x="276.023622" y="395.850369">Time [s]</text>
    </g>
   </g>
   <g id="matplotlib.axis_4">
    <g id="ytick_8">
     <g id="line2d_41">
      <path clip-path="url(#p1771e5954d)" d="M 67.322835 367.421347 
L 484.724409 367.421347 
" style="fill:none;stroke:#cccccc;stroke-linecap:round;stroke-width:0.8;"/>
     </g>
     <g id="line2d_42"/>
     <g id="text_18">
      <text style="fill:#262626;font-family:Arial;font-size:10px;font-style:normal;font-weight:400;text-anchor:end;" transform="rotate(-0, 63.822835, 371.000253)" x="63.822835" y="371.000253">68.00</text>
     </g>
    </g>
    <g id="ytick_9">
     <g id="line2d_43">
      <path clip-path="url(#p1771e5954d)" d="M 67.322835 341.429916 
L 484.724409 341.429916 
" style="fill:none;stroke:#cccccc;stroke-linecap:round;stroke-width:0.8;"/>
     </g>
     <g id="line2d_44"/>
     <g id="text_19">
      <text style="fill:#262626;font-family:Arial;font-size:10px;font-style:normal;font-weight:400;text-anchor:end;" transform="rotate(-0, 63.822835, 345.008822)" x="63.822835" y="345.008822">68.25</text>
     </g>
    </g>
    <g id="ytick_10">
     <g id="line2d_45">
      <path clip-path="url(#p1771e5954d)" d="M 67.322835 315.438485 
L 484.724409 315.438485 
" style="fill:none;stroke:#cccccc;stroke-linecap:round;stroke-width:0.8;"/>
     </g>
     <g id="line2d_46"/>
     <g id="text_20">
      <text style="fill:#262626;font-family:Arial;font-size:10px;font-style:normal;font-weight:400;text-anchor:end;" transform="rotate(-0, 63.822835, 319.017391)" x="63.822835" y="319.017391">68.50</text>
     </g>
    </g>
    <g id="ytick_11">
     <g id="line2d_47">
      <path clip-path="url(#p1771e5954d)" d="M 67.322835 289.447053 
L 484.724409 289.447053 
" style="fill:none;stroke:#cccccc;stroke-linecap:round;stroke-width:0.8;"/>
     </g>
     <g id="line2d_48"/>
     <g id="text_21">
      <text style="fill:#262626;font-family:Arial;font-size:10px;font-style:normal;font-weight:400;text-anchor:end;" transform="rotate(-0, 63.822835, 293.025959)" x="63.822835" y="293.025959">68.75</text>
     </g>
    </g>
    <g id="ytick_12">
     <g id="line2d_49">
      <path clip-path="url(#p1771e5954d)" d="M 67.322835 263.455622 
L 484.724409 263.455622 
" style="fill:none;stroke:#cccccc;stroke-linecap:round;stroke-width:0.8;"/>
     </g>
     <g id="line2d_50"/>
     <g id="text_22">
      <text style="fill:#262626;font-family:Arial;font-size:10px;font-style:normal;font-weight:400;text-anchor:end;" transform="rotate(-0, 63.822835, 267.034528)" x="63.822835" y="267.034528">69.00</text>
     </g>
    </g>
    <g id="ytick_13">
     <g id="line2d_51">
      <path clip-path="url(#p1771e5954d)" d="M 67.322835 237.464191 
L 484.724409 237.464191 
" style="fill:none;stroke:#cccccc;stroke-linecap:round;stroke-width:0.8;"/>
     </g>
     <g id="line2d_52"/>
     <g id="text_23">
      <text style="fill:#262626;font-family:Arial;font-size:10px;font-style:normal;font-weight:400;text-anchor:end;" transform="rotate(-0, 63.822835, 241.043097)" x="63.822835" y="241.043097">69.25</text>
     </g>
    </g>
    <g id="text_24">
     <text style="fill:#262626;font-family:Arial;font-size:10px;font-style:normal;font-weight:400;text-anchor:middle;" transform="rotate(-90, 32.81346, 299.08733)" x="32.81346" y="299.08733">Pressure [bar]</text>
    </g>
   </g>
   <g id="line2d_53">
    <path clip-path="url(#p1771e5954d)" d="M 86.295634 310.709324 
L 89.173143 310.897429 
L 90.424235 311.036845 
L 90.841265 307.885116 
L 91.008077 304.162473 
L 91.466811 286.806532 
L 92.55109 244.194114 
L 92.96812 235.628023 
L 93.260041 233.047929 
L 93.426854 232.768943 
L 93.551963 233.098949 
L 93.760478 234.60591 
L 94.094102 239.210411 
L 94.594539 249.961414 
L 96.888206 304.835305 
L 97.680564 318.26797 
L 98.30611 325.404129 
L 98.806546 328.850001 
L 99.181873 330.20336 
L 99.473795 330.597899 
L 99.68231 330.569028 
L 99.932528 330.267051 
L 100.266152 329.402078 
L 100.724886 327.505447 
L 101.475541 323.285328 
L 103.227068 313.169225 
L 103.894317 310.623467 
L 104.436457 309.334631 
L 104.853487 308.818703 
L 105.228814 308.683884 
L 105.562439 308.799746 
L 105.979469 309.212149 
L 106.521609 310.09724 
L 107.397373 312.022491 
L 109.065494 315.707059 
L 109.857852 316.918882 
L 110.525101 317.572302 
L 111.150646 317.8962 
L 111.817895 317.984567 
L 112.610253 317.844312 
L 114.236671 317.244046 
L 115.44606 316.93684 
L 116.446933 316.90983 
L 117.531212 317.106855 
L 119.115927 317.653308 
L 121.701516 318.535747 
L 123.453044 318.870547 
L 125.996929 319.092336 
L 137.590375 319.745015 
L 143.220286 319.60624 
L 148.975305 319.243503 
L 157.274211 318.468879 
L 171.995384 317.080781 
L 179.33512 316.641985 
L 186.424637 316.443331 
L 194.097996 316.456753 
L 203.814805 316.711308 
L 232.006061 317.577273 
L 244.099944 317.634496 
L 257.236402 317.511361 
L 257.319808 317.087693 
L 257.48662 313.424459 
L 257.861947 297.840916 
L 258.570899 270.166136 
L 258.946226 263.174195 
L 259.154742 262.027361 
L 259.238148 262.0974 
L 259.363257 262.740682 
L 259.571772 265.149224 
L 259.905396 271.988379 
L 260.447536 288.604988 
L 262.28247 349.147347 
L 262.782906 358.78861 
L 263.199937 363.47769 
L 263.533561 365.146993 
L 263.742076 365.414525 
L 263.867185 365.274504 
L 264.075701 364.551328 
L 264.367622 362.595491 
L 264.826355 357.665227 
L 265.493604 347.650118 
L 266.869804 322.738913 
L 267.620459 310.840712 
L 268.162599 305.207307 
L 268.621332 302.451942 
L 268.954956 301.501365 
L 269.205175 301.299777 
L 269.41369 301.425577 
L 269.705611 301.987278 
L 270.122642 303.411495 
L 270.78989 306.654762 
L 271.415436 309.421348 
L 273.208667 317.093901 
L 273.959321 319.29714 
L 274.543164 320.381226 
L 275.043601 320.871189 
L 275.460631 320.994942 
L 275.877661 320.893222 
L 276.378098 320.527978 
L 277.08705 319.693172 
L 279.672638 316.340582 
L 280.423293 315.852902 
L 281.090542 315.669135 
L 281.799493 315.69834 
L 282.675257 315.967032 
L 286.428531 317.400173 
L 287.637919 317.451986 
L 289.347744 317.270768 
L 292.141848 316.98097 
L 294.310406 317.017421 
L 300.607565 317.256181 
L 310.866513 317.363731 
L 329.507773 317.44325 
L 360.743351 317.301554 
L 392.812991 317.277646 
L 465.751611 317.309213 
L 465.751611 317.309213 
" style="fill:none;stroke:#be1e3c;stroke-linecap:round;stroke-width:1.5;"/>
   </g>
   <g id="line2d_54">
    <path clip-path="url(#p1771e5954d)" d="M 86.295634 312.107415 
L 89.715283 312.442809 
L 90.424235 312.53777 
L 90.799562 309.497731 
L 91.133186 301.069215 
L 92.092356 274.218408 
L 92.384278 271.571349 
L 92.467684 271.423266 
L 92.509387 271.445363 
L 92.634496 271.876582 
L 92.843011 273.691698 
L 93.218338 279.589596 
L 95.136678 314.600228 
L 95.637115 318.590442 
L 96.054145 320.372343 
L 96.220957 320.529028 
L 96.637988 320.431675 
L 97.22183 319.939167 
L 98.472922 318.589894 
L 99.598904 316.974607 
L 100.766589 315.421342 
L 101.475541 314.832412 
L 102.142789 314.565911 
L 102.810038 314.535955 
L 103.644099 314.728435 
L 105.187111 315.369353 
L 107.23056 316.148503 
L 109.1489 316.619727 
L 113.777938 317.425151 
L 119.866582 318.357498 
L 124.745838 318.859947 
L 129.750203 319.152238 
L 134.963083 319.231529 
L 140.718103 319.091538 
L 147.682511 318.687828 
L 161.527921 317.59255 
L 171.036214 316.978703 
L 178.959792 316.691681 
L 187.133589 316.622895 
L 196.975506 316.775213 
L 233.63248 317.557704 
L 249.020902 317.497394 
L 257.278105 317.324561 
L 257.403214 315.577648 
L 257.653432 307.309103 
L 258.362384 282.173249 
L 258.654305 278.13337 
L 258.779414 277.700514 
L 258.821117 277.714148 
L 258.946226 278.185981 
L 259.154742 280.196444 
L 259.571772 287.111775 
L 260.489239 302.786882 
L 260.947972 307.011014 
L 261.3233 308.607649 
L 261.615221 309.016657 
L 261.865439 308.996917 
L 262.240767 308.646072 
L 262.866312 308.156511 
L 263.24164 308.135037 
L 263.575264 308.341913 
L 263.992294 308.874961 
L 264.61784 310.083984 
L 267.07832 315.241591 
L 267.870677 316.263503 
L 268.621332 316.892896 
L 269.371987 317.246763 
L 270.247751 317.405473 
L 271.457139 317.371464 
L 275.58574 317.10242 
L 307.280052 317.292729 
L 338.849254 317.3569 
L 454.116462 317.314125 
L 465.751611 317.311125 
L 465.751611 317.311125 
" style="fill:none;stroke:#00709b;stroke-linecap:round;stroke-width:1.5;"/>
   </g>
   <g id="patch_8">
    <path d="M 67.322835 372.047244 
L 67.322835 226.127416 
" style="fill:none;stroke:#cccccc;stroke-linecap:square;stroke-linejoin:miter;"/>
   </g>
   <g id="patch_9">
    <path d="M 484.724409 372.047244 
L 484.724409 226.127416 
" style="fill:none;stroke:#cccccc;stroke-linecap:square;stroke-linejoin:miter;"/>
   </g>
   <g id="patch_10">
    <path d="M 67.322835 372.047244 
L 484.724409 372.047244 
" style="fill:none;stroke:#cccccc;stroke-linecap:square;stroke-linejoin:miter;"/>
   </g>
   <g id="patch_11">
    <path d="M 67.322835 226.127416 
L 484.724409 226.127416 
" style="fill:none;stroke:#cccccc;stroke-linecap:square;stroke-linejoin:miter;"/>
   </g>
  </g>
 </g>
 <defs>
  <clipPath id="pf5f5ca799b">
   <rect height="145.919828" width="417.401575" x="67.322835" y="51.023622"/>
  </clipPath>
  <clipPath id="p1771e5954d">
   <rect height="145.919828" width="417.401575" x="67.322835" y="226.127416"/>
  </clipPath>
 </defs>
</svg>
