<?xml version="1.0" encoding="utf-8" standalone="no"?>
<!DOCTYPE svg PUBLIC "-//W3C//DTD SVG 1.1//EN"
  "http://www.w3.org/Graphics/SVG/1.1/DTD/svg11.dtd">
<!-- Created with matplotlib (http://matplotlib.org/) -->
<svg height="540pt" version="1.1" viewBox="0 0 540 540" width="540pt" xmlns="http://www.w3.org/2000/svg" xmlns:xlink="http://www.w3.org/1999/xlink">
 <defs>
  <style type="text/css">
*{stroke-linecap:butt;stroke-linejoin:round;}
  </style>
 </defs>
 <g id="figure_1">
  <g id="patch_1">
   <path d="M 0 540 
L 540 540 
L 540 0 
L 0 0 
z
" style="fill:#ffffff;"/>
  </g>
  <g id="axes_1">
   <g id="patch_2">
    <path d="M 67.5 472.5 
L 486 472.5 
L 486 64.8 
L 67.5 64.8 
z
" style="fill:#ffffff;"/>
   </g>
   <g id="matplotlib.axis_1">
    <g id="xtick_1">
     <g id="line2d_1">
      <path clip-path="url(#p0c0ea6454f)" d="M 103.759046 472.5 
L 103.759046 64.8 
" style="fill:none;stroke:#cccccc;stroke-linecap:round;stroke-width:0.8;"/>
     </g>
     <g id="line2d_2"/>
     <g id="text_1">
      <text style="fill:#262626;font-family:Arial;font-size:10px;font-style:normal;font-weight:400;text-anchor:middle;" transform="rotate(-0, 103.759046, 483.157812)" x="103.759046" y="483.157812">−0.10</text>
     </g>
    </g>
    <g id="xtick_2">
     <g id="line2d_3">
      <path clip-path="url(#p0c0ea6454f)" d="M 179.384334 472.5 
L 179.384334 64.8 
" style="fill:none;stroke:#cccccc;stroke-linecap:round;stroke-width:0.8;"/>
     </g>
     <g id="line2d_4"/>
     <g id="text_2">
      <text style="fill:#262626;font-family:Arial;font-size:10px;font-style:normal;font-weight:400;text-anchor:middle;" transform="rotate(-0, 179.384334, 483.157812)" x="179.384334" y="483.157812">−0.08</text>
     </g>
    </g>
    <g id="xtick_3">
     <g id="line2d_5">
      <path clip-path="url(#p0c0ea6454f)" d="M 255.009621 472.5 
L 255.009621 64.8 
" style="fill:none;stroke:#cccccc;stroke-linecap:round;stroke-width:0.8;"/>
     </g>
     <g id="line2d_6"/>
     <g id="text_3">
      <text style="fill:#262626;font-family:Arial;font-size:10px;font-style:normal;font-weight:400;text-anchor:middle;" transform="rotate(-0, 255.009621, 483.157812)" x="255.009621" y="483.157812">−0.06</text>
     </g>
    </g>
    <g id="xtick_4">
     <g id="line2d_7">
      <path clip-path="url(#p0c0ea6454f)" d="M 330.634909 472.5 
L 330.634909 64.8 
" style="fill:none;stroke:#cccccc;stroke-linecap:round;stroke-width:0.8;"/>
     </g>
     <g id="line2d_8"/>
     <g id="text_4">
      <text style="fill:#262626;font-family:Arial;font-size:10px;font-style:normal;font-weight:400;text-anchor:middle;" transform="rotate(-0, 330.634909, 483.157812)" x="330.634909" y="483.157812">−0.04</text>
     </g>
    </g>
    <g id="xtick_5">
     <g id="line2d_9">
      <path clip-path="url(#p0c0ea6454f)" d="M 406.260196 472.5 
L 406.260196 64.8 
" style="fill:none;stroke:#cccccc;stroke-linecap:round;stroke-width:0.8;"/>
     </g>
     <g id="line2d_10"/>
     <g id="text_5">
      <text style="fill:#262626;font-family:Arial;font-size:10px;font-style:normal;font-weight:400;text-anchor:middle;" transform="rotate(-0, 406.260196, 483.157812)" x="406.260196" y="483.157812">−0.02</text>
     </g>
    </g>
    <g id="xtick_6">
     <g id="line2d_11">
      <path clip-path="url(#p0c0ea6454f)" d="M 481.885484 472.5 
L 481.885484 64.8 
" style="fill:none;stroke:#cccccc;stroke-linecap:round;stroke-width:0.8;"/>
     </g>
     <g id="line2d_12"/>
     <g id="text_6">
      <text style="fill:#262626;font-family:Arial;font-size:10px;font-style:normal;font-weight:400;text-anchor:middle;" transform="rotate(-0, 481.885484, 483.157812)" x="481.885484" y="483.157812">0.00</text>
     </g>
    </g>
    <g id="text_7">
     <text style="fill:#262626;font-family:Arial;font-size:10px;font-style:normal;font-weight:400;text-anchor:middle;" transform="rotate(-0, 276.75, 496.303125)" x="276.75" y="496.303125">Re</text>
    </g>
   </g>
   <g id="matplotlib.axis_2">
    <g id="ytick_1">
     <g id="line2d_13">
      <path clip-path="url(#p0c0ea6454f)" d="M 67.5 470.127927 
L 486 470.127927 
" style="fill:none;stroke:#cccccc;stroke-linecap:round;stroke-width:0.8;"/>
     </g>
     <g id="line2d_14"/>
     <g id="text_8">
      <text style="fill:#262626;font-family:Arial;font-size:10px;font-style:normal;font-weight:400;text-anchor:end;" transform="rotate(-0, 64, 473.706834)" x="64" y="473.706834">−0.008</text>
     </g>
    </g>
    <g id="ytick_2">
     <g id="line2d_15">
      <path clip-path="url(#p0c0ea6454f)" d="M 67.5 419.758445 
L 486 419.758445 
" style="fill:none;stroke:#cccccc;stroke-linecap:round;stroke-width:0.8;"/>
     </g>
     <g id="line2d_16"/>
     <g id="text_9">
      <text style="fill:#262626;font-family:Arial;font-size:10px;font-style:normal;font-weight:400;text-anchor:end;" transform="rotate(-0, 64, 423.337352)" x="64" y="423.337352">−0.006</text>
     </g>
    </g>
    <g id="ytick_3">
     <g id="line2d_17">
      <path clip-path="url(#p0c0ea6454f)" d="M 67.5 369.388964 
L 486 369.388964 
" style="fill:none;stroke:#cccccc;stroke-linecap:round;stroke-width:0.8;"/>
     </g>
     <g id="line2d_18"/>
     <g id="text_10">
      <text style="fill:#262626;font-family:Arial;font-size:10px;font-style:normal;font-weight:400;text-anchor:end;" transform="rotate(-0, 64, 372.96787)" x="64" y="372.96787">−0.004</text>
     </g>
    </g>
    <g id="ytick_4">
     <g id="line2d_19">
      <path clip-path="url(#p0c0ea6454f)" d="M 67.5 319.019482 
L 486 319.019482 
" style="fill:none;stroke:#cccccc;stroke-linecap:round;stroke-width:0.8;"/>
     </g>
     <g id="line2d_20"/>
     <g id="text_11">
      <text style="fill:#262626;font-family:Arial;font-size:10px;font-style:normal;font-weight:400;text-anchor:end;" transform="rotate(-0, 64, 322.598388)" x="64" y="322.598388">−0.002</text>
     </g>
    </g>
    <g id="ytick_5">
     <g id="line2d_21">
      <path clip-path="url(#p0c0ea6454f)" d="M 67.5 268.65 
L 486 268.65 
" style="fill:none;stroke:#cccccc;stroke-linecap:round;stroke-width:0.8;"/>
     </g>
     <g id="line2d_22"/>
     <g id="text_12">
      <text style="fill:#262626;font-family:Arial;font-size:10px;font-style:normal;font-weight:400;text-anchor:end;" transform="rotate(-0, 64, 272.228906)" x="64" y="272.228906">0.000</text>
     </g>
    </g>
    <g id="ytick_6">
     <g id="line2d_23">
      <path clip-path="url(#p0c0ea6454f)" d="M 67.5 218.280518 
L 486 218.280518 
" style="fill:none;stroke:#cccccc;stroke-linecap:round;stroke-width:0.8;"/>
     </g>
     <g id="line2d_24"/>
     <g id="text_13">
      <text style="fill:#262626;font-family:Arial;font-size:10px;font-style:normal;font-weight:400;text-anchor:end;" transform="rotate(-0, 64, 221.859424)" x="64" y="221.859424">0.002</text>
     </g>
    </g>
    <g id="ytick_7">
     <g id="line2d_25">
      <path clip-path="url(#p0c0ea6454f)" d="M 67.5 167.911036 
L 486 167.911036 
" style="fill:none;stroke:#cccccc;stroke-linecap:round;stroke-width:0.8;"/>
     </g>
     <g id="line2d_26"/>
     <g id="text_14">
      <text style="fill:#262626;font-family:Arial;font-size:10px;font-style:normal;font-weight:400;text-anchor:end;" transform="rotate(-0, 64, 171.489943)" x="64" y="171.489943">0.004</text>
     </g>
    </g>
    <g id="ytick_8">
     <g id="line2d_27">
      <path clip-path="url(#p0c0ea6454f)" d="M 67.5 117.541555 
L 486 117.541555 
" style="fill:none;stroke:#cccccc;stroke-linecap:round;stroke-width:0.8;"/>
     </g>
     <g id="line2d_28"/>
     <g id="text_15">
      <text style="fill:#262626;font-family:Arial;font-size:10px;font-style:normal;font-weight:400;text-anchor:end;" transform="rotate(-0, 64, 121.120461)" x="64" y="121.120461">0.006</text>
     </g>
    </g>
    <g id="ytick_9">
     <g id="line2d_29">
      <path clip-path="url(#p0c0ea6454f)" d="M 67.5 67.172073 
L 486 67.172073 
" style="fill:none;stroke:#cccccc;stroke-linecap:round;stroke-width:0.8;"/>
     </g>
     <g id="line2d_30"/>
     <g id="text_16">
      <text style="fill:#262626;font-family:Arial;font-size:10px;font-style:normal;font-weight:400;text-anchor:end;" transform="rotate(-0, 64, 70.750979)" x="64" y="70.750979">0.008</text>
     </g>
    </g>
    <g id="text_17">
     <text style="fill:#262626;font-family:Arial;font-size:10px;font-style:normal;font-weight:400;text-anchor:middle;" transform="rotate(-90, 27.15, 268.65)" x="27.15" y="268.65">Im</text>
    </g>
   </g>
   <g id="PathCollection_1">
    <defs>
     <path d="M 0 3 
C 0.795609 3 1.55874 2.683901 2.12132 2.12132 
C 2.683901 1.55874 3 0.795609 3 0 
C 3 -0.795609 2.683901 -1.55874 2.12132 -2.12132 
C 1.55874 -2.683901 0.795609 -3 0 -3 
C -0.795609 -3 -1.55874 -2.683901 -2.12132 -2.12132 
C -2.683901 -1.55874 -3 -0.795609 -3 0 
C -3 0.795609 -2.683901 1.55874 -2.12132 2.12132 
C -1.55874 2.683901 -0.795609 3 0 3 
z
" id="m7f8fab3206" style="stroke:#be1e3c;"/>
    </defs>
    <g clip-path="url(#p0c0ea6454f)">
     <use style="fill:#be1e3c;stroke:#be1e3c;" x="439.871435" xlink:href="#m7f8fab3206" y="268.65"/>
    </g>
   </g>
   <g id="PathCollection_2">
    <defs>
     <path d="M 0 3 
C 0.795609 3 1.55874 2.683901 2.12132 2.12132 
C 2.683901 1.55874 3 0.795609 3 0 
C 3 -0.795609 2.683901 -1.55874 2.12132 -2.12132 
C 1.55874 -2.683901 0.795609 -3 0 -3 
C -0.795609 -3 -1.55874 -2.683901 -2.12132 -2.12132 
C -2.683901 -1.55874 -3 -0.795609 -3 0 
C -3 0.795609 -2.683901 1.55874 -2.12132 2.12132 
C -1.55874 2.683901 -0.795609 3 0 3 
z
" id="mdc0d9b9fed" style="stroke:#ffc82a;"/>
    </defs>
    <g clip-path="url(#p0c0ea6454f)">
     <use style="fill:#ffc82a;stroke:#ffc82a;" x="397.857388" xlink:href="#mdc0d9b9fed" y="268.65"/>
     <use style="fill:#ffc82a;stroke:#ffc82a;" x="397.857385" xlink:href="#mdc0d9b9fed" y="268.65"/>
    </g>
   </g>
   <g id="PathCollection_3">
    <defs>
     <path d="M 0 3 
C 0.795609 3 1.55874 2.683901 2.12132 2.12132 
C 2.683901 1.55874 3 0.795609 3 0 
C 3 -0.795609 2.683901 -1.55874 2.12132 -2.12132 
C 1.55874 -2.683901 0.795609 -3 0 -3 
C -0.795609 -3 -1.55874 -2.683901 -2.12132 -2.12132 
C -2.683901 -1.55874 -3 -0.795609 -3 0 
C -3 0.795609 -2.683901 1.55874 -2.12132 2.12132 
C -1.55874 2.683901 -0.795609 3 0 3 
z
" id="md28fa9f2bd" style="stroke:#e16d00;"/>
    </defs>
    <g clip-path="url(#p0c0ea6454f)">
     <use style="fill:#e16d00;stroke:#e16d00;" x="355.84399" xlink:href="#md28fa9f2bd" y="268.642479"/>
     <use style="fill:#e16d00;stroke:#e16d00;" x="355.84399" xlink:href="#md28fa9f2bd" y="268.657521"/>
     <use style="fill:#e16d00;stroke:#e16d00;" x="355.842034" xlink:href="#md28fa9f2bd" y="268.65"/>
    </g>
   </g>
   <g id="PathCollection_4">
    <defs>
     <path d="M 0 3 
C 0.795609 3 1.55874 2.683901 2.12132 2.12132 
C 2.683901 1.55874 3 0.795609 3 0 
C 3 -0.795609 2.683901 -1.55874 2.12132 -2.12132 
C 1.55874 -2.683901 0.795609 -3 0 -3 
C -0.795609 -3 -1.55874 -2.683901 -2.12132 -2.12132 
C -2.683901 -1.55874 -3 -0.795609 -3 0 
C -3 0.795609 -2.683901 1.55874 -2.12132 2.12132 
C -1.55874 2.683901 -0.795609 3 0 3 
z
" id="m53bb13ce0e" style="stroke:#711c2f;"/>
    </defs>
    <g clip-path="url(#p0c0ea6454f)">
     <use style="fill:#711c2f;stroke:#711c2f;" x="309.97073" xlink:href="#m53bb13ce0e" y="268.65"/>
     <use style="fill:#711c2f;stroke:#711c2f;" x="310.009831" xlink:href="#m53bb13ce0e" y="268.389584"/>
     <use style="fill:#711c2f;stroke:#711c2f;" x="310.009831" xlink:href="#m53bb13ce0e" y="268.910416"/>
     <use style="fill:#711c2f;stroke:#711c2f;" x="310.048928" xlink:href="#m53bb13ce0e" y="268.65"/>
    </g>
   </g>
   <g id="PathCollection_5">
    <defs>
     <path d="M 0 3 
C 0.795609 3 1.55874 2.683901 2.12132 2.12132 
C 2.683901 1.55874 3 0.795609 3 0 
C 3 -0.795609 2.683901 -1.55874 2.12132 -2.12132 
C 1.55874 -2.683901 0.795609 -3 0 -3 
C -0.795609 -3 -1.55874 -2.683901 -2.12132 -2.12132 
C -2.683901 -1.55874 -3 -0.795609 -3 0 
C -3 0.795609 -2.683901 1.55874 -2.12132 2.12132 
C -1.55874 2.683901 -0.795609 3 0 3 
z
" id="m27d04e9e74" style="stroke:#acc13a;"/>
    </defs>
    <g clip-path="url(#p0c0ea6454f)">
     <use style="fill:#acc13a;stroke:#acc13a;" x="271.579763" xlink:href="#m27d04e9e74" y="268.65"/>
     <use style="fill:#acc13a;stroke:#acc13a;" x="271.742392" xlink:href="#m27d04e9e74" y="267.158205"/>
     <use style="fill:#acc13a;stroke:#acc13a;" x="271.742392" xlink:href="#m27d04e9e74" y="270.141795"/>
     <use style="fill:#acc13a;stroke:#acc13a;" x="272.005828" xlink:href="#m27d04e9e74" y="267.727385"/>
     <use style="fill:#acc13a;stroke:#acc13a;" x="272.005828" xlink:href="#m27d04e9e74" y="269.572615"/>
    </g>
   </g>
   <g id="PathCollection_6">
    <defs>
     <path d="M 0 3 
C 0.795609 3 1.55874 2.683901 2.12132 2.12132 
C 2.683901 1.55874 3 0.795609 3 0 
C 3 -0.795609 2.683901 -1.55874 2.12132 -2.12132 
C 1.55874 -2.683901 0.795609 -3 0 -3 
C -0.795609 -3 -1.55874 -2.683901 -2.12132 -2.12132 
C -2.683901 -1.55874 -3 -0.795609 -3 0 
C -3 0.795609 -2.683901 1.55874 -2.12132 2.12132 
C -1.55874 2.683901 -0.795609 3 0 3 
z
" id="m76f3e36f75" style="stroke:#6d8300;"/>
    </defs>
    <g clip-path="url(#p0c0ea6454f)">
     <use style="fill:#6d8300;stroke:#6d8300;" x="228.799288" xlink:href="#m76f3e36f75" y="268.65"/>
     <use style="fill:#6d8300;stroke:#6d8300;" x="229.303576" xlink:href="#m76f3e36f75" y="262.870964"/>
     <use style="fill:#6d8300;stroke:#6d8300;" x="229.303576" xlink:href="#m76f3e36f75" y="274.429036"/>
     <use style="fill:#6d8300;stroke:#6d8300;" x="230.302138" xlink:href="#m76f3e36f75" y="262.909386"/>
     <use style="fill:#6d8300;stroke:#6d8300;" x="230.302138" xlink:href="#m76f3e36f75" y="274.390614"/>
     <use style="fill:#6d8300;stroke:#6d8300;" x="230.796435" xlink:href="#m76f3e36f75" y="268.65"/>
    </g>
   </g>
   <g id="PathCollection_7">
    <defs>
     <path d="M 0 3 
C 0.795609 3 1.55874 2.683901 2.12132 2.12132 
C 2.683901 1.55874 3 0.795609 3 0 
C 3 -0.795609 2.683901 -1.55874 2.12132 -2.12132 
C 1.55874 -2.683901 0.795609 -3 0 -3 
C -0.795609 -3 -1.55874 -2.683901 -2.12132 -2.12132 
C -2.683901 -1.55874 -3 -0.795609 -3 0 
C -3 0.795609 -2.683901 1.55874 -2.12132 2.12132 
C -1.55874 2.683901 -0.795609 3 0 3 
z
" id="m52bd1cf738" style="stroke:#00534a;"/>
    </defs>
    <g clip-path="url(#p0c0ea6454f)">
     <use style="fill:#00534a;stroke:#00534a;" x="164.703405" xlink:href="#m52bd1cf738" y="268.65"/>
     <use style="fill:#00534a;stroke:#00534a;" x="165.650778" xlink:href="#m52bd1cf738" y="257.372499"/>
     <use style="fill:#00534a;stroke:#00534a;" x="165.650778" xlink:href="#m52bd1cf738" y="279.927501"/>
     <use style="fill:#00534a;stroke:#00534a;" x="167.509122" xlink:href="#m52bd1cf738" y="257.008022"/>
     <use style="fill:#00534a;stroke:#00534a;" x="167.509122" xlink:href="#m52bd1cf738" y="280.291978"/>
     <use style="fill:#00534a;stroke:#00534a;" x="168.218815" xlink:href="#m52bd1cf738" y="266.432987"/>
     <use style="fill:#00534a;stroke:#00534a;" x="168.218815" xlink:href="#m52bd1cf738" y="270.867013"/>
    </g>
   </g>
   <g id="PathCollection_8">
    <defs>
     <path d="M 0 3 
C 0.795609 3 1.55874 2.683901 2.12132 2.12132 
C 2.683901 1.55874 3 0.795609 3 0 
C 3 -0.795609 2.683901 -1.55874 2.12132 -2.12132 
C 1.55874 -2.683901 0.795609 -3 0 -3 
C -0.795609 -3 -1.55874 -2.683901 -2.12132 -2.12132 
C -2.683901 -1.55874 -3 -0.795609 -3 0 
C -3 0.795609 -2.683901 1.55874 -2.12132 2.12132 
C -1.55874 2.683901 -0.795609 3 0 3 
z
" id="m87e35fa6ed" style="stroke:#66b4d3;"/>
    </defs>
    <g clip-path="url(#p0c0ea6454f)">
     <use style="fill:#66b4d3;stroke:#66b4d3;" x="132.98822" xlink:href="#m87e35fa6ed" y="253.873736"/>
     <use style="fill:#66b4d3;stroke:#66b4d3;" x="132.98822" xlink:href="#m87e35fa6ed" y="283.426264"/>
     <use style="fill:#66b4d3;stroke:#66b4d3;" x="136.221167" xlink:href="#m87e35fa6ed" y="234.304799"/>
     <use style="fill:#66b4d3;stroke:#66b4d3;" x="136.221167" xlink:href="#m87e35fa6ed" y="302.995201"/>
     <use style="fill:#66b4d3;stroke:#66b4d3;" x="140.381367" xlink:href="#m87e35fa6ed" y="236.502505"/>
     <use style="fill:#66b4d3;stroke:#66b4d3;" x="140.381367" xlink:href="#m87e35fa6ed" y="300.797495"/>
     <use style="fill:#66b4d3;stroke:#66b4d3;" x="142.945953" xlink:href="#m87e35fa6ed" y="256.128721"/>
     <use style="fill:#66b4d3;stroke:#66b4d3;" x="142.945953" xlink:href="#m87e35fa6ed" y="281.171279"/>
    </g>
   </g>
   <g id="PathCollection_9">
    <defs>
     <path d="M 0 3 
C 0.795609 3 1.55874 2.683901 2.12132 2.12132 
C 2.683901 1.55874 3 0.795609 3 0 
C 3 -0.795609 2.683901 -1.55874 2.12132 -2.12132 
C 1.55874 -2.683901 0.795609 -3 0 -3 
C -0.795609 -3 -1.55874 -2.683901 -2.12132 -2.12132 
C -2.683901 -1.55874 -3 -0.795609 -3 0 
C -3 0.795609 -2.683901 1.55874 -2.12132 2.12132 
C -1.55874 2.683901 -0.795609 3 0 3 
z
" id="m192c584328" style="stroke:#00709b;"/>
    </defs>
    <g clip-path="url(#p0c0ea6454f)">
     <use style="fill:#00709b;stroke:#00709b;" x="89.175245" xlink:href="#m192c584328" y="232.575182"/>
     <use style="fill:#00709b;stroke:#00709b;" x="89.175245" xlink:href="#m192c584328" y="304.724818"/>
     <use style="fill:#00709b;stroke:#00709b;" x="96.267736" xlink:href="#m192c584328" y="178.829376"/>
     <use style="fill:#00709b;stroke:#00709b;" x="96.267736" xlink:href="#m192c584328" y="358.470624"/>
     <use style="fill:#00709b;stroke:#00709b;" x="106.684984" xlink:href="#m192c584328" y="169.104663"/>
     <use style="fill:#00709b;stroke:#00709b;" x="106.684984" xlink:href="#m192c584328" y="368.195337"/>
     <use style="fill:#00709b;stroke:#00709b;" x="115.41233" xlink:href="#m192c584328" y="205.126653"/>
     <use style="fill:#00709b;stroke:#00709b;" x="115.41233" xlink:href="#m192c584328" y="332.173347"/>
     <use style="fill:#00709b;stroke:#00709b;" x="118.750825" xlink:href="#m192c584328" y="268.65"/>
    </g>
   </g>
   <g id="patch_3">
    <path d="M 67.5 472.5 
L 67.5 64.8 
" style="fill:none;stroke:#cccccc;stroke-linecap:square;stroke-linejoin:miter;"/>
   </g>
   <g id="patch_4">
    <path d="M 486 472.5 
L 486 64.8 
" style="fill:none;stroke:#cccccc;stroke-linecap:square;stroke-linejoin:miter;"/>
   </g>
   <g id="patch_5">
    <path d="M 67.5 472.5 
L 486 472.5 
" style="fill:none;stroke:#cccccc;stroke-linecap:square;stroke-linejoin:miter;"/>
   </g>
   <g id="patch_6">
    <path d="M 67.5 64.8 
L 486 64.8 
" style="fill:none;stroke:#cccccc;stroke-linecap:square;stroke-linejoin:miter;"/>
   </g>
   <g id="legend_1">
    <g id="PathCollection_10">
     <g>
      <use style="fill:#be1e3c;stroke:#be1e3c;" x="425.101562" xlink:href="#m7f8fab3206" y="78.332813"/>
     </g>
    </g>
    <g id="text_18">
     <text style="fill:#262626;font-family:Arial;font-size:10px;font-style:normal;font-weight:400;text-anchor:start;" transform="rotate(-0, 443.101562, 80.957813)" x="443.101562" y="80.957813">Order 1</text>
    </g>
    <g id="PathCollection_11">
     <g>
      <use style="fill:#ffc82a;stroke:#ffc82a;" x="425.101562" xlink:href="#mdc0d9b9fed" y="92.478125"/>
     </g>
    </g>
    <g id="text_19">
     <text style="fill:#262626;font-family:Arial;font-size:10px;font-style:normal;font-weight:400;text-anchor:start;" transform="rotate(-0, 443.101562, 95.103125)" x="443.101562" y="95.103125">Order 2</text>
    </g>
    <g id="PathCollection_12">
     <g>
      <use style="fill:#e16d00;stroke:#e16d00;" x="425.101562" xlink:href="#md28fa9f2bd" y="106.623438"/>
     </g>
    </g>
    <g id="text_20">
     <text style="fill:#262626;font-family:Arial;font-size:10px;font-style:normal;font-weight:400;text-anchor:start;" transform="rotate(-0, 443.101562, 109.248438)" x="443.101562" y="109.248438">Order 3</text>
    </g>
    <g id="PathCollection_13">
     <g>
      <use style="fill:#711c2f;stroke:#711c2f;" x="425.101562" xlink:href="#m53bb13ce0e" y="120.76875"/>
     </g>
    </g>
    <g id="text_21">
     <text style="fill:#262626;font-family:Arial;font-size:10px;font-style:normal;font-weight:400;text-anchor:start;" transform="rotate(-0, 443.101562, 123.39375)" x="443.101562" y="123.39375">Order 4</text>
    </g>
    <g id="PathCollection_14">
     <g>
      <use style="fill:#acc13a;stroke:#acc13a;" x="425.101562" xlink:href="#m27d04e9e74" y="134.914063"/>
     </g>
    </g>
    <g id="text_22">
     <text style="fill:#262626;font-family:Arial;font-size:10px;font-style:normal;font-weight:400;text-anchor:start;" transform="rotate(-0, 443.101562, 137.539063)" x="443.101562" y="137.539063">Order 5</text>
    </g>
    <g id="PathCollection_15">
     <g>
      <use style="fill:#6d8300;stroke:#6d8300;" x="425.101562" xlink:href="#m76f3e36f75" y="149.059375"/>
     </g>
    </g>
    <g id="text_23">
     <text style="fill:#262626;font-family:Arial;font-size:10px;font-style:normal;font-weight:400;text-anchor:start;" transform="rotate(-0, 443.101562, 151.684375)" x="443.101562" y="151.684375">Order 6</text>
    </g>
    <g id="PathCollection_16">
     <g>
      <use style="fill:#00534a;stroke:#00534a;" x="425.101562" xlink:href="#m52bd1cf738" y="163.204688"/>
     </g>
    </g>
    <g id="text_24">
     <text style="fill:#262626;font-family:Arial;font-size:10px;font-style:normal;font-weight:400;text-anchor:start;" transform="rotate(-0, 443.101562, 165.829688)" x="443.101562" y="165.829688">Order 7</text>
    </g>
    <g id="PathCollection_17">
     <g>
      <use style="fill:#66b4d3;stroke:#66b4d3;" x="425.101562" xlink:href="#m87e35fa6ed" y="177.35"/>
     </g>
    </g>
    <g id="text_25">
     <text style="fill:#262626;font-family:Arial;font-size:10px;font-style:normal;font-weight:400;text-anchor:start;" transform="rotate(-0, 443.101562, 179.975)" x="443.101562" y="179.975">Order 8</text>
    </g>
    <g id="PathCollection_18">
     <g>
      <use style="fill:#00709b;stroke:#00709b;" x="425.101562" xlink:href="#m192c584328" y="191.495313"/>
     </g>
    </g>
    <g id="text_26">
     <text style="fill:#262626;font-family:Arial;font-size:10px;font-style:normal;font-weight:400;text-anchor:start;" transform="rotate(-0, 443.101562, 194.120313)" x="443.101562" y="194.120313">Order 9</text>
    </g>
   </g>
  </g>
 </g>
 <defs>
  <clipPath id="p0c0ea6454f">
   <rect height="407.7" width="418.5" x="67.5" y="64.8"/>
  </clipPath>
 </defs>
</svg>
