<svg version="1.1" xmlns="http://www.w3.org/2000/svg" xmlns:xlink="http://www.w3.org/1999/xlink" width="300" height="300" style="width: 300px; height: 300px;"><defs/><g><g/><g transform="scale(1,1) translate(0.5,0.5)"><rect fill="#FFFFFF" stroke="none" x="0" y="0" width="300" height="300"/><rect fill="#ffffff" stroke="none" x="0" y="0" width="300" height="300"/><rect fill="#FFFFFF" stroke="none" x="5" y="5" width="290" height="290"/><rect fill="#ffffff" stroke="none" x="5" y="5" width="290" height="290"/><g><rect fill="none" stroke="#e5e5e5" x="5" y="5" width="290" height="290" stroke-miterlimit="10"/></g><g><g fill="rgb(190,30,60)" fill-opacity="0.27"><path fill="none" stroke="none"/><path fill="" stroke="none" d=""/><g transform="translate(150,150) rotate(-29.999999999999996,0,0)"><path fill="" stroke="none" d=" M -26.363636363636367 0 C -26.363636363636367 58.18813090909091 -14.54703272727273 105.45454545454544 0 105.45454545454544 C 14.54703272727273 105.45454545454544 26.363636363636367 58.18813090909091 26.363636363636367 0 C 26.363636363636367 -58.18813090909091 14.54703272727273 -105.45454545454544 0 -105.45454545454544 C -14.54703272727273 -105.45454545454544 -26.363636363636367 -58.18813090909091 -26.363636363636367 0"/><g transform="rotate(29.999999999999996,0,0) translate(-150,-150)" fill=""/></g></g><g stroke="rgb(190,30,60)" stroke-opacity="0.9" stroke-miterlimit="10" stroke-dasharray="6"><path fill="none" stroke="none"/><path fill="none" stroke="" d=""/><g transform="translate(150,150) rotate(-29.999999999999996,0,0)"><path fill="none" stroke="" d=" M -26.363636363636367 0 C -26.363636363636367 58.18813090909091 -14.54703272727273 105.45454545454544 0 105.45454545454544 C 14.54703272727273 105.45454545454544 26.363636363636367 58.18813090909091 26.363636363636367 0 C 26.363636363636367 -58.18813090909091 14.54703272727273 -105.45454545454544 0 -105.45454545454544 C -14.54703272727273 -105.45454545454544 -26.363636363636367 -58.18813090909091 -26.363636363636367 0"/><g transform="rotate(29.999999999999996,0,0) translate(-150,-150)" stroke=""/></g></g></g><g><g/><g stroke="rgb(190,30,60)" stroke-opacity="0.9" stroke-miterlimit="10" stroke-dasharray="6"><path fill="#ffffff" stroke="#e5e5e5" paint-order="fill stroke markers" d=" M 15 245 L 226.09375 245 L 226.09375 285 L 15 285 L 15 245 Z" fill-opacity="0.95" stroke-miterlimit="10" stroke-opacity="0.5"/><text fill="#444444" stroke="none" font-family="helvetica" font-size="10pt" font-style="normal" font-weight="normal" text-decoration="normal" x="50" y="265" text-anchor="start" dominant-baseline="central">Maximum Singular Value</text><path fill="none" stroke="" d=""/><g transform="translate(35,265) rotate(-29.999999999999996,0,0)"><path fill="none" stroke="" d=" M -2.0000000000000004 0 C -2.0000000000000004 4.414272 -1.1035680000000003 8 0 8 C 1.1035680000000003 8 2.0000000000000004 4.414272 2.0000000000000004 0 C 2.0000000000000004 -4.414272 1.1035680000000003 -8 0 -8 C -1.1035680000000003 -8 -2.0000000000000004 -4.414272 -2.0000000000000004 0"/><g transform="rotate(29.999999999999996,0,0) translate(-35,-265)" stroke=""/></g></g><g><g transform="translate(281.8181818181818,150) rotate(90,0,0)"><path fill="black" stroke="none" paint-order="stroke fill markers" d=" M 5 10 L 0 0 L -5 10 Z"/><path fill="none" stroke="black" paint-order="fill stroke markers" d=" M 5 10 L 0 0 L -5 10 Z" stroke-miterlimit="10"/></g><path fill="none" stroke="none"/><g transform="translate(281.8181818181818,150) rotate(90,0,0)"><path fill="none" stroke="none"/></g></g></g></g></g></svg>