<?xml version="1.0" encoding="UTF-8" standalone="no"?>
<!-- Created with matplotlib (http://matplotlib.org/) -->

<svg
   xmlns:dc="http://purl.org/dc/elements/1.1/"
   xmlns:cc="http://creativecommons.org/ns#"
   xmlns:rdf="http://www.w3.org/1999/02/22-rdf-syntax-ns#"
   xmlns:svg="http://www.w3.org/2000/svg"
   xmlns="http://www.w3.org/2000/svg"
   xmlns:sodipodi="http://sodipodi.sourceforge.net/DTD/sodipodi-0.dtd"
   xmlns:inkscape="http://www.inkscape.org/namespaces/inkscape"
   height="432pt"
   version="1.1"
   viewBox="0 0 720 432"
   width="720pt"
   id="svg2373"
   sodipodi:docname="DisturbanceRejectionExample.svg"
   inkscape:version="0.92.2 (5c3e80d, 2017-08-06)">
  <metadata
     id="metadata2377">
    <rdf:RDF>
      <cc:Work
         rdf:about="">
        <dc:format>image/svg+xml</dc:format>
        <dc:type
           rdf:resource="http://purl.org/dc/dcmitype/StillImage" />
      </cc:Work>
    </rdf:RDF>
  </metadata>
  <sodipodi:namedview
     pagecolor="#ffffff"
     bordercolor="#666666"
     borderopacity="1"
     objecttolerance="10"
     gridtolerance="10"
     guidetolerance="10"
     inkscape:pageopacity="0"
     inkscape:pageshadow="2"
     inkscape:window-width="1366"
     inkscape:window-height="705"
     id="namedview2375"
     showgrid="false"
     inkscape:zoom="0.84558186"
     inkscape:cx="562.299"
     inkscape:cy="249.51569"
     inkscape:window-x="-8"
     inkscape:window-y="301"
     inkscape:window-maximized="1"
     inkscape:current-layer="svg2373" />
  <defs
     id="defs2123">
    <style
       type="text/css"
       id="style2121">
*{stroke-linecap:butt;stroke-linejoin:round;}
  </style>
  </defs>
  <g
     id="figure_1">
    <g
       id="patch_1">
      <path
         d="M 0 432  L 720 432  L 720 0  L 0 0  z "
         style="fill:#ffffff;"
         id="path2125" />
    </g>
    <g
       id="axes_1">
      <g
         id="patch_2">
        <path
           d="M 90 200.094545  L 648 200.094545  L 648 51.84  L 90 51.84  z "
           style="fill:#ffffff;"
           id="path2128" />
      </g>
      <g
         id="matplotlib.axis_1">
        <g
           id="xtick_1">
          <g
             id="line2d_1">
            <path
               clip-path="url(#p1492f1524e)"
               d="M 166.04525 200.094545  L 166.04525 51.84  "
               style="fill:none;stroke:#cccccc;stroke-linecap:round;stroke-width:0.8;"
               id="path2131" />
          </g>
          <g
             id="line2d_2" />
        </g>
        <g
           id="xtick_2">
          <g
             id="line2d_3">
            <path
               clip-path="url(#p1492f1524e)"
               d="M 267.509942 200.094545  L 267.509942 51.84  "
               style="fill:none;stroke:#cccccc;stroke-linecap:round;stroke-width:0.8;"
               id="path2136" />
          </g>
          <g
             id="line2d_4" />
        </g>
        <g
           id="xtick_3">
          <g
             id="line2d_5">
            <path
               clip-path="url(#p1492f1524e)"
               d="M 368.974634 200.094545  L 368.974634 51.84  "
               style="fill:none;stroke:#cccccc;stroke-linecap:round;stroke-width:0.8;"
               id="path2141" />
          </g>
          <g
             id="line2d_6" />
        </g>
        <g
           id="xtick_4">
          <g
             id="line2d_7">
            <path
               clip-path="url(#p1492f1524e)"
               d="M 470.439326 200.094545  L 470.439326 51.84  "
               style="fill:none;stroke:#cccccc;stroke-linecap:round;stroke-width:0.8;"
               id="path2146" />
          </g>
          <g
             id="line2d_8" />
        </g>
        <g
           id="xtick_5">
          <g
             id="line2d_9">
            <path
               clip-path="url(#p1492f1524e)"
               d="M 571.904018 200.094545  L 571.904018 51.84  "
               style="fill:none;stroke:#cccccc;stroke-linecap:round;stroke-width:0.8;"
               id="path2151" />
          </g>
          <g
             id="line2d_10" />
        </g>
      </g>
      <g
         id="matplotlib.axis_2">
        <g
           id="ytick_1">
          <g
             id="line2d_11">
            <path
               clip-path="url(#p1492f1524e)"
               d="M 90 199.872658  L 648 199.872658  "
               style="fill:none;stroke:#cccccc;stroke-linecap:round;stroke-width:0.8;"
               id="path2157" />
          </g>
          <g
             id="line2d_12" />
          <g
             id="text_1">
            <text
               style="fill:#262626;font-family:Arial;font-size:10px;font-style:normal;font-weight:400;text-anchor:end;"
               transform="rotate(-0, 86.5, 203.451565)"
               x="86.5"
               y="203.451565"
               id="text2161">292.6</text>
          </g>
        </g>
        <g
           id="ytick_2">
          <g
             id="line2d_13">
            <path
               clip-path="url(#p1492f1524e)"
               d="M 90 166.369596  L 648 166.369596  "
               style="fill:none;stroke:#cccccc;stroke-linecap:round;stroke-width:0.8;"
               id="path2165" />
          </g>
          <g
             id="line2d_14" />
          <g
             id="text_2">
            <text
               style="fill:#262626;font-family:Arial;font-size:10px;font-style:normal;font-weight:400;text-anchor:end;"
               transform="rotate(-0, 86.5, 169.948502)"
               x="86.5"
               y="169.948502"
               id="text2169">292.8</text>
          </g>
        </g>
        <g
           id="ytick_3">
          <g
             id="line2d_15">
            <path
               clip-path="url(#p1492f1524e)"
               d="M 90 132.866533  L 648 132.866533  "
               style="fill:none;stroke:#cccccc;stroke-linecap:round;stroke-width:0.8;"
               id="path2173" />
          </g>
          <g
             id="line2d_16" />
          <g
             id="text_3">
            <text
               style="fill:#262626;font-family:Arial;font-size:10px;font-style:normal;font-weight:400;text-anchor:end;"
               transform="rotate(-0, 86.5, 136.445439)"
               x="86.5"
               y="136.445439"
               id="text2177">293.0</text>
          </g>
        </g>
        <g
           id="ytick_4">
          <g
             id="line2d_17">
            <path
               clip-path="url(#p1492f1524e)"
               d="M 90 99.36347  L 648 99.36347  "
               style="fill:none;stroke:#cccccc;stroke-linecap:round;stroke-width:0.8;"
               id="path2181" />
          </g>
          <g
             id="line2d_18" />
          <g
             id="text_4">
            <text
               style="fill:#262626;font-family:Arial;font-size:10px;font-style:normal;font-weight:400;text-anchor:end;"
               transform="rotate(-0, 86.5, 102.942377)"
               x="86.5"
               y="102.942377"
               id="text2185">293.2</text>
          </g>
        </g>
        <g
           id="ytick_5">
          <g
             id="line2d_19">
            <path
               clip-path="url(#p1492f1524e)"
               d="M 90 65.860408  L 648 65.860408  "
               style="fill:none;stroke:#cccccc;stroke-linecap:round;stroke-width:0.8;"
               id="path2189" />
          </g>
          <g
             id="line2d_20" />
          <g
             id="text_5">
            <text
               style="fill:#262626;font-family:Arial;font-size:10px;font-style:normal;font-weight:400;text-anchor:end;"
               transform="rotate(-0, 86.5, 69.439314)"
               x="86.5"
               y="69.439314"
               id="text2193">293.4</text>
          </g>
        </g>
        <g
           id="text_6">
          <text
             style="fill:#262626;font-family:Arial;font-size:10px;font-style:normal;font-weight:400;text-anchor:middle;"
             transform="rotate(-90, 55.490625, 125.967273)"
             x="55.490625"
             y="125.967273"
             id="text2197">Temperature [K]</text>
        </g>
      </g>
      <g
         id="line2d_21">
        <path
           clip-path="url(#p1492f1524e)"
           d="M 115.363636 128.01916  L 118.711971 127.840826  L 122.212503 127.893209  L 126.930611 128.193695  L 131.547255 128.712774  L 138.091727 129.696492  L 158.790525 132.973457  L 165.334997 133.680917  L 166.095982 133.84081  L 166.248179 135.33533  L 166.603306 142.483727  L 167.212094 160.653022  L 168.023811 183.604025  L 168.42967 189.350794  L 168.6326 190.289108  L 168.734064 190.263396  L 168.886261 189.629859  L 169.139923 187.027355  L 169.49505 180.406996  L 170.002373 166.095907  L 170.966288 130.719389  L 171.930202 98.480534  L 172.488258 86.372562  L 172.894117 81.662363  L 173.147778 80.513718  L 173.299975 80.434138  L 173.452172 80.776699  L 173.705834 82.204419  L 174.060961 85.770886  L 174.619016 94.195241  L 175.633663 113.988726  L 176.800507 135.272543  L 177.51076 144.358732  L 178.068816 148.855503  L 178.474675 150.618474  L 178.779069 151.14725  L 178.981998 151.142247  L 179.184928 150.877602  L 179.489322 150.049845  L 179.89518 148.249334  L 180.503969 144.412544  L 182.736192 129.221711  L 183.294248 127.246699  L 183.700106 126.465752  L 184.0045 126.232882  L 184.258162 126.255818  L 184.562556 126.521438  L 184.968415 127.226143  L 185.526471 128.696425  L 186.642582 132.446679  L 187.657229 135.549596  L 188.31675 136.94681  L 188.874806 137.641435  L 189.331397 137.872171  L 189.737256 137.839808  L 190.193847 137.570408  L 190.802635 136.911476  L 191.817282 135.400921  L 193.08559 133.600706  L 193.846576 132.898398  L 194.455364 132.6098  L 195.064152 132.558229  L 195.723672 132.727676  L 196.636855 133.217691  L 198.716881 134.41595  L 199.630063 134.639667  L 200.543245 134.618783  L 201.608624 134.356148  L 204.956959 133.365002  L 206.326733 133.308908  L 209.015547 133.5105  L 210.943376 133.509087  L 213.581458 133.241815  L 216.625399 133.003546  L 234.38172 132.46543  L 244.173063 132.366296  L 257.109811 132.445098  L 311.850012 133.022987  L 348.884625 132.859039  L 369.076099 132.670323  L 369.228296 131.776468  L 369.481957 128.739675  L 369.887816 120.714447  L 370.547337 102.258958  L 371.663448 71.282311  L 372.170772 62.530406  L 372.525898 59.319691  L 372.77956 58.578843  L 372.881024 58.64188  L 373.033222 59.11167  L 373.286883 60.853224  L 373.64201 65.124452  L 374.149333 74.272413  L 375.011783 94.807684  L 376.533753 131.055102  L 377.244006 142.887036  L 377.802062 148.985687  L 378.258653 151.79526  L 378.563047 152.625501  L 378.765977 152.739969  L 378.968906 152.534189  L 379.222568 151.870303  L 379.577694 150.263442  L 380.085018 146.834464  L 380.9982 138.765422  L 382.215776 128.517423  L 382.824564 125.140538  L 383.281155 123.60881  L 383.636282 123.006739  L 383.940676 122.880943  L 384.194338 123.030993  L 384.498732 123.486157  L 384.955323 124.642223  L 385.614843 127.015627  L 387.644137 134.787906  L 388.252925 136.182552  L 388.760249 136.842915  L 389.166108 137.045701  L 389.521234 137.002968  L 389.927093 136.732193  L 390.485149 136.049032  L 391.347598 134.561787  L 392.818836 132.018666  L 393.529089 131.22088  L 394.137877 130.860481  L 394.695933 130.791143  L 395.304721 130.963489  L 396.065707 131.445092  L 398.855986 133.479346  L 399.667703 133.672525  L 400.479421 133.638169  L 401.5448 133.346157  L 404.284347 132.478095  L 405.451191 132.411789  L 406.871696 132.572159  L 410.118566 133.014035  L 411.995663 132.973875  L 416.510842 132.785363  L 426.149988 132.877229  L 622.636364 132.865261  L 622.636364 132.865261  "
           style="fill:none;stroke:#be1e3c;stroke-linecap:round;stroke-width:1.5;"
           id="path2201" />
      </g>
      <g
         id="line2d_22">
        <path
           clip-path="url(#p1492f1524e)"
           d="M 115.363636 135.164975  L 120.538336 135.25986  L 126.321823 135.138249  L 133.373619 134.757769  L 144.889862 133.876491  L 158.942722 132.860784  L 166.04525 132.496772  L 166.146715 132.886722  L 166.349644 135.714259  L 166.755503 145.140158  L 168.480403 190.943005  L 168.784797 193.139878  L 168.936994 193.355702  L 169.038458 193.192817  L 169.241388 192.183548  L 169.545782 189.165547  L 170.002373 182.062289  L 171.067752 160.619391  L 171.930202 145.688781  L 172.53899 138.622461  L 173.046314 135.063341  L 173.502905 133.306478  L 173.908764 132.546443  L 174.26389 132.292439  L 174.669749 132.287235  L 175.380002 132.58196  L 176.343916 132.92897  L 177.104901 132.957447  L 178.119548 132.749415  L 180.503969 132.205144  L 182.228868 132.102277  L 188.519679 132.126894  L 200.289584 132.336094  L 235.650029 133.068788  L 252.34097 133.096699  L 287.549219 132.847136  L 316.618853 132.796493  L 369.025366 132.860691  L 369.177563 132.23764  L 369.431225 129.643068  L 369.887816 121.927063  L 370.851731 105.229418  L 371.206857 102.366395  L 371.460519 101.738371  L 371.561983 101.792888  L 371.714181 102.169398  L 371.967842 103.476824  L 372.424433 107.35953  L 374.352262 125.60757  L 374.961051 128.716654  L 375.519106 130.448128  L 376.02643 131.351756  L 376.533753 131.835477  L 377.142542 132.095311  L 378.106456 132.21798  L 380.541609 132.494142  L 383.281155 132.808892  L 386.375828 132.879617  L 407.632681 132.875098  L 505.038786 132.870127  L 622.636364 132.866876  L 622.636364 132.866876  "
           style="fill:none;stroke:#00709b;stroke-linecap:round;stroke-width:1.5;"
           id="path2204" />
      </g>
      <g
         id="patch_3">
        <path
           d="M 90 200.094545  L 90 51.84  "
           style="fill:none;stroke:#cccccc;stroke-linecap:square;stroke-linejoin:miter;"
           id="path2207" />
      </g>
      <g
         id="patch_4">
        <path
           d="M 648 200.094545  L 648 51.84  "
           style="fill:none;stroke:#cccccc;stroke-linecap:square;stroke-linejoin:miter;"
           id="path2210" />
      </g>
      <g
         id="patch_5">
        <path
           d="M 90 200.094545  L 648 200.094545  "
           style="fill:none;stroke:#cccccc;stroke-linecap:square;stroke-linejoin:miter;"
           id="path2213" />
      </g>
      <g
         id="patch_6">
        <path
           d="M 90 51.84  L 648 51.84  "
           style="fill:none;stroke:#cccccc;stroke-linecap:square;stroke-linejoin:miter;"
           id="path2216" />
      </g>
      <g
         id="patch_7" />
      <g
         id="text_7" />
      <g
         id="text_8">
        <text
           style="fill:#262626;font-family:Arial;font-size:12px;font-style:normal;font-weight:400;text-anchor:start;"
           transform="rotate(-0, 90, 45.84)"
           x="90"
           y="45.84"
           id="text2227">T_{amb}=290 K, Q_C = -60 kW</text>
      </g>
      <g
         id="legend_1">
        <g
           id="line2d_23">
          <path
             d="M 514.848438 171.461733  L 534.848438 171.461733  "
             style="fill:none;stroke:#be1e3c;stroke-linecap:round;stroke-width:1.5;"
             id="path2230" />
        </g>
        <g
           id="line2d_24" />
        <g
           id="text_9">
          <text
             style="fill:#262626;font-family:Arial;font-size:10px;font-style:normal;font-weight:400;text-anchor:start;"
             transform="rotate(-0, 542.848438, 174.961733)"
             x="542.848438"
             y="174.961733"
             id="text2234">Decentralized Control</text>
        </g>
        <g
           id="line2d_25">
          <path
             d="M 514.848438 185.607045  L 534.848438 185.607045  "
             style="fill:none;stroke:#00709b;stroke-linecap:round;stroke-width:1.5;"
             id="path2237" />
        </g>
        <g
           id="line2d_26" />
        <g
           id="text_10">
          <text
             style="fill:#262626;font-family:Arial;font-size:10px;font-style:normal;font-weight:400;text-anchor:start;"
             transform="rotate(-0, 542.848438, 189.107045)"
             x="542.848438"
             y="189.107045"
             id="text2241">R2D2</text>
        </g>
      </g>
    </g>
    <g
       id="axes_2">
      <g
         id="patch_8">
        <path
           d="M 90 378  L 648 378  L 648 229.745455  L 90 229.745455  z "
           style="fill:#ffffff;"
           id="path2246" />
      </g>
      <g
         id="matplotlib.axis_3">
        <g
           id="xtick_6">
          <g
             id="line2d_27">
            <path
               clip-path="url(#p8398693035)"
               d="M 166.04525 378  L 166.04525 229.745455  "
               style="fill:none;stroke:#cccccc;stroke-linecap:round;stroke-width:0.8;"
               id="path2249" />
          </g>
          <g
             id="line2d_28" />
          <g
             id="text_11">
            <text
               style="fill:#262626;font-family:Arial;font-size:10px;font-style:normal;font-weight:400;text-anchor:middle;"
               transform="rotate(-0, 166.04525, 388.657812)"
               x="166.04525"
               y="388.657812"
               id="text2253">6000</text>
          </g>
        </g>
        <g
           id="xtick_7">
          <g
             id="line2d_29">
            <path
               clip-path="url(#p8398693035)"
               d="M 267.509942 378  L 267.509942 229.745455  "
               style="fill:none;stroke:#cccccc;stroke-linecap:round;stroke-width:0.8;"
               id="path2257" />
          </g>
          <g
             id="line2d_30" />
          <g
             id="text_12">
            <text
               style="fill:#262626;font-family:Arial;font-size:10px;font-style:normal;font-weight:400;text-anchor:middle;"
               transform="rotate(-0, 267.509942, 388.657812)"
               x="267.509942"
               y="388.657812"
               id="text2261">8000</text>
          </g>
        </g>
        <g
           id="xtick_8">
          <g
             id="line2d_31">
            <path
               clip-path="url(#p8398693035)"
               d="M 368.974634 378  L 368.974634 229.745455  "
               style="fill:none;stroke:#cccccc;stroke-linecap:round;stroke-width:0.8;"
               id="path2265" />
          </g>
          <g
             id="line2d_32" />
          <g
             id="text_13">
            <text
               style="fill:#262626;font-family:Arial;font-size:10px;font-style:normal;font-weight:400;text-anchor:middle;"
               transform="rotate(-0, 368.974634, 388.657812)"
               x="368.974634"
               y="388.657812"
               id="text2269">10000</text>
          </g>
        </g>
        <g
           id="xtick_9">
          <g
             id="line2d_33">
            <path
               clip-path="url(#p8398693035)"
               d="M 470.439326 378  L 470.439326 229.745455  "
               style="fill:none;stroke:#cccccc;stroke-linecap:round;stroke-width:0.8;"
               id="path2273" />
          </g>
          <g
             id="line2d_34" />
          <g
             id="text_14">
            <text
               style="fill:#262626;font-family:Arial;font-size:10px;font-style:normal;font-weight:400;text-anchor:middle;"
               transform="rotate(-0, 470.439326, 388.657812)"
               x="470.439326"
               y="388.657812"
               id="text2277">12000</text>
          </g>
        </g>
        <g
           id="xtick_10">
          <g
             id="line2d_35">
            <path
               clip-path="url(#p8398693035)"
               d="M 571.904018 378  L 571.904018 229.745455  "
               style="fill:none;stroke:#cccccc;stroke-linecap:round;stroke-width:0.8;"
               id="path2281" />
          </g>
          <g
             id="line2d_36" />
          <g
             id="text_15">
            <text
               style="fill:#262626;font-family:Arial;font-size:10px;font-style:normal;font-weight:400;text-anchor:middle;"
               transform="rotate(-0, 571.904018, 388.657812)"
               x="571.904018"
               y="388.657812"
               id="text2285">14000</text>
          </g>
        </g>
        <g
           id="text_16">
          <text
             style="fill:#262626;font-family:Arial;font-size:10px;font-style:normal;font-weight:400;text-anchor:middle;"
             transform="rotate(-0, 369, 401.803125)"
             x="369"
             y="401.803125"
             id="text2289">Time [s]</text>
        </g>
      </g>
      <g
         id="matplotlib.axis_4">
        <g
           id="ytick_6">
          <g
             id="line2d_37">
            <path
               clip-path="url(#p8398693035)"
               d="M 90 358.687638  L 648 358.687638  "
               style="fill:none;stroke:#cccccc;stroke-linecap:round;stroke-width:0.8;"
               id="path2293" />
          </g>
          <g
             id="line2d_38" />
          <g
             id="text_17">
            <text
               style="fill:#262626;font-family:Arial;font-size:10px;font-style:normal;font-weight:400;text-anchor:end;"
               transform="rotate(-0, 86.5, 362.266544)"
               x="86.5"
               y="362.266544"
               id="text2297">68.25</text>
          </g>
        </g>
        <g
           id="ytick_7">
          <g
             id="line2d_39">
            <path
               clip-path="url(#p8398693035)"
               d="M 90 332.473591  L 648 332.473591  "
               style="fill:none;stroke:#cccccc;stroke-linecap:round;stroke-width:0.8;"
               id="path2301" />
          </g>
          <g
             id="line2d_40" />
          <g
             id="text_18">
            <text
               style="fill:#262626;font-family:Arial;font-size:10px;font-style:normal;font-weight:400;text-anchor:end;"
               transform="rotate(-0, 86.5, 336.052497)"
               x="86.5"
               y="336.052497"
               id="text2305">68.50</text>
          </g>
        </g>
        <g
           id="ytick_8">
          <g
             id="line2d_41">
            <path
               clip-path="url(#p8398693035)"
               d="M 90 306.259543  L 648 306.259543  "
               style="fill:none;stroke:#cccccc;stroke-linecap:round;stroke-width:0.8;"
               id="path2309" />
          </g>
          <g
             id="line2d_42" />
          <g
             id="text_19">
            <text
               style="fill:#262626;font-family:Arial;font-size:10px;font-style:normal;font-weight:400;text-anchor:end;"
               transform="rotate(-0, 86.5, 309.83845)"
               x="86.5"
               y="309.83845"
               id="text2313">68.75</text>
          </g>
        </g>
        <g
           id="ytick_9">
          <g
             id="line2d_43">
            <path
               clip-path="url(#p8398693035)"
               d="M 90 280.045496  L 648 280.045496  "
               style="fill:none;stroke:#cccccc;stroke-linecap:round;stroke-width:0.8;"
               id="path2317" />
          </g>
          <g
             id="line2d_44" />
          <g
             id="text_20">
            <text
               style="fill:#262626;font-family:Arial;font-size:10px;font-style:normal;font-weight:400;text-anchor:end;"
               transform="rotate(-0, 86.5, 283.624402)"
               x="86.5"
               y="283.624402"
               id="text2321">69.00</text>
          </g>
        </g>
        <g
           id="ytick_10">
          <g
             id="line2d_45">
            <path
               clip-path="url(#p8398693035)"
               d="M 90 253.831448  L 648 253.831448  "
               style="fill:none;stroke:#cccccc;stroke-linecap:round;stroke-width:0.8;"
               id="path2325" />
          </g>
          <g
             id="line2d_46" />
          <g
             id="text_21">
            <text
               style="fill:#262626;font-family:Arial;font-size:10px;font-style:normal;font-weight:400;text-anchor:end;"
               transform="rotate(-0, 86.5, 257.410355)"
               x="86.5"
               y="257.410355"
               id="text2329">69.25</text>
          </g>
        </g>
        <g
           id="text_22">
          <text
             style="fill:#262626;font-family:Arial;font-size:10px;font-style:normal;font-weight:400;text-anchor:middle;"
             transform="rotate(-90, 55.490625, 303.872727)"
             x="55.490625"
             y="303.872727"
             id="text2333">Pressure [bar]</text>
        </g>
      </g>
      <g
         id="line2d_47">
        <path
           clip-path="url(#p8398693035)"
           d="M 115.363636 327.399975  L 118.103183 327.291047  L 121.654447 327.386092  L 125.256444 327.695271  L 129.06137 328.255484  L 134.083872 329.232878  L 141.034203 330.832971  L 152.448981 333.450155  L 158.587595 334.612879  L 164.117421 335.436879  L 166.04525 335.669759  L 166.501841 332.834963  L 166.856968 323.987599  L 167.415023 302.978704  L 168.683332 254.039736  L 169.190655 242.1036  L 169.545782 237.648598  L 169.799444 236.507207  L 169.900908 236.529174  L 170.053105 237.067932  L 170.306767 239.275353  L 170.661893 244.929683  L 171.169217 257.407415  L 172.234596 291.609664  L 173.705834 337.303396  L 174.416087 352.446382  L 174.923411 359.201741  L 175.329269 362.103193  L 175.633663 362.922962  L 175.78586 362.932056  L 175.98879 362.563705  L 176.293184 361.275204  L 176.699043 358.409638  L 177.358563 351.807366  L 179.590786 327.82711  L 180.09811 325.14851  L 180.503969 324.071724  L 180.75763 323.853799  L 180.96056 323.912771  L 181.417151 324.439404  L 181.82301 325.516594  L 182.381065 327.772888  L 183.395712 333.067107  L 184.461092 338.252455  L 185.120612 340.485121  L 185.627936 341.531537  L 186.033794 341.938749  L 186.388921 341.99845  L 186.744047 341.808126  L 187.200638 341.251398  L 187.809426 340.103041  L 190.447508 334.582496  L 191.056297 334.007016  L 191.56362 333.814018  L 192.070943 333.859976  L 192.628999 334.139474  L 193.440717 334.833771  L 195.470011 336.69388  L 196.230996 337.045809  L 196.941249 337.13124  L 197.702234 336.989163  L 198.716881 336.540094  L 201.202766 335.333214  L 202.268145 335.124157  L 203.434989 335.135481  L 207.950168 335.445029  L 210.030194 335.131233  L 212.820473 334.751679  L 215.610752 334.643457  L 219.567875 334.448896  L 225.960151 334.065463  L 239.556419 333.691898  L 249.905818 333.68698  L 263.705016 333.927223  L 294.854676 334.526184  L 312.154406 334.57835  L 341.528435 334.3924  L 369.025366 334.208135  L 369.177563 332.553015  L 369.481957 324.928035  L 370.39514 300.35065  L 370.750266 296.128358  L 370.953195 295.420168  L 371.05466 295.520799  L 371.206857 296.215285  L 371.460519 298.717951  L 371.866378 305.671175  L 372.525898 321.96449  L 373.895671 356.513479  L 374.453727 365.668557  L 374.910318 369.917361  L 375.214712 371.123513  L 375.417642 371.240943  L 375.569839 370.989243  L 375.823501 369.967921  L 376.178627 367.412078  L 376.68595 361.938894  L 377.5484 349.731874  L 379.171835 326.760715  L 379.729891 322.066575  L 380.186482 319.894484  L 380.490876 319.251801  L 380.693806 319.157657  L 380.896735 319.311686  L 381.251862 320.012119  L 381.556256 320.880825  L 382.063579 323.117902  L 382.875297 327.967783  L 384.295802 336.487246  L 384.955323 339.138429  L 385.462646 340.360049  L 385.868505 340.815902  L 386.172899 340.870453  L 386.477293 340.700644  L 386.883152 340.17033  L 387.441208 338.998379  L 388.405122 336.328142  L 389.622699 333.12247  L 390.282219 331.938907  L 390.840275 331.352997  L 391.296866 331.163095  L 391.753457 331.214809  L 392.260781 331.514393  L 392.920301 332.185303  L 395.609115 335.257915  L 396.268636 335.559908  L 396.928156 335.618192  L 397.638409 335.450017  L 398.602324 334.972481  L 400.68235 333.88333  L 401.646265 333.665633  L 402.610179 333.679154  L 403.878488 333.943853  L 406.51657 334.543611  L 407.937076 334.584659  L 410.067834 334.37625  L 412.452254 334.213376  L 414.887407 334.303152  L 418.692333 334.428858  L 434.926684 334.417019  L 466.177809 334.388529  L 533.347435 334.357361  L 622.636364 334.360891  L 622.636364 334.360891  "
           style="fill:none;stroke:#be1e3c;stroke-linecap:round;stroke-width:1.5;"
           id="path2337" />
      </g>
      <g
         id="line2d_48">
        <path
           clip-path="url(#p8398693035)"
           d="M 115.363636 329.675857  L 119.219295 329.676172  L 123.480812 329.904704  L 128.401849 330.401003  L 134.69266 331.274213  L 156.710498 334.519688  L 163.407168 335.170054  L 166.04525 335.362718  L 166.501841 332.702508  L 166.9077 323.120022  L 167.973079 295.644075  L 168.328206 291.837084  L 168.531135 291.157316  L 168.6326 291.19395  L 168.784797 291.678649  L 169.038458 293.490337  L 169.444317 298.35672  L 170.509696 315.267432  L 171.270682 325.322242  L 171.778005 329.731489  L 172.386793 332.724827  L 172.944849 334.42144  L 173.452172 335.30956  L 173.908764 335.695693  L 174.365355 335.802557  L 175.024875 335.684517  L 176.546846 335.331588  L 177.51076 335.387335  L 181.467883 335.878553  L 185.678668 335.81344  L 194.506096 335.517676  L 213.378529 334.58016  L 225.960151 334.10162  L 237.121267 333.902326  L 249.550691 333.911808  L 268.930448 334.185592  L 293.992226 334.483613  L 315.604206 334.493641  L 369.025366 334.230539  L 369.177563 332.580472  L 369.481957 325.164536  L 370.141478 309.042866  L 370.445872 305.734302  L 370.648801 305.103116  L 370.750266 305.204283  L 370.953195 306.105529  L 371.308322 309.294075  L 372.728827 323.89287  L 373.185419 326.156209  L 373.591277 327.199196  L 373.997136 327.68046  L 374.605924 327.995553  L 375.265445 328.416057  L 375.874233 329.093029  L 377.142542 330.963305  L 378.157188 332.231062  L 379.019638 332.946591  L 379.932821 333.405481  L 381.099665 333.728128  L 383.027494 334.000827  L 386.223631 334.215679  L 391.449063 334.303542  L 419.70698 334.375164  L 489.971279 334.356447  L 622.636364 334.361996  L 622.636364 334.361996  "
           style="fill:none;stroke:#00709b;stroke-linecap:round;stroke-width:1.5;"
           id="path2340" />
      </g>
      <g
         id="patch_9">
        <path
           d="M 90 378  L 90 229.745455  "
           style="fill:none;stroke:#cccccc;stroke-linecap:square;stroke-linejoin:miter;"
           id="path2343" />
      </g>
      <g
         id="patch_10">
        <path
           d="M 648 378  L 648 229.745455  "
           style="fill:none;stroke:#cccccc;stroke-linecap:square;stroke-linejoin:miter;"
           id="path2346" />
      </g>
      <g
         id="patch_11">
        <path
           d="M 90 378  L 648 378  "
           style="fill:none;stroke:#cccccc;stroke-linecap:square;stroke-linejoin:miter;"
           id="path2349" />
      </g>
      <g
         id="patch_12">
        <path
           d="M 90 229.745455  L 648 229.745455  "
           style="fill:none;stroke:#cccccc;stroke-linecap:square;stroke-linejoin:miter;"
           id="path2352" />
      </g>
      <g
         id="patch_13" />
      <g
         id="text_23" />
    </g>
  </g>
  <defs
     id="defs2371">
    <clipPath
       id="p1492f1524e">
      <rect
         height="148.254545"
         width="558"
         x="90"
         y="51.84"
         id="rect2365" />
    </clipPath>
    <clipPath
       id="p8398693035">
      <rect
         height="148.254545"
         width="558"
         x="90"
         y="229.745455"
         id="rect2368" />
    </clipPath>
  </defs>
  <text
     xml:space="preserve"
     style="font-style:normal;font-variant:normal;font-weight:normal;font-stretch:normal;font-size:28px;line-height:1.25;font-family:NexusSansPro;-inkscape-font-specification:'NexusSansPro, Normal';font-variant-ligatures:normal;font-variant-caps:normal;font-variant-numeric:normal;font-feature-settings:normal;text-align:start;letter-spacing:0px;word-spacing:0px;writing-mode:lr-tb;text-anchor:start;fill:#000000;fill-opacity:1;stroke:none;stroke-width:0.75;stroke-linecap:butt;stroke-linejoin:round"
     x="189.81012"
     y="302.50336"
     id="text3029"><tspan
       sodipodi:role="line"
       id="tspan3027"
       style="stroke-width:0.75;stroke-linecap:butt;stroke-linejoin:round"
       x="189.81012"
       y="302.50336">\Delta A_{eff} = -0.2~10^{-6} m^2</tspan></text>
  <text
     xml:space="preserve"
     style="font-style:normal;font-variant:normal;font-weight:normal;font-stretch:normal;font-size:28px;line-height:1.25;font-family:NexusSansPro;-inkscape-font-specification:'NexusSansPro, Normal';font-variant-ligatures:normal;font-variant-caps:normal;font-variant-numeric:normal;font-feature-settings:normal;text-align:start;letter-spacing:0px;word-spacing:0px;writing-mode:lr-tb;text-anchor:start;fill:#000000;fill-opacity:1;stroke:none;stroke-width:0.75;stroke-linecap:butt;stroke-linejoin:round"
     x="387.15546"
     y="106.0808"
     id="text3029-9"><tspan
       sodipodi:role="line"
       id="tspan3027-8"
       style="stroke-width:0.75;stroke-linecap:butt;stroke-linejoin:round"
       x="387.15546"
       y="106.0808">\Delta n = -0.5 \frac{1}{min}</tspan></text>
</svg>
